<?xml version="1.0" encoding="utf-8" standalone="no"?>
<!DOCTYPE svg PUBLIC "-//W3C//DTD SVG 1.1//EN"
  "http://www.w3.org/Graphics/SVG/1.1/DTD/svg11.dtd">
<!-- Created with matplotlib (https://matplotlib.org/) -->
<svg height="231.84pt" version="1.1" viewBox="0 0 324.893305 231.84" width="324.893305pt" xmlns="http://www.w3.org/2000/svg" xmlns:xlink="http://www.w3.org/1999/xlink">
 <defs>
  <style type="text/css">
*{stroke-linecap:butt;stroke-linejoin:round;white-space:pre;}
  </style>
 </defs>
 <g id="figure_1">
  <g id="patch_1">
   <path d="M 0 231.84 
L 324.893305 231.84 
L 324.893305 0 
L 0 0 
z
" style="fill:#ffffff;"/>
  </g>
  <g id="axes_1">
   <g id="patch_2">
    <path d="M 145.363922 22.701257 
C 133.482394 22.701257 121.725916 25.135907 110.821588 29.85463 
C 99.917261 34.573354 90.094615 41.476825 81.961149 50.138086 
L 145.363922 109.677257 
L 145.363922 22.701257 
z
" style="fill:#4c0000;opacity:0.5;stroke:#4c0000;stroke-linejoin:miter;"/>
   </g>
   <g id="patch_3">
    <path d="M 85.415382 58.120349 
C 78.618453 65.358343 73.110864 73.707076 69.131793 82.803987 
C 65.152722 91.900899 62.760614 101.612371 62.059352 111.516665 
C 61.358091 121.420959 62.357975 131.372597 65.015582 140.939411 
C 67.67319 150.506225 71.949487 159.547694 77.658765 167.671175 
C 83.368043 175.794657 90.426443 182.88083 98.527441 188.621965 
C 106.62844 194.3631 115.653046 198.67487 125.209349 201.370026 
C 134.765653 204.065183 144.713288 205.104139 154.620259 204.441777 
C 164.527231 203.779415 174.248022 201.425463 183.360489 197.482147 
C 192.472956 193.53883 200.843253 188.064069 208.107883 181.295616 
C 215.372513 174.527163 221.424771 166.564435 226.001827 157.753228 
C 230.578883 148.942021 233.613507 139.411757 234.973914 129.576306 
C 236.334322 119.740855 236.000532 109.744683 233.987039 100.021893 
C 231.973546 90.299103 228.309925 80.992505 223.155276 72.506258 
C 218.000627 64.02001 211.430663 56.47876 203.730696 50.210002 
C 196.03073 43.941244 187.313862 39.037055 177.958637 35.710408 
C 168.603413 32.383762 158.747244 30.68352 148.818155 30.68352 
L 148.818155 117.65952 
L 85.415382 58.120349 
z
" style="fill:#2a0000;opacity:0.5;stroke:#2a0000;stroke-linejoin:miter;"/>
   </g>
   <g id="patch_4">
    <path d="M 147.103442 20.961737 
C 135.221914 20.961737 123.465436 23.396387 112.561108 28.11511 
C 101.656781 32.833834 91.834135 39.737305 83.700669 48.398566 
L 147.103442 107.937737 
L 147.103442 20.961737 
z
" style="fill:#ff0000;"/>
   </g>
   <g id="patch_5">
    <path d="M 87.154902 56.380829 
C 80.357973 63.618823 74.850384 71.967556 70.871313 81.064467 
C 66.892242 90.161379 64.500134 99.872851 63.798872 109.777145 
C 63.097611 119.681439 64.097495 129.633077 66.755102 139.199891 
C 69.41271 148.766705 73.689007 157.808174 79.398285 165.931655 
C 85.107563 174.055137 92.165963 181.14131 100.266961 186.882445 
C 108.36796 192.62358 117.392566 196.93535 126.948869 199.630506 
C 136.505173 202.325663 146.452808 203.364619 156.359779 202.702257 
C 166.266751 202.039895 175.987542 199.685943 185.100009 195.742627 
C 194.212476 191.79931 202.582773 186.324549 209.847403 179.556096 
C 217.112033 172.787643 223.164291 164.824915 227.741347 156.013708 
C 232.318403 147.202501 235.353027 137.672237 236.713434 127.836786 
C 238.073842 118.001335 237.740052 108.005163 235.726559 98.282373 
C 233.713066 88.559583 230.049445 79.252985 224.894796 70.766738 
C 219.740147 62.28049 213.170183 54.73924 205.470216 48.470482 
C 197.77025 42.201724 189.053382 37.297535 179.698157 33.970888 
C 170.342933 30.644242 160.486764 28.944 150.557675 28.944 
L 150.557675 115.92 
L 87.154902 56.380829 
z
" style="fill:#8b0000;"/>
   </g>
   <g id="matplotlib.axis_1"/>
   <g id="matplotlib.axis_2"/>
   <g id="text_1">
    <text style="font-family:Arial;font-size:14px;font-style:normal;font-weight:normal;text-anchor:end;" transform="rotate(-0, 109.106875, 23.755348)" x="109.106875" y="23.755348">Cycling Families</text>
   </g>
   <g id="text_2">
    <text style="fill:#ffffff;font-family:Arial;font-size:14px;font-style:normal;font-weight:normal;text-anchor:middle;" transform="rotate(-0, 119.469575, 47.698855)" x="119.469575" y="47.698855">13%</text>
   </g>
   <g id="text_3">
    <text style="font-family:Arial;font-size:14px;font-style:normal;font-weight:normal;text-anchor:start;" transform="rotate(-0, 188.554243, 207.262077)" x="188.554243" y="207.262077">Non-cycling Families</text>
   </g>
   <g id="text_4">
    <text style="fill:#ffffff;font-family:Arial;font-size:14px;font-style:normal;font-weight:normal;text-anchor:middle;" transform="rotate(-0, 178.191542, 183.39732)" x="178.191542" y="183.39732">87%</text>
   </g>
  </g>
 </g>
</svg>
