<?xml version="1.0" encoding="utf-8" standalone="no"?>
<!DOCTYPE svg PUBLIC "-//W3C//DTD SVG 1.1//EN"
  "http://www.w3.org/Graphics/SVG/1.1/DTD/svg11.dtd">
<!-- Created with matplotlib (https://matplotlib.org/) -->
<svg height="287.79875pt" version="1.1" viewBox="0 0 454.421875 287.79875" width="454.421875pt" xmlns="http://www.w3.org/2000/svg" xmlns:xlink="http://www.w3.org/1999/xlink">
 <defs>
  <style type="text/css">
*{stroke-linecap:butt;stroke-linejoin:round;}
  </style>
 </defs>
 <g id="figure_1">
  <g id="patch_1">
   <path d="M 0 287.79875 
L 454.421875 287.79875 
L 454.421875 0 
L 0 0 
z
" style="fill:#ffffff;"/>
  </g>
  <g id="axes_1">
   <g id="patch_2">
    <path d="M 42.46 245.199375 
L 377.26 245.199375 
L 377.26 27.759375 
L 42.46 27.759375 
z
" style="fill:#ffffff;"/>
   </g>
   <g id="patch_3">
    <path clip-path="url(#paf78d54b66)" d="M 59.8696 147.460345 
L 125.4904 147.460345 
L 125.4904 122.966938 
L 59.8696 122.966938 
L 59.8696 147.460345 
z
" style="fill:#df2020;stroke:#4c4c4c;stroke-linejoin:miter;stroke-width:1.5;"/>
   </g>
   <g id="patch_4">
    <path clip-path="url(#paf78d54b66)" d="M 126.8296 192.381655 
L 192.4504 192.381655 
L 192.4504 150.322419 
L 126.8296 150.322419 
L 126.8296 192.381655 
z
" style="fill:#2020df;stroke:#4c4c4c;stroke-linejoin:miter;stroke-width:1.5;"/>
   </g>
   <g id="patch_5">
    <path clip-path="url(#paf78d54b66)" d="M 227.2696 164.479888 
L 292.8904 164.479888 
L 292.8904 125.669701 
L 227.2696 125.669701 
L 227.2696 164.479888 
z
" style="fill:#df2020;stroke:#4c4c4c;stroke-linejoin:miter;stroke-width:1.5;"/>
   </g>
   <g id="patch_6">
    <path clip-path="url(#paf78d54b66)" d="M 294.2296 184.802582 
L 359.8504 184.802582 
L 359.8504 150.860223 
L 294.2296 150.860223 
L 294.2296 184.802582 
z
" style="fill:#2020df;stroke:#4c4c4c;stroke-linejoin:miter;stroke-width:1.5;"/>
   </g>
   <g id="PathCollection_1"/>
   <g id="PathCollection_2"/>
   <g id="patch_7">
    <path clip-path="url(#paf78d54b66)" d="M 126.16 307.374757 
L 126.16 307.374757 
L 126.16 307.374757 
L 126.16 307.374757 
z
" style="fill:#df2020;stroke:#4c4c4c;stroke-linejoin:miter;stroke-width:0.75;"/>
   </g>
   <g id="patch_8">
    <path clip-path="url(#paf78d54b66)" d="M 126.16 307.374757 
L 126.16 307.374757 
L 126.16 307.374757 
L 126.16 307.374757 
z
" style="fill:#2020df;stroke:#4c4c4c;stroke-linejoin:miter;stroke-width:0.75;"/>
   </g>
   <g id="matplotlib.axis_1">
    <g id="xtick_1">
     <g id="line2d_1">
      <defs>
       <path d="M 0 0 
L 0 3.5 
" id="mf201e5c785" style="stroke:#000000;stroke-width:0.8;"/>
      </defs>
      <g>
       <use style="stroke:#000000;stroke-width:0.8;" x="126.16" xlink:href="#mf201e5c785" y="245.199375"/>
      </g>
     </g>
     <g id="text_1">
      <text style="font-family:Arial;font-size:12px;font-style:normal;font-weight:normal;text-anchor:middle;" transform="rotate(-0, 126.16, 260.935)" x="126.16" y="260.935">Light/Inactive</text>
     </g>
    </g>
    <g id="xtick_2">
     <g id="line2d_2">
      <g>
       <use style="stroke:#000000;stroke-width:0.8;" x="293.56" xlink:href="#mf201e5c785" y="245.199375"/>
      </g>
     </g>
     <g id="text_2">
      <text style="font-family:Arial;font-size:12px;font-style:normal;font-weight:normal;text-anchor:middle;" transform="rotate(-0, 293.56, 260.935)" x="293.56" y="260.935">Night/Active</text>
     </g>
    </g>
    <g id="text_3">
     <text style="font-family:Arial;font-size:14px;font-style:normal;font-weight:normal;text-anchor:middle;" transform="rotate(-0, 209.86, 277.652187)" x="209.86" y="277.652187">Phase of Cycle</text>
    </g>
   </g>
   <g id="matplotlib.axis_2">
    <g id="ytick_1">
     <g id="line2d_3">
      <defs>
       <path d="M 0 0 
L -3.5 0 
" id="m2f3b41f4f0" style="stroke:#000000;stroke-width:0.8;"/>
      </defs>
      <g>
       <use style="stroke:#000000;stroke-width:0.8;" x="42.46" xlink:href="#m2f3b41f4f0" y="223.828635"/>
      </g>
     </g>
     <g id="text_4">
      <text style="font-family:Arial;font-size:10px;font-style:normal;font-weight:normal;text-anchor:end;" transform="rotate(-0, 35.46, 227.407541)" x="35.46" y="227.407541">3</text>
     </g>
    </g>
    <g id="ytick_2">
     <g id="line2d_4">
      <g>
       <use style="stroke:#000000;stroke-width:0.8;" x="42.46" xlink:href="#m2f3b41f4f0" y="195.979927"/>
      </g>
     </g>
     <g id="text_5">
      <text style="font-family:Arial;font-size:10px;font-style:normal;font-weight:normal;text-anchor:end;" transform="rotate(-0, 35.46, 199.558833)" x="35.46" y="199.558833">4</text>
     </g>
    </g>
    <g id="ytick_3">
     <g id="line2d_5">
      <g>
       <use style="stroke:#000000;stroke-width:0.8;" x="42.46" xlink:href="#m2f3b41f4f0" y="168.13122"/>
      </g>
     </g>
     <g id="text_6">
      <text style="font-family:Arial;font-size:10px;font-style:normal;font-weight:normal;text-anchor:end;" transform="rotate(-0, 35.46, 171.710126)" x="35.46" y="171.710126">5</text>
     </g>
    </g>
    <g id="ytick_4">
     <g id="line2d_6">
      <g>
       <use style="stroke:#000000;stroke-width:0.8;" x="42.46" xlink:href="#m2f3b41f4f0" y="140.282512"/>
      </g>
     </g>
     <g id="text_7">
      <text style="font-family:Arial;font-size:10px;font-style:normal;font-weight:normal;text-anchor:end;" transform="rotate(-0, 35.46, 143.861418)" x="35.46" y="143.861418">6</text>
     </g>
    </g>
    <g id="ytick_5">
     <g id="line2d_7">
      <g>
       <use style="stroke:#000000;stroke-width:0.8;" x="42.46" xlink:href="#m2f3b41f4f0" y="112.433805"/>
      </g>
     </g>
     <g id="text_8">
      <text style="font-family:Arial;font-size:10px;font-style:normal;font-weight:normal;text-anchor:end;" transform="rotate(-0, 35.46, 116.012711)" x="35.46" y="116.012711">7</text>
     </g>
    </g>
    <g id="ytick_6">
     <g id="line2d_8">
      <g>
       <use style="stroke:#000000;stroke-width:0.8;" x="42.46" xlink:href="#m2f3b41f4f0" y="84.585097"/>
      </g>
     </g>
     <g id="text_9">
      <text style="font-family:Arial;font-size:10px;font-style:normal;font-weight:normal;text-anchor:end;" transform="rotate(-0, 35.46, 88.164003)" x="35.46" y="88.164003">8</text>
     </g>
    </g>
    <g id="ytick_7">
     <g id="line2d_9">
      <g>
       <use style="stroke:#000000;stroke-width:0.8;" x="42.46" xlink:href="#m2f3b41f4f0" y="56.73639"/>
      </g>
     </g>
     <g id="text_10">
      <text style="font-family:Arial;font-size:10px;font-style:normal;font-weight:normal;text-anchor:end;" transform="rotate(-0, 35.46, 60.315296)" x="35.46" y="60.315296">9</text>
     </g>
    </g>
    <g id="ytick_8">
     <g id="line2d_10">
      <g>
       <use style="stroke:#000000;stroke-width:0.8;" x="42.46" xlink:href="#m2f3b41f4f0" y="28.887682"/>
      </g>
     </g>
     <g id="text_11">
      <text style="font-family:Arial;font-size:10px;font-style:normal;font-weight:normal;text-anchor:end;" transform="rotate(-0, 35.46, 32.466588)" x="35.46" y="32.466588">10</text>
     </g>
    </g>
    <g id="text_12">
     <text style="font-family:Arial;font-size:14px;font-style:normal;font-weight:normal;text-anchor:middle;" transform="rotate(-90, 17.391563, 136.479375)" x="17.391563" y="136.479375">Log log_S24-7_Coriobacteriaceae</text>
    </g>
   </g>
   <g id="line2d_11">
    <path clip-path="url(#paf78d54b66)" d="M 92.68 147.460345 
L 92.68 177.969913 
" style="fill:none;stroke:#4c4c4c;stroke-linecap:square;stroke-width:1.5;"/>
   </g>
   <g id="line2d_12">
    <path clip-path="url(#paf78d54b66)" d="M 92.68 122.966938 
L 92.68 97.915773 
" style="fill:none;stroke:#4c4c4c;stroke-linecap:square;stroke-width:1.5;"/>
   </g>
   <g id="line2d_13">
    <path clip-path="url(#paf78d54b66)" d="M 76.2748 177.969913 
L 109.0852 177.969913 
" style="fill:none;stroke:#4c4c4c;stroke-linecap:square;stroke-width:1.5;"/>
   </g>
   <g id="line2d_14">
    <path clip-path="url(#paf78d54b66)" d="M 76.2748 97.915773 
L 109.0852 97.915773 
" style="fill:none;stroke:#4c4c4c;stroke-linecap:square;stroke-width:1.5;"/>
   </g>
   <g id="line2d_15"/>
   <g id="line2d_16">
    <path clip-path="url(#paf78d54b66)" d="M 159.64 192.381655 
L 159.64 215.05816 
" style="fill:none;stroke:#4c4c4c;stroke-linecap:square;stroke-width:1.5;"/>
   </g>
   <g id="line2d_17">
    <path clip-path="url(#paf78d54b66)" d="M 159.64 150.322419 
L 159.64 113.70085 
" style="fill:none;stroke:#4c4c4c;stroke-linecap:square;stroke-width:1.5;"/>
   </g>
   <g id="line2d_18">
    <path clip-path="url(#paf78d54b66)" d="M 143.2348 215.05816 
L 176.0452 215.05816 
" style="fill:none;stroke:#4c4c4c;stroke-linecap:square;stroke-width:1.5;"/>
   </g>
   <g id="line2d_19">
    <path clip-path="url(#paf78d54b66)" d="M 143.2348 113.70085 
L 176.0452 113.70085 
" style="fill:none;stroke:#4c4c4c;stroke-linecap:square;stroke-width:1.5;"/>
   </g>
   <g id="line2d_20"/>
   <g id="line2d_21">
    <path clip-path="url(#paf78d54b66)" d="M 260.08 164.479888 
L 260.08 197.086246 
" style="fill:none;stroke:#4c4c4c;stroke-linecap:square;stroke-width:1.5;"/>
   </g>
   <g id="line2d_22">
    <path clip-path="url(#paf78d54b66)" d="M 260.08 125.669701 
L 260.08 97.083963 
" style="fill:none;stroke:#4c4c4c;stroke-linecap:square;stroke-width:1.5;"/>
   </g>
   <g id="line2d_23">
    <path clip-path="url(#paf78d54b66)" d="M 243.6748 197.086246 
L 276.4852 197.086246 
" style="fill:none;stroke:#4c4c4c;stroke-linecap:square;stroke-width:1.5;"/>
   </g>
   <g id="line2d_24">
    <path clip-path="url(#paf78d54b66)" d="M 243.6748 97.083963 
L 276.4852 97.083963 
" style="fill:none;stroke:#4c4c4c;stroke-linecap:square;stroke-width:1.5;"/>
   </g>
   <g id="line2d_25"/>
   <g id="line2d_26">
    <path clip-path="url(#paf78d54b66)" d="M 327.04 184.802582 
L 327.04 234.414427 
" style="fill:none;stroke:#4c4c4c;stroke-linecap:square;stroke-width:1.5;"/>
   </g>
   <g id="line2d_27">
    <path clip-path="url(#paf78d54b66)" d="M 327.04 150.860223 
L 327.04 126.822514 
" style="fill:none;stroke:#4c4c4c;stroke-linecap:square;stroke-width:1.5;"/>
   </g>
   <g id="line2d_28">
    <path clip-path="url(#paf78d54b66)" d="M 310.6348 234.414427 
L 343.4452 234.414427 
" style="fill:none;stroke:#4c4c4c;stroke-linecap:square;stroke-width:1.5;"/>
   </g>
   <g id="line2d_29">
    <path clip-path="url(#paf78d54b66)" d="M 310.6348 126.822514 
L 343.4452 126.822514 
" style="fill:none;stroke:#4c4c4c;stroke-linecap:square;stroke-width:1.5;"/>
   </g>
   <g id="line2d_30"/>
   <g id="line2d_31">
    <path clip-path="url(#paf78d54b66)" d="M 260.08 87.551305 
L 260.08 84.373752 
L 327.04 84.373752 
L 327.04 87.551305 
" style="fill:none;stroke:#333333;stroke-linecap:square;stroke-width:1.5;"/>
   </g>
   <g id="line2d_32">
    <path clip-path="url(#paf78d54b66)" d="M 92.68 88.383115 
L 92.68 85.205562 
L 159.64 85.205562 
L 159.64 88.383115 
" style="fill:none;stroke:#333333;stroke-linecap:square;stroke-width:1.5;"/>
   </g>
   <g id="line2d_33">
    <path clip-path="url(#paf78d54b66)" d="M 159.64 68.659254 
L 159.64 65.481701 
L 327.04 65.481701 
L 327.04 68.659254 
" style="fill:none;stroke:#333333;stroke-linecap:square;stroke-width:1.5;"/>
   </g>
   <g id="line2d_34">
    <path clip-path="url(#paf78d54b66)" d="M 92.68 48.811478 
L 92.68 45.633926 
L 260.08 45.633926 
L 260.08 48.811478 
" style="fill:none;stroke:#333333;stroke-linecap:square;stroke-width:1.5;"/>
   </g>
   <g id="line2d_35">
    <path clip-path="url(#paf78d54b66)" d="M 59.8696 139.19121 
L 125.4904 139.19121 
" style="fill:none;stroke:#4c4c4c;stroke-linecap:square;stroke-width:1.5;"/>
   </g>
   <g id="line2d_36">
    <path clip-path="url(#paf78d54b66)" d="M 126.8296 173.595252 
L 192.4504 173.595252 
" style="fill:none;stroke:#4c4c4c;stroke-linecap:square;stroke-width:1.5;"/>
   </g>
   <g id="line2d_37">
    <path clip-path="url(#paf78d54b66)" d="M 227.2696 151.758863 
L 292.8904 151.758863 
" style="fill:none;stroke:#4c4c4c;stroke-linecap:square;stroke-width:1.5;"/>
   </g>
   <g id="line2d_38">
    <path clip-path="url(#paf78d54b66)" d="M 294.2296 160.419538 
L 359.8504 160.419538 
" style="fill:none;stroke:#4c4c4c;stroke-linecap:square;stroke-width:1.5;"/>
   </g>
   <g id="patch_9">
    <path d="M 42.46 245.199375 
L 42.46 27.759375 
" style="fill:none;stroke:#000000;stroke-linecap:square;stroke-linejoin:miter;stroke-width:0.8;"/>
   </g>
   <g id="patch_10">
    <path d="M 377.26 245.199375 
L 377.26 27.759375 
" style="fill:none;stroke:#000000;stroke-linecap:square;stroke-linejoin:miter;stroke-width:0.8;"/>
   </g>
   <g id="patch_11">
    <path d="M 42.46 245.199375 
L 377.26 245.199375 
" style="fill:none;stroke:#000000;stroke-linecap:square;stroke-linejoin:miter;stroke-width:0.8;"/>
   </g>
   <g id="patch_12">
    <path d="M 42.46 27.759375 
L 377.26 27.759375 
" style="fill:none;stroke:#000000;stroke-linecap:square;stroke-linejoin:miter;stroke-width:0.8;"/>
   </g>
   <g id="PathCollection_3">
    <defs>
     <path d="M 0 5 
C 1.326016 5 2.597899 4.473168 3.535534 3.535534 
C 4.473168 2.597899 5 1.326016 5 0 
C 5 -1.326016 4.473168 -2.597899 3.535534 -3.535534 
C 2.597899 -4.473168 1.326016 -5 0 -5 
C -1.326016 -5 -2.597899 -4.473168 -3.535534 -3.535534 
C -4.473168 -2.597899 -5 -1.326016 -5 0 
C -5 1.326016 -4.473168 2.597899 -3.535534 3.535534 
C -2.597899 4.473168 -1.326016 5 0 5 
z
" id="C0_0_5cb39f7ac8"/>
    </defs>
    <g clip-path="url(#paf78d54b66)">
     <use style="fill:#ff0000;stroke:#000000;" x="92.68" xlink:href="#C0_0_5cb39f7ac8" y="177.969913"/>
    </g>
    <g clip-path="url(#paf78d54b66)">
     <use style="fill:#ff0000;stroke:#000000;" x="92.68" xlink:href="#C0_0_5cb39f7ac8" y="158.44401"/>
    </g>
    <g clip-path="url(#paf78d54b66)">
     <use style="fill:#ff0000;stroke:#000000;" x="92.68" xlink:href="#C0_0_5cb39f7ac8" y="149.324268"/>
    </g>
    <g clip-path="url(#paf78d54b66)">
     <use style="fill:#ff0000;stroke:#000000;" x="82.447466" xlink:href="#C0_0_5cb39f7ac8" y="145.596422"/>
    </g>
    <g clip-path="url(#paf78d54b66)">
     <use style="fill:#ff0000;stroke:#000000;" x="102.694979" xlink:href="#C0_0_5cb39f7ac8" y="145.320529"/>
    </g>
    <g clip-path="url(#paf78d54b66)">
     <use style="fill:#ff0000;stroke:#000000;" x="92.68" xlink:href="#C0_0_5cb39f7ac8" y="139.19121"/>
    </g>
    <g clip-path="url(#paf78d54b66)">
     <use style="fill:#ff0000;stroke:#000000;" x="92.68" xlink:href="#C0_0_5cb39f7ac8" y="128.205033"/>
    </g>
    <g clip-path="url(#paf78d54b66)">
     <use style="fill:#ff0000;stroke:#000000;" x="81.256041" xlink:href="#C0_0_5cb39f7ac8" y="127.020879"/>
    </g>
    <g clip-path="url(#paf78d54b66)">
     <use style="fill:#ff0000;stroke:#000000;" x="92.68" xlink:href="#C0_0_5cb39f7ac8" y="118.912998"/>
    </g>
    <g clip-path="url(#paf78d54b66)">
     <use style="fill:#ff0000;stroke:#000000;" x="92.68" xlink:href="#C0_0_5cb39f7ac8" y="100.213691"/>
    </g>
    <g clip-path="url(#paf78d54b66)">
     <use style="fill:#ff0000;stroke:#000000;" x="81.612113" xlink:href="#C0_0_5cb39f7ac8" y="97.915773"/>
    </g>
   </g>
   <g id="PathCollection_4">
    <defs>
     <path d="M 0 5 
C 1.326016 5 2.597899 4.473168 3.535534 3.535534 
C 4.473168 2.597899 5 1.326016 5 0 
C 5 -1.326016 4.473168 -2.597899 3.535534 -3.535534 
C 2.597899 -4.473168 1.326016 -5 0 -5 
C -1.326016 -5 -2.597899 -4.473168 -3.535534 -3.535534 
C -4.473168 -2.597899 -5 -1.326016 -5 0 
C -5 1.326016 -4.473168 2.597899 -3.535534 3.535534 
C -2.597899 4.473168 -1.326016 5 0 5 
z
" id="C1_0_2df09d65c8"/>
    </defs>
    <g clip-path="url(#paf78d54b66)">
     <use style="fill:#0000ff;stroke:#000000;" x="159.64" xlink:href="#C1_0_2df09d65c8" y="215.05816"/>
    </g>
    <g clip-path="url(#paf78d54b66)">
     <use style="fill:#0000ff;stroke:#000000;" x="159.64" xlink:href="#C1_0_2df09d65c8" y="199.182686"/>
    </g>
    <g clip-path="url(#paf78d54b66)">
     <use style="fill:#0000ff;stroke:#000000;" x="151.742861" xlink:href="#C1_0_2df09d65c8" y="193.317545"/>
    </g>
    <g clip-path="url(#paf78d54b66)">
     <use style="fill:#0000ff;stroke:#000000;" x="165.017881" xlink:href="#C1_0_2df09d65c8" y="192.069692"/>
    </g>
    <g clip-path="url(#paf78d54b66)">
     <use style="fill:#0000ff;stroke:#000000;" x="174.108626" xlink:href="#C1_0_2df09d65c8" y="187.111784"/>
    </g>
    <g clip-path="url(#paf78d54b66)">
     <use style="fill:#0000ff;stroke:#000000;" x="159.64" xlink:href="#C1_0_2df09d65c8" y="183.601516"/>
    </g>
    <g clip-path="url(#paf78d54b66)">
     <use style="fill:#0000ff;stroke:#000000;" x="159.64" xlink:href="#C1_0_2df09d65c8" y="163.588987"/>
    </g>
    <g clip-path="url(#paf78d54b66)">
     <use style="fill:#0000ff;stroke:#000000;" x="148.500226" xlink:href="#C1_0_2df09d65c8" y="161.465935"/>
    </g>
    <g clip-path="url(#paf78d54b66)">
     <use style="fill:#0000ff;stroke:#000000;" x="159.64" xlink:href="#C1_0_2df09d65c8" y="153.189092"/>
    </g>
    <g clip-path="url(#paf78d54b66)">
     <use style="fill:#0000ff;stroke:#000000;" x="159.64" xlink:href="#C1_0_2df09d65c8" y="141.7224"/>
    </g>
    <g clip-path="url(#paf78d54b66)">
     <use style="fill:#0000ff;stroke:#000000;" x="159.64" xlink:href="#C1_0_2df09d65c8" y="130.577152"/>
    </g>
    <g clip-path="url(#paf78d54b66)">
     <use style="fill:#0000ff;stroke:#000000;" x="159.64" xlink:href="#C1_0_2df09d65c8" y="113.70085"/>
    </g>
   </g>
   <g id="PathCollection_5">
    <defs>
     <path d="M 0 5 
C 1.326016 5 2.597899 4.473168 3.535534 3.535534 
C 4.473168 2.597899 5 1.326016 5 0 
C 5 -1.326016 4.473168 -2.597899 3.535534 -3.535534 
C 2.597899 -4.473168 1.326016 -5 0 -5 
C -1.326016 -5 -2.597899 -4.473168 -3.535534 -3.535534 
C -4.473168 -2.597899 -5 -1.326016 -5 0 
C -5 1.326016 -4.473168 2.597899 -3.535534 3.535534 
C -2.597899 4.473168 -1.326016 5 0 5 
z
" id="C2_0_32121725e3"/>
    </defs>
    <g clip-path="url(#paf78d54b66)">
     <use style="fill:#ff0000;stroke:#000000;" x="260.08" xlink:href="#C2_0_32121725e3" y="197.086246"/>
    </g>
    <g clip-path="url(#paf78d54b66)">
     <use style="fill:#ff0000;stroke:#000000;" x="255.77842" xlink:href="#C2_0_32121725e3" y="189.627051"/>
    </g>
    <g clip-path="url(#paf78d54b66)">
     <use style="fill:#ff0000;stroke:#000000;" x="260.08" xlink:href="#C2_0_32121725e3" y="173.849122"/>
    </g>
    <g clip-path="url(#paf78d54b66)">
     <use style="fill:#ff0000;stroke:#000000;" x="260.08" xlink:href="#C2_0_32121725e3" y="161.35681"/>
    </g>
    <g clip-path="url(#paf78d54b66)">
     <use style="fill:#ff0000;stroke:#000000;" x="249.185288" xlink:href="#C2_0_32121725e3" y="158.688064"/>
    </g>
    <g clip-path="url(#paf78d54b66)">
     <use style="fill:#ff0000;stroke:#000000;" x="266.576356" xlink:href="#C2_0_32121725e3" y="154.711258"/>
    </g>
    <g clip-path="url(#paf78d54b66)">
     <use style="fill:#ff0000;stroke:#000000;" x="258.740471" xlink:href="#C2_0_32121725e3" y="148.806467"/>
    </g>
    <g clip-path="url(#paf78d54b66)">
     <use style="fill:#ff0000;stroke:#000000;" x="268.008871" xlink:href="#C2_0_32121725e3" y="144.010487"/>
    </g>
    <g clip-path="url(#paf78d54b66)">
     <use style="fill:#ff0000;stroke:#000000;" x="260.08" xlink:href="#C2_0_32121725e3" y="127.493452"/>
    </g>
    <g clip-path="url(#paf78d54b66)">
     <use style="fill:#ff0000;stroke:#000000;" x="255.231672" xlink:href="#C2_0_32121725e3" y="120.19845"/>
    </g>
    <g clip-path="url(#paf78d54b66)">
     <use style="fill:#ff0000;stroke:#000000;" x="260.08" xlink:href="#C2_0_32121725e3" y="107.594626"/>
    </g>
    <g clip-path="url(#paf78d54b66)">
     <use style="fill:#ff0000;stroke:#000000;" x="260.08" xlink:href="#C2_0_32121725e3" y="97.083963"/>
    </g>
   </g>
   <g id="PathCollection_6">
    <defs>
     <path d="M 0 5 
C 1.326016 5 2.597899 4.473168 3.535534 3.535534 
C 4.473168 2.597899 5 1.326016 5 0 
C 5 -1.326016 4.473168 -2.597899 3.535534 -3.535534 
C 2.597899 -4.473168 1.326016 -5 0 -5 
C -1.326016 -5 -2.597899 -4.473168 -3.535534 -3.535534 
C -4.473168 -2.597899 -5 -1.326016 -5 0 
C -5 1.326016 -4.473168 2.597899 -3.535534 3.535534 
C -2.597899 4.473168 -1.326016 5 0 5 
z
" id="C3_0_be84fd9936"/>
    </defs>
    <g clip-path="url(#paf78d54b66)">
     <use style="fill:#0000ff;stroke:#000000;" x="327.04" xlink:href="#C3_0_be84fd9936" y="234.414427"/>
    </g>
    <g clip-path="url(#paf78d54b66)">
     <use style="fill:#0000ff;stroke:#000000;" x="327.04" xlink:href="#C3_0_be84fd9936" y="189.665847"/>
    </g>
    <g clip-path="url(#paf78d54b66)">
     <use style="fill:#0000ff;stroke:#000000;" x="317.304668" xlink:href="#C3_0_be84fd9936" y="185.340979"/>
    </g>
    <g clip-path="url(#paf78d54b66)">
     <use style="fill:#0000ff;stroke:#000000;" x="335.592684" xlink:href="#C3_0_be84fd9936" y="184.264186"/>
    </g>
    <g clip-path="url(#paf78d54b66)">
     <use style="fill:#0000ff;stroke:#000000;" x="327.04" xlink:href="#C3_0_be84fd9936" y="161.064103"/>
    </g>
    <g clip-path="url(#paf78d54b66)">
     <use style="fill:#0000ff;stroke:#000000;" x="315.527201" xlink:href="#C3_0_be84fd9936" y="160.419538"/>
    </g>
    <g clip-path="url(#paf78d54b66)">
     <use style="fill:#0000ff;stroke:#000000;" x="338.421476" xlink:href="#C3_0_be84fd9936" y="159.696118"/>
    </g>
    <g clip-path="url(#paf78d54b66)">
     <use style="fill:#0000ff;stroke:#000000;" x="307.009189" xlink:href="#C3_0_be84fd9936" y="154.991411"/>
    </g>
    <g clip-path="url(#paf78d54b66)">
     <use style="fill:#0000ff;stroke:#000000;" x="327.04" xlink:href="#C3_0_be84fd9936" y="146.729034"/>
    </g>
    <g clip-path="url(#paf78d54b66)">
     <use style="fill:#0000ff;stroke:#000000;" x="319.01292" xlink:href="#C3_0_be84fd9936" y="140.949945"/>
    </g>
    <g clip-path="url(#paf78d54b66)">
     <use style="fill:#0000ff;stroke:#000000;" x="327.04" xlink:href="#C3_0_be84fd9936" y="126.822514"/>
    </g>
   </g>
   <g id="text_13">
    <text style="font-family:Arial;font-size:10px;font-style:normal;font-weight:normal;text-anchor:middle;" transform="rotate(-0, 293.56, 81.386252)" x="293.56" y="81.386252">ns</text>
   </g>
   <g id="text_14">
    <text style="font-family:Arial;font-size:10px;font-style:normal;font-weight:normal;text-anchor:middle;" transform="rotate(-0, 126.16, 82.218062)" x="126.16" y="82.218062">*</text>
   </g>
   <g id="text_15">
    <text style="font-family:Arial;font-size:10px;font-style:normal;font-weight:normal;text-anchor:middle;" transform="rotate(-0, 243.34, 62.494201)" x="243.34" y="62.494201">ns</text>
   </g>
   <g id="text_16">
    <text style="font-family:Arial;font-size:10px;font-style:normal;font-weight:normal;text-anchor:middle;" transform="rotate(-0, 176.38, 42.646426)" x="176.38" y="42.646426">ns</text>
   </g>
   <g id="text_17">
    <text style="font-family:Arial;font-size:20px;font-style:normal;font-weight:normal;text-anchor:middle;" transform="rotate(-0, 209.86, 21.759375)" x="209.86" y="21.759375">Log log_S24-7_Coriobacteriaceae</text>
   </g>
   <g id="legend_1">
    <g id="patch_13">
     <path d="M 396 87.340625 
L 445.221875 87.340625 
Q 447.221875 87.340625 447.221875 85.340625 
L 447.221875 29.759375 
Q 447.221875 27.759375 445.221875 27.759375 
L 396 27.759375 
Q 394 27.759375 394 29.759375 
L 394 85.340625 
Q 394 87.340625 396 87.340625 
z
" style="fill:#ffffff;opacity:0.8;stroke:#cccccc;stroke-linejoin:miter;"/>
    </g>
    <g id="patch_14">
     <path d="M 398 38.917187 
L 418 38.917187 
L 418 31.917187 
L 398 31.917187 
z
" style="fill:#df2020;stroke:#4c4c4c;stroke-linejoin:miter;stroke-width:0.75;"/>
    </g>
    <g id="text_18">
     <text style="font-family:Arial;font-size:10px;font-style:normal;font-weight:normal;text-anchor:start;" transform="rotate(-0, 426, 38.917187)" x="426" y="38.917187">IHC</text>
    </g>
    <g id="patch_15">
     <path d="M 398 53.0625 
L 418 53.0625 
L 418 46.0625 
L 398 46.0625 
z
" style="fill:#2020df;stroke:#4c4c4c;stroke-linejoin:miter;stroke-width:0.75;"/>
    </g>
    <g id="text_19">
     <text style="font-family:Arial;font-size:10px;font-style:normal;font-weight:normal;text-anchor:start;" transform="rotate(-0, 426, 53.0625)" x="426" y="53.0625">Air</text>
    </g>
    <g id="PathCollection_7">
     <defs>
      <path d="M 0 3.872983 
C 1.027127 3.872983 2.012324 3.464901 2.738613 2.738613 
C 3.464901 2.012324 3.872983 1.027127 3.872983 0 
C 3.872983 -1.027127 3.464901 -2.012324 2.738613 -2.738613 
C 2.012324 -3.464901 1.027127 -3.872983 0 -3.872983 
C -1.027127 -3.872983 -2.012324 -3.464901 -2.738613 -2.738613 
C -3.464901 -2.012324 -3.872983 -1.027127 -3.872983 0 
C -3.872983 1.027127 -3.464901 2.012324 -2.738613 2.738613 
C -2.012324 3.464901 -1.027127 3.872983 0 3.872983 
z
" id="mb43cce97a8" style="stroke:#ff0000;"/>
     </defs>
     <g>
      <use style="fill:#ff0000;stroke:#ff0000;" x="408" xlink:href="#mb43cce97a8" y="64.582812"/>
     </g>
    </g>
    <g id="text_20">
     <text style="font-family:Arial;font-size:10px;font-style:normal;font-weight:normal;text-anchor:start;" transform="rotate(-0, 426, 67.207812)" x="426" y="67.207812">IHC</text>
    </g>
    <g id="PathCollection_8">
     <defs>
      <path d="M 0 3.872983 
C 1.027127 3.872983 2.012324 3.464901 2.738613 2.738613 
C 3.464901 2.012324 3.872983 1.027127 3.872983 0 
C 3.872983 -1.027127 3.464901 -2.012324 2.738613 -2.738613 
C 2.012324 -3.464901 1.027127 -3.872983 0 -3.872983 
C -1.027127 -3.872983 -2.012324 -3.464901 -2.738613 -2.738613 
C -3.464901 -2.012324 -3.872983 -1.027127 -3.872983 0 
C -3.872983 1.027127 -3.464901 2.012324 -2.738613 2.738613 
C -2.012324 3.464901 -1.027127 3.872983 0 3.872983 
z
" id="md833a718f7" style="stroke:#0000ff;"/>
     </defs>
     <g>
      <use style="fill:#0000ff;stroke:#0000ff;" x="408" xlink:href="#md833a718f7" y="78.728125"/>
     </g>
    </g>
    <g id="text_21">
     <text style="font-family:Arial;font-size:10px;font-style:normal;font-weight:normal;text-anchor:start;" transform="rotate(-0, 426, 81.353125)" x="426" y="81.353125">Air</text>
    </g>
   </g>
  </g>
 </g>
 <defs>
  <clipPath id="paf78d54b66">
   <rect height="217.44" width="334.8" x="42.46" y="27.759375"/>
  </clipPath>
 </defs>
</svg>
