<?xml version="1.0" encoding="utf-8" standalone="no"?>
<!DOCTYPE svg PUBLIC "-//W3C//DTD SVG 1.1//EN"
  "http://www.w3.org/Graphics/SVG/1.1/DTD/svg11.dtd">
<!-- Created with matplotlib (https://matplotlib.org/) -->
<svg height="443.338125pt" version="1.1" viewBox="0 0 529.266016 443.338125" width="529.266016pt" xmlns="http://www.w3.org/2000/svg" xmlns:xlink="http://www.w3.org/1999/xlink">
 <defs>
  <style type="text/css">
*{stroke-linecap:butt;stroke-linejoin:round;}
  </style>
 </defs>
 <g id="figure_1">
  <g id="patch_1">
   <path d="M 0 443.338125 
L 529.266016 443.338125 
L 529.266016 0 
L 0 0 
z
" style="fill:#ffffff;"/>
  </g>
  <g id="axes_1">
   <g id="patch_2">
    <path d="M 44.903438 403.189375 
L 339.826516 403.189375 
L 339.826516 21.789375 
L 44.903438 21.789375 
z
" style="fill:#ffffff;"/>
   </g>
   <g id="PathCollection_1">
    <defs>
     <path d="M 0 3.383948 
C 0.897434 3.383948 1.758231 3.027394 2.392813 2.392813 
C 3.027394 1.758231 3.383948 0.897434 3.383948 0 
C 3.383948 -0.897434 3.027394 -1.758231 2.392813 -2.392813 
C 1.758231 -3.027394 0.897434 -3.383948 0 -3.383948 
C -0.897434 -3.383948 -1.758231 -3.027394 -2.392813 -2.392813 
C -3.027394 -1.758231 -3.383948 -0.897434 -3.383948 0 
C -3.383948 0.897434 -3.027394 1.758231 -2.392813 2.392813 
C -1.758231 3.027394 -0.897434 3.383948 0 3.383948 
z
" id="C0_0_d03a3b23ed"/>
    </defs>
    <g clip-path="url(#paccd7ffd05)">
     <use style="fill:#008000;stroke:#008000;stroke-width:2.025;" x="61.350128" xlink:href="#C0_0_d03a3b23ed" y="192.783708"/>
    </g>
    <g clip-path="url(#paccd7ffd05)">
     <use style="fill:#008000;stroke:#008000;stroke-width:2.025;" x="84.399762" xlink:href="#C0_0_d03a3b23ed" y="133.666708"/>
    </g>
    <g clip-path="url(#paccd7ffd05)">
     <use style="fill:#008000;stroke:#008000;stroke-width:2.025;" x="107.449396" xlink:href="#C0_0_d03a3b23ed" y="123.789426"/>
    </g>
    <g clip-path="url(#paccd7ffd05)">
     <use style="fill:#008000;stroke:#008000;stroke-width:2.025;" x="130.49903" xlink:href="#C0_0_d03a3b23ed" y="158.734794"/>
    </g>
    <g clip-path="url(#paccd7ffd05)">
     <use style="fill:#008000;stroke:#008000;stroke-width:2.025;" x="153.548664" xlink:href="#C0_0_d03a3b23ed" y="256.130337"/>
    </g>
    <g clip-path="url(#paccd7ffd05)">
     <use style="fill:#008000;stroke:#008000;stroke-width:2.025;" x="176.598299" xlink:href="#C0_0_d03a3b23ed" y="277.90192"/>
    </g>
    <g clip-path="url(#paccd7ffd05)">
     <use style="fill:#008000;stroke:#008000;stroke-width:2.025;" x="199.647933" xlink:href="#C0_0_d03a3b23ed" y="192.783708"/>
    </g>
    <g clip-path="url(#paccd7ffd05)">
     <use style="fill:#008000;stroke:#008000;stroke-width:2.025;" x="222.697567" xlink:href="#C0_0_d03a3b23ed" y="133.666708"/>
    </g>
    <g clip-path="url(#paccd7ffd05)">
     <use style="fill:#008000;stroke:#008000;stroke-width:2.025;" x="245.747201" xlink:href="#C0_0_d03a3b23ed" y="123.789426"/>
    </g>
    <g clip-path="url(#paccd7ffd05)">
     <use style="fill:#008000;stroke:#008000;stroke-width:2.025;" x="268.796836" xlink:href="#C0_0_d03a3b23ed" y="158.734794"/>
    </g>
    <g clip-path="url(#paccd7ffd05)">
     <use style="fill:#008000;stroke:#008000;stroke-width:2.025;" x="291.84647" xlink:href="#C0_0_d03a3b23ed" y="256.130337"/>
    </g>
    <g clip-path="url(#paccd7ffd05)">
     <use style="fill:#008000;stroke:#008000;stroke-width:2.025;" x="314.896104" xlink:href="#C0_0_d03a3b23ed" y="277.90192"/>
    </g>
   </g>
   <g id="patch_3">
    <path clip-path="url(#paccd7ffd05)" d="M 61.350128 403.189375 
L 130.49903 403.189375 
L 130.49903 391.45399 
L 61.350128 391.45399 
z
" style="fill:#ffffff;stroke:#000000;stroke-linejoin:miter;"/>
   </g>
   <g id="patch_4">
    <path clip-path="url(#paccd7ffd05)" d="M 118.974213 403.189375 
L 188.123116 403.189375 
L 188.123116 391.45399 
L 118.974213 391.45399 
z
" style="stroke:#000000;stroke-linejoin:miter;"/>
   </g>
   <g id="patch_5">
    <path clip-path="url(#paccd7ffd05)" d="M 188.123116 403.189375 
L 257.272019 403.189375 
L 257.272019 391.45399 
L 188.123116 391.45399 
z
" style="fill:#ffffff;stroke:#000000;stroke-linejoin:miter;"/>
   </g>
   <g id="patch_6">
    <path clip-path="url(#paccd7ffd05)" d="M 257.272019 403.189375 
L 326.420921 403.189375 
L 326.420921 391.45399 
L 257.272019 391.45399 
z
" style="stroke:#000000;stroke-linejoin:miter;"/>
   </g>
   <g id="patch_7">
    <path clip-path="url(#paccd7ffd05)" d="M 118.974213 403.189375 
L 118.974213 21.789375 
L 188.123116 21.789375 
L 188.123116 403.189375 
z
" style="opacity:0.2;stroke:#000000;stroke-linejoin:miter;"/>
   </g>
   <g id="patch_8">
    <path clip-path="url(#paccd7ffd05)" d="M 257.272019 403.189375 
L 257.272019 21.789375 
L 326.420921 21.789375 
L 326.420921 403.189375 
z
" style="opacity:0.2;stroke:#000000;stroke-linejoin:miter;"/>
   </g>
   <g id="line2d_1">
    <path clip-path="url(#paccd7ffd05)" d="M 61.350128 192.783708 
L 84.399762 133.666708 
L 107.449396 123.789426 
L 130.49903 158.734794 
L 153.548664 256.130337 
L 176.598299 277.90192 
L 199.647933 192.783708 
L 222.697567 133.666708 
L 245.747201 123.789426 
L 268.796836 158.734794 
L 291.84647 256.130337 
L 314.896104 277.90192 
" style="fill:none;stroke:#008000;stroke-linecap:square;stroke-width:2.7;"/>
   </g>
   <g id="line2d_2">
    <path clip-path="url(#paccd7ffd05)" d="M 61.350128 216.009991 
L 61.350128 169.557426 
" style="fill:none;stroke:#008000;stroke-linecap:square;"/>
   </g>
   <g id="line2d_3">
    <path clip-path="url(#paccd7ffd05)" d="M 59.045164 216.009991 
L 63.655091 216.009991 
" style="fill:none;stroke:#008000;stroke-linecap:square;"/>
   </g>
   <g id="line2d_4">
    <path clip-path="url(#paccd7ffd05)" d="M 59.045164 169.557426 
L 63.655091 169.557426 
" style="fill:none;stroke:#008000;stroke-linecap:square;"/>
   </g>
   <g id="line2d_5">
    <path clip-path="url(#paccd7ffd05)" d="M 84.399762 152.003247 
L 84.399762 115.33017 
" style="fill:none;stroke:#008000;stroke-linecap:square;"/>
   </g>
   <g id="line2d_6">
    <path clip-path="url(#paccd7ffd05)" d="M 82.094798 152.003247 
L 86.704725 152.003247 
" style="fill:none;stroke:#008000;stroke-linecap:square;"/>
   </g>
   <g id="line2d_7">
    <path clip-path="url(#paccd7ffd05)" d="M 82.094798 115.33017 
L 86.704725 115.33017 
" style="fill:none;stroke:#008000;stroke-linecap:square;"/>
   </g>
   <g id="line2d_8">
    <path clip-path="url(#paccd7ffd05)" d="M 107.449396 177.576606 
L 107.449396 73.473965 
" style="fill:none;stroke:#008000;stroke-linecap:square;"/>
   </g>
   <g id="line2d_9">
    <path clip-path="url(#paccd7ffd05)" d="M 105.144433 177.576606 
L 109.754359 177.576606 
" style="fill:none;stroke:#008000;stroke-linecap:square;"/>
   </g>
   <g id="line2d_10">
    <path clip-path="url(#paccd7ffd05)" d="M 105.144433 73.473965 
L 109.754359 73.473965 
" style="fill:none;stroke:#008000;stroke-linecap:square;"/>
   </g>
   <g id="line2d_11">
    <path clip-path="url(#paccd7ffd05)" d="M 130.49903 161.880529 
L 130.49903 155.589059 
" style="fill:none;stroke:#008000;stroke-linecap:square;"/>
   </g>
   <g id="line2d_12">
    <path clip-path="url(#paccd7ffd05)" d="M 128.194067 161.880529 
L 132.803994 161.880529 
" style="fill:none;stroke:#008000;stroke-linecap:square;"/>
   </g>
   <g id="line2d_13">
    <path clip-path="url(#paccd7ffd05)" d="M 128.194067 155.589059 
L 132.803994 155.589059 
" style="fill:none;stroke:#008000;stroke-linecap:square;"/>
   </g>
   <g id="line2d_14">
    <path clip-path="url(#paccd7ffd05)" d="M 153.548664 265.885375 
L 153.548664 246.375298 
" style="fill:none;stroke:#008000;stroke-linecap:square;"/>
   </g>
   <g id="line2d_15">
    <path clip-path="url(#paccd7ffd05)" d="M 151.243701 265.885375 
L 155.853628 265.885375 
" style="fill:none;stroke:#008000;stroke-linecap:square;"/>
   </g>
   <g id="line2d_16">
    <path clip-path="url(#paccd7ffd05)" d="M 151.243701 246.375298 
L 155.853628 246.375298 
" style="fill:none;stroke:#008000;stroke-linecap:square;"/>
   </g>
   <g id="line2d_17">
    <path clip-path="url(#paccd7ffd05)" d="M 176.598299 288.765952 
L 176.598299 267.071138 
" style="fill:none;stroke:#008000;stroke-linecap:square;"/>
   </g>
   <g id="line2d_18">
    <path clip-path="url(#paccd7ffd05)" d="M 174.293335 288.765952 
L 178.903262 288.765952 
" style="fill:none;stroke:#008000;stroke-linecap:square;"/>
   </g>
   <g id="line2d_19">
    <path clip-path="url(#paccd7ffd05)" d="M 174.293335 267.071138 
L 178.903262 267.071138 
" style="fill:none;stroke:#008000;stroke-linecap:square;"/>
   </g>
   <g id="line2d_20">
    <path clip-path="url(#paccd7ffd05)" d="M 199.647933 214.68976 
L 199.647933 169.557426 
" style="fill:none;stroke:#008000;stroke-linecap:square;"/>
   </g>
   <g id="line2d_21">
    <path clip-path="url(#paccd7ffd05)" d="M 197.34297 214.68976 
L 201.952896 214.68976 
" style="fill:none;stroke:#008000;stroke-linecap:square;"/>
   </g>
   <g id="line2d_22">
    <path clip-path="url(#paccd7ffd05)" d="M 197.34297 169.557426 
L 201.952896 169.557426 
" style="fill:none;stroke:#008000;stroke-linecap:square;"/>
   </g>
   <g id="line2d_23">
    <path clip-path="url(#paccd7ffd05)" d="M 222.697567 152.003247 
L 222.697567 115.33017 
" style="fill:none;stroke:#008000;stroke-linecap:square;"/>
   </g>
   <g id="line2d_24">
    <path clip-path="url(#paccd7ffd05)" d="M 220.392604 152.003247 
L 225.002531 152.003247 
" style="fill:none;stroke:#008000;stroke-linecap:square;"/>
   </g>
   <g id="line2d_25">
    <path clip-path="url(#paccd7ffd05)" d="M 220.392604 115.33017 
L 225.002531 115.33017 
" style="fill:none;stroke:#008000;stroke-linecap:square;"/>
   </g>
   <g id="line2d_26">
    <path clip-path="url(#paccd7ffd05)" d="M 245.747201 177.576606 
L 245.747201 70.002247 
" style="fill:none;stroke:#008000;stroke-linecap:square;"/>
   </g>
   <g id="line2d_27">
    <path clip-path="url(#paccd7ffd05)" d="M 243.442238 177.576606 
L 248.052165 177.576606 
" style="fill:none;stroke:#008000;stroke-linecap:square;"/>
   </g>
   <g id="line2d_28">
    <path clip-path="url(#paccd7ffd05)" d="M 243.442238 70.002247 
L 248.052165 70.002247 
" style="fill:none;stroke:#008000;stroke-linecap:square;"/>
   </g>
   <g id="line2d_29">
    <path clip-path="url(#paccd7ffd05)" d="M 268.796836 161.880529 
L 268.796836 155.589059 
" style="fill:none;stroke:#008000;stroke-linecap:square;"/>
   </g>
   <g id="line2d_30">
    <path clip-path="url(#paccd7ffd05)" d="M 266.491872 161.880529 
L 271.101799 161.880529 
" style="fill:none;stroke:#008000;stroke-linecap:square;"/>
   </g>
   <g id="line2d_31">
    <path clip-path="url(#paccd7ffd05)" d="M 266.491872 155.589059 
L 271.101799 155.589059 
" style="fill:none;stroke:#008000;stroke-linecap:square;"/>
   </g>
   <g id="line2d_32">
    <path clip-path="url(#paccd7ffd05)" d="M 291.84647 265.885375 
L 291.84647 246.375298 
" style="fill:none;stroke:#008000;stroke-linecap:square;"/>
   </g>
   <g id="line2d_33">
    <path clip-path="url(#paccd7ffd05)" d="M 289.541507 265.885375 
L 294.151433 265.885375 
" style="fill:none;stroke:#008000;stroke-linecap:square;"/>
   </g>
   <g id="line2d_34">
    <path clip-path="url(#paccd7ffd05)" d="M 289.541507 246.375298 
L 294.151433 246.375298 
" style="fill:none;stroke:#008000;stroke-linecap:square;"/>
   </g>
   <g id="line2d_35">
    <path clip-path="url(#paccd7ffd05)" d="M 314.896104 288.732702 
L 314.896104 267.071138 
" style="fill:none;stroke:#008000;stroke-linecap:square;"/>
   </g>
   <g id="line2d_36">
    <path clip-path="url(#paccd7ffd05)" d="M 312.591141 288.732702 
L 317.201068 288.732702 
" style="fill:none;stroke:#008000;stroke-linecap:square;"/>
   </g>
   <g id="line2d_37">
    <path clip-path="url(#paccd7ffd05)" d="M 312.591141 267.071138 
L 317.201068 267.071138 
" style="fill:none;stroke:#008000;stroke-linecap:square;"/>
   </g>
   <g id="matplotlib.axis_1">
    <g id="xtick_1">
     <g id="line2d_38">
      <defs>
       <path d="M 0 0 
L 0 3.5 
" id="m826ddf44ae" style="stroke:#000000;stroke-width:0.8;"/>
      </defs>
      <g>
       <use style="stroke:#000000;stroke-width:0.8;" x="61.350128" xlink:href="#m826ddf44ae" y="403.189375"/>
      </g>
     </g>
     <g id="text_1">
      <text style="font-family:Arial;font-size:10px;font-style:normal;font-weight:normal;text-anchor:middle;" transform="rotate(-0, 61.350128, 417.347187)" x="61.350128" y="417.347187">2</text>
     </g>
    </g>
    <g id="xtick_2">
     <g id="line2d_39">
      <g>
       <use style="stroke:#000000;stroke-width:0.8;" x="84.399762" xlink:href="#m826ddf44ae" y="403.189375"/>
      </g>
     </g>
     <g id="text_2">
      <text style="font-family:Arial;font-size:10px;font-style:normal;font-weight:normal;text-anchor:middle;" transform="rotate(-0, 84.399762, 417.347187)" x="84.399762" y="417.347187">6</text>
     </g>
    </g>
    <g id="xtick_3">
     <g id="line2d_40">
      <g>
       <use style="stroke:#000000;stroke-width:0.8;" x="107.449396" xlink:href="#m826ddf44ae" y="403.189375"/>
      </g>
     </g>
     <g id="text_3">
      <text style="font-family:Arial;font-size:10px;font-style:normal;font-weight:normal;text-anchor:middle;" transform="rotate(-0, 107.449396, 417.347187)" x="107.449396" y="417.347187">10</text>
     </g>
    </g>
    <g id="xtick_4">
     <g id="line2d_41">
      <g>
       <use style="stroke:#000000;stroke-width:0.8;" x="130.49903" xlink:href="#m826ddf44ae" y="403.189375"/>
      </g>
     </g>
     <g id="text_4">
      <text style="font-family:Arial;font-size:10px;font-style:normal;font-weight:normal;text-anchor:middle;" transform="rotate(-0, 130.49903, 417.347187)" x="130.49903" y="417.347187">14</text>
     </g>
    </g>
    <g id="xtick_5">
     <g id="line2d_42">
      <g>
       <use style="stroke:#000000;stroke-width:0.8;" x="153.548664" xlink:href="#m826ddf44ae" y="403.189375"/>
      </g>
     </g>
     <g id="text_5">
      <text style="font-family:Arial;font-size:10px;font-style:normal;font-weight:normal;text-anchor:middle;" transform="rotate(-0, 153.548664, 417.347187)" x="153.548664" y="417.347187">18</text>
     </g>
    </g>
    <g id="xtick_6">
     <g id="line2d_43">
      <g>
       <use style="stroke:#000000;stroke-width:0.8;" x="176.598299" xlink:href="#m826ddf44ae" y="403.189375"/>
      </g>
     </g>
     <g id="text_6">
      <text style="font-family:Arial;font-size:10px;font-style:normal;font-weight:normal;text-anchor:middle;" transform="rotate(-0, 176.598299, 417.347187)" x="176.598299" y="417.347187">22</text>
     </g>
    </g>
    <g id="xtick_7">
     <g id="line2d_44">
      <g>
       <use style="stroke:#000000;stroke-width:0.8;" x="199.647933" xlink:href="#m826ddf44ae" y="403.189375"/>
      </g>
     </g>
     <g id="text_7">
      <text style="font-family:Arial;font-size:10px;font-style:normal;font-weight:normal;text-anchor:middle;" transform="rotate(-0, 199.647933, 417.347187)" x="199.647933" y="417.347187">2</text>
     </g>
    </g>
    <g id="xtick_8">
     <g id="line2d_45">
      <g>
       <use style="stroke:#000000;stroke-width:0.8;" x="222.697567" xlink:href="#m826ddf44ae" y="403.189375"/>
      </g>
     </g>
     <g id="text_8">
      <text style="font-family:Arial;font-size:10px;font-style:normal;font-weight:normal;text-anchor:middle;" transform="rotate(-0, 222.697567, 417.347187)" x="222.697567" y="417.347187">6</text>
     </g>
    </g>
    <g id="xtick_9">
     <g id="line2d_46">
      <g>
       <use style="stroke:#000000;stroke-width:0.8;" x="245.747201" xlink:href="#m826ddf44ae" y="403.189375"/>
      </g>
     </g>
     <g id="text_9">
      <text style="font-family:Arial;font-size:10px;font-style:normal;font-weight:normal;text-anchor:middle;" transform="rotate(-0, 245.747201, 417.347187)" x="245.747201" y="417.347187">10</text>
     </g>
    </g>
    <g id="xtick_10">
     <g id="line2d_47">
      <g>
       <use style="stroke:#000000;stroke-width:0.8;" x="268.796836" xlink:href="#m826ddf44ae" y="403.189375"/>
      </g>
     </g>
     <g id="text_10">
      <text style="font-family:Arial;font-size:10px;font-style:normal;font-weight:normal;text-anchor:middle;" transform="rotate(-0, 268.796836, 417.347187)" x="268.796836" y="417.347187">14</text>
     </g>
    </g>
    <g id="xtick_11">
     <g id="line2d_48">
      <g>
       <use style="stroke:#000000;stroke-width:0.8;" x="291.84647" xlink:href="#m826ddf44ae" y="403.189375"/>
      </g>
     </g>
     <g id="text_11">
      <text style="font-family:Arial;font-size:10px;font-style:normal;font-weight:normal;text-anchor:middle;" transform="rotate(-0, 291.84647, 417.347187)" x="291.84647" y="417.347187">18</text>
     </g>
    </g>
    <g id="xtick_12">
     <g id="line2d_49">
      <g>
       <use style="stroke:#000000;stroke-width:0.8;" x="314.896104" xlink:href="#m826ddf44ae" y="403.189375"/>
      </g>
     </g>
     <g id="text_12">
      <text style="font-family:Arial;font-size:10px;font-style:normal;font-weight:normal;text-anchor:middle;" transform="rotate(-0, 314.896104, 417.347187)" x="314.896104" y="417.347187">22</text>
     </g>
    </g>
    <g id="text_13">
     <text style="font-family:Arial;font-size:14px;font-style:normal;font-weight:normal;text-anchor:middle;" transform="rotate(-0, 192.364977, 433.355625)" x="192.364977" y="433.355625">ZT</text>
    </g>
   </g>
   <g id="matplotlib.axis_2">
    <g id="ytick_1">
     <g id="line2d_50">
      <defs>
       <path d="M 0 0 
L -3.5 0 
" id="m0ea966217d" style="stroke:#000000;stroke-width:0.8;"/>
      </defs>
      <g>
       <use style="stroke:#000000;stroke-width:0.8;" x="44.903438" xlink:href="#m0ea966217d" y="403.189375"/>
      </g>
     </g>
     <g id="text_14">
      <text style="font-family:Arial;font-size:10px;font-style:normal;font-weight:normal;text-anchor:end;" transform="rotate(-0, 37.903438, 406.768281)" x="37.903438" y="406.768281">0.0</text>
     </g>
    </g>
    <g id="ytick_2">
     <g id="line2d_51">
      <g>
       <use style="stroke:#000000;stroke-width:0.8;" x="44.903438" xlink:href="#m0ea966217d" y="344.512452"/>
      </g>
     </g>
     <g id="text_15">
      <text style="font-family:Arial;font-size:10px;font-style:normal;font-weight:normal;text-anchor:end;" transform="rotate(-0, 37.903438, 348.091358)" x="37.903438" y="348.091358">0.1</text>
     </g>
    </g>
    <g id="ytick_3">
     <g id="line2d_52">
      <g>
       <use style="stroke:#000000;stroke-width:0.8;" x="44.903438" xlink:href="#m0ea966217d" y="285.835529"/>
      </g>
     </g>
     <g id="text_16">
      <text style="font-family:Arial;font-size:10px;font-style:normal;font-weight:normal;text-anchor:end;" transform="rotate(-0, 37.903438, 289.414435)" x="37.903438" y="289.414435">0.2</text>
     </g>
    </g>
    <g id="ytick_4">
     <g id="line2d_53">
      <g>
       <use style="stroke:#000000;stroke-width:0.8;" x="44.903438" xlink:href="#m0ea966217d" y="227.158606"/>
      </g>
     </g>
     <g id="text_17">
      <text style="font-family:Arial;font-size:10px;font-style:normal;font-weight:normal;text-anchor:end;" transform="rotate(-0, 37.903438, 230.737512)" x="37.903438" y="230.737512">0.3</text>
     </g>
    </g>
    <g id="ytick_5">
     <g id="line2d_54">
      <g>
       <use style="stroke:#000000;stroke-width:0.8;" x="44.903438" xlink:href="#m0ea966217d" y="168.481683"/>
      </g>
     </g>
     <g id="text_18">
      <text style="font-family:Arial;font-size:10px;font-style:normal;font-weight:normal;text-anchor:end;" transform="rotate(-0, 37.903438, 172.060589)" x="37.903438" y="172.060589">0.4</text>
     </g>
    </g>
    <g id="ytick_6">
     <g id="line2d_55">
      <g>
       <use style="stroke:#000000;stroke-width:0.8;" x="44.903438" xlink:href="#m0ea966217d" y="109.80476"/>
      </g>
     </g>
     <g id="text_19">
      <text style="font-family:Arial;font-size:10px;font-style:normal;font-weight:normal;text-anchor:end;" transform="rotate(-0, 37.903438, 113.383666)" x="37.903438" y="113.383666">0.5</text>
     </g>
    </g>
    <g id="ytick_7">
     <g id="line2d_56">
      <g>
       <use style="stroke:#000000;stroke-width:0.8;" x="44.903438" xlink:href="#m0ea966217d" y="51.127837"/>
      </g>
     </g>
     <g id="text_20">
      <text style="font-family:Arial;font-size:10px;font-style:normal;font-weight:normal;text-anchor:end;" transform="rotate(-0, 37.903438, 54.706743)" x="37.903438" y="54.706743">0.6</text>
     </g>
    </g>
    <g id="text_21">
     <text style="font-family:Arial;font-size:14px;font-style:normal;font-weight:normal;text-anchor:middle;" transform="rotate(-90, 17.220938, 212.489375)" x="17.220938" y="212.489375">Relative Abundance</text>
    </g>
   </g>
   <g id="PathCollection_2">
    <defs>
     <path d="M 0 3.383948 
C 0.897434 3.383948 1.758231 3.027394 2.392813 2.392813 
C 3.027394 1.758231 3.383948 0.897434 3.383948 0 
C 3.383948 -0.897434 3.027394 -1.758231 2.392813 -2.392813 
C 1.758231 -3.027394 0.897434 -3.383948 0 -3.383948 
C -0.897434 -3.383948 -1.758231 -3.027394 -2.392813 -2.392813 
C -3.027394 -1.758231 -3.383948 -0.897434 -3.383948 0 
C -3.383948 0.897434 -3.027394 1.758231 -2.392813 2.392813 
C -1.758231 3.027394 -0.897434 3.383948 0 3.383948 
z
" id="C1_0_fe399f4bc7"/>
    </defs>
    <g clip-path="url(#paccd7ffd05)">
     <use style="fill:#ffa500;stroke:#ffa500;stroke-width:2.025;" x="61.350128" xlink:href="#C1_0_fe399f4bc7" y="243.893753"/>
    </g>
    <g clip-path="url(#paccd7ffd05)">
     <use style="fill:#ffa500;stroke:#ffa500;stroke-width:2.025;" x="84.399762" xlink:href="#C1_0_fe399f4bc7" y="299.001163"/>
    </g>
    <g clip-path="url(#paccd7ffd05)">
     <use style="fill:#ffa500;stroke:#ffa500;stroke-width:2.025;" x="107.449396" xlink:href="#C1_0_fe399f4bc7" y="293.536875"/>
    </g>
    <g clip-path="url(#paccd7ffd05)">
     <use style="fill:#ffa500;stroke:#ffa500;stroke-width:2.025;" x="130.49903" xlink:href="#C1_0_fe399f4bc7" y="300.732948"/>
    </g>
    <g clip-path="url(#paccd7ffd05)">
     <use style="fill:#ffa500;stroke:#ffa500;stroke-width:2.025;" x="153.548664" xlink:href="#C1_0_fe399f4bc7" y="310.540958"/>
    </g>
    <g clip-path="url(#paccd7ffd05)">
     <use style="fill:#ffa500;stroke:#ffa500;stroke-width:2.025;" x="176.598299" xlink:href="#C1_0_fe399f4bc7" y="293.145695"/>
    </g>
    <g clip-path="url(#paccd7ffd05)">
     <use style="fill:#ffa500;stroke:#ffa500;stroke-width:2.025;" x="199.647933" xlink:href="#C1_0_fe399f4bc7" y="243.893753"/>
    </g>
    <g clip-path="url(#paccd7ffd05)">
     <use style="fill:#ffa500;stroke:#ffa500;stroke-width:2.025;" x="222.697567" xlink:href="#C1_0_fe399f4bc7" y="299.001163"/>
    </g>
    <g clip-path="url(#paccd7ffd05)">
     <use style="fill:#ffa500;stroke:#ffa500;stroke-width:2.025;" x="245.747201" xlink:href="#C1_0_fe399f4bc7" y="293.536875"/>
    </g>
    <g clip-path="url(#paccd7ffd05)">
     <use style="fill:#ffa500;stroke:#ffa500;stroke-width:2.025;" x="268.796836" xlink:href="#C1_0_fe399f4bc7" y="300.732948"/>
    </g>
    <g clip-path="url(#paccd7ffd05)">
     <use style="fill:#ffa500;stroke:#ffa500;stroke-width:2.025;" x="291.84647" xlink:href="#C1_0_fe399f4bc7" y="310.540958"/>
    </g>
    <g clip-path="url(#paccd7ffd05)">
     <use style="fill:#ffa500;stroke:#ffa500;stroke-width:2.025;" x="314.896104" xlink:href="#C1_0_fe399f4bc7" y="293.145695"/>
    </g>
   </g>
   <g id="line2d_57">
    <path clip-path="url(#paccd7ffd05)" d="M 61.350128 243.893753 
L 84.399762 299.001163 
L 107.449396 293.536875 
L 130.49903 300.732948 
L 153.548664 310.540958 
L 176.598299 293.145695 
L 199.647933 243.893753 
L 222.697567 299.001163 
L 245.747201 293.536875 
L 268.796836 300.732948 
L 291.84647 310.540958 
L 314.896104 293.145695 
" style="fill:none;stroke:#ffa500;stroke-linecap:square;stroke-width:2.7;"/>
   </g>
   <g id="line2d_58">
    <path clip-path="url(#paccd7ffd05)" d="M 61.350128 252.340785 
L 61.350128 235.446721 
" style="fill:none;stroke:#ffa500;stroke-linecap:square;"/>
   </g>
   <g id="line2d_59">
    <path clip-path="url(#paccd7ffd05)" d="M 59.045164 252.340785 
L 63.655091 252.340785 
" style="fill:none;stroke:#ffa500;stroke-linecap:square;"/>
   </g>
   <g id="line2d_60">
    <path clip-path="url(#paccd7ffd05)" d="M 59.045164 235.446721 
L 63.655091 235.446721 
" style="fill:none;stroke:#ffa500;stroke-linecap:square;"/>
   </g>
   <g id="line2d_61">
    <path clip-path="url(#paccd7ffd05)" d="M 84.399762 304.942202 
L 84.399762 293.133471 
" style="fill:none;stroke:#ffa500;stroke-linecap:square;"/>
   </g>
   <g id="line2d_62">
    <path clip-path="url(#paccd7ffd05)" d="M 82.094798 304.942202 
L 86.704725 304.942202 
" style="fill:none;stroke:#ffa500;stroke-linecap:square;"/>
   </g>
   <g id="line2d_63">
    <path clip-path="url(#paccd7ffd05)" d="M 82.094798 293.133471 
L 86.704725 293.133471 
" style="fill:none;stroke:#ffa500;stroke-linecap:square;"/>
   </g>
   <g id="line2d_64">
    <path clip-path="url(#paccd7ffd05)" d="M 107.449396 326.567093 
L 107.449396 260.506657 
" style="fill:none;stroke:#ffa500;stroke-linecap:square;"/>
   </g>
   <g id="line2d_65">
    <path clip-path="url(#paccd7ffd05)" d="M 105.144433 326.567093 
L 109.754359 326.567093 
" style="fill:none;stroke:#ffa500;stroke-linecap:square;"/>
   </g>
   <g id="line2d_66">
    <path clip-path="url(#paccd7ffd05)" d="M 105.144433 260.506657 
L 109.754359 260.506657 
" style="fill:none;stroke:#ffa500;stroke-linecap:square;"/>
   </g>
   <g id="line2d_67">
    <path clip-path="url(#paccd7ffd05)" d="M 130.49903 316.559418 
L 130.49903 284.906478 
" style="fill:none;stroke:#ffa500;stroke-linecap:square;"/>
   </g>
   <g id="line2d_68">
    <path clip-path="url(#paccd7ffd05)" d="M 128.194067 316.559418 
L 132.803994 316.559418 
" style="fill:none;stroke:#ffa500;stroke-linecap:square;"/>
   </g>
   <g id="line2d_69">
    <path clip-path="url(#paccd7ffd05)" d="M 128.194067 284.906478 
L 132.803994 284.906478 
" style="fill:none;stroke:#ffa500;stroke-linecap:square;"/>
   </g>
   <g id="line2d_70">
    <path clip-path="url(#paccd7ffd05)" d="M 153.548664 328.315176 
L 153.548664 292.76674 
" style="fill:none;stroke:#ffa500;stroke-linecap:square;"/>
   </g>
   <g id="line2d_71">
    <path clip-path="url(#paccd7ffd05)" d="M 151.243701 328.315176 
L 155.853628 328.315176 
" style="fill:none;stroke:#ffa500;stroke-linecap:square;"/>
   </g>
   <g id="line2d_72">
    <path clip-path="url(#paccd7ffd05)" d="M 151.243701 292.76674 
L 155.853628 292.76674 
" style="fill:none;stroke:#ffa500;stroke-linecap:square;"/>
   </g>
   <g id="line2d_73">
    <path clip-path="url(#paccd7ffd05)" d="M 176.598299 300.39474 
L 176.598299 285.896651 
" style="fill:none;stroke:#ffa500;stroke-linecap:square;"/>
   </g>
   <g id="line2d_74">
    <path clip-path="url(#paccd7ffd05)" d="M 174.293335 300.39474 
L 178.903262 300.39474 
" style="fill:none;stroke:#ffa500;stroke-linecap:square;"/>
   </g>
   <g id="line2d_75">
    <path clip-path="url(#paccd7ffd05)" d="M 174.293335 285.896651 
L 178.903262 285.896651 
" style="fill:none;stroke:#ffa500;stroke-linecap:square;"/>
   </g>
   <g id="line2d_76">
    <path clip-path="url(#paccd7ffd05)" d="M 199.647933 252.340785 
L 199.647933 235.984593 
" style="fill:none;stroke:#ffa500;stroke-linecap:square;"/>
   </g>
   <g id="line2d_77">
    <path clip-path="url(#paccd7ffd05)" d="M 197.34297 252.340785 
L 201.952896 252.340785 
" style="fill:none;stroke:#ffa500;stroke-linecap:square;"/>
   </g>
   <g id="line2d_78">
    <path clip-path="url(#paccd7ffd05)" d="M 197.34297 235.984593 
L 201.952896 235.984593 
" style="fill:none;stroke:#ffa500;stroke-linecap:square;"/>
   </g>
   <g id="line2d_79">
    <path clip-path="url(#paccd7ffd05)" d="M 222.697567 304.868856 
L 222.697567 292.094401 
" style="fill:none;stroke:#ffa500;stroke-linecap:square;"/>
   </g>
   <g id="line2d_80">
    <path clip-path="url(#paccd7ffd05)" d="M 220.392604 304.868856 
L 225.002531 304.868856 
" style="fill:none;stroke:#ffa500;stroke-linecap:square;"/>
   </g>
   <g id="line2d_81">
    <path clip-path="url(#paccd7ffd05)" d="M 220.392604 292.094401 
L 225.002531 292.094401 
" style="fill:none;stroke:#ffa500;stroke-linecap:square;"/>
   </g>
   <g id="line2d_82">
    <path clip-path="url(#paccd7ffd05)" d="M 245.747201 326.567093 
L 245.747201 267.547888 
" style="fill:none;stroke:#ffa500;stroke-linecap:square;"/>
   </g>
   <g id="line2d_83">
    <path clip-path="url(#paccd7ffd05)" d="M 243.442238 326.567093 
L 248.052165 326.567093 
" style="fill:none;stroke:#ffa500;stroke-linecap:square;"/>
   </g>
   <g id="line2d_84">
    <path clip-path="url(#paccd7ffd05)" d="M 243.442238 267.547888 
L 248.052165 267.547888 
" style="fill:none;stroke:#ffa500;stroke-linecap:square;"/>
   </g>
   <g id="line2d_85">
    <path clip-path="url(#paccd7ffd05)" d="M 268.796836 316.559418 
L 268.796836 284.906478 
" style="fill:none;stroke:#ffa500;stroke-linecap:square;"/>
   </g>
   <g id="line2d_86">
    <path clip-path="url(#paccd7ffd05)" d="M 266.491872 316.559418 
L 271.101799 316.559418 
" style="fill:none;stroke:#ffa500;stroke-linecap:square;"/>
   </g>
   <g id="line2d_87">
    <path clip-path="url(#paccd7ffd05)" d="M 266.491872 284.906478 
L 271.101799 284.906478 
" style="fill:none;stroke:#ffa500;stroke-linecap:square;"/>
   </g>
   <g id="line2d_88">
    <path clip-path="url(#paccd7ffd05)" d="M 291.84647 328.315176 
L 291.84647 292.76674 
" style="fill:none;stroke:#ffa500;stroke-linecap:square;"/>
   </g>
   <g id="line2d_89">
    <path clip-path="url(#paccd7ffd05)" d="M 289.541507 328.315176 
L 294.151433 328.315176 
" style="fill:none;stroke:#ffa500;stroke-linecap:square;"/>
   </g>
   <g id="line2d_90">
    <path clip-path="url(#paccd7ffd05)" d="M 289.541507 292.76674 
L 294.151433 292.76674 
" style="fill:none;stroke:#ffa500;stroke-linecap:square;"/>
   </g>
   <g id="line2d_91">
    <path clip-path="url(#paccd7ffd05)" d="M 314.896104 301.531606 
L 314.896104 285.896651 
" style="fill:none;stroke:#ffa500;stroke-linecap:square;"/>
   </g>
   <g id="line2d_92">
    <path clip-path="url(#paccd7ffd05)" d="M 312.591141 301.531606 
L 317.201068 301.531606 
" style="fill:none;stroke:#ffa500;stroke-linecap:square;"/>
   </g>
   <g id="line2d_93">
    <path clip-path="url(#paccd7ffd05)" d="M 312.591141 285.896651 
L 317.201068 285.896651 
" style="fill:none;stroke:#ffa500;stroke-linecap:square;"/>
   </g>
   <g id="line2d_94">
    <path clip-path="url(#paccd7ffd05)" d="M 188.123116 403.189375 
L 188.123116 21.789375 
" style="fill:none;stroke:#000000;stroke-dasharray:5.55,2.4;stroke-dashoffset:0;stroke-width:1.5;"/>
   </g>
   <g id="patch_9">
    <path d="M 44.903438 403.189375 
L 44.903438 21.789375 
" style="fill:none;stroke:#000000;stroke-linecap:square;stroke-linejoin:miter;stroke-width:0.8;"/>
   </g>
   <g id="patch_10">
    <path d="M 44.903438 403.189375 
L 339.826516 403.189375 
" style="fill:none;stroke:#000000;stroke-linecap:square;stroke-linejoin:miter;stroke-width:0.8;"/>
   </g>
   <g id="PathCollection_3">
    <defs>
     <path d="M 0 3.383948 
C 0.897434 3.383948 1.758231 3.027394 2.392813 2.392813 
C 3.027394 1.758231 3.383948 0.897434 3.383948 0 
C 3.383948 -0.897434 3.027394 -1.758231 2.392813 -2.392813 
C 1.758231 -3.027394 0.897434 -3.383948 0 -3.383948 
C -0.897434 -3.383948 -1.758231 -3.027394 -2.392813 -2.392813 
C -3.027394 -1.758231 -3.383948 -0.897434 -3.383948 0 
C -3.383948 0.897434 -3.027394 1.758231 -2.392813 2.392813 
C -1.758231 3.027394 -0.897434 3.383948 0 3.383948 
z
" id="C2_0_aa6092dabc"/>
    </defs>
    <g clip-path="url(#paccd7ffd05)">
     <use style="fill:#800080;stroke:#800080;stroke-width:2.025;" x="61.350128" xlink:href="#C2_0_aa6092dabc" y="195.790901"/>
    </g>
    <g clip-path="url(#paccd7ffd05)">
     <use style="fill:#800080;stroke:#800080;stroke-width:2.025;" x="84.399762" xlink:href="#C2_0_aa6092dabc" y="204.665785"/>
    </g>
    <g clip-path="url(#paccd7ffd05)">
     <use style="fill:#800080;stroke:#800080;stroke-width:2.025;" x="107.449396" xlink:href="#C2_0_aa6092dabc" y="221.706542"/>
    </g>
    <g clip-path="url(#paccd7ffd05)">
     <use style="fill:#800080;stroke:#800080;stroke-width:2.025;" x="130.49903" xlink:href="#C2_0_aa6092dabc" y="179.532503"/>
    </g>
    <g clip-path="url(#paccd7ffd05)">
     <use style="fill:#800080;stroke:#800080;stroke-width:2.025;" x="153.548664" xlink:href="#C2_0_aa6092dabc" y="64.855792"/>
    </g>
    <g clip-path="url(#paccd7ffd05)">
     <use style="fill:#800080;stroke:#800080;stroke-width:2.025;" x="176.598299" xlink:href="#C2_0_aa6092dabc" y="58.327984"/>
    </g>
    <g clip-path="url(#paccd7ffd05)">
     <use style="fill:#800080;stroke:#800080;stroke-width:2.025;" x="199.647933" xlink:href="#C2_0_aa6092dabc" y="195.790901"/>
    </g>
    <g clip-path="url(#paccd7ffd05)">
     <use style="fill:#800080;stroke:#800080;stroke-width:2.025;" x="222.697567" xlink:href="#C2_0_aa6092dabc" y="204.665785"/>
    </g>
    <g clip-path="url(#paccd7ffd05)">
     <use style="fill:#800080;stroke:#800080;stroke-width:2.025;" x="245.747201" xlink:href="#C2_0_aa6092dabc" y="221.706542"/>
    </g>
    <g clip-path="url(#paccd7ffd05)">
     <use style="fill:#800080;stroke:#800080;stroke-width:2.025;" x="268.796836" xlink:href="#C2_0_aa6092dabc" y="179.532503"/>
    </g>
    <g clip-path="url(#paccd7ffd05)">
     <use style="fill:#800080;stroke:#800080;stroke-width:2.025;" x="291.84647" xlink:href="#C2_0_aa6092dabc" y="64.855792"/>
    </g>
    <g clip-path="url(#paccd7ffd05)">
     <use style="fill:#800080;stroke:#800080;stroke-width:2.025;" x="314.896104" xlink:href="#C2_0_aa6092dabc" y="58.327984"/>
    </g>
   </g>
   <g id="line2d_95">
    <path clip-path="url(#paccd7ffd05)" d="M 61.350128 195.790901 
L 84.399762 204.665785 
L 107.449396 221.706542 
L 130.49903 179.532503 
L 153.548664 64.855792 
L 176.598299 58.327984 
L 199.647933 195.790901 
L 222.697567 204.665785 
L 245.747201 221.706542 
L 268.796836 179.532503 
L 291.84647 64.855792 
L 314.896104 58.327984 
" style="fill:none;stroke:#800080;stroke-linecap:square;stroke-width:2.7;"/>
   </g>
   <g id="line2d_96">
    <path clip-path="url(#paccd7ffd05)" d="M 61.350128 218.78492 
L 61.350128 172.796881 
" style="fill:none;stroke:#800080;stroke-linecap:square;"/>
   </g>
   <g id="line2d_97">
    <path clip-path="url(#paccd7ffd05)" d="M 59.045164 218.78492 
L 63.655091 218.78492 
" style="fill:none;stroke:#800080;stroke-linecap:square;"/>
   </g>
   <g id="line2d_98">
    <path clip-path="url(#paccd7ffd05)" d="M 59.045164 172.796881 
L 63.655091 172.796881 
" style="fill:none;stroke:#800080;stroke-linecap:square;"/>
   </g>
   <g id="line2d_99">
    <path clip-path="url(#paccd7ffd05)" d="M 84.399762 216.59676 
L 84.399762 192.734811 
" style="fill:none;stroke:#800080;stroke-linecap:square;"/>
   </g>
   <g id="line2d_100">
    <path clip-path="url(#paccd7ffd05)" d="M 82.094798 216.59676 
L 86.704725 216.59676 
" style="fill:none;stroke:#800080;stroke-linecap:square;"/>
   </g>
   <g id="line2d_101">
    <path clip-path="url(#paccd7ffd05)" d="M 82.094798 192.734811 
L 86.704725 192.734811 
" style="fill:none;stroke:#800080;stroke-linecap:square;"/>
   </g>
   <g id="line2d_102">
    <path clip-path="url(#paccd7ffd05)" d="M 107.449396 248.636804 
L 107.449396 194.776279 
" style="fill:none;stroke:#800080;stroke-linecap:square;"/>
   </g>
   <g id="line2d_103">
    <path clip-path="url(#paccd7ffd05)" d="M 105.144433 248.636804 
L 109.754359 248.636804 
" style="fill:none;stroke:#800080;stroke-linecap:square;"/>
   </g>
   <g id="line2d_104">
    <path clip-path="url(#paccd7ffd05)" d="M 105.144433 194.776279 
L 109.754359 194.776279 
" style="fill:none;stroke:#800080;stroke-linecap:square;"/>
   </g>
   <g id="line2d_105">
    <path clip-path="url(#paccd7ffd05)" d="M 130.49903 193.696461 
L 130.49903 165.368546 
" style="fill:none;stroke:#800080;stroke-linecap:square;"/>
   </g>
   <g id="line2d_106">
    <path clip-path="url(#paccd7ffd05)" d="M 128.194067 193.696461 
L 132.803994 193.696461 
" style="fill:none;stroke:#800080;stroke-linecap:square;"/>
   </g>
   <g id="line2d_107">
    <path clip-path="url(#paccd7ffd05)" d="M 128.194067 165.368546 
L 132.803994 165.368546 
" style="fill:none;stroke:#800080;stroke-linecap:square;"/>
   </g>
   <g id="line2d_108">
    <path clip-path="url(#paccd7ffd05)" d="M 153.548664 75.686574 
L 153.548664 54.02501 
" style="fill:none;stroke:#800080;stroke-linecap:square;"/>
   </g>
   <g id="line2d_109">
    <path clip-path="url(#paccd7ffd05)" d="M 151.243701 75.686574 
L 155.853628 75.686574 
" style="fill:none;stroke:#800080;stroke-linecap:square;"/>
   </g>
   <g id="line2d_110">
    <path clip-path="url(#paccd7ffd05)" d="M 151.243701 54.02501 
L 155.853628 54.02501 
" style="fill:none;stroke:#800080;stroke-linecap:square;"/>
   </g>
   <g id="line2d_111">
    <path clip-path="url(#paccd7ffd05)" d="M 176.598299 62.728753 
L 176.598299 53.927215 
" style="fill:none;stroke:#800080;stroke-linecap:square;"/>
   </g>
   <g id="line2d_112">
    <path clip-path="url(#paccd7ffd05)" d="M 174.293335 62.728753 
L 178.903262 62.728753 
" style="fill:none;stroke:#800080;stroke-linecap:square;"/>
   </g>
   <g id="line2d_113">
    <path clip-path="url(#paccd7ffd05)" d="M 174.293335 53.927215 
L 178.903262 53.927215 
" style="fill:none;stroke:#800080;stroke-linecap:square;"/>
   </g>
   <g id="line2d_114">
    <path clip-path="url(#paccd7ffd05)" d="M 199.647933 218.943837 
L 199.647933 172.796881 
" style="fill:none;stroke:#800080;stroke-linecap:square;"/>
   </g>
   <g id="line2d_115">
    <path clip-path="url(#paccd7ffd05)" d="M 197.34297 218.943837 
L 201.952896 218.943837 
" style="fill:none;stroke:#800080;stroke-linecap:square;"/>
   </g>
   <g id="line2d_116">
    <path clip-path="url(#paccd7ffd05)" d="M 197.34297 172.796881 
L 201.952896 172.796881 
" style="fill:none;stroke:#800080;stroke-linecap:square;"/>
   </g>
   <g id="line2d_117">
    <path clip-path="url(#paccd7ffd05)" d="M 222.697567 216.59676 
L 222.697567 193.79833 
" style="fill:none;stroke:#800080;stroke-linecap:square;"/>
   </g>
   <g id="line2d_118">
    <path clip-path="url(#paccd7ffd05)" d="M 220.392604 216.59676 
L 225.002531 216.59676 
" style="fill:none;stroke:#800080;stroke-linecap:square;"/>
   </g>
   <g id="line2d_119">
    <path clip-path="url(#paccd7ffd05)" d="M 220.392604 193.79833 
L 225.002531 193.79833 
" style="fill:none;stroke:#800080;stroke-linecap:square;"/>
   </g>
   <g id="line2d_120">
    <path clip-path="url(#paccd7ffd05)" d="M 245.747201 248.636804 
L 245.747201 194.776279 
" style="fill:none;stroke:#800080;stroke-linecap:square;"/>
   </g>
   <g id="line2d_121">
    <path clip-path="url(#paccd7ffd05)" d="M 243.442238 248.636804 
L 248.052165 248.636804 
" style="fill:none;stroke:#800080;stroke-linecap:square;"/>
   </g>
   <g id="line2d_122">
    <path clip-path="url(#paccd7ffd05)" d="M 243.442238 194.776279 
L 248.052165 194.776279 
" style="fill:none;stroke:#800080;stroke-linecap:square;"/>
   </g>
   <g id="line2d_123">
    <path clip-path="url(#paccd7ffd05)" d="M 268.796836 193.696461 
L 268.796836 165.368546 
" style="fill:none;stroke:#800080;stroke-linecap:square;"/>
   </g>
   <g id="line2d_124">
    <path clip-path="url(#paccd7ffd05)" d="M 266.491872 193.696461 
L 271.101799 193.696461 
" style="fill:none;stroke:#800080;stroke-linecap:square;"/>
   </g>
   <g id="line2d_125">
    <path clip-path="url(#paccd7ffd05)" d="M 266.491872 165.368546 
L 271.101799 165.368546 
" style="fill:none;stroke:#800080;stroke-linecap:square;"/>
   </g>
   <g id="line2d_126">
    <path clip-path="url(#paccd7ffd05)" d="M 291.84647 75.686574 
L 291.84647 54.501759 
" style="fill:none;stroke:#800080;stroke-linecap:square;"/>
   </g>
   <g id="line2d_127">
    <path clip-path="url(#paccd7ffd05)" d="M 289.541507 75.686574 
L 294.151433 75.686574 
" style="fill:none;stroke:#800080;stroke-linecap:square;"/>
   </g>
   <g id="line2d_128">
    <path clip-path="url(#paccd7ffd05)" d="M 289.541507 54.501759 
L 294.151433 54.501759 
" style="fill:none;stroke:#800080;stroke-linecap:square;"/>
   </g>
   <g id="line2d_129">
    <path clip-path="url(#paccd7ffd05)" d="M 314.896104 62.728753 
L 314.896104 53.780522 
" style="fill:none;stroke:#800080;stroke-linecap:square;"/>
   </g>
   <g id="line2d_130">
    <path clip-path="url(#paccd7ffd05)" d="M 312.591141 62.728753 
L 317.201068 62.728753 
" style="fill:none;stroke:#800080;stroke-linecap:square;"/>
   </g>
   <g id="line2d_131">
    <path clip-path="url(#paccd7ffd05)" d="M 312.591141 53.780522 
L 317.201068 53.780522 
" style="fill:none;stroke:#800080;stroke-linecap:square;"/>
   </g>
   <g id="text_22">
    <text style="fill:#ffffff;font-family:Arial;font-size:8px;font-style:normal;font-weight:normal;text-anchor:middle;" transform="rotate(-0, 93.619615, 387.346606)" x="93.619615" y="387.346606">IHC Exposure</text>
   </g>
   <g id="text_23">
    <text style="fill:#ffffff;font-family:Arial;font-size:8px;font-style:normal;font-weight:normal;text-anchor:middle;" transform="rotate(-0, 231.917421, 387.346606)" x="231.917421" y="387.346606">IHC Exposure</text>
   </g>
   <g id="text_24">
    <text style="font-family:Arial;font-size:12px;font-style:normal;font-weight:normal;text-anchor:middle;" transform="rotate(-0, 192.364977, 15.789375)" x="192.364977" y="15.789375">Phyla Air</text>
   </g>
  </g>
  <g id="legend_1">
   <g id="text_25">
    <text style="font-family:Arial;font-size:10px;font-style:normal;font-weight:normal;text-anchor:start;" transform="rotate(-0, 421.785547, 202.977656)" x="421.785547" y="202.977656">phyla</text>
   </g>
   <g id="PathCollection_4">
    <path d="M 357.209766 217.999104 
C 358.107199 217.999104 358.967997 217.64255 359.602578 217.007969 
C 360.23716 216.373388 360.593714 215.51259 360.593714 214.615156 
C 360.593714 213.717723 360.23716 212.856925 359.602578 212.222344 
C 358.967997 211.587762 358.107199 211.231208 357.209766 211.231208 
C 356.312332 211.231208 355.451534 211.587762 354.816953 212.222344 
C 354.182372 212.856925 353.825818 213.717723 353.825818 214.615156 
C 353.825818 215.51259 354.182372 216.373388 354.816953 217.007969 
C 355.451534 217.64255 356.312332 217.999104 357.209766 217.999104 
z
" style="fill:#008000;stroke:#008000;stroke-width:2.025;"/>
   </g>
   <g id="text_26">
    <text style="font-family:Arial;font-size:10px;font-style:normal;font-weight:normal;text-anchor:start;" transform="rotate(-0, 375.209766, 217.240156)" x="375.209766" y="217.240156">k__Bacteria;p__Firmicutes</text>
   </g>
   <g id="PathCollection_5">
    <path d="M 357.209766 232.144417 
C 358.107199 232.144417 358.967997 231.787863 359.602578 231.153281 
C 360.23716 230.5187 360.593714 229.657902 360.593714 228.760469 
C 360.593714 227.863035 360.23716 227.002237 359.602578 226.367656 
C 358.967997 225.733075 358.107199 225.376521 357.209766 225.376521 
C 356.312332 225.376521 355.451534 225.733075 354.816953 226.367656 
C 354.182372 227.002237 353.825818 227.863035 353.825818 228.760469 
C 353.825818 229.657902 354.182372 230.5187 354.816953 231.153281 
C 355.451534 231.787863 356.312332 232.144417 357.209766 232.144417 
z
" style="fill:#ffa500;stroke:#ffa500;stroke-width:2.025;"/>
   </g>
   <g id="text_27">
    <text style="font-family:Arial;font-size:10px;font-style:normal;font-weight:normal;text-anchor:start;" transform="rotate(-0, 375.209766, 231.385469)" x="375.209766" y="231.385469">k__Bacteria;p__Bacteroidetes</text>
   </g>
   <g id="PathCollection_6">
    <path d="M 357.209766 246.289729 
C 358.107199 246.289729 358.967997 245.933175 359.602578 245.298594 
C 360.23716 244.664013 360.593714 243.803215 360.593714 242.905781 
C 360.593714 242.008348 360.23716 241.14755 359.602578 240.512969 
C 358.967997 239.878387 358.107199 239.521833 357.209766 239.521833 
C 356.312332 239.521833 355.451534 239.878387 354.816953 240.512969 
C 354.182372 241.14755 353.825818 242.008348 353.825818 242.905781 
C 353.825818 243.803215 354.182372 244.664013 354.816953 245.298594 
C 355.451534 245.933175 356.312332 246.289729 357.209766 246.289729 
z
" style="fill:#800080;stroke:#800080;stroke-width:2.025;"/>
   </g>
   <g id="text_28">
    <text style="font-family:Arial;font-size:10px;font-style:normal;font-weight:normal;text-anchor:start;" transform="rotate(-0, 375.209766, 245.530781)" x="375.209766" y="245.530781">k__Bacteria;p__Verrucomicrobia</text>
   </g>
  </g>
 </g>
 <defs>
  <clipPath id="paccd7ffd05">
   <rect height="381.4" width="294.923078" x="44.903438" y="21.789375"/>
  </clipPath>
 </defs>
</svg>
