<?xml version="1.0" encoding="utf-8" standalone="no"?>
<!DOCTYPE svg PUBLIC "-//W3C//DTD SVG 1.1//EN"
  "http://www.w3.org/Graphics/SVG/1.1/DTD/svg11.dtd">
<!-- Created with matplotlib (https://matplotlib.org/) -->
<svg height="233.434468pt" version="1.1" viewBox="0 0 274.892108 233.434468" width="274.892108pt" xmlns="http://www.w3.org/2000/svg" xmlns:xlink="http://www.w3.org/1999/xlink">
 <defs>
  <style type="text/css">
*{stroke-linecap:butt;stroke-linejoin:round;white-space:pre;}
  </style>
 </defs>
 <g id="figure_1">
  <g id="patch_1">
   <path d="M 0 233.434468 
L 274.892108 233.434468 
L 274.892108 0 
L 0 0 
z
" style="fill:#ffffff;"/>
  </g>
  <g id="axes_1">
   <g id="patch_2">
    <path clip-path="url(#pf4f4ee8e04)" d="M 157.117189 196.752003 
C 137.572904 194.091715 119.641543 184.431253 106.668814 169.573106 
C 93.696086 154.714958 86.542333 135.644509 86.542333 115.92 
C 86.542333 96.195491 93.696086 77.125042 106.668814 62.266894 
C 119.641543 47.408747 137.572904 37.748285 157.117189 35.087997 
C 143.28704 28.039263 127.876545 24.656536 112.365651 25.264676 
C 96.854757 25.872816 81.756415 30.451712 68.520595 38.561629 
C 55.284776 46.671546 44.349192 58.044286 36.764043 71.587668 
C 29.178895 85.13105 25.195025 100.397189 25.195025 115.92 
C 25.195025 131.442811 29.178895 146.70895 36.764043 160.252332 
C 44.349192 173.795714 55.284776 185.168454 68.520595 193.278371 
C 81.756415 201.388288 96.854757 205.967184 112.365651 206.575324 
C 127.876545 207.183464 143.28704 203.800737 157.117189 196.752003 
" style="fill:#ff0000;opacity:0.75;"/>
   </g>
   <g id="patch_3">
    <path clip-path="url(#pf4f4ee8e04)" d="M 157.117189 35.087997 
C 172.021553 42.68422 184.538541 54.256724 193.278371 68.520595 
C 202.018201 82.784467 206.644975 99.191502 206.644975 115.92 
C 206.644975 132.648498 202.018201 149.055533 193.278371 163.319405 
C 184.538541 177.583276 172.021553 189.15578 157.117189 196.752003 
C 168.652728 198.322173 180.391853 197.404947 191.543521 194.062134 
C 202.695188 190.719321 213.003154 185.027731 221.772814 177.370894 
C 230.542474 169.714057 237.572318 160.267912 242.388638 149.66899 
C 247.204957 139.070068 249.697084 127.561911 249.697084 115.92 
C 249.697084 104.278089 247.204957 92.769932 242.388638 82.17101 
C 237.572318 71.572088 230.542474 62.125943 221.772814 54.469106 
C 213.003154 46.812269 202.695188 41.120679 191.543521 37.777866 
C 180.391853 34.435053 168.652728 33.517827 157.117189 35.087997 
" style="fill:#0000ff;opacity:0.75;"/>
   </g>
   <g id="patch_4">
    <path clip-path="url(#pf4f4ee8e04)" d="M 157.117189 196.752003 
C 172.021553 189.15578 184.538541 177.583276 193.278371 163.319405 
C 202.018201 149.055533 206.644975 132.648498 206.644975 115.92 
C 206.644975 99.191502 202.018201 82.784467 193.278371 68.520595 
C 184.538541 54.256724 172.021553 42.68422 157.117189 35.087997 
C 137.572904 37.748285 119.641543 47.408747 106.668814 62.266894 
C 93.696086 77.125042 86.542333 96.195491 86.542333 115.92 
C 86.542333 135.644509 93.696086 154.714958 106.668814 169.573106 
C 119.641543 184.431253 137.572904 194.091715 157.117189 196.752003 
" style="fill:#b200b2;opacity:0.75;"/>
   </g>
   <g id="patch_5">
    <path clip-path="url(#pf4f4ee8e04)" d="M 115.92 206.644975 
C 139.980545 206.644975 163.058871 197.085619 180.072245 180.072245 
C 197.085619 163.058871 206.644975 139.980545 206.644975 115.92 
C 206.644975 91.859455 197.085619 68.781129 180.072245 51.767755 
C 163.058871 34.754381 139.980545 25.195025 115.92 25.195025 
C 91.859455 25.195025 68.781129 34.754381 51.767755 51.767755 
C 34.754381 68.781129 25.195025 91.859455 25.195025 115.92 
C 25.195025 139.980545 34.754381 163.058871 51.767755 180.072245 
C 68.781129 197.085619 91.859455 206.644975 115.92 206.644975 
z
" style="fill:none;stroke:#000000;stroke-linejoin:miter;stroke-width:2;"/>
   </g>
   <g id="patch_6">
    <path clip-path="url(#pf4f4ee8e04)" d="M 168.119708 197.497375 
C 189.754281 197.497375 210.50567 188.901868 225.803624 173.603915 
C 241.101577 158.305962 249.697084 137.554573 249.697084 115.92 
C 249.697084 94.285427 241.101577 73.534038 225.803624 58.236085 
C 210.50567 42.938132 189.754281 34.342625 168.119708 34.342625 
C 146.485136 34.342625 125.733746 42.938132 110.435793 58.236085 
C 95.13784 73.534038 86.542333 94.285427 86.542333 115.92 
C 86.542333 137.554573 95.13784 158.305962 110.435793 173.603915 
C 125.733746 188.901868 146.485136 197.497375 168.119708 197.497375 
z
" style="fill:none;stroke:#000000;stroke-linejoin:miter;stroke-width:2;"/>
   </g>
   <g id="text_1">
    <text style="font-family:Arial;font-size:10px;font-style:normal;font-weight:normal;text-anchor:middle;" transform="rotate(-0, 55.868679, 118.505156)" x="55.868679" y="118.505156">146</text>
   </g>
   <g id="text_2">
    <text style="font-family:Arial;font-size:10px;font-style:normal;font-weight:normal;text-anchor:middle;" transform="rotate(-0, 228.171029, 118.505156)" x="228.171029" y="118.505156">83</text>
   </g>
   <g id="text_3">
    <text style="font-family:Arial;font-size:10px;font-style:normal;font-weight:normal;text-anchor:middle;" transform="rotate(-0, 146.593654, 118.505156)" x="146.593654" y="118.505156">183</text>
   </g>
   <g id="text_4">
    <text style="font-family:Arial;font-size:12px;font-style:normal;font-weight:normal;text-anchor:end;" transform="rotate(-0, 115.92, 223.849468)" x="115.92" y="223.849468">Air</text>
   </g>
   <g id="text_5">
    <text style="font-family:Arial;font-size:12px;font-style:normal;font-weight:normal;text-anchor:start;" transform="rotate(-0, 168.119708, 214.701868)" x="168.119708" y="214.701868">IHC</text>
   </g>
  </g>
 </g>
 <defs>
  <clipPath id="pf4f4ee8e04">
   <rect height="217.44" width="260.492108" x="7.2" y="7.2"/>
  </clipPath>
 </defs>
</svg>
