<?xml version="1.0" encoding="utf-8" standalone="no"?>
<!DOCTYPE svg PUBLIC "-//W3C//DTD SVG 1.1//EN"
  "http://www.w3.org/Graphics/SVG/1.1/DTD/svg11.dtd">
<!-- Created with matplotlib (https://matplotlib.org/) -->
<svg height="443.484375pt" version="1.1" viewBox="0 0 434.740409 443.484375" width="434.740409pt" xmlns="http://www.w3.org/2000/svg" xmlns:xlink="http://www.w3.org/1999/xlink">
 <defs>
  <style type="text/css">
*{stroke-linecap:butt;stroke-linejoin:round;}
  </style>
 </defs>
 <g id="figure_1">
  <g id="patch_1">
   <path d="M 0 443.484375 
L 434.740409 443.484375 
L 434.740409 0 
L 0 0 
z
" style="fill:#ffffff;"/>
  </g>
  <g id="axes_1">
   <g id="patch_2">
    <path d="M 45.238125 403.335625 
L 354.380909 403.335625 
L 354.380909 21.935625 
L 45.238125 21.935625 
z
" style="fill:#ffffff;"/>
   </g>
   <g id="PathCollection_1">
    <defs>
     <path d="M 0 3.383948 
C 0.897434 3.383948 1.758231 3.027394 2.392813 2.392813 
C 3.027394 1.758231 3.383948 0.897434 3.383948 0 
C 3.383948 -0.897434 3.027394 -1.758231 2.392813 -2.392813 
C 1.758231 -3.027394 0.897434 -3.383948 0 -3.383948 
C -0.897434 -3.383948 -1.758231 -3.027394 -2.392813 -2.392813 
C -3.027394 -1.758231 -3.383948 -0.897434 -3.383948 0 
C -3.383948 0.897434 -3.027394 1.758231 -2.392813 2.392813 
C -1.758231 3.027394 -0.897434 3.383948 0 3.383948 
z
" id="C0_0_4167b61a06"/>
    </defs>
    <g clip-path="url(#pe35e486507)">
     <use style="fill:#0000ff;stroke:#0000ff;stroke-width:2.025;" x="62.477383" xlink:href="#C0_0_4167b61a06" y="78.351544"/>
    </g>
    <g clip-path="url(#pe35e486507)">
     <use style="fill:#0000ff;stroke:#0000ff;stroke-width:2.025;" x="86.63839" xlink:href="#C0_0_4167b61a06" y="59.671725"/>
    </g>
    <g clip-path="url(#pe35e486507)">
     <use style="fill:#0000ff;stroke:#0000ff;stroke-width:2.025;" x="110.799397" xlink:href="#C0_0_4167b61a06" y="154.93448"/>
    </g>
    <g clip-path="url(#pe35e486507)">
     <use style="fill:#0000ff;stroke:#0000ff;stroke-width:2.025;" x="134.960404" xlink:href="#C0_0_4167b61a06" y="226.688509"/>
    </g>
    <g clip-path="url(#pe35e486507)">
     <use style="fill:#0000ff;stroke:#0000ff;stroke-width:2.025;" x="159.121411" xlink:href="#C0_0_4167b61a06" y="98.34952"/>
    </g>
    <g clip-path="url(#pe35e486507)">
     <use style="fill:#0000ff;stroke:#0000ff;stroke-width:2.025;" x="183.282418" xlink:href="#C0_0_4167b61a06" y="141.25954"/>
    </g>
    <g clip-path="url(#pe35e486507)">
     <use style="fill:#0000ff;stroke:#0000ff;stroke-width:2.025;" x="207.443425" xlink:href="#C0_0_4167b61a06" y="78.351544"/>
    </g>
    <g clip-path="url(#pe35e486507)">
     <use style="fill:#0000ff;stroke:#0000ff;stroke-width:2.025;" x="231.604432" xlink:href="#C0_0_4167b61a06" y="59.671725"/>
    </g>
    <g clip-path="url(#pe35e486507)">
     <use style="fill:#0000ff;stroke:#0000ff;stroke-width:2.025;" x="255.76544" xlink:href="#C0_0_4167b61a06" y="154.93448"/>
    </g>
    <g clip-path="url(#pe35e486507)">
     <use style="fill:#0000ff;stroke:#0000ff;stroke-width:2.025;" x="279.926447" xlink:href="#C0_0_4167b61a06" y="226.688509"/>
    </g>
    <g clip-path="url(#pe35e486507)">
     <use style="fill:#0000ff;stroke:#0000ff;stroke-width:2.025;" x="304.087454" xlink:href="#C0_0_4167b61a06" y="98.34952"/>
    </g>
    <g clip-path="url(#pe35e486507)">
     <use style="fill:#0000ff;stroke:#0000ff;stroke-width:2.025;" x="328.248461" xlink:href="#C0_0_4167b61a06" y="141.25954"/>
    </g>
   </g>
   <g id="patch_3">
    <path clip-path="url(#pe35e486507)" d="M 122.8799 403.335625 
L 122.8799 21.935625 
L 195.362922 21.935625 
L 195.362922 403.335625 
z
" style="opacity:0.05;stroke:#000000;stroke-linejoin:miter;"/>
   </g>
   <g id="patch_4">
    <path clip-path="url(#pe35e486507)" d="M 267.845943 403.335625 
L 267.845943 21.935625 
L 340.328964 21.935625 
L 340.328964 403.335625 
z
" style="opacity:0.05;stroke:#000000;stroke-linejoin:miter;"/>
   </g>
   <g id="line2d_1">
    <path clip-path="url(#pe35e486507)" d="M 62.477383 78.351544 
L 86.63839 59.671725 
L 110.799397 154.93448 
L 134.960404 226.688509 
L 159.121411 98.34952 
L 183.282418 141.25954 
L 207.443425 78.351544 
L 231.604432 59.671725 
L 255.76544 154.93448 
L 279.926447 226.688509 
L 304.087454 98.34952 
L 328.248461 141.25954 
" style="fill:none;stroke:#0000ff;stroke-linecap:square;stroke-width:2.7;"/>
   </g>
   <g id="line2d_2">
    <path clip-path="url(#pe35e486507)" d="M 62.477383 117.431099 
L 62.477383 39.271989 
" style="fill:none;stroke:#0000ff;stroke-linecap:square;"/>
   </g>
   <g id="line2d_3">
    <path clip-path="url(#pe35e486507)" d="M 60.061282 117.431099 
L 64.893483 117.431099 
" style="fill:none;stroke:#0000ff;stroke-linecap:square;"/>
   </g>
   <g id="line2d_4">
    <path clip-path="url(#pe35e486507)" d="M 60.061282 39.271989 
L 64.893483 39.271989 
" style="fill:none;stroke:#0000ff;stroke-linecap:square;"/>
   </g>
   <g id="line2d_5">
    <path clip-path="url(#pe35e486507)" d="M 86.63839 74.571474 
L 86.63839 44.771976 
" style="fill:none;stroke:#0000ff;stroke-linecap:square;"/>
   </g>
   <g id="line2d_6">
    <path clip-path="url(#pe35e486507)" d="M 84.222289 74.571474 
L 89.054491 74.571474 
" style="fill:none;stroke:#0000ff;stroke-linecap:square;"/>
   </g>
   <g id="line2d_7">
    <path clip-path="url(#pe35e486507)" d="M 84.222289 44.771976 
L 89.054491 44.771976 
" style="fill:none;stroke:#0000ff;stroke-linecap:square;"/>
   </g>
   <g id="line2d_8">
    <path clip-path="url(#pe35e486507)" d="M 110.799397 183.744586 
L 110.799397 126.124374 
" style="fill:none;stroke:#0000ff;stroke-linecap:square;"/>
   </g>
   <g id="line2d_9">
    <path clip-path="url(#pe35e486507)" d="M 108.383296 183.744586 
L 113.215498 183.744586 
" style="fill:none;stroke:#0000ff;stroke-linecap:square;"/>
   </g>
   <g id="line2d_10">
    <path clip-path="url(#pe35e486507)" d="M 108.383296 126.124374 
L 113.215498 126.124374 
" style="fill:none;stroke:#0000ff;stroke-linecap:square;"/>
   </g>
   <g id="line2d_11">
    <path clip-path="url(#pe35e486507)" d="M 134.960404 272.325553 
L 134.960404 181.051464 
" style="fill:none;stroke:#0000ff;stroke-linecap:square;"/>
   </g>
   <g id="line2d_12">
    <path clip-path="url(#pe35e486507)" d="M 132.544303 272.325553 
L 137.376505 272.325553 
" style="fill:none;stroke:#0000ff;stroke-linecap:square;"/>
   </g>
   <g id="line2d_13">
    <path clip-path="url(#pe35e486507)" d="M 132.544303 181.051464 
L 137.376505 181.051464 
" style="fill:none;stroke:#0000ff;stroke-linecap:square;"/>
   </g>
   <g id="line2d_14">
    <path clip-path="url(#pe35e486507)" d="M 159.121411 147.167373 
L 159.121411 44.712109 
" style="fill:none;stroke:#0000ff;stroke-linecap:square;"/>
   </g>
   <g id="line2d_15">
    <path clip-path="url(#pe35e486507)" d="M 156.70531 147.167373 
L 161.537512 147.167373 
" style="fill:none;stroke:#0000ff;stroke-linecap:square;"/>
   </g>
   <g id="line2d_16">
    <path clip-path="url(#pe35e486507)" d="M 156.70531 44.712109 
L 161.537512 44.712109 
" style="fill:none;stroke:#0000ff;stroke-linecap:square;"/>
   </g>
   <g id="line2d_17">
    <path clip-path="url(#pe35e486507)" d="M 183.282418 206.858528 
L 183.282418 75.660552 
" style="fill:none;stroke:#0000ff;stroke-linecap:square;"/>
   </g>
   <g id="line2d_18">
    <path clip-path="url(#pe35e486507)" d="M 180.866318 206.858528 
L 185.698519 206.858528 
" style="fill:none;stroke:#0000ff;stroke-linecap:square;"/>
   </g>
   <g id="line2d_19">
    <path clip-path="url(#pe35e486507)" d="M 180.866318 75.660552 
L 185.698519 75.660552 
" style="fill:none;stroke:#0000ff;stroke-linecap:square;"/>
   </g>
   <g id="line2d_20">
    <path clip-path="url(#pe35e486507)" d="M 207.443425 117.431099 
L 207.443425 39.271989 
" style="fill:none;stroke:#0000ff;stroke-linecap:square;"/>
   </g>
   <g id="line2d_21">
    <path clip-path="url(#pe35e486507)" d="M 205.027325 117.431099 
L 209.859526 117.431099 
" style="fill:none;stroke:#0000ff;stroke-linecap:square;"/>
   </g>
   <g id="line2d_22">
    <path clip-path="url(#pe35e486507)" d="M 205.027325 39.271989 
L 209.859526 39.271989 
" style="fill:none;stroke:#0000ff;stroke-linecap:square;"/>
   </g>
   <g id="line2d_23">
    <path clip-path="url(#pe35e486507)" d="M 231.604432 74.571474 
L 231.604432 45.496679 
" style="fill:none;stroke:#0000ff;stroke-linecap:square;"/>
   </g>
   <g id="line2d_24">
    <path clip-path="url(#pe35e486507)" d="M 229.188332 74.571474 
L 234.020533 74.571474 
" style="fill:none;stroke:#0000ff;stroke-linecap:square;"/>
   </g>
   <g id="line2d_25">
    <path clip-path="url(#pe35e486507)" d="M 229.188332 45.496679 
L 234.020533 45.496679 
" style="fill:none;stroke:#0000ff;stroke-linecap:square;"/>
   </g>
   <g id="line2d_26">
    <path clip-path="url(#pe35e486507)" d="M 255.76544 183.744586 
L 255.76544 126.124374 
" style="fill:none;stroke:#0000ff;stroke-linecap:square;"/>
   </g>
   <g id="line2d_27">
    <path clip-path="url(#pe35e486507)" d="M 253.349339 183.744586 
L 258.18154 183.744586 
" style="fill:none;stroke:#0000ff;stroke-linecap:square;"/>
   </g>
   <g id="line2d_28">
    <path clip-path="url(#pe35e486507)" d="M 253.349339 126.124374 
L 258.18154 126.124374 
" style="fill:none;stroke:#0000ff;stroke-linecap:square;"/>
   </g>
   <g id="line2d_29">
    <path clip-path="url(#pe35e486507)" d="M 279.926447 272.325553 
L 279.926447 184.379653 
" style="fill:none;stroke:#0000ff;stroke-linecap:square;"/>
   </g>
   <g id="line2d_30">
    <path clip-path="url(#pe35e486507)" d="M 277.510346 272.325553 
L 282.342547 272.325553 
" style="fill:none;stroke:#0000ff;stroke-linecap:square;"/>
   </g>
   <g id="line2d_31">
    <path clip-path="url(#pe35e486507)" d="M 277.510346 184.379653 
L 282.342547 184.379653 
" style="fill:none;stroke:#0000ff;stroke-linecap:square;"/>
   </g>
   <g id="line2d_32">
    <path clip-path="url(#pe35e486507)" d="M 304.087454 151.986932 
L 304.087454 44.712109 
" style="fill:none;stroke:#0000ff;stroke-linecap:square;"/>
   </g>
   <g id="line2d_33">
    <path clip-path="url(#pe35e486507)" d="M 301.671353 151.986932 
L 306.503554 151.986932 
" style="fill:none;stroke:#0000ff;stroke-linecap:square;"/>
   </g>
   <g id="line2d_34">
    <path clip-path="url(#pe35e486507)" d="M 301.671353 44.712109 
L 306.503554 44.712109 
" style="fill:none;stroke:#0000ff;stroke-linecap:square;"/>
   </g>
   <g id="line2d_35">
    <path clip-path="url(#pe35e486507)" d="M 328.248461 206.858528 
L 328.248461 75.660552 
" style="fill:none;stroke:#0000ff;stroke-linecap:square;"/>
   </g>
   <g id="line2d_36">
    <path clip-path="url(#pe35e486507)" d="M 325.83236 206.858528 
L 330.664562 206.858528 
" style="fill:none;stroke:#0000ff;stroke-linecap:square;"/>
   </g>
   <g id="line2d_37">
    <path clip-path="url(#pe35e486507)" d="M 325.83236 75.660552 
L 330.664562 75.660552 
" style="fill:none;stroke:#0000ff;stroke-linecap:square;"/>
   </g>
   <g id="matplotlib.axis_1">
    <g id="xtick_1">
     <g id="line2d_38">
      <defs>
       <path d="M 0 0 
L 0 3.5 
" id="ma421942d78" style="stroke:#000000;stroke-width:0.8;"/>
      </defs>
      <g>
       <use style="stroke:#000000;stroke-width:0.8;" x="62.477383" xlink:href="#ma421942d78" y="403.335625"/>
      </g>
     </g>
     <g id="text_1">
      <text style="font-family:Arial;font-size:10px;font-style:normal;font-weight:normal;text-anchor:middle;" transform="rotate(-0, 62.477383, 417.493437)" x="62.477383" y="417.493437">2</text>
     </g>
    </g>
    <g id="xtick_2">
     <g id="line2d_39">
      <g>
       <use style="stroke:#000000;stroke-width:0.8;" x="86.63839" xlink:href="#ma421942d78" y="403.335625"/>
      </g>
     </g>
     <g id="text_2">
      <text style="font-family:Arial;font-size:10px;font-style:normal;font-weight:normal;text-anchor:middle;" transform="rotate(-0, 86.63839, 417.493437)" x="86.63839" y="417.493437">6</text>
     </g>
    </g>
    <g id="xtick_3">
     <g id="line2d_40">
      <g>
       <use style="stroke:#000000;stroke-width:0.8;" x="110.799397" xlink:href="#ma421942d78" y="403.335625"/>
      </g>
     </g>
     <g id="text_3">
      <text style="font-family:Arial;font-size:10px;font-style:normal;font-weight:normal;text-anchor:middle;" transform="rotate(-0, 110.799397, 417.493437)" x="110.799397" y="417.493437">10</text>
     </g>
    </g>
    <g id="xtick_4">
     <g id="line2d_41">
      <g>
       <use style="stroke:#000000;stroke-width:0.8;" x="134.960404" xlink:href="#ma421942d78" y="403.335625"/>
      </g>
     </g>
     <g id="text_4">
      <text style="font-family:Arial;font-size:10px;font-style:normal;font-weight:normal;text-anchor:middle;" transform="rotate(-0, 134.960404, 417.493437)" x="134.960404" y="417.493437">14</text>
     </g>
    </g>
    <g id="xtick_5">
     <g id="line2d_42">
      <g>
       <use style="stroke:#000000;stroke-width:0.8;" x="159.121411" xlink:href="#ma421942d78" y="403.335625"/>
      </g>
     </g>
     <g id="text_5">
      <text style="font-family:Arial;font-size:10px;font-style:normal;font-weight:normal;text-anchor:middle;" transform="rotate(-0, 159.121411, 417.493437)" x="159.121411" y="417.493437">18</text>
     </g>
    </g>
    <g id="xtick_6">
     <g id="line2d_43">
      <g>
       <use style="stroke:#000000;stroke-width:0.8;" x="183.282418" xlink:href="#ma421942d78" y="403.335625"/>
      </g>
     </g>
     <g id="text_6">
      <text style="font-family:Arial;font-size:10px;font-style:normal;font-weight:normal;text-anchor:middle;" transform="rotate(-0, 183.282418, 417.493437)" x="183.282418" y="417.493437">22</text>
     </g>
    </g>
    <g id="xtick_7">
     <g id="line2d_44">
      <g>
       <use style="stroke:#000000;stroke-width:0.8;" x="207.443425" xlink:href="#ma421942d78" y="403.335625"/>
      </g>
     </g>
     <g id="text_7">
      <text style="font-family:Arial;font-size:10px;font-style:normal;font-weight:normal;text-anchor:middle;" transform="rotate(-0, 207.443425, 417.493437)" x="207.443425" y="417.493437">2</text>
     </g>
    </g>
    <g id="xtick_8">
     <g id="line2d_45">
      <g>
       <use style="stroke:#000000;stroke-width:0.8;" x="231.604432" xlink:href="#ma421942d78" y="403.335625"/>
      </g>
     </g>
     <g id="text_8">
      <text style="font-family:Arial;font-size:10px;font-style:normal;font-weight:normal;text-anchor:middle;" transform="rotate(-0, 231.604432, 417.493437)" x="231.604432" y="417.493437">6</text>
     </g>
    </g>
    <g id="xtick_9">
     <g id="line2d_46">
      <g>
       <use style="stroke:#000000;stroke-width:0.8;" x="255.76544" xlink:href="#ma421942d78" y="403.335625"/>
      </g>
     </g>
     <g id="text_9">
      <text style="font-family:Arial;font-size:10px;font-style:normal;font-weight:normal;text-anchor:middle;" transform="rotate(-0, 255.76544, 417.493437)" x="255.76544" y="417.493437">10</text>
     </g>
    </g>
    <g id="xtick_10">
     <g id="line2d_47">
      <g>
       <use style="stroke:#000000;stroke-width:0.8;" x="279.926447" xlink:href="#ma421942d78" y="403.335625"/>
      </g>
     </g>
     <g id="text_10">
      <text style="font-family:Arial;font-size:10px;font-style:normal;font-weight:normal;text-anchor:middle;" transform="rotate(-0, 279.926447, 417.493437)" x="279.926447" y="417.493437">14</text>
     </g>
    </g>
    <g id="xtick_11">
     <g id="line2d_48">
      <g>
       <use style="stroke:#000000;stroke-width:0.8;" x="304.087454" xlink:href="#ma421942d78" y="403.335625"/>
      </g>
     </g>
     <g id="text_11">
      <text style="font-family:Arial;font-size:10px;font-style:normal;font-weight:normal;text-anchor:middle;" transform="rotate(-0, 304.087454, 417.493437)" x="304.087454" y="417.493437">18</text>
     </g>
    </g>
    <g id="xtick_12">
     <g id="line2d_49">
      <g>
       <use style="stroke:#000000;stroke-width:0.8;" x="328.248461" xlink:href="#ma421942d78" y="403.335625"/>
      </g>
     </g>
     <g id="text_12">
      <text style="font-family:Arial;font-size:10px;font-style:normal;font-weight:normal;text-anchor:middle;" transform="rotate(-0, 328.248461, 417.493437)" x="328.248461" y="417.493437">22</text>
     </g>
    </g>
    <g id="text_13">
     <text style="font-family:Arial;font-size:14px;font-style:normal;font-weight:normal;text-anchor:middle;" transform="rotate(-0, 199.809517, 433.501875)" x="199.809517" y="433.501875">ZT</text>
    </g>
   </g>
   <g id="matplotlib.axis_2">
    <g id="ytick_1">
     <g id="line2d_50">
      <defs>
       <path d="M 0 0 
L -3.5 0 
" id="m5d2e1bb245" style="stroke:#000000;stroke-width:0.8;"/>
      </defs>
      <g>
       <use style="stroke:#000000;stroke-width:0.8;" x="45.238125" xlink:href="#m5d2e1bb245" y="365.990652"/>
      </g>
     </g>
     <g id="text_14">
      <text style="font-family:Arial;font-size:10px;font-style:normal;font-weight:normal;text-anchor:end;" transform="rotate(-0, 38.238125, 369.569559)" x="38.238125" y="369.569559">0.5</text>
     </g>
    </g>
    <g id="ytick_2">
     <g id="line2d_51">
      <g>
       <use style="stroke:#000000;stroke-width:0.8;" x="45.238125" xlink:href="#m5d2e1bb245" y="287.29213"/>
      </g>
     </g>
     <g id="text_15">
      <text style="font-family:Arial;font-size:10px;font-style:normal;font-weight:normal;text-anchor:end;" transform="rotate(-0, 38.238125, 290.871037)" x="38.238125" y="290.871037">1.0</text>
     </g>
    </g>
    <g id="ytick_3">
     <g id="line2d_52">
      <g>
       <use style="stroke:#000000;stroke-width:0.8;" x="45.238125" xlink:href="#m5d2e1bb245" y="208.593608"/>
      </g>
     </g>
     <g id="text_16">
      <text style="font-family:Arial;font-size:10px;font-style:normal;font-weight:normal;text-anchor:end;" transform="rotate(-0, 38.238125, 212.172515)" x="38.238125" y="212.172515">1.5</text>
     </g>
    </g>
    <g id="ytick_4">
     <g id="line2d_53">
      <g>
       <use style="stroke:#000000;stroke-width:0.8;" x="45.238125" xlink:href="#m5d2e1bb245" y="129.895086"/>
      </g>
     </g>
     <g id="text_17">
      <text style="font-family:Arial;font-size:10px;font-style:normal;font-weight:normal;text-anchor:end;" transform="rotate(-0, 38.238125, 133.473993)" x="38.238125" y="133.473993">2.0</text>
     </g>
    </g>
    <g id="ytick_5">
     <g id="line2d_54">
      <g>
       <use style="stroke:#000000;stroke-width:0.8;" x="45.238125" xlink:href="#m5d2e1bb245" y="51.196564"/>
      </g>
     </g>
     <g id="text_18">
      <text style="font-family:Arial;font-size:10px;font-style:normal;font-weight:normal;text-anchor:end;" transform="rotate(-0, 38.238125, 54.775471)" x="38.238125" y="54.775471">2.5</text>
     </g>
    </g>
    <g id="text_19">
     <text style="font-family:Arial;font-size:14px;font-style:normal;font-weight:normal;text-anchor:middle;" transform="rotate(-90, 17.391563, 212.635625)" x="17.391563" y="212.635625">log_Ruminococcaceae_Coriobacteriaceae</text>
    </g>
   </g>
   <g id="PathCollection_2">
    <defs>
     <path d="M 0 3.383948 
C 0.897434 3.383948 1.758231 3.027394 2.392813 2.392813 
C 3.027394 1.758231 3.383948 0.897434 3.383948 0 
C 3.383948 -0.897434 3.027394 -1.758231 2.392813 -2.392813 
C 1.758231 -3.027394 0.897434 -3.383948 0 -3.383948 
C -0.897434 -3.383948 -1.758231 -3.027394 -2.392813 -2.392813 
C -3.027394 -1.758231 -3.383948 -0.897434 -3.383948 0 
C -3.383948 0.897434 -3.027394 1.758231 -2.392813 2.392813 
C -1.758231 3.027394 -0.897434 3.383948 0 3.383948 
z
" id="C1_0_8a435862b1"/>
    </defs>
    <g clip-path="url(#pe35e486507)">
     <use style="fill:#ff0000;stroke:#ff0000;stroke-width:2.025;" x="62.477383" xlink:href="#C1_0_8a435862b1" y="142.166492"/>
    </g>
    <g clip-path="url(#pe35e486507)">
     <use style="fill:#ff0000;stroke:#ff0000;stroke-width:2.025;" x="86.63839" xlink:href="#C1_0_8a435862b1" y="245.810561"/>
    </g>
    <g clip-path="url(#pe35e486507)">
     <use style="fill:#ff0000;stroke:#ff0000;stroke-width:2.025;" x="110.799397" xlink:href="#C1_0_8a435862b1" y="292.979558"/>
    </g>
    <g clip-path="url(#pe35e486507)">
     <use style="fill:#ff0000;stroke:#ff0000;stroke-width:2.025;" x="134.960404" xlink:href="#C1_0_8a435862b1" y="367.093793"/>
    </g>
    <g clip-path="url(#pe35e486507)">
     <use style="fill:#ff0000;stroke:#ff0000;stroke-width:2.025;" x="159.121411" xlink:href="#C1_0_8a435862b1" y="254.744425"/>
    </g>
    <g clip-path="url(#pe35e486507)">
     <use style="fill:#ff0000;stroke:#ff0000;stroke-width:2.025;" x="183.282418" xlink:href="#C1_0_8a435862b1" y="193.540906"/>
    </g>
    <g clip-path="url(#pe35e486507)">
     <use style="fill:#ff0000;stroke:#ff0000;stroke-width:2.025;" x="207.443425" xlink:href="#C1_0_8a435862b1" y="142.166492"/>
    </g>
    <g clip-path="url(#pe35e486507)">
     <use style="fill:#ff0000;stroke:#ff0000;stroke-width:2.025;" x="231.604432" xlink:href="#C1_0_8a435862b1" y="245.810561"/>
    </g>
    <g clip-path="url(#pe35e486507)">
     <use style="fill:#ff0000;stroke:#ff0000;stroke-width:2.025;" x="255.76544" xlink:href="#C1_0_8a435862b1" y="292.979558"/>
    </g>
    <g clip-path="url(#pe35e486507)">
     <use style="fill:#ff0000;stroke:#ff0000;stroke-width:2.025;" x="279.926447" xlink:href="#C1_0_8a435862b1" y="367.093793"/>
    </g>
    <g clip-path="url(#pe35e486507)">
     <use style="fill:#ff0000;stroke:#ff0000;stroke-width:2.025;" x="304.087454" xlink:href="#C1_0_8a435862b1" y="254.744425"/>
    </g>
    <g clip-path="url(#pe35e486507)">
     <use style="fill:#ff0000;stroke:#ff0000;stroke-width:2.025;" x="328.248461" xlink:href="#C1_0_8a435862b1" y="193.540906"/>
    </g>
   </g>
   <g id="line2d_55">
    <path clip-path="url(#pe35e486507)" d="M 62.477383 142.166492 
L 86.63839 245.810561 
L 110.799397 292.979558 
L 134.960404 367.093793 
L 159.121411 254.744425 
L 183.282418 193.540906 
L 207.443425 142.166492 
L 231.604432 245.810561 
L 255.76544 292.979558 
L 279.926447 367.093793 
L 304.087454 254.744425 
L 328.248461 193.540906 
" style="fill:none;stroke:#ff0000;stroke-linecap:square;stroke-width:2.7;"/>
   </g>
   <g id="line2d_56">
    <path clip-path="url(#pe35e486507)" d="M 62.477383 189.686732 
L 62.477383 94.646252 
" style="fill:none;stroke:#ff0000;stroke-linecap:square;"/>
   </g>
   <g id="line2d_57">
    <path clip-path="url(#pe35e486507)" d="M 60.061282 189.686732 
L 64.893483 189.686732 
" style="fill:none;stroke:#ff0000;stroke-linecap:square;"/>
   </g>
   <g id="line2d_58">
    <path clip-path="url(#pe35e486507)" d="M 60.061282 94.646252 
L 64.893483 94.646252 
" style="fill:none;stroke:#ff0000;stroke-linecap:square;"/>
   </g>
   <g id="line2d_59">
    <path clip-path="url(#pe35e486507)" d="M 86.63839 304.783259 
L 86.63839 186.837864 
" style="fill:none;stroke:#ff0000;stroke-linecap:square;"/>
   </g>
   <g id="line2d_60">
    <path clip-path="url(#pe35e486507)" d="M 84.222289 304.783259 
L 89.054491 304.783259 
" style="fill:none;stroke:#ff0000;stroke-linecap:square;"/>
   </g>
   <g id="line2d_61">
    <path clip-path="url(#pe35e486507)" d="M 84.222289 186.837864 
L 89.054491 186.837864 
" style="fill:none;stroke:#ff0000;stroke-linecap:square;"/>
   </g>
   <g id="line2d_62">
    <path clip-path="url(#pe35e486507)" d="M 110.799397 332.819314 
L 110.799397 253.139802 
" style="fill:none;stroke:#ff0000;stroke-linecap:square;"/>
   </g>
   <g id="line2d_63">
    <path clip-path="url(#pe35e486507)" d="M 108.383296 332.819314 
L 113.215498 332.819314 
" style="fill:none;stroke:#ff0000;stroke-linecap:square;"/>
   </g>
   <g id="line2d_64">
    <path clip-path="url(#pe35e486507)" d="M 108.383296 253.139802 
L 113.215498 253.139802 
" style="fill:none;stroke:#ff0000;stroke-linecap:square;"/>
   </g>
   <g id="line2d_65">
    <path clip-path="url(#pe35e486507)" d="M 134.960404 385.999261 
L 134.960404 345.630184 
" style="fill:none;stroke:#ff0000;stroke-linecap:square;"/>
   </g>
   <g id="line2d_66">
    <path clip-path="url(#pe35e486507)" d="M 132.544303 385.999261 
L 137.376505 385.999261 
" style="fill:none;stroke:#ff0000;stroke-linecap:square;"/>
   </g>
   <g id="line2d_67">
    <path clip-path="url(#pe35e486507)" d="M 132.544303 345.630184 
L 137.376505 345.630184 
" style="fill:none;stroke:#ff0000;stroke-linecap:square;"/>
   </g>
   <g id="line2d_68">
    <path clip-path="url(#pe35e486507)" d="M 159.121411 275.63771 
L 159.121411 233.85114 
" style="fill:none;stroke:#ff0000;stroke-linecap:square;"/>
   </g>
   <g id="line2d_69">
    <path clip-path="url(#pe35e486507)" d="M 156.70531 275.63771 
L 161.537512 275.63771 
" style="fill:none;stroke:#ff0000;stroke-linecap:square;"/>
   </g>
   <g id="line2d_70">
    <path clip-path="url(#pe35e486507)" d="M 156.70531 233.85114 
L 161.537512 233.85114 
" style="fill:none;stroke:#ff0000;stroke-linecap:square;"/>
   </g>
   <g id="line2d_71">
    <path clip-path="url(#pe35e486507)" d="M 183.282418 244.632411 
L 183.282418 142.449401 
" style="fill:none;stroke:#ff0000;stroke-linecap:square;"/>
   </g>
   <g id="line2d_72">
    <path clip-path="url(#pe35e486507)" d="M 180.866318 244.632411 
L 185.698519 244.632411 
" style="fill:none;stroke:#ff0000;stroke-linecap:square;"/>
   </g>
   <g id="line2d_73">
    <path clip-path="url(#pe35e486507)" d="M 180.866318 142.449401 
L 185.698519 142.449401 
" style="fill:none;stroke:#ff0000;stroke-linecap:square;"/>
   </g>
   <g id="line2d_74">
    <path clip-path="url(#pe35e486507)" d="M 207.443425 189.686732 
L 207.443425 94.646252 
" style="fill:none;stroke:#ff0000;stroke-linecap:square;"/>
   </g>
   <g id="line2d_75">
    <path clip-path="url(#pe35e486507)" d="M 205.027325 189.686732 
L 209.859526 189.686732 
" style="fill:none;stroke:#ff0000;stroke-linecap:square;"/>
   </g>
   <g id="line2d_76">
    <path clip-path="url(#pe35e486507)" d="M 205.027325 94.646252 
L 209.859526 94.646252 
" style="fill:none;stroke:#ff0000;stroke-linecap:square;"/>
   </g>
   <g id="line2d_77">
    <path clip-path="url(#pe35e486507)" d="M 231.604432 304.783259 
L 231.604432 186.837864 
" style="fill:none;stroke:#ff0000;stroke-linecap:square;"/>
   </g>
   <g id="line2d_78">
    <path clip-path="url(#pe35e486507)" d="M 229.188332 304.783259 
L 234.020533 304.783259 
" style="fill:none;stroke:#ff0000;stroke-linecap:square;"/>
   </g>
   <g id="line2d_79">
    <path clip-path="url(#pe35e486507)" d="M 229.188332 186.837864 
L 234.020533 186.837864 
" style="fill:none;stroke:#ff0000;stroke-linecap:square;"/>
   </g>
   <g id="line2d_80">
    <path clip-path="url(#pe35e486507)" d="M 255.76544 332.819314 
L 255.76544 253.139802 
" style="fill:none;stroke:#ff0000;stroke-linecap:square;"/>
   </g>
   <g id="line2d_81">
    <path clip-path="url(#pe35e486507)" d="M 253.349339 332.819314 
L 258.18154 332.819314 
" style="fill:none;stroke:#ff0000;stroke-linecap:square;"/>
   </g>
   <g id="line2d_82">
    <path clip-path="url(#pe35e486507)" d="M 253.349339 253.139802 
L 258.18154 253.139802 
" style="fill:none;stroke:#ff0000;stroke-linecap:square;"/>
   </g>
   <g id="line2d_83">
    <path clip-path="url(#pe35e486507)" d="M 279.926447 385.999261 
L 279.926447 332.199953 
" style="fill:none;stroke:#ff0000;stroke-linecap:square;"/>
   </g>
   <g id="line2d_84">
    <path clip-path="url(#pe35e486507)" d="M 277.510346 385.999261 
L 282.342547 385.999261 
" style="fill:none;stroke:#ff0000;stroke-linecap:square;"/>
   </g>
   <g id="line2d_85">
    <path clip-path="url(#pe35e486507)" d="M 277.510346 332.199953 
L 282.342547 332.199953 
" style="fill:none;stroke:#ff0000;stroke-linecap:square;"/>
   </g>
   <g id="line2d_86">
    <path clip-path="url(#pe35e486507)" d="M 304.087454 276.726996 
L 304.087454 231.053568 
" style="fill:none;stroke:#ff0000;stroke-linecap:square;"/>
   </g>
   <g id="line2d_87">
    <path clip-path="url(#pe35e486507)" d="M 301.671353 276.726996 
L 306.503554 276.726996 
" style="fill:none;stroke:#ff0000;stroke-linecap:square;"/>
   </g>
   <g id="line2d_88">
    <path clip-path="url(#pe35e486507)" d="M 301.671353 231.053568 
L 306.503554 231.053568 
" style="fill:none;stroke:#ff0000;stroke-linecap:square;"/>
   </g>
   <g id="line2d_89">
    <path clip-path="url(#pe35e486507)" d="M 328.248461 252.390432 
L 328.248461 142.449401 
" style="fill:none;stroke:#ff0000;stroke-linecap:square;"/>
   </g>
   <g id="line2d_90">
    <path clip-path="url(#pe35e486507)" d="M 325.83236 252.390432 
L 330.664562 252.390432 
" style="fill:none;stroke:#ff0000;stroke-linecap:square;"/>
   </g>
   <g id="line2d_91">
    <path clip-path="url(#pe35e486507)" d="M 325.83236 142.449401 
L 330.664562 142.449401 
" style="fill:none;stroke:#ff0000;stroke-linecap:square;"/>
   </g>
   <g id="line2d_92">
    <path clip-path="url(#pe35e486507)" d="M 195.362922 403.335625 
L 195.362922 21.935625 
" style="fill:none;stroke:#000000;stroke-dasharray:5.55,2.4;stroke-dashoffset:0;stroke-width:1.5;"/>
   </g>
   <g id="patch_5">
    <path d="M 45.238125 403.335625 
L 45.238125 21.935625 
" style="fill:none;stroke:#000000;stroke-linecap:square;stroke-linejoin:miter;stroke-width:0.8;"/>
   </g>
   <g id="patch_6">
    <path d="M 45.238125 403.335625 
L 354.380909 403.335625 
" style="fill:none;stroke:#000000;stroke-linecap:square;stroke-linejoin:miter;stroke-width:0.8;"/>
   </g>
   <g id="text_20">
    <text style="font-family:Arial;font-size:12px;font-style:normal;font-weight:normal;text-anchor:middle;" transform="rotate(-0, 199.809517, 15.935625)" x="199.809517" y="15.935625">Log log_Ruminococcaceae_Coriobacteriaceae</text>
   </g>
  </g>
  <g id="legend_1">
   <g id="text_21">
    <text style="font-family:Arial;font-size:10px;font-style:normal;font-weight:normal;text-anchor:start;" transform="rotate(-0, 360.145097, 210.123438)" x="360.145097" y="210.123438">exposure_type</text>
   </g>
   <g id="PathCollection_3">
    <path d="M 380.331815 225.144886 
C 381.229249 225.144886 382.090047 224.788332 382.724628 224.15375 
C 383.359209 223.519169 383.715764 222.658371 383.715764 221.760938 
C 383.715764 220.863504 383.359209 220.002706 382.724628 219.368125 
C 382.090047 218.733543 381.229249 218.376989 380.331815 218.376989 
C 379.434382 218.376989 378.573584 218.733543 377.939003 219.368125 
C 377.304421 220.002706 376.947867 220.863504 376.947867 221.760938 
C 376.947867 222.658371 377.304421 223.519169 377.939003 224.15375 
C 378.573584 224.788332 379.434382 225.144886 380.331815 225.144886 
z
" style="fill:#0000ff;stroke:#0000ff;stroke-width:2.025;"/>
   </g>
   <g id="text_22">
    <text style="font-family:Arial;font-size:10px;font-style:normal;font-weight:normal;text-anchor:start;" transform="rotate(-0, 398.331815, 224.385938)" x="398.331815" y="224.385938">IHC</text>
   </g>
   <g id="PathCollection_4">
    <path d="M 380.331815 239.290198 
C 381.229249 239.290198 382.090047 238.933644 382.724628 238.299063 
C 383.359209 237.664481 383.715764 236.803684 383.715764 235.90625 
C 383.715764 235.008816 383.359209 234.148019 382.724628 233.513437 
C 382.090047 232.878856 381.229249 232.522302 380.331815 232.522302 
C 379.434382 232.522302 378.573584 232.878856 377.939003 233.513437 
C 377.304421 234.148019 376.947867 235.008816 376.947867 235.90625 
C 376.947867 236.803684 377.304421 237.664481 377.939003 238.299063 
C 378.573584 238.933644 379.434382 239.290198 380.331815 239.290198 
z
" style="fill:#ff0000;stroke:#ff0000;stroke-width:2.025;"/>
   </g>
   <g id="text_23">
    <text style="font-family:Arial;font-size:10px;font-style:normal;font-weight:normal;text-anchor:start;" transform="rotate(-0, 398.331815, 238.53125)" x="398.331815" y="238.53125">Air</text>
   </g>
  </g>
 </g>
 <defs>
  <clipPath id="pe35e486507">
   <rect height="381.4" width="309.142784" x="45.238125" y="21.935625"/>
  </clipPath>
 </defs>
</svg>
