<?xml version="1.0" encoding="utf-8" standalone="no"?>
<!DOCTYPE svg PUBLIC "-//W3C//DTD SVG 1.1//EN"
  "http://www.w3.org/Graphics/SVG/1.1/DTD/svg11.dtd">
<!-- Created with matplotlib (https://matplotlib.org/) -->
<svg height="443.338125pt" version="1.1" viewBox="0 0 434.405722 443.338125" width="434.405722pt" xmlns="http://www.w3.org/2000/svg" xmlns:xlink="http://www.w3.org/1999/xlink">
 <defs>
  <style type="text/css">
*{stroke-linecap:butt;stroke-linejoin:round;}
  </style>
 </defs>
 <g id="figure_1">
  <g id="patch_1">
   <path d="M 0 443.338125 
L 434.405722 443.338125 
L 434.405722 0 
L 0 0 
z
" style="fill:#ffffff;"/>
  </g>
  <g id="axes_1">
   <g id="patch_2">
    <path d="M 44.903438 403.189375 
L 354.046222 403.189375 
L 354.046222 21.789375 
L 44.903438 21.789375 
z
" style="fill:#ffffff;"/>
   </g>
   <g id="PathCollection_1">
    <defs>
     <path d="M 0 3.383948 
C 0.897434 3.383948 1.758231 3.027394 2.392813 2.392813 
C 3.027394 1.758231 3.383948 0.897434 3.383948 0 
C 3.383948 -0.897434 3.027394 -1.758231 2.392813 -2.392813 
C 1.758231 -3.027394 0.897434 -3.383948 0 -3.383948 
C -0.897434 -3.383948 -1.758231 -3.027394 -2.392813 -2.392813 
C -3.027394 -1.758231 -3.383948 -0.897434 -3.383948 0 
C -3.383948 0.897434 -3.027394 1.758231 -2.392813 2.392813 
C -1.758231 3.027394 -0.897434 3.383948 0 3.383948 
z
" id="C0_0_f8b92af5e9"/>
    </defs>
    <g clip-path="url(#p95d71626c6)">
     <use style="fill:#ff0000;stroke:#ff0000;stroke-width:2.025;" x="62.142695" xlink:href="#C0_0_f8b92af5e9" y="122.140515"/>
    </g>
    <g clip-path="url(#p95d71626c6)">
     <use style="fill:#ff0000;stroke:#ff0000;stroke-width:2.025;" x="86.303702" xlink:href="#C0_0_f8b92af5e9" y="301.313983"/>
    </g>
    <g clip-path="url(#p95d71626c6)">
     <use style="fill:#ff0000;stroke:#ff0000;stroke-width:2.025;" x="110.464709" xlink:href="#C0_0_f8b92af5e9" y="277.245771"/>
    </g>
    <g clip-path="url(#p95d71626c6)">
     <use style="fill:#ff0000;stroke:#ff0000;stroke-width:2.025;" x="134.625717" xlink:href="#C0_0_f8b92af5e9" y="262.071685"/>
    </g>
    <g clip-path="url(#p95d71626c6)">
     <use style="fill:#ff0000;stroke:#ff0000;stroke-width:2.025;" x="158.786724" xlink:href="#C0_0_f8b92af5e9" y="324.130259"/>
    </g>
    <g clip-path="url(#p95d71626c6)">
     <use style="fill:#ff0000;stroke:#ff0000;stroke-width:2.025;" x="182.947731" xlink:href="#C0_0_f8b92af5e9" y="247.379942"/>
    </g>
    <g clip-path="url(#p95d71626c6)">
     <use style="fill:#ff0000;stroke:#ff0000;stroke-width:2.025;" x="207.108738" xlink:href="#C0_0_f8b92af5e9" y="122.140515"/>
    </g>
    <g clip-path="url(#p95d71626c6)">
     <use style="fill:#ff0000;stroke:#ff0000;stroke-width:2.025;" x="231.269745" xlink:href="#C0_0_f8b92af5e9" y="301.313983"/>
    </g>
    <g clip-path="url(#p95d71626c6)">
     <use style="fill:#ff0000;stroke:#ff0000;stroke-width:2.025;" x="255.430752" xlink:href="#C0_0_f8b92af5e9" y="277.245771"/>
    </g>
    <g clip-path="url(#p95d71626c6)">
     <use style="fill:#ff0000;stroke:#ff0000;stroke-width:2.025;" x="279.591759" xlink:href="#C0_0_f8b92af5e9" y="262.071685"/>
    </g>
    <g clip-path="url(#p95d71626c6)">
     <use style="fill:#ff0000;stroke:#ff0000;stroke-width:2.025;" x="303.752766" xlink:href="#C0_0_f8b92af5e9" y="324.130259"/>
    </g>
    <g clip-path="url(#p95d71626c6)">
     <use style="fill:#ff0000;stroke:#ff0000;stroke-width:2.025;" x="327.913773" xlink:href="#C0_0_f8b92af5e9" y="247.379942"/>
    </g>
   </g>
   <g id="patch_3">
    <path clip-path="url(#p95d71626c6)" d="M 122.545213 403.189375 
L 122.545213 21.789375 
L 195.028234 21.789375 
L 195.028234 403.189375 
z
" style="opacity:0.2;stroke:#000000;stroke-linejoin:miter;"/>
   </g>
   <g id="patch_4">
    <path clip-path="url(#p95d71626c6)" d="M 267.511256 403.189375 
L 267.511256 21.789375 
L 339.994277 21.789375 
L 339.994277 403.189375 
z
" style="opacity:0.2;stroke:#000000;stroke-linejoin:miter;"/>
   </g>
   <g id="line2d_1">
    <path clip-path="url(#p95d71626c6)" d="M 62.142695 122.140515 
L 86.303702 301.313983 
L 110.464709 277.245771 
L 134.625717 262.071685 
L 158.786724 324.130259 
L 182.947731 247.379942 
L 207.108738 122.140515 
L 231.269745 301.313983 
L 255.430752 277.245771 
L 279.591759 262.071685 
L 303.752766 324.130259 
L 327.913773 247.379942 
" style="fill:none;stroke:#ff0000;stroke-linecap:square;stroke-width:2.7;"/>
   </g>
   <g id="line2d_2">
    <path clip-path="url(#p95d71626c6)" d="M 62.142695 190.661817 
L 62.142695 53.619212 
" style="fill:none;stroke:#ff0000;stroke-linecap:square;"/>
   </g>
   <g id="line2d_3">
    <path clip-path="url(#p95d71626c6)" d="M 59.726595 190.661817 
L 64.558796 190.661817 
" style="fill:none;stroke:#ff0000;stroke-linecap:square;"/>
   </g>
   <g id="line2d_4">
    <path clip-path="url(#p95d71626c6)" d="M 59.726595 53.619212 
L 64.558796 53.619212 
" style="fill:none;stroke:#ff0000;stroke-linecap:square;"/>
   </g>
   <g id="line2d_5">
    <path clip-path="url(#p95d71626c6)" d="M 86.303702 337.648252 
L 86.303702 264.979714 
" style="fill:none;stroke:#ff0000;stroke-linecap:square;"/>
   </g>
   <g id="line2d_6">
    <path clip-path="url(#p95d71626c6)" d="M 83.887602 337.648252 
L 88.719803 337.648252 
" style="fill:none;stroke:#ff0000;stroke-linecap:square;"/>
   </g>
   <g id="line2d_7">
    <path clip-path="url(#p95d71626c6)" d="M 83.887602 264.979714 
L 88.719803 264.979714 
" style="fill:none;stroke:#ff0000;stroke-linecap:square;"/>
   </g>
   <g id="line2d_8">
    <path clip-path="url(#p95d71626c6)" d="M 110.464709 359.817443 
L 110.464709 194.674098 
" style="fill:none;stroke:#ff0000;stroke-linecap:square;"/>
   </g>
   <g id="line2d_9">
    <path clip-path="url(#p95d71626c6)" d="M 108.048609 359.817443 
L 112.88081 359.817443 
" style="fill:none;stroke:#ff0000;stroke-linecap:square;"/>
   </g>
   <g id="line2d_10">
    <path clip-path="url(#p95d71626c6)" d="M 108.048609 194.674098 
L 112.88081 194.674098 
" style="fill:none;stroke:#ff0000;stroke-linecap:square;"/>
   </g>
   <g id="line2d_11">
    <path clip-path="url(#p95d71626c6)" d="M 134.625717 317.849297 
L 134.625717 206.294073 
" style="fill:none;stroke:#ff0000;stroke-linecap:square;"/>
   </g>
   <g id="line2d_12">
    <path clip-path="url(#p95d71626c6)" d="M 132.209616 317.849297 
L 137.041817 317.849297 
" style="fill:none;stroke:#ff0000;stroke-linecap:square;"/>
   </g>
   <g id="line2d_13">
    <path clip-path="url(#p95d71626c6)" d="M 132.209616 206.294073 
L 137.041817 206.294073 
" style="fill:none;stroke:#ff0000;stroke-linecap:square;"/>
   </g>
   <g id="line2d_14">
    <path clip-path="url(#p95d71626c6)" d="M 158.786724 367.783453 
L 158.786724 279.27357 
" style="fill:none;stroke:#ff0000;stroke-linecap:square;"/>
   </g>
   <g id="line2d_15">
    <path clip-path="url(#p95d71626c6)" d="M 156.370623 367.783453 
L 161.202824 367.783453 
" style="fill:none;stroke:#ff0000;stroke-linecap:square;"/>
   </g>
   <g id="line2d_16">
    <path clip-path="url(#p95d71626c6)" d="M 156.370623 279.27357 
L 161.202824 279.27357 
" style="fill:none;stroke:#ff0000;stroke-linecap:square;"/>
   </g>
   <g id="line2d_17">
    <path clip-path="url(#p95d71626c6)" d="M 182.947731 309.193528 
L 182.947731 173.8596 
" style="fill:none;stroke:#ff0000;stroke-linecap:square;"/>
   </g>
   <g id="line2d_18">
    <path clip-path="url(#p95d71626c6)" d="M 180.53163 309.193528 
L 185.363831 309.193528 
" style="fill:none;stroke:#ff0000;stroke-linecap:square;"/>
   </g>
   <g id="line2d_19">
    <path clip-path="url(#p95d71626c6)" d="M 180.53163 173.8596 
L 185.363831 173.8596 
" style="fill:none;stroke:#ff0000;stroke-linecap:square;"/>
   </g>
   <g id="line2d_20">
    <path clip-path="url(#p95d71626c6)" d="M 207.108738 190.661817 
L 207.108738 53.619212 
" style="fill:none;stroke:#ff0000;stroke-linecap:square;"/>
   </g>
   <g id="line2d_21">
    <path clip-path="url(#p95d71626c6)" d="M 204.692637 190.661817 
L 209.524839 190.661817 
" style="fill:none;stroke:#ff0000;stroke-linecap:square;"/>
   </g>
   <g id="line2d_22">
    <path clip-path="url(#p95d71626c6)" d="M 204.692637 53.619212 
L 209.524839 53.619212 
" style="fill:none;stroke:#ff0000;stroke-linecap:square;"/>
   </g>
   <g id="line2d_23">
    <path clip-path="url(#p95d71626c6)" d="M 231.269745 337.648252 
L 231.269745 264.979714 
" style="fill:none;stroke:#ff0000;stroke-linecap:square;"/>
   </g>
   <g id="line2d_24">
    <path clip-path="url(#p95d71626c6)" d="M 228.853644 337.648252 
L 233.685846 337.648252 
" style="fill:none;stroke:#ff0000;stroke-linecap:square;"/>
   </g>
   <g id="line2d_25">
    <path clip-path="url(#p95d71626c6)" d="M 228.853644 264.979714 
L 233.685846 264.979714 
" style="fill:none;stroke:#ff0000;stroke-linecap:square;"/>
   </g>
   <g id="line2d_26">
    <path clip-path="url(#p95d71626c6)" d="M 255.430752 359.817443 
L 255.430752 194.674098 
" style="fill:none;stroke:#ff0000;stroke-linecap:square;"/>
   </g>
   <g id="line2d_27">
    <path clip-path="url(#p95d71626c6)" d="M 253.014651 359.817443 
L 257.846853 359.817443 
" style="fill:none;stroke:#ff0000;stroke-linecap:square;"/>
   </g>
   <g id="line2d_28">
    <path clip-path="url(#p95d71626c6)" d="M 253.014651 194.674098 
L 257.846853 194.674098 
" style="fill:none;stroke:#ff0000;stroke-linecap:square;"/>
   </g>
   <g id="line2d_29">
    <path clip-path="url(#p95d71626c6)" d="M 279.591759 317.849297 
L 279.591759 206.294073 
" style="fill:none;stroke:#ff0000;stroke-linecap:square;"/>
   </g>
   <g id="line2d_30">
    <path clip-path="url(#p95d71626c6)" d="M 277.175658 317.849297 
L 282.00786 317.849297 
" style="fill:none;stroke:#ff0000;stroke-linecap:square;"/>
   </g>
   <g id="line2d_31">
    <path clip-path="url(#p95d71626c6)" d="M 277.175658 206.294073 
L 282.00786 206.294073 
" style="fill:none;stroke:#ff0000;stroke-linecap:square;"/>
   </g>
   <g id="line2d_32">
    <path clip-path="url(#p95d71626c6)" d="M 303.752766 367.783453 
L 303.752766 279.27357 
" style="fill:none;stroke:#ff0000;stroke-linecap:square;"/>
   </g>
   <g id="line2d_33">
    <path clip-path="url(#p95d71626c6)" d="M 301.336666 367.783453 
L 306.168867 367.783453 
" style="fill:none;stroke:#ff0000;stroke-linecap:square;"/>
   </g>
   <g id="line2d_34">
    <path clip-path="url(#p95d71626c6)" d="M 301.336666 279.27357 
L 306.168867 279.27357 
" style="fill:none;stroke:#ff0000;stroke-linecap:square;"/>
   </g>
   <g id="line2d_35">
    <path clip-path="url(#p95d71626c6)" d="M 327.913773 315.046906 
L 327.913773 179.712978 
" style="fill:none;stroke:#ff0000;stroke-linecap:square;"/>
   </g>
   <g id="line2d_36">
    <path clip-path="url(#p95d71626c6)" d="M 325.497673 315.046906 
L 330.329874 315.046906 
" style="fill:none;stroke:#ff0000;stroke-linecap:square;"/>
   </g>
   <g id="line2d_37">
    <path clip-path="url(#p95d71626c6)" d="M 325.497673 179.712978 
L 330.329874 179.712978 
" style="fill:none;stroke:#ff0000;stroke-linecap:square;"/>
   </g>
   <g id="matplotlib.axis_1">
    <g id="xtick_1">
     <g id="line2d_38">
      <defs>
       <path d="M 0 0 
L 0 3.5 
" id="md210b38ee8" style="stroke:#000000;stroke-width:0.8;"/>
      </defs>
      <g>
       <use style="stroke:#000000;stroke-width:0.8;" x="62.142695" xlink:href="#md210b38ee8" y="403.189375"/>
      </g>
     </g>
     <g id="text_1">
      <text style="font-family:Arial;font-size:10px;font-style:normal;font-weight:normal;text-anchor:middle;" transform="rotate(-0, 62.142695, 417.347187)" x="62.142695" y="417.347187">2</text>
     </g>
    </g>
    <g id="xtick_2">
     <g id="line2d_39">
      <g>
       <use style="stroke:#000000;stroke-width:0.8;" x="86.303702" xlink:href="#md210b38ee8" y="403.189375"/>
      </g>
     </g>
     <g id="text_2">
      <text style="font-family:Arial;font-size:10px;font-style:normal;font-weight:normal;text-anchor:middle;" transform="rotate(-0, 86.303702, 417.347187)" x="86.303702" y="417.347187">6</text>
     </g>
    </g>
    <g id="xtick_3">
     <g id="line2d_40">
      <g>
       <use style="stroke:#000000;stroke-width:0.8;" x="110.464709" xlink:href="#md210b38ee8" y="403.189375"/>
      </g>
     </g>
     <g id="text_3">
      <text style="font-family:Arial;font-size:10px;font-style:normal;font-weight:normal;text-anchor:middle;" transform="rotate(-0, 110.464709, 417.347187)" x="110.464709" y="417.347187">10</text>
     </g>
    </g>
    <g id="xtick_4">
     <g id="line2d_41">
      <g>
       <use style="stroke:#000000;stroke-width:0.8;" x="134.625717" xlink:href="#md210b38ee8" y="403.189375"/>
      </g>
     </g>
     <g id="text_4">
      <text style="font-family:Arial;font-size:10px;font-style:normal;font-weight:normal;text-anchor:middle;" transform="rotate(-0, 134.625717, 417.347187)" x="134.625717" y="417.347187">14</text>
     </g>
    </g>
    <g id="xtick_5">
     <g id="line2d_42">
      <g>
       <use style="stroke:#000000;stroke-width:0.8;" x="158.786724" xlink:href="#md210b38ee8" y="403.189375"/>
      </g>
     </g>
     <g id="text_5">
      <text style="font-family:Arial;font-size:10px;font-style:normal;font-weight:normal;text-anchor:middle;" transform="rotate(-0, 158.786724, 417.347187)" x="158.786724" y="417.347187">18</text>
     </g>
    </g>
    <g id="xtick_6">
     <g id="line2d_43">
      <g>
       <use style="stroke:#000000;stroke-width:0.8;" x="182.947731" xlink:href="#md210b38ee8" y="403.189375"/>
      </g>
     </g>
     <g id="text_6">
      <text style="font-family:Arial;font-size:10px;font-style:normal;font-weight:normal;text-anchor:middle;" transform="rotate(-0, 182.947731, 417.347187)" x="182.947731" y="417.347187">22</text>
     </g>
    </g>
    <g id="xtick_7">
     <g id="line2d_44">
      <g>
       <use style="stroke:#000000;stroke-width:0.8;" x="207.108738" xlink:href="#md210b38ee8" y="403.189375"/>
      </g>
     </g>
     <g id="text_7">
      <text style="font-family:Arial;font-size:10px;font-style:normal;font-weight:normal;text-anchor:middle;" transform="rotate(-0, 207.108738, 417.347187)" x="207.108738" y="417.347187">2</text>
     </g>
    </g>
    <g id="xtick_8">
     <g id="line2d_45">
      <g>
       <use style="stroke:#000000;stroke-width:0.8;" x="231.269745" xlink:href="#md210b38ee8" y="403.189375"/>
      </g>
     </g>
     <g id="text_8">
      <text style="font-family:Arial;font-size:10px;font-style:normal;font-weight:normal;text-anchor:middle;" transform="rotate(-0, 231.269745, 417.347187)" x="231.269745" y="417.347187">6</text>
     </g>
    </g>
    <g id="xtick_9">
     <g id="line2d_46">
      <g>
       <use style="stroke:#000000;stroke-width:0.8;" x="255.430752" xlink:href="#md210b38ee8" y="403.189375"/>
      </g>
     </g>
     <g id="text_9">
      <text style="font-family:Arial;font-size:10px;font-style:normal;font-weight:normal;text-anchor:middle;" transform="rotate(-0, 255.430752, 417.347187)" x="255.430752" y="417.347187">10</text>
     </g>
    </g>
    <g id="xtick_10">
     <g id="line2d_47">
      <g>
       <use style="stroke:#000000;stroke-width:0.8;" x="279.591759" xlink:href="#md210b38ee8" y="403.189375"/>
      </g>
     </g>
     <g id="text_10">
      <text style="font-family:Arial;font-size:10px;font-style:normal;font-weight:normal;text-anchor:middle;" transform="rotate(-0, 279.591759, 417.347187)" x="279.591759" y="417.347187">14</text>
     </g>
    </g>
    <g id="xtick_11">
     <g id="line2d_48">
      <g>
       <use style="stroke:#000000;stroke-width:0.8;" x="303.752766" xlink:href="#md210b38ee8" y="403.189375"/>
      </g>
     </g>
     <g id="text_11">
      <text style="font-family:Arial;font-size:10px;font-style:normal;font-weight:normal;text-anchor:middle;" transform="rotate(-0, 303.752766, 417.347187)" x="303.752766" y="417.347187">18</text>
     </g>
    </g>
    <g id="xtick_12">
     <g id="line2d_49">
      <g>
       <use style="stroke:#000000;stroke-width:0.8;" x="327.913773" xlink:href="#md210b38ee8" y="403.189375"/>
      </g>
     </g>
     <g id="text_12">
      <text style="font-family:Arial;font-size:10px;font-style:normal;font-weight:normal;text-anchor:middle;" transform="rotate(-0, 327.913773, 417.347187)" x="327.913773" y="417.347187">22</text>
     </g>
    </g>
    <g id="text_13">
     <text style="font-family:Arial;font-size:14px;font-style:normal;font-weight:normal;text-anchor:middle;" transform="rotate(-0, 199.47483, 433.355625)" x="199.47483" y="433.355625">ZT</text>
    </g>
   </g>
   <g id="matplotlib.axis_2">
    <g id="ytick_1">
     <g id="line2d_50">
      <defs>
       <path d="M 0 0 
L -3.5 0 
" id="mf5c62bede0" style="stroke:#000000;stroke-width:0.8;"/>
      </defs>
      <g>
       <use style="stroke:#000000;stroke-width:0.8;" x="44.903438" xlink:href="#mf5c62bede0" y="336.726817"/>
      </g>
     </g>
     <g id="text_14">
      <text style="font-family:Arial;font-size:10px;font-style:normal;font-weight:normal;text-anchor:end;" transform="rotate(-0, 37.903438, 340.305723)" x="37.903438" y="340.305723">0.2</text>
     </g>
    </g>
    <g id="ytick_2">
     <g id="line2d_51">
      <g>
       <use style="stroke:#000000;stroke-width:0.8;" x="44.903438" xlink:href="#mf5c62bede0" y="266.085279"/>
      </g>
     </g>
     <g id="text_15">
      <text style="font-family:Arial;font-size:10px;font-style:normal;font-weight:normal;text-anchor:end;" transform="rotate(-0, 37.903438, 269.664185)" x="37.903438" y="269.664185">0.4</text>
     </g>
    </g>
    <g id="ytick_3">
     <g id="line2d_52">
      <g>
       <use style="stroke:#000000;stroke-width:0.8;" x="44.903438" xlink:href="#mf5c62bede0" y="195.44374"/>
      </g>
     </g>
     <g id="text_16">
      <text style="font-family:Arial;font-size:10px;font-style:normal;font-weight:normal;text-anchor:end;" transform="rotate(-0, 37.903438, 199.022647)" x="37.903438" y="199.022647">0.6</text>
     </g>
    </g>
    <g id="ytick_4">
     <g id="line2d_53">
      <g>
       <use style="stroke:#000000;stroke-width:0.8;" x="44.903438" xlink:href="#mf5c62bede0" y="124.802202"/>
      </g>
     </g>
     <g id="text_17">
      <text style="font-family:Arial;font-size:10px;font-style:normal;font-weight:normal;text-anchor:end;" transform="rotate(-0, 37.903438, 128.381108)" x="37.903438" y="128.381108">0.8</text>
     </g>
    </g>
    <g id="ytick_5">
     <g id="line2d_54">
      <g>
       <use style="stroke:#000000;stroke-width:0.8;" x="44.903438" xlink:href="#mf5c62bede0" y="54.160664"/>
      </g>
     </g>
     <g id="text_18">
      <text style="font-family:Arial;font-size:10px;font-style:normal;font-weight:normal;text-anchor:end;" transform="rotate(-0, 37.903438, 57.73957)" x="37.903438" y="57.73957">1.0</text>
     </g>
    </g>
    <g id="text_19">
     <text style="font-family:Arial;font-size:14px;font-style:normal;font-weight:normal;text-anchor:middle;" transform="rotate(-90, 17.220938, 212.489375)" x="17.220938" y="212.489375">Relative Abundance</text>
    </g>
   </g>
   <g id="PathCollection_2">
    <defs>
     <path d="M 0 3.383948 
C 0.897434 3.383948 1.758231 3.027394 2.392813 2.392813 
C 3.027394 1.758231 3.383948 0.897434 3.383948 0 
C 3.383948 -0.897434 3.027394 -1.758231 2.392813 -2.392813 
C 1.758231 -3.027394 0.897434 -3.383948 0 -3.383948 
C -0.897434 -3.383948 -1.758231 -3.027394 -2.392813 -2.392813 
C -3.027394 -1.758231 -3.383948 -0.897434 -3.383948 0 
C -3.383948 0.897434 -3.027394 1.758231 -2.392813 2.392813 
C -1.758231 3.027394 -0.897434 3.383948 0 3.383948 
z
" id="C1_0_dee992dac5"/>
    </defs>
    <g clip-path="url(#p95d71626c6)">
     <use style="fill:#0000ff;stroke:#0000ff;stroke-width:2.025;" x="62.142695" xlink:href="#C1_0_dee992dac5" y="112.606643"/>
    </g>
    <g clip-path="url(#p95d71626c6)">
     <use style="fill:#0000ff;stroke:#0000ff;stroke-width:2.025;" x="86.303702" xlink:href="#C1_0_dee992dac5" y="236.101009"/>
    </g>
    <g clip-path="url(#p95d71626c6)">
     <use style="fill:#0000ff;stroke:#0000ff;stroke-width:2.025;" x="110.464709" xlink:href="#C1_0_dee992dac5" y="281.120816"/>
    </g>
    <g clip-path="url(#p95d71626c6)">
     <use style="fill:#0000ff;stroke:#0000ff;stroke-width:2.025;" x="134.625717" xlink:href="#C1_0_dee992dac5" y="380.00231"/>
    </g>
    <g clip-path="url(#p95d71626c6)">
     <use style="fill:#0000ff;stroke:#0000ff;stroke-width:2.025;" x="158.786724" xlink:href="#C1_0_dee992dac5" y="188.214469"/>
    </g>
    <g clip-path="url(#p95d71626c6)">
     <use style="fill:#0000ff;stroke:#0000ff;stroke-width:2.025;" x="182.947731" xlink:href="#C1_0_dee992dac5" y="147.234426"/>
    </g>
    <g clip-path="url(#p95d71626c6)">
     <use style="fill:#0000ff;stroke:#0000ff;stroke-width:2.025;" x="207.108738" xlink:href="#C1_0_dee992dac5" y="112.606643"/>
    </g>
    <g clip-path="url(#p95d71626c6)">
     <use style="fill:#0000ff;stroke:#0000ff;stroke-width:2.025;" x="231.269745" xlink:href="#C1_0_dee992dac5" y="236.101009"/>
    </g>
    <g clip-path="url(#p95d71626c6)">
     <use style="fill:#0000ff;stroke:#0000ff;stroke-width:2.025;" x="255.430752" xlink:href="#C1_0_dee992dac5" y="281.120816"/>
    </g>
    <g clip-path="url(#p95d71626c6)">
     <use style="fill:#0000ff;stroke:#0000ff;stroke-width:2.025;" x="279.591759" xlink:href="#C1_0_dee992dac5" y="380.00231"/>
    </g>
    <g clip-path="url(#p95d71626c6)">
     <use style="fill:#0000ff;stroke:#0000ff;stroke-width:2.025;" x="303.752766" xlink:href="#C1_0_dee992dac5" y="188.214469"/>
    </g>
    <g clip-path="url(#p95d71626c6)">
     <use style="fill:#0000ff;stroke:#0000ff;stroke-width:2.025;" x="327.913773" xlink:href="#C1_0_dee992dac5" y="147.234426"/>
    </g>
   </g>
   <g id="line2d_55">
    <path clip-path="url(#p95d71626c6)" d="M 62.142695 112.606643 
L 86.303702 236.101009 
L 110.464709 281.120816 
L 134.625717 380.00231 
L 158.786724 188.214469 
L 182.947731 147.234426 
L 207.108738 112.606643 
L 231.269745 236.101009 
L 255.430752 281.120816 
L 279.591759 380.00231 
L 303.752766 188.214469 
L 327.913773 147.234426 
" style="fill:none;stroke:#0000ff;stroke-linecap:square;stroke-width:2.7;"/>
   </g>
   <g id="line2d_56">
    <path clip-path="url(#p95d71626c6)" d="M 62.142695 183.614448 
L 62.142695 41.598838 
" style="fill:none;stroke:#0000ff;stroke-linecap:square;"/>
   </g>
   <g id="line2d_57">
    <path clip-path="url(#p95d71626c6)" d="M 59.726595 183.614448 
L 64.558796 183.614448 
" style="fill:none;stroke:#0000ff;stroke-linecap:square;"/>
   </g>
   <g id="line2d_58">
    <path clip-path="url(#p95d71626c6)" d="M 59.726595 41.598838 
L 64.558796 41.598838 
" style="fill:none;stroke:#0000ff;stroke-linecap:square;"/>
   </g>
   <g id="line2d_59">
    <path clip-path="url(#p95d71626c6)" d="M 86.303702 323.29362 
L 86.303702 148.908399 
" style="fill:none;stroke:#0000ff;stroke-linecap:square;"/>
   </g>
   <g id="line2d_60">
    <path clip-path="url(#p95d71626c6)" d="M 83.887602 323.29362 
L 88.719803 323.29362 
" style="fill:none;stroke:#0000ff;stroke-linecap:square;"/>
   </g>
   <g id="line2d_61">
    <path clip-path="url(#p95d71626c6)" d="M 83.887602 148.908399 
L 88.719803 148.908399 
" style="fill:none;stroke:#0000ff;stroke-linecap:square;"/>
   </g>
   <g id="line2d_62">
    <path clip-path="url(#p95d71626c6)" d="M 110.464709 329.689815 
L 110.464709 232.551817 
" style="fill:none;stroke:#0000ff;stroke-linecap:square;"/>
   </g>
   <g id="line2d_63">
    <path clip-path="url(#p95d71626c6)" d="M 108.048609 329.689815 
L 112.88081 329.689815 
" style="fill:none;stroke:#0000ff;stroke-linecap:square;"/>
   </g>
   <g id="line2d_64">
    <path clip-path="url(#p95d71626c6)" d="M 108.048609 232.551817 
L 112.88081 232.551817 
" style="fill:none;stroke:#0000ff;stroke-linecap:square;"/>
   </g>
   <g id="line2d_65">
    <path clip-path="url(#p95d71626c6)" d="M 134.625717 385.231564 
L 134.625717 374.15161 
" style="fill:none;stroke:#0000ff;stroke-linecap:square;"/>
   </g>
   <g id="line2d_66">
    <path clip-path="url(#p95d71626c6)" d="M 132.209616 385.231564 
L 137.041817 385.231564 
" style="fill:none;stroke:#0000ff;stroke-linecap:square;"/>
   </g>
   <g id="line2d_67">
    <path clip-path="url(#p95d71626c6)" d="M 132.209616 374.15161 
L 137.041817 374.15161 
" style="fill:none;stroke:#0000ff;stroke-linecap:square;"/>
   </g>
   <g id="line2d_68">
    <path clip-path="url(#p95d71626c6)" d="M 158.786724 300.282843 
L 158.786724 76.146095 
" style="fill:none;stroke:#0000ff;stroke-linecap:square;"/>
   </g>
   <g id="line2d_69">
    <path clip-path="url(#p95d71626c6)" d="M 156.370623 300.282843 
L 161.202824 300.282843 
" style="fill:none;stroke:#0000ff;stroke-linecap:square;"/>
   </g>
   <g id="line2d_70">
    <path clip-path="url(#p95d71626c6)" d="M 156.370623 76.146095 
L 161.202824 76.146095 
" style="fill:none;stroke:#0000ff;stroke-linecap:square;"/>
   </g>
   <g id="line2d_71">
    <path clip-path="url(#p95d71626c6)" d="M 182.947731 189.541647 
L 182.947731 104.927205 
" style="fill:none;stroke:#0000ff;stroke-linecap:square;"/>
   </g>
   <g id="line2d_72">
    <path clip-path="url(#p95d71626c6)" d="M 180.53163 189.541647 
L 185.363831 189.541647 
" style="fill:none;stroke:#0000ff;stroke-linecap:square;"/>
   </g>
   <g id="line2d_73">
    <path clip-path="url(#p95d71626c6)" d="M 180.53163 104.927205 
L 185.363831 104.927205 
" style="fill:none;stroke:#0000ff;stroke-linecap:square;"/>
   </g>
   <g id="line2d_74">
    <path clip-path="url(#p95d71626c6)" d="M 207.108738 183.614448 
L 207.108738 39.125739 
" style="fill:none;stroke:#0000ff;stroke-linecap:square;"/>
   </g>
   <g id="line2d_75">
    <path clip-path="url(#p95d71626c6)" d="M 204.692637 183.614448 
L 209.524839 183.614448 
" style="fill:none;stroke:#0000ff;stroke-linecap:square;"/>
   </g>
   <g id="line2d_76">
    <path clip-path="url(#p95d71626c6)" d="M 204.692637 39.125739 
L 209.524839 39.125739 
" style="fill:none;stroke:#0000ff;stroke-linecap:square;"/>
   </g>
   <g id="line2d_77">
    <path clip-path="url(#p95d71626c6)" d="M 231.269745 323.29362 
L 231.269745 148.908399 
" style="fill:none;stroke:#0000ff;stroke-linecap:square;"/>
   </g>
   <g id="line2d_78">
    <path clip-path="url(#p95d71626c6)" d="M 228.853644 323.29362 
L 233.685846 323.29362 
" style="fill:none;stroke:#0000ff;stroke-linecap:square;"/>
   </g>
   <g id="line2d_79">
    <path clip-path="url(#p95d71626c6)" d="M 228.853644 148.908399 
L 233.685846 148.908399 
" style="fill:none;stroke:#0000ff;stroke-linecap:square;"/>
   </g>
   <g id="line2d_80">
    <path clip-path="url(#p95d71626c6)" d="M 255.430752 329.689815 
L 255.430752 232.551817 
" style="fill:none;stroke:#0000ff;stroke-linecap:square;"/>
   </g>
   <g id="line2d_81">
    <path clip-path="url(#p95d71626c6)" d="M 253.014651 329.689815 
L 257.846853 329.689815 
" style="fill:none;stroke:#0000ff;stroke-linecap:square;"/>
   </g>
   <g id="line2d_82">
    <path clip-path="url(#p95d71626c6)" d="M 253.014651 232.551817 
L 257.846853 232.551817 
" style="fill:none;stroke:#0000ff;stroke-linecap:square;"/>
   </g>
   <g id="line2d_83">
    <path clip-path="url(#p95d71626c6)" d="M 279.591759 385.853011 
L 279.591759 375.498939 
" style="fill:none;stroke:#0000ff;stroke-linecap:square;"/>
   </g>
   <g id="line2d_84">
    <path clip-path="url(#p95d71626c6)" d="M 277.175658 385.853011 
L 282.00786 385.853011 
" style="fill:none;stroke:#0000ff;stroke-linecap:square;"/>
   </g>
   <g id="line2d_85">
    <path clip-path="url(#p95d71626c6)" d="M 277.175658 375.498939 
L 282.00786 375.498939 
" style="fill:none;stroke:#0000ff;stroke-linecap:square;"/>
   </g>
   <g id="line2d_86">
    <path clip-path="url(#p95d71626c6)" d="M 303.752766 300.282843 
L 303.752766 76.146095 
" style="fill:none;stroke:#0000ff;stroke-linecap:square;"/>
   </g>
   <g id="line2d_87">
    <path clip-path="url(#p95d71626c6)" d="M 301.336666 300.282843 
L 306.168867 300.282843 
" style="fill:none;stroke:#0000ff;stroke-linecap:square;"/>
   </g>
   <g id="line2d_88">
    <path clip-path="url(#p95d71626c6)" d="M 301.336666 76.146095 
L 306.168867 76.146095 
" style="fill:none;stroke:#0000ff;stroke-linecap:square;"/>
   </g>
   <g id="line2d_89">
    <path clip-path="url(#p95d71626c6)" d="M 327.913773 189.541647 
L 327.913773 104.927205 
" style="fill:none;stroke:#0000ff;stroke-linecap:square;"/>
   </g>
   <g id="line2d_90">
    <path clip-path="url(#p95d71626c6)" d="M 325.497673 189.541647 
L 330.329874 189.541647 
" style="fill:none;stroke:#0000ff;stroke-linecap:square;"/>
   </g>
   <g id="line2d_91">
    <path clip-path="url(#p95d71626c6)" d="M 325.497673 104.927205 
L 330.329874 104.927205 
" style="fill:none;stroke:#0000ff;stroke-linecap:square;"/>
   </g>
   <g id="line2d_92">
    <path clip-path="url(#p95d71626c6)" d="M 195.028234 403.189375 
L 195.028234 21.789375 
" style="fill:none;stroke:#000000;stroke-dasharray:5.55,2.4;stroke-dashoffset:0;stroke-width:1.5;"/>
   </g>
   <g id="patch_5">
    <path d="M 44.903438 403.189375 
L 44.903438 21.789375 
" style="fill:none;stroke:#000000;stroke-linecap:square;stroke-linejoin:miter;stroke-width:0.8;"/>
   </g>
   <g id="patch_6">
    <path d="M 44.903438 403.189375 
L 354.046222 403.189375 
" style="fill:none;stroke:#000000;stroke-linecap:square;stroke-linejoin:miter;stroke-width:0.8;"/>
   </g>
   <g id="text_20">
    <text style="font-family:Arial;font-size:12px;font-style:normal;font-weight:normal;text-anchor:middle;" transform="rotate(-0, 199.47483, 15.789375)" x="199.47483" y="15.789375">Urobilin</text>
   </g>
  </g>
  <g id="legend_1">
   <g id="text_21">
    <text style="font-family:Arial;font-size:10px;font-style:normal;font-weight:normal;text-anchor:start;" transform="rotate(-0, 359.810409, 210.050313)" x="359.810409" y="210.050313">exposure_type</text>
   </g>
   <g id="PathCollection_3">
    <path d="M 379.997128 225.071761 
C 380.894561 225.071761 381.755359 224.715207 382.389941 224.080625 
C 383.024522 223.446044 383.381076 222.585246 383.381076 221.687813 
C 383.381076 220.790379 383.024522 219.929581 382.389941 219.295 
C 381.755359 218.660418 380.894561 218.303864 379.997128 218.303864 
C 379.099694 218.303864 378.238897 218.660418 377.604315 219.295 
C 376.969734 219.929581 376.61318 220.790379 376.61318 221.687813 
C 376.61318 222.585246 376.969734 223.446044 377.604315 224.080625 
C 378.238897 224.715207 379.099694 225.071761 379.997128 225.071761 
z
" style="fill:#ff0000;stroke:#ff0000;stroke-width:2.025;"/>
   </g>
   <g id="text_22">
    <text style="font-family:Arial;font-size:10px;font-style:normal;font-weight:normal;text-anchor:start;" transform="rotate(-0, 397.997128, 224.312813)" x="397.997128" y="224.312813">Air</text>
   </g>
   <g id="PathCollection_4">
    <path d="M 379.997128 239.217073 
C 380.894561 239.217073 381.755359 238.860519 382.389941 238.225938 
C 383.024522 237.591356 383.381076 236.730559 383.381076 235.833125 
C 383.381076 234.935691 383.024522 234.074894 382.389941 233.440312 
C 381.755359 232.805731 380.894561 232.449177 379.997128 232.449177 
C 379.099694 232.449177 378.238897 232.805731 377.604315 233.440312 
C 376.969734 234.074894 376.61318 234.935691 376.61318 235.833125 
C 376.61318 236.730559 376.969734 237.591356 377.604315 238.225938 
C 378.238897 238.860519 379.099694 239.217073 379.997128 239.217073 
z
" style="fill:#0000ff;stroke:#0000ff;stroke-width:2.025;"/>
   </g>
   <g id="text_23">
    <text style="font-family:Arial;font-size:10px;font-style:normal;font-weight:normal;text-anchor:start;" transform="rotate(-0, 397.997128, 238.458125)" x="397.997128" y="238.458125">IHC</text>
   </g>
  </g>
 </g>
 <defs>
  <clipPath id="p95d71626c6">
   <rect height="381.4" width="309.142784" x="44.903438" y="21.789375"/>
  </clipPath>
 </defs>
</svg>
