<?xml version="1.0" encoding="utf-8" standalone="no"?>
<!DOCTYPE svg PUBLIC "-//W3C//DTD SVG 1.1//EN"
  "http://www.w3.org/Graphics/SVG/1.1/DTD/svg11.dtd">
<!-- Created with matplotlib (https://matplotlib.org/) -->
<svg height="287.555pt" version="1.1" viewBox="0 0 462.42625 287.555" width="462.42625pt" xmlns="http://www.w3.org/2000/svg" xmlns:xlink="http://www.w3.org/1999/xlink">
 <defs>
  <style type="text/css">
*{stroke-linecap:butt;stroke-linejoin:round;}
  </style>
 </defs>
 <g id="figure_1">
  <g id="patch_1">
   <path d="M -0 287.555 
L 462.42625 287.555 
L 462.42625 0 
L -0 0 
z
" style="fill:#ffffff;"/>
  </g>
  <g id="axes_1">
   <g id="patch_2">
    <path d="M 50.464375 244.955625 
L 385.264375 244.955625 
L 385.264375 27.515625 
L 50.464375 27.515625 
z
" style="fill:#ffffff;"/>
   </g>
   <g id="patch_3">
    <path clip-path="url(#p5d7df0f049)" d="M 67.873975 189.047375 
L 133.494775 189.047375 
L 133.494775 143.636553 
L 67.873975 143.636553 
L 67.873975 189.047375 
z
" style="fill:#df2020;stroke:#4c4c4c;stroke-linejoin:miter;stroke-width:1.5;"/>
   </g>
   <g id="patch_4">
    <path clip-path="url(#p5d7df0f049)" d="M 134.833975 176.967967 
L 200.454775 176.967967 
L 200.454775 137.370763 
L 134.833975 137.370763 
L 134.833975 176.967967 
z
" style="fill:#2020df;stroke:#4c4c4c;stroke-linejoin:miter;stroke-width:1.5;"/>
   </g>
   <g id="patch_5">
    <path clip-path="url(#p5d7df0f049)" d="M 235.273975 213.012405 
L 300.894775 213.012405 
L 300.894775 183.104566 
L 235.273975 183.104566 
L 235.273975 213.012405 
z
" style="fill:#df2020;stroke:#4c4c4c;stroke-linejoin:miter;stroke-width:1.5;"/>
   </g>
   <g id="patch_6">
    <path clip-path="url(#p5d7df0f049)" d="M 302.233975 199.188911 
L 367.854775 199.188911 
L 367.854775 166.018985 
L 302.233975 166.018985 
L 302.233975 199.188911 
z
" style="fill:#2020df;stroke:#4c4c4c;stroke-linejoin:miter;stroke-width:1.5;"/>
   </g>
   <g id="PathCollection_1"/>
   <g id="PathCollection_2"/>
   <g id="patch_7">
    <path clip-path="url(#p5d7df0f049)" d="M 134.164375 280.902553 
L 134.164375 280.902553 
L 134.164375 280.902553 
L 134.164375 280.902553 
z
" style="fill:#df2020;stroke:#4c4c4c;stroke-linejoin:miter;stroke-width:0.75;"/>
   </g>
   <g id="patch_8">
    <path clip-path="url(#p5d7df0f049)" d="M 134.164375 280.902553 
L 134.164375 280.902553 
L 134.164375 280.902553 
L 134.164375 280.902553 
z
" style="fill:#2020df;stroke:#4c4c4c;stroke-linejoin:miter;stroke-width:0.75;"/>
   </g>
   <g id="matplotlib.axis_1">
    <g id="xtick_1">
     <g id="line2d_1">
      <defs>
       <path d="M 0 0 
L 0 3.5 
" id="ma2d505a62f" style="stroke:#000000;stroke-width:0.8;"/>
      </defs>
      <g>
       <use style="stroke:#000000;stroke-width:0.8;" x="134.164375" xlink:href="#ma2d505a62f" y="244.955625"/>
      </g>
     </g>
     <g id="text_1">
      <text style="font-family:Arial;font-size:12px;font-style:normal;font-weight:normal;text-anchor:middle;" transform="rotate(-0, 134.164375, 260.69125)" x="134.164375" y="260.69125">Light/Inactive</text>
     </g>
    </g>
    <g id="xtick_2">
     <g id="line2d_2">
      <g>
       <use style="stroke:#000000;stroke-width:0.8;" x="301.564375" xlink:href="#ma2d505a62f" y="244.955625"/>
      </g>
     </g>
     <g id="text_2">
      <text style="font-family:Arial;font-size:12px;font-style:normal;font-weight:normal;text-anchor:middle;" transform="rotate(-0, 301.564375, 260.69125)" x="301.564375" y="260.69125">Night/Active</text>
     </g>
    </g>
    <g id="text_3">
     <text style="font-family:Arial;font-size:14px;font-style:normal;font-weight:normal;text-anchor:middle;" transform="rotate(-0, 217.864375, 277.408437)" x="217.864375" y="277.408437">Phase of Cycle</text>
    </g>
   </g>
   <g id="matplotlib.axis_2">
    <g id="ytick_1">
     <g id="line2d_3">
      <defs>
       <path d="M 0 0 
L -3.5 0 
" id="m8e4b216e42" style="stroke:#000000;stroke-width:0.8;"/>
      </defs>
      <g>
       <use style="stroke:#000000;stroke-width:0.8;" x="50.464375" xlink:href="#m8e4b216e42" y="218.890619"/>
      </g>
     </g>
     <g id="text_4">
      <text style="font-family:Arial;font-size:10px;font-style:normal;font-weight:normal;text-anchor:end;" transform="rotate(-0, 43.464375, 222.469525)" x="43.464375" y="222.469525">0.04</text>
     </g>
    </g>
    <g id="ytick_2">
     <g id="line2d_4">
      <g>
       <use style="stroke:#000000;stroke-width:0.8;" x="50.464375" xlink:href="#m8e4b216e42" y="187.884652"/>
      </g>
     </g>
     <g id="text_5">
      <text style="font-family:Arial;font-size:10px;font-style:normal;font-weight:normal;text-anchor:end;" transform="rotate(-0, 43.464375, 191.463558)" x="43.464375" y="191.463558">0.06</text>
     </g>
    </g>
    <g id="ytick_3">
     <g id="line2d_5">
      <g>
       <use style="stroke:#000000;stroke-width:0.8;" x="50.464375" xlink:href="#m8e4b216e42" y="156.878684"/>
      </g>
     </g>
     <g id="text_6">
      <text style="font-family:Arial;font-size:10px;font-style:normal;font-weight:normal;text-anchor:end;" transform="rotate(-0, 43.464375, 160.457591)" x="43.464375" y="160.457591">0.08</text>
     </g>
    </g>
    <g id="ytick_4">
     <g id="line2d_6">
      <g>
       <use style="stroke:#000000;stroke-width:0.8;" x="50.464375" xlink:href="#m8e4b216e42" y="125.872717"/>
      </g>
     </g>
     <g id="text_7">
      <text style="font-family:Arial;font-size:10px;font-style:normal;font-weight:normal;text-anchor:end;" transform="rotate(-0, 43.464375, 129.451623)" x="43.464375" y="129.451623">0.10</text>
     </g>
    </g>
    <g id="ytick_5">
     <g id="line2d_7">
      <g>
       <use style="stroke:#000000;stroke-width:0.8;" x="50.464375" xlink:href="#m8e4b216e42" y="94.86675"/>
      </g>
     </g>
     <g id="text_8">
      <text style="font-family:Arial;font-size:10px;font-style:normal;font-weight:normal;text-anchor:end;" transform="rotate(-0, 43.464375, 98.445656)" x="43.464375" y="98.445656">0.12</text>
     </g>
    </g>
    <g id="ytick_6">
     <g id="line2d_8">
      <g>
       <use style="stroke:#000000;stroke-width:0.8;" x="50.464375" xlink:href="#m8e4b216e42" y="63.860783"/>
      </g>
     </g>
     <g id="text_9">
      <text style="font-family:Arial;font-size:10px;font-style:normal;font-weight:normal;text-anchor:end;" transform="rotate(-0, 43.464375, 67.439689)" x="43.464375" y="67.439689">0.14</text>
     </g>
    </g>
    <g id="ytick_7">
     <g id="line2d_9">
      <g>
       <use style="stroke:#000000;stroke-width:0.8;" x="50.464375" xlink:href="#m8e4b216e42" y="32.854816"/>
      </g>
     </g>
     <g id="text_10">
      <text style="font-family:Arial;font-size:10px;font-style:normal;font-weight:normal;text-anchor:end;" transform="rotate(-0, 43.464375, 36.433722)" x="43.464375" y="36.433722">0.16</text>
     </g>
    </g>
    <g id="text_11">
     <text style="font-family:Arial;font-size:14px;font-style:normal;font-weight:normal;text-anchor:middle;" transform="rotate(-90, 17.220938, 136.235625)" x="17.220938" y="136.235625">Relative Abundance</text>
    </g>
   </g>
   <g id="line2d_10">
    <path clip-path="url(#p5d7df0f049)" d="M 100.684375 189.047375 
L 100.684375 222.507981 
" style="fill:none;stroke:#4c4c4c;stroke-linecap:square;stroke-width:1.5;"/>
   </g>
   <g id="line2d_11">
    <path clip-path="url(#p5d7df0f049)" d="M 100.684375 143.636553 
L 100.684375 121.092631 
" style="fill:none;stroke:#4c4c4c;stroke-linecap:square;stroke-width:1.5;"/>
   </g>
   <g id="line2d_12">
    <path clip-path="url(#p5d7df0f049)" d="M 84.279175 222.507981 
L 117.089575 222.507981 
" style="fill:none;stroke:#4c4c4c;stroke-linecap:square;stroke-width:1.5;"/>
   </g>
   <g id="line2d_13">
    <path clip-path="url(#p5d7df0f049)" d="M 84.279175 121.092631 
L 117.089575 121.092631 
" style="fill:none;stroke:#4c4c4c;stroke-linecap:square;stroke-width:1.5;"/>
   </g>
   <g id="line2d_14"/>
   <g id="line2d_15">
    <path clip-path="url(#p5d7df0f049)" d="M 167.644375 176.967967 
L 167.644375 196.798867 
" style="fill:none;stroke:#4c4c4c;stroke-linecap:square;stroke-width:1.5;"/>
   </g>
   <g id="line2d_16">
    <path clip-path="url(#p5d7df0f049)" d="M 167.644375 137.370763 
L 167.644375 96.287857 
" style="fill:none;stroke:#4c4c4c;stroke-linecap:square;stroke-width:1.5;"/>
   </g>
   <g id="line2d_17">
    <path clip-path="url(#p5d7df0f049)" d="M 151.239175 196.798867 
L 184.049575 196.798867 
" style="fill:none;stroke:#4c4c4c;stroke-linecap:square;stroke-width:1.5;"/>
   </g>
   <g id="line2d_18">
    <path clip-path="url(#p5d7df0f049)" d="M 151.239175 96.287857 
L 184.049575 96.287857 
" style="fill:none;stroke:#4c4c4c;stroke-linecap:square;stroke-width:1.5;"/>
   </g>
   <g id="line2d_19"/>
   <g id="line2d_20">
    <path clip-path="url(#p5d7df0f049)" d="M 268.084375 213.012405 
L 268.084375 234.135219 
" style="fill:none;stroke:#4c4c4c;stroke-linecap:square;stroke-width:1.5;"/>
   </g>
   <g id="line2d_21">
    <path clip-path="url(#p5d7df0f049)" d="M 268.084375 183.104566 
L 268.084375 162.563112 
" style="fill:none;stroke:#4c4c4c;stroke-linecap:square;stroke-width:1.5;"/>
   </g>
   <g id="line2d_22">
    <path clip-path="url(#p5d7df0f049)" d="M 251.679175 234.135219 
L 284.489575 234.135219 
" style="fill:none;stroke:#4c4c4c;stroke-linecap:square;stroke-width:1.5;"/>
   </g>
   <g id="line2d_23">
    <path clip-path="url(#p5d7df0f049)" d="M 251.679175 162.563112 
L 284.489575 162.563112 
" style="fill:none;stroke:#4c4c4c;stroke-linecap:square;stroke-width:1.5;"/>
   </g>
   <g id="line2d_24"/>
   <g id="line2d_25">
    <path clip-path="url(#p5d7df0f049)" d="M 335.044375 199.188911 
L 335.044375 212.818617 
" style="fill:none;stroke:#4c4c4c;stroke-linecap:square;stroke-width:1.5;"/>
   </g>
   <g id="line2d_26">
    <path clip-path="url(#p5d7df0f049)" d="M 335.044375 166.018985 
L 335.044375 120.705057 
" style="fill:none;stroke:#4c4c4c;stroke-linecap:square;stroke-width:1.5;"/>
   </g>
   <g id="line2d_27">
    <path clip-path="url(#p5d7df0f049)" d="M 318.639175 212.818617 
L 351.449575 212.818617 
" style="fill:none;stroke:#4c4c4c;stroke-linecap:square;stroke-width:1.5;"/>
   </g>
   <g id="line2d_28">
    <path clip-path="url(#p5d7df0f049)" d="M 318.639175 120.705057 
L 351.449575 120.705057 
" style="fill:none;stroke:#4c4c4c;stroke-linecap:square;stroke-width:1.5;"/>
   </g>
   <g id="line2d_29"/>
   <g id="line2d_30">
    <path clip-path="url(#p5d7df0f049)" d="M 268.084375 111.141058 
L 268.084375 107.953058 
L 335.044375 107.953058 
L 335.044375 111.141058 
" style="fill:none;stroke:#333333;stroke-linecap:square;stroke-width:1.5;"/>
   </g>
   <g id="line2d_31">
    <path clip-path="url(#p5d7df0f049)" d="M 100.684375 86.723859 
L 100.684375 83.535859 
L 167.644375 83.535859 
L 167.644375 86.723859 
" style="fill:none;stroke:#333333;stroke-linecap:square;stroke-width:1.5;"/>
   </g>
   <g id="line2d_32">
    <path clip-path="url(#p5d7df0f049)" d="M 100.684375 67.766387 
L 100.684375 64.578387 
L 268.084375 64.578387 
L 268.084375 67.766387 
" style="fill:none;stroke:#333333;stroke-linecap:square;stroke-width:1.5;"/>
   </g>
   <g id="line2d_33">
    <path clip-path="url(#p5d7df0f049)" d="M 167.644375 47.849882 
L 167.644375 44.661883 
L 335.044375 44.661883 
L 335.044375 47.849882 
" style="fill:none;stroke:#333333;stroke-linecap:square;stroke-width:1.5;"/>
   </g>
   <g id="line2d_34">
    <path clip-path="url(#p5d7df0f049)" d="M 67.873975 161.335792 
L 133.494775 161.335792 
" style="fill:none;stroke:#4c4c4c;stroke-linecap:square;stroke-width:1.5;"/>
   </g>
   <g id="line2d_35">
    <path clip-path="url(#p5d7df0f049)" d="M 134.833975 149.127193 
L 200.454775 149.127193 
" style="fill:none;stroke:#4c4c4c;stroke-linecap:square;stroke-width:1.5;"/>
   </g>
   <g id="line2d_36">
    <path clip-path="url(#p5d7df0f049)" d="M 235.273975 190.33929 
L 300.894775 190.33929 
" style="fill:none;stroke:#4c4c4c;stroke-linecap:square;stroke-width:1.5;"/>
   </g>
   <g id="line2d_37">
    <path clip-path="url(#p5d7df0f049)" d="M 302.233975 177.097159 
L 367.854775 177.097159 
" style="fill:none;stroke:#4c4c4c;stroke-linecap:square;stroke-width:1.5;"/>
   </g>
   <g id="patch_9">
    <path d="M 50.464375 244.955625 
L 50.464375 27.515625 
" style="fill:none;stroke:#000000;stroke-linecap:square;stroke-linejoin:miter;stroke-width:0.8;"/>
   </g>
   <g id="patch_10">
    <path d="M 385.264375 244.955625 
L 385.264375 27.515625 
" style="fill:none;stroke:#000000;stroke-linecap:square;stroke-linejoin:miter;stroke-width:0.8;"/>
   </g>
   <g id="patch_11">
    <path d="M 50.464375 244.955625 
L 385.264375 244.955625 
" style="fill:none;stroke:#000000;stroke-linecap:square;stroke-linejoin:miter;stroke-width:0.8;"/>
   </g>
   <g id="patch_12">
    <path d="M 50.464375 27.515625 
L 385.264375 27.515625 
" style="fill:none;stroke:#000000;stroke-linecap:square;stroke-linejoin:miter;stroke-width:0.8;"/>
   </g>
   <g id="PathCollection_3">
    <defs>
     <path d="M 0 5 
C 1.326016 5 2.597899 4.473168 3.535534 3.535534 
C 4.473168 2.597899 5 1.326016 5 0 
C 5 -1.326016 4.473168 -2.597899 3.535534 -3.535534 
C 2.597899 -4.473168 1.326016 -5 0 -5 
C -1.326016 -5 -2.597899 -4.473168 -3.535534 -3.535534 
C -4.473168 -2.597899 -5 -1.326016 -5 0 
C -5 1.326016 -4.473168 2.597899 -3.535534 3.535534 
C -2.597899 4.473168 -1.326016 5 0 5 
z
" id="C0_0_6fe4879bf9"/>
    </defs>
    <g clip-path="url(#p5d7df0f049)">
     <use style="fill:#ff0000;stroke:#000000;" x="100.684375" xlink:href="#C0_0_6fe4879bf9" y="222.507981"/>
    </g>
    <g clip-path="url(#p5d7df0f049)">
     <use style="fill:#ff0000;stroke:#000000;" x="100.684375" xlink:href="#C0_0_6fe4879bf9" y="213.852149"/>
    </g>
    <g clip-path="url(#p5d7df0f049)">
     <use style="fill:#ff0000;stroke:#000000;" x="100.684375" xlink:href="#C0_0_6fe4879bf9" y="197.961591"/>
    </g>
    <g clip-path="url(#p5d7df0f049)">
     <use style="fill:#ff0000;stroke:#000000;" x="100.684375" xlink:href="#C0_0_6fe4879bf9" y="186.07597"/>
    </g>
    <g clip-path="url(#p5d7df0f049)">
     <use style="fill:#ff0000;stroke:#000000;" x="90.767746" xlink:href="#C0_0_6fe4879bf9" y="181.941842"/>
    </g>
    <g clip-path="url(#p5d7df0f049)">
     <use style="fill:#ff0000;stroke:#000000;" x="100.684375" xlink:href="#C0_0_6fe4879bf9" y="173.802775"/>
    </g>
    <g clip-path="url(#p5d7df0f049)">
     <use style="fill:#ff0000;stroke:#000000;" x="100.684375" xlink:href="#C0_0_6fe4879bf9" y="148.868809"/>
    </g>
    <g clip-path="url(#p5d7df0f049)">
     <use style="fill:#ff0000;stroke:#000000;" x="90.101287" xlink:href="#C0_0_6fe4879bf9" y="145.639021"/>
    </g>
    <g clip-path="url(#p5d7df0f049)">
     <use style="fill:#ff0000;stroke:#000000;" x="111.184635" xlink:href="#C0_0_6fe4879bf9" y="145.50983"/>
    </g>
    <g clip-path="url(#p5d7df0f049)">
     <use style="fill:#ff0000;stroke:#000000;" x="100.684375" xlink:href="#C0_0_6fe4879bf9" y="138.016721"/>
    </g>
    <g clip-path="url(#p5d7df0f049)">
     <use style="fill:#ff0000;stroke:#000000;" x="100.684375" xlink:href="#C0_0_6fe4879bf9" y="129.619272"/>
    </g>
    <g clip-path="url(#p5d7df0f049)">
     <use style="fill:#ff0000;stroke:#000000;" x="100.684375" xlink:href="#C0_0_6fe4879bf9" y="121.092631"/>
    </g>
   </g>
   <g id="PathCollection_4">
    <defs>
     <path d="M 0 5 
C 1.326016 5 2.597899 4.473168 3.535534 3.535534 
C 4.473168 2.597899 5 1.326016 5 0 
C 5 -1.326016 4.473168 -2.597899 3.535534 -3.535534 
C 2.597899 -4.473168 1.326016 -5 0 -5 
C -1.326016 -5 -2.597899 -4.473168 -3.535534 -3.535534 
C -4.473168 -2.597899 -5 -1.326016 -5 0 
C -5 1.326016 -4.473168 2.597899 -3.535534 3.535534 
C -2.597899 4.473168 -1.326016 5 0 5 
z
" id="C1_0_206587177e"/>
    </defs>
    <g clip-path="url(#p5d7df0f049)">
     <use style="fill:#0000ff;stroke:#000000;" x="167.644375" xlink:href="#C1_0_206587177e" y="196.798867"/>
    </g>
    <g clip-path="url(#p5d7df0f049)">
     <use style="fill:#0000ff;stroke:#000000;" x="167.644375" xlink:href="#C1_0_206587177e" y="178.712053"/>
    </g>
    <g clip-path="url(#p5d7df0f049)">
     <use style="fill:#0000ff;stroke:#000000;" x="156.107723" xlink:href="#C1_0_206587177e" y="178.324478"/>
    </g>
    <g clip-path="url(#p5d7df0f049)">
     <use style="fill:#0000ff;stroke:#000000;" x="178.306437" xlink:href="#C1_0_206587177e" y="175.611456"/>
    </g>
    <g clip-path="url(#p5d7df0f049)">
     <use style="fill:#0000ff;stroke:#000000;" x="167.644375" xlink:href="#C1_0_206587177e" y="160.237665"/>
    </g>
    <g clip-path="url(#p5d7df0f049)">
     <use style="fill:#0000ff;stroke:#000000;" x="167.644375" xlink:href="#C1_0_206587177e" y="149.127193"/>
    </g>
    <g clip-path="url(#p5d7df0f049)">
     <use style="fill:#0000ff;stroke:#000000;" x="158.777776" xlink:href="#C1_0_206587177e" y="143.959532"/>
    </g>
    <g clip-path="url(#p5d7df0f049)">
     <use style="fill:#0000ff;stroke:#000000;" x="167.644375" xlink:href="#C1_0_206587177e" y="138.79187"/>
    </g>
    <g clip-path="url(#p5d7df0f049)">
     <use style="fill:#0000ff;stroke:#000000;" x="178.453157" xlink:href="#C1_0_206587177e" y="135.949657"/>
    </g>
    <g clip-path="url(#p5d7df0f049)">
     <use style="fill:#0000ff;stroke:#000000;" x="167.644375" xlink:href="#C1_0_206587177e" y="112.307607"/>
    </g>
    <g clip-path="url(#p5d7df0f049)">
     <use style="fill:#0000ff;stroke:#000000;" x="167.644375" xlink:href="#C1_0_206587177e" y="96.287857"/>
    </g>
   </g>
   <g id="PathCollection_5">
    <defs>
     <path d="M 0 5 
C 1.326016 5 2.597899 4.473168 3.535534 3.535534 
C 4.473168 2.597899 5 1.326016 5 0 
C 5 -1.326016 4.473168 -2.597899 3.535534 -3.535534 
C 2.597899 -4.473168 1.326016 -5 0 -5 
C -1.326016 -5 -2.597899 -4.473168 -3.535534 -3.535534 
C -4.473168 -2.597899 -5 -1.326016 -5 0 
C -5 1.326016 -4.473168 2.597899 -3.535534 3.535534 
C -2.597899 4.473168 -1.326016 5 0 5 
z
" id="C2_0_32a2005cc7"/>
    </defs>
    <g clip-path="url(#p5d7df0f049)">
     <use style="fill:#ff0000;stroke:#000000;" x="268.084375" xlink:href="#C2_0_32a2005cc7" y="234.135219"/>
    </g>
    <g clip-path="url(#p5d7df0f049)">
     <use style="fill:#ff0000;stroke:#000000;" x="268.084375" xlink:href="#C2_0_32a2005cc7" y="222.637174"/>
    </g>
    <g clip-path="url(#p5d7df0f049)">
     <use style="fill:#ff0000;stroke:#000000;" x="256.872853" xlink:href="#C2_0_32a2005cc7" y="220.699301"/>
    </g>
    <g clip-path="url(#p5d7df0f049)">
     <use style="fill:#ff0000;stroke:#000000;" x="268.084375" xlink:href="#C2_0_32a2005cc7" y="205.325508"/>
    </g>
    <g clip-path="url(#p5d7df0f049)">
     <use style="fill:#ff0000;stroke:#000000;" x="268.084375" xlink:href="#C2_0_32a2005cc7" y="194.731803"/>
    </g>
    <g clip-path="url(#p5d7df0f049)">
     <use style="fill:#ff0000;stroke:#000000;" x="258.398321" xlink:href="#C2_0_32a2005cc7" y="190.33929"/>
    </g>
    <g clip-path="url(#p5d7df0f049)">
     <use style="fill:#ff0000;stroke:#000000;" x="277.386325" xlink:href="#C2_0_32a2005cc7" y="189.951716"/>
    </g>
    <g clip-path="url(#p5d7df0f049)">
     <use style="fill:#ff0000;stroke:#000000;" x="268.084375" xlink:href="#C2_0_32a2005cc7" y="183.879715"/>
    </g>
    <g clip-path="url(#p5d7df0f049)">
     <use style="fill:#ff0000;stroke:#000000;" x="257.064401" xlink:href="#C2_0_32a2005cc7" y="182.329416"/>
    </g>
    <g clip-path="url(#p5d7df0f049)">
     <use style="fill:#ff0000;stroke:#000000;" x="268.084375" xlink:href="#C2_0_32a2005cc7" y="172.252477"/>
    </g>
    <g clip-path="url(#p5d7df0f049)">
     <use style="fill:#ff0000;stroke:#000000;" x="268.084375" xlink:href="#C2_0_32a2005cc7" y="162.563112"/>
    </g>
   </g>
   <g id="PathCollection_6">
    <defs>
     <path d="M 0 5 
C 1.326016 5 2.597899 4.473168 3.535534 3.535534 
C 4.473168 2.597899 5 1.326016 5 0 
C 5 -1.326016 4.473168 -2.597899 3.535534 -3.535534 
C 2.597899 -4.473168 1.326016 -5 0 -5 
C -1.326016 -5 -2.597899 -4.473168 -3.535534 -3.535534 
C -4.473168 -2.597899 -5 -1.326016 -5 0 
C -5 1.326016 -4.473168 2.597899 -3.535534 3.535534 
C -2.597899 4.473168 -1.326016 5 0 5 
z
" id="C3_0_61b8d10289"/>
    </defs>
    <g clip-path="url(#p5d7df0f049)">
     <use style="fill:#0000ff;stroke:#000000;" x="335.044375" xlink:href="#C3_0_61b8d10289" y="212.818617"/>
    </g>
    <g clip-path="url(#p5d7df0f049)">
     <use style="fill:#0000ff;stroke:#000000;" x="324.307107" xlink:href="#C3_0_61b8d10289" y="209.847212"/>
    </g>
    <g clip-path="url(#p5d7df0f049)">
     <use style="fill:#0000ff;stroke:#000000;" x="335.044375" xlink:href="#C3_0_61b8d10289" y="201.708146"/>
    </g>
    <g clip-path="url(#p5d7df0f049)">
     <use style="fill:#0000ff;stroke:#000000;" x="324.544116" xlink:href="#C3_0_61b8d10289" y="198.349166"/>
    </g>
    <g clip-path="url(#p5d7df0f049)">
     <use style="fill:#0000ff;stroke:#000000;" x="335.044375" xlink:href="#C3_0_61b8d10289" y="190.33929"/>
    </g>
    <g clip-path="url(#p5d7df0f049)">
     <use style="fill:#0000ff;stroke:#000000;" x="335.044375" xlink:href="#C3_0_61b8d10289" y="180.908309"/>
    </g>
    <g clip-path="url(#p5d7df0f049)">
     <use style="fill:#0000ff;stroke:#000000;" x="331.274912" xlink:href="#C3_0_61b8d10289" y="173.286008"/>
    </g>
    <g clip-path="url(#p5d7df0f049)">
     <use style="fill:#0000ff;stroke:#000000;" x="342.151591" xlink:href="#C3_0_61b8d10289" y="170.572986"/>
    </g>
    <g clip-path="url(#p5d7df0f049)">
     <use style="fill:#0000ff;stroke:#000000;" x="323.27091" xlink:href="#C3_0_61b8d10289" y="167.472389"/>
    </g>
    <g clip-path="url(#p5d7df0f049)">
     <use style="fill:#0000ff;stroke:#000000;" x="335.044375" xlink:href="#C3_0_61b8d10289" y="161.658771"/>
    </g>
    <g clip-path="url(#p5d7df0f049)">
     <use style="fill:#0000ff;stroke:#000000;" x="335.044375" xlink:href="#C3_0_61b8d10289" y="148.868809"/>
    </g>
    <g clip-path="url(#p5d7df0f049)">
     <use style="fill:#0000ff;stroke:#000000;" x="335.044375" xlink:href="#C3_0_61b8d10289" y="120.705057"/>
    </g>
   </g>
   <g id="text_12">
    <text style="font-family:Arial;font-size:10px;font-style:normal;font-weight:normal;text-anchor:middle;" transform="rotate(-0, 301.564375, 104.965558)" x="301.564375" y="104.965558">ns</text>
   </g>
   <g id="text_13">
    <text style="font-family:Arial;font-size:10px;font-style:normal;font-weight:normal;text-anchor:middle;" transform="rotate(-0, 134.164375, 80.548359)" x="134.164375" y="80.548359">ns</text>
   </g>
   <g id="text_14">
    <text style="font-family:Arial;font-size:10px;font-style:normal;font-weight:normal;text-anchor:middle;" transform="rotate(-0, 184.384375, 61.590887)" x="184.384375" y="61.590887">*</text>
   </g>
   <g id="text_15">
    <text style="font-family:Arial;font-size:10px;font-style:normal;font-weight:normal;text-anchor:middle;" transform="rotate(-0, 251.344375, 41.674383)" x="251.344375" y="41.674383">*</text>
   </g>
   <g id="text_16">
    <text style="font-family:Arial;font-size:20px;font-style:normal;font-weight:normal;text-anchor:middle;" transform="rotate(-0, 217.864375, 21.515625)" x="217.864375" y="21.515625">Ruminococcaceae</text>
   </g>
   <g id="legend_1">
    <g id="patch_13">
     <path d="M 404.004375 87.096875 
L 453.22625 87.096875 
Q 455.22625 87.096875 455.22625 85.096875 
L 455.22625 29.515625 
Q 455.22625 27.515625 453.22625 27.515625 
L 404.004375 27.515625 
Q 402.004375 27.515625 402.004375 29.515625 
L 402.004375 85.096875 
Q 402.004375 87.096875 404.004375 87.096875 
z
" style="fill:#ffffff;opacity:0.8;stroke:#cccccc;stroke-linejoin:miter;"/>
    </g>
    <g id="patch_14">
     <path d="M 406.004375 38.673438 
L 426.004375 38.673438 
L 426.004375 31.673438 
L 406.004375 31.673438 
z
" style="fill:#df2020;stroke:#4c4c4c;stroke-linejoin:miter;stroke-width:0.75;"/>
    </g>
    <g id="text_17">
     <text style="font-family:Arial;font-size:10px;font-style:normal;font-weight:normal;text-anchor:start;" transform="rotate(-0, 434.004375, 38.673438)" x="434.004375" y="38.673438">Air</text>
    </g>
    <g id="patch_15">
     <path d="M 406.004375 52.81875 
L 426.004375 52.81875 
L 426.004375 45.81875 
L 406.004375 45.81875 
z
" style="fill:#2020df;stroke:#4c4c4c;stroke-linejoin:miter;stroke-width:0.75;"/>
    </g>
    <g id="text_18">
     <text style="font-family:Arial;font-size:10px;font-style:normal;font-weight:normal;text-anchor:start;" transform="rotate(-0, 434.004375, 52.81875)" x="434.004375" y="52.81875">IHC</text>
    </g>
    <g id="PathCollection_7">
     <defs>
      <path d="M 0 3.872983 
C 1.027127 3.872983 2.012324 3.464901 2.738613 2.738613 
C 3.464901 2.012324 3.872983 1.027127 3.872983 0 
C 3.872983 -1.027127 3.464901 -2.012324 2.738613 -2.738613 
C 2.012324 -3.464901 1.027127 -3.872983 0 -3.872983 
C -1.027127 -3.872983 -2.012324 -3.464901 -2.738613 -2.738613 
C -3.464901 -2.012324 -3.872983 -1.027127 -3.872983 0 
C -3.872983 1.027127 -3.464901 2.012324 -2.738613 2.738613 
C -2.012324 3.464901 -1.027127 3.872983 0 3.872983 
z
" id="md52908d6a1" style="stroke:#ff0000;"/>
     </defs>
     <g>
      <use style="fill:#ff0000;stroke:#ff0000;" x="416.004375" xlink:href="#md52908d6a1" y="64.339063"/>
     </g>
    </g>
    <g id="text_19">
     <text style="font-family:Arial;font-size:10px;font-style:normal;font-weight:normal;text-anchor:start;" transform="rotate(-0, 434.004375, 66.964063)" x="434.004375" y="66.964063">Air</text>
    </g>
    <g id="PathCollection_8">
     <defs>
      <path d="M 0 3.872983 
C 1.027127 3.872983 2.012324 3.464901 2.738613 2.738613 
C 3.464901 2.012324 3.872983 1.027127 3.872983 0 
C 3.872983 -1.027127 3.464901 -2.012324 2.738613 -2.738613 
C 2.012324 -3.464901 1.027127 -3.872983 0 -3.872983 
C -1.027127 -3.872983 -2.012324 -3.464901 -2.738613 -2.738613 
C -3.464901 -2.012324 -3.872983 -1.027127 -3.872983 0 
C -3.872983 1.027127 -3.464901 2.012324 -2.738613 2.738613 
C -2.012324 3.464901 -1.027127 3.872983 0 3.872983 
z
" id="mf76860ef5b" style="stroke:#0000ff;"/>
     </defs>
     <g>
      <use style="fill:#0000ff;stroke:#0000ff;" x="416.004375" xlink:href="#mf76860ef5b" y="78.484375"/>
     </g>
    </g>
    <g id="text_20">
     <text style="font-family:Arial;font-size:10px;font-style:normal;font-weight:normal;text-anchor:start;" transform="rotate(-0, 434.004375, 81.109375)" x="434.004375" y="81.109375">IHC</text>
    </g>
   </g>
  </g>
 </g>
 <defs>
  <clipPath id="p5d7df0f049">
   <rect height="217.44" width="334.8" x="50.464375" y="27.515625"/>
  </clipPath>
 </defs>
</svg>
