<?xml version="1.0" encoding="utf-8" standalone="no"?>
<!DOCTYPE svg PUBLIC "-//W3C//DTD SVG 1.1//EN"
  "http://www.w3.org/Graphics/SVG/1.1/DTD/svg11.dtd">
<!-- Created with matplotlib (https://matplotlib.org/) -->
<svg height="287.555pt" version="1.1" viewBox="0 0 462.42625 287.555" width="462.42625pt" xmlns="http://www.w3.org/2000/svg" xmlns:xlink="http://www.w3.org/1999/xlink">
 <defs>
  <style type="text/css">
*{stroke-linecap:butt;stroke-linejoin:round;}
  </style>
 </defs>
 <g id="figure_1">
  <g id="patch_1">
   <path d="M -0 287.555 
L 462.42625 287.555 
L 462.42625 0 
L -0 0 
z
" style="fill:#ffffff;"/>
  </g>
  <g id="axes_1">
   <g id="patch_2">
    <path d="M 50.464375 244.955625 
L 385.264375 244.955625 
L 385.264375 27.515625 
L 50.464375 27.515625 
z
" style="fill:#ffffff;"/>
   </g>
   <g id="patch_3">
    <path clip-path="url(#pf344fe0c6f)" d="M 67.873975 193.344403 
L 133.494775 193.344403 
L 133.494775 177.890783 
L 67.873975 177.890783 
L 67.873975 193.344403 
z
" style="fill:#df2020;stroke:#4c4c4c;stroke-linejoin:miter;stroke-width:1.5;"/>
   </g>
   <g id="patch_4">
    <path clip-path="url(#pf344fe0c6f)" d="M 134.833975 211.949777 
L 200.454775 211.949777 
L 200.454775 187.097302 
L 134.833975 187.097302 
L 134.833975 211.949777 
z
" style="fill:#2020df;stroke:#4c4c4c;stroke-linejoin:miter;stroke-width:1.5;"/>
   </g>
   <g id="patch_5">
    <path clip-path="url(#pf344fe0c6f)" d="M 235.273975 204.937897 
L 300.894775 204.937897 
L 300.894775 160.745535 
L 235.273975 160.745535 
L 235.273975 204.937897 
z
" style="fill:#df2020;stroke:#4c4c4c;stroke-linejoin:miter;stroke-width:1.5;"/>
   </g>
   <g id="patch_6">
    <path clip-path="url(#pf344fe0c6f)" d="M 302.233975 212.578965 
L 367.854775 212.578965 
L 367.854775 190.22441 
L 302.233975 190.22441 
L 302.233975 212.578965 
z
" style="fill:#2020df;stroke:#4c4c4c;stroke-linejoin:miter;stroke-width:1.5;"/>
   </g>
   <g id="PathCollection_1"/>
   <g id="PathCollection_2"/>
   <g id="patch_7">
    <path clip-path="url(#pf344fe0c6f)" d="M 134.164375 249.019515 
L 134.164375 249.019515 
L 134.164375 249.019515 
L 134.164375 249.019515 
z
" style="fill:#df2020;stroke:#4c4c4c;stroke-linejoin:miter;stroke-width:0.75;"/>
   </g>
   <g id="patch_8">
    <path clip-path="url(#pf344fe0c6f)" d="M 134.164375 249.019515 
L 134.164375 249.019515 
L 134.164375 249.019515 
L 134.164375 249.019515 
z
" style="fill:#2020df;stroke:#4c4c4c;stroke-linejoin:miter;stroke-width:0.75;"/>
   </g>
   <g id="matplotlib.axis_1">
    <g id="xtick_1">
     <g id="line2d_1">
      <defs>
       <path d="M 0 0 
L 0 3.5 
" id="m60edb1a197" style="stroke:#000000;stroke-width:0.8;"/>
      </defs>
      <g>
       <use style="stroke:#000000;stroke-width:0.8;" x="134.164375" xlink:href="#m60edb1a197" y="244.955625"/>
      </g>
     </g>
     <g id="text_1">
      <text style="font-family:Arial;font-size:12px;font-style:normal;font-weight:normal;text-anchor:middle;" transform="rotate(-0, 134.164375, 260.69125)" x="134.164375" y="260.69125">Light/Inactive</text>
     </g>
    </g>
    <g id="xtick_2">
     <g id="line2d_2">
      <g>
       <use style="stroke:#000000;stroke-width:0.8;" x="301.564375" xlink:href="#m60edb1a197" y="244.955625"/>
      </g>
     </g>
     <g id="text_2">
      <text style="font-family:Arial;font-size:12px;font-style:normal;font-weight:normal;text-anchor:middle;" transform="rotate(-0, 301.564375, 260.69125)" x="301.564375" y="260.69125">Night/Active</text>
     </g>
    </g>
    <g id="text_3">
     <text style="font-family:Arial;font-size:14px;font-style:normal;font-weight:normal;text-anchor:middle;" transform="rotate(-0, 217.864375, 277.408437)" x="217.864375" y="277.408437">Phase of Cycle</text>
    </g>
   </g>
   <g id="matplotlib.axis_2">
    <g id="ytick_1">
     <g id="line2d_3">
      <defs>
       <path d="M 0 0 
L -3.5 0 
" id="m12f72683a1" style="stroke:#000000;stroke-width:0.8;"/>
      </defs>
      <g>
       <use style="stroke:#000000;stroke-width:0.8;" x="50.464375" xlink:href="#m12f72683a1" y="221.200686"/>
      </g>
     </g>
     <g id="text_4">
      <text style="font-family:Arial;font-size:10px;font-style:normal;font-weight:normal;text-anchor:end;" transform="rotate(-0, 43.464375, 224.779592)" x="43.464375" y="224.779592">0.01</text>
     </g>
    </g>
    <g id="ytick_2">
     <g id="line2d_4">
      <g>
       <use style="stroke:#000000;stroke-width:0.8;" x="50.464375" xlink:href="#m12f72683a1" y="193.381857"/>
      </g>
     </g>
     <g id="text_5">
      <text style="font-family:Arial;font-size:10px;font-style:normal;font-weight:normal;text-anchor:end;" transform="rotate(-0, 43.464375, 196.960763)" x="43.464375" y="196.960763">0.02</text>
     </g>
    </g>
    <g id="ytick_3">
     <g id="line2d_5">
      <g>
       <use style="stroke:#000000;stroke-width:0.8;" x="50.464375" xlink:href="#m12f72683a1" y="165.563029"/>
      </g>
     </g>
     <g id="text_6">
      <text style="font-family:Arial;font-size:10px;font-style:normal;font-weight:normal;text-anchor:end;" transform="rotate(-0, 43.464375, 169.141935)" x="43.464375" y="169.141935">0.03</text>
     </g>
    </g>
    <g id="ytick_4">
     <g id="line2d_6">
      <g>
       <use style="stroke:#000000;stroke-width:0.8;" x="50.464375" xlink:href="#m12f72683a1" y="137.7442"/>
      </g>
     </g>
     <g id="text_7">
      <text style="font-family:Arial;font-size:10px;font-style:normal;font-weight:normal;text-anchor:end;" transform="rotate(-0, 43.464375, 141.323106)" x="43.464375" y="141.323106">0.04</text>
     </g>
    </g>
    <g id="ytick_5">
     <g id="line2d_7">
      <g>
       <use style="stroke:#000000;stroke-width:0.8;" x="50.464375" xlink:href="#m12f72683a1" y="109.925371"/>
      </g>
     </g>
     <g id="text_8">
      <text style="font-family:Arial;font-size:10px;font-style:normal;font-weight:normal;text-anchor:end;" transform="rotate(-0, 43.464375, 113.504277)" x="43.464375" y="113.504277">0.05</text>
     </g>
    </g>
    <g id="ytick_6">
     <g id="line2d_8">
      <g>
       <use style="stroke:#000000;stroke-width:0.8;" x="50.464375" xlink:href="#m12f72683a1" y="82.106542"/>
      </g>
     </g>
     <g id="text_9">
      <text style="font-family:Arial;font-size:10px;font-style:normal;font-weight:normal;text-anchor:end;" transform="rotate(-0, 43.464375, 85.685449)" x="43.464375" y="85.685449">0.06</text>
     </g>
    </g>
    <g id="ytick_7">
     <g id="line2d_9">
      <g>
       <use style="stroke:#000000;stroke-width:0.8;" x="50.464375" xlink:href="#m12f72683a1" y="54.287714"/>
      </g>
     </g>
     <g id="text_10">
      <text style="font-family:Arial;font-size:10px;font-style:normal;font-weight:normal;text-anchor:end;" transform="rotate(-0, 43.464375, 57.86662)" x="43.464375" y="57.86662">0.07</text>
     </g>
    </g>
    <g id="text_11">
     <text style="font-family:Arial;font-size:14px;font-style:normal;font-weight:normal;text-anchor:middle;" transform="rotate(-90, 17.220938, 136.235625)" x="17.220938" y="136.235625">Relative Abundance</text>
    </g>
   </g>
   <g id="line2d_10">
    <path clip-path="url(#pf344fe0c6f)" d="M 100.684375 193.344403 
L 100.684375 208.261553 
" style="fill:none;stroke:#4c4c4c;stroke-linecap:square;stroke-width:1.5;"/>
   </g>
   <g id="line2d_11">
    <path clip-path="url(#pf344fe0c6f)" d="M 100.684375 177.890783 
L 100.684375 155.115802 
" style="fill:none;stroke:#4c4c4c;stroke-linecap:square;stroke-width:1.5;"/>
   </g>
   <g id="line2d_12">
    <path clip-path="url(#pf344fe0c6f)" d="M 84.279175 208.261553 
L 117.089575 208.261553 
" style="fill:none;stroke:#4c4c4c;stroke-linecap:square;stroke-width:1.5;"/>
   </g>
   <g id="line2d_13">
    <path clip-path="url(#pf344fe0c6f)" d="M 84.279175 155.115802 
L 117.089575 155.115802 
" style="fill:none;stroke:#4c4c4c;stroke-linecap:square;stroke-width:1.5;"/>
   </g>
   <g id="line2d_14">
    <defs>
     <path d="M -0 3.535534 
L 2.12132 0 
L -0 -3.535534 
L -2.12132 -0 
z
" id="m04076b9881" style="stroke:#4c4c4c;stroke-linejoin:miter;"/>
    </defs>
    <g clip-path="url(#pf344fe0c6f)">
     <use style="fill:#4c4c4c;stroke:#4c4c4c;stroke-linejoin:miter;" x="100.684375" xlink:href="#m04076b9881" y="234.17371"/>
     <use style="fill:#4c4c4c;stroke:#4c4c4c;stroke-linejoin:miter;" x="100.684375" xlink:href="#m04076b9881" y="95.631009"/>
    </g>
   </g>
   <g id="line2d_15">
    <path clip-path="url(#pf344fe0c6f)" d="M 167.644375 211.949777 
L 167.644375 219.961811 
" style="fill:none;stroke:#4c4c4c;stroke-linecap:square;stroke-width:1.5;"/>
   </g>
   <g id="line2d_16">
    <path clip-path="url(#pf344fe0c6f)" d="M 167.644375 187.097302 
L 167.644375 174.312124 
" style="fill:none;stroke:#4c4c4c;stroke-linecap:square;stroke-width:1.5;"/>
   </g>
   <g id="line2d_17">
    <path clip-path="url(#pf344fe0c6f)" d="M 151.239175 219.961811 
L 184.049575 219.961811 
" style="fill:none;stroke:#4c4c4c;stroke-linecap:square;stroke-width:1.5;"/>
   </g>
   <g id="line2d_18">
    <path clip-path="url(#pf344fe0c6f)" d="M 151.239175 174.312124 
L 184.049575 174.312124 
" style="fill:none;stroke:#4c4c4c;stroke-linecap:square;stroke-width:1.5;"/>
   </g>
   <g id="line2d_19">
    <g clip-path="url(#pf344fe0c6f)">
     <use style="fill:#4c4c4c;stroke:#4c4c4c;stroke-linejoin:miter;" x="167.644375" xlink:href="#m04076b9881" y="148.023872"/>
    </g>
   </g>
   <g id="line2d_20">
    <path clip-path="url(#pf344fe0c6f)" d="M 268.084375 204.937897 
L 268.084375 230.859931 
" style="fill:none;stroke:#4c4c4c;stroke-linecap:square;stroke-width:1.5;"/>
   </g>
   <g id="line2d_21">
    <path clip-path="url(#pf344fe0c6f)" d="M 268.084375 160.745535 
L 268.084375 141.143233 
" style="fill:none;stroke:#4c4c4c;stroke-linecap:square;stroke-width:1.5;"/>
   </g>
   <g id="line2d_22">
    <path clip-path="url(#pf344fe0c6f)" d="M 251.679175 230.859931 
L 284.489575 230.859931 
" style="fill:none;stroke:#4c4c4c;stroke-linecap:square;stroke-width:1.5;"/>
   </g>
   <g id="line2d_23">
    <path clip-path="url(#pf344fe0c6f)" d="M 251.679175 141.143233 
L 284.489575 141.143233 
" style="fill:none;stroke:#4c4c4c;stroke-linecap:square;stroke-width:1.5;"/>
   </g>
   <g id="line2d_24"/>
   <g id="line2d_25">
    <path clip-path="url(#pf344fe0c6f)" d="M 335.044375 212.578965 
L 335.044375 221.942702 
" style="fill:none;stroke:#4c4c4c;stroke-linecap:square;stroke-width:1.5;"/>
   </g>
   <g id="line2d_26">
    <path clip-path="url(#pf344fe0c6f)" d="M 335.044375 190.22441 
L 335.044375 168.288795 
" style="fill:none;stroke:#4c4c4c;stroke-linecap:square;stroke-width:1.5;"/>
   </g>
   <g id="line2d_27">
    <path clip-path="url(#pf344fe0c6f)" d="M 318.639175 221.942702 
L 351.449575 221.942702 
" style="fill:none;stroke:#4c4c4c;stroke-linecap:square;stroke-width:1.5;"/>
   </g>
   <g id="line2d_28">
    <path clip-path="url(#pf344fe0c6f)" d="M 318.639175 168.288795 
L 351.449575 168.288795 
" style="fill:none;stroke:#4c4c4c;stroke-linecap:square;stroke-width:1.5;"/>
   </g>
   <g id="line2d_29"/>
   <g id="line2d_30">
    <path clip-path="url(#pf344fe0c6f)" d="M 268.084375 131.536842 
L 268.084375 128.334711 
L 335.044375 128.334711 
L 335.044375 131.536842 
" style="fill:none;stroke:#333333;stroke-linecap:square;stroke-width:1.5;"/>
   </g>
   <g id="line2d_31">
    <path clip-path="url(#pf344fe0c6f)" d="M 100.684375 86.024618 
L 100.684375 82.822487 
L 167.644375 82.822487 
L 167.644375 86.024618 
" style="fill:none;stroke:#333333;stroke-linecap:square;stroke-width:1.5;"/>
   </g>
   <g id="line2d_32">
    <path clip-path="url(#pf344fe0c6f)" d="M 100.684375 66.983224 
L 100.684375 63.781093 
L 268.084375 63.781093 
L 268.084375 66.983224 
" style="fill:none;stroke:#333333;stroke-linecap:square;stroke-width:1.5;"/>
   </g>
   <g id="line2d_33">
    <path clip-path="url(#pf344fe0c6f)" d="M 167.644375 46.978551 
L 167.644375 43.77642 
L 335.044375 43.77642 
L 335.044375 46.978551 
" style="fill:none;stroke:#333333;stroke-linecap:square;stroke-width:1.5;"/>
   </g>
   <g id="line2d_34">
    <path clip-path="url(#pf344fe0c6f)" d="M 67.873975 188.338191 
L 133.494775 188.338191 
" style="fill:none;stroke:#4c4c4c;stroke-linecap:square;stroke-width:1.5;"/>
   </g>
   <g id="line2d_35">
    <path clip-path="url(#pf344fe0c6f)" d="M 134.833975 192.337488 
L 200.454775 192.337488 
" style="fill:none;stroke:#4c4c4c;stroke-linecap:square;stroke-width:1.5;"/>
   </g>
   <g id="line2d_36">
    <path clip-path="url(#pf344fe0c6f)" d="M 235.273975 187.471553 
L 300.894775 187.471553 
" style="fill:none;stroke:#4c4c4c;stroke-linecap:square;stroke-width:1.5;"/>
   </g>
   <g id="line2d_37">
    <path clip-path="url(#pf344fe0c6f)" d="M 302.233975 199.811862 
L 367.854775 199.811862 
" style="fill:none;stroke:#4c4c4c;stroke-linecap:square;stroke-width:1.5;"/>
   </g>
   <g id="patch_9">
    <path d="M 50.464375 244.955625 
L 50.464375 27.515625 
" style="fill:none;stroke:#000000;stroke-linecap:square;stroke-linejoin:miter;stroke-width:0.8;"/>
   </g>
   <g id="patch_10">
    <path d="M 385.264375 244.955625 
L 385.264375 27.515625 
" style="fill:none;stroke:#000000;stroke-linecap:square;stroke-linejoin:miter;stroke-width:0.8;"/>
   </g>
   <g id="patch_11">
    <path d="M 50.464375 244.955625 
L 385.264375 244.955625 
" style="fill:none;stroke:#000000;stroke-linecap:square;stroke-linejoin:miter;stroke-width:0.8;"/>
   </g>
   <g id="patch_12">
    <path d="M 50.464375 27.515625 
L 385.264375 27.515625 
" style="fill:none;stroke:#000000;stroke-linecap:square;stroke-linejoin:miter;stroke-width:0.8;"/>
   </g>
   <g id="PathCollection_3">
    <defs>
     <path d="M 0 5 
C 1.326016 5 2.597899 4.473168 3.535534 3.535534 
C 4.473168 2.597899 5 1.326016 5 0 
C 5 -1.326016 4.473168 -2.597899 3.535534 -3.535534 
C 2.597899 -4.473168 1.326016 -5 0 -5 
C -1.326016 -5 -2.597899 -4.473168 -3.535534 -3.535534 
C -4.473168 -2.597899 -5 -1.326016 -5 0 
C -5 1.326016 -4.473168 2.597899 -3.535534 3.535534 
C -2.597899 4.473168 -1.326016 5 0 5 
z
" id="C0_0_97eba37012"/>
    </defs>
    <g clip-path="url(#pf344fe0c6f)">
     <use style="fill:#ff0000;stroke:#000000;" x="100.684375" xlink:href="#C0_0_97eba37012" y="234.17371"/>
    </g>
    <g clip-path="url(#pf344fe0c6f)">
     <use style="fill:#ff0000;stroke:#000000;" x="100.684375" xlink:href="#C0_0_97eba37012" y="208.261553"/>
    </g>
    <g clip-path="url(#pf344fe0c6f)">
     <use style="fill:#ff0000;stroke:#000000;" x="100.684375" xlink:href="#C0_0_97eba37012" y="193.364255"/>
    </g>
    <g clip-path="url(#pf344fe0c6f)">
     <use style="fill:#ff0000;stroke:#000000;" x="89.134514" xlink:href="#C0_0_97eba37012" y="193.324551"/>
    </g>
    <g clip-path="url(#pf344fe0c6f)">
     <use style="fill:#ff0000;stroke:#000000;" x="110.839712" xlink:href="#C0_0_97eba37012" y="189.505936"/>
    </g>
    <g clip-path="url(#pf344fe0c6f)">
     <use style="fill:#ff0000;stroke:#000000;" x="80.032726" xlink:href="#C0_0_97eba37012" y="188.338191"/>
    </g>
    <g clip-path="url(#pf344fe0c6f)">
     <use style="fill:#ff0000;stroke:#000000;" x="99.304029" xlink:href="#C0_0_97eba37012" y="185.322729"/>
    </g>
    <g clip-path="url(#pf344fe0c6f)">
     <use style="fill:#ff0000;stroke:#000000;" x="120.218535" xlink:href="#C0_0_97eba37012" y="184.778775"/>
    </g>
    <g clip-path="url(#pf344fe0c6f)">
     <use style="fill:#ff0000;stroke:#000000;" x="100.684375" xlink:href="#C0_0_97eba37012" y="171.002791"/>
    </g>
    <g clip-path="url(#pf344fe0c6f)">
     <use style="fill:#ff0000;stroke:#000000;" x="100.684375" xlink:href="#C0_0_97eba37012" y="155.115802"/>
    </g>
    <g clip-path="url(#pf344fe0c6f)">
     <use style="fill:#ff0000;stroke:#000000;" x="100.684375" xlink:href="#C0_0_97eba37012" y="95.631009"/>
    </g>
   </g>
   <g id="PathCollection_4">
    <defs>
     <path d="M 0 5 
C 1.326016 5 2.597899 4.473168 3.535534 3.535534 
C 4.473168 2.597899 5 1.326016 5 0 
C 5 -1.326016 4.473168 -2.597899 3.535534 -3.535534 
C 2.597899 -4.473168 1.326016 -5 0 -5 
C -1.326016 -5 -2.597899 -4.473168 -3.535534 -3.535534 
C -4.473168 -2.597899 -5 -1.326016 -5 0 
C -5 1.326016 -4.473168 2.597899 -3.535534 3.535534 
C -2.597899 4.473168 -1.326016 5 0 5 
z
" id="C1_0_31ad59bc1a"/>
    </defs>
    <g clip-path="url(#pf344fe0c6f)">
     <use style="fill:#0000ff;stroke:#000000;" x="167.644375" xlink:href="#C1_0_31ad59bc1a" y="219.961811"/>
    </g>
    <g clip-path="url(#pf344fe0c6f)">
     <use style="fill:#0000ff;stroke:#000000;" x="156.195189" xlink:href="#C1_0_31ad59bc1a" y="218.893992"/>
    </g>
    <g clip-path="url(#pf344fe0c6f)">
     <use style="fill:#0000ff;stroke:#000000;" x="173.1082" xlink:href="#C1_0_31ad59bc1a" y="212.825833"/>
    </g>
    <g clip-path="url(#pf344fe0c6f)">
     <use style="fill:#0000ff;stroke:#000000;" x="161.831679" xlink:href="#C1_0_31ad59bc1a" y="211.07372"/>
    </g>
    <g clip-path="url(#pf344fe0c6f)">
     <use style="fill:#0000ff;stroke:#000000;" x="176.993096" xlink:href="#C1_0_31ad59bc1a" y="205.198175"/>
    </g>
    <g clip-path="url(#pf344fe0c6f)">
     <use style="fill:#0000ff;stroke:#000000;" x="167.644375" xlink:href="#C1_0_31ad59bc1a" y="192.337488"/>
    </g>
    <g clip-path="url(#pf344fe0c6f)">
     <use style="fill:#0000ff;stroke:#000000;" x="156.212635" xlink:href="#C1_0_31ad59bc1a" y="191.181402"/>
    </g>
    <g clip-path="url(#pf344fe0c6f)">
     <use style="fill:#0000ff;stroke:#000000;" x="178.719013" xlink:href="#C1_0_31ad59bc1a" y="190.037725"/>
    </g>
    <g clip-path="url(#pf344fe0c6f)">
     <use style="fill:#0000ff;stroke:#000000;" x="167.644375" xlink:href="#C1_0_31ad59bc1a" y="184.15688"/>
    </g>
    <g clip-path="url(#pf344fe0c6f)">
     <use style="fill:#0000ff;stroke:#000000;" x="167.644375" xlink:href="#C1_0_31ad59bc1a" y="174.312124"/>
    </g>
    <g clip-path="url(#pf344fe0c6f)">
     <use style="fill:#0000ff;stroke:#000000;" x="167.644375" xlink:href="#C1_0_31ad59bc1a" y="148.023872"/>
    </g>
   </g>
   <g id="PathCollection_5">
    <defs>
     <path d="M 0 5 
C 1.326016 5 2.597899 4.473168 3.535534 3.535534 
C 4.473168 2.597899 5 1.326016 5 0 
C 5 -1.326016 4.473168 -2.597899 3.535534 -3.535534 
C 2.597899 -4.473168 1.326016 -5 0 -5 
C -1.326016 -5 -2.597899 -4.473168 -3.535534 -3.535534 
C -4.473168 -2.597899 -5 -1.326016 -5 0 
C -5 1.326016 -4.473168 2.597899 -3.535534 3.535534 
C -2.597899 4.473168 -1.326016 5 0 5 
z
" id="C2_0_71533dd368"/>
    </defs>
    <g clip-path="url(#pf344fe0c6f)">
     <use style="fill:#ff0000;stroke:#000000;" x="268.084375" xlink:href="#C2_0_71533dd368" y="230.859931"/>
    </g>
    <g clip-path="url(#pf344fe0c6f)">
     <use style="fill:#ff0000;stroke:#000000;" x="261.645272" xlink:href="#C2_0_71533dd368" y="224.13584"/>
    </g>
    <g clip-path="url(#pf344fe0c6f)">
     <use style="fill:#ff0000;stroke:#000000;" x="268.084375" xlink:href="#C2_0_71533dd368" y="205.273985"/>
    </g>
    <g clip-path="url(#pf344fe0c6f)">
     <use style="fill:#ff0000;stroke:#000000;" x="256.552066" xlink:href="#C2_0_71533dd368" y="204.825867"/>
    </g>
    <g clip-path="url(#pf344fe0c6f)">
     <use style="fill:#ff0000;stroke:#000000;" x="268.084375" xlink:href="#C2_0_71533dd368" y="195.92781"/>
    </g>
    <g clip-path="url(#pf344fe0c6f)">
     <use style="fill:#ff0000;stroke:#000000;" x="258.513098" xlink:href="#C2_0_71533dd368" y="191.394318"/>
    </g>
    <g clip-path="url(#pf344fe0c6f)">
     <use style="fill:#ff0000;stroke:#000000;" x="268.084375" xlink:href="#C2_0_71533dd368" y="183.548787"/>
    </g>
    <g clip-path="url(#pf344fe0c6f)">
     <use style="fill:#ff0000;stroke:#000000;" x="268.084375" xlink:href="#C2_0_71533dd368" y="171.138797"/>
    </g>
    <g clip-path="url(#pf344fe0c6f)">
     <use style="fill:#ff0000;stroke:#000000;" x="268.084375" xlink:href="#C2_0_71533dd368" y="161.838907"/>
    </g>
    <g clip-path="url(#pf344fe0c6f)">
     <use style="fill:#ff0000;stroke:#000000;" x="258.362885" xlink:href="#C2_0_71533dd368" y="157.465419"/>
    </g>
    <g clip-path="url(#pf344fe0c6f)">
     <use style="fill:#ff0000;stroke:#000000;" x="268.084375" xlink:href="#C2_0_71533dd368" y="146.899127"/>
    </g>
    <g clip-path="url(#pf344fe0c6f)">
     <use style="fill:#ff0000;stroke:#000000;" x="259.958321" xlink:href="#C2_0_71533dd368" y="141.143233"/>
    </g>
   </g>
   <g id="PathCollection_6">
    <defs>
     <path d="M 0 5 
C 1.326016 5 2.597899 4.473168 3.535534 3.535534 
C 4.473168 2.597899 5 1.326016 5 0 
C 5 -1.326016 4.473168 -2.597899 3.535534 -3.535534 
C 2.597899 -4.473168 1.326016 -5 0 -5 
C -1.326016 -5 -2.597899 -4.473168 -3.535534 -3.535534 
C -4.473168 -2.597899 -5 -1.326016 -5 0 
C -5 1.326016 -4.473168 2.597899 -3.535534 3.535534 
C -2.597899 4.473168 -1.326016 5 0 5 
z
" id="C3_0_5987c21a03"/>
    </defs>
    <g clip-path="url(#pf344fe0c6f)">
     <use style="fill:#0000ff;stroke:#000000;" x="335.044375" xlink:href="#C3_0_5987c21a03" y="221.942702"/>
    </g>
    <g clip-path="url(#pf344fe0c6f)">
     <use style="fill:#0000ff;stroke:#000000;" x="328.146307" xlink:href="#C3_0_5987c21a03" y="215.446307"/>
    </g>
    <g clip-path="url(#pf344fe0c6f)">
     <use style="fill:#0000ff;stroke:#000000;" x="341.182835" xlink:href="#C3_0_5987c21a03" y="215.081728"/>
    </g>
    <g clip-path="url(#pf344fe0c6f)">
     <use style="fill:#0000ff;stroke:#000000;" x="351.707014" xlink:href="#C3_0_5987c21a03" y="211.744711"/>
    </g>
    <g clip-path="url(#pf344fe0c6f)">
     <use style="fill:#0000ff;stroke:#000000;" x="335.044375" xlink:href="#C3_0_5987c21a03" y="207.242047"/>
    </g>
    <g clip-path="url(#pf344fe0c6f)">
     <use style="fill:#0000ff;stroke:#000000;" x="328.443683" xlink:href="#C3_0_5987c21a03" y="200.595453"/>
    </g>
    <g clip-path="url(#pf344fe0c6f)">
     <use style="fill:#0000ff;stroke:#000000;" x="339.775415" xlink:href="#C3_0_5987c21a03" y="199.02827"/>
    </g>
    <g clip-path="url(#pf344fe0c6f)">
     <use style="fill:#0000ff;stroke:#000000;" x="351.306073" xlink:href="#C3_0_5987c21a03" y="198.559715"/>
    </g>
    <g clip-path="url(#pf344fe0c6f)">
     <use style="fill:#0000ff;stroke:#000000;" x="335.044375" xlink:href="#C3_0_5987c21a03" y="191.319884"/>
    </g>
    <g clip-path="url(#pf344fe0c6f)">
     <use style="fill:#0000ff;stroke:#000000;" x="325.330587" xlink:href="#C3_0_5987c21a03" y="186.937988"/>
    </g>
    <g clip-path="url(#pf344fe0c6f)">
     <use style="fill:#0000ff;stroke:#000000;" x="335.044375" xlink:href="#C3_0_5987c21a03" y="174.368988"/>
    </g>
    <g clip-path="url(#pf344fe0c6f)">
     <use style="fill:#0000ff;stroke:#000000;" x="327.413688" xlink:href="#C3_0_5987c21a03" y="168.288795"/>
    </g>
   </g>
   <g id="text_12">
    <text style="font-family:Arial;font-size:10px;font-style:normal;font-weight:normal;text-anchor:middle;" transform="rotate(-0, 301.564375, 125.347211)" x="301.564375" y="125.347211">ns</text>
   </g>
   <g id="text_13">
    <text style="font-family:Arial;font-size:10px;font-style:normal;font-weight:normal;text-anchor:middle;" transform="rotate(-0, 134.164375, 79.834987)" x="134.164375" y="79.834987">ns</text>
   </g>
   <g id="text_14">
    <text style="font-family:Arial;font-size:10px;font-style:normal;font-weight:normal;text-anchor:middle;" transform="rotate(-0, 184.384375, 60.793593)" x="184.384375" y="60.793593">ns</text>
   </g>
   <g id="text_15">
    <text style="font-family:Arial;font-size:10px;font-style:normal;font-weight:normal;text-anchor:middle;" transform="rotate(-0, 251.344375, 40.78892)" x="251.344375" y="40.78892">ns</text>
   </g>
   <g id="text_16">
    <text style="font-family:Arial;font-size:20px;font-style:normal;font-weight:normal;text-anchor:middle;" transform="rotate(-0, 217.864375, 21.515625)" x="217.864375" y="21.515625">Ursodeoxycholic acid</text>
   </g>
   <g id="legend_1">
    <g id="patch_13">
     <path d="M 404.004375 87.096875 
L 453.22625 87.096875 
Q 455.22625 87.096875 455.22625 85.096875 
L 455.22625 29.515625 
Q 455.22625 27.515625 453.22625 27.515625 
L 404.004375 27.515625 
Q 402.004375 27.515625 402.004375 29.515625 
L 402.004375 85.096875 
Q 402.004375 87.096875 404.004375 87.096875 
z
" style="fill:#ffffff;opacity:0.8;stroke:#cccccc;stroke-linejoin:miter;"/>
    </g>
    <g id="patch_14">
     <path d="M 406.004375 38.673438 
L 426.004375 38.673438 
L 426.004375 31.673438 
L 406.004375 31.673438 
z
" style="fill:#df2020;stroke:#4c4c4c;stroke-linejoin:miter;stroke-width:0.75;"/>
    </g>
    <g id="text_17">
     <text style="font-family:Arial;font-size:10px;font-style:normal;font-weight:normal;text-anchor:start;" transform="rotate(-0, 434.004375, 38.673438)" x="434.004375" y="38.673438">Air</text>
    </g>
    <g id="patch_15">
     <path d="M 406.004375 52.81875 
L 426.004375 52.81875 
L 426.004375 45.81875 
L 406.004375 45.81875 
z
" style="fill:#2020df;stroke:#4c4c4c;stroke-linejoin:miter;stroke-width:0.75;"/>
    </g>
    <g id="text_18">
     <text style="font-family:Arial;font-size:10px;font-style:normal;font-weight:normal;text-anchor:start;" transform="rotate(-0, 434.004375, 52.81875)" x="434.004375" y="52.81875">IHC</text>
    </g>
    <g id="PathCollection_7">
     <defs>
      <path d="M 0 3.872983 
C 1.027127 3.872983 2.012324 3.464901 2.738613 2.738613 
C 3.464901 2.012324 3.872983 1.027127 3.872983 0 
C 3.872983 -1.027127 3.464901 -2.012324 2.738613 -2.738613 
C 2.012324 -3.464901 1.027127 -3.872983 0 -3.872983 
C -1.027127 -3.872983 -2.012324 -3.464901 -2.738613 -2.738613 
C -3.464901 -2.012324 -3.872983 -1.027127 -3.872983 0 
C -3.872983 1.027127 -3.464901 2.012324 -2.738613 2.738613 
C -2.012324 3.464901 -1.027127 3.872983 0 3.872983 
z
" id="m271ada8ac0" style="stroke:#ff0000;"/>
     </defs>
     <g>
      <use style="fill:#ff0000;stroke:#ff0000;" x="416.004375" xlink:href="#m271ada8ac0" y="64.339063"/>
     </g>
    </g>
    <g id="text_19">
     <text style="font-family:Arial;font-size:10px;font-style:normal;font-weight:normal;text-anchor:start;" transform="rotate(-0, 434.004375, 66.964063)" x="434.004375" y="66.964063">Air</text>
    </g>
    <g id="PathCollection_8">
     <defs>
      <path d="M 0 3.872983 
C 1.027127 3.872983 2.012324 3.464901 2.738613 2.738613 
C 3.464901 2.012324 3.872983 1.027127 3.872983 0 
C 3.872983 -1.027127 3.464901 -2.012324 2.738613 -2.738613 
C 2.012324 -3.464901 1.027127 -3.872983 0 -3.872983 
C -1.027127 -3.872983 -2.012324 -3.464901 -2.738613 -2.738613 
C -3.464901 -2.012324 -3.872983 -1.027127 -3.872983 0 
C -3.872983 1.027127 -3.464901 2.012324 -2.738613 2.738613 
C -2.012324 3.464901 -1.027127 3.872983 0 3.872983 
z
" id="m84dc0c63ce" style="stroke:#0000ff;"/>
     </defs>
     <g>
      <use style="fill:#0000ff;stroke:#0000ff;" x="416.004375" xlink:href="#m84dc0c63ce" y="78.484375"/>
     </g>
    </g>
    <g id="text_20">
     <text style="font-family:Arial;font-size:10px;font-style:normal;font-weight:normal;text-anchor:start;" transform="rotate(-0, 434.004375, 81.109375)" x="434.004375" y="81.109375">IHC</text>
    </g>
   </g>
  </g>
 </g>
 <defs>
  <clipPath id="pf344fe0c6f">
   <rect height="217.44" width="334.8" x="50.464375" y="27.515625"/>
  </clipPath>
 </defs>
</svg>
