<?xml version="1.0" encoding="utf-8" standalone="no"?>
<!DOCTYPE svg PUBLIC "-//W3C//DTD SVG 1.1//EN"
  "http://www.w3.org/Graphics/SVG/1.1/DTD/svg11.dtd">
<!-- Created with matplotlib (https://matplotlib.org/) -->
<svg height="443.338125pt" version="1.1" viewBox="0 0 433.362016 443.338125" width="433.362016pt" xmlns="http://www.w3.org/2000/svg" xmlns:xlink="http://www.w3.org/1999/xlink">
 <defs>
  <style type="text/css">
*{stroke-linecap:butt;stroke-linejoin:round;}
  </style>
 </defs>
 <g id="figure_1">
  <g id="patch_1">
   <path d="M 0 443.338125 
L 433.362016 443.338125 
L 433.362016 0 
L 0 0 
z
" style="fill:#ffffff;"/>
  </g>
  <g id="axes_1">
   <g id="patch_2">
    <path d="M 50.464375 403.189375 
L 353.002516 403.189375 
L 353.002516 21.789375 
L 50.464375 21.789375 
z
" style="fill:#ffffff;"/>
   </g>
   <g id="PathCollection_1">
    <defs>
     <path d="M 0 3.383948 
C 0.897434 3.383948 1.758231 3.027394 2.392813 2.392813 
C 3.027394 1.758231 3.383948 0.897434 3.383948 0 
C 3.383948 -0.897434 3.027394 -1.758231 2.392813 -2.392813 
C 1.758231 -3.027394 0.897434 -3.383948 0 -3.383948 
C -0.897434 -3.383948 -1.758231 -3.027394 -2.392813 -2.392813 
C -3.027394 -1.758231 -3.383948 -0.897434 -3.383948 0 
C -3.383948 0.897434 -3.027394 1.758231 -2.392813 2.392813 
C -1.758231 3.027394 -0.897434 3.383948 0 3.383948 
z
" id="C0_0_89f598d114"/>
    </defs>
    <g clip-path="url(#p2f613c3939)">
     <use style="fill:#ff0000;stroke:#ff0000;stroke-width:2.025;" x="67.335327" xlink:href="#C0_0_89f598d114" y="284.369849"/>
    </g>
    <g clip-path="url(#p2f613c3939)">
     <use style="fill:#ff0000;stroke:#ff0000;stroke-width:2.025;" x="90.980149" xlink:href="#C0_0_89f598d114" y="351.328984"/>
    </g>
    <g clip-path="url(#p2f613c3939)">
     <use style="fill:#ff0000;stroke:#ff0000;stroke-width:2.025;" x="114.624971" xlink:href="#C0_0_89f598d114" y="331.160101"/>
    </g>
    <g clip-path="url(#p2f613c3939)">
     <use style="fill:#ff0000;stroke:#ff0000;stroke-width:2.025;" x="138.269793" xlink:href="#C0_0_89f598d114" y="305.778176"/>
    </g>
    <g clip-path="url(#p2f613c3939)">
     <use style="fill:#ff0000;stroke:#ff0000;stroke-width:2.025;" x="161.914616" xlink:href="#C0_0_89f598d114" y="279.321276"/>
    </g>
    <g clip-path="url(#p2f613c3939)">
     <use style="fill:#ff0000;stroke:#ff0000;stroke-width:2.025;" x="185.559438" xlink:href="#C0_0_89f598d114" y="212.654263"/>
    </g>
    <g clip-path="url(#p2f613c3939)">
     <use style="fill:#ff0000;stroke:#ff0000;stroke-width:2.025;" x="209.20426" xlink:href="#C0_0_89f598d114" y="284.369849"/>
    </g>
    <g clip-path="url(#p2f613c3939)">
     <use style="fill:#ff0000;stroke:#ff0000;stroke-width:2.025;" x="232.849082" xlink:href="#C0_0_89f598d114" y="351.328984"/>
    </g>
    <g clip-path="url(#p2f613c3939)">
     <use style="fill:#ff0000;stroke:#ff0000;stroke-width:2.025;" x="256.493904" xlink:href="#C0_0_89f598d114" y="331.160101"/>
    </g>
    <g clip-path="url(#p2f613c3939)">
     <use style="fill:#ff0000;stroke:#ff0000;stroke-width:2.025;" x="280.138727" xlink:href="#C0_0_89f598d114" y="305.778176"/>
    </g>
    <g clip-path="url(#p2f613c3939)">
     <use style="fill:#ff0000;stroke:#ff0000;stroke-width:2.025;" x="303.783549" xlink:href="#C0_0_89f598d114" y="279.321276"/>
    </g>
    <g clip-path="url(#p2f613c3939)">
     <use style="fill:#ff0000;stroke:#ff0000;stroke-width:2.025;" x="327.428371" xlink:href="#C0_0_89f598d114" y="212.654263"/>
    </g>
   </g>
   <g id="patch_3">
    <path clip-path="url(#p2f613c3939)" d="M 126.447382 403.189375 
L 126.447382 21.789375 
L 197.381849 21.789375 
L 197.381849 403.189375 
z
" style="opacity:0.2;stroke:#000000;stroke-linejoin:miter;"/>
   </g>
   <g id="patch_4">
    <path clip-path="url(#p2f613c3939)" d="M 268.316316 403.189375 
L 268.316316 21.789375 
L 339.250782 21.789375 
L 339.250782 403.189375 
z
" style="opacity:0.2;stroke:#000000;stroke-linejoin:miter;"/>
   </g>
   <g id="line2d_1">
    <path clip-path="url(#p2f613c3939)" d="M 67.335327 284.369849 
L 90.980149 351.328984 
L 114.624971 331.160101 
L 138.269793 305.778176 
L 161.914616 279.321276 
L 185.559438 212.654263 
L 209.20426 284.369849 
L 232.849082 351.328984 
L 256.493904 331.160101 
L 280.138727 305.778176 
L 303.783549 279.321276 
L 327.428371 212.654263 
" style="fill:none;stroke:#ff0000;stroke-linecap:square;stroke-width:2.7;"/>
   </g>
   <g id="line2d_2">
    <path clip-path="url(#p2f613c3939)" d="M 67.335327 326.037799 
L 67.335327 235.339902 
" style="fill:none;stroke:#ff0000;stroke-linecap:square;"/>
   </g>
   <g id="line2d_3">
    <path clip-path="url(#p2f613c3939)" d="M 64.970844 326.037799 
L 69.699809 326.037799 
" style="fill:none;stroke:#ff0000;stroke-linecap:square;"/>
   </g>
   <g id="line2d_4">
    <path clip-path="url(#p2f613c3939)" d="M 64.970844 235.339902 
L 69.699809 235.339902 
" style="fill:none;stroke:#ff0000;stroke-linecap:square;"/>
   </g>
   <g id="line2d_5">
    <path clip-path="url(#p2f613c3939)" d="M 90.980149 383.647624 
L 90.980149 316.804957 
" style="fill:none;stroke:#ff0000;stroke-linecap:square;"/>
   </g>
   <g id="line2d_6">
    <path clip-path="url(#p2f613c3939)" d="M 88.615667 383.647624 
L 93.344631 383.647624 
" style="fill:none;stroke:#ff0000;stroke-linecap:square;"/>
   </g>
   <g id="line2d_7">
    <path clip-path="url(#p2f613c3939)" d="M 88.615667 316.804957 
L 93.344631 316.804957 
" style="fill:none;stroke:#ff0000;stroke-linecap:square;"/>
   </g>
   <g id="line2d_8">
    <path clip-path="url(#p2f613c3939)" d="M 114.624971 366.750135 
L 114.624971 295.570067 
" style="fill:none;stroke:#ff0000;stroke-linecap:square;"/>
   </g>
   <g id="line2d_9">
    <path clip-path="url(#p2f613c3939)" d="M 112.260489 366.750135 
L 116.989453 366.750135 
" style="fill:none;stroke:#ff0000;stroke-linecap:square;"/>
   </g>
   <g id="line2d_10">
    <path clip-path="url(#p2f613c3939)" d="M 112.260489 295.570067 
L 116.989453 295.570067 
" style="fill:none;stroke:#ff0000;stroke-linecap:square;"/>
   </g>
   <g id="line2d_11">
    <path clip-path="url(#p2f613c3939)" d="M 138.269793 385.637514 
L 138.269793 225.918837 
" style="fill:none;stroke:#ff0000;stroke-linecap:square;"/>
   </g>
   <g id="line2d_12">
    <path clip-path="url(#p2f613c3939)" d="M 135.905311 385.637514 
L 140.634276 385.637514 
" style="fill:none;stroke:#ff0000;stroke-linecap:square;"/>
   </g>
   <g id="line2d_13">
    <path clip-path="url(#p2f613c3939)" d="M 135.905311 225.918837 
L 140.634276 225.918837 
" style="fill:none;stroke:#ff0000;stroke-linecap:square;"/>
   </g>
   <g id="line2d_14">
    <path clip-path="url(#p2f613c3939)" d="M 161.914616 323.436938 
L 161.914616 235.205613 
" style="fill:none;stroke:#ff0000;stroke-linecap:square;"/>
   </g>
   <g id="line2d_15">
    <path clip-path="url(#p2f613c3939)" d="M 159.550133 323.436938 
L 164.279098 323.436938 
" style="fill:none;stroke:#ff0000;stroke-linecap:square;"/>
   </g>
   <g id="line2d_16">
    <path clip-path="url(#p2f613c3939)" d="M 159.550133 235.205613 
L 164.279098 235.205613 
" style="fill:none;stroke:#ff0000;stroke-linecap:square;"/>
   </g>
   <g id="line2d_17">
    <path clip-path="url(#p2f613c3939)" d="M 185.559438 331.529465 
L 185.559438 93.779061 
" style="fill:none;stroke:#ff0000;stroke-linecap:square;"/>
   </g>
   <g id="line2d_18">
    <path clip-path="url(#p2f613c3939)" d="M 183.194956 331.529465 
L 187.92392 331.529465 
" style="fill:none;stroke:#ff0000;stroke-linecap:square;"/>
   </g>
   <g id="line2d_19">
    <path clip-path="url(#p2f613c3939)" d="M 183.194956 93.779061 
L 187.92392 93.779061 
" style="fill:none;stroke:#ff0000;stroke-linecap:square;"/>
   </g>
   <g id="line2d_20">
    <path clip-path="url(#p2f613c3939)" d="M 209.20426 326.037799 
L 209.20426 235.339902 
" style="fill:none;stroke:#ff0000;stroke-linecap:square;"/>
   </g>
   <g id="line2d_21">
    <path clip-path="url(#p2f613c3939)" d="M 206.839778 326.037799 
L 211.568742 326.037799 
" style="fill:none;stroke:#ff0000;stroke-linecap:square;"/>
   </g>
   <g id="line2d_22">
    <path clip-path="url(#p2f613c3939)" d="M 206.839778 235.339902 
L 211.568742 235.339902 
" style="fill:none;stroke:#ff0000;stroke-linecap:square;"/>
   </g>
   <g id="line2d_23">
    <path clip-path="url(#p2f613c3939)" d="M 232.849082 385.853011 
L 232.849082 316.804957 
" style="fill:none;stroke:#ff0000;stroke-linecap:square;"/>
   </g>
   <g id="line2d_24">
    <path clip-path="url(#p2f613c3939)" d="M 230.4846 385.853011 
L 235.213564 385.853011 
" style="fill:none;stroke:#ff0000;stroke-linecap:square;"/>
   </g>
   <g id="line2d_25">
    <path clip-path="url(#p2f613c3939)" d="M 230.4846 316.804957 
L 235.213564 316.804957 
" style="fill:none;stroke:#ff0000;stroke-linecap:square;"/>
   </g>
   <g id="line2d_26">
    <path clip-path="url(#p2f613c3939)" d="M 256.493904 366.750135 
L 256.493904 295.570067 
" style="fill:none;stroke:#ff0000;stroke-linecap:square;"/>
   </g>
   <g id="line2d_27">
    <path clip-path="url(#p2f613c3939)" d="M 254.129422 366.750135 
L 258.858387 366.750135 
" style="fill:none;stroke:#ff0000;stroke-linecap:square;"/>
   </g>
   <g id="line2d_28">
    <path clip-path="url(#p2f613c3939)" d="M 254.129422 295.570067 
L 258.858387 295.570067 
" style="fill:none;stroke:#ff0000;stroke-linecap:square;"/>
   </g>
   <g id="line2d_29">
    <path clip-path="url(#p2f613c3939)" d="M 280.138727 383.59022 
L 280.138727 237.608277 
" style="fill:none;stroke:#ff0000;stroke-linecap:square;"/>
   </g>
   <g id="line2d_30">
    <path clip-path="url(#p2f613c3939)" d="M 277.774244 383.59022 
L 282.503209 383.59022 
" style="fill:none;stroke:#ff0000;stroke-linecap:square;"/>
   </g>
   <g id="line2d_31">
    <path clip-path="url(#p2f613c3939)" d="M 277.774244 237.608277 
L 282.503209 237.608277 
" style="fill:none;stroke:#ff0000;stroke-linecap:square;"/>
   </g>
   <g id="line2d_32">
    <path clip-path="url(#p2f613c3939)" d="M 303.783549 323.436938 
L 303.783549 235.205613 
" style="fill:none;stroke:#ff0000;stroke-linecap:square;"/>
   </g>
   <g id="line2d_33">
    <path clip-path="url(#p2f613c3939)" d="M 301.419067 323.436938 
L 306.148031 323.436938 
" style="fill:none;stroke:#ff0000;stroke-linecap:square;"/>
   </g>
   <g id="line2d_34">
    <path clip-path="url(#p2f613c3939)" d="M 301.419067 235.205613 
L 306.148031 235.205613 
" style="fill:none;stroke:#ff0000;stroke-linecap:square;"/>
   </g>
   <g id="line2d_35">
    <path clip-path="url(#p2f613c3939)" d="M 327.428371 331.529465 
L 327.428371 93.779061 
" style="fill:none;stroke:#ff0000;stroke-linecap:square;"/>
   </g>
   <g id="line2d_36">
    <path clip-path="url(#p2f613c3939)" d="M 325.063889 331.529465 
L 329.792853 331.529465 
" style="fill:none;stroke:#ff0000;stroke-linecap:square;"/>
   </g>
   <g id="line2d_37">
    <path clip-path="url(#p2f613c3939)" d="M 325.063889 93.779061 
L 329.792853 93.779061 
" style="fill:none;stroke:#ff0000;stroke-linecap:square;"/>
   </g>
   <g id="matplotlib.axis_1">
    <g id="xtick_1">
     <g id="line2d_38">
      <defs>
       <path d="M 0 0 
L 0 3.5 
" id="m08af82bcad" style="stroke:#000000;stroke-width:0.8;"/>
      </defs>
      <g>
       <use style="stroke:#000000;stroke-width:0.8;" x="67.335327" xlink:href="#m08af82bcad" y="403.189375"/>
      </g>
     </g>
     <g id="text_1">
      <text style="font-family:Arial;font-size:10px;font-style:normal;font-weight:normal;text-anchor:middle;" transform="rotate(-0, 67.335327, 417.347187)" x="67.335327" y="417.347187">2</text>
     </g>
    </g>
    <g id="xtick_2">
     <g id="line2d_39">
      <g>
       <use style="stroke:#000000;stroke-width:0.8;" x="90.980149" xlink:href="#m08af82bcad" y="403.189375"/>
      </g>
     </g>
     <g id="text_2">
      <text style="font-family:Arial;font-size:10px;font-style:normal;font-weight:normal;text-anchor:middle;" transform="rotate(-0, 90.980149, 417.347187)" x="90.980149" y="417.347187">6</text>
     </g>
    </g>
    <g id="xtick_3">
     <g id="line2d_40">
      <g>
       <use style="stroke:#000000;stroke-width:0.8;" x="114.624971" xlink:href="#m08af82bcad" y="403.189375"/>
      </g>
     </g>
     <g id="text_3">
      <text style="font-family:Arial;font-size:10px;font-style:normal;font-weight:normal;text-anchor:middle;" transform="rotate(-0, 114.624971, 417.347187)" x="114.624971" y="417.347187">10</text>
     </g>
    </g>
    <g id="xtick_4">
     <g id="line2d_41">
      <g>
       <use style="stroke:#000000;stroke-width:0.8;" x="138.269793" xlink:href="#m08af82bcad" y="403.189375"/>
      </g>
     </g>
     <g id="text_4">
      <text style="font-family:Arial;font-size:10px;font-style:normal;font-weight:normal;text-anchor:middle;" transform="rotate(-0, 138.269793, 417.347187)" x="138.269793" y="417.347187">14</text>
     </g>
    </g>
    <g id="xtick_5">
     <g id="line2d_42">
      <g>
       <use style="stroke:#000000;stroke-width:0.8;" x="161.914616" xlink:href="#m08af82bcad" y="403.189375"/>
      </g>
     </g>
     <g id="text_5">
      <text style="font-family:Arial;font-size:10px;font-style:normal;font-weight:normal;text-anchor:middle;" transform="rotate(-0, 161.914616, 417.347187)" x="161.914616" y="417.347187">18</text>
     </g>
    </g>
    <g id="xtick_6">
     <g id="line2d_43">
      <g>
       <use style="stroke:#000000;stroke-width:0.8;" x="185.559438" xlink:href="#m08af82bcad" y="403.189375"/>
      </g>
     </g>
     <g id="text_6">
      <text style="font-family:Arial;font-size:10px;font-style:normal;font-weight:normal;text-anchor:middle;" transform="rotate(-0, 185.559438, 417.347187)" x="185.559438" y="417.347187">22</text>
     </g>
    </g>
    <g id="xtick_7">
     <g id="line2d_44">
      <g>
       <use style="stroke:#000000;stroke-width:0.8;" x="209.20426" xlink:href="#m08af82bcad" y="403.189375"/>
      </g>
     </g>
     <g id="text_7">
      <text style="font-family:Arial;font-size:10px;font-style:normal;font-weight:normal;text-anchor:middle;" transform="rotate(-0, 209.20426, 417.347187)" x="209.20426" y="417.347187">2</text>
     </g>
    </g>
    <g id="xtick_8">
     <g id="line2d_45">
      <g>
       <use style="stroke:#000000;stroke-width:0.8;" x="232.849082" xlink:href="#m08af82bcad" y="403.189375"/>
      </g>
     </g>
     <g id="text_8">
      <text style="font-family:Arial;font-size:10px;font-style:normal;font-weight:normal;text-anchor:middle;" transform="rotate(-0, 232.849082, 417.347187)" x="232.849082" y="417.347187">6</text>
     </g>
    </g>
    <g id="xtick_9">
     <g id="line2d_46">
      <g>
       <use style="stroke:#000000;stroke-width:0.8;" x="256.493904" xlink:href="#m08af82bcad" y="403.189375"/>
      </g>
     </g>
     <g id="text_9">
      <text style="font-family:Arial;font-size:10px;font-style:normal;font-weight:normal;text-anchor:middle;" transform="rotate(-0, 256.493904, 417.347187)" x="256.493904" y="417.347187">10</text>
     </g>
    </g>
    <g id="xtick_10">
     <g id="line2d_47">
      <g>
       <use style="stroke:#000000;stroke-width:0.8;" x="280.138727" xlink:href="#m08af82bcad" y="403.189375"/>
      </g>
     </g>
     <g id="text_10">
      <text style="font-family:Arial;font-size:10px;font-style:normal;font-weight:normal;text-anchor:middle;" transform="rotate(-0, 280.138727, 417.347187)" x="280.138727" y="417.347187">14</text>
     </g>
    </g>
    <g id="xtick_11">
     <g id="line2d_48">
      <g>
       <use style="stroke:#000000;stroke-width:0.8;" x="303.783549" xlink:href="#m08af82bcad" y="403.189375"/>
      </g>
     </g>
     <g id="text_11">
      <text style="font-family:Arial;font-size:10px;font-style:normal;font-weight:normal;text-anchor:middle;" transform="rotate(-0, 303.783549, 417.347187)" x="303.783549" y="417.347187">18</text>
     </g>
    </g>
    <g id="xtick_12">
     <g id="line2d_49">
      <g>
       <use style="stroke:#000000;stroke-width:0.8;" x="327.428371" xlink:href="#m08af82bcad" y="403.189375"/>
      </g>
     </g>
     <g id="text_12">
      <text style="font-family:Arial;font-size:10px;font-style:normal;font-weight:normal;text-anchor:middle;" transform="rotate(-0, 327.428371, 417.347187)" x="327.428371" y="417.347187">22</text>
     </g>
    </g>
    <g id="text_13">
     <text style="font-family:Arial;font-size:14px;font-style:normal;font-weight:normal;text-anchor:middle;" transform="rotate(-0, 201.733445, 433.355625)" x="201.733445" y="433.355625">ZT</text>
    </g>
   </g>
   <g id="matplotlib.axis_2">
    <g id="ytick_1">
     <g id="line2d_50">
      <defs>
       <path d="M 0 0 
L -3.5 0 
" id="mabd5a5298c" style="stroke:#000000;stroke-width:0.8;"/>
      </defs>
      <g>
       <use style="stroke:#000000;stroke-width:0.8;" x="50.464375" xlink:href="#mabd5a5298c" y="343.680639"/>
      </g>
     </g>
     <g id="text_14">
      <text style="font-family:Arial;font-size:10px;font-style:normal;font-weight:normal;text-anchor:end;" transform="rotate(-0, 43.464375, 347.259545)" x="43.464375" y="347.259545">0.05</text>
     </g>
    </g>
    <g id="ytick_2">
     <g id="line2d_51">
      <g>
       <use style="stroke:#000000;stroke-width:0.8;" x="50.464375" xlink:href="#mabd5a5298c" y="266.7651"/>
      </g>
     </g>
     <g id="text_15">
      <text style="font-family:Arial;font-size:10px;font-style:normal;font-weight:normal;text-anchor:end;" transform="rotate(-0, 43.464375, 270.344006)" x="43.464375" y="270.344006">0.10</text>
     </g>
    </g>
    <g id="ytick_3">
     <g id="line2d_52">
      <g>
       <use style="stroke:#000000;stroke-width:0.8;" x="50.464375" xlink:href="#mabd5a5298c" y="189.849561"/>
      </g>
     </g>
     <g id="text_16">
      <text style="font-family:Arial;font-size:10px;font-style:normal;font-weight:normal;text-anchor:end;" transform="rotate(-0, 43.464375, 193.428467)" x="43.464375" y="193.428467">0.15</text>
     </g>
    </g>
    <g id="ytick_4">
     <g id="line2d_53">
      <g>
       <use style="stroke:#000000;stroke-width:0.8;" x="50.464375" xlink:href="#mabd5a5298c" y="112.934022"/>
      </g>
     </g>
     <g id="text_17">
      <text style="font-family:Arial;font-size:10px;font-style:normal;font-weight:normal;text-anchor:end;" transform="rotate(-0, 43.464375, 116.512929)" x="43.464375" y="116.512929">0.20</text>
     </g>
    </g>
    <g id="ytick_5">
     <g id="line2d_54">
      <g>
       <use style="stroke:#000000;stroke-width:0.8;" x="50.464375" xlink:href="#mabd5a5298c" y="36.018484"/>
      </g>
     </g>
     <g id="text_18">
      <text style="font-family:Arial;font-size:10px;font-style:normal;font-weight:normal;text-anchor:end;" transform="rotate(-0, 43.464375, 39.59739)" x="43.464375" y="39.59739">0.25</text>
     </g>
    </g>
    <g id="text_19">
     <text style="font-family:Arial;font-size:14px;font-style:normal;font-weight:normal;text-anchor:middle;" transform="rotate(-90, 17.220938, 212.489375)" x="17.220938" y="212.489375">Relative Abundance</text>
    </g>
   </g>
   <g id="PathCollection_2">
    <defs>
     <path d="M 0 3.383948 
C 0.897434 3.383948 1.758231 3.027394 2.392813 2.392813 
C 3.027394 1.758231 3.383948 0.897434 3.383948 0 
C 3.383948 -0.897434 3.027394 -1.758231 2.392813 -2.392813 
C 1.758231 -3.027394 0.897434 -3.383948 0 -3.383948 
C -0.897434 -3.383948 -1.758231 -3.027394 -2.392813 -2.392813 
C -3.027394 -1.758231 -3.383948 -0.897434 -3.383948 0 
C -3.383948 0.897434 -3.027394 1.758231 -2.392813 2.392813 
C -1.758231 3.027394 -0.897434 3.383948 0 3.383948 
z
" id="C1_0_fd050c612c"/>
    </defs>
    <g clip-path="url(#p2f613c3939)">
     <use style="fill:#0000ff;stroke:#0000ff;stroke-width:2.025;" x="67.335327" xlink:href="#C1_0_fd050c612c" y="152.733093"/>
    </g>
    <g clip-path="url(#p2f613c3939)">
     <use style="fill:#0000ff;stroke:#0000ff;stroke-width:2.025;" x="90.980149" xlink:href="#C1_0_fd050c612c" y="367.727673"/>
    </g>
    <g clip-path="url(#p2f613c3939)">
     <use style="fill:#0000ff;stroke:#0000ff;stroke-width:2.025;" x="114.624971" xlink:href="#C1_0_fd050c612c" y="333.071727"/>
    </g>
    <g clip-path="url(#p2f613c3939)">
     <use style="fill:#0000ff;stroke:#0000ff;stroke-width:2.025;" x="138.269793" xlink:href="#C1_0_fd050c612c" y="316.934709"/>
    </g>
    <g clip-path="url(#p2f613c3939)">
     <use style="fill:#0000ff;stroke:#0000ff;stroke-width:2.025;" x="161.914616" xlink:href="#C1_0_fd050c612c" y="303.432082"/>
    </g>
    <g clip-path="url(#p2f613c3939)">
     <use style="fill:#0000ff;stroke:#0000ff;stroke-width:2.025;" x="185.559438" xlink:href="#C1_0_fd050c612c" y="226.262397"/>
    </g>
    <g clip-path="url(#p2f613c3939)">
     <use style="fill:#0000ff;stroke:#0000ff;stroke-width:2.025;" x="209.20426" xlink:href="#C1_0_fd050c612c" y="152.733093"/>
    </g>
    <g clip-path="url(#p2f613c3939)">
     <use style="fill:#0000ff;stroke:#0000ff;stroke-width:2.025;" x="232.849082" xlink:href="#C1_0_fd050c612c" y="367.727673"/>
    </g>
    <g clip-path="url(#p2f613c3939)">
     <use style="fill:#0000ff;stroke:#0000ff;stroke-width:2.025;" x="256.493904" xlink:href="#C1_0_fd050c612c" y="333.071727"/>
    </g>
    <g clip-path="url(#p2f613c3939)">
     <use style="fill:#0000ff;stroke:#0000ff;stroke-width:2.025;" x="280.138727" xlink:href="#C1_0_fd050c612c" y="316.934709"/>
    </g>
    <g clip-path="url(#p2f613c3939)">
     <use style="fill:#0000ff;stroke:#0000ff;stroke-width:2.025;" x="303.783549" xlink:href="#C1_0_fd050c612c" y="303.432082"/>
    </g>
    <g clip-path="url(#p2f613c3939)">
     <use style="fill:#0000ff;stroke:#0000ff;stroke-width:2.025;" x="327.428371" xlink:href="#C1_0_fd050c612c" y="226.262397"/>
    </g>
   </g>
   <g id="line2d_55">
    <path clip-path="url(#p2f613c3939)" d="M 67.335327 152.733093 
L 90.980149 367.727673 
L 114.624971 333.071727 
L 138.269793 316.934709 
L 161.914616 303.432082 
L 185.559438 226.262397 
L 209.20426 152.733093 
L 232.849082 367.727673 
L 256.493904 333.071727 
L 280.138727 316.934709 
L 303.783549 303.432082 
L 327.428371 226.262397 
" style="fill:none;stroke:#0000ff;stroke-linecap:square;stroke-width:2.7;"/>
   </g>
   <g id="line2d_56">
    <path clip-path="url(#p2f613c3939)" d="M 67.335327 266.340448 
L 67.335327 72.510462 
" style="fill:none;stroke:#0000ff;stroke-linecap:square;"/>
   </g>
   <g id="line2d_57">
    <path clip-path="url(#p2f613c3939)" d="M 64.970844 266.340448 
L 69.699809 266.340448 
" style="fill:none;stroke:#0000ff;stroke-linecap:square;"/>
   </g>
   <g id="line2d_58">
    <path clip-path="url(#p2f613c3939)" d="M 64.970844 72.510462 
L 69.699809 72.510462 
" style="fill:none;stroke:#0000ff;stroke-linecap:square;"/>
   </g>
   <g id="line2d_59">
    <path clip-path="url(#p2f613c3939)" d="M 90.980149 378.98222 
L 90.980149 356.473126 
" style="fill:none;stroke:#0000ff;stroke-linecap:square;"/>
   </g>
   <g id="line2d_60">
    <path clip-path="url(#p2f613c3939)" d="M 88.615667 378.98222 
L 93.344631 378.98222 
" style="fill:none;stroke:#0000ff;stroke-linecap:square;"/>
   </g>
   <g id="line2d_61">
    <path clip-path="url(#p2f613c3939)" d="M 88.615667 356.473126 
L 93.344631 356.473126 
" style="fill:none;stroke:#0000ff;stroke-linecap:square;"/>
   </g>
   <g id="line2d_62">
    <path clip-path="url(#p2f613c3939)" d="M 114.624971 378.168035 
L 114.624971 287.975419 
" style="fill:none;stroke:#0000ff;stroke-linecap:square;"/>
   </g>
   <g id="line2d_63">
    <path clip-path="url(#p2f613c3939)" d="M 112.260489 378.168035 
L 116.989453 378.168035 
" style="fill:none;stroke:#0000ff;stroke-linecap:square;"/>
   </g>
   <g id="line2d_64">
    <path clip-path="url(#p2f613c3939)" d="M 112.260489 287.975419 
L 116.989453 287.975419 
" style="fill:none;stroke:#0000ff;stroke-linecap:square;"/>
   </g>
   <g id="line2d_65">
    <path clip-path="url(#p2f613c3939)" d="M 138.269793 371.355925 
L 138.269793 262.513492 
" style="fill:none;stroke:#0000ff;stroke-linecap:square;"/>
   </g>
   <g id="line2d_66">
    <path clip-path="url(#p2f613c3939)" d="M 135.905311 371.355925 
L 140.634276 371.355925 
" style="fill:none;stroke:#0000ff;stroke-linecap:square;"/>
   </g>
   <g id="line2d_67">
    <path clip-path="url(#p2f613c3939)" d="M 135.905311 262.513492 
L 140.634276 262.513492 
" style="fill:none;stroke:#0000ff;stroke-linecap:square;"/>
   </g>
   <g id="line2d_68">
    <path clip-path="url(#p2f613c3939)" d="M 161.914616 357.777009 
L 161.914616 249.087154 
" style="fill:none;stroke:#0000ff;stroke-linecap:square;"/>
   </g>
   <g id="line2d_69">
    <path clip-path="url(#p2f613c3939)" d="M 159.550133 357.777009 
L 164.279098 357.777009 
" style="fill:none;stroke:#0000ff;stroke-linecap:square;"/>
   </g>
   <g id="line2d_70">
    <path clip-path="url(#p2f613c3939)" d="M 159.550133 249.087154 
L 164.279098 249.087154 
" style="fill:none;stroke:#0000ff;stroke-linecap:square;"/>
   </g>
   <g id="line2d_71">
    <path clip-path="url(#p2f613c3939)" d="M 185.559438 332.164966 
L 185.559438 120.359828 
" style="fill:none;stroke:#0000ff;stroke-linecap:square;"/>
   </g>
   <g id="line2d_72">
    <path clip-path="url(#p2f613c3939)" d="M 183.194956 332.164966 
L 187.92392 332.164966 
" style="fill:none;stroke:#0000ff;stroke-linecap:square;"/>
   </g>
   <g id="line2d_73">
    <path clip-path="url(#p2f613c3939)" d="M 183.194956 120.359828 
L 187.92392 120.359828 
" style="fill:none;stroke:#0000ff;stroke-linecap:square;"/>
   </g>
   <g id="line2d_74">
    <path clip-path="url(#p2f613c3939)" d="M 209.20426 266.340448 
L 209.20426 39.125739 
" style="fill:none;stroke:#0000ff;stroke-linecap:square;"/>
   </g>
   <g id="line2d_75">
    <path clip-path="url(#p2f613c3939)" d="M 206.839778 266.340448 
L 211.568742 266.340448 
" style="fill:none;stroke:#0000ff;stroke-linecap:square;"/>
   </g>
   <g id="line2d_76">
    <path clip-path="url(#p2f613c3939)" d="M 206.839778 39.125739 
L 211.568742 39.125739 
" style="fill:none;stroke:#0000ff;stroke-linecap:square;"/>
   </g>
   <g id="line2d_77">
    <path clip-path="url(#p2f613c3939)" d="M 232.849082 378.98222 
L 232.849082 356.473126 
" style="fill:none;stroke:#0000ff;stroke-linecap:square;"/>
   </g>
   <g id="line2d_78">
    <path clip-path="url(#p2f613c3939)" d="M 230.4846 378.98222 
L 235.213564 378.98222 
" style="fill:none;stroke:#0000ff;stroke-linecap:square;"/>
   </g>
   <g id="line2d_79">
    <path clip-path="url(#p2f613c3939)" d="M 230.4846 356.473126 
L 235.213564 356.473126 
" style="fill:none;stroke:#0000ff;stroke-linecap:square;"/>
   </g>
   <g id="line2d_80">
    <path clip-path="url(#p2f613c3939)" d="M 256.493904 378.168035 
L 256.493904 287.975419 
" style="fill:none;stroke:#0000ff;stroke-linecap:square;"/>
   </g>
   <g id="line2d_81">
    <path clip-path="url(#p2f613c3939)" d="M 254.129422 378.168035 
L 258.858387 378.168035 
" style="fill:none;stroke:#0000ff;stroke-linecap:square;"/>
   </g>
   <g id="line2d_82">
    <path clip-path="url(#p2f613c3939)" d="M 254.129422 287.975419 
L 258.858387 287.975419 
" style="fill:none;stroke:#0000ff;stroke-linecap:square;"/>
   </g>
   <g id="line2d_83">
    <path clip-path="url(#p2f613c3939)" d="M 280.138727 371.355925 
L 280.138727 262.513492 
" style="fill:none;stroke:#0000ff;stroke-linecap:square;"/>
   </g>
   <g id="line2d_84">
    <path clip-path="url(#p2f613c3939)" d="M 277.774244 371.355925 
L 282.503209 371.355925 
" style="fill:none;stroke:#0000ff;stroke-linecap:square;"/>
   </g>
   <g id="line2d_85">
    <path clip-path="url(#p2f613c3939)" d="M 277.774244 262.513492 
L 282.503209 262.513492 
" style="fill:none;stroke:#0000ff;stroke-linecap:square;"/>
   </g>
   <g id="line2d_86">
    <path clip-path="url(#p2f613c3939)" d="M 303.783549 357.93974 
L 303.783549 249.087154 
" style="fill:none;stroke:#0000ff;stroke-linecap:square;"/>
   </g>
   <g id="line2d_87">
    <path clip-path="url(#p2f613c3939)" d="M 301.419067 357.93974 
L 306.148031 357.93974 
" style="fill:none;stroke:#0000ff;stroke-linecap:square;"/>
   </g>
   <g id="line2d_88">
    <path clip-path="url(#p2f613c3939)" d="M 301.419067 249.087154 
L 306.148031 249.087154 
" style="fill:none;stroke:#0000ff;stroke-linecap:square;"/>
   </g>
   <g id="line2d_89">
    <path clip-path="url(#p2f613c3939)" d="M 327.428371 332.164966 
L 327.428371 120.359828 
" style="fill:none;stroke:#0000ff;stroke-linecap:square;"/>
   </g>
   <g id="line2d_90">
    <path clip-path="url(#p2f613c3939)" d="M 325.063889 332.164966 
L 329.792853 332.164966 
" style="fill:none;stroke:#0000ff;stroke-linecap:square;"/>
   </g>
   <g id="line2d_91">
    <path clip-path="url(#p2f613c3939)" d="M 325.063889 120.359828 
L 329.792853 120.359828 
" style="fill:none;stroke:#0000ff;stroke-linecap:square;"/>
   </g>
   <g id="line2d_92">
    <path clip-path="url(#p2f613c3939)" d="M 197.381849 403.189375 
L 197.381849 21.789375 
" style="fill:none;stroke:#000000;stroke-dasharray:5.55,2.4;stroke-dashoffset:0;stroke-width:1.5;"/>
   </g>
   <g id="patch_5">
    <path d="M 50.464375 403.189375 
L 50.464375 21.789375 
" style="fill:none;stroke:#000000;stroke-linecap:square;stroke-linejoin:miter;stroke-width:0.8;"/>
   </g>
   <g id="patch_6">
    <path d="M 50.464375 403.189375 
L 353.002516 403.189375 
" style="fill:none;stroke:#000000;stroke-linecap:square;stroke-linejoin:miter;stroke-width:0.8;"/>
   </g>
   <g id="text_20">
    <text style="font-family:Arial;font-size:12px;font-style:normal;font-weight:normal;text-anchor:middle;" transform="rotate(-0, 201.733445, 15.789375)" x="201.733445" y="15.789375">Stercobilin</text>
   </g>
  </g>
  <g id="legend_1">
   <g id="text_21">
    <text style="font-family:Arial;font-size:10px;font-style:normal;font-weight:normal;text-anchor:start;" transform="rotate(-0, 358.766703, 210.050313)" x="358.766703" y="210.050313">exposure_type</text>
   </g>
   <g id="PathCollection_3">
    <path d="M 378.953422 225.071761 
C 379.850856 225.071761 380.711654 224.715207 381.346235 224.080625 
C 381.980816 223.446044 382.33737 222.585246 382.33737 221.687813 
C 382.33737 220.790379 381.980816 219.929581 381.346235 219.295 
C 380.711654 218.660418 379.850856 218.303864 378.953422 218.303864 
C 378.055989 218.303864 377.195191 218.660418 376.560609 219.295 
C 375.926028 219.929581 375.569474 220.790379 375.569474 221.687813 
C 375.569474 222.585246 375.926028 223.446044 376.560609 224.080625 
C 377.195191 224.715207 378.055989 225.071761 378.953422 225.071761 
z
" style="fill:#ff0000;stroke:#ff0000;stroke-width:2.025;"/>
   </g>
   <g id="text_22">
    <text style="font-family:Arial;font-size:10px;font-style:normal;font-weight:normal;text-anchor:start;" transform="rotate(-0, 396.953422, 224.312813)" x="396.953422" y="224.312813">Air</text>
   </g>
   <g id="PathCollection_4">
    <path d="M 378.953422 239.217073 
C 379.850856 239.217073 380.711654 238.860519 381.346235 238.225938 
C 381.980816 237.591356 382.33737 236.730559 382.33737 235.833125 
C 382.33737 234.935691 381.980816 234.074894 381.346235 233.440312 
C 380.711654 232.805731 379.850856 232.449177 378.953422 232.449177 
C 378.055989 232.449177 377.195191 232.805731 376.560609 233.440312 
C 375.926028 234.074894 375.569474 234.935691 375.569474 235.833125 
C 375.569474 236.730559 375.926028 237.591356 376.560609 238.225938 
C 377.195191 238.860519 378.055989 239.217073 378.953422 239.217073 
z
" style="fill:#0000ff;stroke:#0000ff;stroke-width:2.025;"/>
   </g>
   <g id="text_23">
    <text style="font-family:Arial;font-size:10px;font-style:normal;font-weight:normal;text-anchor:start;" transform="rotate(-0, 396.953422, 238.458125)" x="396.953422" y="238.458125">IHC</text>
   </g>
  </g>
 </g>
 <defs>
  <clipPath id="p2f613c3939">
   <rect height="381.4" width="302.538141" x="50.464375" y="21.789375"/>
  </clipPath>
 </defs>
</svg>
