<?xml version="1.0" encoding="utf-8" standalone="no"?>
<!DOCTYPE svg PUBLIC "-//W3C//DTD SVG 1.1//EN"
  "http://www.w3.org/Graphics/SVG/1.1/DTD/svg11.dtd">
<!-- Created with matplotlib (https://matplotlib.org/) -->
<svg height="287.79875pt" version="1.1" viewBox="0 0 456.865313 287.79875" width="456.865313pt" xmlns="http://www.w3.org/2000/svg" xmlns:xlink="http://www.w3.org/1999/xlink">
 <defs>
  <style type="text/css">
*{stroke-linecap:butt;stroke-linejoin:round;white-space:pre;}
  </style>
 </defs>
 <g id="figure_1">
  <g id="patch_1">
   <path d="M 0 287.79875 
L 456.865313 287.79875 
L 456.865313 0 
L 0 0 
z
" style="fill:#ffffff;"/>
  </g>
  <g id="axes_1">
   <g id="patch_2">
    <path d="M 44.903438 245.199375 
L 379.703438 245.199375 
L 379.703438 27.759375 
L 44.903438 27.759375 
z
" style="fill:#ffffff;"/>
   </g>
   <g id="patch_3">
    <path clip-path="url(#p70b871a702)" d="M 62.313038 199.985546 
L 127.933838 199.985546 
L 127.933838 177.502551 
L 62.313038 177.502551 
L 62.313038 199.985546 
z
" style="fill:#df2020;stroke:#4c4c4c;stroke-linejoin:miter;stroke-width:1.5;"/>
   </g>
   <g id="patch_4">
    <path clip-path="url(#p70b871a702)" d="M 129.273038 170.91472 
L 194.893838 170.91472 
L 194.893838 108.307618 
L 129.273038 108.307618 
L 129.273038 170.91472 
z
" style="fill:#2020df;stroke:#4c4c4c;stroke-linejoin:miter;stroke-width:1.5;"/>
   </g>
   <g id="patch_5">
    <path clip-path="url(#p70b871a702)" d="M 229.713038 210.485503 
L 295.333838 210.485503 
L 295.333838 159.449539 
L 229.713038 159.449539 
L 229.713038 210.485503 
z
" style="fill:#df2020;stroke:#4c4c4c;stroke-linejoin:miter;stroke-width:1.5;"/>
   </g>
   <g id="patch_6">
    <path clip-path="url(#p70b871a702)" d="M 296.673038 215.449064 
L 362.293837 215.449064 
L 362.293837 188.987977 
L 296.673038 188.987977 
L 296.673038 215.449064 
z
" style="fill:#2020df;stroke:#4c4c4c;stroke-linejoin:miter;stroke-width:1.5;"/>
   </g>
   <g id="PathCollection_1"/>
   <g id="PathCollection_2"/>
   <g id="patch_7">
    <path clip-path="url(#p70b871a702)" d="M 128.603438 251.063102 
L 128.603438 251.063102 
L 128.603438 251.063102 
L 128.603438 251.063102 
z
" style="fill:#df2020;stroke:#4c4c4c;stroke-linejoin:miter;stroke-width:0.75;"/>
   </g>
   <g id="patch_8">
    <path clip-path="url(#p70b871a702)" d="M 128.603438 251.063102 
L 128.603438 251.063102 
L 128.603438 251.063102 
L 128.603438 251.063102 
z
" style="fill:#2020df;stroke:#4c4c4c;stroke-linejoin:miter;stroke-width:0.75;"/>
   </g>
   <g id="matplotlib.axis_1">
    <g id="xtick_1">
     <g id="line2d_1">
      <defs>
       <path d="M 0 0 
L 0 3.5 
" id="mafcf50d2c5" style="stroke:#000000;stroke-width:0.8;"/>
      </defs>
      <g>
       <use style="stroke:#000000;stroke-width:0.8;" x="128.603438" xlink:href="#mafcf50d2c5" y="245.199375"/>
      </g>
     </g>
     <g id="text_1">
      <text style="font-family:Arial;font-size:12px;font-style:normal;font-weight:normal;text-anchor:middle;" transform="rotate(-0, 128.603438, 260.935)" x="128.603438" y="260.935">Light/Inactive</text>
     </g>
    </g>
    <g id="xtick_2">
     <g id="line2d_2">
      <g>
       <use style="stroke:#000000;stroke-width:0.8;" x="296.003438" xlink:href="#mafcf50d2c5" y="245.199375"/>
      </g>
     </g>
     <g id="text_2">
      <text style="font-family:Arial;font-size:12px;font-style:normal;font-weight:normal;text-anchor:middle;" transform="rotate(-0, 296.003438, 260.935)" x="296.003438" y="260.935">Night/Active</text>
     </g>
    </g>
    <g id="text_3">
     <text style="font-family:Arial;font-size:14px;font-style:normal;font-weight:normal;text-anchor:middle;" transform="rotate(-0, 212.303438, 277.652187)" x="212.303438" y="277.652187">Phase of Cycle</text>
    </g>
   </g>
   <g id="matplotlib.axis_2">
    <g id="ytick_1">
     <g id="line2d_3">
      <defs>
       <path d="M 0 0 
L -3.5 0 
" id="m6750c26c77" style="stroke:#000000;stroke-width:0.8;"/>
      </defs>
      <g>
       <use style="stroke:#000000;stroke-width:0.8;" x="44.903438" xlink:href="#m6750c26c77" y="210.65864"/>
      </g>
     </g>
     <g id="text_4">
      <text style="font-family:Arial;font-size:10px;font-style:normal;font-weight:normal;text-anchor:end;" transform="rotate(-0, 37.903438, 214.237546)" x="37.903438" y="214.237546">0.2</text>
     </g>
    </g>
    <g id="ytick_2">
     <g id="line2d_4">
      <g>
       <use style="stroke:#000000;stroke-width:0.8;" x="44.903438" xlink:href="#m6750c26c77" y="170.254177"/>
      </g>
     </g>
     <g id="text_5">
      <text style="font-family:Arial;font-size:10px;font-style:normal;font-weight:normal;text-anchor:end;" transform="rotate(-0, 37.903438, 173.833084)" x="37.903438" y="173.833084">0.4</text>
     </g>
    </g>
    <g id="ytick_3">
     <g id="line2d_5">
      <g>
       <use style="stroke:#000000;stroke-width:0.8;" x="44.903438" xlink:href="#m6750c26c77" y="129.849715"/>
      </g>
     </g>
     <g id="text_6">
      <text style="font-family:Arial;font-size:10px;font-style:normal;font-weight:normal;text-anchor:end;" transform="rotate(-0, 37.903438, 133.428622)" x="37.903438" y="133.428622">0.6</text>
     </g>
    </g>
    <g id="ytick_4">
     <g id="line2d_6">
      <g>
       <use style="stroke:#000000;stroke-width:0.8;" x="44.903438" xlink:href="#m6750c26c77" y="89.445253"/>
      </g>
     </g>
     <g id="text_7">
      <text style="font-family:Arial;font-size:10px;font-style:normal;font-weight:normal;text-anchor:end;" transform="rotate(-0, 37.903438, 93.02416)" x="37.903438" y="93.02416">0.8</text>
     </g>
    </g>
    <g id="ytick_5">
     <g id="line2d_7">
      <g>
       <use style="stroke:#000000;stroke-width:0.8;" x="44.903438" xlink:href="#m6750c26c77" y="49.040791"/>
      </g>
     </g>
     <g id="text_8">
      <text style="font-family:Arial;font-size:10px;font-style:normal;font-weight:normal;text-anchor:end;" transform="rotate(-0, 37.903438, 52.619698)" x="37.903438" y="52.619698">1.0</text>
     </g>
    </g>
    <g id="text_9">
     <text style="font-family:Arial;font-size:14px;font-style:normal;font-weight:normal;text-anchor:middle;" transform="rotate(-90, 17.220938, 136.479375)" x="17.220938" y="136.479375">Relative Abundance</text>
    </g>
   </g>
   <g id="line2d_8">
    <path clip-path="url(#p70b871a702)" d="M 95.123438 199.985546 
L 95.123438 214.291812 
" style="fill:none;stroke:#4c4c4c;stroke-linecap:square;stroke-width:1.5;"/>
   </g>
   <g id="line2d_9">
    <path clip-path="url(#p70b871a702)" d="M 95.123438 177.502551 
L 95.123438 176.027505 
" style="fill:none;stroke:#4c4c4c;stroke-linecap:square;stroke-width:1.5;"/>
   </g>
   <g id="line2d_10">
    <path clip-path="url(#p70b871a702)" d="M 78.718238 214.291812 
L 111.528638 214.291812 
" style="fill:none;stroke:#4c4c4c;stroke-linecap:square;stroke-width:1.5;"/>
   </g>
   <g id="line2d_11">
    <path clip-path="url(#p70b871a702)" d="M 78.718238 176.027505 
L 111.528638 176.027505 
" style="fill:none;stroke:#4c4c4c;stroke-linecap:square;stroke-width:1.5;"/>
   </g>
   <g id="line2d_12">
    <defs>
     <path d="M -0 3.535534 
L 2.12132 0 
L -0 -3.535534 
L -2.12132 -0 
z
" id="m917c1f1d9f" style="stroke:#4c4c4c;stroke-linejoin:miter;"/>
    </defs>
    <g clip-path="url(#p70b871a702)">
     <use style="fill:#4c4c4c;stroke:#4c4c4c;stroke-linejoin:miter;" x="95.123438" xlink:href="#m917c1f1d9f" y="118.413332"/>
     <use style="fill:#4c4c4c;stroke:#4c4c4c;stroke-linejoin:miter;" x="95.123438" xlink:href="#m917c1f1d9f" y="135.278504"/>
     <use style="fill:#4c4c4c;stroke:#4c4c4c;stroke-linejoin:miter;" x="95.123438" xlink:href="#m917c1f1d9f" y="118.413332"/>
     <use style="fill:#4c4c4c;stroke:#4c4c4c;stroke-linejoin:miter;" x="95.123438" xlink:href="#m917c1f1d9f" y="135.278504"/>
    </g>
   </g>
   <g id="line2d_13">
    <path clip-path="url(#p70b871a702)" d="M 162.083438 170.91472 
L 162.083438 217.016715 
" style="fill:none;stroke:#4c4c4c;stroke-linecap:square;stroke-width:1.5;"/>
   </g>
   <g id="line2d_14">
    <path clip-path="url(#p70b871a702)" d="M 162.083438 108.307618 
L 162.083438 42.399351 
" style="fill:none;stroke:#4c4c4c;stroke-linecap:square;stroke-width:1.5;"/>
   </g>
   <g id="line2d_15">
    <path clip-path="url(#p70b871a702)" d="M 145.678238 217.016715 
L 178.488638 217.016715 
" style="fill:none;stroke:#4c4c4c;stroke-linecap:square;stroke-width:1.5;"/>
   </g>
   <g id="line2d_16">
    <path clip-path="url(#p70b871a702)" d="M 145.678238 42.399351 
L 178.488638 42.399351 
" style="fill:none;stroke:#4c4c4c;stroke-linecap:square;stroke-width:1.5;"/>
   </g>
   <g id="line2d_17"/>
   <g id="line2d_18">
    <path clip-path="url(#p70b871a702)" d="M 262.523438 210.485503 
L 262.523438 213.212618 
" style="fill:none;stroke:#4c4c4c;stroke-linecap:square;stroke-width:1.5;"/>
   </g>
   <g id="line2d_19">
    <path clip-path="url(#p70b871a702)" d="M 262.523438 159.449539 
L 262.523438 133.794178 
" style="fill:none;stroke:#4c4c4c;stroke-linecap:square;stroke-width:1.5;"/>
   </g>
   <g id="line2d_20">
    <path clip-path="url(#p70b871a702)" d="M 246.118238 213.212618 
L 278.928638 213.212618 
" style="fill:none;stroke:#4c4c4c;stroke-linecap:square;stroke-width:1.5;"/>
   </g>
   <g id="line2d_21">
    <path clip-path="url(#p70b871a702)" d="M 246.118238 133.794178 
L 278.928638 133.794178 
" style="fill:none;stroke:#4c4c4c;stroke-linecap:square;stroke-width:1.5;"/>
   </g>
   <g id="line2d_22"/>
   <g id="line2d_23">
    <path clip-path="url(#p70b871a702)" d="M 329.483438 215.449064 
L 329.483438 230.43909 
" style="fill:none;stroke:#4c4c4c;stroke-linecap:square;stroke-width:1.5;"/>
   </g>
   <g id="line2d_24">
    <path clip-path="url(#p70b871a702)" d="M 329.483438 188.987977 
L 329.483438 161.401818 
" style="fill:none;stroke:#4c4c4c;stroke-linecap:square;stroke-width:1.5;"/>
   </g>
   <g id="line2d_25">
    <path clip-path="url(#p70b871a702)" d="M 313.078238 230.43909 
L 345.888638 230.43909 
" style="fill:none;stroke:#4c4c4c;stroke-linecap:square;stroke-width:1.5;"/>
   </g>
   <g id="line2d_26">
    <path clip-path="url(#p70b871a702)" d="M 313.078238 161.401818 
L 345.888638 161.401818 
" style="fill:none;stroke:#4c4c4c;stroke-linecap:square;stroke-width:1.5;"/>
   </g>
   <g id="line2d_27"/>
   <g id="line2d_28">
    <path clip-path="url(#p70b871a702)" d="M 62.313038 192.466662 
L 127.933838 192.466662 
" style="fill:none;stroke:#4c4c4c;stroke-linecap:square;stroke-width:1.5;"/>
   </g>
   <g id="line2d_29">
    <path clip-path="url(#p70b871a702)" d="M 129.273038 148.212054 
L 194.893838 148.212054 
" style="fill:none;stroke:#4c4c4c;stroke-linecap:square;stroke-width:1.5;"/>
   </g>
   <g id="line2d_30">
    <path clip-path="url(#p70b871a702)" d="M 229.713038 195.266081 
L 295.333838 195.266081 
" style="fill:none;stroke:#4c4c4c;stroke-linecap:square;stroke-width:1.5;"/>
   </g>
   <g id="line2d_31">
    <path clip-path="url(#p70b871a702)" d="M 296.673038 202.493178 
L 362.293837 202.493178 
" style="fill:none;stroke:#4c4c4c;stroke-linecap:square;stroke-width:1.5;"/>
   </g>
   <g id="patch_9">
    <path d="M 44.903438 245.199375 
L 44.903438 27.759375 
" style="fill:none;stroke:#000000;stroke-linecap:square;stroke-linejoin:miter;stroke-width:0.8;"/>
   </g>
   <g id="patch_10">
    <path d="M 379.703438 245.199375 
L 379.703438 27.759375 
" style="fill:none;stroke:#000000;stroke-linecap:square;stroke-linejoin:miter;stroke-width:0.8;"/>
   </g>
   <g id="patch_11">
    <path d="M 44.903438 245.199375 
L 379.703438 245.199375 
" style="fill:none;stroke:#000000;stroke-linecap:square;stroke-linejoin:miter;stroke-width:0.8;"/>
   </g>
   <g id="patch_12">
    <path d="M 44.903438 27.759375 
L 379.703438 27.759375 
" style="fill:none;stroke:#000000;stroke-linecap:square;stroke-linejoin:miter;stroke-width:0.8;"/>
   </g>
   <g id="PathCollection_3">
    <defs>
     <path d="M 0 5 
C 1.326016 5 2.597899 4.473168 3.535534 3.535534 
C 4.473168 2.597899 5 1.326016 5 0 
C 5 -1.326016 4.473168 -2.597899 3.535534 -3.535534 
C 2.597899 -4.473168 1.326016 -5 0 -5 
C -1.326016 -5 -2.597899 -4.473168 -3.535534 -3.535534 
C -4.473168 -2.597899 -5 -1.326016 -5 0 
C -5 1.326016 -4.473168 2.597899 -3.535534 3.535534 
C -2.597899 4.473168 -1.326016 5 0 5 
z
" id="C0_0_008d905ebe"/>
    </defs>
    <g clip-path="url(#p70b871a702)">
     <use style="fill:#ff0000;stroke:#000000;" x="95.123437" xlink:href="#C0_0_008d905ebe" y="214.291812"/>
    </g>
    <g clip-path="url(#p70b871a702)">
     <use style="fill:#ff0000;stroke:#000000;" x="83.573437" xlink:href="#C0_0_008d905ebe" y="214.291812"/>
    </g>
    <g clip-path="url(#p70b871a702)">
     <use style="fill:#ff0000;stroke:#000000;" x="95.123437" xlink:href="#C0_0_008d905ebe" y="202.852192"/>
    </g>
    <g clip-path="url(#p70b871a702)">
     <use style="fill:#ff0000;stroke:#000000;" x="83.573437" xlink:href="#C0_0_008d905ebe" y="202.852192"/>
    </g>
    <g clip-path="url(#p70b871a702)">
     <use style="fill:#ff0000;stroke:#000000;" x="106.320763" xlink:href="#C0_0_008d905ebe" y="200.154683"/>
    </g>
    <g clip-path="url(#p70b871a702)">
     <use style="fill:#ff0000;stroke:#000000;" x="72.376112" xlink:href="#C0_0_008d905ebe" y="200.154683"/>
    </g>
    <g clip-path="url(#p70b871a702)">
     <use style="fill:#ff0000;stroke:#000000;" x="117.848897" xlink:href="#C0_0_008d905ebe" y="199.478135"/>
    </g>
    <g clip-path="url(#p70b871a702)">
     <use style="fill:#ff0000;stroke:#000000;" x="62.313038" xlink:href="#C0_0_008d905ebe" y="199.478135"/>
    </g>
    <g clip-path="url(#p70b871a702)">
     <use style="fill:#ff0000;stroke:#000000;" x="127.933838" xlink:href="#C0_0_008d905ebe" y="198.786961"/>
    </g>
    <g clip-path="url(#p70b871a702)">
     <use style="fill:#ff0000;stroke:#000000;" x="62.313038" xlink:href="#C0_0_008d905ebe" y="198.786961"/>
    </g>
    <g clip-path="url(#p70b871a702)">
     <use style="fill:#ff0000;stroke:#000000;" x="91.317165" xlink:href="#C0_0_008d905ebe" y="192.466662"/>
    </g>
    <g clip-path="url(#p70b871a702)">
     <use style="fill:#ff0000;stroke:#000000;" x="127.933838" xlink:href="#C0_0_008d905ebe" y="192.466662"/>
    </g>
    <g clip-path="url(#p70b871a702)">
     <use style="fill:#ff0000;stroke:#000000;" x="98.132107" xlink:href="#C0_0_008d905ebe" y="183.585535"/>
    </g>
    <g clip-path="url(#p70b871a702)">
     <use style="fill:#ff0000;stroke:#000000;" x="84.502222" xlink:href="#C0_0_008d905ebe" y="183.585535"/>
    </g>
    <g clip-path="url(#p70b871a702)">
     <use style="fill:#ff0000;stroke:#000000;" x="109.550178" xlink:href="#C0_0_008d905ebe" y="181.927688"/>
    </g>
    <g clip-path="url(#p70b871a702)">
     <use style="fill:#ff0000;stroke:#000000;" x="73.084151" xlink:href="#C0_0_008d905ebe" y="181.927688"/>
    </g>
    <g clip-path="url(#p70b871a702)">
     <use style="fill:#ff0000;stroke:#000000;" x="119.298105" xlink:href="#C0_0_008d905ebe" y="176.027505"/>
    </g>
    <g clip-path="url(#p70b871a702)">
     <use style="fill:#ff0000;stroke:#000000;" x="63.336224" xlink:href="#C0_0_008d905ebe" y="176.027505"/>
    </g>
    <g clip-path="url(#p70b871a702)">
     <use style="fill:#ff0000;stroke:#000000;" x="95.123437" xlink:href="#C0_0_008d905ebe" y="135.278504"/>
    </g>
    <g clip-path="url(#p70b871a702)">
     <use style="fill:#ff0000;stroke:#000000;" x="83.573437" xlink:href="#C0_0_008d905ebe" y="135.278504"/>
    </g>
    <g clip-path="url(#p70b871a702)">
     <use style="fill:#ff0000;stroke:#000000;" x="95.123437" xlink:href="#C0_0_008d905ebe" y="118.413332"/>
    </g>
    <g clip-path="url(#p70b871a702)">
     <use style="fill:#ff0000;stroke:#000000;" x="83.573437" xlink:href="#C0_0_008d905ebe" y="118.413332"/>
    </g>
   </g>
   <g id="PathCollection_4">
    <defs>
     <path d="M 0 5 
C 1.326016 5 2.597899 4.473168 3.535534 3.535534 
C 4.473168 2.597899 5 1.326016 5 0 
C 5 -1.326016 4.473168 -2.597899 3.535534 -3.535534 
C 2.597899 -4.473168 1.326016 -5 0 -5 
C -1.326016 -5 -2.597899 -4.473168 -3.535534 -3.535534 
C -4.473168 -2.597899 -5 -1.326016 -5 0 
C -5 1.326016 -4.473168 2.597899 -3.535534 3.535534 
C -2.597899 4.473168 -1.326016 5 0 5 
z
" id="C1_0_1daa9e5fd4"/>
    </defs>
    <g clip-path="url(#p70b871a702)">
     <use style="fill:#0000ff;stroke:#000000;" x="162.083438" xlink:href="#C1_0_1daa9e5fd4" y="217.016715"/>
    </g>
    <g clip-path="url(#p70b871a702)">
     <use style="fill:#0000ff;stroke:#000000;" x="150.533437" xlink:href="#C1_0_1daa9e5fd4" y="217.016715"/>
    </g>
    <g clip-path="url(#p70b871a702)">
     <use style="fill:#0000ff;stroke:#000000;" x="162.083438" xlink:href="#C1_0_1daa9e5fd4" y="200.679945"/>
    </g>
    <g clip-path="url(#p70b871a702)">
     <use style="fill:#0000ff;stroke:#000000;" x="150.533437" xlink:href="#C1_0_1daa9e5fd4" y="200.679945"/>
    </g>
    <g clip-path="url(#p70b871a702)">
     <use style="fill:#0000ff;stroke:#000000;" x="162.083438" xlink:href="#C1_0_1daa9e5fd4" y="175.050691"/>
    </g>
    <g clip-path="url(#p70b871a702)">
     <use style="fill:#0000ff;stroke:#000000;" x="150.533437" xlink:href="#C1_0_1daa9e5fd4" y="175.050691"/>
    </g>
    <g clip-path="url(#p70b871a702)">
     <use style="fill:#0000ff;stroke:#000000;" x="162.083438" xlink:href="#C1_0_1daa9e5fd4" y="158.506806"/>
    </g>
    <g clip-path="url(#p70b871a702)">
     <use style="fill:#0000ff;stroke:#000000;" x="150.533437" xlink:href="#C1_0_1daa9e5fd4" y="158.506806"/>
    </g>
    <g clip-path="url(#p70b871a702)">
     <use style="fill:#0000ff;stroke:#000000;" x="173.608743" xlink:href="#C1_0_1daa9e5fd4" y="157.787873"/>
    </g>
    <g clip-path="url(#p70b871a702)">
     <use style="fill:#0000ff;stroke:#000000;" x="139.008132" xlink:href="#C1_0_1daa9e5fd4" y="157.787873"/>
    </g>
    <g clip-path="url(#p70b871a702)">
     <use style="fill:#0000ff;stroke:#000000;" x="158.014356" xlink:href="#C1_0_1daa9e5fd4" y="148.212054"/>
    </g>
    <g clip-path="url(#p70b871a702)">
     <use style="fill:#0000ff;stroke:#000000;" x="146.464356" xlink:href="#C1_0_1daa9e5fd4" y="148.212054"/>
    </g>
    <g clip-path="url(#p70b871a702)">
     <use style="fill:#0000ff;stroke:#000000;" x="162.083438" xlink:href="#C1_0_1daa9e5fd4" y="125.585067"/>
    </g>
    <g clip-path="url(#p70b871a702)">
     <use style="fill:#0000ff;stroke:#000000;" x="150.533437" xlink:href="#C1_0_1daa9e5fd4" y="125.585067"/>
    </g>
    <g clip-path="url(#p70b871a702)">
     <use style="fill:#0000ff;stroke:#000000;" x="162.083438" xlink:href="#C1_0_1daa9e5fd4" y="109.440678"/>
    </g>
    <g clip-path="url(#p70b871a702)">
     <use style="fill:#0000ff;stroke:#000000;" x="150.533437" xlink:href="#C1_0_1daa9e5fd4" y="109.440678"/>
    </g>
    <g clip-path="url(#p70b871a702)">
     <use style="fill:#0000ff;stroke:#000000;" x="173.523988" xlink:href="#C1_0_1daa9e5fd4" y="107.929932"/>
    </g>
    <g clip-path="url(#p70b871a702)">
     <use style="fill:#0000ff;stroke:#000000;" x="139.092887" xlink:href="#C1_0_1daa9e5fd4" y="107.929932"/>
    </g>
    <g clip-path="url(#p70b871a702)">
     <use style="fill:#0000ff;stroke:#000000;" x="162.083438" xlink:href="#C1_0_1daa9e5fd4" y="93.36819"/>
    </g>
    <g clip-path="url(#p70b871a702)">
     <use style="fill:#0000ff;stroke:#000000;" x="150.533437" xlink:href="#C1_0_1daa9e5fd4" y="93.36819"/>
    </g>
    <g clip-path="url(#p70b871a702)">
     <use style="fill:#0000ff;stroke:#000000;" x="162.083438" xlink:href="#C1_0_1daa9e5fd4" y="42.399351"/>
    </g>
    <g clip-path="url(#p70b871a702)">
     <use style="fill:#0000ff;stroke:#000000;" x="150.533437" xlink:href="#C1_0_1daa9e5fd4" y="42.399351"/>
    </g>
   </g>
   <g id="PathCollection_5">
    <defs>
     <path d="M 0 5 
C 1.326016 5 2.597899 4.473168 3.535534 3.535534 
C 4.473168 2.597899 5 1.326016 5 0 
C 5 -1.326016 4.473168 -2.597899 3.535534 -3.535534 
C 2.597899 -4.473168 1.326016 -5 0 -5 
C -1.326016 -5 -2.597899 -4.473168 -3.535534 -3.535534 
C -4.473168 -2.597899 -5 -1.326016 -5 0 
C -5 1.326016 -4.473168 2.597899 -3.535534 3.535534 
C -2.597899 4.473168 -1.326016 5 0 5 
z
" id="C2_0_8b8da1ab5e"/>
    </defs>
    <g clip-path="url(#p70b871a702)">
     <use style="fill:#ff0000;stroke:#000000;" x="262.523438" xlink:href="#C2_0_8b8da1ab5e" y="213.212618"/>
    </g>
    <g clip-path="url(#p70b871a702)">
     <use style="fill:#ff0000;stroke:#000000;" x="250.973437" xlink:href="#C2_0_8b8da1ab5e" y="213.212618"/>
    </g>
    <g clip-path="url(#p70b871a702)">
     <use style="fill:#ff0000;stroke:#000000;" x="274.044541" xlink:href="#C2_0_8b8da1ab5e" y="212.435003"/>
    </g>
    <g clip-path="url(#p70b871a702)">
     <use style="fill:#ff0000;stroke:#000000;" x="239.452334" xlink:href="#C2_0_8b8da1ab5e" y="212.435003"/>
    </g>
    <g clip-path="url(#p70b871a702)">
     <use style="fill:#ff0000;stroke:#000000;" x="285.445411" xlink:href="#C2_0_8b8da1ab5e" y="210.673054"/>
    </g>
    <g clip-path="url(#p70b871a702)">
     <use style="fill:#ff0000;stroke:#000000;" x="229.713038" xlink:href="#C2_0_8b8da1ab5e" y="210.673054"/>
    </g>
    <g clip-path="url(#p70b871a702)">
     <use style="fill:#ff0000;stroke:#000000;" x="295.333838" xlink:href="#C2_0_8b8da1ab5e" y="210.422986"/>
    </g>
    <g clip-path="url(#p70b871a702)">
     <use style="fill:#ff0000;stroke:#000000;" x="229.713038" xlink:href="#C2_0_8b8da1ab5e" y="210.422986"/>
    </g>
    <g clip-path="url(#p70b871a702)">
     <use style="fill:#ff0000;stroke:#000000;" x="295.333838" xlink:href="#C2_0_8b8da1ab5e" y="204.47087"/>
    </g>
    <g clip-path="url(#p70b871a702)">
     <use style="fill:#ff0000;stroke:#000000;" x="295.333838" xlink:href="#C2_0_8b8da1ab5e" y="204.47087"/>
    </g>
    <g clip-path="url(#p70b871a702)">
     <use style="fill:#ff0000;stroke:#000000;" x="262.523438" xlink:href="#C2_0_8b8da1ab5e" y="196.681302"/>
    </g>
    <g clip-path="url(#p70b871a702)">
     <use style="fill:#ff0000;stroke:#000000;" x="250.973437" xlink:href="#C2_0_8b8da1ab5e" y="196.681302"/>
    </g>
    <g clip-path="url(#p70b871a702)">
     <use style="fill:#ff0000;stroke:#000000;" x="273.684528" xlink:href="#C2_0_8b8da1ab5e" y="193.850861"/>
    </g>
    <g clip-path="url(#p70b871a702)">
     <use style="fill:#ff0000;stroke:#000000;" x="239.812347" xlink:href="#C2_0_8b8da1ab5e" y="193.850861"/>
    </g>
    <g clip-path="url(#p70b871a702)">
     <use style="fill:#ff0000;stroke:#000000;" x="283.949722" xlink:href="#C2_0_8b8da1ab5e" y="188.80879"/>
    </g>
    <g clip-path="url(#p70b871a702)">
     <use style="fill:#ff0000;stroke:#000000;" x="229.713038" xlink:href="#C2_0_8b8da1ab5e" y="188.80879"/>
    </g>
    <g clip-path="url(#p70b871a702)">
     <use style="fill:#ff0000;stroke:#000000;" x="262.523438" xlink:href="#C2_0_8b8da1ab5e" y="161.21411"/>
    </g>
    <g clip-path="url(#p70b871a702)">
     <use style="fill:#ff0000;stroke:#000000;" x="250.973437" xlink:href="#C2_0_8b8da1ab5e" y="161.21411"/>
    </g>
    <g clip-path="url(#p70b871a702)">
     <use style="fill:#ff0000;stroke:#000000;" x="271.382143" xlink:href="#C2_0_8b8da1ab5e" y="154.155827"/>
    </g>
    <g clip-path="url(#p70b871a702)">
     <use style="fill:#ff0000;stroke:#000000;" x="282.932143" xlink:href="#C2_0_8b8da1ab5e" y="154.155827"/>
    </g>
    <g clip-path="url(#p70b871a702)">
     <use style="fill:#ff0000;stroke:#000000;" x="258.771114" xlink:href="#C2_0_8b8da1ab5e" y="150.810789"/>
    </g>
    <g clip-path="url(#p70b871a702)">
     <use style="fill:#ff0000;stroke:#000000;" x="247.221114" xlink:href="#C2_0_8b8da1ab5e" y="150.810789"/>
    </g>
    <g clip-path="url(#p70b871a702)">
     <use style="fill:#ff0000;stroke:#000000;" x="262.523438" xlink:href="#C2_0_8b8da1ab5e" y="133.794178"/>
    </g>
    <g clip-path="url(#p70b871a702)">
     <use style="fill:#ff0000;stroke:#000000;" x="250.973437" xlink:href="#C2_0_8b8da1ab5e" y="133.794178"/>
    </g>
   </g>
   <g id="PathCollection_6">
    <defs>
     <path d="M 0 5 
C 1.326016 5 2.597899 4.473168 3.535534 3.535534 
C 4.473168 2.597899 5 1.326016 5 0 
C 5 -1.326016 4.473168 -2.597899 3.535534 -3.535534 
C 2.597899 -4.473168 1.326016 -5 0 -5 
C -1.326016 -5 -2.597899 -4.473168 -3.535534 -3.535534 
C -4.473168 -2.597899 -5 -1.326016 -5 0 
C -5 1.326016 -4.473168 2.597899 -3.535534 3.535534 
C -2.597899 4.473168 -1.326016 5 0 5 
z
" id="C3_0_69fe7cf518"/>
    </defs>
    <g clip-path="url(#p70b871a702)">
     <use style="fill:#0000ff;stroke:#000000;" x="329.483438" xlink:href="#C3_0_69fe7cf518" y="230.43909"/>
    </g>
    <g clip-path="url(#p70b871a702)">
     <use style="fill:#0000ff;stroke:#000000;" x="317.933437" xlink:href="#C3_0_69fe7cf518" y="230.43909"/>
    </g>
    <g clip-path="url(#p70b871a702)">
     <use style="fill:#0000ff;stroke:#000000;" x="340.853921" xlink:href="#C3_0_69fe7cf518" y="228.507233"/>
    </g>
    <g clip-path="url(#p70b871a702)">
     <use style="fill:#0000ff;stroke:#000000;" x="306.562954" xlink:href="#C3_0_69fe7cf518" y="228.507233"/>
    </g>
    <g clip-path="url(#p70b871a702)">
     <use style="fill:#0000ff;stroke:#000000;" x="350.579975" xlink:href="#C3_0_69fe7cf518" y="222.574398"/>
    </g>
    <g clip-path="url(#p70b871a702)">
     <use style="fill:#0000ff;stroke:#000000;" x="296.8369" xlink:href="#C3_0_69fe7cf518" y="222.574398"/>
    </g>
    <g clip-path="url(#p70b871a702)">
     <use style="fill:#0000ff;stroke:#000000;" x="329.483438" xlink:href="#C3_0_69fe7cf518" y="213.073953"/>
    </g>
    <g clip-path="url(#p70b871a702)">
     <use style="fill:#0000ff;stroke:#000000;" x="317.933437" xlink:href="#C3_0_69fe7cf518" y="213.073953"/>
    </g>
    <g clip-path="url(#p70b871a702)">
     <use style="fill:#0000ff;stroke:#000000;" x="335.980647" xlink:href="#C3_0_69fe7cf518" y="203.9794"/>
    </g>
    <g clip-path="url(#p70b871a702)">
     <use style="fill:#0000ff;stroke:#000000;" x="311.436228" xlink:href="#C3_0_69fe7cf518" y="203.9794"/>
    </g>
    <g clip-path="url(#p70b871a702)">
     <use style="fill:#0000ff;stroke:#000000;" x="324.623002" xlink:href="#C3_0_69fe7cf518" y="203.095352"/>
    </g>
    <g clip-path="url(#p70b871a702)">
     <use style="fill:#0000ff;stroke:#000000;" x="347.493286" xlink:href="#C3_0_69fe7cf518" y="203.095352"/>
    </g>
    <g clip-path="url(#p70b871a702)">
     <use style="fill:#0000ff;stroke:#000000;" x="300.096296" xlink:href="#C3_0_69fe7cf518" y="201.891004"/>
    </g>
    <g clip-path="url(#p70b871a702)">
     <use style="fill:#0000ff;stroke:#000000;" x="358.973851" xlink:href="#C3_0_69fe7cf518" y="201.891004"/>
    </g>
    <g clip-path="url(#p70b871a702)">
     <use style="fill:#0000ff;stroke:#000000;" x="296.673038" xlink:href="#C3_0_69fe7cf518" y="195.34015"/>
    </g>
    <g clip-path="url(#p70b871a702)">
     <use style="fill:#0000ff;stroke:#000000;" x="362.293837" xlink:href="#C3_0_69fe7cf518" y="195.34015"/>
    </g>
    <g clip-path="url(#p70b871a702)">
     <use style="fill:#0000ff;stroke:#000000;" x="329.483438" xlink:href="#C3_0_69fe7cf518" y="189.493409"/>
    </g>
    <g clip-path="url(#p70b871a702)">
     <use style="fill:#0000ff;stroke:#000000;" x="317.933437" xlink:href="#C3_0_69fe7cf518" y="189.493409"/>
    </g>
    <g clip-path="url(#p70b871a702)">
     <use style="fill:#0000ff;stroke:#000000;" x="340.836682" xlink:href="#C3_0_69fe7cf518" y="187.471682"/>
    </g>
    <g clip-path="url(#p70b871a702)">
     <use style="fill:#0000ff;stroke:#000000;" x="306.580193" xlink:href="#C3_0_69fe7cf518" y="187.471682"/>
    </g>
    <g clip-path="url(#p70b871a702)">
     <use style="fill:#0000ff;stroke:#000000;" x="352.314508" xlink:href="#C3_0_69fe7cf518" y="186.243878"/>
    </g>
    <g clip-path="url(#p70b871a702)">
     <use style="fill:#0000ff;stroke:#000000;" x="296.673038" xlink:href="#C3_0_69fe7cf518" y="186.243878"/>
    </g>
    <g clip-path="url(#p70b871a702)">
     <use style="fill:#0000ff;stroke:#000000;" x="329.483438" xlink:href="#C3_0_69fe7cf518" y="161.401818"/>
    </g>
    <g clip-path="url(#p70b871a702)">
     <use style="fill:#0000ff;stroke:#000000;" x="317.933437" xlink:href="#C3_0_69fe7cf518" y="161.401818"/>
    </g>
   </g>
   <g id="text_10">
    <text style="font-family:Arial;font-size:20px;font-style:normal;font-weight:normal;text-anchor:middle;" transform="rotate(-0, 212.303438, 21.759375)" x="212.303438" y="21.759375">PC_18:0_14:0</text>
   </g>
   <g id="legend_1">
    <g id="patch_13">
     <path d="M 398.443438 87.340625 
L 447.665313 87.340625 
Q 449.665313 87.340625 449.665313 85.340625 
L 449.665313 29.759375 
Q 449.665313 27.759375 447.665313 27.759375 
L 398.443438 27.759375 
Q 396.443438 27.759375 396.443438 29.759375 
L 396.443438 85.340625 
Q 396.443438 87.340625 398.443438 87.340625 
z
" style="fill:#ffffff;opacity:0.8;stroke:#cccccc;stroke-linejoin:miter;"/>
    </g>
    <g id="patch_14">
     <path d="M 400.443438 38.917187 
L 420.443438 38.917187 
L 420.443438 31.917187 
L 400.443438 31.917187 
z
" style="fill:#df2020;stroke:#4c4c4c;stroke-linejoin:miter;stroke-width:0.75;"/>
    </g>
    <g id="text_11">
     <text style="font-family:Arial;font-size:10px;font-style:normal;font-weight:normal;text-anchor:start;" transform="rotate(-0, 428.443438, 38.917187)" x="428.443438" y="38.917187">Air</text>
    </g>
    <g id="patch_15">
     <path d="M 400.443438 53.0625 
L 420.443438 53.0625 
L 420.443438 46.0625 
L 400.443438 46.0625 
z
" style="fill:#2020df;stroke:#4c4c4c;stroke-linejoin:miter;stroke-width:0.75;"/>
    </g>
    <g id="text_12">
     <text style="font-family:Arial;font-size:10px;font-style:normal;font-weight:normal;text-anchor:start;" transform="rotate(-0, 428.443438, 53.0625)" x="428.443438" y="53.0625">IHC</text>
    </g>
    <g id="PathCollection_7">
     <defs>
      <path d="M 0 3.872983 
C 1.027127 3.872983 2.012324 3.464901 2.738613 2.738613 
C 3.464901 2.012324 3.872983 1.027127 3.872983 0 
C 3.872983 -1.027127 3.464901 -2.012324 2.738613 -2.738613 
C 2.012324 -3.464901 1.027127 -3.872983 0 -3.872983 
C -1.027127 -3.872983 -2.012324 -3.464901 -2.738613 -2.738613 
C -3.464901 -2.012324 -3.872983 -1.027127 -3.872983 0 
C -3.872983 1.027127 -3.464901 2.012324 -2.738613 2.738613 
C -2.012324 3.464901 -1.027127 3.872983 0 3.872983 
z
" id="m4008d0f7b0" style="stroke:#ff0000;"/>
     </defs>
     <g>
      <use style="fill:#ff0000;stroke:#ff0000;" x="410.443438" xlink:href="#m4008d0f7b0" y="64.582812"/>
     </g>
    </g>
    <g id="text_13">
     <text style="font-family:Arial;font-size:10px;font-style:normal;font-weight:normal;text-anchor:start;" transform="rotate(-0, 428.443438, 67.207812)" x="428.443438" y="67.207812">Air</text>
    </g>
    <g id="PathCollection_8">
     <defs>
      <path d="M 0 3.872983 
C 1.027127 3.872983 2.012324 3.464901 2.738613 2.738613 
C 3.464901 2.012324 3.872983 1.027127 3.872983 0 
C 3.872983 -1.027127 3.464901 -2.012324 2.738613 -2.738613 
C 2.012324 -3.464901 1.027127 -3.872983 0 -3.872983 
C -1.027127 -3.872983 -2.012324 -3.464901 -2.738613 -2.738613 
C -3.464901 -2.012324 -3.872983 -1.027127 -3.872983 0 
C -3.872983 1.027127 -3.464901 2.012324 -2.738613 2.738613 
C -2.012324 3.464901 -1.027127 3.872983 0 3.872983 
z
" id="m681ceb7b2a" style="stroke:#0000ff;"/>
     </defs>
     <g>
      <use style="fill:#0000ff;stroke:#0000ff;" x="410.443438" xlink:href="#m681ceb7b2a" y="78.728125"/>
     </g>
    </g>
    <g id="text_14">
     <text style="font-family:Arial;font-size:10px;font-style:normal;font-weight:normal;text-anchor:start;" transform="rotate(-0, 428.443438, 81.353125)" x="428.443438" y="81.353125">IHC</text>
    </g>
   </g>
  </g>
 </g>
 <defs>
  <clipPath id="p70b871a702">
   <rect height="217.44" width="334.8" x="44.903438" y="27.759375"/>
  </clipPath>
 </defs>
</svg>
