<?xml version="1.0" encoding="utf-8" standalone="no"?>
<!DOCTYPE svg PUBLIC "-//W3C//DTD SVG 1.1//EN"
  "http://www.w3.org/Graphics/SVG/1.1/DTD/svg11.dtd">
<!-- Created with matplotlib (https://matplotlib.org/) -->
<svg height="266.494844pt" version="1.1" viewBox="0 0 398.36875 266.494844" width="398.36875pt" xmlns="http://www.w3.org/2000/svg" xmlns:xlink="http://www.w3.org/1999/xlink">
 <defs>
  <style type="text/css">
*{stroke-linecap:butt;stroke-linejoin:round;white-space:pre;}
  </style>
 </defs>
 <g id="figure_1">
  <g id="patch_1">
   <path d="M 0 266.494844 
L 398.36875 266.494844 
L 398.36875 0 
L 0 0 
z
" style="fill:#ffffff;"/>
  </g>
  <g id="axes_1">
   <g id="patch_2">
    <path d="M 50.807813 226.011406 
L 385.607813 226.011406 
L 385.607813 8.571406 
L 50.807813 8.571406 
z
" style="fill:#ffffff;"/>
   </g>
   <g id="PolyCollection_1">
    <path clip-path="url(#pe0dee9a4d2)" d="M 8.957813 225.656009 
L 8.957813 226.011406 
L 11.813718 226.011406 
L 14.669624 226.011406 
L 17.525529 226.011406 
L 20.381435 226.011406 
L 23.23734 226.011406 
L 26.093246 226.011406 
L 28.949151 226.011406 
L 31.805057 226.011406 
L 34.660962 226.011406 
L 37.516868 226.011406 
L 40.372773 226.011406 
L 43.228679 226.011406 
L 46.084584 226.011406 
L 48.94049 226.011406 
L 51.796395 226.011406 
L 54.652301 226.011406 
L 57.508206 226.011406 
L 60.364112 226.011406 
L 63.220017 226.011406 
L 66.075923 226.011406 
L 68.931828 226.011406 
L 71.787734 226.011406 
L 74.643639 226.011406 
L 77.499545 226.011406 
L 80.35545 226.011406 
L 83.211356 226.011406 
L 86.067261 226.011406 
L 88.923167 226.011406 
L 91.779072 226.011406 
L 94.634978 226.011406 
L 97.490883 226.011406 
L 100.346789 226.011406 
L 103.202694 226.011406 
L 106.0586 226.011406 
L 108.914505 226.011406 
L 111.770411 226.011406 
L 114.626316 226.011406 
L 117.482222 226.011406 
L 120.338127 226.011406 
L 123.194033 226.011406 
L 126.049938 226.011406 
L 128.905844 226.011406 
L 131.76175 226.011406 
L 134.617655 226.011406 
L 137.473561 226.011406 
L 140.329466 226.011406 
L 143.185372 226.011406 
L 146.041277 226.011406 
L 148.897183 226.011406 
L 151.753088 226.011406 
L 154.608994 226.011406 
L 157.464899 226.011406 
L 160.320805 226.011406 
L 163.17671 226.011406 
L 166.032616 226.011406 
L 168.888521 226.011406 
L 171.744427 226.011406 
L 174.600332 226.011406 
L 177.456238 226.011406 
L 180.312143 226.011406 
L 183.168049 226.011406 
L 186.023954 226.011406 
L 188.87986 226.011406 
L 191.735765 226.011406 
L 194.591671 226.011406 
L 197.447576 226.011406 
L 200.303482 226.011406 
L 203.159387 226.011406 
L 206.015293 226.011406 
L 208.871198 226.011406 
L 211.727104 226.011406 
L 214.583009 226.011406 
L 217.438915 226.011406 
L 220.29482 226.011406 
L 223.150726 226.011406 
L 226.006631 226.011406 
L 228.862537 226.011406 
L 231.718442 226.011406 
L 234.574348 226.011406 
L 237.430253 226.011406 
L 240.286159 226.011406 
L 243.142064 226.011406 
L 245.99797 226.011406 
L 248.853875 226.011406 
L 251.709781 226.011406 
L 254.565687 226.011406 
L 257.421592 226.011406 
L 260.277498 226.011406 
L 263.133403 226.011406 
L 265.989309 226.011406 
L 268.845214 226.011406 
L 271.70112 226.011406 
L 274.557025 226.011406 
L 277.412931 226.011406 
L 280.268836 226.011406 
L 283.124742 226.011406 
L 285.980647 226.011406 
L 288.836553 226.011406 
L 291.692458 226.011406 
L 294.548364 226.011406 
L 297.404269 226.011406 
L 300.260175 226.011406 
L 303.11608 226.011406 
L 305.971986 226.011406 
L 308.827891 226.011406 
L 311.683797 226.011406 
L 314.539702 226.011406 
L 317.395608 226.011406 
L 320.251513 226.011406 
L 323.107419 226.011406 
L 325.963324 226.011406 
L 328.81923 226.011406 
L 331.675135 226.011406 
L 334.531041 226.011406 
L 337.386946 226.011406 
L 340.242852 226.011406 
L 343.098757 226.011406 
L 345.954663 226.011406 
L 348.810568 226.011406 
L 351.666474 226.011406 
L 354.522379 226.011406 
L 357.378285 226.011406 
L 360.23419 226.011406 
L 363.090096 226.011406 
L 365.946001 226.011406 
L 368.801907 226.011406 
L 371.657812 226.011406 
L 371.657812 225.4606 
L 371.657812 225.4606 
L 368.801907 225.083121 
L 365.946001 224.445129 
L 363.090096 223.442346 
L 360.23419 221.951849 
L 357.378285 219.847676 
L 354.522379 217.025599 
L 351.666474 213.435038 
L 348.810568 209.11248 
L 345.954663 204.207511 
L 343.098757 198.991235 
L 340.242852 193.838871 
L 337.386946 189.184035 
L 334.531041 185.450508 
L 331.675135 182.975584 
L 328.81923 181.944031 
L 325.963324 182.350823 
L 323.107419 184.003578 
L 320.251513 186.564124 
L 317.395608 189.616905 
L 314.539702 192.744257 
L 311.683797 195.588013 
L 308.827891 197.88344 
L 305.971986 199.462559 
L 303.11608 200.23512 
L 300.260175 200.162485 
L 297.404269 199.239882 
L 294.548364 197.496204 
L 291.692458 195.010297 
L 288.836553 191.933017 
L 285.980647 188.499262 
L 283.124742 185.016156 
L 280.268836 181.822149 
L 277.412931 179.223868 
L 274.557025 177.428168 
L 271.70112 176.491378 
L 268.845214 176.30373 
L 265.989309 176.615361 
L 263.133403 177.095309 
L 260.277498 177.4026 
L 257.421592 177.244134 
L 254.565687 176.399969 
L 251.709781 174.710971 
L 248.853875 172.041011 
L 245.99797 168.238786 
L 243.142064 163.126765 
L 240.286159 156.534497 
L 237.430253 148.373482 
L 234.574348 138.728534 
L 231.718442 127.925701 
L 228.862537 116.537079 
L 226.006631 105.300909 
L 223.150726 94.966298 
L 220.29482 86.10465 
L 217.438915 78.950754 
L 214.583009 73.334888 
L 211.727104 68.740626 
L 208.871198 64.479233 
L 206.015293 59.926352 
L 203.159387 54.738635 
L 200.303482 48.969882 
L 197.447576 43.040044 
L 194.591671 37.564857 
L 191.735765 33.108554 
L 188.87986 29.955089 
L 186.023954 27.990304 
L 183.168049 26.747788 
L 180.312143 25.609086 
L 177.456238 24.087919 
L 174.600332 22.092318 
L 171.744427 20.062559 
L 168.888521 18.925692 
L 166.032616 19.873119 
L 163.17671 24.031133 
L 160.320805 32.131622 
L 157.464899 44.288146 
L 154.608994 59.94366 
L 151.753088 77.996557 
L 148.897183 97.054556 
L 146.041277 115.731384 
L 143.185372 132.898962 
L 140.329466 147.834553 
L 137.473561 160.244529 
L 134.617655 170.187001 
L 131.76175 177.940884 
L 128.905844 183.873318 
L 126.049938 188.343661 
L 123.194033 191.659107 
L 120.338127 194.074642 
L 117.482222 195.816199 
L 114.626316 197.103519 
L 111.770411 198.156618 
L 108.914505 199.181881 
L 106.0586 200.345058 
L 103.202694 201.744493 
L 100.346789 203.397311 
L 97.490883 205.245305 
L 94.634978 207.17909 
L 91.779072 209.072252 
L 88.923167 210.814295 
L 86.067261 212.332709 
L 83.211356 213.599512 
L 80.35545 214.62354 
L 77.499545 215.434498 
L 74.643639 216.066527 
L 71.787734 216.547669 
L 68.931828 216.89805 
L 66.075923 217.135507 
L 63.220017 217.284341 
L 60.364112 217.382045 
L 57.508206 217.480091 
L 54.652301 217.637693 
L 51.796395 217.910389 
L 48.94049 218.337394 
L 46.084584 218.932021 
L 43.228679 219.678308 
L 40.372773 220.534705 
L 37.516868 221.44341 
L 34.660962 222.342338 
L 31.805057 223.176371 
L 28.949151 223.905244 
L 26.093246 224.506806 
L 23.23734 224.975826 
L 20.381435 225.319492 
L 17.525529 225.551104 
L 14.669624 225.683217 
L 11.813718 225.720995 
L 8.957813 225.656009 
z
" style="fill:#ff0000;fill-opacity:0.25;"/>
   </g>
   <g id="PolyCollection_2">
    <path clip-path="url(#pe0dee9a4d2)" d="M 8.957813 225.267539 
L 8.957813 226.011406 
L 11.813718 226.011406 
L 14.669624 226.011406 
L 17.525529 226.011406 
L 20.381435 226.011406 
L 23.23734 226.011406 
L 26.093246 226.011406 
L 28.949151 226.011406 
L 31.805057 226.011406 
L 34.660962 226.011406 
L 37.516868 226.011406 
L 40.372773 226.011406 
L 43.228679 226.011406 
L 46.084584 226.011406 
L 48.94049 226.011406 
L 51.796395 226.011406 
L 54.652301 226.011406 
L 57.508206 226.011406 
L 60.364112 226.011406 
L 63.220017 226.011406 
L 66.075923 226.011406 
L 68.931828 226.011406 
L 71.787734 226.011406 
L 74.643639 226.011406 
L 77.499545 226.011406 
L 80.35545 226.011406 
L 83.211356 226.011406 
L 86.067261 226.011406 
L 88.923167 226.011406 
L 91.779072 226.011406 
L 94.634978 226.011406 
L 97.490883 226.011406 
L 100.346789 226.011406 
L 103.202694 226.011406 
L 106.0586 226.011406 
L 108.914505 226.011406 
L 111.770411 226.011406 
L 114.626316 226.011406 
L 117.482222 226.011406 
L 120.338127 226.011406 
L 123.194033 226.011406 
L 126.049938 226.011406 
L 128.905844 226.011406 
L 131.76175 226.011406 
L 134.617655 226.011406 
L 137.473561 226.011406 
L 140.329466 226.011406 
L 143.185372 226.011406 
L 146.041277 226.011406 
L 148.897183 226.011406 
L 151.753088 226.011406 
L 154.608994 226.011406 
L 157.464899 226.011406 
L 160.320805 226.011406 
L 163.17671 226.011406 
L 166.032616 226.011406 
L 168.888521 226.011406 
L 171.744427 226.011406 
L 174.600332 226.011406 
L 177.456238 226.011406 
L 180.312143 226.011406 
L 183.168049 226.011406 
L 186.023954 226.011406 
L 188.87986 226.011406 
L 191.735765 226.011406 
L 194.591671 226.011406 
L 197.447576 226.011406 
L 200.303482 226.011406 
L 203.159387 226.011406 
L 206.015293 226.011406 
L 208.871198 226.011406 
L 211.727104 226.011406 
L 214.583009 226.011406 
L 217.438915 226.011406 
L 220.29482 226.011406 
L 223.150726 226.011406 
L 226.006631 226.011406 
L 228.862537 226.011406 
L 231.718442 226.011406 
L 234.574348 226.011406 
L 237.430253 226.011406 
L 240.286159 226.011406 
L 243.142064 226.011406 
L 245.99797 226.011406 
L 248.853875 226.011406 
L 251.709781 226.011406 
L 254.565687 226.011406 
L 257.421592 226.011406 
L 260.277498 226.011406 
L 263.133403 226.011406 
L 265.989309 226.011406 
L 268.845214 226.011406 
L 271.70112 226.011406 
L 274.557025 226.011406 
L 277.412931 226.011406 
L 280.268836 226.011406 
L 283.124742 226.011406 
L 285.980647 226.011406 
L 288.836553 226.011406 
L 291.692458 226.011406 
L 294.548364 226.011406 
L 297.404269 226.011406 
L 300.260175 226.011406 
L 303.11608 226.011406 
L 305.971986 226.011406 
L 308.827891 226.011406 
L 311.683797 226.011406 
L 314.539702 226.011406 
L 317.395608 226.011406 
L 320.251513 226.011406 
L 323.107419 226.011406 
L 325.963324 226.011406 
L 328.81923 226.011406 
L 331.675135 226.011406 
L 334.531041 226.011406 
L 337.386946 226.011406 
L 340.242852 226.011406 
L 343.098757 226.011406 
L 345.954663 226.011406 
L 348.810568 226.011406 
L 351.666474 226.011406 
L 354.522379 226.011406 
L 357.378285 226.011406 
L 360.23419 226.011406 
L 363.090096 226.011406 
L 365.946001 226.011406 
L 368.801907 226.011406 
L 371.657812 226.011406 
L 371.657812 225.072171 
L 371.657812 225.072171 
L 368.801907 224.56075 
L 365.946001 223.633051 
L 363.090096 222.143651 
L 360.23419 219.914568 
L 357.378285 216.760133 
L 354.522379 212.525083 
L 351.666474 207.132851 
L 348.810568 200.635665 
L 345.954663 193.253183 
L 343.098757 185.384491 
L 340.242852 177.581333 
L 337.386946 170.479153 
L 334.531041 164.695135 
L 331.675135 160.714845 
L 328.81923 158.796498 
L 325.963324 158.920222 
L 323.107419 160.798369 
L 320.251513 163.945073 
L 317.395608 167.784971 
L 314.539702 171.7693 
L 311.683797 175.466729 
L 308.827891 178.606797 
L 305.971986 181.071464 
L 303.11608 182.84827 
L 300.260175 183.970173 
L 297.404269 184.468285 
L 294.548364 184.354672 
L 291.692458 183.63715 
L 288.836553 182.353142 
L 285.980647 180.600996 
L 283.124742 178.548304 
L 280.268836 176.406995 
L 277.412931 174.380152 
L 274.557025 172.599144 
L 271.70112 171.075926 
L 268.845214 169.69106 
L 265.989309 168.224404 
L 263.133403 166.417744 
L 260.277498 164.044286 
L 257.421592 160.955488 
L 254.565687 157.084145 
L 251.709781 152.401667 
L 248.853875 146.849882 
L 245.99797 140.284044 
L 243.142064 132.465716 
L 240.286159 123.128736 
L 237.430253 112.112468 
L 234.574348 99.524239 
L 231.718442 85.870628 
L 228.862537 72.096053 
L 226.006631 59.490693 
L 223.150726 49.471997 
L 220.29482 43.29025 
L 217.438915 41.740986 
L 214.583009 44.971753 
L 211.727104 52.444093 
L 208.871198 63.062508 
L 206.015293 75.428606 
L 203.159387 88.140413 
L 200.303482 100.047993 
L 197.447576 110.398838 
L 194.591671 118.850206 
L 191.735765 125.372879 
L 188.87986 130.104134 
L 186.023954 133.215787 
L 183.168049 134.845596 
L 180.312143 135.106072 
L 177.456238 134.148809 
L 174.600332 132.238938 
L 171.744427 129.79192 
L 168.888521 127.343221 
L 166.032616 125.452248 
L 163.17671 124.572122 
L 160.320805 124.934106 
L 157.464899 126.492782 
L 154.608994 128.956482 
L 151.753088 131.895763 
L 148.897183 134.893374 
L 146.041277 137.683768 
L 143.185372 140.23443 
L 140.329466 142.743056 
L 137.473561 145.555182 
L 134.617655 149.034233 
L 131.76175 153.430322 
L 128.905844 158.790883 
L 126.049938 164.938159 
L 123.194033 171.513499 
L 120.338127 178.066336 
L 117.482222 184.154247 
L 114.626316 189.422442 
L 111.770411 193.643807 
L 108.914505 196.717977 
L 106.0586 198.642603 
L 103.202694 199.476992 
L 100.346789 199.316041 
L 97.490883 198.283114 
L 94.634978 196.538798 
L 91.779072 194.293552 
L 88.923167 191.809529 
L 86.067261 189.38143 
L 83.211356 187.295868 
L 80.35545 185.779429 
L 77.499545 184.952693 
L 74.643639 184.807869 
L 71.787734 185.220721 
L 68.931828 185.995746 
L 66.075923 186.931508 
L 63.220017 187.885342 
L 60.364112 188.816511 
L 57.508206 189.794198 
L 54.652301 190.968877 
L 51.796395 192.517805 
L 48.94049 194.583304 
L 46.084584 197.223528 
L 43.228679 200.389702 
L 40.372773 203.934118 
L 37.516868 207.643202 
L 34.660962 211.283308 
L 31.805057 214.645179 
L 28.949151 217.575956 
L 26.093246 219.993328 
L 23.23734 221.882334 
L 20.381435 223.279591 
L 17.525529 224.251302 
L 14.669624 224.870693 
L 11.813718 225.198456 
L 8.957813 225.267539 
z
" style="fill:#0000ff;fill-opacity:0.25;"/>
   </g>
   <g id="matplotlib.axis_1">
    <g id="xtick_1">
     <g id="line2d_1">
      <defs>
       <path d="M 0 0 
L 0 3.5 
" id="md5ee8f7903" style="stroke:#000000;stroke-width:0.8;"/>
      </defs>
      <g>
       <use style="stroke:#000000;stroke-width:0.8;" x="50.807813" xlink:href="#md5ee8f7903" y="226.011406"/>
      </g>
     </g>
     <g id="text_1">
      <text style="font-family:Arial;font-size:10px;font-style:normal;font-weight:normal;text-anchor:middle;" transform="rotate(-0, 50.807813, 240.169219)" x="50.807813" y="240.169219">0</text>
     </g>
    </g>
    <g id="xtick_2">
     <g id="line2d_2">
      <g>
       <use style="stroke:#000000;stroke-width:0.8;" x="106.607813" xlink:href="#md5ee8f7903" y="226.011406"/>
      </g>
     </g>
     <g id="text_2">
      <text style="font-family:Arial;font-size:10px;font-style:normal;font-weight:normal;text-anchor:middle;" transform="rotate(-0, 106.607813, 240.169219)" x="106.607813" y="240.169219">4</text>
     </g>
    </g>
    <g id="xtick_3">
     <g id="line2d_3">
      <g>
       <use style="stroke:#000000;stroke-width:0.8;" x="162.407813" xlink:href="#md5ee8f7903" y="226.011406"/>
      </g>
     </g>
     <g id="text_3">
      <text style="font-family:Arial;font-size:10px;font-style:normal;font-weight:normal;text-anchor:middle;" transform="rotate(-0, 162.407813, 240.169219)" x="162.407813" y="240.169219">8</text>
     </g>
    </g>
    <g id="xtick_4">
     <g id="line2d_4">
      <g>
       <use style="stroke:#000000;stroke-width:0.8;" x="218.207812" xlink:href="#md5ee8f7903" y="226.011406"/>
      </g>
     </g>
     <g id="text_4">
      <text style="font-family:Arial;font-size:10px;font-style:normal;font-weight:normal;text-anchor:middle;" transform="rotate(-0, 218.207812, 240.169219)" x="218.207812" y="240.169219">12</text>
     </g>
    </g>
    <g id="xtick_5">
     <g id="line2d_5">
      <g>
       <use style="stroke:#000000;stroke-width:0.8;" x="274.007812" xlink:href="#md5ee8f7903" y="226.011406"/>
      </g>
     </g>
     <g id="text_5">
      <text style="font-family:Arial;font-size:10px;font-style:normal;font-weight:normal;text-anchor:middle;" transform="rotate(-0, 274.007812, 240.169219)" x="274.007812" y="240.169219">16</text>
     </g>
    </g>
    <g id="xtick_6">
     <g id="line2d_6">
      <g>
       <use style="stroke:#000000;stroke-width:0.8;" x="329.807813" xlink:href="#md5ee8f7903" y="226.011406"/>
      </g>
     </g>
     <g id="text_6">
      <text style="font-family:Arial;font-size:10px;font-style:normal;font-weight:normal;text-anchor:middle;" transform="rotate(-0, 329.807813, 240.169219)" x="329.807813" y="240.169219">20</text>
     </g>
    </g>
    <g id="xtick_7">
     <g id="line2d_7">
      <g>
       <use style="stroke:#000000;stroke-width:0.8;" x="385.607812" xlink:href="#md5ee8f7903" y="226.011406"/>
      </g>
     </g>
     <g id="text_7">
      <text style="font-family:Arial;font-size:10px;font-style:normal;font-weight:normal;text-anchor:middle;" transform="rotate(-0, 385.607812, 240.169219)" x="385.607812" y="240.169219">24</text>
     </g>
    </g>
    <g id="text_8">
     <text style="font-family:Arial;font-size:14px;font-style:normal;font-weight:normal;text-anchor:middle;" transform="rotate(-0, 218.207813, 256.348281)" x="218.207813" y="256.348281">Cycling Phase</text>
    </g>
   </g>
   <g id="matplotlib.axis_2">
    <g id="ytick_1">
     <g id="line2d_8">
      <defs>
       <path d="M 0 0 
L -3.5 0 
" id="me87c9b8027" style="stroke:#000000;stroke-width:0.8;"/>
      </defs>
      <g>
       <use style="stroke:#000000;stroke-width:0.8;" x="50.807813" xlink:href="#me87c9b8027" y="226.011406"/>
      </g>
     </g>
     <g id="text_9">
      <text style="font-family:Arial;font-size:10px;font-style:normal;font-weight:normal;text-anchor:end;" transform="rotate(-0, 43.807813, 229.590312)" x="43.807813" y="229.590312">0.00</text>
     </g>
    </g>
    <g id="ytick_2">
     <g id="line2d_9">
      <g>
       <use style="stroke:#000000;stroke-width:0.8;" x="50.807813" xlink:href="#me87c9b8027" y="193.509115"/>
      </g>
     </g>
     <g id="text_10">
      <text style="font-family:Arial;font-size:10px;font-style:normal;font-weight:normal;text-anchor:end;" transform="rotate(-0, 43.807813, 197.088021)" x="43.807813" y="197.088021">0.02</text>
     </g>
    </g>
    <g id="ytick_3">
     <g id="line2d_10">
      <g>
       <use style="stroke:#000000;stroke-width:0.8;" x="50.807813" xlink:href="#me87c9b8027" y="161.006823"/>
      </g>
     </g>
     <g id="text_11">
      <text style="font-family:Arial;font-size:10px;font-style:normal;font-weight:normal;text-anchor:end;" transform="rotate(-0, 43.807813, 164.585729)" x="43.807813" y="164.585729">0.04</text>
     </g>
    </g>
    <g id="ytick_4">
     <g id="line2d_11">
      <g>
       <use style="stroke:#000000;stroke-width:0.8;" x="50.807813" xlink:href="#me87c9b8027" y="128.504532"/>
      </g>
     </g>
     <g id="text_12">
      <text style="font-family:Arial;font-size:10px;font-style:normal;font-weight:normal;text-anchor:end;" transform="rotate(-0, 43.807813, 132.083438)" x="43.807813" y="132.083438">0.06</text>
     </g>
    </g>
    <g id="ytick_5">
     <g id="line2d_12">
      <g>
       <use style="stroke:#000000;stroke-width:0.8;" x="50.807813" xlink:href="#me87c9b8027" y="96.00224"/>
      </g>
     </g>
     <g id="text_13">
      <text style="font-family:Arial;font-size:10px;font-style:normal;font-weight:normal;text-anchor:end;" transform="rotate(-0, 43.807813, 99.581146)" x="43.807813" y="99.581146">0.08</text>
     </g>
    </g>
    <g id="ytick_6">
     <g id="line2d_13">
      <g>
       <use style="stroke:#000000;stroke-width:0.8;" x="50.807813" xlink:href="#me87c9b8027" y="63.499949"/>
      </g>
     </g>
     <g id="text_14">
      <text style="font-family:Arial;font-size:10px;font-style:normal;font-weight:normal;text-anchor:end;" transform="rotate(-0, 43.807813, 67.078855)" x="43.807813" y="67.078855">0.10</text>
     </g>
    </g>
    <g id="ytick_7">
     <g id="line2d_14">
      <g>
       <use style="stroke:#000000;stroke-width:0.8;" x="50.807813" xlink:href="#me87c9b8027" y="30.997657"/>
      </g>
     </g>
     <g id="text_15">
      <text style="font-family:Arial;font-size:10px;font-style:normal;font-weight:normal;text-anchor:end;" transform="rotate(-0, 43.807813, 34.576563)" x="43.807813" y="34.576563">0.12</text>
     </g>
    </g>
    <g id="text_16">
     <text style="font-family:Arial;font-size:14px;font-style:normal;font-weight:normal;text-anchor:middle;" transform="rotate(-90, 17.400313, 117.291406)" x="17.400313" y="117.291406">Density of Cycling OTUs per Phase</text>
    </g>
   </g>
   <g id="line2d_15">
    <path clip-path="url(#pe0dee9a4d2)" d="M 8.957813 225.656009 
L 14.669624 225.683217 
L 20.381435 225.319492 
L 23.23734 224.975826 
L 26.093246 224.506806 
L 28.949151 223.905244 
L 34.660962 222.342338 
L 43.228679 219.678308 
L 46.084584 218.932021 
L 48.94049 218.337394 
L 51.796395 217.910389 
L 54.652301 217.637693 
L 60.364112 217.382045 
L 66.075923 217.135507 
L 68.931828 216.89805 
L 71.787734 216.547669 
L 74.643639 216.066527 
L 77.499545 215.434498 
L 80.35545 214.62354 
L 83.211356 213.599512 
L 86.067261 212.332709 
L 88.923167 210.814295 
L 91.779072 209.072252 
L 100.346789 203.397311 
L 103.202694 201.744493 
L 106.0586 200.345058 
L 108.914505 199.181881 
L 114.626316 197.103519 
L 117.482222 195.816199 
L 120.338127 194.074642 
L 123.194033 191.659107 
L 126.049938 188.343661 
L 128.905844 183.873318 
L 131.76175 177.940884 
L 134.617655 170.187001 
L 137.473561 160.244529 
L 140.329466 147.834553 
L 143.185372 132.898962 
L 146.041277 115.731384 
L 154.608994 59.94366 
L 157.464899 44.288146 
L 160.320805 32.131622 
L 163.17671 24.031133 
L 166.032616 19.873119 
L 168.888521 18.925692 
L 171.744427 20.062559 
L 177.456238 24.087919 
L 180.312143 25.609086 
L 186.023954 27.990304 
L 188.87986 29.955089 
L 191.735765 33.108554 
L 194.591671 37.564857 
L 197.447576 43.040044 
L 203.159387 54.738635 
L 206.015293 59.926352 
L 208.871198 64.479233 
L 211.727104 68.740626 
L 214.583009 73.334888 
L 217.438915 78.950754 
L 220.29482 86.10465 
L 223.150726 94.966298 
L 226.006631 105.300909 
L 234.574348 138.728534 
L 237.430253 148.373482 
L 240.286159 156.534497 
L 243.142064 163.126765 
L 245.99797 168.238786 
L 248.853875 172.041011 
L 251.709781 174.710971 
L 254.565687 176.399969 
L 257.421592 177.244134 
L 260.277498 177.4026 
L 263.133403 177.095309 
L 265.989309 176.615361 
L 268.845214 176.30373 
L 271.70112 176.491378 
L 274.557025 177.428168 
L 277.412931 179.223868 
L 280.268836 181.822149 
L 283.124742 185.016156 
L 288.836553 191.933017 
L 291.692458 195.010297 
L 294.548364 197.496204 
L 297.404269 199.239882 
L 300.260175 200.162485 
L 303.11608 200.23512 
L 305.971986 199.462559 
L 308.827891 197.88344 
L 311.683797 195.588013 
L 314.539702 192.744257 
L 320.251513 186.564124 
L 323.107419 184.003578 
L 325.963324 182.350823 
L 328.81923 181.944031 
L 331.675135 182.975584 
L 334.531041 185.450508 
L 337.386946 189.184035 
L 340.242852 193.838871 
L 348.810568 209.11248 
L 351.666474 213.435038 
L 354.522379 217.025599 
L 357.378285 219.847676 
L 360.23419 221.951849 
L 363.090096 223.442346 
L 365.946001 224.445129 
L 368.801907 225.083121 
L 371.657812 225.4606 
L 371.657812 225.4606 
" style="fill:none;stroke:#ff0000;stroke-linecap:square;stroke-width:1.5;"/>
   </g>
   <g id="line2d_16">
    <path clip-path="url(#pe0dee9a4d2)" d="M 8.957813 225.267539 
L 11.813718 225.198456 
L 14.669624 224.870693 
L 17.525529 224.251302 
L 20.381435 223.279591 
L 23.23734 221.882334 
L 26.093246 219.993328 
L 28.949151 217.575956 
L 31.805057 214.645179 
L 34.660962 211.283308 
L 43.228679 200.389702 
L 46.084584 197.223528 
L 48.94049 194.583304 
L 51.796395 192.517805 
L 54.652301 190.968877 
L 57.508206 189.794198 
L 68.931828 185.995746 
L 71.787734 185.220721 
L 74.643639 184.807869 
L 77.499545 184.952693 
L 80.35545 185.779429 
L 83.211356 187.295868 
L 86.067261 189.38143 
L 94.634978 196.538798 
L 97.490883 198.283114 
L 100.346789 199.316041 
L 103.202694 199.476992 
L 106.0586 198.642603 
L 108.914505 196.717977 
L 111.770411 193.643807 
L 114.626316 189.422442 
L 117.482222 184.154247 
L 120.338127 178.066336 
L 126.049938 164.938159 
L 128.905844 158.790883 
L 131.76175 153.430322 
L 134.617655 149.034233 
L 137.473561 145.555182 
L 140.329466 142.743056 
L 146.041277 137.683768 
L 148.897183 134.893374 
L 154.608994 128.956482 
L 157.464899 126.492782 
L 160.320805 124.934106 
L 163.17671 124.572122 
L 166.032616 125.452248 
L 168.888521 127.343221 
L 174.600332 132.238938 
L 177.456238 134.148809 
L 180.312143 135.106072 
L 183.168049 134.845596 
L 186.023954 133.215787 
L 188.87986 130.104134 
L 191.735765 125.372879 
L 194.591671 118.850206 
L 197.447576 110.398838 
L 200.303482 100.047993 
L 203.159387 88.140413 
L 208.871198 63.062508 
L 211.727104 52.444093 
L 214.583009 44.971753 
L 217.438915 41.740986 
L 220.29482 43.29025 
L 223.150726 49.471997 
L 226.006631 59.490693 
L 228.862537 72.096053 
L 234.574348 99.524239 
L 237.430253 112.112468 
L 240.286159 123.128736 
L 243.142064 132.465716 
L 245.99797 140.284044 
L 248.853875 146.849882 
L 251.709781 152.401667 
L 254.565687 157.084145 
L 257.421592 160.955488 
L 260.277498 164.044286 
L 263.133403 166.417744 
L 265.989309 168.224404 
L 274.557025 172.599144 
L 277.412931 174.380152 
L 283.124742 178.548304 
L 285.980647 180.600996 
L 288.836553 182.353142 
L 291.692458 183.63715 
L 294.548364 184.354672 
L 297.404269 184.468285 
L 300.260175 183.970173 
L 303.11608 182.84827 
L 305.971986 181.071464 
L 308.827891 178.606797 
L 311.683797 175.466729 
L 314.539702 171.7693 
L 320.251513 163.945073 
L 323.107419 160.798369 
L 325.963324 158.920222 
L 328.81923 158.796498 
L 331.675135 160.714845 
L 334.531041 164.695135 
L 337.386946 170.479153 
L 340.242852 177.581333 
L 345.954663 193.253183 
L 348.810568 200.635665 
L 351.666474 207.132851 
L 354.522379 212.525083 
L 357.378285 216.760133 
L 360.23419 219.914568 
L 363.090096 222.143651 
L 365.946001 223.633051 
L 368.801907 224.56075 
L 371.657812 225.072171 
L 371.657812 225.072171 
" style="fill:none;stroke:#0000ff;stroke-linecap:square;stroke-width:1.5;"/>
   </g>
   <g id="patch_3">
    <path d="M 50.807813 226.011406 
L 50.807813 8.571406 
" style="fill:none;stroke:#000000;stroke-linecap:square;stroke-linejoin:miter;stroke-width:0.8;"/>
   </g>
   <g id="patch_4">
    <path d="M 385.607813 226.011406 
L 385.607813 8.571406 
" style="fill:none;stroke:#000000;stroke-linecap:square;stroke-linejoin:miter;stroke-width:0.8;"/>
   </g>
   <g id="patch_5">
    <path d="M 50.807813 226.011406 
L 385.607812 226.011406 
" style="fill:none;stroke:#000000;stroke-linecap:square;stroke-linejoin:miter;stroke-width:0.8;"/>
   </g>
   <g id="patch_6">
    <path d="M 50.807813 8.571406 
L 385.607812 8.571406 
" style="fill:none;stroke:#000000;stroke-linecap:square;stroke-linejoin:miter;stroke-width:0.8;"/>
   </g>
   <g id="legend_1">
    <g id="patch_7">
     <path d="M 282.68125 45.096406 
L 378.607813 45.096406 
Q 380.607813 45.096406 380.607813 43.096406 
L 380.607813 15.571406 
Q 380.607813 13.571406 378.607813 13.571406 
L 282.68125 13.571406 
Q 280.68125 13.571406 280.68125 15.571406 
L 280.68125 43.096406 
Q 280.68125 45.096406 282.68125 45.096406 
z
" style="fill:#ffffff;opacity:0.8;stroke:#cccccc;stroke-linejoin:miter;"/>
    </g>
    <g id="line2d_17">
     <path d="M 284.68125 21.229219 
L 304.68125 21.229219 
" style="fill:none;stroke:#ff0000;stroke-linecap:square;stroke-width:1.5;"/>
    </g>
    <g id="line2d_18"/>
    <g id="text_17">
     <text style="font-family:Arial;font-size:10px;font-style:normal;font-weight:normal;text-anchor:start;" transform="rotate(-0, 312.68125, 24.729219)" x="312.68125" y="24.729219">JTK_adjphase</text>
    </g>
    <g id="line2d_19">
     <path d="M 284.68125 35.491719 
L 304.68125 35.491719 
" style="fill:none;stroke:#0000ff;stroke-linecap:square;stroke-width:1.5;"/>
    </g>
    <g id="line2d_20"/>
    <g id="text_18">
     <text style="font-family:Arial;font-size:10px;font-style:normal;font-weight:normal;text-anchor:start;" transform="rotate(-0, 312.68125, 38.991719)" x="312.68125" y="38.991719">JTK_adjphase</text>
    </g>
   </g>
  </g>
 </g>
 <defs>
  <clipPath id="pe0dee9a4d2">
   <rect height="217.44" width="334.8" x="50.807813" y="8.571406"/>
  </clipPath>
 </defs>
</svg>
