<?xml version="1.0" encoding="utf-8" standalone="no"?>
<!DOCTYPE svg PUBLIC "-//W3C//DTD SVG 1.1//EN"
  "http://www.w3.org/Graphics/SVG/1.1/DTD/svg11.dtd">
<!-- Created with matplotlib (https://matplotlib.org/) -->
<svg height="287.555pt" version="1.1" viewBox="0 0 456.865313 287.555" width="456.865313pt" xmlns="http://www.w3.org/2000/svg" xmlns:xlink="http://www.w3.org/1999/xlink">
 <defs>
  <style type="text/css">
*{stroke-linecap:butt;stroke-linejoin:round;}
  </style>
 </defs>
 <g id="figure_1">
  <g id="patch_1">
   <path d="M 0 287.555 
L 456.865313 287.555 
L 456.865313 0 
L 0 0 
z
" style="fill:#ffffff;"/>
  </g>
  <g id="axes_1">
   <g id="patch_2">
    <path d="M 44.903438 244.955625 
L 379.703438 244.955625 
L 379.703438 27.515625 
L 44.903438 27.515625 
z
" style="fill:#ffffff;"/>
   </g>
   <g id="patch_3">
    <path clip-path="url(#p705f895bd9)" d="M 62.313038 183.432855 
L 127.933838 183.432855 
L 127.933838 156.897146 
L 62.313038 156.897146 
L 62.313038 183.432855 
z
" style="fill:#df2020;stroke:#4c4c4c;stroke-linejoin:miter;stroke-width:1.5;"/>
   </g>
   <g id="patch_4">
    <path clip-path="url(#p705f895bd9)" d="M 129.273038 225.073943 
L 194.893838 225.073943 
L 194.893838 182.445612 
L 129.273038 182.445612 
L 129.273038 225.073943 
z
" style="fill:#2020df;stroke:#4c4c4c;stroke-linejoin:miter;stroke-width:1.5;"/>
   </g>
   <g id="patch_5">
    <path clip-path="url(#p705f895bd9)" d="M 229.713038 131.474226 
L 295.333838 131.474226 
L 295.333838 99.665616 
L 229.713038 99.665616 
L 229.713038 131.474226 
z
" style="fill:#df2020;stroke:#4c4c4c;stroke-linejoin:miter;stroke-width:1.5;"/>
   </g>
   <g id="patch_6">
    <path clip-path="url(#p705f895bd9)" d="M 296.673038 162.055916 
L 362.293837 162.055916 
L 362.293837 130.646769 
L 296.673038 130.646769 
L 296.673038 162.055916 
z
" style="fill:#2020df;stroke:#4c4c4c;stroke-linejoin:miter;stroke-width:1.5;"/>
   </g>
   <g id="PathCollection_1"/>
   <g id="PathCollection_2"/>
   <g id="patch_7">
    <path clip-path="url(#p705f895bd9)" d="M 128.603438 264.050048 
L 128.603438 264.050048 
L 128.603438 264.050048 
L 128.603438 264.050048 
z
" style="fill:#df2020;stroke:#4c4c4c;stroke-linejoin:miter;stroke-width:0.75;"/>
   </g>
   <g id="patch_8">
    <path clip-path="url(#p705f895bd9)" d="M 128.603438 264.050048 
L 128.603438 264.050048 
L 128.603438 264.050048 
L 128.603438 264.050048 
z
" style="fill:#2020df;stroke:#4c4c4c;stroke-linejoin:miter;stroke-width:0.75;"/>
   </g>
   <g id="matplotlib.axis_1">
    <g id="xtick_1">
     <g id="line2d_1">
      <defs>
       <path d="M 0 0 
L 0 3.5 
" id="mf6ca9c3495" style="stroke:#000000;stroke-width:0.8;"/>
      </defs>
      <g>
       <use style="stroke:#000000;stroke-width:0.8;" x="128.603438" xlink:href="#mf6ca9c3495" y="244.955625"/>
      </g>
     </g>
     <g id="text_1">
      <text style="font-family:Arial;font-size:12px;font-style:normal;font-weight:normal;text-anchor:middle;" transform="rotate(-0, 128.603438, 260.69125)" x="128.603438" y="260.69125">Light/Inactive</text>
     </g>
    </g>
    <g id="xtick_2">
     <g id="line2d_2">
      <g>
       <use style="stroke:#000000;stroke-width:0.8;" x="296.003438" xlink:href="#mf6ca9c3495" y="244.955625"/>
      </g>
     </g>
     <g id="text_2">
      <text style="font-family:Arial;font-size:12px;font-style:normal;font-weight:normal;text-anchor:middle;" transform="rotate(-0, 296.003438, 260.69125)" x="296.003438" y="260.69125">Night/Active</text>
     </g>
    </g>
    <g id="text_3">
     <text style="font-family:Arial;font-size:14px;font-style:normal;font-weight:normal;text-anchor:middle;" transform="rotate(-0, 212.303438, 277.408437)" x="212.303438" y="277.408437">Phase of Cycle</text>
    </g>
   </g>
   <g id="matplotlib.axis_2">
    <g id="ytick_1">
     <g id="line2d_3">
      <defs>
       <path d="M 0 0 
L -3.5 0 
" id="m97e1267c1a" style="stroke:#000000;stroke-width:0.8;"/>
      </defs>
      <g>
       <use style="stroke:#000000;stroke-width:0.8;" x="44.903438" xlink:href="#m97e1267c1a" y="236.658349"/>
      </g>
     </g>
     <g id="text_4">
      <text style="font-family:Arial;font-size:10px;font-style:normal;font-weight:normal;text-anchor:end;" transform="rotate(-0, 37.903438, 240.237255)" x="37.903438" y="240.237255">0.1</text>
     </g>
    </g>
    <g id="ytick_2">
     <g id="line2d_4">
      <g>
       <use style="stroke:#000000;stroke-width:0.8;" x="44.903438" xlink:href="#m97e1267c1a" y="209.26665"/>
      </g>
     </g>
     <g id="text_5">
      <text style="font-family:Arial;font-size:10px;font-style:normal;font-weight:normal;text-anchor:end;" transform="rotate(-0, 37.903438, 212.845557)" x="37.903438" y="212.845557">0.2</text>
     </g>
    </g>
    <g id="ytick_3">
     <g id="line2d_5">
      <g>
       <use style="stroke:#000000;stroke-width:0.8;" x="44.903438" xlink:href="#m97e1267c1a" y="181.874952"/>
      </g>
     </g>
     <g id="text_6">
      <text style="font-family:Arial;font-size:10px;font-style:normal;font-weight:normal;text-anchor:end;" transform="rotate(-0, 37.903438, 185.453858)" x="37.903438" y="185.453858">0.3</text>
     </g>
    </g>
    <g id="ytick_4">
     <g id="line2d_6">
      <g>
       <use style="stroke:#000000;stroke-width:0.8;" x="44.903438" xlink:href="#m97e1267c1a" y="154.483253"/>
      </g>
     </g>
     <g id="text_7">
      <text style="font-family:Arial;font-size:10px;font-style:normal;font-weight:normal;text-anchor:end;" transform="rotate(-0, 37.903438, 158.062159)" x="37.903438" y="158.062159">0.4</text>
     </g>
    </g>
    <g id="ytick_5">
     <g id="line2d_7">
      <g>
       <use style="stroke:#000000;stroke-width:0.8;" x="44.903438" xlink:href="#m97e1267c1a" y="127.091554"/>
      </g>
     </g>
     <g id="text_8">
      <text style="font-family:Arial;font-size:10px;font-style:normal;font-weight:normal;text-anchor:end;" transform="rotate(-0, 37.903438, 130.670461)" x="37.903438" y="130.670461">0.5</text>
     </g>
    </g>
    <g id="ytick_6">
     <g id="line2d_8">
      <g>
       <use style="stroke:#000000;stroke-width:0.8;" x="44.903438" xlink:href="#m97e1267c1a" y="99.699856"/>
      </g>
     </g>
     <g id="text_9">
      <text style="font-family:Arial;font-size:10px;font-style:normal;font-weight:normal;text-anchor:end;" transform="rotate(-0, 37.903438, 103.278762)" x="37.903438" y="103.278762">0.6</text>
     </g>
    </g>
    <g id="ytick_7">
     <g id="line2d_9">
      <g>
       <use style="stroke:#000000;stroke-width:0.8;" x="44.903438" xlink:href="#m97e1267c1a" y="72.308157"/>
      </g>
     </g>
     <g id="text_10">
      <text style="font-family:Arial;font-size:10px;font-style:normal;font-weight:normal;text-anchor:end;" transform="rotate(-0, 37.903438, 75.887063)" x="37.903438" y="75.887063">0.7</text>
     </g>
    </g>
    <g id="ytick_8">
     <g id="line2d_10">
      <g>
       <use style="stroke:#000000;stroke-width:0.8;" x="44.903438" xlink:href="#m97e1267c1a" y="44.916458"/>
      </g>
     </g>
     <g id="text_11">
      <text style="font-family:Arial;font-size:10px;font-style:normal;font-weight:normal;text-anchor:end;" transform="rotate(-0, 37.903438, 48.495365)" x="37.903438" y="48.495365">0.8</text>
     </g>
    </g>
    <g id="text_12">
     <text style="font-family:Arial;font-size:14px;font-style:normal;font-weight:normal;text-anchor:middle;" transform="rotate(-90, 17.220938, 136.235625)" x="17.220938" y="136.235625">Relative Abundance</text>
    </g>
   </g>
   <g id="line2d_11">
    <path clip-path="url(#p705f895bd9)" d="M 95.123438 183.432855 
L 95.123438 207.16662 
" style="fill:none;stroke:#4c4c4c;stroke-linecap:square;stroke-width:1.5;"/>
   </g>
   <g id="line2d_12">
    <path clip-path="url(#p705f895bd9)" d="M 95.123438 156.897146 
L 95.123438 130.789434 
" style="fill:none;stroke:#4c4c4c;stroke-linecap:square;stroke-width:1.5;"/>
   </g>
   <g id="line2d_13">
    <path clip-path="url(#p705f895bd9)" d="M 78.718238 207.16662 
L 111.528638 207.16662 
" style="fill:none;stroke:#4c4c4c;stroke-linecap:square;stroke-width:1.5;"/>
   </g>
   <g id="line2d_14">
    <path clip-path="url(#p705f895bd9)" d="M 78.718238 130.789434 
L 111.528638 130.789434 
" style="fill:none;stroke:#4c4c4c;stroke-linecap:square;stroke-width:1.5;"/>
   </g>
   <g id="line2d_15"/>
   <g id="line2d_16">
    <path clip-path="url(#p705f895bd9)" d="M 162.083438 225.073943 
L 162.083438 234.193096 
" style="fill:none;stroke:#4c4c4c;stroke-linecap:square;stroke-width:1.5;"/>
   </g>
   <g id="line2d_17">
    <path clip-path="url(#p705f895bd9)" d="M 162.083438 182.445612 
L 162.083438 166.877997 
" style="fill:none;stroke:#4c4c4c;stroke-linecap:square;stroke-width:1.5;"/>
   </g>
   <g id="line2d_18">
    <path clip-path="url(#p705f895bd9)" d="M 145.678238 234.193096 
L 178.488638 234.193096 
" style="fill:none;stroke:#4c4c4c;stroke-linecap:square;stroke-width:1.5;"/>
   </g>
   <g id="line2d_19">
    <path clip-path="url(#p705f895bd9)" d="M 145.678238 166.877997 
L 178.488638 166.877997 
" style="fill:none;stroke:#4c4c4c;stroke-linecap:square;stroke-width:1.5;"/>
   </g>
   <g id="line2d_20"/>
   <g id="line2d_21">
    <path clip-path="url(#p705f895bd9)" d="M 262.523438 131.474226 
L 262.523438 167.654095 
" style="fill:none;stroke:#4c4c4c;stroke-linecap:square;stroke-width:1.5;"/>
   </g>
   <g id="line2d_22">
    <path clip-path="url(#p705f895bd9)" d="M 262.523438 99.665616 
L 262.523438 95.956323 
" style="fill:none;stroke:#4c4c4c;stroke-linecap:square;stroke-width:1.5;"/>
   </g>
   <g id="line2d_23">
    <path clip-path="url(#p705f895bd9)" d="M 246.118238 167.654095 
L 278.928638 167.654095 
" style="fill:none;stroke:#4c4c4c;stroke-linecap:square;stroke-width:1.5;"/>
   </g>
   <g id="line2d_24">
    <path clip-path="url(#p705f895bd9)" d="M 246.118238 95.956323 
L 278.928638 95.956323 
" style="fill:none;stroke:#4c4c4c;stroke-linecap:square;stroke-width:1.5;"/>
   </g>
   <g id="line2d_25"/>
   <g id="line2d_26">
    <path clip-path="url(#p705f895bd9)" d="M 329.483438 162.055916 
L 329.483438 208.992734 
" style="fill:none;stroke:#4c4c4c;stroke-linecap:square;stroke-width:1.5;"/>
   </g>
   <g id="line2d_27">
    <path clip-path="url(#p705f895bd9)" d="M 329.483438 130.646769 
L 329.483438 115.107686 
" style="fill:none;stroke:#4c4c4c;stroke-linecap:square;stroke-width:1.5;"/>
   </g>
   <g id="line2d_28">
    <path clip-path="url(#p705f895bd9)" d="M 313.078238 208.992734 
L 345.888638 208.992734 
" style="fill:none;stroke:#4c4c4c;stroke-linecap:square;stroke-width:1.5;"/>
   </g>
   <g id="line2d_29">
    <path clip-path="url(#p705f895bd9)" d="M 313.078238 115.107686 
L 345.888638 115.107686 
" style="fill:none;stroke:#4c4c4c;stroke-linecap:square;stroke-width:1.5;"/>
   </g>
   <g id="line2d_30"/>
   <g id="line2d_31">
    <path clip-path="url(#p705f895bd9)" d="M 262.523438 86.365307 
L 262.523438 83.168301 
L 329.483438 83.168301 
L 329.483438 86.365307 
" style="fill:none;stroke:#333333;stroke-linecap:square;stroke-width:1.5;"/>
   </g>
   <g id="line2d_32">
    <path clip-path="url(#p705f895bd9)" d="M 95.123438 121.198417 
L 95.123438 118.001412 
L 162.083438 118.001412 
L 162.083438 121.198417 
" style="fill:none;stroke:#333333;stroke-linecap:square;stroke-width:1.5;"/>
   </g>
   <g id="line2d_33">
    <path clip-path="url(#p705f895bd9)" d="M 95.123438 67.358756 
L 95.123438 64.16175 
L 262.523438 64.16175 
L 262.523438 67.358756 
" style="fill:none;stroke:#333333;stroke-linecap:square;stroke-width:1.5;"/>
   </g>
   <g id="line2d_34">
    <path clip-path="url(#p705f895bd9)" d="M 162.083438 47.390689 
L 162.083438 44.193683 
L 329.483438 44.193683 
L 329.483438 47.390689 
" style="fill:none;stroke:#333333;stroke-linecap:square;stroke-width:1.5;"/>
   </g>
   <g id="line2d_35">
    <path clip-path="url(#p705f895bd9)" d="M 62.313038 172.173725 
L 127.933838 172.173725 
" style="fill:none;stroke:#4c4c4c;stroke-linecap:square;stroke-width:1.5;"/>
   </g>
   <g id="line2d_36">
    <path clip-path="url(#p705f895bd9)" d="M 129.273038 196.346899 
L 194.893838 196.346899 
" style="fill:none;stroke:#4c4c4c;stroke-linecap:square;stroke-width:1.5;"/>
   </g>
   <g id="line2d_37">
    <path clip-path="url(#p705f895bd9)" d="M 229.713038 110.542403 
L 295.333838 110.542403 
" style="fill:none;stroke:#4c4c4c;stroke-linecap:square;stroke-width:1.5;"/>
   </g>
   <g id="line2d_38">
    <path clip-path="url(#p705f895bd9)" d="M 296.673038 153.319106 
L 362.293837 153.319106 
" style="fill:none;stroke:#4c4c4c;stroke-linecap:square;stroke-width:1.5;"/>
   </g>
   <g id="patch_9">
    <path d="M 44.903438 244.955625 
L 44.903438 27.515625 
" style="fill:none;stroke:#000000;stroke-linecap:square;stroke-linejoin:miter;stroke-width:0.8;"/>
   </g>
   <g id="patch_10">
    <path d="M 379.703438 244.955625 
L 379.703438 27.515625 
" style="fill:none;stroke:#000000;stroke-linecap:square;stroke-linejoin:miter;stroke-width:0.8;"/>
   </g>
   <g id="patch_11">
    <path d="M 44.903438 244.955625 
L 379.703438 244.955625 
" style="fill:none;stroke:#000000;stroke-linecap:square;stroke-linejoin:miter;stroke-width:0.8;"/>
   </g>
   <g id="patch_12">
    <path d="M 44.903438 27.515625 
L 379.703438 27.515625 
" style="fill:none;stroke:#000000;stroke-linecap:square;stroke-linejoin:miter;stroke-width:0.8;"/>
   </g>
   <g id="PathCollection_3">
    <defs>
     <path d="M 0 5 
C 1.326016 5 2.597899 4.473168 3.535534 3.535534 
C 4.473168 2.597899 5 1.326016 5 0 
C 5 -1.326016 4.473168 -2.597899 3.535534 -3.535534 
C 2.597899 -4.473168 1.326016 -5 0 -5 
C -1.326016 -5 -2.597899 -4.473168 -3.535534 -3.535534 
C -4.473168 -2.597899 -5 -1.326016 -5 0 
C -5 1.326016 -4.473168 2.597899 -3.535534 3.535534 
C -2.597899 4.473168 -1.326016 5 0 5 
z
" id="C0_0_fb488ae672"/>
    </defs>
    <g clip-path="url(#p705f895bd9)">
     <use style="fill:#ff0000;stroke:#000000;" x="95.123437" xlink:href="#C0_0_fb488ae672" y="207.16662"/>
    </g>
    <g clip-path="url(#p705f895bd9)">
     <use style="fill:#ff0000;stroke:#000000;" x="95.123437" xlink:href="#C0_0_fb488ae672" y="198.812152"/>
    </g>
    <g clip-path="url(#p705f895bd9)">
     <use style="fill:#ff0000;stroke:#000000;" x="86.070454" xlink:href="#C0_0_fb488ae672" y="193.790341"/>
    </g>
    <g clip-path="url(#p705f895bd9)">
     <use style="fill:#ff0000;stroke:#000000;" x="95.123437" xlink:href="#C0_0_fb488ae672" y="179.980359"/>
    </g>
    <g clip-path="url(#p705f895bd9)">
     <use style="fill:#ff0000;stroke:#000000;" x="83.629943" xlink:href="#C0_0_fb488ae672" y="179.181435"/>
    </g>
    <g clip-path="url(#p705f895bd9)">
     <use style="fill:#ff0000;stroke:#000000;" x="102.444756" xlink:href="#C0_0_fb488ae672" y="173.725921"/>
    </g>
    <g clip-path="url(#p705f895bd9)">
     <use style="fill:#ff0000;stroke:#000000;" x="91.779744" xlink:href="#C0_0_fb488ae672" y="170.621529"/>
    </g>
    <g clip-path="url(#p705f895bd9)">
     <use style="fill:#ff0000;stroke:#000000;" x="80.354844" xlink:href="#C0_0_fb488ae672" y="169.434555"/>
    </g>
    <g clip-path="url(#p705f895bd9)">
     <use style="fill:#ff0000;stroke:#000000;" x="95.123437" xlink:href="#C0_0_fb488ae672" y="156.902853"/>
    </g>
    <g clip-path="url(#p705f895bd9)">
     <use style="fill:#ff0000;stroke:#000000;" x="83.573484" xlink:href="#C0_0_fb488ae672" y="156.880027"/>
    </g>
    <g clip-path="url(#p705f895bd9)">
     <use style="fill:#ff0000;stroke:#000000;" x="106.134022" xlink:href="#C0_0_fb488ae672" y="154.460427"/>
    </g>
    <g clip-path="url(#p705f895bd9)">
     <use style="fill:#ff0000;stroke:#000000;" x="95.123437" xlink:href="#C0_0_fb488ae672" y="130.789434"/>
    </g>
   </g>
   <g id="PathCollection_4">
    <defs>
     <path d="M 0 5 
C 1.326016 5 2.597899 4.473168 3.535534 3.535534 
C 4.473168 2.597899 5 1.326016 5 0 
C 5 -1.326016 4.473168 -2.597899 3.535534 -3.535534 
C 2.597899 -4.473168 1.326016 -5 0 -5 
C -1.326016 -5 -2.597899 -4.473168 -3.535534 -3.535534 
C -4.473168 -2.597899 -5 -1.326016 -5 0 
C -5 1.326016 -4.473168 2.597899 -3.535534 3.535534 
C -2.597899 4.473168 -1.326016 5 0 5 
z
" id="C1_0_74277bd5e1"/>
    </defs>
    <g clip-path="url(#p705f895bd9)">
     <use style="fill:#0000ff;stroke:#000000;" x="162.083438" xlink:href="#C1_0_74277bd5e1" y="234.193096"/>
    </g>
    <g clip-path="url(#p705f895bd9)">
     <use style="fill:#0000ff;stroke:#000000;" x="150.569569" xlink:href="#C1_0_74277bd5e1" y="233.553957"/>
    </g>
    <g clip-path="url(#p705f895bd9)">
     <use style="fill:#0000ff;stroke:#000000;" x="172.125856" xlink:href="#C1_0_74277bd5e1" y="230.198474"/>
    </g>
    <g clip-path="url(#p705f895bd9)">
     <use style="fill:#0000ff;stroke:#000000;" x="162.083438" xlink:href="#C1_0_74277bd5e1" y="219.949413"/>
    </g>
    <g clip-path="url(#p705f895bd9)">
     <use style="fill:#0000ff;stroke:#000000;" x="162.083438" xlink:href="#C1_0_74277bd5e1" y="205.728556"/>
    </g>
    <g clip-path="url(#p705f895bd9)">
     <use style="fill:#0000ff;stroke:#000000;" x="162.083438" xlink:href="#C1_0_74277bd5e1" y="196.346899"/>
    </g>
    <g clip-path="url(#p705f895bd9)">
     <use style="fill:#0000ff;stroke:#000000;" x="156.492858" xlink:href="#C1_0_74277bd5e1" y="189.27071"/>
    </g>
    <g clip-path="url(#p705f895bd9)">
     <use style="fill:#0000ff;stroke:#000000;" x="167.554479" xlink:href="#C1_0_74277bd5e1" y="189.225058"/>
    </g>
    <g clip-path="url(#p705f895bd9)">
     <use style="fill:#0000ff;stroke:#000000;" x="162.083438" xlink:href="#C1_0_74277bd5e1" y="175.666167"/>
    </g>
    <g clip-path="url(#p705f895bd9)">
     <use style="fill:#0000ff;stroke:#000000;" x="155.992489" xlink:href="#C1_0_74277bd5e1" y="168.795416"/>
    </g>
    <g clip-path="url(#p705f895bd9)">
     <use style="fill:#0000ff;stroke:#000000;" x="167.213115" xlink:href="#C1_0_74277bd5e1" y="166.877997"/>
    </g>
   </g>
   <g id="PathCollection_5">
    <defs>
     <path d="M 0 5 
C 1.326016 5 2.597899 4.473168 3.535534 3.535534 
C 4.473168 2.597899 5 1.326016 5 0 
C 5 -1.326016 4.473168 -2.597899 3.535534 -3.535534 
C 2.597899 -4.473168 1.326016 -5 0 -5 
C -1.326016 -5 -2.597899 -4.473168 -3.535534 -3.535534 
C -4.473168 -2.597899 -5 -1.326016 -5 0 
C -5 1.326016 -4.473168 2.597899 -3.535534 3.535534 
C -2.597899 4.473168 -1.326016 5 0 5 
z
" id="C2_0_ad3feff644"/>
    </defs>
    <g clip-path="url(#p705f895bd9)">
     <use style="fill:#ff0000;stroke:#000000;" x="262.523438" xlink:href="#C2_0_ad3feff644" y="167.654095"/>
    </g>
    <g clip-path="url(#p705f895bd9)">
     <use style="fill:#ff0000;stroke:#000000;" x="251.369701" xlink:href="#C2_0_ad3feff644" y="165.554065"/>
    </g>
    <g clip-path="url(#p705f895bd9)">
     <use style="fill:#ff0000;stroke:#000000;" x="262.523438" xlink:href="#C2_0_ad3feff644" y="145.71791"/>
    </g>
    <g clip-path="url(#p705f895bd9)">
     <use style="fill:#ff0000;stroke:#000000;" x="262.523438" xlink:href="#C2_0_ad3feff644" y="117.230543"/>
    </g>
    <g clip-path="url(#p705f895bd9)">
     <use style="fill:#ff0000;stroke:#000000;" x="251.792105" xlink:href="#C2_0_ad3feff644" y="114.240282"/>
    </g>
    <g clip-path="url(#p705f895bd9)">
     <use style="fill:#ff0000;stroke:#000000;" x="269.015795" xlink:href="#C2_0_ad3feff644" y="110.542403"/>
    </g>
    <g clip-path="url(#p705f895bd9)">
     <use style="fill:#ff0000;stroke:#000000;" x="262.523438" xlink:href="#C2_0_ad3feff644" y="102.59881"/>
    </g>
    <g clip-path="url(#p705f895bd9)">
     <use style="fill:#ff0000;stroke:#000000;" x="250.980065" xlink:href="#C2_0_ad3feff644" y="102.324893"/>
    </g>
    <g clip-path="url(#p705f895bd9)">
     <use style="fill:#ff0000;stroke:#000000;" x="270.866094" xlink:href="#C2_0_ad3feff644" y="97.006339"/>
    </g>
    <g clip-path="url(#p705f895bd9)">
     <use style="fill:#ff0000;stroke:#000000;" x="282.411491" xlink:href="#C2_0_ad3feff644" y="96.778074"/>
    </g>
    <g clip-path="url(#p705f895bd9)">
     <use style="fill:#ff0000;stroke:#000000;" x="243.862293" xlink:href="#C2_0_ad3feff644" y="95.956323"/>
    </g>
   </g>
   <g id="PathCollection_6">
    <defs>
     <path d="M 0 5 
C 1.326016 5 2.597899 4.473168 3.535534 3.535534 
C 4.473168 2.597899 5 1.326016 5 0 
C 5 -1.326016 4.473168 -2.597899 3.535534 -3.535534 
C 2.597899 -4.473168 1.326016 -5 0 -5 
C -1.326016 -5 -2.597899 -4.473168 -3.535534 -3.535534 
C -4.473168 -2.597899 -5 -1.326016 -5 0 
C -5 1.326016 -4.473168 2.597899 -3.535534 3.535534 
C -2.597899 4.473168 -1.326016 5 0 5 
z
" id="C3_0_915e86c1bb"/>
    </defs>
    <g clip-path="url(#p705f895bd9)">
     <use style="fill:#0000ff;stroke:#000000;" x="329.483438" xlink:href="#C3_0_915e86c1bb" y="208.992734"/>
    </g>
    <g clip-path="url(#p705f895bd9)">
     <use style="fill:#0000ff;stroke:#000000;" x="329.483438" xlink:href="#C3_0_915e86c1bb" y="187.558729"/>
    </g>
    <g clip-path="url(#p705f895bd9)">
     <use style="fill:#0000ff;stroke:#000000;" x="329.483438" xlink:href="#C3_0_915e86c1bb" y="170.324785"/>
    </g>
    <g clip-path="url(#p705f895bd9)">
     <use style="fill:#0000ff;stroke:#000000;" x="329.483438" xlink:href="#C3_0_915e86c1bb" y="159.299627"/>
    </g>
    <g clip-path="url(#p705f895bd9)">
     <use style="fill:#0000ff;stroke:#000000;" x="318.195236" xlink:href="#C3_0_915e86c1bb" y="157.587646"/>
    </g>
    <g clip-path="url(#p705f895bd9)">
     <use style="fill:#0000ff;stroke:#000000;" x="339.104708" xlink:href="#C3_0_915e86c1bb" y="154.825649"/>
    </g>
    <g clip-path="url(#p705f895bd9)">
     <use style="fill:#0000ff;stroke:#000000;" x="310.110362" xlink:href="#C3_0_915e86c1bb" y="151.812562"/>
    </g>
    <g clip-path="url(#p705f895bd9)">
     <use style="fill:#0000ff;stroke:#000000;" x="329.483438" xlink:href="#C3_0_915e86c1bb" y="131.268788"/>
    </g>
    <g clip-path="url(#p705f895bd9)">
     <use style="fill:#0000ff;stroke:#000000;" x="317.945223" xlink:href="#C3_0_915e86c1bb" y="130.903566"/>
    </g>
    <g clip-path="url(#p705f895bd9)">
     <use style="fill:#0000ff;stroke:#000000;" x="340.86093" xlink:href="#C3_0_915e86c1bb" y="129.876377"/>
    </g>
    <g clip-path="url(#p705f895bd9)">
     <use style="fill:#0000ff;stroke:#000000;" x="307.0207" xlink:href="#C3_0_915e86c1bb" y="128.278528"/>
    </g>
    <g clip-path="url(#p705f895bd9)">
     <use style="fill:#0000ff;stroke:#000000;" x="329.483438" xlink:href="#C3_0_915e86c1bb" y="115.107686"/>
    </g>
   </g>
   <g id="text_13">
    <text style="font-family:Arial;font-size:10px;font-style:normal;font-weight:normal;text-anchor:middle;" transform="rotate(-0, 296.003438, 80.180801)" x="296.003438" y="80.180801">*</text>
   </g>
   <g id="text_14">
    <text style="font-family:Arial;font-size:10px;font-style:normal;font-weight:normal;text-anchor:middle;" transform="rotate(-0, 128.603438, 115.013912)" x="128.603438" y="115.013912">*</text>
   </g>
   <g id="text_15">
    <text style="font-family:Arial;font-size:10px;font-style:normal;font-weight:normal;text-anchor:middle;" transform="rotate(-0, 178.823438, 61.17425)" x="178.823438" y="61.17425">***</text>
   </g>
   <g id="text_16">
    <text style="font-family:Arial;font-size:10px;font-style:normal;font-weight:normal;text-anchor:middle;" transform="rotate(-0, 245.783437, 41.206183)" x="245.783437" y="41.206183">***</text>
   </g>
   <g id="text_17">
    <text style="font-family:Arial;font-size:20px;font-style:normal;font-weight:normal;text-anchor:middle;" transform="rotate(-0, 212.303438, 21.515625)" x="212.303438" y="21.515625">Verrucomicrobia</text>
   </g>
   <g id="legend_1">
    <g id="patch_13">
     <path d="M 398.443438 87.096875 
L 447.665313 87.096875 
Q 449.665313 87.096875 449.665313 85.096875 
L 449.665313 29.515625 
Q 449.665313 27.515625 447.665313 27.515625 
L 398.443438 27.515625 
Q 396.443438 27.515625 396.443438 29.515625 
L 396.443438 85.096875 
Q 396.443438 87.096875 398.443438 87.096875 
z
" style="fill:#ffffff;opacity:0.8;stroke:#cccccc;stroke-linejoin:miter;"/>
    </g>
    <g id="patch_14">
     <path d="M 400.443438 38.673438 
L 420.443438 38.673438 
L 420.443438 31.673438 
L 400.443438 31.673438 
z
" style="fill:#df2020;stroke:#4c4c4c;stroke-linejoin:miter;stroke-width:0.75;"/>
    </g>
    <g id="text_18">
     <text style="font-family:Arial;font-size:10px;font-style:normal;font-weight:normal;text-anchor:start;" transform="rotate(-0, 428.443438, 38.673438)" x="428.443438" y="38.673438">Air</text>
    </g>
    <g id="patch_15">
     <path d="M 400.443438 52.81875 
L 420.443438 52.81875 
L 420.443438 45.81875 
L 400.443438 45.81875 
z
" style="fill:#2020df;stroke:#4c4c4c;stroke-linejoin:miter;stroke-width:0.75;"/>
    </g>
    <g id="text_19">
     <text style="font-family:Arial;font-size:10px;font-style:normal;font-weight:normal;text-anchor:start;" transform="rotate(-0, 428.443438, 52.81875)" x="428.443438" y="52.81875">IHC</text>
    </g>
    <g id="PathCollection_7">
     <defs>
      <path d="M 0 3.872983 
C 1.027127 3.872983 2.012324 3.464901 2.738613 2.738613 
C 3.464901 2.012324 3.872983 1.027127 3.872983 0 
C 3.872983 -1.027127 3.464901 -2.012324 2.738613 -2.738613 
C 2.012324 -3.464901 1.027127 -3.872983 0 -3.872983 
C -1.027127 -3.872983 -2.012324 -3.464901 -2.738613 -2.738613 
C -3.464901 -2.012324 -3.872983 -1.027127 -3.872983 0 
C -3.872983 1.027127 -3.464901 2.012324 -2.738613 2.738613 
C -2.012324 3.464901 -1.027127 3.872983 0 3.872983 
z
" id="m78d0b8c146" style="stroke:#ff0000;"/>
     </defs>
     <g>
      <use style="fill:#ff0000;stroke:#ff0000;" x="410.443438" xlink:href="#m78d0b8c146" y="64.339063"/>
     </g>
    </g>
    <g id="text_20">
     <text style="font-family:Arial;font-size:10px;font-style:normal;font-weight:normal;text-anchor:start;" transform="rotate(-0, 428.443438, 66.964063)" x="428.443438" y="66.964063">Air</text>
    </g>
    <g id="PathCollection_8">
     <defs>
      <path d="M 0 3.872983 
C 1.027127 3.872983 2.012324 3.464901 2.738613 2.738613 
C 3.464901 2.012324 3.872983 1.027127 3.872983 0 
C 3.872983 -1.027127 3.464901 -2.012324 2.738613 -2.738613 
C 2.012324 -3.464901 1.027127 -3.872983 0 -3.872983 
C -1.027127 -3.872983 -2.012324 -3.464901 -2.738613 -2.738613 
C -3.464901 -2.012324 -3.872983 -1.027127 -3.872983 0 
C -3.872983 1.027127 -3.464901 2.012324 -2.738613 2.738613 
C -2.012324 3.464901 -1.027127 3.872983 0 3.872983 
z
" id="m7f44d211be" style="stroke:#0000ff;"/>
     </defs>
     <g>
      <use style="fill:#0000ff;stroke:#0000ff;" x="410.443438" xlink:href="#m7f44d211be" y="78.484375"/>
     </g>
    </g>
    <g id="text_21">
     <text style="font-family:Arial;font-size:10px;font-style:normal;font-weight:normal;text-anchor:start;" transform="rotate(-0, 428.443438, 81.109375)" x="428.443438" y="81.109375">IHC</text>
    </g>
   </g>
  </g>
 </g>
 <defs>
  <clipPath id="p705f895bd9">
   <rect height="217.44" width="334.8" x="44.903438" y="27.515625"/>
  </clipPath>
 </defs>
</svg>
