<?xml version="1.0" encoding="utf-8" standalone="no"?>
<!DOCTYPE svg PUBLIC "-//W3C//DTD SVG 1.1//EN"
  "http://www.w3.org/Graphics/SVG/1.1/DTD/svg11.dtd">
<!-- Created with matplotlib (https://matplotlib.org/) -->
<svg height="287.555pt" version="1.1" viewBox="0 0 462.42625 287.555" width="462.42625pt" xmlns="http://www.w3.org/2000/svg" xmlns:xlink="http://www.w3.org/1999/xlink">
 <defs>
  <style type="text/css">
*{stroke-linecap:butt;stroke-linejoin:round;}
  </style>
 </defs>
 <g id="figure_1">
  <g id="patch_1">
   <path d="M -0 287.555 
L 462.42625 287.555 
L 462.42625 0 
L -0 0 
z
" style="fill:#ffffff;"/>
  </g>
  <g id="axes_1">
   <g id="patch_2">
    <path d="M 50.464375 244.955625 
L 385.264375 244.955625 
L 385.264375 27.515625 
L 50.464375 27.515625 
z
" style="fill:#ffffff;"/>
   </g>
   <g id="patch_3">
    <path clip-path="url(#pae2ab3e04f)" d="M 67.873975 209.184601 
L 133.494775 209.184601 
L 133.494775 187.581879 
L 67.873975 187.581879 
L 67.873975 209.184601 
z
" style="fill:#df2020;stroke:#4c4c4c;stroke-linejoin:miter;stroke-width:1.5;"/>
   </g>
   <g id="patch_4">
    <path clip-path="url(#pae2ab3e04f)" d="M 134.833975 218.653546 
L 200.454775 218.653546 
L 200.454775 195.037791 
L 134.833975 195.037791 
L 134.833975 218.653546 
z
" style="fill:#2020df;stroke:#4c4c4c;stroke-linejoin:miter;stroke-width:1.5;"/>
   </g>
   <g id="patch_5">
    <path clip-path="url(#pae2ab3e04f)" d="M 235.273975 195.929164 
L 300.894775 195.929164 
L 300.894775 167.445822 
L 235.273975 167.445822 
L 235.273975 195.929164 
z
" style="fill:#df2020;stroke:#4c4c4c;stroke-linejoin:miter;stroke-width:1.5;"/>
   </g>
   <g id="patch_6">
    <path clip-path="url(#pae2ab3e04f)" d="M 302.233975 203.706714 
L 367.854775 203.706714 
L 367.854775 168.935218 
L 302.233975 168.935218 
L 302.233975 203.706714 
z
" style="fill:#2020df;stroke:#4c4c4c;stroke-linejoin:miter;stroke-width:1.5;"/>
   </g>
   <g id="PathCollection_1"/>
   <g id="PathCollection_2"/>
   <g id="patch_7">
    <path clip-path="url(#pae2ab3e04f)" d="M 134.164375 238.904137 
L 134.164375 238.904137 
L 134.164375 238.904137 
L 134.164375 238.904137 
z
" style="fill:#df2020;stroke:#4c4c4c;stroke-linejoin:miter;stroke-width:0.75;"/>
   </g>
   <g id="patch_8">
    <path clip-path="url(#pae2ab3e04f)" d="M 134.164375 238.904137 
L 134.164375 238.904137 
L 134.164375 238.904137 
L 134.164375 238.904137 
z
" style="fill:#2020df;stroke:#4c4c4c;stroke-linejoin:miter;stroke-width:0.75;"/>
   </g>
   <g id="matplotlib.axis_1">
    <g id="xtick_1">
     <g id="line2d_1">
      <defs>
       <path d="M 0 0 
L 0 3.5 
" id="m316af973c2" style="stroke:#000000;stroke-width:0.8;"/>
      </defs>
      <g>
       <use style="stroke:#000000;stroke-width:0.8;" x="134.164375" xlink:href="#m316af973c2" y="244.955625"/>
      </g>
     </g>
     <g id="text_1">
      <text style="font-family:Arial;font-size:12px;font-style:normal;font-weight:normal;text-anchor:middle;" transform="rotate(-0, 134.164375, 260.69125)" x="134.164375" y="260.69125">Light/Inactive</text>
     </g>
    </g>
    <g id="xtick_2">
     <g id="line2d_2">
      <g>
       <use style="stroke:#000000;stroke-width:0.8;" x="301.564375" xlink:href="#m316af973c2" y="244.955625"/>
      </g>
     </g>
     <g id="text_2">
      <text style="font-family:Arial;font-size:12px;font-style:normal;font-weight:normal;text-anchor:middle;" transform="rotate(-0, 301.564375, 260.69125)" x="301.564375" y="260.69125">Night/Active</text>
     </g>
    </g>
    <g id="text_3">
     <text style="font-family:Arial;font-size:14px;font-style:normal;font-weight:normal;text-anchor:middle;" transform="rotate(-0, 217.864375, 277.408437)" x="217.864375" y="277.408437">Phase of Cycle</text>
    </g>
   </g>
   <g id="matplotlib.axis_2">
    <g id="ytick_1">
     <g id="line2d_3">
      <defs>
       <path d="M 0 0 
L -3.5 0 
" id="m6d44be72c4" style="stroke:#000000;stroke-width:0.8;"/>
      </defs>
      <g>
       <use style="stroke:#000000;stroke-width:0.8;" x="50.464375" xlink:href="#m6d44be72c4" y="238.904137"/>
      </g>
     </g>
     <g id="text_4">
      <text style="font-family:Arial;font-size:10px;font-style:normal;font-weight:normal;text-anchor:end;" transform="rotate(-0, 43.464375, 242.483043)" x="43.464375" y="242.483043">0.00</text>
     </g>
    </g>
    <g id="ytick_2">
     <g id="line2d_4">
      <g>
       <use style="stroke:#000000;stroke-width:0.8;" x="50.464375" xlink:href="#m6d44be72c4" y="210.249411"/>
      </g>
     </g>
     <g id="text_5">
      <text style="font-family:Arial;font-size:10px;font-style:normal;font-weight:normal;text-anchor:end;" transform="rotate(-0, 43.464375, 213.828318)" x="43.464375" y="213.828318">0.05</text>
     </g>
    </g>
    <g id="ytick_3">
     <g id="line2d_5">
      <g>
       <use style="stroke:#000000;stroke-width:0.8;" x="50.464375" xlink:href="#m6d44be72c4" y="181.594686"/>
      </g>
     </g>
     <g id="text_6">
      <text style="font-family:Arial;font-size:10px;font-style:normal;font-weight:normal;text-anchor:end;" transform="rotate(-0, 43.464375, 185.173593)" x="43.464375" y="185.173593">0.10</text>
     </g>
    </g>
    <g id="ytick_4">
     <g id="line2d_6">
      <g>
       <use style="stroke:#000000;stroke-width:0.8;" x="50.464375" xlink:href="#m6d44be72c4" y="152.939961"/>
      </g>
     </g>
     <g id="text_7">
      <text style="font-family:Arial;font-size:10px;font-style:normal;font-weight:normal;text-anchor:end;" transform="rotate(-0, 43.464375, 156.518867)" x="43.464375" y="156.518867">0.15</text>
     </g>
    </g>
    <g id="ytick_5">
     <g id="line2d_7">
      <g>
       <use style="stroke:#000000;stroke-width:0.8;" x="50.464375" xlink:href="#m6d44be72c4" y="124.285236"/>
      </g>
     </g>
     <g id="text_8">
      <text style="font-family:Arial;font-size:10px;font-style:normal;font-weight:normal;text-anchor:end;" transform="rotate(-0, 43.464375, 127.864142)" x="43.464375" y="127.864142">0.20</text>
     </g>
    </g>
    <g id="ytick_6">
     <g id="line2d_8">
      <g>
       <use style="stroke:#000000;stroke-width:0.8;" x="50.464375" xlink:href="#m6d44be72c4" y="95.630511"/>
      </g>
     </g>
     <g id="text_9">
      <text style="font-family:Arial;font-size:10px;font-style:normal;font-weight:normal;text-anchor:end;" transform="rotate(-0, 43.464375, 99.209417)" x="43.464375" y="99.209417">0.25</text>
     </g>
    </g>
    <g id="ytick_7">
     <g id="line2d_9">
      <g>
       <use style="stroke:#000000;stroke-width:0.8;" x="50.464375" xlink:href="#m6d44be72c4" y="66.975785"/>
      </g>
     </g>
     <g id="text_10">
      <text style="font-family:Arial;font-size:10px;font-style:normal;font-weight:normal;text-anchor:end;" transform="rotate(-0, 43.464375, 70.554692)" x="43.464375" y="70.554692">0.30</text>
     </g>
    </g>
    <g id="ytick_8">
     <g id="line2d_10">
      <g>
       <use style="stroke:#000000;stroke-width:0.8;" x="50.464375" xlink:href="#m6d44be72c4" y="38.32106"/>
      </g>
     </g>
     <g id="text_11">
      <text style="font-family:Arial;font-size:10px;font-style:normal;font-weight:normal;text-anchor:end;" transform="rotate(-0, 43.464375, 41.899966)" x="43.464375" y="41.899966">0.35</text>
     </g>
    </g>
    <g id="text_12">
     <text style="font-family:Arial;font-size:14px;font-style:normal;font-weight:normal;text-anchor:middle;" transform="rotate(-90, 17.220938, 136.235625)" x="17.220938" y="136.235625">Relative Abundance</text>
    </g>
   </g>
   <g id="line2d_11">
    <path clip-path="url(#pae2ab3e04f)" d="M 100.684375 209.184601 
L 100.684375 213.315275 
" style="fill:none;stroke:#4c4c4c;stroke-linecap:square;stroke-width:1.5;"/>
   </g>
   <g id="line2d_12">
    <path clip-path="url(#pae2ab3e04f)" d="M 100.684375 187.581879 
L 100.684375 165.955303 
" style="fill:none;stroke:#4c4c4c;stroke-linecap:square;stroke-width:1.5;"/>
   </g>
   <g id="line2d_13">
    <path clip-path="url(#pae2ab3e04f)" d="M 84.279175 213.315275 
L 117.089575 213.315275 
" style="fill:none;stroke:#4c4c4c;stroke-linecap:square;stroke-width:1.5;"/>
   </g>
   <g id="line2d_14">
    <path clip-path="url(#pae2ab3e04f)" d="M 84.279175 165.955303 
L 117.089575 165.955303 
" style="fill:none;stroke:#4c4c4c;stroke-linecap:square;stroke-width:1.5;"/>
   </g>
   <g id="line2d_15"/>
   <g id="line2d_16">
    <path clip-path="url(#pae2ab3e04f)" d="M 167.644375 218.653546 
L 167.644375 234.155659 
" style="fill:none;stroke:#4c4c4c;stroke-linecap:square;stroke-width:1.5;"/>
   </g>
   <g id="line2d_17">
    <path clip-path="url(#pae2ab3e04f)" d="M 167.644375 195.037791 
L 167.644375 183.738656 
" style="fill:none;stroke:#4c4c4c;stroke-linecap:square;stroke-width:1.5;"/>
   </g>
   <g id="line2d_18">
    <path clip-path="url(#pae2ab3e04f)" d="M 151.239175 234.155659 
L 184.049575 234.155659 
" style="fill:none;stroke:#4c4c4c;stroke-linecap:square;stroke-width:1.5;"/>
   </g>
   <g id="line2d_19">
    <path clip-path="url(#pae2ab3e04f)" d="M 151.239175 183.738656 
L 184.049575 183.738656 
" style="fill:none;stroke:#4c4c4c;stroke-linecap:square;stroke-width:1.5;"/>
   </g>
   <g id="line2d_20"/>
   <g id="line2d_21">
    <path clip-path="url(#pae2ab3e04f)" d="M 268.084375 195.929164 
L 268.084375 216.462562 
" style="fill:none;stroke:#4c4c4c;stroke-linecap:square;stroke-width:1.5;"/>
   </g>
   <g id="line2d_22">
    <path clip-path="url(#pae2ab3e04f)" d="M 268.084375 167.445822 
L 268.084375 153.903748 
" style="fill:none;stroke:#4c4c4c;stroke-linecap:square;stroke-width:1.5;"/>
   </g>
   <g id="line2d_23">
    <path clip-path="url(#pae2ab3e04f)" d="M 251.679175 216.462562 
L 284.489575 216.462562 
" style="fill:none;stroke:#4c4c4c;stroke-linecap:square;stroke-width:1.5;"/>
   </g>
   <g id="line2d_24">
    <path clip-path="url(#pae2ab3e04f)" d="M 251.679175 153.903748 
L 284.489575 153.903748 
" style="fill:none;stroke:#4c4c4c;stroke-linecap:square;stroke-width:1.5;"/>
   </g>
   <g id="line2d_25">
    <defs>
     <path d="M -0 3.535534 
L 2.12132 0 
L -0 -3.535534 
L -2.12132 -0 
z
" id="mc54ccbebdd" style="stroke:#4c4c4c;stroke-linejoin:miter;"/>
    </defs>
    <g clip-path="url(#pae2ab3e04f)">
     <use style="fill:#4c4c4c;stroke:#4c4c4c;stroke-linejoin:miter;" x="268.084375" xlink:href="#mc54ccbebdd" y="95.438026"/>
     <use style="fill:#4c4c4c;stroke:#4c4c4c;stroke-linejoin:miter;" x="268.084375" xlink:href="#mc54ccbebdd" y="115.755942"/>
    </g>
   </g>
   <g id="line2d_26">
    <path clip-path="url(#pae2ab3e04f)" d="M 335.044375 203.706714 
L 335.044375 214.270271 
" style="fill:none;stroke:#4c4c4c;stroke-linecap:square;stroke-width:1.5;"/>
   </g>
   <g id="line2d_27">
    <path clip-path="url(#pae2ab3e04f)" d="M 335.044375 168.935218 
L 335.044375 122.164757 
" style="fill:none;stroke:#4c4c4c;stroke-linecap:square;stroke-width:1.5;"/>
   </g>
   <g id="line2d_28">
    <path clip-path="url(#pae2ab3e04f)" d="M 318.639175 214.270271 
L 351.449575 214.270271 
" style="fill:none;stroke:#4c4c4c;stroke-linecap:square;stroke-width:1.5;"/>
   </g>
   <g id="line2d_29">
    <path clip-path="url(#pae2ab3e04f)" d="M 318.639175 122.164757 
L 351.449575 122.164757 
" style="fill:none;stroke:#4c4c4c;stroke-linecap:square;stroke-width:1.5;"/>
   </g>
   <g id="line2d_30"/>
   <g id="line2d_31">
    <path clip-path="url(#pae2ab3e04f)" d="M 268.084375 85.813647 
L 268.084375 82.605521 
L 335.044375 82.605521 
L 335.044375 85.813647 
" style="fill:none;stroke:#333333;stroke-linecap:square;stroke-width:1.5;"/>
   </g>
   <g id="line2d_32">
    <path clip-path="url(#pae2ab3e04f)" d="M 100.684375 156.330924 
L 100.684375 153.122798 
L 167.644375 153.122798 
L 167.644375 156.330924 
" style="fill:none;stroke:#333333;stroke-linecap:square;stroke-width:1.5;"/>
   </g>
   <g id="line2d_33">
    <path clip-path="url(#pae2ab3e04f)" d="M 100.684375 66.740981 
L 100.684375 63.532855 
L 268.084375 63.532855 
L 268.084375 66.740981 
" style="fill:none;stroke:#333333;stroke-linecap:square;stroke-width:1.5;"/>
   </g>
   <g id="line2d_34">
    <path clip-path="url(#pae2ab3e04f)" d="M 167.644375 46.703454 
L 167.644375 43.495328 
L 335.044375 43.495328 
L 335.044375 46.703454 
" style="fill:none;stroke:#333333;stroke-linecap:square;stroke-width:1.5;"/>
   </g>
   <g id="line2d_35">
    <path clip-path="url(#pae2ab3e04f)" d="M 67.873975 197.37443 
L 133.494775 197.37443 
" style="fill:none;stroke:#4c4c4c;stroke-linecap:square;stroke-width:1.5;"/>
   </g>
   <g id="line2d_36">
    <path clip-path="url(#pae2ab3e04f)" d="M 134.833975 208.571212 
L 200.454775 208.571212 
" style="fill:none;stroke:#4c4c4c;stroke-linecap:square;stroke-width:1.5;"/>
   </g>
   <g id="line2d_37">
    <path clip-path="url(#pae2ab3e04f)" d="M 235.273975 182.505649 
L 300.894775 182.505649 
" style="fill:none;stroke:#4c4c4c;stroke-linecap:square;stroke-width:1.5;"/>
   </g>
   <g id="line2d_38">
    <path clip-path="url(#pae2ab3e04f)" d="M 302.233975 178.762049 
L 367.854775 178.762049 
" style="fill:none;stroke:#4c4c4c;stroke-linecap:square;stroke-width:1.5;"/>
   </g>
   <g id="patch_9">
    <path d="M 50.464375 244.955625 
L 50.464375 27.515625 
" style="fill:none;stroke:#000000;stroke-linecap:square;stroke-linejoin:miter;stroke-width:0.8;"/>
   </g>
   <g id="patch_10">
    <path d="M 385.264375 244.955625 
L 385.264375 27.515625 
" style="fill:none;stroke:#000000;stroke-linecap:square;stroke-linejoin:miter;stroke-width:0.8;"/>
   </g>
   <g id="patch_11">
    <path d="M 50.464375 244.955625 
L 385.264375 244.955625 
" style="fill:none;stroke:#000000;stroke-linecap:square;stroke-linejoin:miter;stroke-width:0.8;"/>
   </g>
   <g id="patch_12">
    <path d="M 50.464375 27.515625 
L 385.264375 27.515625 
" style="fill:none;stroke:#000000;stroke-linecap:square;stroke-linejoin:miter;stroke-width:0.8;"/>
   </g>
   <g id="PathCollection_3">
    <defs>
     <path d="M 0 5 
C 1.326016 5 2.597899 4.473168 3.535534 3.535534 
C 4.473168 2.597899 5 1.326016 5 0 
C 5 -1.326016 4.473168 -2.597899 3.535534 -3.535534 
C 2.597899 -4.473168 1.326016 -5 0 -5 
C -1.326016 -5 -2.597899 -4.473168 -3.535534 -3.535534 
C -4.473168 -2.597899 -5 -1.326016 -5 0 
C -5 1.326016 -4.473168 2.597899 -3.535534 3.535534 
C -2.597899 4.473168 -1.326016 5 0 5 
z
" id="C0_0_87fb11cef2"/>
    </defs>
    <g clip-path="url(#pae2ab3e04f)">
     <use style="fill:#ff0000;stroke:#000000;" x="100.684375" xlink:href="#C0_0_87fb11cef2" y="213.315275"/>
    </g>
    <g clip-path="url(#pae2ab3e04f)">
     <use style="fill:#ff0000;stroke:#000000;" x="89.609825" xlink:href="#C0_0_87fb11cef2" y="211.010996"/>
    </g>
    <g clip-path="url(#pae2ab3e04f)">
     <use style="fill:#ff0000;stroke:#000000;" x="111.563491" xlink:href="#C0_0_87fb11cef2" y="210.589924"/>
    </g>
    <g clip-path="url(#pae2ab3e04f)">
     <use style="fill:#ff0000;stroke:#000000;" x="79.01529" xlink:href="#C0_0_87fb11cef2" y="207.779277"/>
    </g>
    <g clip-path="url(#pae2ab3e04f)">
     <use style="fill:#ff0000;stroke:#000000;" x="100.684375" xlink:href="#C0_0_87fb11cef2" y="198.675508"/>
    </g>
    <g clip-path="url(#pae2ab3e04f)">
     <use style="fill:#ff0000;stroke:#000000;" x="89.283802" xlink:href="#C0_0_87fb11cef2" y="197.37443"/>
    </g>
    <g clip-path="url(#pae2ab3e04f)">
     <use style="fill:#ff0000;stroke:#000000;" x="109.525908" xlink:href="#C0_0_87fb11cef2" y="193.454199"/>
    </g>
    <g clip-path="url(#pae2ab3e04f)">
     <use style="fill:#ff0000;stroke:#000000;" x="97.437315" xlink:href="#C0_0_87fb11cef2" y="190.888038"/>
    </g>
    <g clip-path="url(#pae2ab3e04f)">
     <use style="fill:#ff0000;stroke:#000000;" x="104.132484" xlink:href="#C0_0_87fb11cef2" y="184.27572"/>
    </g>
    <g clip-path="url(#pae2ab3e04f)">
     <use style="fill:#ff0000;stroke:#000000;" x="100.684375" xlink:href="#C0_0_87fb11cef2" y="170.043569"/>
    </g>
    <g clip-path="url(#pae2ab3e04f)">
     <use style="fill:#ff0000;stroke:#000000;" x="90.707299" xlink:href="#C0_0_87fb11cef2" y="165.955303"/>
    </g>
   </g>
   <g id="PathCollection_4">
    <defs>
     <path d="M 0 5 
C 1.326016 5 2.597899 4.473168 3.535534 3.535534 
C 4.473168 2.597899 5 1.326016 5 0 
C 5 -1.326016 4.473168 -2.597899 3.535534 -3.535534 
C 2.597899 -4.473168 1.326016 -5 0 -5 
C -1.326016 -5 -2.597899 -4.473168 -3.535534 -3.535534 
C -4.473168 -2.597899 -5 -1.326016 -5 0 
C -5 1.326016 -4.473168 2.597899 -3.535534 3.535534 
C -2.597899 4.473168 -1.326016 5 0 5 
z
" id="C1_0_8e7cc6ad2b"/>
    </defs>
    <g clip-path="url(#pae2ab3e04f)">
     <use style="fill:#0000ff;stroke:#000000;" x="167.644375" xlink:href="#C1_0_8e7cc6ad2b" y="234.155659"/>
    </g>
    <g clip-path="url(#pae2ab3e04f)">
     <use style="fill:#0000ff;stroke:#000000;" x="167.644375" xlink:href="#C1_0_8e7cc6ad2b" y="221.568452"/>
    </g>
    <g clip-path="url(#pae2ab3e04f)">
     <use style="fill:#0000ff;stroke:#000000;" x="156.125983" xlink:href="#C1_0_8e7cc6ad2b" y="220.968522"/>
    </g>
    <g clip-path="url(#pae2ab3e04f)">
     <use style="fill:#0000ff;stroke:#000000;" x="176.475636" xlink:href="#C1_0_8e7cc6ad2b" y="216.338569"/>
    </g>
    <g clip-path="url(#pae2ab3e04f)">
     <use style="fill:#0000ff;stroke:#000000;" x="167.644375" xlink:href="#C1_0_8e7cc6ad2b" y="210.898749"/>
    </g>
    <g clip-path="url(#pae2ab3e04f)">
     <use style="fill:#0000ff;stroke:#000000;" x="156.579682" xlink:href="#C1_0_8e7cc6ad2b" y="208.571212"/>
    </g>
    <g clip-path="url(#pae2ab3e04f)">
     <use style="fill:#0000ff;stroke:#000000;" x="167.644375" xlink:href="#C1_0_8e7cc6ad2b" y="197.024085"/>
    </g>
    <g clip-path="url(#pae2ab3e04f)">
     <use style="fill:#0000ff;stroke:#000000;" x="156.273163" xlink:href="#C1_0_8e7cc6ad2b" y="195.601817"/>
    </g>
    <g clip-path="url(#pae2ab3e04f)">
     <use style="fill:#0000ff;stroke:#000000;" x="178.609132" xlink:href="#C1_0_8e7cc6ad2b" y="194.473765"/>
    </g>
    <g clip-path="url(#pae2ab3e04f)">
     <use style="fill:#0000ff;stroke:#000000;" x="147.05961" xlink:href="#C1_0_8e7cc6ad2b" y="190.708296"/>
    </g>
    <g clip-path="url(#pae2ab3e04f)">
     <use style="fill:#0000ff;stroke:#000000;" x="167.644375" xlink:href="#C1_0_8e7cc6ad2b" y="183.738656"/>
    </g>
   </g>
   <g id="PathCollection_5">
    <defs>
     <path d="M 0 5 
C 1.326016 5 2.597899 4.473168 3.535534 3.535534 
C 4.473168 2.597899 5 1.326016 5 0 
C 5 -1.326016 4.473168 -2.597899 3.535534 -3.535534 
C 2.597899 -4.473168 1.326016 -5 0 -5 
C -1.326016 -5 -2.597899 -4.473168 -3.535534 -3.535534 
C -4.473168 -2.597899 -5 -1.326016 -5 0 
C -5 1.326016 -4.473168 2.597899 -3.535534 3.535534 
C -2.597899 4.473168 -1.326016 5 0 5 
z
" id="C2_0_4756415a73"/>
    </defs>
    <g clip-path="url(#pae2ab3e04f)">
     <use style="fill:#ff0000;stroke:#000000;" x="268.084375" xlink:href="#C2_0_4756415a73" y="216.462562"/>
    </g>
    <g clip-path="url(#pae2ab3e04f)">
     <use style="fill:#ff0000;stroke:#000000;" x="258.685274" xlink:href="#C2_0_4756415a73" y="211.746436"/>
    </g>
    <g clip-path="url(#pae2ab3e04f)">
     <use style="fill:#ff0000;stroke:#000000;" x="268.084375" xlink:href="#C2_0_4756415a73" y="204.345319"/>
    </g>
    <g clip-path="url(#pae2ab3e04f)">
     <use style="fill:#ff0000;stroke:#000000;" x="268.084375" xlink:href="#C2_0_4756415a73" y="193.123779"/>
    </g>
    <g clip-path="url(#pae2ab3e04f)">
     <use style="fill:#ff0000;stroke:#000000;" x="256.75393" xlink:href="#C2_0_4756415a73" y="191.549083"/>
    </g>
    <g clip-path="url(#pae2ab3e04f)">
     <use style="fill:#ff0000;stroke:#000000;" x="265.201495" xlink:href="#C2_0_4756415a73" y="185.265877"/>
    </g>
    <g clip-path="url(#pae2ab3e04f)">
     <use style="fill:#ff0000;stroke:#000000;" x="273.666885" xlink:href="#C2_0_4756415a73" y="179.745421"/>
    </g>
    <g clip-path="url(#pae2ab3e04f)">
     <use style="fill:#ff0000;stroke:#000000;" x="257.876545" xlink:href="#C2_0_4756415a73" y="178.991775"/>
    </g>
    <g clip-path="url(#pae2ab3e04f)">
     <use style="fill:#ff0000;stroke:#000000;" x="268.084375" xlink:href="#C2_0_4756415a73" y="171.959847"/>
    </g>
    <g clip-path="url(#pae2ab3e04f)">
     <use style="fill:#ff0000;stroke:#000000;" x="268.084375" xlink:href="#C2_0_4756415a73" y="153.903748"/>
    </g>
    <g clip-path="url(#pae2ab3e04f)">
     <use style="fill:#ff0000;stroke:#000000;" x="268.084375" xlink:href="#C2_0_4756415a73" y="115.755942"/>
    </g>
    <g clip-path="url(#pae2ab3e04f)">
     <use style="fill:#ff0000;stroke:#000000;" x="268.084375" xlink:href="#C2_0_4756415a73" y="95.438026"/>
    </g>
   </g>
   <g id="PathCollection_6">
    <defs>
     <path d="M 0 5 
C 1.326016 5 2.597899 4.473168 3.535534 3.535534 
C 4.473168 2.597899 5 1.326016 5 0 
C 5 -1.326016 4.473168 -2.597899 3.535534 -3.535534 
C 2.597899 -4.473168 1.326016 -5 0 -5 
C -1.326016 -5 -2.597899 -4.473168 -3.535534 -3.535534 
C -4.473168 -2.597899 -5 -1.326016 -5 0 
C -5 1.326016 -4.473168 2.597899 -3.535534 3.535534 
C -2.597899 4.473168 -1.326016 5 0 5 
z
" id="C3_0_eb8a50a5fb"/>
    </defs>
    <g clip-path="url(#pae2ab3e04f)">
     <use style="fill:#0000ff;stroke:#000000;" x="335.044375" xlink:href="#C3_0_eb8a50a5fb" y="214.270271"/>
    </g>
    <g clip-path="url(#pae2ab3e04f)">
     <use style="fill:#0000ff;stroke:#000000;" x="326.97833" xlink:href="#C3_0_eb8a50a5fb" y="208.462162"/>
    </g>
    <g clip-path="url(#pae2ab3e04f)">
     <use style="fill:#0000ff;stroke:#000000;" x="336.915409" xlink:href="#C3_0_eb8a50a5fb" y="204.326092"/>
    </g>
    <g clip-path="url(#pae2ab3e04f)">
     <use style="fill:#0000ff;stroke:#000000;" x="348.405441" xlink:href="#C3_0_eb8a50a5fb" y="203.500255"/>
    </g>
    <g clip-path="url(#pae2ab3e04f)">
     <use style="fill:#0000ff;stroke:#000000;" x="326.933257" xlink:href="#C3_0_eb8a50a5fb" y="200.243946"/>
    </g>
    <g clip-path="url(#pae2ab3e04f)">
     <use style="fill:#0000ff;stroke:#000000;" x="335.044375" xlink:href="#C3_0_eb8a50a5fb" y="186.120899"/>
    </g>
    <g clip-path="url(#pae2ab3e04f)">
     <use style="fill:#0000ff;stroke:#000000;" x="335.044375" xlink:href="#C3_0_eb8a50a5fb" y="171.4032"/>
    </g>
    <g clip-path="url(#pae2ab3e04f)">
     <use style="fill:#0000ff;stroke:#000000;" x="323.555732" xlink:href="#C3_0_eb8a50a5fb" y="170.567877"/>
    </g>
    <g clip-path="url(#pae2ab3e04f)">
     <use style="fill:#0000ff;stroke:#000000;" x="346.459953" xlink:href="#C3_0_eb8a50a5fb" y="170.168769"/>
    </g>
    <g clip-path="url(#pae2ab3e04f)">
     <use style="fill:#0000ff;stroke:#000000;" x="314.850687" xlink:href="#C3_0_eb8a50a5fb" y="165.234565"/>
    </g>
    <g clip-path="url(#pae2ab3e04f)">
     <use style="fill:#0000ff;stroke:#000000;" x="335.044375" xlink:href="#C3_0_eb8a50a5fb" y="153.780063"/>
    </g>
    <g clip-path="url(#pae2ab3e04f)">
     <use style="fill:#0000ff;stroke:#000000;" x="335.044375" xlink:href="#C3_0_eb8a50a5fb" y="122.164757"/>
    </g>
   </g>
   <g id="text_13">
    <text style="font-family:Arial;font-size:10px;font-style:normal;font-weight:normal;text-anchor:middle;" transform="rotate(-0, 301.564375, 79.618021)" x="301.564375" y="79.618021">ns</text>
   </g>
   <g id="text_14">
    <text style="font-family:Arial;font-size:10px;font-style:normal;font-weight:normal;text-anchor:middle;" transform="rotate(-0, 134.164375, 150.135298)" x="134.164375" y="150.135298">ns</text>
   </g>
   <g id="text_15">
    <text style="font-family:Arial;font-size:10px;font-style:normal;font-weight:normal;text-anchor:middle;" transform="rotate(-0, 184.384375, 60.545355)" x="184.384375" y="60.545355">ns</text>
   </g>
   <g id="text_16">
    <text style="font-family:Arial;font-size:10px;font-style:normal;font-weight:normal;text-anchor:middle;" transform="rotate(-0, 251.344375, 40.507828)" x="251.344375" y="40.507828">*</text>
   </g>
   <g id="text_17">
    <text style="font-family:Arial;font-size:20px;font-style:normal;font-weight:normal;text-anchor:middle;" transform="rotate(-0, 217.864375, 21.515625)" x="217.864375" y="21.515625">Hyodeoxycholic acid</text>
   </g>
   <g id="legend_1">
    <g id="patch_13">
     <path d="M 404.004375 87.096875 
L 453.22625 87.096875 
Q 455.22625 87.096875 455.22625 85.096875 
L 455.22625 29.515625 
Q 455.22625 27.515625 453.22625 27.515625 
L 404.004375 27.515625 
Q 402.004375 27.515625 402.004375 29.515625 
L 402.004375 85.096875 
Q 402.004375 87.096875 404.004375 87.096875 
z
" style="fill:#ffffff;opacity:0.8;stroke:#cccccc;stroke-linejoin:miter;"/>
    </g>
    <g id="patch_14">
     <path d="M 406.004375 38.673438 
L 426.004375 38.673438 
L 426.004375 31.673438 
L 406.004375 31.673438 
z
" style="fill:#df2020;stroke:#4c4c4c;stroke-linejoin:miter;stroke-width:0.75;"/>
    </g>
    <g id="text_18">
     <text style="font-family:Arial;font-size:10px;font-style:normal;font-weight:normal;text-anchor:start;" transform="rotate(-0, 434.004375, 38.673438)" x="434.004375" y="38.673438">Air</text>
    </g>
    <g id="patch_15">
     <path d="M 406.004375 52.81875 
L 426.004375 52.81875 
L 426.004375 45.81875 
L 406.004375 45.81875 
z
" style="fill:#2020df;stroke:#4c4c4c;stroke-linejoin:miter;stroke-width:0.75;"/>
    </g>
    <g id="text_19">
     <text style="font-family:Arial;font-size:10px;font-style:normal;font-weight:normal;text-anchor:start;" transform="rotate(-0, 434.004375, 52.81875)" x="434.004375" y="52.81875">IHC</text>
    </g>
    <g id="PathCollection_7">
     <defs>
      <path d="M 0 3.872983 
C 1.027127 3.872983 2.012324 3.464901 2.738613 2.738613 
C 3.464901 2.012324 3.872983 1.027127 3.872983 0 
C 3.872983 -1.027127 3.464901 -2.012324 2.738613 -2.738613 
C 2.012324 -3.464901 1.027127 -3.872983 0 -3.872983 
C -1.027127 -3.872983 -2.012324 -3.464901 -2.738613 -2.738613 
C -3.464901 -2.012324 -3.872983 -1.027127 -3.872983 0 
C -3.872983 1.027127 -3.464901 2.012324 -2.738613 2.738613 
C -2.012324 3.464901 -1.027127 3.872983 0 3.872983 
z
" id="ma54df91357" style="stroke:#ff0000;"/>
     </defs>
     <g>
      <use style="fill:#ff0000;stroke:#ff0000;" x="416.004375" xlink:href="#ma54df91357" y="64.339063"/>
     </g>
    </g>
    <g id="text_20">
     <text style="font-family:Arial;font-size:10px;font-style:normal;font-weight:normal;text-anchor:start;" transform="rotate(-0, 434.004375, 66.964063)" x="434.004375" y="66.964063">Air</text>
    </g>
    <g id="PathCollection_8">
     <defs>
      <path d="M 0 3.872983 
C 1.027127 3.872983 2.012324 3.464901 2.738613 2.738613 
C 3.464901 2.012324 3.872983 1.027127 3.872983 0 
C 3.872983 -1.027127 3.464901 -2.012324 2.738613 -2.738613 
C 2.012324 -3.464901 1.027127 -3.872983 0 -3.872983 
C -1.027127 -3.872983 -2.012324 -3.464901 -2.738613 -2.738613 
C -3.464901 -2.012324 -3.872983 -1.027127 -3.872983 0 
C -3.872983 1.027127 -3.464901 2.012324 -2.738613 2.738613 
C -2.012324 3.464901 -1.027127 3.872983 0 3.872983 
z
" id="m41f32ff58d" style="stroke:#0000ff;"/>
     </defs>
     <g>
      <use style="fill:#0000ff;stroke:#0000ff;" x="416.004375" xlink:href="#m41f32ff58d" y="78.484375"/>
     </g>
    </g>
    <g id="text_21">
     <text style="font-family:Arial;font-size:10px;font-style:normal;font-weight:normal;text-anchor:start;" transform="rotate(-0, 434.004375, 81.109375)" x="434.004375" y="81.109375">IHC</text>
    </g>
   </g>
  </g>
 </g>
 <defs>
  <clipPath id="pae2ab3e04f">
   <rect height="217.44" width="334.8" x="50.464375" y="27.515625"/>
  </clipPath>
 </defs>
</svg>
