<?xml version="1.0" encoding="utf-8" standalone="no"?>
<!DOCTYPE svg PUBLIC "-//W3C//DTD SVG 1.1//EN"
  "http://www.w3.org/Graphics/SVG/1.1/DTD/svg11.dtd">
<!-- Created with matplotlib (https://matplotlib.org/) -->
<svg height="443.338125pt" version="1.1" viewBox="0 0 433.362016 443.338125" width="433.362016pt" xmlns="http://www.w3.org/2000/svg" xmlns:xlink="http://www.w3.org/1999/xlink">
 <defs>
  <style type="text/css">
*{stroke-linecap:butt;stroke-linejoin:round;}
  </style>
 </defs>
 <g id="figure_1">
  <g id="patch_1">
   <path d="M 0 443.338125 
L 433.362016 443.338125 
L 433.362016 0 
L 0 0 
z
" style="fill:#ffffff;"/>
  </g>
  <g id="axes_1">
   <g id="patch_2">
    <path d="M 50.464375 403.189375 
L 353.002516 403.189375 
L 353.002516 21.789375 
L 50.464375 21.789375 
z
" style="fill:#ffffff;"/>
   </g>
   <g id="PathCollection_1">
    <defs>
     <path d="M 0 3.383948 
C 0.897434 3.383948 1.758231 3.027394 2.392813 2.392813 
C 3.027394 1.758231 3.383948 0.897434 3.383948 0 
C 3.383948 -0.897434 3.027394 -1.758231 2.392813 -2.392813 
C 1.758231 -3.027394 0.897434 -3.383948 0 -3.383948 
C -0.897434 -3.383948 -1.758231 -3.027394 -2.392813 -2.392813 
C -3.027394 -1.758231 -3.383948 -0.897434 -3.383948 0 
C -3.383948 0.897434 -3.027394 1.758231 -2.392813 2.392813 
C -1.758231 3.027394 -0.897434 3.383948 0 3.383948 
z
" id="C0_0_258d44410e"/>
    </defs>
    <g clip-path="url(#p069a6f97ec)">
     <use style="fill:#0000ff;stroke:#0000ff;stroke-width:2.025;" x="67.335327" xlink:href="#C0_0_258d44410e" y="291.844503"/>
    </g>
    <g clip-path="url(#p069a6f97ec)">
     <use style="fill:#0000ff;stroke:#0000ff;stroke-width:2.025;" x="90.980149" xlink:href="#C0_0_258d44410e" y="209.136293"/>
    </g>
    <g clip-path="url(#p069a6f97ec)">
     <use style="fill:#0000ff;stroke:#0000ff;stroke-width:2.025;" x="114.624971" xlink:href="#C0_0_258d44410e" y="356.490509"/>
    </g>
    <g clip-path="url(#p069a6f97ec)">
     <use style="fill:#0000ff;stroke:#0000ff;stroke-width:2.025;" x="138.269793" xlink:href="#C0_0_258d44410e" y="351.454135"/>
    </g>
    <g clip-path="url(#p069a6f97ec)">
     <use style="fill:#0000ff;stroke:#0000ff;stroke-width:2.025;" x="161.914616" xlink:href="#C0_0_258d44410e" y="149.849061"/>
    </g>
    <g clip-path="url(#p069a6f97ec)">
     <use style="fill:#0000ff;stroke:#0000ff;stroke-width:2.025;" x="185.559438" xlink:href="#C0_0_258d44410e" y="281.209442"/>
    </g>
    <g clip-path="url(#p069a6f97ec)">
     <use style="fill:#0000ff;stroke:#0000ff;stroke-width:2.025;" x="209.20426" xlink:href="#C0_0_258d44410e" y="291.844503"/>
    </g>
    <g clip-path="url(#p069a6f97ec)">
     <use style="fill:#0000ff;stroke:#0000ff;stroke-width:2.025;" x="232.849082" xlink:href="#C0_0_258d44410e" y="209.136293"/>
    </g>
    <g clip-path="url(#p069a6f97ec)">
     <use style="fill:#0000ff;stroke:#0000ff;stroke-width:2.025;" x="256.493904" xlink:href="#C0_0_258d44410e" y="356.490509"/>
    </g>
    <g clip-path="url(#p069a6f97ec)">
     <use style="fill:#0000ff;stroke:#0000ff;stroke-width:2.025;" x="280.138727" xlink:href="#C0_0_258d44410e" y="351.454135"/>
    </g>
    <g clip-path="url(#p069a6f97ec)">
     <use style="fill:#0000ff;stroke:#0000ff;stroke-width:2.025;" x="303.783549" xlink:href="#C0_0_258d44410e" y="149.849061"/>
    </g>
    <g clip-path="url(#p069a6f97ec)">
     <use style="fill:#0000ff;stroke:#0000ff;stroke-width:2.025;" x="327.428371" xlink:href="#C0_0_258d44410e" y="281.209442"/>
    </g>
   </g>
   <g id="patch_3">
    <path clip-path="url(#p069a6f97ec)" d="M 126.447382 403.189375 
L 126.447382 21.789375 
L 197.381849 21.789375 
L 197.381849 403.189375 
z
" style="opacity:0.2;stroke:#000000;stroke-linejoin:miter;"/>
   </g>
   <g id="patch_4">
    <path clip-path="url(#p069a6f97ec)" d="M 268.316316 403.189375 
L 268.316316 21.789375 
L 339.250782 21.789375 
L 339.250782 403.189375 
z
" style="opacity:0.2;stroke:#000000;stroke-linejoin:miter;"/>
   </g>
   <g id="line2d_1">
    <path clip-path="url(#p069a6f97ec)" d="M 67.335327 291.844503 
L 90.980149 209.136293 
L 114.624971 356.490509 
L 138.269793 351.454135 
L 161.914616 149.849061 
L 185.559438 281.209442 
L 209.20426 291.844503 
L 232.849082 209.136293 
L 256.493904 356.490509 
L 280.138727 351.454135 
L 303.783549 149.849061 
L 327.428371 281.209442 
" style="fill:none;stroke:#0000ff;stroke-linecap:square;stroke-width:2.7;"/>
   </g>
   <g id="line2d_2">
    <path clip-path="url(#p069a6f97ec)" d="M 67.335327 316.204712 
L 67.335327 267.484294 
" style="fill:none;stroke:#0000ff;stroke-linecap:square;"/>
   </g>
   <g id="line2d_3">
    <path clip-path="url(#p069a6f97ec)" d="M 64.970844 316.204712 
L 69.699809 316.204712 
" style="fill:none;stroke:#0000ff;stroke-linecap:square;"/>
   </g>
   <g id="line2d_4">
    <path clip-path="url(#p069a6f97ec)" d="M 64.970844 267.484294 
L 69.699809 267.484294 
" style="fill:none;stroke:#0000ff;stroke-linecap:square;"/>
   </g>
   <g id="line2d_5">
    <path clip-path="url(#p069a6f97ec)" d="M 90.980149 327.111874 
L 90.980149 91.160712 
" style="fill:none;stroke:#0000ff;stroke-linecap:square;"/>
   </g>
   <g id="line2d_6">
    <path clip-path="url(#p069a6f97ec)" d="M 88.615667 327.111874 
L 93.344631 327.111874 
" style="fill:none;stroke:#0000ff;stroke-linecap:square;"/>
   </g>
   <g id="line2d_7">
    <path clip-path="url(#p069a6f97ec)" d="M 88.615667 91.160712 
L 93.344631 91.160712 
" style="fill:none;stroke:#0000ff;stroke-linecap:square;"/>
   </g>
   <g id="line2d_8">
    <path clip-path="url(#p069a6f97ec)" d="M 114.624971 368.882482 
L 114.624971 344.098535 
" style="fill:none;stroke:#0000ff;stroke-linecap:square;"/>
   </g>
   <g id="line2d_9">
    <path clip-path="url(#p069a6f97ec)" d="M 112.260489 368.882482 
L 116.989453 368.882482 
" style="fill:none;stroke:#0000ff;stroke-linecap:square;"/>
   </g>
   <g id="line2d_10">
    <path clip-path="url(#p069a6f97ec)" d="M 112.260489 344.098535 
L 116.989453 344.098535 
" style="fill:none;stroke:#0000ff;stroke-linecap:square;"/>
   </g>
   <g id="line2d_11">
    <path clip-path="url(#p069a6f97ec)" d="M 138.269793 366.463267 
L 138.269793 337.714269 
" style="fill:none;stroke:#0000ff;stroke-linecap:square;"/>
   </g>
   <g id="line2d_12">
    <path clip-path="url(#p069a6f97ec)" d="M 135.905311 366.463267 
L 140.634276 366.463267 
" style="fill:none;stroke:#0000ff;stroke-linecap:square;"/>
   </g>
   <g id="line2d_13">
    <path clip-path="url(#p069a6f97ec)" d="M 135.905311 337.714269 
L 140.634276 337.714269 
" style="fill:none;stroke:#0000ff;stroke-linecap:square;"/>
   </g>
   <g id="line2d_14">
    <path clip-path="url(#p069a6f97ec)" d="M 161.914616 260.572384 
L 161.914616 39.125739 
" style="fill:none;stroke:#0000ff;stroke-linecap:square;"/>
   </g>
   <g id="line2d_15">
    <path clip-path="url(#p069a6f97ec)" d="M 159.550133 260.572384 
L 164.279098 260.572384 
" style="fill:none;stroke:#0000ff;stroke-linecap:square;"/>
   </g>
   <g id="line2d_16">
    <path clip-path="url(#p069a6f97ec)" d="M 159.550133 39.125739 
L 164.279098 39.125739 
" style="fill:none;stroke:#0000ff;stroke-linecap:square;"/>
   </g>
   <g id="line2d_17">
    <path clip-path="url(#p069a6f97ec)" d="M 185.559438 332.115219 
L 185.559438 230.303664 
" style="fill:none;stroke:#0000ff;stroke-linecap:square;"/>
   </g>
   <g id="line2d_18">
    <path clip-path="url(#p069a6f97ec)" d="M 183.194956 332.115219 
L 187.92392 332.115219 
" style="fill:none;stroke:#0000ff;stroke-linecap:square;"/>
   </g>
   <g id="line2d_19">
    <path clip-path="url(#p069a6f97ec)" d="M 183.194956 230.303664 
L 187.92392 230.303664 
" style="fill:none;stroke:#0000ff;stroke-linecap:square;"/>
   </g>
   <g id="line2d_20">
    <path clip-path="url(#p069a6f97ec)" d="M 209.20426 316.204712 
L 209.20426 267.484294 
" style="fill:none;stroke:#0000ff;stroke-linecap:square;"/>
   </g>
   <g id="line2d_21">
    <path clip-path="url(#p069a6f97ec)" d="M 206.839778 316.204712 
L 211.568742 316.204712 
" style="fill:none;stroke:#0000ff;stroke-linecap:square;"/>
   </g>
   <g id="line2d_22">
    <path clip-path="url(#p069a6f97ec)" d="M 206.839778 267.484294 
L 211.568742 267.484294 
" style="fill:none;stroke:#0000ff;stroke-linecap:square;"/>
   </g>
   <g id="line2d_23">
    <path clip-path="url(#p069a6f97ec)" d="M 232.849082 327.111874 
L 232.849082 91.160712 
" style="fill:none;stroke:#0000ff;stroke-linecap:square;"/>
   </g>
   <g id="line2d_24">
    <path clip-path="url(#p069a6f97ec)" d="M 230.4846 327.111874 
L 235.213564 327.111874 
" style="fill:none;stroke:#0000ff;stroke-linecap:square;"/>
   </g>
   <g id="line2d_25">
    <path clip-path="url(#p069a6f97ec)" d="M 230.4846 91.160712 
L 235.213564 91.160712 
" style="fill:none;stroke:#0000ff;stroke-linecap:square;"/>
   </g>
   <g id="line2d_26">
    <path clip-path="url(#p069a6f97ec)" d="M 256.493904 368.882482 
L 256.493904 344.098535 
" style="fill:none;stroke:#0000ff;stroke-linecap:square;"/>
   </g>
   <g id="line2d_27">
    <path clip-path="url(#p069a6f97ec)" d="M 254.129422 368.882482 
L 258.858387 368.882482 
" style="fill:none;stroke:#0000ff;stroke-linecap:square;"/>
   </g>
   <g id="line2d_28">
    <path clip-path="url(#p069a6f97ec)" d="M 254.129422 344.098535 
L 258.858387 344.098535 
" style="fill:none;stroke:#0000ff;stroke-linecap:square;"/>
   </g>
   <g id="line2d_29">
    <path clip-path="url(#p069a6f97ec)" d="M 280.138727 366.463267 
L 280.138727 336.445002 
" style="fill:none;stroke:#0000ff;stroke-linecap:square;"/>
   </g>
   <g id="line2d_30">
    <path clip-path="url(#p069a6f97ec)" d="M 277.774244 366.463267 
L 282.503209 366.463267 
" style="fill:none;stroke:#0000ff;stroke-linecap:square;"/>
   </g>
   <g id="line2d_31">
    <path clip-path="url(#p069a6f97ec)" d="M 277.774244 336.445002 
L 282.503209 336.445002 
" style="fill:none;stroke:#0000ff;stroke-linecap:square;"/>
   </g>
   <g id="line2d_32">
    <path clip-path="url(#p069a6f97ec)" d="M 303.783549 260.572384 
L 303.783549 39.125739 
" style="fill:none;stroke:#0000ff;stroke-linecap:square;"/>
   </g>
   <g id="line2d_33">
    <path clip-path="url(#p069a6f97ec)" d="M 301.419067 260.572384 
L 306.148031 260.572384 
" style="fill:none;stroke:#0000ff;stroke-linecap:square;"/>
   </g>
   <g id="line2d_34">
    <path clip-path="url(#p069a6f97ec)" d="M 301.419067 39.125739 
L 306.148031 39.125739 
" style="fill:none;stroke:#0000ff;stroke-linecap:square;"/>
   </g>
   <g id="line2d_35">
    <path clip-path="url(#p069a6f97ec)" d="M 327.428371 332.115219 
L 327.428371 230.303664 
" style="fill:none;stroke:#0000ff;stroke-linecap:square;"/>
   </g>
   <g id="line2d_36">
    <path clip-path="url(#p069a6f97ec)" d="M 325.063889 332.115219 
L 329.792853 332.115219 
" style="fill:none;stroke:#0000ff;stroke-linecap:square;"/>
   </g>
   <g id="line2d_37">
    <path clip-path="url(#p069a6f97ec)" d="M 325.063889 230.303664 
L 329.792853 230.303664 
" style="fill:none;stroke:#0000ff;stroke-linecap:square;"/>
   </g>
   <g id="matplotlib.axis_1">
    <g id="xtick_1">
     <g id="line2d_38">
      <defs>
       <path d="M 0 0 
L 0 3.5 
" id="mbe3ba4ac4e" style="stroke:#000000;stroke-width:0.8;"/>
      </defs>
      <g>
       <use style="stroke:#000000;stroke-width:0.8;" x="67.335327" xlink:href="#mbe3ba4ac4e" y="403.189375"/>
      </g>
     </g>
     <g id="text_1">
      <text style="font-family:Arial;font-size:10px;font-style:normal;font-weight:normal;text-anchor:middle;" transform="rotate(-0, 67.335327, 417.347187)" x="67.335327" y="417.347187">2</text>
     </g>
    </g>
    <g id="xtick_2">
     <g id="line2d_39">
      <g>
       <use style="stroke:#000000;stroke-width:0.8;" x="90.980149" xlink:href="#mbe3ba4ac4e" y="403.189375"/>
      </g>
     </g>
     <g id="text_2">
      <text style="font-family:Arial;font-size:10px;font-style:normal;font-weight:normal;text-anchor:middle;" transform="rotate(-0, 90.980149, 417.347187)" x="90.980149" y="417.347187">6</text>
     </g>
    </g>
    <g id="xtick_3">
     <g id="line2d_40">
      <g>
       <use style="stroke:#000000;stroke-width:0.8;" x="114.624971" xlink:href="#mbe3ba4ac4e" y="403.189375"/>
      </g>
     </g>
     <g id="text_3">
      <text style="font-family:Arial;font-size:10px;font-style:normal;font-weight:normal;text-anchor:middle;" transform="rotate(-0, 114.624971, 417.347187)" x="114.624971" y="417.347187">10</text>
     </g>
    </g>
    <g id="xtick_4">
     <g id="line2d_41">
      <g>
       <use style="stroke:#000000;stroke-width:0.8;" x="138.269793" xlink:href="#mbe3ba4ac4e" y="403.189375"/>
      </g>
     </g>
     <g id="text_4">
      <text style="font-family:Arial;font-size:10px;font-style:normal;font-weight:normal;text-anchor:middle;" transform="rotate(-0, 138.269793, 417.347187)" x="138.269793" y="417.347187">14</text>
     </g>
    </g>
    <g id="xtick_5">
     <g id="line2d_42">
      <g>
       <use style="stroke:#000000;stroke-width:0.8;" x="161.914616" xlink:href="#mbe3ba4ac4e" y="403.189375"/>
      </g>
     </g>
     <g id="text_5">
      <text style="font-family:Arial;font-size:10px;font-style:normal;font-weight:normal;text-anchor:middle;" transform="rotate(-0, 161.914616, 417.347187)" x="161.914616" y="417.347187">18</text>
     </g>
    </g>
    <g id="xtick_6">
     <g id="line2d_43">
      <g>
       <use style="stroke:#000000;stroke-width:0.8;" x="185.559438" xlink:href="#mbe3ba4ac4e" y="403.189375"/>
      </g>
     </g>
     <g id="text_6">
      <text style="font-family:Arial;font-size:10px;font-style:normal;font-weight:normal;text-anchor:middle;" transform="rotate(-0, 185.559438, 417.347187)" x="185.559438" y="417.347187">22</text>
     </g>
    </g>
    <g id="xtick_7">
     <g id="line2d_44">
      <g>
       <use style="stroke:#000000;stroke-width:0.8;" x="209.20426" xlink:href="#mbe3ba4ac4e" y="403.189375"/>
      </g>
     </g>
     <g id="text_7">
      <text style="font-family:Arial;font-size:10px;font-style:normal;font-weight:normal;text-anchor:middle;" transform="rotate(-0, 209.20426, 417.347187)" x="209.20426" y="417.347187">2</text>
     </g>
    </g>
    <g id="xtick_8">
     <g id="line2d_45">
      <g>
       <use style="stroke:#000000;stroke-width:0.8;" x="232.849082" xlink:href="#mbe3ba4ac4e" y="403.189375"/>
      </g>
     </g>
     <g id="text_8">
      <text style="font-family:Arial;font-size:10px;font-style:normal;font-weight:normal;text-anchor:middle;" transform="rotate(-0, 232.849082, 417.347187)" x="232.849082" y="417.347187">6</text>
     </g>
    </g>
    <g id="xtick_9">
     <g id="line2d_46">
      <g>
       <use style="stroke:#000000;stroke-width:0.8;" x="256.493904" xlink:href="#mbe3ba4ac4e" y="403.189375"/>
      </g>
     </g>
     <g id="text_9">
      <text style="font-family:Arial;font-size:10px;font-style:normal;font-weight:normal;text-anchor:middle;" transform="rotate(-0, 256.493904, 417.347187)" x="256.493904" y="417.347187">10</text>
     </g>
    </g>
    <g id="xtick_10">
     <g id="line2d_47">
      <g>
       <use style="stroke:#000000;stroke-width:0.8;" x="280.138727" xlink:href="#mbe3ba4ac4e" y="403.189375"/>
      </g>
     </g>
     <g id="text_10">
      <text style="font-family:Arial;font-size:10px;font-style:normal;font-weight:normal;text-anchor:middle;" transform="rotate(-0, 280.138727, 417.347187)" x="280.138727" y="417.347187">14</text>
     </g>
    </g>
    <g id="xtick_11">
     <g id="line2d_48">
      <g>
       <use style="stroke:#000000;stroke-width:0.8;" x="303.783549" xlink:href="#mbe3ba4ac4e" y="403.189375"/>
      </g>
     </g>
     <g id="text_11">
      <text style="font-family:Arial;font-size:10px;font-style:normal;font-weight:normal;text-anchor:middle;" transform="rotate(-0, 303.783549, 417.347187)" x="303.783549" y="417.347187">18</text>
     </g>
    </g>
    <g id="xtick_12">
     <g id="line2d_49">
      <g>
       <use style="stroke:#000000;stroke-width:0.8;" x="327.428371" xlink:href="#mbe3ba4ac4e" y="403.189375"/>
      </g>
     </g>
     <g id="text_12">
      <text style="font-family:Arial;font-size:10px;font-style:normal;font-weight:normal;text-anchor:middle;" transform="rotate(-0, 327.428371, 417.347187)" x="327.428371" y="417.347187">22</text>
     </g>
    </g>
    <g id="text_13">
     <text style="font-family:Arial;font-size:14px;font-style:normal;font-weight:normal;text-anchor:middle;" transform="rotate(-0, 201.733445, 433.355625)" x="201.733445" y="433.355625">ZT</text>
    </g>
   </g>
   <g id="matplotlib.axis_2">
    <g id="ytick_1">
     <g id="line2d_50">
      <defs>
       <path d="M 0 0 
L -3.5 0 
" id="mf3878c9e14" style="stroke:#000000;stroke-width:0.8;"/>
      </defs>
      <g>
       <use style="stroke:#000000;stroke-width:0.8;" x="50.464375" xlink:href="#mf3878c9e14" y="384.123038"/>
      </g>
     </g>
     <g id="text_14">
      <text style="font-family:Arial;font-size:10px;font-style:normal;font-weight:normal;text-anchor:end;" transform="rotate(-0, 43.464375, 387.701945)" x="43.464375" y="387.701945">0.00</text>
     </g>
    </g>
    <g id="ytick_2">
     <g id="line2d_51">
      <g>
       <use style="stroke:#000000;stroke-width:0.8;" x="50.464375" xlink:href="#mf3878c9e14" y="309.303019"/>
      </g>
     </g>
     <g id="text_15">
      <text style="font-family:Arial;font-size:10px;font-style:normal;font-weight:normal;text-anchor:end;" transform="rotate(-0, 43.464375, 312.881925)" x="43.464375" y="312.881925">0.02</text>
     </g>
    </g>
    <g id="ytick_3">
     <g id="line2d_52">
      <g>
       <use style="stroke:#000000;stroke-width:0.8;" x="50.464375" xlink:href="#mf3878c9e14" y="234.482999"/>
      </g>
     </g>
     <g id="text_16">
      <text style="font-family:Arial;font-size:10px;font-style:normal;font-weight:normal;text-anchor:end;" transform="rotate(-0, 43.464375, 238.061905)" x="43.464375" y="238.061905">0.04</text>
     </g>
    </g>
    <g id="ytick_4">
     <g id="line2d_53">
      <g>
       <use style="stroke:#000000;stroke-width:0.8;" x="50.464375" xlink:href="#mf3878c9e14" y="159.66298"/>
      </g>
     </g>
     <g id="text_17">
      <text style="font-family:Arial;font-size:10px;font-style:normal;font-weight:normal;text-anchor:end;" transform="rotate(-0, 43.464375, 163.241886)" x="43.464375" y="163.241886">0.06</text>
     </g>
    </g>
    <g id="ytick_5">
     <g id="line2d_54">
      <g>
       <use style="stroke:#000000;stroke-width:0.8;" x="50.464375" xlink:href="#mf3878c9e14" y="84.84296"/>
      </g>
     </g>
     <g id="text_18">
      <text style="font-family:Arial;font-size:10px;font-style:normal;font-weight:normal;text-anchor:end;" transform="rotate(-0, 43.464375, 88.421866)" x="43.464375" y="88.421866">0.08</text>
     </g>
    </g>
    <g id="text_19">
     <text style="font-family:Arial;font-size:14px;font-style:normal;font-weight:normal;text-anchor:middle;" transform="rotate(-90, 17.220938, 212.489375)" x="17.220938" y="212.489375">Relative Abundance</text>
    </g>
   </g>
   <g id="PathCollection_2">
    <defs>
     <path d="M 0 3.383948 
C 0.897434 3.383948 1.758231 3.027394 2.392813 2.392813 
C 3.027394 1.758231 3.383948 0.897434 3.383948 0 
C 3.383948 -0.897434 3.027394 -1.758231 2.392813 -2.392813 
C 1.758231 -3.027394 0.897434 -3.383948 0 -3.383948 
C -0.897434 -3.383948 -1.758231 -3.027394 -2.392813 -2.392813 
C -3.027394 -1.758231 -3.383948 -0.897434 -3.383948 0 
C -3.383948 0.897434 -3.027394 1.758231 -2.392813 2.392813 
C -1.758231 3.027394 -0.897434 3.383948 0 3.383948 
z
" id="C1_0_483594cbd8"/>
    </defs>
    <g clip-path="url(#p069a6f97ec)">
     <use style="fill:#ff0000;stroke:#ff0000;stroke-width:2.025;" x="67.335327" xlink:href="#C1_0_483594cbd8" y="366.272161"/>
    </g>
    <g clip-path="url(#p069a6f97ec)">
     <use style="fill:#ff0000;stroke:#ff0000;stroke-width:2.025;" x="90.980149" xlink:href="#C1_0_483594cbd8" y="379.72313"/>
    </g>
    <g clip-path="url(#p069a6f97ec)">
     <use style="fill:#ff0000;stroke:#ff0000;stroke-width:2.025;" x="114.624971" xlink:href="#C1_0_483594cbd8" y="381.093269"/>
    </g>
    <g clip-path="url(#p069a6f97ec)">
     <use style="fill:#ff0000;stroke:#ff0000;stroke-width:2.025;" x="138.269793" xlink:href="#C1_0_483594cbd8" y="382.574239"/>
    </g>
    <g clip-path="url(#p069a6f97ec)">
     <use style="fill:#ff0000;stroke:#ff0000;stroke-width:2.025;" x="161.914616" xlink:href="#C1_0_483594cbd8" y="381.285049"/>
    </g>
    <g clip-path="url(#p069a6f97ec)">
     <use style="fill:#ff0000;stroke:#ff0000;stroke-width:2.025;" x="185.559438" xlink:href="#C1_0_483594cbd8" y="340.236695"/>
    </g>
    <g clip-path="url(#p069a6f97ec)">
     <use style="fill:#ff0000;stroke:#ff0000;stroke-width:2.025;" x="209.20426" xlink:href="#C1_0_483594cbd8" y="366.272161"/>
    </g>
    <g clip-path="url(#p069a6f97ec)">
     <use style="fill:#ff0000;stroke:#ff0000;stroke-width:2.025;" x="232.849082" xlink:href="#C1_0_483594cbd8" y="379.72313"/>
    </g>
    <g clip-path="url(#p069a6f97ec)">
     <use style="fill:#ff0000;stroke:#ff0000;stroke-width:2.025;" x="256.493904" xlink:href="#C1_0_483594cbd8" y="381.093269"/>
    </g>
    <g clip-path="url(#p069a6f97ec)">
     <use style="fill:#ff0000;stroke:#ff0000;stroke-width:2.025;" x="280.138727" xlink:href="#C1_0_483594cbd8" y="382.574239"/>
    </g>
    <g clip-path="url(#p069a6f97ec)">
     <use style="fill:#ff0000;stroke:#ff0000;stroke-width:2.025;" x="303.783549" xlink:href="#C1_0_483594cbd8" y="381.285049"/>
    </g>
    <g clip-path="url(#p069a6f97ec)">
     <use style="fill:#ff0000;stroke:#ff0000;stroke-width:2.025;" x="327.428371" xlink:href="#C1_0_483594cbd8" y="340.236695"/>
    </g>
   </g>
   <g id="line2d_55">
    <path clip-path="url(#p069a6f97ec)" d="M 67.335327 366.272161 
L 90.980149 379.72313 
L 114.624971 381.093269 
L 138.269793 382.574239 
L 161.914616 381.285049 
L 185.559438 340.236695 
L 209.20426 366.272161 
L 232.849082 379.72313 
L 256.493904 381.093269 
L 280.138727 382.574239 
L 303.783549 381.285049 
L 327.428371 340.236695 
" style="fill:none;stroke:#ff0000;stroke-linecap:square;stroke-width:2.7;"/>
   </g>
   <g id="line2d_56">
    <path clip-path="url(#p069a6f97ec)" d="M 67.335327 373.281118 
L 67.335327 360.428164 
" style="fill:none;stroke:#ff0000;stroke-linecap:square;"/>
   </g>
   <g id="line2d_57">
    <path clip-path="url(#p069a6f97ec)" d="M 64.970844 373.281118 
L 69.699809 373.281118 
" style="fill:none;stroke:#ff0000;stroke-linecap:square;"/>
   </g>
   <g id="line2d_58">
    <path clip-path="url(#p069a6f97ec)" d="M 64.970844 360.428164 
L 69.699809 360.428164 
" style="fill:none;stroke:#ff0000;stroke-linecap:square;"/>
   </g>
   <g id="line2d_59">
    <path clip-path="url(#p069a6f97ec)" d="M 90.980149 382.90619 
L 90.980149 376.54007 
" style="fill:none;stroke:#ff0000;stroke-linecap:square;"/>
   </g>
   <g id="line2d_60">
    <path clip-path="url(#p069a6f97ec)" d="M 88.615667 382.90619 
L 93.344631 382.90619 
" style="fill:none;stroke:#ff0000;stroke-linecap:square;"/>
   </g>
   <g id="line2d_61">
    <path clip-path="url(#p069a6f97ec)" d="M 88.615667 376.54007 
L 93.344631 376.54007 
" style="fill:none;stroke:#ff0000;stroke-linecap:square;"/>
   </g>
   <g id="line2d_62">
    <path clip-path="url(#p069a6f97ec)" d="M 114.624971 383.077567 
L 114.624971 379.108971 
" style="fill:none;stroke:#ff0000;stroke-linecap:square;"/>
   </g>
   <g id="line2d_63">
    <path clip-path="url(#p069a6f97ec)" d="M 112.260489 383.077567 
L 116.989453 383.077567 
" style="fill:none;stroke:#ff0000;stroke-linecap:square;"/>
   </g>
   <g id="line2d_64">
    <path clip-path="url(#p069a6f97ec)" d="M 112.260489 379.108971 
L 116.989453 379.108971 
" style="fill:none;stroke:#ff0000;stroke-linecap:square;"/>
   </g>
   <g id="line2d_65">
    <path clip-path="url(#p069a6f97ec)" d="M 138.269793 383.444432 
L 138.269793 381.672025 
" style="fill:none;stroke:#ff0000;stroke-linecap:square;"/>
   </g>
   <g id="line2d_66">
    <path clip-path="url(#p069a6f97ec)" d="M 135.905311 383.444432 
L 140.634276 383.444432 
" style="fill:none;stroke:#ff0000;stroke-linecap:square;"/>
   </g>
   <g id="line2d_67">
    <path clip-path="url(#p069a6f97ec)" d="M 135.905311 381.672025 
L 140.634276 381.672025 
" style="fill:none;stroke:#ff0000;stroke-linecap:square;"/>
   </g>
   <g id="line2d_68">
    <path clip-path="url(#p069a6f97ec)" d="M 161.914616 383.34404 
L 161.914616 379.226057 
" style="fill:none;stroke:#ff0000;stroke-linecap:square;"/>
   </g>
   <g id="line2d_69">
    <path clip-path="url(#p069a6f97ec)" d="M 159.550133 383.34404 
L 164.279098 383.34404 
" style="fill:none;stroke:#ff0000;stroke-linecap:square;"/>
   </g>
   <g id="line2d_70">
    <path clip-path="url(#p069a6f97ec)" d="M 159.550133 379.226057 
L 164.279098 379.226057 
" style="fill:none;stroke:#ff0000;stroke-linecap:square;"/>
   </g>
   <g id="line2d_71">
    <path clip-path="url(#p069a6f97ec)" d="M 185.559438 371.775637 
L 185.559438 308.697752 
" style="fill:none;stroke:#ff0000;stroke-linecap:square;"/>
   </g>
   <g id="line2d_72">
    <path clip-path="url(#p069a6f97ec)" d="M 183.194956 371.775637 
L 187.92392 371.775637 
" style="fill:none;stroke:#ff0000;stroke-linecap:square;"/>
   </g>
   <g id="line2d_73">
    <path clip-path="url(#p069a6f97ec)" d="M 183.194956 308.697752 
L 187.92392 308.697752 
" style="fill:none;stroke:#ff0000;stroke-linecap:square;"/>
   </g>
   <g id="line2d_74">
    <path clip-path="url(#p069a6f97ec)" d="M 209.20426 373.281118 
L 209.20426 360.370269 
" style="fill:none;stroke:#ff0000;stroke-linecap:square;"/>
   </g>
   <g id="line2d_75">
    <path clip-path="url(#p069a6f97ec)" d="M 206.839778 373.281118 
L 211.568742 373.281118 
" style="fill:none;stroke:#ff0000;stroke-linecap:square;"/>
   </g>
   <g id="line2d_76">
    <path clip-path="url(#p069a6f97ec)" d="M 206.839778 360.370269 
L 211.568742 360.370269 
" style="fill:none;stroke:#ff0000;stroke-linecap:square;"/>
   </g>
   <g id="line2d_77">
    <path clip-path="url(#p069a6f97ec)" d="M 232.849082 381.689341 
L 232.849082 376.54007 
" style="fill:none;stroke:#ff0000;stroke-linecap:square;"/>
   </g>
   <g id="line2d_78">
    <path clip-path="url(#p069a6f97ec)" d="M 230.4846 381.689341 
L 235.213564 381.689341 
" style="fill:none;stroke:#ff0000;stroke-linecap:square;"/>
   </g>
   <g id="line2d_79">
    <path clip-path="url(#p069a6f97ec)" d="M 230.4846 376.54007 
L 235.213564 376.54007 
" style="fill:none;stroke:#ff0000;stroke-linecap:square;"/>
   </g>
   <g id="line2d_80">
    <path clip-path="url(#p069a6f97ec)" d="M 256.493904 383.077567 
L 256.493904 379.019396 
" style="fill:none;stroke:#ff0000;stroke-linecap:square;"/>
   </g>
   <g id="line2d_81">
    <path clip-path="url(#p069a6f97ec)" d="M 254.129422 383.077567 
L 258.858387 383.077567 
" style="fill:none;stroke:#ff0000;stroke-linecap:square;"/>
   </g>
   <g id="line2d_82">
    <path clip-path="url(#p069a6f97ec)" d="M 254.129422 379.019396 
L 258.858387 379.019396 
" style="fill:none;stroke:#ff0000;stroke-linecap:square;"/>
   </g>
   <g id="line2d_83">
    <path clip-path="url(#p069a6f97ec)" d="M 280.138727 383.444432 
L 280.138727 381.704045 
" style="fill:none;stroke:#ff0000;stroke-linecap:square;"/>
   </g>
   <g id="line2d_84">
    <path clip-path="url(#p069a6f97ec)" d="M 277.774244 383.444432 
L 282.503209 383.444432 
" style="fill:none;stroke:#ff0000;stroke-linecap:square;"/>
   </g>
   <g id="line2d_85">
    <path clip-path="url(#p069a6f97ec)" d="M 277.774244 381.704045 
L 282.503209 381.704045 
" style="fill:none;stroke:#ff0000;stroke-linecap:square;"/>
   </g>
   <g id="line2d_86">
    <path clip-path="url(#p069a6f97ec)" d="M 303.783549 383.34404 
L 303.783549 379.226057 
" style="fill:none;stroke:#ff0000;stroke-linecap:square;"/>
   </g>
   <g id="line2d_87">
    <path clip-path="url(#p069a6f97ec)" d="M 301.419067 383.34404 
L 306.148031 383.34404 
" style="fill:none;stroke:#ff0000;stroke-linecap:square;"/>
   </g>
   <g id="line2d_88">
    <path clip-path="url(#p069a6f97ec)" d="M 301.419067 379.226057 
L 306.148031 379.226057 
" style="fill:none;stroke:#ff0000;stroke-linecap:square;"/>
   </g>
   <g id="line2d_89">
    <path clip-path="url(#p069a6f97ec)" d="M 327.428371 371.775637 
L 327.428371 318.127673 
" style="fill:none;stroke:#ff0000;stroke-linecap:square;"/>
   </g>
   <g id="line2d_90">
    <path clip-path="url(#p069a6f97ec)" d="M 325.063889 371.775637 
L 329.792853 371.775637 
" style="fill:none;stroke:#ff0000;stroke-linecap:square;"/>
   </g>
   <g id="line2d_91">
    <path clip-path="url(#p069a6f97ec)" d="M 325.063889 318.127673 
L 329.792853 318.127673 
" style="fill:none;stroke:#ff0000;stroke-linecap:square;"/>
   </g>
   <g id="line2d_92">
    <path clip-path="url(#p069a6f97ec)" d="M 197.381849 403.189375 
L 197.381849 21.789375 
" style="fill:none;stroke:#000000;stroke-dasharray:5.55,2.4;stroke-dashoffset:0;stroke-width:1.5;"/>
   </g>
   <g id="patch_5">
    <path d="M 50.464375 403.189375 
L 50.464375 21.789375 
" style="fill:none;stroke:#000000;stroke-linecap:square;stroke-linejoin:miter;stroke-width:0.8;"/>
   </g>
   <g id="patch_6">
    <path d="M 50.464375 403.189375 
L 353.002516 403.189375 
" style="fill:none;stroke:#000000;stroke-linecap:square;stroke-linejoin:miter;stroke-width:0.8;"/>
   </g>
   <g id="text_20">
    <text style="font-family:Arial;font-size:12px;font-style:normal;font-weight:normal;text-anchor:middle;" transform="rotate(-0, 201.733445, 15.789375)" x="201.733445" y="15.789375">taurodeoxycholic acid</text>
   </g>
  </g>
  <g id="legend_1">
   <g id="text_21">
    <text style="font-family:Arial;font-size:10px;font-style:normal;font-weight:normal;text-anchor:start;" transform="rotate(-0, 358.766703, 210.050313)" x="358.766703" y="210.050313">exposure_type</text>
   </g>
   <g id="PathCollection_3">
    <path d="M 378.953422 225.071761 
C 379.850856 225.071761 380.711654 224.715207 381.346235 224.080625 
C 381.980816 223.446044 382.33737 222.585246 382.33737 221.687813 
C 382.33737 220.790379 381.980816 219.929581 381.346235 219.295 
C 380.711654 218.660418 379.850856 218.303864 378.953422 218.303864 
C 378.055989 218.303864 377.195191 218.660418 376.560609 219.295 
C 375.926028 219.929581 375.569474 220.790379 375.569474 221.687813 
C 375.569474 222.585246 375.926028 223.446044 376.560609 224.080625 
C 377.195191 224.715207 378.055989 225.071761 378.953422 225.071761 
z
" style="fill:#0000ff;stroke:#0000ff;stroke-width:2.025;"/>
   </g>
   <g id="text_22">
    <text style="font-family:Arial;font-size:10px;font-style:normal;font-weight:normal;text-anchor:start;" transform="rotate(-0, 396.953422, 224.312813)" x="396.953422" y="224.312813">IHC</text>
   </g>
   <g id="PathCollection_4">
    <path d="M 378.953422 239.217073 
C 379.850856 239.217073 380.711654 238.860519 381.346235 238.225938 
C 381.980816 237.591356 382.33737 236.730559 382.33737 235.833125 
C 382.33737 234.935691 381.980816 234.074894 381.346235 233.440312 
C 380.711654 232.805731 379.850856 232.449177 378.953422 232.449177 
C 378.055989 232.449177 377.195191 232.805731 376.560609 233.440312 
C 375.926028 234.074894 375.569474 234.935691 375.569474 235.833125 
C 375.569474 236.730559 375.926028 237.591356 376.560609 238.225938 
C 377.195191 238.860519 378.055989 239.217073 378.953422 239.217073 
z
" style="fill:#ff0000;stroke:#ff0000;stroke-width:2.025;"/>
   </g>
   <g id="text_23">
    <text style="font-family:Arial;font-size:10px;font-style:normal;font-weight:normal;text-anchor:start;" transform="rotate(-0, 396.953422, 238.458125)" x="396.953422" y="238.458125">Air</text>
   </g>
  </g>
 </g>
 <defs>
  <clipPath id="p069a6f97ec">
   <rect height="381.4" width="302.538141" x="50.464375" y="21.789375"/>
  </clipPath>
 </defs>
</svg>
