<?xml version="1.0" encoding="utf-8" standalone="no"?>
<!DOCTYPE svg PUBLIC "-//W3C//DTD SVG 1.1//EN"
  "http://www.w3.org/Graphics/SVG/1.1/DTD/svg11.dtd">
<!-- Created with matplotlib (https://matplotlib.org/) -->
<svg height="287.79875pt" version="1.1" viewBox="0 0 467.987188 287.79875" width="467.987188pt" xmlns="http://www.w3.org/2000/svg" xmlns:xlink="http://www.w3.org/1999/xlink">
 <defs>
  <style type="text/css">
*{stroke-linecap:butt;stroke-linejoin:round;white-space:pre;}
  </style>
 </defs>
 <g id="figure_1">
  <g id="patch_1">
   <path d="M 0 287.79875 
L 467.987188 287.79875 
L 467.987188 0 
L 0 0 
z
" style="fill:#ffffff;"/>
  </g>
  <g id="axes_1">
   <g id="patch_2">
    <path d="M 56.025313 245.199375 
L 390.825312 245.199375 
L 390.825312 27.759375 
L 56.025313 27.759375 
z
" style="fill:#ffffff;"/>
   </g>
   <g id="patch_3">
    <path clip-path="url(#p42eb7e736a)" d="M 73.434912 194.793508 
L 139.055712 194.793508 
L 139.055712 117.346108 
L 73.434912 117.346108 
L 73.434912 194.793508 
z
" style="fill:#df2020;stroke:#4c4c4c;stroke-linejoin:miter;stroke-width:1.5;"/>
   </g>
   <g id="patch_4">
    <path clip-path="url(#p42eb7e736a)" d="M 140.394913 180.890256 
L 206.015713 180.890256 
L 206.015713 132.685006 
L 140.394913 132.685006 
L 140.394913 180.890256 
z
" style="fill:#2020df;stroke:#4c4c4c;stroke-linejoin:miter;stroke-width:1.5;"/>
   </g>
   <g id="patch_5">
    <path clip-path="url(#p42eb7e736a)" d="M 240.834913 176.36996 
L 306.455713 176.36996 
L 306.455713 106.601408 
L 240.834913 106.601408 
L 240.834913 176.36996 
z
" style="fill:#df2020;stroke:#4c4c4c;stroke-linejoin:miter;stroke-width:1.5;"/>
   </g>
   <g id="patch_6">
    <path clip-path="url(#p42eb7e736a)" d="M 307.794913 171.989469 
L 373.415712 171.989469 
L 373.415712 135.973681 
L 307.794913 135.973681 
L 307.794913 171.989469 
z
" style="fill:#2020df;stroke:#4c4c4c;stroke-linejoin:miter;stroke-width:1.5;"/>
   </g>
   <g id="PathCollection_1"/>
   <g id="PathCollection_2"/>
   <g id="patch_7">
    <path clip-path="url(#p42eb7e736a)" d="M 139.725313 234.971822 
L 139.725313 234.971822 
L 139.725313 234.971822 
L 139.725313 234.971822 
z
" style="fill:#df2020;stroke:#4c4c4c;stroke-linejoin:miter;stroke-width:0.75;"/>
   </g>
   <g id="patch_8">
    <path clip-path="url(#p42eb7e736a)" d="M 139.725313 234.971822 
L 139.725313 234.971822 
L 139.725313 234.971822 
L 139.725313 234.971822 
z
" style="fill:#2020df;stroke:#4c4c4c;stroke-linejoin:miter;stroke-width:0.75;"/>
   </g>
   <g id="matplotlib.axis_1">
    <g id="xtick_1">
     <g id="line2d_1">
      <defs>
       <path d="M 0 0 
L 0 3.5 
" id="m4bdc09bfa0" style="stroke:#000000;stroke-width:0.8;"/>
      </defs>
      <g>
       <use style="stroke:#000000;stroke-width:0.8;" x="139.725313" xlink:href="#m4bdc09bfa0" y="245.199375"/>
      </g>
     </g>
     <g id="text_1">
      <text style="font-family:Arial;font-size:12px;font-style:normal;font-weight:normal;text-anchor:middle;" transform="rotate(-0, 139.725313, 260.935)" x="139.725313" y="260.935">Light/Inactive</text>
     </g>
    </g>
    <g id="xtick_2">
     <g id="line2d_2">
      <g>
       <use style="stroke:#000000;stroke-width:0.8;" x="307.125313" xlink:href="#m4bdc09bfa0" y="245.199375"/>
      </g>
     </g>
     <g id="text_2">
      <text style="font-family:Arial;font-size:12px;font-style:normal;font-weight:normal;text-anchor:middle;" transform="rotate(-0, 307.125313, 260.935)" x="307.125313" y="260.935">Night/Active</text>
     </g>
    </g>
    <g id="text_3">
     <text style="font-family:Arial;font-size:14px;font-style:normal;font-weight:normal;text-anchor:middle;" transform="rotate(-0, 223.425313, 277.652187)" x="223.425313" y="277.652187">Phase of Cycle</text>
    </g>
   </g>
   <g id="matplotlib.axis_2">
    <g id="ytick_1">
     <g id="line2d_3">
      <defs>
       <path d="M 0 0 
L -3.5 0 
" id="m160383cadd" style="stroke:#000000;stroke-width:0.8;"/>
      </defs>
      <g>
       <use style="stroke:#000000;stroke-width:0.8;" x="56.025313" xlink:href="#m160383cadd" y="234.971822"/>
      </g>
     </g>
     <g id="text_4">
      <text style="font-family:Arial;font-size:10px;font-style:normal;font-weight:normal;text-anchor:end;" transform="rotate(-0, 49.025313, 238.550728)" x="49.025313" y="238.550728">0.000</text>
     </g>
    </g>
    <g id="ytick_2">
     <g id="line2d_4">
      <g>
       <use style="stroke:#000000;stroke-width:0.8;" x="56.025313" xlink:href="#m160383cadd" y="209.40662"/>
      </g>
     </g>
     <g id="text_5">
      <text style="font-family:Arial;font-size:10px;font-style:normal;font-weight:normal;text-anchor:end;" transform="rotate(-0, 49.025313, 212.985527)" x="49.025313" y="212.985527">0.025</text>
     </g>
    </g>
    <g id="ytick_3">
     <g id="line2d_5">
      <g>
       <use style="stroke:#000000;stroke-width:0.8;" x="56.025313" xlink:href="#m160383cadd" y="183.841419"/>
      </g>
     </g>
     <g id="text_6">
      <text style="font-family:Arial;font-size:10px;font-style:normal;font-weight:normal;text-anchor:end;" transform="rotate(-0, 49.025313, 187.420326)" x="49.025313" y="187.420326">0.050</text>
     </g>
    </g>
    <g id="ytick_4">
     <g id="line2d_6">
      <g>
       <use style="stroke:#000000;stroke-width:0.8;" x="56.025313" xlink:href="#m160383cadd" y="158.276218"/>
      </g>
     </g>
     <g id="text_7">
      <text style="font-family:Arial;font-size:10px;font-style:normal;font-weight:normal;text-anchor:end;" transform="rotate(-0, 49.025313, 161.855125)" x="49.025313" y="161.855125">0.075</text>
     </g>
    </g>
    <g id="ytick_5">
     <g id="line2d_7">
      <g>
       <use style="stroke:#000000;stroke-width:0.8;" x="56.025313" xlink:href="#m160383cadd" y="132.711017"/>
      </g>
     </g>
     <g id="text_8">
      <text style="font-family:Arial;font-size:10px;font-style:normal;font-weight:normal;text-anchor:end;" transform="rotate(-0, 49.025313, 136.289923)" x="49.025313" y="136.289923">0.100</text>
     </g>
    </g>
    <g id="ytick_6">
     <g id="line2d_8">
      <g>
       <use style="stroke:#000000;stroke-width:0.8;" x="56.025313" xlink:href="#m160383cadd" y="107.145816"/>
      </g>
     </g>
     <g id="text_9">
      <text style="font-family:Arial;font-size:10px;font-style:normal;font-weight:normal;text-anchor:end;" transform="rotate(-0, 49.025313, 110.724722)" x="49.025313" y="110.724722">0.125</text>
     </g>
    </g>
    <g id="ytick_7">
     <g id="line2d_9">
      <g>
       <use style="stroke:#000000;stroke-width:0.8;" x="56.025313" xlink:href="#m160383cadd" y="81.580615"/>
      </g>
     </g>
     <g id="text_10">
      <text style="font-family:Arial;font-size:10px;font-style:normal;font-weight:normal;text-anchor:end;" transform="rotate(-0, 49.025313, 85.159521)" x="49.025313" y="85.159521">0.150</text>
     </g>
    </g>
    <g id="ytick_8">
     <g id="line2d_10">
      <g>
       <use style="stroke:#000000;stroke-width:0.8;" x="56.025313" xlink:href="#m160383cadd" y="56.015414"/>
      </g>
     </g>
     <g id="text_11">
      <text style="font-family:Arial;font-size:10px;font-style:normal;font-weight:normal;text-anchor:end;" transform="rotate(-0, 49.025313, 59.59432)" x="49.025313" y="59.59432">0.175</text>
     </g>
    </g>
    <g id="ytick_9">
     <g id="line2d_11">
      <g>
       <use style="stroke:#000000;stroke-width:0.8;" x="56.025313" xlink:href="#m160383cadd" y="30.450213"/>
      </g>
     </g>
     <g id="text_12">
      <text style="font-family:Arial;font-size:10px;font-style:normal;font-weight:normal;text-anchor:end;" transform="rotate(-0, 49.025313, 34.029119)" x="49.025313" y="34.029119">0.200</text>
     </g>
    </g>
    <g id="text_13">
     <text style="font-family:Arial;font-size:14px;font-style:normal;font-weight:normal;text-anchor:middle;" transform="rotate(-90, 17.220938, 136.479375)" x="17.220938" y="136.479375">Relative Abundance</text>
    </g>
   </g>
   <g id="line2d_12">
    <path clip-path="url(#p42eb7e736a)" d="M 106.245312 194.793508 
L 106.245312 226.903166 
" style="fill:none;stroke:#4c4c4c;stroke-linecap:square;stroke-width:1.5;"/>
   </g>
   <g id="line2d_13">
    <path clip-path="url(#p42eb7e736a)" d="M 106.245312 117.346108 
L 106.245312 101.584251 
" style="fill:none;stroke:#4c4c4c;stroke-linecap:square;stroke-width:1.5;"/>
   </g>
   <g id="line2d_14">
    <path clip-path="url(#p42eb7e736a)" d="M 89.840112 226.903166 
L 122.650512 226.903166 
" style="fill:none;stroke:#4c4c4c;stroke-linecap:square;stroke-width:1.5;"/>
   </g>
   <g id="line2d_15">
    <path clip-path="url(#p42eb7e736a)" d="M 89.840112 101.584251 
L 122.650512 101.584251 
" style="fill:none;stroke:#4c4c4c;stroke-linecap:square;stroke-width:1.5;"/>
   </g>
   <g id="line2d_16"/>
   <g id="line2d_17">
    <path clip-path="url(#p42eb7e736a)" d="M 173.205312 180.890256 
L 173.205312 230.53159 
" style="fill:none;stroke:#4c4c4c;stroke-linecap:square;stroke-width:1.5;"/>
   </g>
   <g id="line2d_18">
    <path clip-path="url(#p42eb7e736a)" d="M 173.205312 132.685006 
L 173.205312 74.306813 
" style="fill:none;stroke:#4c4c4c;stroke-linecap:square;stroke-width:1.5;"/>
   </g>
   <g id="line2d_19">
    <path clip-path="url(#p42eb7e736a)" d="M 156.800113 230.53159 
L 189.610513 230.53159 
" style="fill:none;stroke:#4c4c4c;stroke-linecap:square;stroke-width:1.5;"/>
   </g>
   <g id="line2d_20">
    <path clip-path="url(#p42eb7e736a)" d="M 156.800113 74.306813 
L 189.610513 74.306813 
" style="fill:none;stroke:#4c4c4c;stroke-linecap:square;stroke-width:1.5;"/>
   </g>
   <g id="line2d_21"/>
   <g id="line2d_22">
    <path clip-path="url(#p42eb7e736a)" d="M 273.645313 176.36996 
L 273.645313 229.089497 
" style="fill:none;stroke:#4c4c4c;stroke-linecap:square;stroke-width:1.5;"/>
   </g>
   <g id="line2d_23">
    <path clip-path="url(#p42eb7e736a)" d="M 273.645313 106.601408 
L 273.645313 42.51966 
" style="fill:none;stroke:#4c4c4c;stroke-linecap:square;stroke-width:1.5;"/>
   </g>
   <g id="line2d_24">
    <path clip-path="url(#p42eb7e736a)" d="M 257.240113 229.089497 
L 290.050512 229.089497 
" style="fill:none;stroke:#4c4c4c;stroke-linecap:square;stroke-width:1.5;"/>
   </g>
   <g id="line2d_25">
    <path clip-path="url(#p42eb7e736a)" d="M 257.240113 42.51966 
L 290.050512 42.51966 
" style="fill:none;stroke:#4c4c4c;stroke-linecap:square;stroke-width:1.5;"/>
   </g>
   <g id="line2d_26"/>
   <g id="line2d_27">
    <path clip-path="url(#p42eb7e736a)" d="M 340.605312 171.989469 
L 340.605312 178.99292 
" style="fill:none;stroke:#4c4c4c;stroke-linecap:square;stroke-width:1.5;"/>
   </g>
   <g id="line2d_28">
    <path clip-path="url(#p42eb7e736a)" d="M 340.605312 135.973681 
L 340.605312 106.068021 
" style="fill:none;stroke:#4c4c4c;stroke-linecap:square;stroke-width:1.5;"/>
   </g>
   <g id="line2d_29">
    <path clip-path="url(#p42eb7e736a)" d="M 324.200112 178.99292 
L 357.010513 178.99292 
" style="fill:none;stroke:#4c4c4c;stroke-linecap:square;stroke-width:1.5;"/>
   </g>
   <g id="line2d_30">
    <path clip-path="url(#p42eb7e736a)" d="M 324.200112 106.068021 
L 357.010513 106.068021 
" style="fill:none;stroke:#4c4c4c;stroke-linecap:square;stroke-width:1.5;"/>
   </g>
   <g id="line2d_31">
    <defs>
     <path d="M -0 3.535534 
L 2.12132 0 
L -0 -3.535534 
L -2.12132 -0 
z
" id="m27999d6ca3" style="stroke:#4c4c4c;stroke-linejoin:miter;"/>
    </defs>
    <g clip-path="url(#p42eb7e736a)">
     <use style="fill:#4c4c4c;stroke:#4c4c4c;stroke-linejoin:miter;" x="340.605312" xlink:href="#m27999d6ca3" y="228.88813"/>
     <use style="fill:#4c4c4c;stroke:#4c4c4c;stroke-linejoin:miter;" x="340.605312" xlink:href="#m27999d6ca3" y="228.88813"/>
     <use style="fill:#4c4c4c;stroke:#4c4c4c;stroke-linejoin:miter;" x="340.605312" xlink:href="#m27999d6ca3" y="77.591966"/>
     <use style="fill:#4c4c4c;stroke:#4c4c4c;stroke-linejoin:miter;" x="340.605312" xlink:href="#m27999d6ca3" y="77.591966"/>
    </g>
   </g>
   <g id="line2d_32">
    <path clip-path="url(#p42eb7e736a)" d="M 73.434912 126.031454 
L 139.055712 126.031454 
" style="fill:none;stroke:#4c4c4c;stroke-linecap:square;stroke-width:1.5;"/>
   </g>
   <g id="line2d_33">
    <path clip-path="url(#p42eb7e736a)" d="M 140.394913 162.870623 
L 206.015713 162.870623 
" style="fill:none;stroke:#4c4c4c;stroke-linecap:square;stroke-width:1.5;"/>
   </g>
   <g id="line2d_34">
    <path clip-path="url(#p42eb7e736a)" d="M 240.834913 152.234831 
L 306.455713 152.234831 
" style="fill:none;stroke:#4c4c4c;stroke-linecap:square;stroke-width:1.5;"/>
   </g>
   <g id="line2d_35">
    <path clip-path="url(#p42eb7e736a)" d="M 307.794913 164.891515 
L 373.415712 164.891515 
" style="fill:none;stroke:#4c4c4c;stroke-linecap:square;stroke-width:1.5;"/>
   </g>
   <g id="patch_9">
    <path d="M 56.025313 245.199375 
L 56.025313 27.759375 
" style="fill:none;stroke:#000000;stroke-linecap:square;stroke-linejoin:miter;stroke-width:0.8;"/>
   </g>
   <g id="patch_10">
    <path d="M 390.825312 245.199375 
L 390.825312 27.759375 
" style="fill:none;stroke:#000000;stroke-linecap:square;stroke-linejoin:miter;stroke-width:0.8;"/>
   </g>
   <g id="patch_11">
    <path d="M 56.025312 245.199375 
L 390.825312 245.199375 
" style="fill:none;stroke:#000000;stroke-linecap:square;stroke-linejoin:miter;stroke-width:0.8;"/>
   </g>
   <g id="patch_12">
    <path d="M 56.025312 27.759375 
L 390.825312 27.759375 
" style="fill:none;stroke:#000000;stroke-linecap:square;stroke-linejoin:miter;stroke-width:0.8;"/>
   </g>
   <g id="PathCollection_3">
    <defs>
     <path d="M 0 5 
C 1.326016 5 2.597899 4.473168 3.535534 3.535534 
C 4.473168 2.597899 5 1.326016 5 0 
C 5 -1.326016 4.473168 -2.597899 3.535534 -3.535534 
C 2.597899 -4.473168 1.326016 -5 0 -5 
C -1.326016 -5 -2.597899 -4.473168 -3.535534 -3.535534 
C -4.473168 -2.597899 -5 -1.326016 -5 0 
C -5 1.326016 -4.473168 2.597899 -3.535534 3.535534 
C -2.597899 4.473168 -1.326016 5 0 5 
z
" id="C0_0_3b9276f402"/>
    </defs>
    <g clip-path="url(#p42eb7e736a)">
     <use style="fill:#ff0000;stroke:#000000;" x="106.245312" xlink:href="#C0_0_3b9276f402" y="226.903166"/>
    </g>
    <g clip-path="url(#p42eb7e736a)">
     <use style="fill:#ff0000;stroke:#000000;" x="94.695312" xlink:href="#C0_0_3b9276f402" y="226.903166"/>
    </g>
    <g clip-path="url(#p42eb7e736a)">
     <use style="fill:#ff0000;stroke:#000000;" x="117.479818" xlink:href="#C0_0_3b9276f402" y="224.34972"/>
    </g>
    <g clip-path="url(#p42eb7e736a)">
     <use style="fill:#ff0000;stroke:#000000;" x="129.029818" xlink:href="#C0_0_3b9276f402" y="224.34972"/>
    </g>
    <g clip-path="url(#p42eb7e736a)">
     <use style="fill:#ff0000;stroke:#000000;" x="106.245312" xlink:href="#C0_0_3b9276f402" y="202.78844"/>
    </g>
    <g clip-path="url(#p42eb7e736a)">
     <use style="fill:#ff0000;stroke:#000000;" x="94.695312" xlink:href="#C0_0_3b9276f402" y="202.78844"/>
    </g>
    <g clip-path="url(#p42eb7e736a)">
     <use style="fill:#ff0000;stroke:#000000;" x="106.245312" xlink:href="#C0_0_3b9276f402" y="170.808712"/>
    </g>
    <g clip-path="url(#p42eb7e736a)">
     <use style="fill:#ff0000;stroke:#000000;" x="94.695312" xlink:href="#C0_0_3b9276f402" y="170.808712"/>
    </g>
    <g clip-path="url(#p42eb7e736a)">
     <use style="fill:#ff0000;stroke:#000000;" x="117.28898" xlink:href="#C0_0_3b9276f402" y="167.587481"/>
    </g>
    <g clip-path="url(#p42eb7e736a)">
     <use style="fill:#ff0000;stroke:#000000;" x="83.651645" xlink:href="#C0_0_3b9276f402" y="167.587481"/>
    </g>
    <g clip-path="url(#p42eb7e736a)">
     <use style="fill:#ff0000;stroke:#000000;" x="106.245312" xlink:href="#C0_0_3b9276f402" y="126.031454"/>
    </g>
    <g clip-path="url(#p42eb7e736a)">
     <use style="fill:#ff0000;stroke:#000000;" x="94.695312" xlink:href="#C0_0_3b9276f402" y="126.031454"/>
    </g>
    <g clip-path="url(#p42eb7e736a)">
     <use style="fill:#ff0000;stroke:#000000;" x="115.323276" xlink:href="#C0_0_3b9276f402" y="119.230555"/>
    </g>
    <g clip-path="url(#p42eb7e736a)">
     <use style="fill:#ff0000;stroke:#000000;" x="85.617349" xlink:href="#C0_0_3b9276f402" y="119.230555"/>
    </g>
    <g clip-path="url(#p42eb7e736a)">
     <use style="fill:#ff0000;stroke:#000000;" x="126.759886" xlink:href="#C0_0_3b9276f402" y="117.692984"/>
    </g>
    <g clip-path="url(#p42eb7e736a)">
     <use style="fill:#ff0000;stroke:#000000;" x="74.180739" xlink:href="#C0_0_3b9276f402" y="117.692984"/>
    </g>
    <g clip-path="url(#p42eb7e736a)">
     <use style="fill:#ff0000;stroke:#000000;" x="138.299673" xlink:href="#C0_0_3b9276f402" y="117.230483"/>
    </g>
    <g clip-path="url(#p42eb7e736a)">
     <use style="fill:#ff0000;stroke:#000000;" x="73.434912" xlink:href="#C0_0_3b9276f402" y="117.230483"/>
    </g>
    <g clip-path="url(#p42eb7e736a)">
     <use style="fill:#ff0000;stroke:#000000;" x="106.245312" xlink:href="#C0_0_3b9276f402" y="107.963293"/>
    </g>
    <g clip-path="url(#p42eb7e736a)">
     <use style="fill:#ff0000;stroke:#000000;" x="94.695312" xlink:href="#C0_0_3b9276f402" y="107.963293"/>
    </g>
    <g clip-path="url(#p42eb7e736a)">
     <use style="fill:#ff0000;stroke:#000000;" x="115.654849" xlink:href="#C0_0_3b9276f402" y="101.584251"/>
    </g>
    <g clip-path="url(#p42eb7e736a)">
     <use style="fill:#ff0000;stroke:#000000;" x="127.204849" xlink:href="#C0_0_3b9276f402" y="101.584251"/>
    </g>
   </g>
   <g id="PathCollection_4">
    <defs>
     <path d="M 0 5 
C 1.326016 5 2.597899 4.473168 3.535534 3.535534 
C 4.473168 2.597899 5 1.326016 5 0 
C 5 -1.326016 4.473168 -2.597899 3.535534 -3.535534 
C 2.597899 -4.473168 1.326016 -5 0 -5 
C -1.326016 -5 -2.597899 -4.473168 -3.535534 -3.535534 
C -4.473168 -2.597899 -5 -1.326016 -5 0 
C -5 1.326016 -4.473168 2.597899 -3.535534 3.535534 
C -2.597899 4.473168 -1.326016 5 0 5 
z
" id="C1_0_a8deb94212"/>
    </defs>
    <g clip-path="url(#p42eb7e736a)">
     <use style="fill:#0000ff;stroke:#000000;" x="173.205312" xlink:href="#C1_0_a8deb94212" y="230.53159"/>
    </g>
    <g clip-path="url(#p42eb7e736a)">
     <use style="fill:#0000ff;stroke:#000000;" x="161.655312" xlink:href="#C1_0_a8deb94212" y="230.53159"/>
    </g>
    <g clip-path="url(#p42eb7e736a)">
     <use style="fill:#0000ff;stroke:#000000;" x="173.205312" xlink:href="#C1_0_a8deb94212" y="193.160192"/>
    </g>
    <g clip-path="url(#p42eb7e736a)">
     <use style="fill:#0000ff;stroke:#000000;" x="161.655312" xlink:href="#C1_0_a8deb94212" y="193.160192"/>
    </g>
    <g clip-path="url(#p42eb7e736a)">
     <use style="fill:#0000ff;stroke:#000000;" x="173.205312" xlink:href="#C1_0_a8deb94212" y="181.329242"/>
    </g>
    <g clip-path="url(#p42eb7e736a)">
     <use style="fill:#0000ff;stroke:#000000;" x="161.655312" xlink:href="#C1_0_a8deb94212" y="181.329242"/>
    </g>
    <g clip-path="url(#p42eb7e736a)">
     <use style="fill:#0000ff;stroke:#000000;" x="184.607204" xlink:href="#C1_0_a8deb94212" y="179.573299"/>
    </g>
    <g clip-path="url(#p42eb7e736a)">
     <use style="fill:#0000ff;stroke:#000000;" x="150.253421" xlink:href="#C1_0_a8deb94212" y="179.573299"/>
    </g>
    <g clip-path="url(#p42eb7e736a)">
     <use style="fill:#0000ff;stroke:#000000;" x="194.232456" xlink:href="#C1_0_a8deb94212" y="173.493182"/>
    </g>
    <g clip-path="url(#p42eb7e736a)">
     <use style="fill:#0000ff;stroke:#000000;" x="140.628169" xlink:href="#C1_0_a8deb94212" y="173.493182"/>
    </g>
    <g clip-path="url(#p42eb7e736a)">
     <use style="fill:#0000ff;stroke:#000000;" x="173.205312" xlink:href="#C1_0_a8deb94212" y="162.870623"/>
    </g>
    <g clip-path="url(#p42eb7e736a)">
     <use style="fill:#0000ff;stroke:#000000;" x="161.655312" xlink:href="#C1_0_a8deb94212" y="162.870623"/>
    </g>
    <g clip-path="url(#p42eb7e736a)">
     <use style="fill:#0000ff;stroke:#000000;" x="173.205312" xlink:href="#C1_0_a8deb94212" y="143.621914"/>
    </g>
    <g clip-path="url(#p42eb7e736a)">
     <use style="fill:#0000ff;stroke:#000000;" x="161.655312" xlink:href="#C1_0_a8deb94212" y="143.621914"/>
    </g>
    <g clip-path="url(#p42eb7e736a)">
     <use style="fill:#0000ff;stroke:#000000;" x="183.435857" xlink:href="#C1_0_a8deb94212" y="138.516364"/>
    </g>
    <g clip-path="url(#p42eb7e736a)">
     <use style="fill:#0000ff;stroke:#000000;" x="151.424768" xlink:href="#C1_0_a8deb94212" y="138.516364"/>
    </g>
    <g clip-path="url(#p42eb7e736a)">
     <use style="fill:#0000ff;stroke:#000000;" x="173.205312" xlink:href="#C1_0_a8deb94212" y="130.74122"/>
    </g>
    <g clip-path="url(#p42eb7e736a)">
     <use style="fill:#0000ff;stroke:#000000;" x="161.655312" xlink:href="#C1_0_a8deb94212" y="130.74122"/>
    </g>
    <g clip-path="url(#p42eb7e736a)">
     <use style="fill:#0000ff;stroke:#000000;" x="183.790811" xlink:href="#C1_0_a8deb94212" y="126.340671"/>
    </g>
    <g clip-path="url(#p42eb7e736a)">
     <use style="fill:#0000ff;stroke:#000000;" x="151.069814" xlink:href="#C1_0_a8deb94212" y="126.340671"/>
    </g>
    <g clip-path="url(#p42eb7e736a)">
     <use style="fill:#0000ff;stroke:#000000;" x="173.205312" xlink:href="#C1_0_a8deb94212" y="74.306813"/>
    </g>
    <g clip-path="url(#p42eb7e736a)">
     <use style="fill:#0000ff;stroke:#000000;" x="161.655312" xlink:href="#C1_0_a8deb94212" y="74.306813"/>
    </g>
   </g>
   <g id="PathCollection_5">
    <defs>
     <path d="M 0 5 
C 1.326016 5 2.597899 4.473168 3.535534 3.535534 
C 4.473168 2.597899 5 1.326016 5 0 
C 5 -1.326016 4.473168 -2.597899 3.535534 -3.535534 
C 2.597899 -4.473168 1.326016 -5 0 -5 
C -1.326016 -5 -2.597899 -4.473168 -3.535534 -3.535534 
C -4.473168 -2.597899 -5 -1.326016 -5 0 
C -5 1.326016 -4.473168 2.597899 -3.535534 3.535534 
C -2.597899 4.473168 -1.326016 5 0 5 
z
" id="C2_0_6353b09cbb"/>
    </defs>
    <g clip-path="url(#p42eb7e736a)">
     <use style="fill:#ff0000;stroke:#000000;" x="273.645312" xlink:href="#C2_0_6353b09cbb" y="229.089497"/>
    </g>
    <g clip-path="url(#p42eb7e736a)">
     <use style="fill:#ff0000;stroke:#000000;" x="262.095312" xlink:href="#C2_0_6353b09cbb" y="229.089497"/>
    </g>
    <g clip-path="url(#p42eb7e736a)">
     <use style="fill:#ff0000;stroke:#000000;" x="273.645312" xlink:href="#C2_0_6353b09cbb" y="185.353389"/>
    </g>
    <g clip-path="url(#p42eb7e736a)">
     <use style="fill:#ff0000;stroke:#000000;" x="262.095312" xlink:href="#C2_0_6353b09cbb" y="185.353389"/>
    </g>
    <g clip-path="url(#p42eb7e736a)">
     <use style="fill:#ff0000;stroke:#000000;" x="282.72711" xlink:href="#C2_0_6353b09cbb" y="178.557135"/>
    </g>
    <g clip-path="url(#p42eb7e736a)">
     <use style="fill:#ff0000;stroke:#000000;" x="253.013515" xlink:href="#C2_0_6353b09cbb" y="178.557135"/>
    </g>
    <g clip-path="url(#p42eb7e736a)">
     <use style="fill:#ff0000;stroke:#000000;" x="268.223043" xlink:href="#C2_0_6353b09cbb" y="175.640902"/>
    </g>
    <g clip-path="url(#p42eb7e736a)">
     <use style="fill:#ff0000;stroke:#000000;" x="293.863823" xlink:href="#C2_0_6353b09cbb" y="175.640902"/>
    </g>
    <g clip-path="url(#p42eb7e736a)">
     <use style="fill:#ff0000;stroke:#000000;" x="245.507817" xlink:href="#C2_0_6353b09cbb" y="170.196391"/>
    </g>
    <g clip-path="url(#p42eb7e736a)">
     <use style="fill:#ff0000;stroke:#000000;" x="303.89983" xlink:href="#C2_0_6353b09cbb" y="170.196391"/>
    </g>
    <g clip-path="url(#p42eb7e736a)">
     <use style="fill:#ff0000;stroke:#000000;" x="273.645312" xlink:href="#C2_0_6353b09cbb" y="157.659821"/>
    </g>
    <g clip-path="url(#p42eb7e736a)">
     <use style="fill:#ff0000;stroke:#000000;" x="262.095312" xlink:href="#C2_0_6353b09cbb" y="157.659821"/>
    </g>
    <g clip-path="url(#p42eb7e736a)">
     <use style="fill:#ff0000;stroke:#000000;" x="271.744279" xlink:href="#C2_0_6353b09cbb" y="146.809841"/>
    </g>
    <g clip-path="url(#p42eb7e736a)">
     <use style="fill:#ff0000;stroke:#000000;" x="283.294279" xlink:href="#C2_0_6353b09cbb" y="146.809841"/>
    </g>
    <g clip-path="url(#p42eb7e736a)">
     <use style="fill:#ff0000;stroke:#000000;" x="273.645312" xlink:href="#C2_0_6353b09cbb" y="118.860847"/>
    </g>
    <g clip-path="url(#p42eb7e736a)">
     <use style="fill:#ff0000;stroke:#000000;" x="262.095312" xlink:href="#C2_0_6353b09cbb" y="118.860847"/>
    </g>
    <g clip-path="url(#p42eb7e736a)">
     <use style="fill:#ff0000;stroke:#000000;" x="285.094737" xlink:href="#C2_0_6353b09cbb" y="117.412354"/>
    </g>
    <g clip-path="url(#p42eb7e736a)">
     <use style="fill:#ff0000;stroke:#000000;" x="250.645888" xlink:href="#C2_0_6353b09cbb" y="117.412354"/>
    </g>
    <g clip-path="url(#p42eb7e736a)">
     <use style="fill:#ff0000;stroke:#000000;" x="273.645312" xlink:href="#C2_0_6353b09cbb" y="74.168572"/>
    </g>
    <g clip-path="url(#p42eb7e736a)">
     <use style="fill:#ff0000;stroke:#000000;" x="262.095312" xlink:href="#C2_0_6353b09cbb" y="74.168572"/>
    </g>
    <g clip-path="url(#p42eb7e736a)">
     <use style="fill:#ff0000;stroke:#000000;" x="273.645312" xlink:href="#C2_0_6353b09cbb" y="47.822839"/>
    </g>
    <g clip-path="url(#p42eb7e736a)">
     <use style="fill:#ff0000;stroke:#000000;" x="262.095312" xlink:href="#C2_0_6353b09cbb" y="47.822839"/>
    </g>
    <g clip-path="url(#p42eb7e736a)">
     <use style="fill:#ff0000;stroke:#000000;" x="283.764409" xlink:href="#C2_0_6353b09cbb" y="42.51966"/>
    </g>
    <g clip-path="url(#p42eb7e736a)">
     <use style="fill:#ff0000;stroke:#000000;" x="251.976216" xlink:href="#C2_0_6353b09cbb" y="42.51966"/>
    </g>
   </g>
   <g id="PathCollection_6">
    <defs>
     <path d="M 0 5 
C 1.326016 5 2.597899 4.473168 3.535534 3.535534 
C 4.473168 2.597899 5 1.326016 5 0 
C 5 -1.326016 4.473168 -2.597899 3.535534 -3.535534 
C 2.597899 -4.473168 1.326016 -5 0 -5 
C -1.326016 -5 -2.597899 -4.473168 -3.535534 -3.535534 
C -4.473168 -2.597899 -5 -1.326016 -5 0 
C -5 1.326016 -4.473168 2.597899 -3.535534 3.535534 
C -2.597899 4.473168 -1.326016 5 0 5 
z
" id="C3_0_3a63ad18d5"/>
    </defs>
    <g clip-path="url(#p42eb7e736a)">
     <use style="fill:#0000ff;stroke:#000000;" x="340.605312" xlink:href="#C3_0_3a63ad18d5" y="228.88813"/>
    </g>
    <g clip-path="url(#p42eb7e736a)">
     <use style="fill:#0000ff;stroke:#000000;" x="329.055312" xlink:href="#C3_0_3a63ad18d5" y="228.88813"/>
    </g>
    <g clip-path="url(#p42eb7e736a)">
     <use style="fill:#0000ff;stroke:#000000;" x="340.605312" xlink:href="#C3_0_3a63ad18d5" y="178.99292"/>
    </g>
    <g clip-path="url(#p42eb7e736a)">
     <use style="fill:#0000ff;stroke:#000000;" x="329.055312" xlink:href="#C3_0_3a63ad18d5" y="178.99292"/>
    </g>
    <g clip-path="url(#p42eb7e736a)">
     <use style="fill:#0000ff;stroke:#000000;" x="351.815707" xlink:href="#C3_0_3a63ad18d5" y="176.345101"/>
    </g>
    <g clip-path="url(#p42eb7e736a)">
     <use style="fill:#0000ff;stroke:#000000;" x="317.844918" xlink:href="#C3_0_3a63ad18d5" y="176.345101"/>
    </g>
    <g clip-path="url(#p42eb7e736a)">
     <use style="fill:#0000ff;stroke:#000000;" x="361.624799" xlink:href="#C3_0_3a63ad18d5" y="170.537591"/>
    </g>
    <g clip-path="url(#p42eb7e736a)">
     <use style="fill:#0000ff;stroke:#000000;" x="308.035826" xlink:href="#C3_0_3a63ad18d5" y="170.537591"/>
    </g>
    <g clip-path="url(#p42eb7e736a)">
     <use style="fill:#0000ff;stroke:#000000;" x="335.67453" xlink:href="#C3_0_3a63ad18d5" y="169.045672"/>
    </g>
    <g clip-path="url(#p42eb7e736a)">
     <use style="fill:#0000ff;stroke:#000000;" x="373.068073" xlink:href="#C3_0_3a63ad18d5" y="169.045672"/>
    </g>
    <g clip-path="url(#p42eb7e736a)">
     <use style="fill:#0000ff;stroke:#000000;" x="307.794913" xlink:href="#C3_0_3a63ad18d5" y="168.183682"/>
    </g>
    <g clip-path="url(#p42eb7e736a)">
     <use style="fill:#0000ff;stroke:#000000;" x="373.415712" xlink:href="#C3_0_3a63ad18d5" y="168.183682"/>
    </g>
    <g clip-path="url(#p42eb7e736a)">
     <use style="fill:#0000ff;stroke:#000000;" x="344.175788" xlink:href="#C3_0_3a63ad18d5" y="161.599349"/>
    </g>
    <g clip-path="url(#p42eb7e736a)">
     <use style="fill:#0000ff;stroke:#000000;" x="327.173272" xlink:href="#C3_0_3a63ad18d5" y="161.599349"/>
    </g>
    <g clip-path="url(#p42eb7e736a)">
     <use style="fill:#0000ff;stroke:#000000;" x="354.58771" xlink:href="#C3_0_3a63ad18d5" y="156.83798"/>
    </g>
    <g clip-path="url(#p42eb7e736a)">
     <use style="fill:#0000ff;stroke:#000000;" x="316.76135" xlink:href="#C3_0_3a63ad18d5" y="156.83798"/>
    </g>
    <g clip-path="url(#p42eb7e736a)">
     <use style="fill:#0000ff;stroke:#000000;" x="340.605312" xlink:href="#C3_0_3a63ad18d5" y="142.510659"/>
    </g>
    <g clip-path="url(#p42eb7e736a)">
     <use style="fill:#0000ff;stroke:#000000;" x="329.055312" xlink:href="#C3_0_3a63ad18d5" y="142.510659"/>
    </g>
    <g clip-path="url(#p42eb7e736a)">
     <use style="fill:#0000ff;stroke:#000000;" x="340.605312" xlink:href="#C3_0_3a63ad18d5" y="116.362748"/>
    </g>
    <g clip-path="url(#p42eb7e736a)">
     <use style="fill:#0000ff;stroke:#000000;" x="329.055312" xlink:href="#C3_0_3a63ad18d5" y="116.362748"/>
    </g>
    <g clip-path="url(#p42eb7e736a)">
     <use style="fill:#0000ff;stroke:#000000;" x="336.53616" xlink:href="#C3_0_3a63ad18d5" y="106.068021"/>
    </g>
    <g clip-path="url(#p42eb7e736a)">
     <use style="fill:#0000ff;stroke:#000000;" x="348.08616" xlink:href="#C3_0_3a63ad18d5" y="106.068021"/>
    </g>
    <g clip-path="url(#p42eb7e736a)">
     <use style="fill:#0000ff;stroke:#000000;" x="340.605312" xlink:href="#C3_0_3a63ad18d5" y="77.591966"/>
    </g>
    <g clip-path="url(#p42eb7e736a)">
     <use style="fill:#0000ff;stroke:#000000;" x="329.055312" xlink:href="#C3_0_3a63ad18d5" y="77.591966"/>
    </g>
   </g>
   <g id="text_14">
    <text style="font-family:Arial;font-size:20px;font-style:normal;font-weight:normal;text-anchor:middle;" transform="rotate(-0, 223.425313, 21.759375)" x="223.425313" y="21.759375">Lyso-PAF-C16</text>
   </g>
   <g id="legend_1">
    <g id="patch_13">
     <path d="M 409.565313 87.340625 
L 458.787188 87.340625 
Q 460.787188 87.340625 460.787188 85.340625 
L 460.787188 29.759375 
Q 460.787188 27.759375 458.787188 27.759375 
L 409.565313 27.759375 
Q 407.565313 27.759375 407.565313 29.759375 
L 407.565313 85.340625 
Q 407.565313 87.340625 409.565313 87.340625 
z
" style="fill:#ffffff;opacity:0.8;stroke:#cccccc;stroke-linejoin:miter;"/>
    </g>
    <g id="patch_14">
     <path d="M 411.565313 38.917187 
L 431.565313 38.917187 
L 431.565313 31.917187 
L 411.565313 31.917187 
z
" style="fill:#df2020;stroke:#4c4c4c;stroke-linejoin:miter;stroke-width:0.75;"/>
    </g>
    <g id="text_15">
     <text style="font-family:Arial;font-size:10px;font-style:normal;font-weight:normal;text-anchor:start;" transform="rotate(-0, 439.565313, 38.917187)" x="439.565313" y="38.917187">Air</text>
    </g>
    <g id="patch_15">
     <path d="M 411.565313 53.0625 
L 431.565313 53.0625 
L 431.565313 46.0625 
L 411.565313 46.0625 
z
" style="fill:#2020df;stroke:#4c4c4c;stroke-linejoin:miter;stroke-width:0.75;"/>
    </g>
    <g id="text_16">
     <text style="font-family:Arial;font-size:10px;font-style:normal;font-weight:normal;text-anchor:start;" transform="rotate(-0, 439.565313, 53.0625)" x="439.565313" y="53.0625">IHC</text>
    </g>
    <g id="PathCollection_7">
     <defs>
      <path d="M 0 3.872983 
C 1.027127 3.872983 2.012324 3.464901 2.738613 2.738613 
C 3.464901 2.012324 3.872983 1.027127 3.872983 0 
C 3.872983 -1.027127 3.464901 -2.012324 2.738613 -2.738613 
C 2.012324 -3.464901 1.027127 -3.872983 0 -3.872983 
C -1.027127 -3.872983 -2.012324 -3.464901 -2.738613 -2.738613 
C -3.464901 -2.012324 -3.872983 -1.027127 -3.872983 0 
C -3.872983 1.027127 -3.464901 2.012324 -2.738613 2.738613 
C -2.012324 3.464901 -1.027127 3.872983 0 3.872983 
z
" id="mf635a20946" style="stroke:#ff0000;"/>
     </defs>
     <g>
      <use style="fill:#ff0000;stroke:#ff0000;" x="421.565313" xlink:href="#mf635a20946" y="64.582812"/>
     </g>
    </g>
    <g id="text_17">
     <text style="font-family:Arial;font-size:10px;font-style:normal;font-weight:normal;text-anchor:start;" transform="rotate(-0, 439.565313, 67.207812)" x="439.565313" y="67.207812">Air</text>
    </g>
    <g id="PathCollection_8">
     <defs>
      <path d="M 0 3.872983 
C 1.027127 3.872983 2.012324 3.464901 2.738613 2.738613 
C 3.464901 2.012324 3.872983 1.027127 3.872983 0 
C 3.872983 -1.027127 3.464901 -2.012324 2.738613 -2.738613 
C 2.012324 -3.464901 1.027127 -3.872983 0 -3.872983 
C -1.027127 -3.872983 -2.012324 -3.464901 -2.738613 -2.738613 
C -3.464901 -2.012324 -3.872983 -1.027127 -3.872983 0 
C -3.872983 1.027127 -3.464901 2.012324 -2.738613 2.738613 
C -2.012324 3.464901 -1.027127 3.872983 0 3.872983 
z
" id="mcc5225d57d" style="stroke:#0000ff;"/>
     </defs>
     <g>
      <use style="fill:#0000ff;stroke:#0000ff;" x="421.565313" xlink:href="#mcc5225d57d" y="78.728125"/>
     </g>
    </g>
    <g id="text_18">
     <text style="font-family:Arial;font-size:10px;font-style:normal;font-weight:normal;text-anchor:start;" transform="rotate(-0, 439.565313, 81.353125)" x="439.565313" y="81.353125">IHC</text>
    </g>
   </g>
  </g>
 </g>
 <defs>
  <clipPath id="p42eb7e736a">
   <rect height="217.44" width="334.8" x="56.025313" y="27.759375"/>
  </clipPath>
 </defs>
</svg>
