<?xml version="1.0" encoding="utf-8" standalone="no"?>
<!DOCTYPE svg PUBLIC "-//W3C//DTD SVG 1.1//EN"
  "http://www.w3.org/Graphics/SVG/1.1/DTD/svg11.dtd">
<!-- Created with matplotlib (https://matplotlib.org/) -->
<svg height="231.84pt" version="1.1" viewBox="0 0 403.155013 231.84" width="403.155013pt" xmlns="http://www.w3.org/2000/svg" xmlns:xlink="http://www.w3.org/1999/xlink">
 <defs>
  <style type="text/css">
*{stroke-linecap:butt;stroke-linejoin:round;white-space:pre;}
  </style>
 </defs>
 <g id="figure_1">
  <g id="patch_1">
   <path d="M 0 231.84 
L 403.155013 231.84 
L 403.155013 0 
L 0 0 
z
" style="fill:#ffffff;"/>
  </g>
  <g id="axes_1">
   <g id="patch_2">
    <path d="M 182.286981 34.386778 
C 167.637741 34.386778 153.223201 38.087802 140.385974 45.145127 
C 127.548747 52.202452 116.700172 62.389943 108.850716 74.758705 
C 101.001261 87.127467 96.402442 101.281174 95.482608 115.901506 
C 94.562774 130.521839 97.351399 145.140325 103.588741 158.395354 
C 109.826084 171.650382 119.312283 183.117229 131.163767 191.727837 
C 143.01525 200.338445 156.852266 205.816908 171.385992 207.652945 
C 185.919718 209.488983 200.684457 207.623764 214.304976 202.23102 
C 227.925495 196.838276 239.965358 188.090805 249.303136 176.803373 
L 182.286981 121.362778 
L 182.286981 34.386778 
z
" style="fill:#092b4c;opacity:0.5;stroke:#092b4c;stroke-linejoin:miter;"/>
   </g>
   <g id="patch_3">
    <path d="M 257.17296 173.100115 
C 267.692379 160.384324 274.378595 144.933393 276.446972 128.560509 
C 278.51535 112.187625 275.881686 95.559319 268.855044 80.626944 
C 261.828403 65.694569 250.694834 53.066014 236.760878 44.223255 
C 222.826921 35.380497 206.65982 30.68352 190.156805 30.68352 
L 190.156805 117.65952 
L 257.17296 173.100115 
z
" style="fill:#000026;opacity:0.5;stroke:#000026;stroke-linejoin:miter;"/>
   </g>
   <g id="patch_4">
    <path d="M 184.026501 32.647258 
C 169.377261 32.647258 154.962721 36.348282 142.125494 43.405607 
C 129.288267 50.462932 118.439692 60.650423 110.590236 73.019185 
C 102.740781 85.387947 98.141962 99.541654 97.222128 114.161986 
C 96.302294 128.782319 99.090919 143.400805 105.328261 156.655834 
C 111.565604 169.910862 121.051803 181.377709 132.903287 189.988317 
C 144.75477 198.598925 158.591786 204.077388 173.125512 205.913425 
C 187.659238 207.749463 202.423977 205.884244 216.044496 200.4915 
C 229.665015 195.098756 241.704878 186.351285 251.042656 175.063853 
L 184.026501 119.623258 
L 184.026501 32.647258 
z
" style="fill:#1e90ff;"/>
   </g>
   <g id="patch_5">
    <path d="M 258.91248 171.360595 
C 269.431899 158.644804 276.118115 143.193873 278.186492 126.820989 
C 280.25487 110.448105 277.621206 93.819799 270.594564 78.887424 
C 263.567923 63.955049 252.434354 51.326494 238.500398 42.483735 
C 224.566441 33.640977 208.39934 28.944 191.896325 28.944 
L 191.896325 115.92 
L 258.91248 171.360595 
z
" style="fill:#000080;"/>
   </g>
   <g id="matplotlib.axis_1"/>
   <g id="matplotlib.axis_2"/>
   <g id="text_1">
    <text style="font-family:Arial;font-size:14px;font-style:normal;font-weight:normal;text-anchor:end;" transform="rotate(-0, 97.458437, 163.981591)" x="97.458437" y="163.981591">Cycling Reads</text>
   </g>
   <g id="text_2">
    <text style="fill:#ffffff;font-family:Arial;font-size:14px;font-style:normal;font-weight:normal;text-anchor:middle;" transform="rotate(-0, 121.067909, 152.868537)" x="121.067909" y="152.868537">64%</text>
   </g>
   <g id="text_3">
    <text style="font-family:Arial;font-size:14px;font-style:normal;font-weight:normal;text-anchor:start;" transform="rotate(-0, 278.464388, 78.721354)" x="278.464388" y="78.721354">Non-cycling Reads</text>
   </g>
   <g id="text_4">
    <text style="fill:#ffffff;font-family:Arial;font-size:14px;font-style:normal;font-weight:normal;text-anchor:middle;" transform="rotate(-0, 254.854916, 89.913158)" x="254.854916" y="89.913158">36%</text>
   </g>
  </g>
 </g>
</svg>
