<?xml version="1.0" encoding="utf-8" standalone="no"?>
<!DOCTYPE svg PUBLIC "-//W3C//DTD SVG 1.1//EN"
  "http://www.w3.org/Graphics/SVG/1.1/DTD/svg11.dtd">
<!-- Created with matplotlib (https://matplotlib.org/) -->
<svg height="231.84pt" version="1.1" viewBox="0 0 295.195059 231.84" width="295.195059pt" xmlns="http://www.w3.org/2000/svg" xmlns:xlink="http://www.w3.org/1999/xlink">
 <defs>
  <style type="text/css">
*{stroke-linecap:butt;stroke-linejoin:round;white-space:pre;}
  </style>
 </defs>
 <g id="figure_1">
  <g id="patch_1">
   <path d="M 0 231.84 
L 295.195059 231.84 
L 295.195059 0 
L 0 0 
z
" style="fill:#ffffff;"/>
  </g>
  <g id="axes_1">
   <g id="patch_2">
    <path d="M 131.160411 22.259171 
C 123.864352 22.259171 116.5972 23.177226 109.53036 24.991682 
C 102.46352 26.806138 95.65299 29.502617 89.259405 33.017521 
L 131.160411 109.235171 
L 131.160411 22.259171 
z
" style="fill:#092b4c;opacity:0.5;stroke:#092b4c;stroke-linejoin:miter;"/>
   </g>
   <g id="patch_3">
    <path d="M 91.42241 41.44187 
C 82.218805 46.501594 74.007319 53.186794 67.186347 61.173126 
C 60.365375 69.159458 55.047041 78.315642 51.489371 88.197451 
C 47.931701 98.079259 46.193177 108.524255 46.358146 119.02568 
C 46.523116 129.527106 48.588867 139.912339 52.455177 149.677522 
C 56.321487 159.442706 61.9248 168.427319 68.993264 176.195458 
C 76.061727 183.963597 84.479147 190.387569 93.837141 195.155705 
C 103.195134 199.92384 113.339873 202.95776 123.779168 204.110268 
C 134.218463 205.262777 144.780713 204.514929 154.953471 201.903008 
C 165.12623 199.291087 174.742278 194.858028 183.335077 188.818907 
C 191.927875 182.779787 199.356174 175.233877 205.259579 166.54728 
C 211.162984 157.860683 215.444453 148.176189 217.896264 137.963659 
C 220.348075 127.751128 220.929925 117.178435 219.613584 106.758531 
C 218.297243 96.338627 215.10435 86.242795 210.189813 76.960851 
C 205.275276 67.678907 198.71988 59.363429 190.841672 52.417855 
C 182.963464 45.472281 173.891946 40.010784 164.067237 36.298337 
C 154.242529 32.58589 143.82613 30.683519 133.323408 30.68352 
L 133.323416 117.65952 
L 91.42241 41.44187 
z
" style="fill:#000026;opacity:0.5;stroke:#000026;stroke-linejoin:miter;"/>
   </g>
   <g id="patch_4">
    <path d="M 132.899931 20.519651 
C 125.603872 20.519651 118.33672 21.437706 111.26988 23.252162 
C 104.20304 25.066618 97.39251 27.763097 90.998925 31.278001 
L 132.899931 107.495651 
L 132.899931 20.519651 
z
" style="fill:#1e90ff;"/>
   </g>
   <g id="patch_5">
    <path d="M 93.16193 39.70235 
C 83.958325 44.762074 75.746839 51.447274 68.925867 59.433606 
C 62.104895 67.419938 56.786561 76.576122 53.228891 86.457931 
C 49.671221 96.339739 47.932697 106.784735 48.097666 117.28616 
C 48.262636 127.787586 50.328387 138.172819 54.194697 147.938002 
C 58.061007 157.703186 63.66432 166.687799 70.732784 174.455938 
C 77.801247 182.224077 86.218667 188.648049 95.576661 193.416185 
C 104.934654 198.18432 115.079393 201.21824 125.518688 202.370748 
C 135.957983 203.523257 146.520233 202.775409 156.692991 200.163488 
C 166.86575 197.551567 176.481798 193.118508 185.074597 187.079387 
C 193.667395 181.040267 201.095694 173.494357 206.999099 164.80776 
C 212.902504 156.121163 217.183973 146.436669 219.635784 136.224139 
C 222.087595 126.011608 222.669445 115.438915 221.353104 105.019011 
C 220.036763 94.599107 216.84387 84.503275 211.929333 75.221331 
C 207.014796 65.939387 200.4594 57.623909 192.581192 50.678335 
C 184.702984 43.732761 175.631466 38.271264 165.806757 34.558817 
C 155.982049 30.84637 145.56565 28.943999 135.062928 28.944 
L 135.062936 115.92 
L 93.16193 39.70235 
z
" style="fill:#000080;"/>
   </g>
   <g id="matplotlib.axis_1"/>
   <g id="matplotlib.axis_2"/>
   <g id="text_1">
    <text style="font-family:Arial;font-size:14px;font-style:normal;font-weight:normal;text-anchor:end;" transform="rotate(-0, 109.106875, 18.450313)" x="109.106875" y="18.450313">Cycling Families</text>
   </g>
   <g id="text_2">
    <text style="fill:#ffffff;font-family:Arial;font-size:14px;font-style:normal;font-weight:normal;text-anchor:middle;" transform="rotate(-0, 115.59589, 43.720079)" x="115.59589" y="43.720079">8%</text>
   </g>
   <g id="text_3">
    <text style="font-family:Arial;font-size:14px;font-style:normal;font-weight:normal;text-anchor:start;" transform="rotate(-0, 158.855997, 212.125024)" x="158.855997" y="212.125024">Non-cycling Families</text>
   </g>
   <g id="text_4">
    <text style="fill:#ffffff;font-family:Arial;font-size:14px;font-style:normal;font-weight:normal;text-anchor:middle;" transform="rotate(-0, 152.36698, 186.934009)" x="152.36698" y="186.934009">92%</text>
   </g>
  </g>
 </g>
</svg>
