<?xml version="1.0" encoding="utf-8" standalone="no"?>
<!DOCTYPE svg PUBLIC "-//W3C//DTD SVG 1.1//EN"
  "http://www.w3.org/Graphics/SVG/1.1/DTD/svg11.dtd">
<!-- Created with matplotlib (https://matplotlib.org/) -->
<svg height="443.338125pt" version="1.1" viewBox="0 0 434.255616 443.338125" width="434.255616pt" xmlns="http://www.w3.org/2000/svg" xmlns:xlink="http://www.w3.org/1999/xlink">
 <defs>
  <style type="text/css">
*{stroke-linecap:butt;stroke-linejoin:round;}
  </style>
 </defs>
 <g id="figure_1">
  <g id="patch_1">
   <path d="M 0 443.338125 
L 434.255616 443.338125 
L 434.255616 0 
L 0 0 
z
" style="fill:#ffffff;"/>
  </g>
  <g id="axes_1">
   <g id="patch_2">
    <path d="M 44.903438 403.189375 
L 353.896116 403.189375 
L 353.896116 21.789375 
L 44.903438 21.789375 
z
" style="fill:#ffffff;"/>
   </g>
   <g id="PathCollection_1">
    <defs>
     <path d="M 0 3.383948 
C 0.897434 3.383948 1.758231 3.027394 2.392813 2.392813 
C 3.027394 1.758231 3.383948 0.897434 3.383948 0 
C 3.383948 -0.897434 3.027394 -1.758231 2.392813 -2.392813 
C 1.758231 -3.027394 0.897434 -3.383948 0 -3.383948 
C -0.897434 -3.383948 -1.758231 -3.027394 -2.392813 -2.392813 
C -3.027394 -1.758231 -3.383948 -0.897434 -3.383948 0 
C -3.383948 0.897434 -3.027394 1.758231 -2.392813 2.392813 
C -1.758231 3.027394 -0.897434 3.383948 0 3.383948 
z
" id="C0_0_55c7576f18"/>
    </defs>
    <g clip-path="url(#p706fdbf2d5)">
     <use style="fill:#ff0000;stroke:#ff0000;stroke-width:2.025;" x="62.134325" xlink:href="#C0_0_55c7576f18" y="142.393146"/>
    </g>
    <g clip-path="url(#p706fdbf2d5)">
     <use style="fill:#ff0000;stroke:#ff0000;stroke-width:2.025;" x="86.2836" xlink:href="#C0_0_55c7576f18" y="195.744043"/>
    </g>
    <g clip-path="url(#p706fdbf2d5)">
     <use style="fill:#ff0000;stroke:#ff0000;stroke-width:2.025;" x="110.432876" xlink:href="#C0_0_55c7576f18" y="115.418565"/>
    </g>
    <g clip-path="url(#p706fdbf2d5)">
     <use style="fill:#ff0000;stroke:#ff0000;stroke-width:2.025;" x="134.582152" xlink:href="#C0_0_55c7576f18" y="174.235816"/>
    </g>
    <g clip-path="url(#p706fdbf2d5)">
     <use style="fill:#ff0000;stroke:#ff0000;stroke-width:2.025;" x="158.731427" xlink:href="#C0_0_55c7576f18" y="331.082437"/>
    </g>
    <g clip-path="url(#p706fdbf2d5)">
     <use style="fill:#ff0000;stroke:#ff0000;stroke-width:2.025;" x="182.880703" xlink:href="#C0_0_55c7576f18" y="282.870579"/>
    </g>
    <g clip-path="url(#p706fdbf2d5)">
     <use style="fill:#ff0000;stroke:#ff0000;stroke-width:2.025;" x="207.029978" xlink:href="#C0_0_55c7576f18" y="142.393146"/>
    </g>
    <g clip-path="url(#p706fdbf2d5)">
     <use style="fill:#ff0000;stroke:#ff0000;stroke-width:2.025;" x="231.179254" xlink:href="#C0_0_55c7576f18" y="195.744043"/>
    </g>
    <g clip-path="url(#p706fdbf2d5)">
     <use style="fill:#ff0000;stroke:#ff0000;stroke-width:2.025;" x="255.32853" xlink:href="#C0_0_55c7576f18" y="115.418565"/>
    </g>
    <g clip-path="url(#p706fdbf2d5)">
     <use style="fill:#ff0000;stroke:#ff0000;stroke-width:2.025;" x="279.477805" xlink:href="#C0_0_55c7576f18" y="174.235816"/>
    </g>
    <g clip-path="url(#p706fdbf2d5)">
     <use style="fill:#ff0000;stroke:#ff0000;stroke-width:2.025;" x="303.627081" xlink:href="#C0_0_55c7576f18" y="331.082437"/>
    </g>
    <g clip-path="url(#p706fdbf2d5)">
     <use style="fill:#ff0000;stroke:#ff0000;stroke-width:2.025;" x="327.776357" xlink:href="#C0_0_55c7576f18" y="282.870579"/>
    </g>
   </g>
   <g id="patch_3">
    <path clip-path="url(#p706fdbf2d5)" d="M 122.507514 403.189375 
L 122.507514 21.789375 
L 194.955341 21.789375 
L 194.955341 403.189375 
z
" style="opacity:0.2;stroke:#000000;stroke-linejoin:miter;"/>
   </g>
   <g id="patch_4">
    <path clip-path="url(#p706fdbf2d5)" d="M 267.403168 403.189375 
L 267.403168 21.789375 
L 339.850994 21.789375 
L 339.850994 403.189375 
z
" style="opacity:0.2;stroke:#000000;stroke-linejoin:miter;"/>
   </g>
   <g id="line2d_1">
    <path clip-path="url(#p706fdbf2d5)" d="M 62.134325 142.393146 
L 86.2836 195.744043 
L 110.432876 115.418565 
L 134.582152 174.235816 
L 158.731427 331.082437 
L 182.880703 282.870579 
L 207.029978 142.393146 
L 231.179254 195.744043 
L 255.32853 115.418565 
L 279.477805 174.235816 
L 303.627081 331.082437 
L 327.776357 282.870579 
" style="fill:none;stroke:#ff0000;stroke-linecap:square;stroke-width:2.7;"/>
   </g>
   <g id="line2d_2">
    <path clip-path="url(#p706fdbf2d5)" d="M 62.134325 214.618227 
L 62.134325 54.202221 
" style="fill:none;stroke:#ff0000;stroke-linecap:square;"/>
   </g>
   <g id="line2d_3">
    <path clip-path="url(#p706fdbf2d5)" d="M 59.719397 214.618227 
L 64.549252 214.618227 
" style="fill:none;stroke:#ff0000;stroke-linecap:square;"/>
   </g>
   <g id="line2d_4">
    <path clip-path="url(#p706fdbf2d5)" d="M 59.719397 54.202221 
L 64.549252 54.202221 
" style="fill:none;stroke:#ff0000;stroke-linecap:square;"/>
   </g>
   <g id="line2d_5">
    <path clip-path="url(#p706fdbf2d5)" d="M 86.2836 347.691451 
L 86.2836 43.796635 
" style="fill:none;stroke:#ff0000;stroke-linecap:square;"/>
   </g>
   <g id="line2d_6">
    <path clip-path="url(#p706fdbf2d5)" d="M 83.868673 347.691451 
L 88.698528 347.691451 
" style="fill:none;stroke:#ff0000;stroke-linecap:square;"/>
   </g>
   <g id="line2d_7">
    <path clip-path="url(#p706fdbf2d5)" d="M 83.868673 43.796635 
L 88.698528 43.796635 
" style="fill:none;stroke:#ff0000;stroke-linecap:square;"/>
   </g>
   <g id="line2d_8">
    <path clip-path="url(#p706fdbf2d5)" d="M 110.432876 191.711391 
L 110.432876 39.125739 
" style="fill:none;stroke:#ff0000;stroke-linecap:square;"/>
   </g>
   <g id="line2d_9">
    <path clip-path="url(#p706fdbf2d5)" d="M 108.017948 191.711391 
L 112.847803 191.711391 
" style="fill:none;stroke:#ff0000;stroke-linecap:square;"/>
   </g>
   <g id="line2d_10">
    <path clip-path="url(#p706fdbf2d5)" d="M 108.017948 39.125739 
L 112.847803 39.125739 
" style="fill:none;stroke:#ff0000;stroke-linecap:square;"/>
   </g>
   <g id="line2d_11">
    <path clip-path="url(#p706fdbf2d5)" d="M 134.582152 241.214045 
L 134.582152 107.257587 
" style="fill:none;stroke:#ff0000;stroke-linecap:square;"/>
   </g>
   <g id="line2d_12">
    <path clip-path="url(#p706fdbf2d5)" d="M 132.167224 241.214045 
L 136.997079 241.214045 
" style="fill:none;stroke:#ff0000;stroke-linecap:square;"/>
   </g>
   <g id="line2d_13">
    <path clip-path="url(#p706fdbf2d5)" d="M 132.167224 107.257587 
L 136.997079 107.257587 
" style="fill:none;stroke:#ff0000;stroke-linecap:square;"/>
   </g>
   <g id="line2d_14">
    <path clip-path="url(#p706fdbf2d5)" d="M 158.731427 377.20345 
L 158.731427 284.961424 
" style="fill:none;stroke:#ff0000;stroke-linecap:square;"/>
   </g>
   <g id="line2d_15">
    <path clip-path="url(#p706fdbf2d5)" d="M 156.3165 377.20345 
L 161.146355 377.20345 
" style="fill:none;stroke:#ff0000;stroke-linecap:square;"/>
   </g>
   <g id="line2d_16">
    <path clip-path="url(#p706fdbf2d5)" d="M 156.3165 284.961424 
L 161.146355 284.961424 
" style="fill:none;stroke:#ff0000;stroke-linecap:square;"/>
   </g>
   <g id="line2d_17">
    <path clip-path="url(#p706fdbf2d5)" d="M 182.880703 317.388023 
L 182.880703 248.353136 
" style="fill:none;stroke:#ff0000;stroke-linecap:square;"/>
   </g>
   <g id="line2d_18">
    <path clip-path="url(#p706fdbf2d5)" d="M 180.465775 317.388023 
L 185.29563 317.388023 
" style="fill:none;stroke:#ff0000;stroke-linecap:square;"/>
   </g>
   <g id="line2d_19">
    <path clip-path="url(#p706fdbf2d5)" d="M 180.465775 248.353136 
L 185.29563 248.353136 
" style="fill:none;stroke:#ff0000;stroke-linecap:square;"/>
   </g>
   <g id="line2d_20">
    <path clip-path="url(#p706fdbf2d5)" d="M 207.029978 214.618227 
L 207.029978 70.168066 
" style="fill:none;stroke:#ff0000;stroke-linecap:square;"/>
   </g>
   <g id="line2d_21">
    <path clip-path="url(#p706fdbf2d5)" d="M 204.615051 214.618227 
L 209.444906 214.618227 
" style="fill:none;stroke:#ff0000;stroke-linecap:square;"/>
   </g>
   <g id="line2d_22">
    <path clip-path="url(#p706fdbf2d5)" d="M 204.615051 70.168066 
L 209.444906 70.168066 
" style="fill:none;stroke:#ff0000;stroke-linecap:square;"/>
   </g>
   <g id="line2d_23">
    <path clip-path="url(#p706fdbf2d5)" d="M 231.179254 347.691451 
L 231.179254 43.796635 
" style="fill:none;stroke:#ff0000;stroke-linecap:square;"/>
   </g>
   <g id="line2d_24">
    <path clip-path="url(#p706fdbf2d5)" d="M 228.764326 347.691451 
L 233.594182 347.691451 
" style="fill:none;stroke:#ff0000;stroke-linecap:square;"/>
   </g>
   <g id="line2d_25">
    <path clip-path="url(#p706fdbf2d5)" d="M 228.764326 43.796635 
L 233.594182 43.796635 
" style="fill:none;stroke:#ff0000;stroke-linecap:square;"/>
   </g>
   <g id="line2d_26">
    <path clip-path="url(#p706fdbf2d5)" d="M 255.32853 191.711391 
L 255.32853 39.125739 
" style="fill:none;stroke:#ff0000;stroke-linecap:square;"/>
   </g>
   <g id="line2d_27">
    <path clip-path="url(#p706fdbf2d5)" d="M 252.913602 191.711391 
L 257.743457 191.711391 
" style="fill:none;stroke:#ff0000;stroke-linecap:square;"/>
   </g>
   <g id="line2d_28">
    <path clip-path="url(#p706fdbf2d5)" d="M 252.913602 39.125739 
L 257.743457 39.125739 
" style="fill:none;stroke:#ff0000;stroke-linecap:square;"/>
   </g>
   <g id="line2d_29">
    <path clip-path="url(#p706fdbf2d5)" d="M 279.477805 239.096948 
L 279.477805 109.374684 
" style="fill:none;stroke:#ff0000;stroke-linecap:square;"/>
   </g>
   <g id="line2d_30">
    <path clip-path="url(#p706fdbf2d5)" d="M 277.062878 239.096948 
L 281.892733 239.096948 
" style="fill:none;stroke:#ff0000;stroke-linecap:square;"/>
   </g>
   <g id="line2d_31">
    <path clip-path="url(#p706fdbf2d5)" d="M 277.062878 109.374684 
L 281.892733 109.374684 
" style="fill:none;stroke:#ff0000;stroke-linecap:square;"/>
   </g>
   <g id="line2d_32">
    <path clip-path="url(#p706fdbf2d5)" d="M 303.627081 377.20345 
L 303.627081 284.961424 
" style="fill:none;stroke:#ff0000;stroke-linecap:square;"/>
   </g>
   <g id="line2d_33">
    <path clip-path="url(#p706fdbf2d5)" d="M 301.212153 377.20345 
L 306.042009 377.20345 
" style="fill:none;stroke:#ff0000;stroke-linecap:square;"/>
   </g>
   <g id="line2d_34">
    <path clip-path="url(#p706fdbf2d5)" d="M 301.212153 284.961424 
L 306.042009 284.961424 
" style="fill:none;stroke:#ff0000;stroke-linecap:square;"/>
   </g>
   <g id="line2d_35">
    <path clip-path="url(#p706fdbf2d5)" d="M 327.776357 317.388023 
L 327.776357 248.353136 
" style="fill:none;stroke:#ff0000;stroke-linecap:square;"/>
   </g>
   <g id="line2d_36">
    <path clip-path="url(#p706fdbf2d5)" d="M 325.361429 317.388023 
L 330.191284 317.388023 
" style="fill:none;stroke:#ff0000;stroke-linecap:square;"/>
   </g>
   <g id="line2d_37">
    <path clip-path="url(#p706fdbf2d5)" d="M 325.361429 248.353136 
L 330.191284 248.353136 
" style="fill:none;stroke:#ff0000;stroke-linecap:square;"/>
   </g>
   <g id="matplotlib.axis_1">
    <g id="xtick_1">
     <g id="line2d_38">
      <defs>
       <path d="M 0 0 
L 0 3.5 
" id="m89e5620665" style="stroke:#000000;stroke-width:0.8;"/>
      </defs>
      <g>
       <use style="stroke:#000000;stroke-width:0.8;" x="62.134325" xlink:href="#m89e5620665" y="403.189375"/>
      </g>
     </g>
     <g id="text_1">
      <text style="font-family:Arial;font-size:10px;font-style:normal;font-weight:normal;text-anchor:middle;" transform="rotate(-0, 62.134325, 417.347187)" x="62.134325" y="417.347187">2</text>
     </g>
    </g>
    <g id="xtick_2">
     <g id="line2d_39">
      <g>
       <use style="stroke:#000000;stroke-width:0.8;" x="86.2836" xlink:href="#m89e5620665" y="403.189375"/>
      </g>
     </g>
     <g id="text_2">
      <text style="font-family:Arial;font-size:10px;font-style:normal;font-weight:normal;text-anchor:middle;" transform="rotate(-0, 86.2836, 417.347187)" x="86.2836" y="417.347187">6</text>
     </g>
    </g>
    <g id="xtick_3">
     <g id="line2d_40">
      <g>
       <use style="stroke:#000000;stroke-width:0.8;" x="110.432876" xlink:href="#m89e5620665" y="403.189375"/>
      </g>
     </g>
     <g id="text_3">
      <text style="font-family:Arial;font-size:10px;font-style:normal;font-weight:normal;text-anchor:middle;" transform="rotate(-0, 110.432876, 417.347187)" x="110.432876" y="417.347187">10</text>
     </g>
    </g>
    <g id="xtick_4">
     <g id="line2d_41">
      <g>
       <use style="stroke:#000000;stroke-width:0.8;" x="134.582152" xlink:href="#m89e5620665" y="403.189375"/>
      </g>
     </g>
     <g id="text_4">
      <text style="font-family:Arial;font-size:10px;font-style:normal;font-weight:normal;text-anchor:middle;" transform="rotate(-0, 134.582152, 417.347187)" x="134.582152" y="417.347187">14</text>
     </g>
    </g>
    <g id="xtick_5">
     <g id="line2d_42">
      <g>
       <use style="stroke:#000000;stroke-width:0.8;" x="158.731427" xlink:href="#m89e5620665" y="403.189375"/>
      </g>
     </g>
     <g id="text_5">
      <text style="font-family:Arial;font-size:10px;font-style:normal;font-weight:normal;text-anchor:middle;" transform="rotate(-0, 158.731427, 417.347187)" x="158.731427" y="417.347187">18</text>
     </g>
    </g>
    <g id="xtick_6">
     <g id="line2d_43">
      <g>
       <use style="stroke:#000000;stroke-width:0.8;" x="182.880703" xlink:href="#m89e5620665" y="403.189375"/>
      </g>
     </g>
     <g id="text_6">
      <text style="font-family:Arial;font-size:10px;font-style:normal;font-weight:normal;text-anchor:middle;" transform="rotate(-0, 182.880703, 417.347187)" x="182.880703" y="417.347187">22</text>
     </g>
    </g>
    <g id="xtick_7">
     <g id="line2d_44">
      <g>
       <use style="stroke:#000000;stroke-width:0.8;" x="207.029978" xlink:href="#m89e5620665" y="403.189375"/>
      </g>
     </g>
     <g id="text_7">
      <text style="font-family:Arial;font-size:10px;font-style:normal;font-weight:normal;text-anchor:middle;" transform="rotate(-0, 207.029978, 417.347187)" x="207.029978" y="417.347187">2</text>
     </g>
    </g>
    <g id="xtick_8">
     <g id="line2d_45">
      <g>
       <use style="stroke:#000000;stroke-width:0.8;" x="231.179254" xlink:href="#m89e5620665" y="403.189375"/>
      </g>
     </g>
     <g id="text_8">
      <text style="font-family:Arial;font-size:10px;font-style:normal;font-weight:normal;text-anchor:middle;" transform="rotate(-0, 231.179254, 417.347187)" x="231.179254" y="417.347187">6</text>
     </g>
    </g>
    <g id="xtick_9">
     <g id="line2d_46">
      <g>
       <use style="stroke:#000000;stroke-width:0.8;" x="255.32853" xlink:href="#m89e5620665" y="403.189375"/>
      </g>
     </g>
     <g id="text_9">
      <text style="font-family:Arial;font-size:10px;font-style:normal;font-weight:normal;text-anchor:middle;" transform="rotate(-0, 255.32853, 417.347187)" x="255.32853" y="417.347187">10</text>
     </g>
    </g>
    <g id="xtick_10">
     <g id="line2d_47">
      <g>
       <use style="stroke:#000000;stroke-width:0.8;" x="279.477805" xlink:href="#m89e5620665" y="403.189375"/>
      </g>
     </g>
     <g id="text_10">
      <text style="font-family:Arial;font-size:10px;font-style:normal;font-weight:normal;text-anchor:middle;" transform="rotate(-0, 279.477805, 417.347187)" x="279.477805" y="417.347187">14</text>
     </g>
    </g>
    <g id="xtick_11">
     <g id="line2d_48">
      <g>
       <use style="stroke:#000000;stroke-width:0.8;" x="303.627081" xlink:href="#m89e5620665" y="403.189375"/>
      </g>
     </g>
     <g id="text_11">
      <text style="font-family:Arial;font-size:10px;font-style:normal;font-weight:normal;text-anchor:middle;" transform="rotate(-0, 303.627081, 417.347187)" x="303.627081" y="417.347187">18</text>
     </g>
    </g>
    <g id="xtick_12">
     <g id="line2d_49">
      <g>
       <use style="stroke:#000000;stroke-width:0.8;" x="327.776357" xlink:href="#m89e5620665" y="403.189375"/>
      </g>
     </g>
     <g id="text_12">
      <text style="font-family:Arial;font-size:10px;font-style:normal;font-weight:normal;text-anchor:middle;" transform="rotate(-0, 327.776357, 417.347187)" x="327.776357" y="417.347187">22</text>
     </g>
    </g>
    <g id="text_13">
     <text style="font-family:Arial;font-size:14px;font-style:normal;font-weight:normal;text-anchor:middle;" transform="rotate(-0, 199.399777, 433.355625)" x="199.399777" y="433.355625">ZT</text>
    </g>
   </g>
   <g id="matplotlib.axis_2">
    <g id="ytick_1">
     <g id="line2d_50">
      <defs>
       <path d="M 0 0 
L -3.5 0 
" id="m245db843dd" style="stroke:#000000;stroke-width:0.8;"/>
      </defs>
      <g>
       <use style="stroke:#000000;stroke-width:0.8;" x="44.903438" xlink:href="#m245db843dd" y="387.125446"/>
      </g>
     </g>
     <g id="text_14">
      <text style="font-family:Arial;font-size:10px;font-style:normal;font-weight:normal;text-anchor:end;" transform="rotate(-0, 37.903438, 390.704352)" x="37.903438" y="390.704352">0.4</text>
     </g>
    </g>
    <g id="ytick_2">
     <g id="line2d_51">
      <g>
       <use style="stroke:#000000;stroke-width:0.8;" x="44.903438" xlink:href="#m245db843dd" y="308.656016"/>
      </g>
     </g>
     <g id="text_15">
      <text style="font-family:Arial;font-size:10px;font-style:normal;font-weight:normal;text-anchor:end;" transform="rotate(-0, 37.903438, 312.234923)" x="37.903438" y="312.234923">0.6</text>
     </g>
    </g>
    <g id="ytick_3">
     <g id="line2d_52">
      <g>
       <use style="stroke:#000000;stroke-width:0.8;" x="44.903438" xlink:href="#m245db843dd" y="230.186587"/>
      </g>
     </g>
     <g id="text_16">
      <text style="font-family:Arial;font-size:10px;font-style:normal;font-weight:normal;text-anchor:end;" transform="rotate(-0, 37.903438, 233.765493)" x="37.903438" y="233.765493">0.8</text>
     </g>
    </g>
    <g id="ytick_4">
     <g id="line2d_53">
      <g>
       <use style="stroke:#000000;stroke-width:0.8;" x="44.903438" xlink:href="#m245db843dd" y="151.717158"/>
      </g>
     </g>
     <g id="text_17">
      <text style="font-family:Arial;font-size:10px;font-style:normal;font-weight:normal;text-anchor:end;" transform="rotate(-0, 37.903438, 155.296064)" x="37.903438" y="155.296064">1.0</text>
     </g>
    </g>
    <g id="ytick_5">
     <g id="line2d_54">
      <g>
       <use style="stroke:#000000;stroke-width:0.8;" x="44.903438" xlink:href="#m245db843dd" y="73.247728"/>
      </g>
     </g>
     <g id="text_18">
      <text style="font-family:Arial;font-size:10px;font-style:normal;font-weight:normal;text-anchor:end;" transform="rotate(-0, 37.903438, 76.826634)" x="37.903438" y="76.826634">1.2</text>
     </g>
    </g>
    <g id="text_19">
     <text style="font-family:Arial;font-size:14px;font-style:normal;font-weight:normal;text-anchor:middle;" transform="rotate(-90, 17.220938, 212.489375)" x="17.220938" y="212.489375">Relative Abundance</text>
    </g>
   </g>
   <g id="PathCollection_2">
    <defs>
     <path d="M 0 3.383948 
C 0.897434 3.383948 1.758231 3.027394 2.392813 2.392813 
C 3.027394 1.758231 3.383948 0.897434 3.383948 0 
C 3.383948 -0.897434 3.027394 -1.758231 2.392813 -2.392813 
C 1.758231 -3.027394 0.897434 -3.383948 0 -3.383948 
C -0.897434 -3.383948 -1.758231 -3.027394 -2.392813 -2.392813 
C -3.027394 -1.758231 -3.383948 -0.897434 -3.383948 0 
C -3.383948 0.897434 -3.027394 1.758231 -2.392813 2.392813 
C -1.758231 3.027394 -0.897434 3.383948 0 3.383948 
z
" id="C1_0_e4ca2d84ce"/>
    </defs>
    <g clip-path="url(#p706fdbf2d5)">
     <use style="fill:#0000ff;stroke:#0000ff;stroke-width:2.025;" x="62.134325" xlink:href="#C1_0_e4ca2d84ce" y="300.774886"/>
    </g>
    <g clip-path="url(#p706fdbf2d5)">
     <use style="fill:#0000ff;stroke:#0000ff;stroke-width:2.025;" x="86.2836" xlink:href="#C1_0_e4ca2d84ce" y="275.667232"/>
    </g>
    <g clip-path="url(#p706fdbf2d5)">
     <use style="fill:#0000ff;stroke:#0000ff;stroke-width:2.025;" x="110.432876" xlink:href="#C1_0_e4ca2d84ce" y="322.726091"/>
    </g>
    <g clip-path="url(#p706fdbf2d5)">
     <use style="fill:#0000ff;stroke:#0000ff;stroke-width:2.025;" x="134.582152" xlink:href="#C1_0_e4ca2d84ce" y="294.070023"/>
    </g>
    <g clip-path="url(#p706fdbf2d5)">
     <use style="fill:#0000ff;stroke:#0000ff;stroke-width:2.025;" x="158.731427" xlink:href="#C1_0_e4ca2d84ce" y="333.89559"/>
    </g>
    <g clip-path="url(#p706fdbf2d5)">
     <use style="fill:#0000ff;stroke:#0000ff;stroke-width:2.025;" x="182.880703" xlink:href="#C1_0_e4ca2d84ce" y="364.518124"/>
    </g>
    <g clip-path="url(#p706fdbf2d5)">
     <use style="fill:#0000ff;stroke:#0000ff;stroke-width:2.025;" x="207.029978" xlink:href="#C1_0_e4ca2d84ce" y="300.774886"/>
    </g>
    <g clip-path="url(#p706fdbf2d5)">
     <use style="fill:#0000ff;stroke:#0000ff;stroke-width:2.025;" x="231.179254" xlink:href="#C1_0_e4ca2d84ce" y="275.667232"/>
    </g>
    <g clip-path="url(#p706fdbf2d5)">
     <use style="fill:#0000ff;stroke:#0000ff;stroke-width:2.025;" x="255.32853" xlink:href="#C1_0_e4ca2d84ce" y="322.726091"/>
    </g>
    <g clip-path="url(#p706fdbf2d5)">
     <use style="fill:#0000ff;stroke:#0000ff;stroke-width:2.025;" x="279.477805" xlink:href="#C1_0_e4ca2d84ce" y="294.070023"/>
    </g>
    <g clip-path="url(#p706fdbf2d5)">
     <use style="fill:#0000ff;stroke:#0000ff;stroke-width:2.025;" x="303.627081" xlink:href="#C1_0_e4ca2d84ce" y="333.89559"/>
    </g>
    <g clip-path="url(#p706fdbf2d5)">
     <use style="fill:#0000ff;stroke:#0000ff;stroke-width:2.025;" x="327.776357" xlink:href="#C1_0_e4ca2d84ce" y="364.518124"/>
    </g>
   </g>
   <g id="line2d_55">
    <path clip-path="url(#p706fdbf2d5)" d="M 62.134325 300.774886 
L 86.2836 275.667232 
L 110.432876 322.726091 
L 134.582152 294.070023 
L 158.731427 333.89559 
L 182.880703 364.518124 
L 207.029978 300.774886 
L 231.179254 275.667232 
L 255.32853 322.726091 
L 279.477805 294.070023 
L 303.627081 333.89559 
L 327.776357 364.518124 
" style="fill:none;stroke:#0000ff;stroke-linecap:square;stroke-width:2.7;"/>
   </g>
   <g id="line2d_56">
    <path clip-path="url(#p706fdbf2d5)" d="M 62.134325 324.389443 
L 62.134325 277.16033 
" style="fill:none;stroke:#0000ff;stroke-linecap:square;"/>
   </g>
   <g id="line2d_57">
    <path clip-path="url(#p706fdbf2d5)" d="M 59.719397 324.389443 
L 64.549252 324.389443 
" style="fill:none;stroke:#0000ff;stroke-linecap:square;"/>
   </g>
   <g id="line2d_58">
    <path clip-path="url(#p706fdbf2d5)" d="M 59.719397 277.16033 
L 64.549252 277.16033 
" style="fill:none;stroke:#0000ff;stroke-linecap:square;"/>
   </g>
   <g id="line2d_59">
    <path clip-path="url(#p706fdbf2d5)" d="M 86.2836 291.436678 
L 86.2836 259.897785 
" style="fill:none;stroke:#0000ff;stroke-linecap:square;"/>
   </g>
   <g id="line2d_60">
    <path clip-path="url(#p706fdbf2d5)" d="M 83.868673 291.436678 
L 88.698528 291.436678 
" style="fill:none;stroke:#0000ff;stroke-linecap:square;"/>
   </g>
   <g id="line2d_61">
    <path clip-path="url(#p706fdbf2d5)" d="M 83.868673 259.897785 
L 88.698528 259.897785 
" style="fill:none;stroke:#0000ff;stroke-linecap:square;"/>
   </g>
   <g id="line2d_62">
    <path clip-path="url(#p706fdbf2d5)" d="M 110.432876 350.076201 
L 110.432876 295.375981 
" style="fill:none;stroke:#0000ff;stroke-linecap:square;"/>
   </g>
   <g id="line2d_63">
    <path clip-path="url(#p706fdbf2d5)" d="M 108.017948 350.076201 
L 112.847803 350.076201 
" style="fill:none;stroke:#0000ff;stroke-linecap:square;"/>
   </g>
   <g id="line2d_64">
    <path clip-path="url(#p706fdbf2d5)" d="M 108.017948 295.375981 
L 112.847803 295.375981 
" style="fill:none;stroke:#0000ff;stroke-linecap:square;"/>
   </g>
   <g id="line2d_65">
    <path clip-path="url(#p706fdbf2d5)" d="M 134.582152 324.60039 
L 134.582152 263.539655 
" style="fill:none;stroke:#0000ff;stroke-linecap:square;"/>
   </g>
   <g id="line2d_66">
    <path clip-path="url(#p706fdbf2d5)" d="M 132.167224 324.60039 
L 136.997079 324.60039 
" style="fill:none;stroke:#0000ff;stroke-linecap:square;"/>
   </g>
   <g id="line2d_67">
    <path clip-path="url(#p706fdbf2d5)" d="M 132.167224 263.539655 
L 136.997079 263.539655 
" style="fill:none;stroke:#0000ff;stroke-linecap:square;"/>
   </g>
   <g id="line2d_68">
    <path clip-path="url(#p706fdbf2d5)" d="M 158.731427 381.889602 
L 158.731427 285.901579 
" style="fill:none;stroke:#0000ff;stroke-linecap:square;"/>
   </g>
   <g id="line2d_69">
    <path clip-path="url(#p706fdbf2d5)" d="M 156.3165 381.889602 
L 161.146355 381.889602 
" style="fill:none;stroke:#0000ff;stroke-linecap:square;"/>
   </g>
   <g id="line2d_70">
    <path clip-path="url(#p706fdbf2d5)" d="M 156.3165 285.901579 
L 161.146355 285.901579 
" style="fill:none;stroke:#0000ff;stroke-linecap:square;"/>
   </g>
   <g id="line2d_71">
    <path clip-path="url(#p706fdbf2d5)" d="M 182.880703 385.853011 
L 182.880703 343.183236 
" style="fill:none;stroke:#0000ff;stroke-linecap:square;"/>
   </g>
   <g id="line2d_72">
    <path clip-path="url(#p706fdbf2d5)" d="M 180.465775 385.853011 
L 185.29563 385.853011 
" style="fill:none;stroke:#0000ff;stroke-linecap:square;"/>
   </g>
   <g id="line2d_73">
    <path clip-path="url(#p706fdbf2d5)" d="M 180.465775 343.183236 
L 185.29563 343.183236 
" style="fill:none;stroke:#0000ff;stroke-linecap:square;"/>
   </g>
   <g id="line2d_74">
    <path clip-path="url(#p706fdbf2d5)" d="M 207.029978 324.389443 
L 207.029978 277.16033 
" style="fill:none;stroke:#0000ff;stroke-linecap:square;"/>
   </g>
   <g id="line2d_75">
    <path clip-path="url(#p706fdbf2d5)" d="M 204.615051 324.389443 
L 209.444906 324.389443 
" style="fill:none;stroke:#0000ff;stroke-linecap:square;"/>
   </g>
   <g id="line2d_76">
    <path clip-path="url(#p706fdbf2d5)" d="M 204.615051 277.16033 
L 209.444906 277.16033 
" style="fill:none;stroke:#0000ff;stroke-linecap:square;"/>
   </g>
   <g id="line2d_77">
    <path clip-path="url(#p706fdbf2d5)" d="M 231.179254 291.436678 
L 231.179254 260.649572 
" style="fill:none;stroke:#0000ff;stroke-linecap:square;"/>
   </g>
   <g id="line2d_78">
    <path clip-path="url(#p706fdbf2d5)" d="M 228.764326 291.436678 
L 233.594182 291.436678 
" style="fill:none;stroke:#0000ff;stroke-linecap:square;"/>
   </g>
   <g id="line2d_79">
    <path clip-path="url(#p706fdbf2d5)" d="M 228.764326 260.649572 
L 233.594182 260.649572 
" style="fill:none;stroke:#0000ff;stroke-linecap:square;"/>
   </g>
   <g id="line2d_80">
    <path clip-path="url(#p706fdbf2d5)" d="M 255.32853 350.076201 
L 255.32853 295.375981 
" style="fill:none;stroke:#0000ff;stroke-linecap:square;"/>
   </g>
   <g id="line2d_81">
    <path clip-path="url(#p706fdbf2d5)" d="M 252.913602 350.076201 
L 257.743457 350.076201 
" style="fill:none;stroke:#0000ff;stroke-linecap:square;"/>
   </g>
   <g id="line2d_82">
    <path clip-path="url(#p706fdbf2d5)" d="M 252.913602 295.375981 
L 257.743457 295.375981 
" style="fill:none;stroke:#0000ff;stroke-linecap:square;"/>
   </g>
   <g id="line2d_83">
    <path clip-path="url(#p706fdbf2d5)" d="M 279.477805 324.60039 
L 279.477805 251.101854 
" style="fill:none;stroke:#0000ff;stroke-linecap:square;"/>
   </g>
   <g id="line2d_84">
    <path clip-path="url(#p706fdbf2d5)" d="M 277.062878 324.60039 
L 281.892733 324.60039 
" style="fill:none;stroke:#0000ff;stroke-linecap:square;"/>
   </g>
   <g id="line2d_85">
    <path clip-path="url(#p706fdbf2d5)" d="M 277.062878 251.101854 
L 281.892733 251.101854 
" style="fill:none;stroke:#0000ff;stroke-linecap:square;"/>
   </g>
   <g id="line2d_86">
    <path clip-path="url(#p706fdbf2d5)" d="M 303.627081 381.889602 
L 303.627081 285.901579 
" style="fill:none;stroke:#0000ff;stroke-linecap:square;"/>
   </g>
   <g id="line2d_87">
    <path clip-path="url(#p706fdbf2d5)" d="M 301.212153 381.889602 
L 306.042009 381.889602 
" style="fill:none;stroke:#0000ff;stroke-linecap:square;"/>
   </g>
   <g id="line2d_88">
    <path clip-path="url(#p706fdbf2d5)" d="M 301.212153 285.901579 
L 306.042009 285.901579 
" style="fill:none;stroke:#0000ff;stroke-linecap:square;"/>
   </g>
   <g id="line2d_89">
    <path clip-path="url(#p706fdbf2d5)" d="M 327.776357 385.853011 
L 327.776357 343.183236 
" style="fill:none;stroke:#0000ff;stroke-linecap:square;"/>
   </g>
   <g id="line2d_90">
    <path clip-path="url(#p706fdbf2d5)" d="M 325.361429 385.853011 
L 330.191284 385.853011 
" style="fill:none;stroke:#0000ff;stroke-linecap:square;"/>
   </g>
   <g id="line2d_91">
    <path clip-path="url(#p706fdbf2d5)" d="M 325.361429 343.183236 
L 330.191284 343.183236 
" style="fill:none;stroke:#0000ff;stroke-linecap:square;"/>
   </g>
   <g id="line2d_92">
    <path clip-path="url(#p706fdbf2d5)" d="M 194.955341 403.189375 
L 194.955341 21.789375 
" style="fill:none;stroke:#000000;stroke-dasharray:5.55,2.4;stroke-dashoffset:0;stroke-width:1.5;"/>
   </g>
   <g id="patch_5">
    <path d="M 44.903438 403.189375 
L 44.903438 21.789375 
" style="fill:none;stroke:#000000;stroke-linecap:square;stroke-linejoin:miter;stroke-width:0.8;"/>
   </g>
   <g id="patch_6">
    <path d="M 44.903438 403.189375 
L 353.896116 403.189375 
" style="fill:none;stroke:#000000;stroke-linecap:square;stroke-linejoin:miter;stroke-width:0.8;"/>
   </g>
   <g id="text_20">
    <text style="font-family:Arial;font-size:12px;font-style:normal;font-weight:normal;text-anchor:middle;" transform="rotate(-0, 199.399777, 15.789375)" x="199.399777" y="15.789375">Palmitoylcarnitine</text>
   </g>
  </g>
  <g id="legend_1">
   <g id="text_21">
    <text style="font-family:Arial;font-size:10px;font-style:normal;font-weight:normal;text-anchor:start;" transform="rotate(-0, 359.660304, 210.050313)" x="359.660304" y="210.050313">exposure_type</text>
   </g>
   <g id="PathCollection_3">
    <path d="M 379.847022 225.071761 
C 380.744456 225.071761 381.605254 224.715207 382.239835 224.080625 
C 382.874416 223.446044 383.230971 222.585246 383.230971 221.687813 
C 383.230971 220.790379 382.874416 219.929581 382.239835 219.295 
C 381.605254 218.660418 380.744456 218.303864 379.847022 218.303864 
C 378.949589 218.303864 378.088791 218.660418 377.45421 219.295 
C 376.819628 219.929581 376.463074 220.790379 376.463074 221.687813 
C 376.463074 222.585246 376.819628 223.446044 377.45421 224.080625 
C 378.088791 224.715207 378.949589 225.071761 379.847022 225.071761 
z
" style="fill:#ff0000;stroke:#ff0000;stroke-width:2.025;"/>
   </g>
   <g id="text_22">
    <text style="font-family:Arial;font-size:10px;font-style:normal;font-weight:normal;text-anchor:start;" transform="rotate(-0, 397.847022, 224.312813)" x="397.847022" y="224.312813">Air</text>
   </g>
   <g id="PathCollection_4">
    <path d="M 379.847022 239.217073 
C 380.744456 239.217073 381.605254 238.860519 382.239835 238.225938 
C 382.874416 237.591356 383.230971 236.730559 383.230971 235.833125 
C 383.230971 234.935691 382.874416 234.074894 382.239835 233.440312 
C 381.605254 232.805731 380.744456 232.449177 379.847022 232.449177 
C 378.949589 232.449177 378.088791 232.805731 377.45421 233.440312 
C 376.819628 234.074894 376.463074 234.935691 376.463074 235.833125 
C 376.463074 236.730559 376.819628 237.591356 377.45421 238.225938 
C 378.088791 238.860519 378.949589 239.217073 379.847022 239.217073 
z
" style="fill:#0000ff;stroke:#0000ff;stroke-width:2.025;"/>
   </g>
   <g id="text_23">
    <text style="font-family:Arial;font-size:10px;font-style:normal;font-weight:normal;text-anchor:start;" transform="rotate(-0, 397.847022, 238.458125)" x="397.847022" y="238.458125">IHC</text>
   </g>
  </g>
 </g>
 <defs>
  <clipPath id="p706fdbf2d5">
   <rect height="381.4" width="308.992679" x="44.903438" y="21.789375"/>
  </clipPath>
 </defs>
</svg>
