<?xml version="1.0" encoding="utf-8" standalone="no"?>
<!DOCTYPE svg PUBLIC "-//W3C//DTD SVG 1.1//EN"
  "http://www.w3.org/Graphics/SVG/1.1/DTD/svg11.dtd">
<!-- Created with matplotlib (https://matplotlib.org/) -->
<svg height="287.555pt" version="1.1" viewBox="0 0 456.865313 287.555" width="456.865313pt" xmlns="http://www.w3.org/2000/svg" xmlns:xlink="http://www.w3.org/1999/xlink">
 <defs>
  <style type="text/css">
*{stroke-linecap:butt;stroke-linejoin:round;}
  </style>
 </defs>
 <g id="figure_1">
  <g id="patch_1">
   <path d="M 0 287.555 
L 456.865313 287.555 
L 456.865313 0 
L 0 0 
z
" style="fill:#ffffff;"/>
  </g>
  <g id="axes_1">
   <g id="patch_2">
    <path d="M 44.903438 244.955625 
L 379.703438 244.955625 
L 379.703438 27.515625 
L 44.903438 27.515625 
z
" style="fill:#ffffff;"/>
   </g>
   <g id="patch_3">
    <path clip-path="url(#p8613101a05)" d="M 62.313038 203.376385 
L 127.933838 203.376385 
L 127.933838 173.090505 
L 62.313038 173.090505 
L 62.313038 203.376385 
z
" style="fill:#df2020;stroke:#4c4c4c;stroke-linejoin:miter;stroke-width:1.5;"/>
   </g>
   <g id="patch_4">
    <path clip-path="url(#p8613101a05)" d="M 129.273038 160.341872 
L 194.893838 160.341872 
L 194.893838 106.883023 
L 129.273038 106.883023 
L 129.273038 160.341872 
z
" style="fill:#2020df;stroke:#4c4c4c;stroke-linejoin:miter;stroke-width:1.5;"/>
   </g>
   <g id="patch_5">
    <path clip-path="url(#p8613101a05)" d="M 229.713038 211.44842 
L 295.333838 211.44842 
L 295.333838 190.207698 
L 229.713038 190.207698 
L 229.713038 211.44842 
z
" style="fill:#df2020;stroke:#4c4c4c;stroke-linejoin:miter;stroke-width:1.5;"/>
   </g>
   <g id="patch_6">
    <path clip-path="url(#p8613101a05)" d="M 296.673038 208.550048 
L 362.293837 208.550048 
L 362.293837 175.267784 
L 296.673038 175.267784 
L 296.673038 208.550048 
z
" style="fill:#2020df;stroke:#4c4c4c;stroke-linejoin:miter;stroke-width:1.5;"/>
   </g>
   <g id="PathCollection_1"/>
   <g id="PathCollection_2"/>
   <g id="patch_7">
    <path clip-path="url(#p8613101a05)" d="M 128.603438 259.642594 
L 128.603438 259.642594 
L 128.603438 259.642594 
L 128.603438 259.642594 
z
" style="fill:#df2020;stroke:#4c4c4c;stroke-linejoin:miter;stroke-width:0.75;"/>
   </g>
   <g id="patch_8">
    <path clip-path="url(#p8613101a05)" d="M 128.603438 259.642594 
L 128.603438 259.642594 
L 128.603438 259.642594 
L 128.603438 259.642594 
z
" style="fill:#2020df;stroke:#4c4c4c;stroke-linejoin:miter;stroke-width:0.75;"/>
   </g>
   <g id="matplotlib.axis_1">
    <g id="xtick_1">
     <g id="line2d_1">
      <defs>
       <path d="M 0 0 
L 0 3.5 
" id="md1218b5b74" style="stroke:#000000;stroke-width:0.8;"/>
      </defs>
      <g>
       <use style="stroke:#000000;stroke-width:0.8;" x="128.603438" xlink:href="#md1218b5b74" y="244.955625"/>
      </g>
     </g>
     <g id="text_1">
      <text style="font-family:Arial;font-size:12px;font-style:normal;font-weight:normal;text-anchor:middle;" transform="rotate(-0, 128.603438, 260.69125)" x="128.603438" y="260.69125">Light/Inactive</text>
     </g>
    </g>
    <g id="xtick_2">
     <g id="line2d_2">
      <g>
       <use style="stroke:#000000;stroke-width:0.8;" x="296.003438" xlink:href="#md1218b5b74" y="244.955625"/>
      </g>
     </g>
     <g id="text_2">
      <text style="font-family:Arial;font-size:12px;font-style:normal;font-weight:normal;text-anchor:middle;" transform="rotate(-0, 296.003438, 260.69125)" x="296.003438" y="260.69125">Night/Active</text>
     </g>
    </g>
    <g id="text_3">
     <text style="font-family:Arial;font-size:14px;font-style:normal;font-weight:normal;text-anchor:middle;" transform="rotate(-0, 212.303438, 277.408437)" x="212.303438" y="277.408437">Phase of Cycle</text>
    </g>
   </g>
   <g id="matplotlib.axis_2">
    <g id="ytick_1">
     <g id="line2d_3">
      <defs>
       <path d="M 0 0 
L -3.5 0 
" id="m2d162b141f" style="stroke:#000000;stroke-width:0.8;"/>
      </defs>
      <g>
       <use style="stroke:#000000;stroke-width:0.8;" x="44.903438" xlink:href="#m2d162b141f" y="226.038289"/>
      </g>
     </g>
     <g id="text_4">
      <text style="font-family:Arial;font-size:10px;font-style:normal;font-weight:normal;text-anchor:end;" transform="rotate(-0, 37.903438, 229.617195)" x="37.903438" y="229.617195">0.1</text>
     </g>
    </g>
    <g id="ytick_2">
     <g id="line2d_4">
      <g>
       <use style="stroke:#000000;stroke-width:0.8;" x="44.903438" xlink:href="#m2d162b141f" y="192.433984"/>
      </g>
     </g>
     <g id="text_5">
      <text style="font-family:Arial;font-size:10px;font-style:normal;font-weight:normal;text-anchor:end;" transform="rotate(-0, 37.903438, 196.01289)" x="37.903438" y="196.01289">0.2</text>
     </g>
    </g>
    <g id="ytick_3">
     <g id="line2d_5">
      <g>
       <use style="stroke:#000000;stroke-width:0.8;" x="44.903438" xlink:href="#m2d162b141f" y="158.829678"/>
      </g>
     </g>
     <g id="text_6">
      <text style="font-family:Arial;font-size:10px;font-style:normal;font-weight:normal;text-anchor:end;" transform="rotate(-0, 37.903438, 162.408584)" x="37.903438" y="162.408584">0.3</text>
     </g>
    </g>
    <g id="ytick_4">
     <g id="line2d_6">
      <g>
       <use style="stroke:#000000;stroke-width:0.8;" x="44.903438" xlink:href="#m2d162b141f" y="125.225373"/>
      </g>
     </g>
     <g id="text_7">
      <text style="font-family:Arial;font-size:10px;font-style:normal;font-weight:normal;text-anchor:end;" transform="rotate(-0, 37.903438, 128.804279)" x="37.903438" y="128.804279">0.4</text>
     </g>
    </g>
    <g id="ytick_5">
     <g id="line2d_7">
      <g>
       <use style="stroke:#000000;stroke-width:0.8;" x="44.903438" xlink:href="#m2d162b141f" y="91.621067"/>
      </g>
     </g>
     <g id="text_8">
      <text style="font-family:Arial;font-size:10px;font-style:normal;font-weight:normal;text-anchor:end;" transform="rotate(-0, 37.903438, 95.199974)" x="37.903438" y="95.199974">0.5</text>
     </g>
    </g>
    <g id="ytick_6">
     <g id="line2d_8">
      <g>
       <use style="stroke:#000000;stroke-width:0.8;" x="44.903438" xlink:href="#m2d162b141f" y="58.016762"/>
      </g>
     </g>
     <g id="text_9">
      <text style="font-family:Arial;font-size:10px;font-style:normal;font-weight:normal;text-anchor:end;" transform="rotate(-0, 37.903438, 61.595668)" x="37.903438" y="61.595668">0.6</text>
     </g>
    </g>
    <g id="text_10">
     <text style="font-family:Arial;font-size:14px;font-style:normal;font-weight:normal;text-anchor:middle;" transform="rotate(-90, 17.220938, 136.235625)" x="17.220938" y="136.235625">Relative Abundance</text>
    </g>
   </g>
   <g id="line2d_9">
    <path clip-path="url(#p8613101a05)" d="M 95.123438 203.376385 
L 95.123438 223.545969 
" style="fill:none;stroke:#4c4c4c;stroke-linecap:square;stroke-width:1.5;"/>
   </g>
   <g id="line2d_10">
    <path clip-path="url(#p8613101a05)" d="M 95.123438 173.090505 
L 95.123438 144.127795 
" style="fill:none;stroke:#4c4c4c;stroke-linecap:square;stroke-width:1.5;"/>
   </g>
   <g id="line2d_11">
    <path clip-path="url(#p8613101a05)" d="M 78.718238 223.545969 
L 111.528638 223.545969 
" style="fill:none;stroke:#4c4c4c;stroke-linecap:square;stroke-width:1.5;"/>
   </g>
   <g id="line2d_12">
    <path clip-path="url(#p8613101a05)" d="M 78.718238 144.127795 
L 111.528638 144.127795 
" style="fill:none;stroke:#4c4c4c;stroke-linecap:square;stroke-width:1.5;"/>
   </g>
   <g id="line2d_13"/>
   <g id="line2d_14">
    <path clip-path="url(#p8613101a05)" d="M 162.083438 160.341872 
L 162.083438 215.985001 
" style="fill:none;stroke:#4c4c4c;stroke-linecap:square;stroke-width:1.5;"/>
   </g>
   <g id="line2d_15">
    <path clip-path="url(#p8613101a05)" d="M 162.083438 106.883023 
L 162.083438 95.849609 
" style="fill:none;stroke:#4c4c4c;stroke-linecap:square;stroke-width:1.5;"/>
   </g>
   <g id="line2d_16">
    <path clip-path="url(#p8613101a05)" d="M 145.678238 215.985001 
L 178.488638 215.985001 
" style="fill:none;stroke:#4c4c4c;stroke-linecap:square;stroke-width:1.5;"/>
   </g>
   <g id="line2d_17">
    <path clip-path="url(#p8613101a05)" d="M 145.678238 95.849609 
L 178.488638 95.849609 
" style="fill:none;stroke:#4c4c4c;stroke-linecap:square;stroke-width:1.5;"/>
   </g>
   <g id="line2d_18"/>
   <g id="line2d_19">
    <path clip-path="url(#p8613101a05)" d="M 262.523438 211.44842 
L 262.523438 234.103322 
" style="fill:none;stroke:#4c4c4c;stroke-linecap:square;stroke-width:1.5;"/>
   </g>
   <g id="line2d_20">
    <path clip-path="url(#p8613101a05)" d="M 262.523438 190.207698 
L 262.523438 183.136792 
" style="fill:none;stroke:#4c4c4c;stroke-linecap:square;stroke-width:1.5;"/>
   </g>
   <g id="line2d_21">
    <path clip-path="url(#p8613101a05)" d="M 246.118238 234.103322 
L 278.928638 234.103322 
" style="fill:none;stroke:#4c4c4c;stroke-linecap:square;stroke-width:1.5;"/>
   </g>
   <g id="line2d_22">
    <path clip-path="url(#p8613101a05)" d="M 246.118238 183.136792 
L 278.928638 183.136792 
" style="fill:none;stroke:#4c4c4c;stroke-linecap:square;stroke-width:1.5;"/>
   </g>
   <g id="line2d_23"/>
   <g id="line2d_24">
    <path clip-path="url(#p8613101a05)" d="M 329.483438 208.550048 
L 329.483438 224.358074 
" style="fill:none;stroke:#4c4c4c;stroke-linecap:square;stroke-width:1.5;"/>
   </g>
   <g id="line2d_25">
    <path clip-path="url(#p8613101a05)" d="M 329.483438 175.267784 
L 329.483438 150.56862 
" style="fill:none;stroke:#4c4c4c;stroke-linecap:square;stroke-width:1.5;"/>
   </g>
   <g id="line2d_26">
    <path clip-path="url(#p8613101a05)" d="M 313.078238 224.358074 
L 345.888638 224.358074 
" style="fill:none;stroke:#4c4c4c;stroke-linecap:square;stroke-width:1.5;"/>
   </g>
   <g id="line2d_27">
    <path clip-path="url(#p8613101a05)" d="M 313.078238 150.56862 
L 345.888638 150.56862 
" style="fill:none;stroke:#4c4c4c;stroke-linecap:square;stroke-width:1.5;"/>
   </g>
   <g id="line2d_28"/>
   <g id="line2d_29">
    <path clip-path="url(#p8613101a05)" d="M 262.523438 140.976428 
L 262.523438 137.779031 
L 329.483438 137.779031 
L 329.483438 140.976428 
" style="fill:none;stroke:#333333;stroke-linecap:square;stroke-width:1.5;"/>
   </g>
   <g id="line2d_30">
    <path clip-path="url(#p8613101a05)" d="M 95.123438 86.257417 
L 95.123438 83.06002 
L 162.083438 83.06002 
L 162.083438 86.257417 
" style="fill:none;stroke:#333333;stroke-linecap:square;stroke-width:1.5;"/>
   </g>
   <g id="line2d_31">
    <path clip-path="url(#p8613101a05)" d="M 95.123438 67.244062 
L 95.123438 64.046665 
L 262.523438 64.046665 
L 262.523438 67.244062 
" style="fill:none;stroke:#333333;stroke-linecap:square;stroke-width:1.5;"/>
   </g>
   <g id="line2d_32">
    <path clip-path="url(#p8613101a05)" d="M 162.083438 47.268847 
L 162.083438 44.071449 
L 329.483438 44.071449 
L 329.483438 47.268847 
" style="fill:none;stroke:#333333;stroke-linecap:square;stroke-width:1.5;"/>
   </g>
   <g id="line2d_33">
    <path clip-path="url(#p8613101a05)" d="M 62.313038 193.806159 
L 127.933838 193.806159 
" style="fill:none;stroke:#4c4c4c;stroke-linecap:square;stroke-width:1.5;"/>
   </g>
   <g id="line2d_34">
    <path clip-path="url(#p8613101a05)" d="M 129.273038 134.410549 
L 194.893838 134.410549 
" style="fill:none;stroke:#4c4c4c;stroke-linecap:square;stroke-width:1.5;"/>
   </g>
   <g id="line2d_35">
    <path clip-path="url(#p8613101a05)" d="M 229.713038 194.170206 
L 295.333838 194.170206 
" style="fill:none;stroke:#4c4c4c;stroke-linecap:square;stroke-width:1.5;"/>
   </g>
   <g id="line2d_36">
    <path clip-path="url(#p8613101a05)" d="M 296.673038 182.464706 
L 362.293837 182.464706 
" style="fill:none;stroke:#4c4c4c;stroke-linecap:square;stroke-width:1.5;"/>
   </g>
   <g id="patch_9">
    <path d="M 44.903438 244.955625 
L 44.903438 27.515625 
" style="fill:none;stroke:#000000;stroke-linecap:square;stroke-linejoin:miter;stroke-width:0.8;"/>
   </g>
   <g id="patch_10">
    <path d="M 379.703438 244.955625 
L 379.703438 27.515625 
" style="fill:none;stroke:#000000;stroke-linecap:square;stroke-linejoin:miter;stroke-width:0.8;"/>
   </g>
   <g id="patch_11">
    <path d="M 44.903438 244.955625 
L 379.703438 244.955625 
" style="fill:none;stroke:#000000;stroke-linecap:square;stroke-linejoin:miter;stroke-width:0.8;"/>
   </g>
   <g id="patch_12">
    <path d="M 44.903438 27.515625 
L 379.703438 27.515625 
" style="fill:none;stroke:#000000;stroke-linecap:square;stroke-linejoin:miter;stroke-width:0.8;"/>
   </g>
   <g id="PathCollection_3">
    <defs>
     <path d="M 0 5 
C 1.326016 5 2.597899 4.473168 3.535534 3.535534 
C 4.473168 2.597899 5 1.326016 5 0 
C 5 -1.326016 4.473168 -2.597899 3.535534 -3.535534 
C 2.597899 -4.473168 1.326016 -5 0 -5 
C -1.326016 -5 -2.597899 -4.473168 -3.535534 -3.535534 
C -4.473168 -2.597899 -5 -1.326016 -5 0 
C -5 1.326016 -4.473168 2.597899 -3.535534 3.535534 
C -2.597899 4.473168 -1.326016 5 0 5 
z
" id="C0_0_baf4b5febd"/>
    </defs>
    <g clip-path="url(#p8613101a05)">
     <use style="fill:#ff0000;stroke:#000000;" x="95.123437" xlink:href="#C0_0_baf4b5febd" y="223.545969"/>
    </g>
    <g clip-path="url(#p8613101a05)">
     <use style="fill:#ff0000;stroke:#000000;" x="84.891916" xlink:href="#C0_0_baf4b5febd" y="219.793489"/>
    </g>
    <g clip-path="url(#p8613101a05)">
     <use style="fill:#ff0000;stroke:#000000;" x="95.123437" xlink:href="#C0_0_baf4b5febd" y="211.672448"/>
    </g>
    <g clip-path="url(#p8613101a05)">
     <use style="fill:#ff0000;stroke:#000000;" x="95.123437" xlink:href="#C0_0_baf4b5febd" y="200.611031"/>
    </g>
    <g clip-path="url(#p8613101a05)">
     <use style="fill:#ff0000;stroke:#000000;" x="83.616792" xlink:href="#C0_0_baf4b5febd" y="199.910941"/>
    </g>
    <g clip-path="url(#p8613101a05)">
     <use style="fill:#ff0000;stroke:#000000;" x="106.16187" xlink:href="#C0_0_baf4b5febd" y="198.230726"/>
    </g>
    <g clip-path="url(#p8613101a05)">
     <use style="fill:#ff0000;stroke:#000000;" x="95.123437" xlink:href="#C0_0_baf4b5febd" y="189.381593"/>
    </g>
    <g clip-path="url(#p8613101a05)">
     <use style="fill:#ff0000;stroke:#000000;" x="95.123437" xlink:href="#C0_0_baf4b5febd" y="174.203648"/>
    </g>
    <g clip-path="url(#p8613101a05)">
     <use style="fill:#ff0000;stroke:#000000;" x="83.610122" xlink:href="#C0_0_baf4b5febd" y="173.559565"/>
    </g>
    <g clip-path="url(#p8613101a05)">
     <use style="fill:#ff0000;stroke:#000000;" x="106.098296" xlink:href="#C0_0_baf4b5febd" y="171.683325"/>
    </g>
    <g clip-path="url(#p8613101a05)">
     <use style="fill:#ff0000;stroke:#000000;" x="95.123437" xlink:href="#C0_0_baf4b5febd" y="154.209086"/>
    </g>
    <g clip-path="url(#p8613101a05)">
     <use style="fill:#ff0000;stroke:#000000;" x="95.123437" xlink:href="#C0_0_baf4b5febd" y="144.127795"/>
    </g>
   </g>
   <g id="PathCollection_4">
    <defs>
     <path d="M 0 5 
C 1.326016 5 2.597899 4.473168 3.535534 3.535534 
C 4.473168 2.597899 5 1.326016 5 0 
C 5 -1.326016 4.473168 -2.597899 3.535534 -3.535534 
C 2.597899 -4.473168 1.326016 -5 0 -5 
C -1.326016 -5 -2.597899 -4.473168 -3.535534 -3.535534 
C -4.473168 -2.597899 -5 -1.326016 -5 0 
C -5 1.326016 -4.473168 2.597899 -3.535534 3.535534 
C -2.597899 4.473168 -1.326016 5 0 5 
z
" id="C1_0_4822850a77"/>
    </defs>
    <g clip-path="url(#p8613101a05)">
     <use style="fill:#0000ff;stroke:#000000;" x="162.083438" xlink:href="#C1_0_4822850a77" y="215.985001"/>
    </g>
    <g clip-path="url(#p8613101a05)">
     <use style="fill:#0000ff;stroke:#000000;" x="162.083438" xlink:href="#C1_0_4822850a77" y="191.397851"/>
    </g>
    <g clip-path="url(#p8613101a05)">
     <use style="fill:#0000ff;stroke:#000000;" x="162.083438" xlink:href="#C1_0_4822850a77" y="167.678812"/>
    </g>
    <g clip-path="url(#p8613101a05)">
     <use style="fill:#0000ff;stroke:#000000;" x="162.083438" xlink:href="#C1_0_4822850a77" y="153.004932"/>
    </g>
    <g clip-path="url(#p8613101a05)">
     <use style="fill:#0000ff;stroke:#000000;" x="154.647902" xlink:href="#C1_0_4822850a77" y="146.816139"/>
    </g>
    <g clip-path="url(#p8613101a05)">
     <use style="fill:#0000ff;stroke:#000000;" x="162.083438" xlink:href="#C1_0_4822850a77" y="134.410549"/>
    </g>
    <g clip-path="url(#p8613101a05)">
     <use style="fill:#0000ff;stroke:#000000;" x="151.633295" xlink:href="#C1_0_4822850a77" y="130.966108"/>
    </g>
    <g clip-path="url(#p8613101a05)">
     <use style="fill:#0000ff;stroke:#000000;" x="162.083438" xlink:href="#C1_0_4822850a77" y="109.991421"/>
    </g>
    <g clip-path="url(#p8613101a05)">
     <use style="fill:#0000ff;stroke:#000000;" x="154.6957" xlink:href="#C1_0_4822850a77" y="103.774625"/>
    </g>
    <g clip-path="url(#p8613101a05)">
     <use style="fill:#0000ff;stroke:#000000;" x="165.470838" xlink:href="#C1_0_4822850a77" y="100.862251"/>
    </g>
    <g clip-path="url(#p8613101a05)">
     <use style="fill:#0000ff;stroke:#000000;" x="152.391409" xlink:href="#C1_0_4822850a77" y="95.849609"/>
    </g>
   </g>
   <g id="PathCollection_5">
    <defs>
     <path d="M 0 5 
C 1.326016 5 2.597899 4.473168 3.535534 3.535534 
C 4.473168 2.597899 5 1.326016 5 0 
C 5 -1.326016 4.473168 -2.597899 3.535534 -3.535534 
C 2.597899 -4.473168 1.326016 -5 0 -5 
C -1.326016 -5 -2.597899 -4.473168 -3.535534 -3.535534 
C -4.473168 -2.597899 -5 -1.326016 -5 0 
C -5 1.326016 -4.473168 2.597899 -3.535534 3.535534 
C -2.597899 4.473168 -1.326016 5 0 5 
z
" id="C2_0_0edbe3f206"/>
    </defs>
    <g clip-path="url(#p8613101a05)">
     <use style="fill:#ff0000;stroke:#000000;" x="262.523438" xlink:href="#C2_0_0edbe3f206" y="234.103322"/>
    </g>
    <g clip-path="url(#p8613101a05)">
     <use style="fill:#ff0000;stroke:#000000;" x="262.523438" xlink:href="#C2_0_0edbe3f206" y="221.36169"/>
    </g>
    <g clip-path="url(#p8613101a05)">
     <use style="fill:#ff0000;stroke:#000000;" x="254.268657" xlink:href="#C2_0_0edbe3f206" y="215.704965"/>
    </g>
    <g clip-path="url(#p8613101a05)">
     <use style="fill:#ff0000;stroke:#000000;" x="262.523438" xlink:href="#C2_0_0edbe3f206" y="207.191874"/>
    </g>
    <g clip-path="url(#p8613101a05)">
     <use style="fill:#ff0000;stroke:#000000;" x="254.428302" xlink:href="#C2_0_0edbe3f206" y="201.423135"/>
    </g>
    <g clip-path="url(#p8613101a05)">
     <use style="fill:#ff0000;stroke:#000000;" x="262.523438" xlink:href="#C2_0_0edbe3f206" y="194.170206"/>
    </g>
    <g clip-path="url(#p8613101a05)">
     <use style="fill:#ff0000;stroke:#000000;" x="274.019027" xlink:href="#C2_0_0edbe3f206" y="193.386105"/>
    </g>
    <g clip-path="url(#p8613101a05)">
     <use style="fill:#ff0000;stroke:#000000;" x="251.084754" xlink:href="#C2_0_0edbe3f206" y="193.050062"/>
    </g>
    <g clip-path="url(#p8613101a05)">
     <use style="fill:#ff0000;stroke:#000000;" x="281.730783" xlink:href="#C2_0_0edbe3f206" y="187.365334"/>
    </g>
    <g clip-path="url(#p8613101a05)">
     <use style="fill:#ff0000;stroke:#000000;" x="262.523438" xlink:href="#C2_0_0edbe3f206" y="184.817008"/>
    </g>
    <g clip-path="url(#p8613101a05)">
     <use style="fill:#ff0000;stroke:#000000;" x="251.225441" xlink:href="#C2_0_0edbe3f206" y="183.136792"/>
    </g>
   </g>
   <g id="PathCollection_6">
    <defs>
     <path d="M 0 5 
C 1.326016 5 2.597899 4.473168 3.535534 3.535534 
C 4.473168 2.597899 5 1.326016 5 0 
C 5 -1.326016 4.473168 -2.597899 3.535534 -3.535534 
C 2.597899 -4.473168 1.326016 -5 0 -5 
C -1.326016 -5 -2.597899 -4.473168 -3.535534 -3.535534 
C -4.473168 -2.597899 -5 -1.326016 -5 0 
C -5 1.326016 -4.473168 2.597899 -3.535534 3.535534 
C -2.597899 4.473168 -1.326016 5 0 5 
z
" id="C3_0_7367b9aeed"/>
    </defs>
    <g clip-path="url(#p8613101a05)">
     <use style="fill:#0000ff;stroke:#000000;" x="329.483438" xlink:href="#C3_0_7367b9aeed" y="224.358074"/>
    </g>
    <g clip-path="url(#p8613101a05)">
     <use style="fill:#0000ff;stroke:#000000;" x="318.202725" xlink:href="#C3_0_7367b9aeed" y="222.621851"/>
    </g>
    <g clip-path="url(#p8613101a05)">
     <use style="fill:#0000ff;stroke:#000000;" x="334.752693" xlink:href="#C3_0_7367b9aeed" y="217.161151"/>
    </g>
    <g clip-path="url(#p8613101a05)">
     <use style="fill:#0000ff;stroke:#000000;" x="329.483438" xlink:href="#C3_0_7367b9aeed" y="205.679681"/>
    </g>
    <g clip-path="url(#p8613101a05)">
     <use style="fill:#0000ff;stroke:#000000;" x="329.483438" xlink:href="#C3_0_7367b9aeed" y="190.081682"/>
    </g>
    <g clip-path="url(#p8613101a05)">
     <use style="fill:#0000ff;stroke:#000000;" x="321.000471" xlink:href="#C3_0_7367b9aeed" y="184.592979"/>
    </g>
    <g clip-path="url(#p8613101a05)">
     <use style="fill:#0000ff;stroke:#000000;" x="330.821388" xlink:href="#C3_0_7367b9aeed" y="180.336434"/>
    </g>
    <g clip-path="url(#p8613101a05)">
     <use style="fill:#0000ff;stroke:#000000;" x="342.084223" xlink:href="#C3_0_7367b9aeed" y="178.544204"/>
    </g>
    <g clip-path="url(#p8613101a05)">
     <use style="fill:#0000ff;stroke:#000000;" x="320.927215" xlink:href="#C3_0_7367b9aeed" y="176.163899"/>
    </g>
    <g clip-path="url(#p8613101a05)">
     <use style="fill:#0000ff;stroke:#000000;" x="334.089979" xlink:href="#C3_0_7367b9aeed" y="172.57944"/>
    </g>
    <g clip-path="url(#p8613101a05)">
     <use style="fill:#0000ff;stroke:#000000;" x="329.483438" xlink:href="#C3_0_7367b9aeed" y="153.733025"/>
    </g>
    <g clip-path="url(#p8613101a05)">
     <use style="fill:#0000ff;stroke:#000000;" x="318.854231" xlink:href="#C3_0_7367b9aeed" y="150.56862"/>
    </g>
   </g>
   <g id="text_11">
    <text style="font-family:Arial;font-size:10px;font-style:normal;font-weight:normal;text-anchor:middle;" transform="rotate(-0, 296.003438, 134.791531)" x="296.003438" y="134.791531">ns</text>
   </g>
   <g id="text_12">
    <text style="font-family:Arial;font-size:10px;font-style:normal;font-weight:normal;text-anchor:middle;" transform="rotate(-0, 128.603438, 80.07252)" x="128.603438" y="80.07252">**</text>
   </g>
   <g id="text_13">
    <text style="font-family:Arial;font-size:10px;font-style:normal;font-weight:normal;text-anchor:middle;" transform="rotate(-0, 178.823438, 61.059165)" x="178.823438" y="61.059165">ns</text>
   </g>
   <g id="text_14">
    <text style="font-family:Arial;font-size:10px;font-style:normal;font-weight:normal;text-anchor:middle;" transform="rotate(-0, 245.783437, 41.083949)" x="245.783437" y="41.083949">**</text>
   </g>
   <g id="text_15">
    <text style="font-family:Arial;font-size:20px;font-style:normal;font-weight:normal;text-anchor:middle;" transform="rotate(-0, 212.303438, 21.515625)" x="212.303438" y="21.515625">Bacteroidetes</text>
   </g>
   <g id="legend_1">
    <g id="patch_13">
     <path d="M 398.443438 87.096875 
L 447.665313 87.096875 
Q 449.665313 87.096875 449.665313 85.096875 
L 449.665313 29.515625 
Q 449.665313 27.515625 447.665313 27.515625 
L 398.443438 27.515625 
Q 396.443438 27.515625 396.443438 29.515625 
L 396.443438 85.096875 
Q 396.443438 87.096875 398.443438 87.096875 
z
" style="fill:#ffffff;opacity:0.8;stroke:#cccccc;stroke-linejoin:miter;"/>
    </g>
    <g id="patch_14">
     <path d="M 400.443438 38.673438 
L 420.443438 38.673438 
L 420.443438 31.673438 
L 400.443438 31.673438 
z
" style="fill:#df2020;stroke:#4c4c4c;stroke-linejoin:miter;stroke-width:0.75;"/>
    </g>
    <g id="text_16">
     <text style="font-family:Arial;font-size:10px;font-style:normal;font-weight:normal;text-anchor:start;" transform="rotate(-0, 428.443438, 38.673438)" x="428.443438" y="38.673438">Air</text>
    </g>
    <g id="patch_15">
     <path d="M 400.443438 52.81875 
L 420.443438 52.81875 
L 420.443438 45.81875 
L 400.443438 45.81875 
z
" style="fill:#2020df;stroke:#4c4c4c;stroke-linejoin:miter;stroke-width:0.75;"/>
    </g>
    <g id="text_17">
     <text style="font-family:Arial;font-size:10px;font-style:normal;font-weight:normal;text-anchor:start;" transform="rotate(-0, 428.443438, 52.81875)" x="428.443438" y="52.81875">IHC</text>
    </g>
    <g id="PathCollection_7">
     <defs>
      <path d="M 0 3.872983 
C 1.027127 3.872983 2.012324 3.464901 2.738613 2.738613 
C 3.464901 2.012324 3.872983 1.027127 3.872983 0 
C 3.872983 -1.027127 3.464901 -2.012324 2.738613 -2.738613 
C 2.012324 -3.464901 1.027127 -3.872983 0 -3.872983 
C -1.027127 -3.872983 -2.012324 -3.464901 -2.738613 -2.738613 
C -3.464901 -2.012324 -3.872983 -1.027127 -3.872983 0 
C -3.872983 1.027127 -3.464901 2.012324 -2.738613 2.738613 
C -2.012324 3.464901 -1.027127 3.872983 0 3.872983 
z
" id="m9e2dadf6db" style="stroke:#ff0000;"/>
     </defs>
     <g>
      <use style="fill:#ff0000;stroke:#ff0000;" x="410.443438" xlink:href="#m9e2dadf6db" y="64.339063"/>
     </g>
    </g>
    <g id="text_18">
     <text style="font-family:Arial;font-size:10px;font-style:normal;font-weight:normal;text-anchor:start;" transform="rotate(-0, 428.443438, 66.964063)" x="428.443438" y="66.964063">Air</text>
    </g>
    <g id="PathCollection_8">
     <defs>
      <path d="M 0 3.872983 
C 1.027127 3.872983 2.012324 3.464901 2.738613 2.738613 
C 3.464901 2.012324 3.872983 1.027127 3.872983 0 
C 3.872983 -1.027127 3.464901 -2.012324 2.738613 -2.738613 
C 2.012324 -3.464901 1.027127 -3.872983 0 -3.872983 
C -1.027127 -3.872983 -2.012324 -3.464901 -2.738613 -2.738613 
C -3.464901 -2.012324 -3.872983 -1.027127 -3.872983 0 
C -3.872983 1.027127 -3.464901 2.012324 -2.738613 2.738613 
C -2.012324 3.464901 -1.027127 3.872983 0 3.872983 
z
" id="ma07b12ef06" style="stroke:#0000ff;"/>
     </defs>
     <g>
      <use style="fill:#0000ff;stroke:#0000ff;" x="410.443438" xlink:href="#ma07b12ef06" y="78.484375"/>
     </g>
    </g>
    <g id="text_19">
     <text style="font-family:Arial;font-size:10px;font-style:normal;font-weight:normal;text-anchor:start;" transform="rotate(-0, 428.443438, 81.109375)" x="428.443438" y="81.109375">IHC</text>
    </g>
   </g>
  </g>
 </g>
 <defs>
  <clipPath id="p8613101a05">
   <rect height="217.44" width="334.8" x="44.903438" y="27.515625"/>
  </clipPath>
 </defs>
</svg>
