<?xml version="1.0" encoding="utf-8" standalone="no"?>
<!DOCTYPE svg PUBLIC "-//W3C//DTD SVG 1.1//EN"
  "http://www.w3.org/Graphics/SVG/1.1/DTD/svg11.dtd">
<!-- Created with matplotlib (https://matplotlib.org/) -->
<svg height="287.555pt" version="1.1" viewBox="0 0 456.865313 287.555" width="456.865313pt" xmlns="http://www.w3.org/2000/svg" xmlns:xlink="http://www.w3.org/1999/xlink">
 <defs>
  <style type="text/css">
*{stroke-linecap:butt;stroke-linejoin:round;white-space:pre;}
  </style>
 </defs>
 <g id="figure_1">
  <g id="patch_1">
   <path d="M 0 287.555 
L 456.865313 287.555 
L 456.865313 0 
L 0 0 
z
" style="fill:#ffffff;"/>
  </g>
  <g id="axes_1">
   <g id="patch_2">
    <path d="M 44.903438 244.955625 
L 379.703438 244.955625 
L 379.703438 27.515625 
L 44.903438 27.515625 
z
" style="fill:#ffffff;"/>
   </g>
   <g id="patch_3">
    <path clip-path="url(#pb6dd4becb2)" d="M 62.313038 143.260846 
L 127.933838 143.260846 
L 127.933838 124.334173 
L 62.313038 124.334173 
L 62.313038 143.260846 
z
" style="fill:#df2020;stroke:#4c4c4c;stroke-linejoin:miter;stroke-width:1.5;"/>
   </g>
   <g id="patch_4">
    <path clip-path="url(#pb6dd4becb2)" d="M 129.273038 174.98868 
L 194.893838 174.98868 
L 194.893838 108.102727 
L 129.273038 108.102727 
L 129.273038 174.98868 
z
" style="fill:#2020df;stroke:#4c4c4c;stroke-linejoin:miter;stroke-width:1.5;"/>
   </g>
   <g id="patch_5">
    <path clip-path="url(#pb6dd4becb2)" d="M 229.713038 188.289664 
L 295.333838 188.289664 
L 295.333838 127.427944 
L 229.713038 127.427944 
L 229.713038 188.289664 
z
" style="fill:#df2020;stroke:#4c4c4c;stroke-linejoin:miter;stroke-width:1.5;"/>
   </g>
   <g id="patch_6">
    <path clip-path="url(#pb6dd4becb2)" d="M 296.673038 130.18506 
L 362.293837 130.18506 
L 362.293837 75.794409 
L 296.673038 75.794409 
L 296.673038 130.18506 
z
" style="fill:#2020df;stroke:#4c4c4c;stroke-linejoin:miter;stroke-width:1.5;"/>
   </g>
   <g id="PathCollection_1"/>
   <g id="PathCollection_2"/>
   <g id="patch_7">
    <path clip-path="url(#pb6dd4becb2)" d="M 128.603438 234.100175 
L 128.603438 234.100175 
L 128.603438 234.100175 
L 128.603438 234.100175 
z
" style="fill:#df2020;stroke:#4c4c4c;stroke-linejoin:miter;stroke-width:0.75;"/>
   </g>
   <g id="patch_8">
    <path clip-path="url(#pb6dd4becb2)" d="M 128.603438 234.100175 
L 128.603438 234.100175 
L 128.603438 234.100175 
L 128.603438 234.100175 
z
" style="fill:#2020df;stroke:#4c4c4c;stroke-linejoin:miter;stroke-width:0.75;"/>
   </g>
   <g id="matplotlib.axis_1">
    <g id="xtick_1">
     <g id="line2d_1">
      <defs>
       <path d="M 0 0 
L 0 3.5 
" id="mf34569352f" style="stroke:#000000;stroke-width:0.8;"/>
      </defs>
      <g>
       <use style="stroke:#000000;stroke-width:0.8;" x="128.603438" xlink:href="#mf34569352f" y="244.955625"/>
      </g>
     </g>
     <g id="text_1">
      <text style="font-family:Arial;font-size:12px;font-style:normal;font-weight:normal;text-anchor:middle;" transform="rotate(-0, 128.603438, 260.69125)" x="128.603438" y="260.69125">Light/Inactive</text>
     </g>
    </g>
    <g id="xtick_2">
     <g id="line2d_2">
      <g>
       <use style="stroke:#000000;stroke-width:0.8;" x="296.003438" xlink:href="#mf34569352f" y="244.955625"/>
      </g>
     </g>
     <g id="text_2">
      <text style="font-family:Arial;font-size:12px;font-style:normal;font-weight:normal;text-anchor:middle;" transform="rotate(-0, 296.003438, 260.69125)" x="296.003438" y="260.69125">Night/Active</text>
     </g>
    </g>
    <g id="text_3">
     <text style="font-family:Arial;font-size:14px;font-style:normal;font-weight:normal;text-anchor:middle;" transform="rotate(-0, 212.303438, 277.408437)" x="212.303438" y="277.408437">Phase of Cycle</text>
    </g>
   </g>
   <g id="matplotlib.axis_2">
    <g id="ytick_1">
     <g id="line2d_3">
      <defs>
       <path d="M 0 0 
L -3.5 0 
" id="m434fbf39d9" style="stroke:#000000;stroke-width:0.8;"/>
      </defs>
      <g>
       <use style="stroke:#000000;stroke-width:0.8;" x="44.903438" xlink:href="#m434fbf39d9" y="234.100175"/>
      </g>
     </g>
     <g id="text_4">
      <text style="font-family:Arial;font-size:10px;font-style:normal;font-weight:normal;text-anchor:end;" transform="rotate(-0, 37.903438, 237.679081)" x="37.903438" y="237.679081">0.0</text>
     </g>
    </g>
    <g id="ytick_2">
     <g id="line2d_4">
      <g>
       <use style="stroke:#000000;stroke-width:0.8;" x="44.903438" xlink:href="#m434fbf39d9" y="202.755354"/>
      </g>
     </g>
     <g id="text_5">
      <text style="font-family:Arial;font-size:10px;font-style:normal;font-weight:normal;text-anchor:end;" transform="rotate(-0, 37.903438, 206.33426)" x="37.903438" y="206.33426">0.1</text>
     </g>
    </g>
    <g id="ytick_3">
     <g id="line2d_5">
      <g>
       <use style="stroke:#000000;stroke-width:0.8;" x="44.903438" xlink:href="#m434fbf39d9" y="171.410533"/>
      </g>
     </g>
     <g id="text_6">
      <text style="font-family:Arial;font-size:10px;font-style:normal;font-weight:normal;text-anchor:end;" transform="rotate(-0, 37.903438, 174.989439)" x="37.903438" y="174.989439">0.2</text>
     </g>
    </g>
    <g id="ytick_4">
     <g id="line2d_6">
      <g>
       <use style="stroke:#000000;stroke-width:0.8;" x="44.903438" xlink:href="#m434fbf39d9" y="140.065712"/>
      </g>
     </g>
     <g id="text_7">
      <text style="font-family:Arial;font-size:10px;font-style:normal;font-weight:normal;text-anchor:end;" transform="rotate(-0, 37.903438, 143.644618)" x="37.903438" y="143.644618">0.3</text>
     </g>
    </g>
    <g id="ytick_5">
     <g id="line2d_7">
      <g>
       <use style="stroke:#000000;stroke-width:0.8;" x="44.903438" xlink:href="#m434fbf39d9" y="108.720891"/>
      </g>
     </g>
     <g id="text_8">
      <text style="font-family:Arial;font-size:10px;font-style:normal;font-weight:normal;text-anchor:end;" transform="rotate(-0, 37.903438, 112.299797)" x="37.903438" y="112.299797">0.4</text>
     </g>
    </g>
    <g id="ytick_6">
     <g id="line2d_8">
      <g>
       <use style="stroke:#000000;stroke-width:0.8;" x="44.903438" xlink:href="#m434fbf39d9" y="77.37607"/>
      </g>
     </g>
     <g id="text_9">
      <text style="font-family:Arial;font-size:10px;font-style:normal;font-weight:normal;text-anchor:end;" transform="rotate(-0, 37.903438, 80.954976)" x="37.903438" y="80.954976">0.5</text>
     </g>
    </g>
    <g id="ytick_7">
     <g id="line2d_9">
      <g>
       <use style="stroke:#000000;stroke-width:0.8;" x="44.903438" xlink:href="#m434fbf39d9" y="46.031249"/>
      </g>
     </g>
     <g id="text_10">
      <text style="font-family:Arial;font-size:10px;font-style:normal;font-weight:normal;text-anchor:end;" transform="rotate(-0, 37.903438, 49.610155)" x="37.903438" y="49.610155">0.6</text>
     </g>
    </g>
    <g id="text_11">
     <text style="font-family:Arial;font-size:14px;font-style:normal;font-weight:normal;text-anchor:middle;" transform="rotate(-90, 17.220938, 136.235625)" x="17.220938" y="136.235625">Relative Abundance</text>
    </g>
   </g>
   <g id="line2d_10">
    <path clip-path="url(#pb6dd4becb2)" d="M 95.123438 143.260846 
L 95.123438 163.869322 
" style="fill:none;stroke:#4c4c4c;stroke-linecap:square;stroke-width:1.5;"/>
   </g>
   <g id="line2d_11">
    <path clip-path="url(#pb6dd4becb2)" d="M 95.123438 124.334173 
L 95.123438 115.868953 
" style="fill:none;stroke:#4c4c4c;stroke-linecap:square;stroke-width:1.5;"/>
   </g>
   <g id="line2d_12">
    <path clip-path="url(#pb6dd4becb2)" d="M 78.718238 163.869322 
L 111.528638 163.869322 
" style="fill:none;stroke:#4c4c4c;stroke-linecap:square;stroke-width:1.5;"/>
   </g>
   <g id="line2d_13">
    <path clip-path="url(#pb6dd4becb2)" d="M 78.718238 115.868953 
L 111.528638 115.868953 
" style="fill:none;stroke:#4c4c4c;stroke-linecap:square;stroke-width:1.5;"/>
   </g>
   <g id="line2d_14"/>
   <g id="line2d_15">
    <path clip-path="url(#pb6dd4becb2)" d="M 162.083438 174.98868 
L 162.083438 220.737233 
" style="fill:none;stroke:#4c4c4c;stroke-linecap:square;stroke-width:1.5;"/>
   </g>
   <g id="line2d_16">
    <path clip-path="url(#pb6dd4becb2)" d="M 162.083438 108.102727 
L 162.083438 67.790358 
" style="fill:none;stroke:#4c4c4c;stroke-linecap:square;stroke-width:1.5;"/>
   </g>
   <g id="line2d_17">
    <path clip-path="url(#pb6dd4becb2)" d="M 145.678238 220.737233 
L 178.488638 220.737233 
" style="fill:none;stroke:#4c4c4c;stroke-linecap:square;stroke-width:1.5;"/>
   </g>
   <g id="line2d_18">
    <path clip-path="url(#pb6dd4becb2)" d="M 145.678238 67.790358 
L 178.488638 67.790358 
" style="fill:none;stroke:#4c4c4c;stroke-linecap:square;stroke-width:1.5;"/>
   </g>
   <g id="line2d_19"/>
   <g id="line2d_20">
    <path clip-path="url(#pb6dd4becb2)" d="M 262.523438 188.289664 
L 262.523438 230.312752 
" style="fill:none;stroke:#4c4c4c;stroke-linecap:square;stroke-width:1.5;"/>
   </g>
   <g id="line2d_21">
    <path clip-path="url(#pb6dd4becb2)" d="M 262.523438 127.427944 
L 262.523438 42.158498 
" style="fill:none;stroke:#4c4c4c;stroke-linecap:square;stroke-width:1.5;"/>
   </g>
   <g id="line2d_22">
    <path clip-path="url(#pb6dd4becb2)" d="M 246.118238 230.312752 
L 278.928638 230.312752 
" style="fill:none;stroke:#4c4c4c;stroke-linecap:square;stroke-width:1.5;"/>
   </g>
   <g id="line2d_23">
    <path clip-path="url(#pb6dd4becb2)" d="M 246.118238 42.158498 
L 278.928638 42.158498 
" style="fill:none;stroke:#4c4c4c;stroke-linecap:square;stroke-width:1.5;"/>
   </g>
   <g id="line2d_24"/>
   <g id="line2d_25">
    <path clip-path="url(#pb6dd4becb2)" d="M 329.483438 130.18506 
L 329.483438 166.015475 
" style="fill:none;stroke:#4c4c4c;stroke-linecap:square;stroke-width:1.5;"/>
   </g>
   <g id="line2d_26">
    <path clip-path="url(#pb6dd4becb2)" d="M 329.483438 75.794409 
L 329.483438 48.543898 
" style="fill:none;stroke:#4c4c4c;stroke-linecap:square;stroke-width:1.5;"/>
   </g>
   <g id="line2d_27">
    <path clip-path="url(#pb6dd4becb2)" d="M 313.078238 166.015475 
L 345.888638 166.015475 
" style="fill:none;stroke:#4c4c4c;stroke-linecap:square;stroke-width:1.5;"/>
   </g>
   <g id="line2d_28">
    <path clip-path="url(#pb6dd4becb2)" d="M 313.078238 48.543898 
L 345.888638 48.543898 
" style="fill:none;stroke:#4c4c4c;stroke-linecap:square;stroke-width:1.5;"/>
   </g>
   <g id="line2d_29">
    <defs>
     <path d="M -0 3.535534 
L 2.12132 0 
L -0 -3.535534 
L -2.12132 -0 
z
" id="mf96b12507c" style="stroke:#4c4c4c;stroke-linejoin:miter;"/>
    </defs>
    <g clip-path="url(#pb6dd4becb2)">
     <use style="fill:#4c4c4c;stroke:#4c4c4c;stroke-linejoin:miter;" x="329.483438" xlink:href="#mf96b12507c" y="223.706319"/>
    </g>
   </g>
   <g id="line2d_30">
    <path clip-path="url(#pb6dd4becb2)" d="M 62.313038 139.986628 
L 127.933838 139.986628 
" style="fill:none;stroke:#4c4c4c;stroke-linecap:square;stroke-width:1.5;"/>
   </g>
   <g id="line2d_31">
    <path clip-path="url(#pb6dd4becb2)" d="M 129.273038 125.458137 
L 194.893838 125.458137 
" style="fill:none;stroke:#4c4c4c;stroke-linecap:square;stroke-width:1.5;"/>
   </g>
   <g id="line2d_32">
    <path clip-path="url(#pb6dd4becb2)" d="M 229.713038 150.889746 
L 295.333838 150.889746 
" style="fill:none;stroke:#4c4c4c;stroke-linecap:square;stroke-width:1.5;"/>
   </g>
   <g id="line2d_33">
    <path clip-path="url(#pb6dd4becb2)" d="M 296.673038 116.364553 
L 362.293837 116.364553 
" style="fill:none;stroke:#4c4c4c;stroke-linecap:square;stroke-width:1.5;"/>
   </g>
   <g id="patch_9">
    <path d="M 44.903438 244.955625 
L 44.903438 27.515625 
" style="fill:none;stroke:#000000;stroke-linecap:square;stroke-linejoin:miter;stroke-width:0.8;"/>
   </g>
   <g id="patch_10">
    <path d="M 379.703438 244.955625 
L 379.703438 27.515625 
" style="fill:none;stroke:#000000;stroke-linecap:square;stroke-linejoin:miter;stroke-width:0.8;"/>
   </g>
   <g id="patch_11">
    <path d="M 44.903438 244.955625 
L 379.703438 244.955625 
" style="fill:none;stroke:#000000;stroke-linecap:square;stroke-linejoin:miter;stroke-width:0.8;"/>
   </g>
   <g id="patch_12">
    <path d="M 44.903438 27.515625 
L 379.703438 27.515625 
" style="fill:none;stroke:#000000;stroke-linecap:square;stroke-linejoin:miter;stroke-width:0.8;"/>
   </g>
   <g id="PathCollection_3">
    <defs>
     <path d="M 0 5 
C 1.326016 5 2.597899 4.473168 3.535534 3.535534 
C 4.473168 2.597899 5 1.326016 5 0 
C 5 -1.326016 4.473168 -2.597899 3.535534 -3.535534 
C 2.597899 -4.473168 1.326016 -5 0 -5 
C -1.326016 -5 -2.597899 -4.473168 -3.535534 -3.535534 
C -4.473168 -2.597899 -5 -1.326016 -5 0 
C -5 1.326016 -4.473168 2.597899 -3.535534 3.535534 
C -2.597899 4.473168 -1.326016 5 0 5 
z
" id="C0_0_15814d2082"/>
    </defs>
    <g clip-path="url(#pb6dd4becb2)">
     <use style="fill:#ff0000;stroke:#000000;" x="95.123437" xlink:href="#C0_0_15814d2082" y="163.869322"/>
    </g>
    <g clip-path="url(#pb6dd4becb2)">
     <use style="fill:#ff0000;stroke:#000000;" x="95.123437" xlink:href="#C0_0_15814d2082" y="144.980913"/>
    </g>
    <g clip-path="url(#pb6dd4becb2)">
     <use style="fill:#ff0000;stroke:#000000;" x="83.682433" xlink:href="#C0_0_15814d2082" y="143.473284"/>
    </g>
    <g clip-path="url(#pb6dd4becb2)">
     <use style="fill:#ff0000;stroke:#000000;" x="106.493799" xlink:href="#C0_0_15814d2082" y="143.048407"/>
    </g>
    <g clip-path="url(#pb6dd4becb2)">
     <use style="fill:#ff0000;stroke:#000000;" x="118.023587" xlink:href="#C0_0_15814d2082" y="142.397923"/>
    </g>
    <g clip-path="url(#pb6dd4becb2)">
     <use style="fill:#ff0000;stroke:#000000;" x="72.727997" xlink:href="#C0_0_15814d2082" y="139.986628"/>
    </g>
    <g clip-path="url(#pb6dd4becb2)">
     <use style="fill:#ff0000;stroke:#000000;" x="95.123437" xlink:href="#C0_0_15814d2082" y="130.490941"/>
    </g>
    <g clip-path="url(#pb6dd4becb2)">
     <use style="fill:#ff0000;stroke:#000000;" x="84.962575" xlink:href="#C0_0_15814d2082" y="125.260698"/>
    </g>
    <g clip-path="url(#pb6dd4becb2)">
     <use style="fill:#ff0000;stroke:#000000;" x="103.960107" xlink:href="#C0_0_15814d2082" y="123.407648"/>
    </g>
    <g clip-path="url(#pb6dd4becb2)">
     <use style="fill:#ff0000;stroke:#000000;" x="93.877389" xlink:href="#C0_0_15814d2082" y="118.04199"/>
    </g>
    <g clip-path="url(#pb6dd4becb2)">
     <use style="fill:#ff0000;stroke:#000000;" x="78.949537" xlink:href="#C0_0_15814d2082" y="115.868953"/>
    </g>
   </g>
   <g id="PathCollection_4">
    <defs>
     <path d="M 0 5 
C 1.326016 5 2.597899 4.473168 3.535534 3.535534 
C 4.473168 2.597899 5 1.326016 5 0 
C 5 -1.326016 4.473168 -2.597899 3.535534 -3.535534 
C 2.597899 -4.473168 1.326016 -5 0 -5 
C -1.326016 -5 -2.597899 -4.473168 -3.535534 -3.535534 
C -4.473168 -2.597899 -5 -1.326016 -5 0 
C -5 1.326016 -4.473168 2.597899 -3.535534 3.535534 
C -2.597899 4.473168 -1.326016 5 0 5 
z
" id="C1_0_5d478fef7d"/>
    </defs>
    <g clip-path="url(#pb6dd4becb2)">
     <use style="fill:#0000ff;stroke:#000000;" x="162.083438" xlink:href="#C1_0_5d478fef7d" y="220.737233"/>
    </g>
    <g clip-path="url(#pb6dd4becb2)">
     <use style="fill:#0000ff;stroke:#000000;" x="162.083438" xlink:href="#C1_0_5d478fef7d" y="184.603155"/>
    </g>
    <g clip-path="url(#pb6dd4becb2)">
     <use style="fill:#0000ff;stroke:#000000;" x="155.76035" xlink:href="#C1_0_5d478fef7d" y="175.397958"/>
    </g>
    <g clip-path="url(#pb6dd4becb2)">
     <use style="fill:#0000ff;stroke:#000000;" x="166.840342" xlink:href="#C1_0_5d478fef7d" y="174.579403"/>
    </g>
    <g clip-path="url(#pb6dd4becb2)">
     <use style="fill:#0000ff;stroke:#000000;" x="178.262363" xlink:href="#C1_0_5d478fef7d" y="172.946425"/>
    </g>
    <g clip-path="url(#pb6dd4becb2)">
     <use style="fill:#0000ff;stroke:#000000;" x="162.083438" xlink:href="#C1_0_5d478fef7d" y="125.458137"/>
    </g>
    <g clip-path="url(#pb6dd4becb2)">
     <use style="fill:#0000ff;stroke:#000000;" x="150.975393" xlink:href="#C1_0_5d478fef7d" y="122.444359"/>
    </g>
    <g clip-path="url(#pb6dd4becb2)">
     <use style="fill:#0000ff;stroke:#000000;" x="162.083438" xlink:href="#C1_0_5d478fef7d" y="110.283012"/>
    </g>
    <g clip-path="url(#pb6dd4becb2)">
     <use style="fill:#0000ff;stroke:#000000;" x="151.479715" xlink:href="#C1_0_5d478fef7d" y="105.922442"/>
    </g>
    <g clip-path="url(#pb6dd4becb2)">
     <use style="fill:#0000ff;stroke:#000000;" x="162.083438" xlink:href="#C1_0_5d478fef7d" y="90.466104"/>
    </g>
    <g clip-path="url(#pb6dd4becb2)">
     <use style="fill:#0000ff;stroke:#000000;" x="162.083438" xlink:href="#C1_0_5d478fef7d" y="67.790358"/>
    </g>
   </g>
   <g id="PathCollection_5">
    <defs>
     <path d="M 0 5 
C 1.326016 5 2.597899 4.473168 3.535534 3.535534 
C 4.473168 2.597899 5 1.326016 5 0 
C 5 -1.326016 4.473168 -2.597899 3.535534 -3.535534 
C 2.597899 -4.473168 1.326016 -5 0 -5 
C -1.326016 -5 -2.597899 -4.473168 -3.535534 -3.535534 
C -4.473168 -2.597899 -5 -1.326016 -5 0 
C -5 1.326016 -4.473168 2.597899 -3.535534 3.535534 
C -2.597899 4.473168 -1.326016 5 0 5 
z
" id="C2_0_772ef9d22f"/>
    </defs>
    <g clip-path="url(#pb6dd4becb2)">
     <use style="fill:#ff0000;stroke:#000000;" x="262.523438" xlink:href="#C2_0_772ef9d22f" y="230.312752"/>
    </g>
    <g clip-path="url(#pb6dd4becb2)">
     <use style="fill:#ff0000;stroke:#000000;" x="252.715999" xlink:href="#C2_0_772ef9d22f" y="224.50271"/>
    </g>
    <g clip-path="url(#pb6dd4becb2)">
     <use style="fill:#ff0000;stroke:#000000;" x="262.523438" xlink:href="#C2_0_772ef9d22f" y="217.540827"/>
    </g>
    <g clip-path="url(#pb6dd4becb2)">
     <use style="fill:#ff0000;stroke:#000000;" x="262.523438" xlink:href="#C2_0_772ef9d22f" y="178.539276"/>
    </g>
    <g clip-path="url(#pb6dd4becb2)">
     <use style="fill:#ff0000;stroke:#000000;" x="262.523438" xlink:href="#C2_0_772ef9d22f" y="155.384182"/>
    </g>
    <g clip-path="url(#pb6dd4becb2)">
     <use style="fill:#ff0000;stroke:#000000;" x="251.873443" xlink:href="#C2_0_772ef9d22f" y="151.127124"/>
    </g>
    <g clip-path="url(#pb6dd4becb2)">
     <use style="fill:#ff0000;stroke:#000000;" x="272.950204" xlink:href="#C2_0_772ef9d22f" y="150.652368"/>
    </g>
    <g clip-path="url(#pb6dd4becb2)">
     <use style="fill:#ff0000;stroke:#000000;" x="262.523438" xlink:href="#C2_0_772ef9d22f" y="142.278715"/>
    </g>
    <g clip-path="url(#pb6dd4becb2)">
     <use style="fill:#ff0000;stroke:#000000;" x="254.586009" xlink:href="#C2_0_772ef9d22f" y="134.287807"/>
    </g>
    <g clip-path="url(#pb6dd4becb2)">
     <use style="fill:#ff0000;stroke:#000000;" x="262.523438" xlink:href="#C2_0_772ef9d22f" y="106.848355"/>
    </g>
    <g clip-path="url(#pb6dd4becb2)">
     <use style="fill:#ff0000;stroke:#000000;" x="254.51722" xlink:href="#C2_0_772ef9d22f" y="98.919935"/>
    </g>
    <g clip-path="url(#pb6dd4becb2)">
     <use style="fill:#ff0000;stroke:#000000;" x="262.523438" xlink:href="#C2_0_772ef9d22f" y="42.158498"/>
    </g>
   </g>
   <g id="PathCollection_6">
    <defs>
     <path d="M 0 5 
C 1.326016 5 2.597899 4.473168 3.535534 3.535534 
C 4.473168 2.597899 5 1.326016 5 0 
C 5 -1.326016 4.473168 -2.597899 3.535534 -3.535534 
C 2.597899 -4.473168 1.326016 -5 0 -5 
C -1.326016 -5 -2.597899 -4.473168 -3.535534 -3.535534 
C -4.473168 -2.597899 -5 -1.326016 -5 0 
C -5 1.326016 -4.473168 2.597899 -3.535534 3.535534 
C -2.597899 4.473168 -1.326016 5 0 5 
z
" id="C3_0_c2e6f1d5b2"/>
    </defs>
    <g clip-path="url(#pb6dd4becb2)">
     <use style="fill:#0000ff;stroke:#000000;" x="329.483438" xlink:href="#C3_0_c2e6f1d5b2" y="223.706319"/>
    </g>
    <g clip-path="url(#pb6dd4becb2)">
     <use style="fill:#0000ff;stroke:#000000;" x="329.483438" xlink:href="#C3_0_c2e6f1d5b2" y="166.015475"/>
    </g>
    <g clip-path="url(#pb6dd4becb2)">
     <use style="fill:#0000ff;stroke:#000000;" x="319.408265" xlink:href="#C3_0_c2e6f1d5b2" y="160.636977"/>
    </g>
    <g clip-path="url(#pb6dd4becb2)">
     <use style="fill:#0000ff;stroke:#000000;" x="329.483438" xlink:href="#C3_0_c2e6f1d5b2" y="120.034421"/>
    </g>
    <g clip-path="url(#pb6dd4becb2)">
     <use style="fill:#0000ff;stroke:#000000;" x="318.132268" xlink:href="#C3_0_c2e6f1d5b2" y="118.002151"/>
    </g>
    <g clip-path="url(#pb6dd4becb2)">
     <use style="fill:#0000ff;stroke:#000000;" x="340.683413" xlink:href="#C3_0_c2e6f1d5b2" y="117.346911"/>
    </g>
    <g clip-path="url(#pb6dd4becb2)">
     <use style="fill:#0000ff;stroke:#000000;" x="352.047688" xlink:href="#C3_0_c2e6f1d5b2" y="115.382195"/>
    </g>
    <g clip-path="url(#pb6dd4becb2)">
     <use style="fill:#0000ff;stroke:#000000;" x="329.483438" xlink:href="#C3_0_c2e6f1d5b2" y="105.129272"/>
    </g>
    <g clip-path="url(#pb6dd4becb2)">
     <use style="fill:#0000ff;stroke:#000000;" x="329.483438" xlink:href="#C3_0_c2e6f1d5b2" y="76.242728"/>
    </g>
    <g clip-path="url(#pb6dd4becb2)">
     <use style="fill:#0000ff;stroke:#000000;" x="318.087954" xlink:href="#C3_0_c2e6f1d5b2" y="74.449453"/>
    </g>
    <g clip-path="url(#pb6dd4becb2)">
     <use style="fill:#0000ff;stroke:#000000;" x="326.33868" xlink:href="#C3_0_c2e6f1d5b2" y="65.658309"/>
    </g>
    <g clip-path="url(#pb6dd4becb2)">
     <use style="fill:#0000ff;stroke:#000000;" x="329.483438" xlink:href="#C3_0_c2e6f1d5b2" y="48.543898"/>
    </g>
   </g>
   <g id="text_12">
    <text style="font-family:Arial;font-size:20px;font-style:normal;font-weight:normal;text-anchor:middle;" transform="rotate(-0, 212.303438, 21.515625)" x="212.303438" y="21.515625">murocholic acid</text>
   </g>
   <g id="legend_1">
    <g id="patch_13">
     <path d="M 398.443438 87.096875 
L 447.665313 87.096875 
Q 449.665313 87.096875 449.665313 85.096875 
L 449.665313 29.515625 
Q 449.665313 27.515625 447.665313 27.515625 
L 398.443438 27.515625 
Q 396.443438 27.515625 396.443438 29.515625 
L 396.443438 85.096875 
Q 396.443438 87.096875 398.443438 87.096875 
z
" style="fill:#ffffff;opacity:0.8;stroke:#cccccc;stroke-linejoin:miter;"/>
    </g>
    <g id="patch_14">
     <path d="M 400.443438 38.673438 
L 420.443438 38.673438 
L 420.443438 31.673438 
L 400.443438 31.673438 
z
" style="fill:#df2020;stroke:#4c4c4c;stroke-linejoin:miter;stroke-width:0.75;"/>
    </g>
    <g id="text_13">
     <text style="font-family:Arial;font-size:10px;font-style:normal;font-weight:normal;text-anchor:start;" transform="rotate(-0, 428.443438, 38.673438)" x="428.443438" y="38.673438">Air</text>
    </g>
    <g id="patch_15">
     <path d="M 400.443438 52.81875 
L 420.443438 52.81875 
L 420.443438 45.81875 
L 400.443438 45.81875 
z
" style="fill:#2020df;stroke:#4c4c4c;stroke-linejoin:miter;stroke-width:0.75;"/>
    </g>
    <g id="text_14">
     <text style="font-family:Arial;font-size:10px;font-style:normal;font-weight:normal;text-anchor:start;" transform="rotate(-0, 428.443438, 52.81875)" x="428.443438" y="52.81875">IHC</text>
    </g>
    <g id="PathCollection_7">
     <defs>
      <path d="M 0 3.872983 
C 1.027127 3.872983 2.012324 3.464901 2.738613 2.738613 
C 3.464901 2.012324 3.872983 1.027127 3.872983 0 
C 3.872983 -1.027127 3.464901 -2.012324 2.738613 -2.738613 
C 2.012324 -3.464901 1.027127 -3.872983 0 -3.872983 
C -1.027127 -3.872983 -2.012324 -3.464901 -2.738613 -2.738613 
C -3.464901 -2.012324 -3.872983 -1.027127 -3.872983 0 
C -3.872983 1.027127 -3.464901 2.012324 -2.738613 2.738613 
C -2.012324 3.464901 -1.027127 3.872983 0 3.872983 
z
" id="m10b2b4f27c" style="stroke:#ff0000;"/>
     </defs>
     <g>
      <use style="fill:#ff0000;stroke:#ff0000;" x="410.443438" xlink:href="#m10b2b4f27c" y="64.339063"/>
     </g>
    </g>
    <g id="text_15">
     <text style="font-family:Arial;font-size:10px;font-style:normal;font-weight:normal;text-anchor:start;" transform="rotate(-0, 428.443438, 66.964063)" x="428.443438" y="66.964063">Air</text>
    </g>
    <g id="PathCollection_8">
     <defs>
      <path d="M 0 3.872983 
C 1.027127 3.872983 2.012324 3.464901 2.738613 2.738613 
C 3.464901 2.012324 3.872983 1.027127 3.872983 0 
C 3.872983 -1.027127 3.464901 -2.012324 2.738613 -2.738613 
C 2.012324 -3.464901 1.027127 -3.872983 0 -3.872983 
C -1.027127 -3.872983 -2.012324 -3.464901 -2.738613 -2.738613 
C -3.464901 -2.012324 -3.872983 -1.027127 -3.872983 0 
C -3.872983 1.027127 -3.464901 2.012324 -2.738613 2.738613 
C -2.012324 3.464901 -1.027127 3.872983 0 3.872983 
z
" id="m36d7d054df" style="stroke:#0000ff;"/>
     </defs>
     <g>
      <use style="fill:#0000ff;stroke:#0000ff;" x="410.443438" xlink:href="#m36d7d054df" y="78.484375"/>
     </g>
    </g>
    <g id="text_16">
     <text style="font-family:Arial;font-size:10px;font-style:normal;font-weight:normal;text-anchor:start;" transform="rotate(-0, 428.443438, 81.109375)" x="428.443438" y="81.109375">IHC</text>
    </g>
   </g>
  </g>
 </g>
 <defs>
  <clipPath id="pb6dd4becb2">
   <rect height="217.44" width="334.8" x="44.903438" y="27.515625"/>
  </clipPath>
 </defs>
</svg>
