<?xml version="1.0" encoding="utf-8" standalone="no"?>
<!DOCTYPE svg PUBLIC "-//W3C//DTD SVG 1.1//EN"
  "http://www.w3.org/Graphics/SVG/1.1/DTD/svg11.dtd">
<!-- Created with matplotlib (https://matplotlib.org/) -->
<svg height="443.338125pt" version="1.1" viewBox="0 0 434.759289 443.338125" width="434.759289pt" xmlns="http://www.w3.org/2000/svg" xmlns:xlink="http://www.w3.org/1999/xlink">
 <defs>
  <style type="text/css">
*{stroke-linecap:butt;stroke-linejoin:round;}
  </style>
 </defs>
 <g id="figure_1">
  <g id="patch_1">
   <path d="M 0 443.338125 
L 434.759289 443.338125 
L 434.759289 0 
L 0 0 
z
" style="fill:#ffffff;"/>
  </g>
  <g id="axes_1">
   <g id="patch_2">
    <path d="M 42.405 403.189375 
L 354.399789 403.189375 
L 354.399789 21.789375 
L 42.405 21.789375 
z
" style="fill:#ffffff;"/>
   </g>
   <g id="PathCollection_1">
    <defs>
     <path d="M 0 3.383948 
C 0.897434 3.383948 1.758231 3.027394 2.392813 2.392813 
C 3.027394 1.758231 3.383948 0.897434 3.383948 0 
C 3.383948 -0.897434 3.027394 -1.758231 2.392813 -2.392813 
C 1.758231 -3.027394 0.897434 -3.383948 0 -3.383948 
C -0.897434 -3.383948 -1.758231 -3.027394 -2.392813 -2.392813 
C -3.027394 -1.758231 -3.383948 -0.897434 -3.383948 0 
C -3.383948 0.897434 -3.027394 1.758231 -2.392813 2.392813 
C -1.758231 3.027394 -0.897434 3.383948 0 3.383948 
z
" id="C0_0_f2c74b2e4e"/>
    </defs>
    <g clip-path="url(#p05a0e15d88)">
     <use style="fill:#0000ff;stroke:#0000ff;stroke-width:2.025;" x="59.514009" xlink:href="#C0_0_f2c74b2e4e" y="125.651803"/>
    </g>
    <g clip-path="url(#p05a0e15d88)">
     <use style="fill:#0000ff;stroke:#0000ff;stroke-width:2.025;" x="83.92307" xlink:href="#C0_0_f2c74b2e4e" y="200.804565"/>
    </g>
    <g clip-path="url(#p05a0e15d88)">
     <use style="fill:#0000ff;stroke:#0000ff;stroke-width:2.025;" x="108.33213" xlink:href="#C0_0_f2c74b2e4e" y="226.954766"/>
    </g>
    <g clip-path="url(#p05a0e15d88)">
     <use style="fill:#0000ff;stroke:#0000ff;stroke-width:2.025;" x="132.741191" xlink:href="#C0_0_f2c74b2e4e" y="270.070966"/>
    </g>
    <g clip-path="url(#p05a0e15d88)">
     <use style="fill:#0000ff;stroke:#0000ff;stroke-width:2.025;" x="157.150252" xlink:href="#C0_0_f2c74b2e4e" y="336.221922"/>
    </g>
    <g clip-path="url(#p05a0e15d88)">
     <use style="fill:#0000ff;stroke:#0000ff;stroke-width:2.025;" x="181.559313" xlink:href="#C0_0_f2c74b2e4e" y="288.437924"/>
    </g>
    <g clip-path="url(#p05a0e15d88)">
     <use style="fill:#0000ff;stroke:#0000ff;stroke-width:2.025;" x="205.968374" xlink:href="#C0_0_f2c74b2e4e" y="125.651803"/>
    </g>
    <g clip-path="url(#p05a0e15d88)">
     <use style="fill:#0000ff;stroke:#0000ff;stroke-width:2.025;" x="230.377434" xlink:href="#C0_0_f2c74b2e4e" y="226.954766"/>
    </g>
    <g clip-path="url(#p05a0e15d88)">
     <use style="fill:#0000ff;stroke:#0000ff;stroke-width:2.025;" x="254.786495" xlink:href="#C0_0_f2c74b2e4e" y="270.070966"/>
    </g>
    <g clip-path="url(#p05a0e15d88)">
     <use style="fill:#0000ff;stroke:#0000ff;stroke-width:2.025;" x="279.195556" xlink:href="#C0_0_f2c74b2e4e" y="336.221922"/>
    </g>
    <g clip-path="url(#p05a0e15d88)">
     <use style="fill:#0000ff;stroke:#0000ff;stroke-width:2.025;" x="303.604617" xlink:href="#C0_0_f2c74b2e4e" y="288.437924"/>
    </g>
   </g>
   <g id="patch_3">
    <path clip-path="url(#p05a0e15d88)" d="M 120.536661 403.189375 
L 120.536661 21.789375 
L 193.763843 21.789375 
L 193.763843 403.189375 
z
" style="opacity:0.05;stroke:#000000;stroke-linejoin:miter;"/>
   </g>
   <g id="patch_4">
    <path clip-path="url(#p05a0e15d88)" d="M 266.991025 403.189375 
L 266.991025 21.789375 
L 340.218208 21.789375 
L 340.218208 403.189375 
z
" style="opacity:0.05;stroke:#000000;stroke-linejoin:miter;"/>
   </g>
   <g id="line2d_1">
    <path clip-path="url(#p05a0e15d88)" d="M 59.514009 125.651803 
L 83.92307 200.804565 
L 108.33213 226.954766 
L 132.741191 270.070966 
L 157.150252 336.221922 
L 181.559313 288.437924 
L 205.968374 125.651803 
L 230.377434 226.954766 
L 254.786495 270.070966 
L 279.195556 336.221922 
L 303.604617 288.437924 
" style="fill:none;stroke:#0000ff;stroke-linecap:square;stroke-width:2.7;"/>
   </g>
   <g id="line2d_2">
    <path clip-path="url(#p05a0e15d88)" d="M 59.514009 212.177868 
L 59.514009 39.125739 
" style="fill:none;stroke:#0000ff;stroke-linecap:square;"/>
   </g>
   <g id="line2d_3">
    <path clip-path="url(#p05a0e15d88)" d="M 57.073103 212.177868 
L 61.954915 212.177868 
" style="fill:none;stroke:#0000ff;stroke-linecap:square;"/>
   </g>
   <g id="line2d_4">
    <path clip-path="url(#p05a0e15d88)" d="M 57.073103 39.125739 
L 61.954915 39.125739 
" style="fill:none;stroke:#0000ff;stroke-linecap:square;"/>
   </g>
   <g id="line2d_5">
    <path clip-path="url(#p05a0e15d88)" d="M 83.92307 216.247608 
L 83.92307 185.361523 
" style="fill:none;stroke:#0000ff;stroke-linecap:square;"/>
   </g>
   <g id="line2d_6">
    <path clip-path="url(#p05a0e15d88)" d="M 81.482163 216.247608 
L 86.363976 216.247608 
" style="fill:none;stroke:#0000ff;stroke-linecap:square;"/>
   </g>
   <g id="line2d_7">
    <path clip-path="url(#p05a0e15d88)" d="M 81.482163 185.361523 
L 86.363976 185.361523 
" style="fill:none;stroke:#0000ff;stroke-linecap:square;"/>
   </g>
   <g id="line2d_8">
    <path clip-path="url(#p05a0e15d88)" d="M 108.33213 263.019658 
L 108.33213 190.889873 
" style="fill:none;stroke:#0000ff;stroke-linecap:square;"/>
   </g>
   <g id="line2d_9">
    <path clip-path="url(#p05a0e15d88)" d="M 105.891224 263.019658 
L 110.773036 263.019658 
" style="fill:none;stroke:#0000ff;stroke-linecap:square;"/>
   </g>
   <g id="line2d_10">
    <path clip-path="url(#p05a0e15d88)" d="M 105.891224 190.889873 
L 110.773036 190.889873 
" style="fill:none;stroke:#0000ff;stroke-linecap:square;"/>
   </g>
   <g id="line2d_11">
    <path clip-path="url(#p05a0e15d88)" d="M 132.741191 292.039204 
L 132.741191 248.102729 
" style="fill:none;stroke:#0000ff;stroke-linecap:square;"/>
   </g>
   <g id="line2d_12">
    <path clip-path="url(#p05a0e15d88)" d="M 130.300285 292.039204 
L 135.182097 292.039204 
" style="fill:none;stroke:#0000ff;stroke-linecap:square;"/>
   </g>
   <g id="line2d_13">
    <path clip-path="url(#p05a0e15d88)" d="M 130.300285 248.102729 
L 135.182097 248.102729 
" style="fill:none;stroke:#0000ff;stroke-linecap:square;"/>
   </g>
   <g id="line2d_14">
    <path clip-path="url(#p05a0e15d88)" d="M 157.150252 350.2264 
L 157.150252 322.217444 
" style="fill:none;stroke:#0000ff;stroke-linecap:square;"/>
   </g>
   <g id="line2d_15">
    <path clip-path="url(#p05a0e15d88)" d="M 154.709346 350.2264 
L 159.591158 350.2264 
" style="fill:none;stroke:#0000ff;stroke-linecap:square;"/>
   </g>
   <g id="line2d_16">
    <path clip-path="url(#p05a0e15d88)" d="M 154.709346 322.217444 
L 159.591158 322.217444 
" style="fill:none;stroke:#0000ff;stroke-linecap:square;"/>
   </g>
   <g id="line2d_17">
    <path clip-path="url(#p05a0e15d88)" d="M 181.559313 302.559665 
L 181.559313 274.316183 
" style="fill:none;stroke:#0000ff;stroke-linecap:square;"/>
   </g>
   <g id="line2d_18">
    <path clip-path="url(#p05a0e15d88)" d="M 179.118407 302.559665 
L 184.000219 302.559665 
" style="fill:none;stroke:#0000ff;stroke-linecap:square;"/>
   </g>
   <g id="line2d_19">
    <path clip-path="url(#p05a0e15d88)" d="M 179.118407 274.316183 
L 184.000219 274.316183 
" style="fill:none;stroke:#0000ff;stroke-linecap:square;"/>
   </g>
   <g id="line2d_20">
    <path clip-path="url(#p05a0e15d88)" d="M 205.968374 212.177868 
L 205.968374 39.125739 
" style="fill:none;stroke:#0000ff;stroke-linecap:square;"/>
   </g>
   <g id="line2d_21">
    <path clip-path="url(#p05a0e15d88)" d="M 203.527467 212.177868 
L 208.40928 212.177868 
" style="fill:none;stroke:#0000ff;stroke-linecap:square;"/>
   </g>
   <g id="line2d_22">
    <path clip-path="url(#p05a0e15d88)" d="M 203.527467 39.125739 
L 208.40928 39.125739 
" style="fill:none;stroke:#0000ff;stroke-linecap:square;"/>
   </g>
   <g id="line2d_23">
    <path clip-path="url(#p05a0e15d88)" d="M 230.377434 263.019658 
L 230.377434 190.889873 
" style="fill:none;stroke:#0000ff;stroke-linecap:square;"/>
   </g>
   <g id="line2d_24">
    <path clip-path="url(#p05a0e15d88)" d="M 227.936528 263.019658 
L 232.81834 263.019658 
" style="fill:none;stroke:#0000ff;stroke-linecap:square;"/>
   </g>
   <g id="line2d_25">
    <path clip-path="url(#p05a0e15d88)" d="M 227.936528 190.889873 
L 232.81834 190.889873 
" style="fill:none;stroke:#0000ff;stroke-linecap:square;"/>
   </g>
   <g id="line2d_26">
    <path clip-path="url(#p05a0e15d88)" d="M 254.786495 292.039204 
L 254.786495 248.721807 
" style="fill:none;stroke:#0000ff;stroke-linecap:square;"/>
   </g>
   <g id="line2d_27">
    <path clip-path="url(#p05a0e15d88)" d="M 252.345589 292.039204 
L 257.227401 292.039204 
" style="fill:none;stroke:#0000ff;stroke-linecap:square;"/>
   </g>
   <g id="line2d_28">
    <path clip-path="url(#p05a0e15d88)" d="M 252.345589 248.721807 
L 257.227401 248.721807 
" style="fill:none;stroke:#0000ff;stroke-linecap:square;"/>
   </g>
   <g id="line2d_29">
    <path clip-path="url(#p05a0e15d88)" d="M 279.195556 350.2264 
L 279.195556 322.217444 
" style="fill:none;stroke:#0000ff;stroke-linecap:square;"/>
   </g>
   <g id="line2d_30">
    <path clip-path="url(#p05a0e15d88)" d="M 276.75465 350.2264 
L 281.636462 350.2264 
" style="fill:none;stroke:#0000ff;stroke-linecap:square;"/>
   </g>
   <g id="line2d_31">
    <path clip-path="url(#p05a0e15d88)" d="M 276.75465 322.217444 
L 281.636462 322.217444 
" style="fill:none;stroke:#0000ff;stroke-linecap:square;"/>
   </g>
   <g id="line2d_32">
    <path clip-path="url(#p05a0e15d88)" d="M 303.604617 301.647176 
L 303.604617 275.228673 
" style="fill:none;stroke:#0000ff;stroke-linecap:square;"/>
   </g>
   <g id="line2d_33">
    <path clip-path="url(#p05a0e15d88)" d="M 301.163711 301.647176 
L 306.045523 301.647176 
" style="fill:none;stroke:#0000ff;stroke-linecap:square;"/>
   </g>
   <g id="line2d_34">
    <path clip-path="url(#p05a0e15d88)" d="M 301.163711 275.228673 
L 306.045523 275.228673 
" style="fill:none;stroke:#0000ff;stroke-linecap:square;"/>
   </g>
   <g id="matplotlib.axis_1">
    <g id="xtick_1">
     <g id="line2d_35">
      <defs>
       <path d="M 0 0 
L 0 3.5 
" id="ma7eb49bf3e" style="stroke:#000000;stroke-width:0.8;"/>
      </defs>
      <g>
       <use style="stroke:#000000;stroke-width:0.8;" x="59.514009" xlink:href="#ma7eb49bf3e" y="403.189375"/>
      </g>
     </g>
     <g id="text_1">
      <text style="font-family:Arial;font-size:10px;font-style:normal;font-weight:normal;text-anchor:middle;" transform="rotate(-0, 59.514009, 417.347187)" x="59.514009" y="417.347187">2</text>
     </g>
    </g>
    <g id="xtick_2">
     <g id="line2d_36">
      <g>
       <use style="stroke:#000000;stroke-width:0.8;" x="83.92307" xlink:href="#ma7eb49bf3e" y="403.189375"/>
      </g>
     </g>
     <g id="text_2">
      <text style="font-family:Arial;font-size:10px;font-style:normal;font-weight:normal;text-anchor:middle;" transform="rotate(-0, 83.92307, 417.347187)" x="83.92307" y="417.347187">6</text>
     </g>
    </g>
    <g id="xtick_3">
     <g id="line2d_37">
      <g>
       <use style="stroke:#000000;stroke-width:0.8;" x="108.33213" xlink:href="#ma7eb49bf3e" y="403.189375"/>
      </g>
     </g>
     <g id="text_3">
      <text style="font-family:Arial;font-size:10px;font-style:normal;font-weight:normal;text-anchor:middle;" transform="rotate(-0, 108.33213, 417.347187)" x="108.33213" y="417.347187">10</text>
     </g>
    </g>
    <g id="xtick_4">
     <g id="line2d_38">
      <g>
       <use style="stroke:#000000;stroke-width:0.8;" x="132.741191" xlink:href="#ma7eb49bf3e" y="403.189375"/>
      </g>
     </g>
     <g id="text_4">
      <text style="font-family:Arial;font-size:10px;font-style:normal;font-weight:normal;text-anchor:middle;" transform="rotate(-0, 132.741191, 417.347187)" x="132.741191" y="417.347187">14</text>
     </g>
    </g>
    <g id="xtick_5">
     <g id="line2d_39">
      <g>
       <use style="stroke:#000000;stroke-width:0.8;" x="157.150252" xlink:href="#ma7eb49bf3e" y="403.189375"/>
      </g>
     </g>
     <g id="text_5">
      <text style="font-family:Arial;font-size:10px;font-style:normal;font-weight:normal;text-anchor:middle;" transform="rotate(-0, 157.150252, 417.347187)" x="157.150252" y="417.347187">18</text>
     </g>
    </g>
    <g id="xtick_6">
     <g id="line2d_40">
      <g>
       <use style="stroke:#000000;stroke-width:0.8;" x="181.559313" xlink:href="#ma7eb49bf3e" y="403.189375"/>
      </g>
     </g>
     <g id="text_6">
      <text style="font-family:Arial;font-size:10px;font-style:normal;font-weight:normal;text-anchor:middle;" transform="rotate(-0, 181.559313, 417.347187)" x="181.559313" y="417.347187">22</text>
     </g>
    </g>
    <g id="xtick_7">
     <g id="line2d_41">
      <g>
       <use style="stroke:#000000;stroke-width:0.8;" x="205.968374" xlink:href="#ma7eb49bf3e" y="403.189375"/>
      </g>
     </g>
     <g id="text_7">
      <text style="font-family:Arial;font-size:10px;font-style:normal;font-weight:normal;text-anchor:middle;" transform="rotate(-0, 205.968374, 417.347187)" x="205.968374" y="417.347187">2</text>
     </g>
    </g>
    <g id="xtick_8">
     <g id="line2d_42">
      <g>
       <use style="stroke:#000000;stroke-width:0.8;" x="230.377434" xlink:href="#ma7eb49bf3e" y="403.189375"/>
      </g>
     </g>
     <g id="text_8">
      <text style="font-family:Arial;font-size:10px;font-style:normal;font-weight:normal;text-anchor:middle;" transform="rotate(-0, 230.377434, 417.347187)" x="230.377434" y="417.347187">6</text>
     </g>
    </g>
    <g id="xtick_9">
     <g id="line2d_43">
      <g>
       <use style="stroke:#000000;stroke-width:0.8;" x="254.786495" xlink:href="#ma7eb49bf3e" y="403.189375"/>
      </g>
     </g>
     <g id="text_9">
      <text style="font-family:Arial;font-size:10px;font-style:normal;font-weight:normal;text-anchor:middle;" transform="rotate(-0, 254.786495, 417.347187)" x="254.786495" y="417.347187">10</text>
     </g>
    </g>
    <g id="xtick_10">
     <g id="line2d_44">
      <g>
       <use style="stroke:#000000;stroke-width:0.8;" x="279.195556" xlink:href="#ma7eb49bf3e" y="403.189375"/>
      </g>
     </g>
     <g id="text_10">
      <text style="font-family:Arial;font-size:10px;font-style:normal;font-weight:normal;text-anchor:middle;" transform="rotate(-0, 279.195556, 417.347187)" x="279.195556" y="417.347187">14</text>
     </g>
    </g>
    <g id="xtick_11">
     <g id="line2d_45">
      <g>
       <use style="stroke:#000000;stroke-width:0.8;" x="303.604617" xlink:href="#ma7eb49bf3e" y="403.189375"/>
      </g>
     </g>
     <g id="text_11">
      <text style="font-family:Arial;font-size:10px;font-style:normal;font-weight:normal;text-anchor:middle;" transform="rotate(-0, 303.604617, 417.347187)" x="303.604617" y="417.347187">18</text>
     </g>
    </g>
    <g id="xtick_12">
     <g id="line2d_46">
      <g>
       <use style="stroke:#000000;stroke-width:0.8;" x="328.013677" xlink:href="#ma7eb49bf3e" y="403.189375"/>
      </g>
     </g>
     <g id="text_12">
      <text style="font-family:Arial;font-size:10px;font-style:normal;font-weight:normal;text-anchor:middle;" transform="rotate(-0, 328.013677, 417.347187)" x="328.013677" y="417.347187">22</text>
     </g>
    </g>
    <g id="text_13">
     <text style="font-family:Arial;font-size:14px;font-style:normal;font-weight:normal;text-anchor:middle;" transform="rotate(-0, 198.402395, 433.355625)" x="198.402395" y="433.355625">ZT</text>
    </g>
   </g>
   <g id="matplotlib.axis_2">
    <g id="ytick_1">
     <g id="line2d_47">
      <defs>
       <path d="M 0 0 
L -3.5 0 
" id="me9a9006f19" style="stroke:#000000;stroke-width:0.8;"/>
      </defs>
      <g>
       <use style="stroke:#000000;stroke-width:0.8;" x="42.405" xlink:href="#me9a9006f19" y="336.145216"/>
      </g>
     </g>
     <g id="text_14">
      <text style="font-family:Arial;font-size:10px;font-style:normal;font-weight:normal;text-anchor:end;" transform="rotate(-0, 35.405, 339.724123)" x="35.405" y="339.724123">−5</text>
     </g>
    </g>
    <g id="ytick_2">
     <g id="line2d_48">
      <g>
       <use style="stroke:#000000;stroke-width:0.8;" x="42.405" xlink:href="#me9a9006f19" y="251.429146"/>
      </g>
     </g>
     <g id="text_15">
      <text style="font-family:Arial;font-size:10px;font-style:normal;font-weight:normal;text-anchor:end;" transform="rotate(-0, 35.405, 255.008052)" x="35.405" y="255.008052">−4</text>
     </g>
    </g>
    <g id="ytick_3">
     <g id="line2d_49">
      <g>
       <use style="stroke:#000000;stroke-width:0.8;" x="42.405" xlink:href="#me9a9006f19" y="166.713076"/>
      </g>
     </g>
     <g id="text_16">
      <text style="font-family:Arial;font-size:10px;font-style:normal;font-weight:normal;text-anchor:end;" transform="rotate(-0, 35.405, 170.291982)" x="35.405" y="170.291982">−3</text>
     </g>
    </g>
    <g id="ytick_4">
     <g id="line2d_50">
      <g>
       <use style="stroke:#000000;stroke-width:0.8;" x="42.405" xlink:href="#me9a9006f19" y="81.997006"/>
      </g>
     </g>
     <g id="text_17">
      <text style="font-family:Arial;font-size:10px;font-style:normal;font-weight:normal;text-anchor:end;" transform="rotate(-0, 35.405, 85.575912)" x="35.405" y="85.575912">−2</text>
     </g>
    </g>
    <g id="text_18">
     <text style="font-family:Arial;font-size:14px;font-style:normal;font-weight:normal;text-anchor:middle;" transform="rotate(-90, 17.220938, 212.489375)" x="17.220938" y="212.489375">Ruminococcaceae_Verrucomicrobiaceae</text>
    </g>
   </g>
   <g id="PathCollection_2">
    <defs>
     <path d="M 0 3.383948 
C 0.897434 3.383948 1.758231 3.027394 2.392813 2.392813 
C 3.027394 1.758231 3.383948 0.897434 3.383948 0 
C 3.383948 -0.897434 3.027394 -1.758231 2.392813 -2.392813 
C 1.758231 -3.027394 0.897434 -3.383948 0 -3.383948 
C -0.897434 -3.383948 -1.758231 -3.027394 -2.392813 -2.392813 
C -3.027394 -1.758231 -3.383948 -0.897434 -3.383948 0 
C -3.383948 0.897434 -3.027394 1.758231 -2.392813 2.392813 
C -1.758231 3.027394 -0.897434 3.383948 0 3.383948 
z
" id="C1_0_3cbe5b7108"/>
    </defs>
    <g clip-path="url(#p05a0e15d88)">
     <use style="fill:#ff0000;stroke:#ff0000;stroke-width:2.025;" x="59.514009" xlink:href="#C1_0_3cbe5b7108" y="271.137225"/>
    </g>
    <g clip-path="url(#p05a0e15d88)">
     <use style="fill:#ff0000;stroke:#ff0000;stroke-width:2.025;" x="83.92307" xlink:href="#C1_0_3cbe5b7108" y="245.902858"/>
    </g>
    <g clip-path="url(#p05a0e15d88)">
     <use style="fill:#ff0000;stroke:#ff0000;stroke-width:2.025;" x="108.33213" xlink:href="#C1_0_3cbe5b7108" y="249.109323"/>
    </g>
    <g clip-path="url(#p05a0e15d88)">
     <use style="fill:#ff0000;stroke:#ff0000;stroke-width:2.025;" x="132.741191" xlink:href="#C1_0_3cbe5b7108" y="239.342535"/>
    </g>
    <g clip-path="url(#p05a0e15d88)">
     <use style="fill:#ff0000;stroke:#ff0000;stroke-width:2.025;" x="157.150252" xlink:href="#C1_0_3cbe5b7108" y="355.794502"/>
    </g>
    <g clip-path="url(#p05a0e15d88)">
     <use style="fill:#ff0000;stroke:#ff0000;stroke-width:2.025;" x="181.559313" xlink:href="#C1_0_3cbe5b7108" y="353.59278"/>
    </g>
    <g clip-path="url(#p05a0e15d88)">
     <use style="fill:#ff0000;stroke:#ff0000;stroke-width:2.025;" x="205.968374" xlink:href="#C1_0_3cbe5b7108" y="271.137225"/>
    </g>
    <g clip-path="url(#p05a0e15d88)">
     <use style="fill:#ff0000;stroke:#ff0000;stroke-width:2.025;" x="230.377434" xlink:href="#C1_0_3cbe5b7108" y="249.109323"/>
    </g>
    <g clip-path="url(#p05a0e15d88)">
     <use style="fill:#ff0000;stroke:#ff0000;stroke-width:2.025;" x="254.786495" xlink:href="#C1_0_3cbe5b7108" y="239.342535"/>
    </g>
    <g clip-path="url(#p05a0e15d88)">
     <use style="fill:#ff0000;stroke:#ff0000;stroke-width:2.025;" x="279.195556" xlink:href="#C1_0_3cbe5b7108" y="355.794502"/>
    </g>
    <g clip-path="url(#p05a0e15d88)">
     <use style="fill:#ff0000;stroke:#ff0000;stroke-width:2.025;" x="303.604617" xlink:href="#C1_0_3cbe5b7108" y="353.59278"/>
    </g>
   </g>
   <g id="line2d_51">
    <path clip-path="url(#p05a0e15d88)" d="M 59.514009 271.137225 
L 83.92307 245.902858 
L 108.33213 249.109323 
L 132.741191 239.342535 
L 157.150252 355.794502 
L 181.559313 353.59278 
L 205.968374 271.137225 
L 230.377434 249.109323 
L 254.786495 239.342535 
L 279.195556 355.794502 
L 303.604617 353.59278 
" style="fill:none;stroke:#ff0000;stroke-linecap:square;stroke-width:2.7;"/>
   </g>
   <g id="line2d_52">
    <path clip-path="url(#p05a0e15d88)" d="M 59.514009 288.177257 
L 59.514009 258.54132 
" style="fill:none;stroke:#ff0000;stroke-linecap:square;"/>
   </g>
   <g id="line2d_53">
    <path clip-path="url(#p05a0e15d88)" d="M 57.073103 288.177257 
L 61.954915 288.177257 
" style="fill:none;stroke:#ff0000;stroke-linecap:square;"/>
   </g>
   <g id="line2d_54">
    <path clip-path="url(#p05a0e15d88)" d="M 57.073103 258.54132 
L 61.954915 258.54132 
" style="fill:none;stroke:#ff0000;stroke-linecap:square;"/>
   </g>
   <g id="line2d_55">
    <path clip-path="url(#p05a0e15d88)" d="M 83.92307 249.749148 
L 83.92307 241.902985 
" style="fill:none;stroke:#ff0000;stroke-linecap:square;"/>
   </g>
   <g id="line2d_56">
    <path clip-path="url(#p05a0e15d88)" d="M 81.482163 249.749148 
L 86.363976 249.749148 
" style="fill:none;stroke:#ff0000;stroke-linecap:square;"/>
   </g>
   <g id="line2d_57">
    <path clip-path="url(#p05a0e15d88)" d="M 81.482163 241.902985 
L 86.363976 241.902985 
" style="fill:none;stroke:#ff0000;stroke-linecap:square;"/>
   </g>
   <g id="line2d_58">
    <path clip-path="url(#p05a0e15d88)" d="M 108.33213 258.089377 
L 108.33213 240.129269 
" style="fill:none;stroke:#ff0000;stroke-linecap:square;"/>
   </g>
   <g id="line2d_59">
    <path clip-path="url(#p05a0e15d88)" d="M 105.891224 258.089377 
L 110.773036 258.089377 
" style="fill:none;stroke:#ff0000;stroke-linecap:square;"/>
   </g>
   <g id="line2d_60">
    <path clip-path="url(#p05a0e15d88)" d="M 105.891224 240.129269 
L 110.773036 240.129269 
" style="fill:none;stroke:#ff0000;stroke-linecap:square;"/>
   </g>
   <g id="line2d_61">
    <path clip-path="url(#p05a0e15d88)" d="M 132.741191 272.488944 
L 132.741191 204.089001 
" style="fill:none;stroke:#ff0000;stroke-linecap:square;"/>
   </g>
   <g id="line2d_62">
    <path clip-path="url(#p05a0e15d88)" d="M 130.300285 272.488944 
L 135.182097 272.488944 
" style="fill:none;stroke:#ff0000;stroke-linecap:square;"/>
   </g>
   <g id="line2d_63">
    <path clip-path="url(#p05a0e15d88)" d="M 130.300285 204.089001 
L 135.182097 204.089001 
" style="fill:none;stroke:#ff0000;stroke-linecap:square;"/>
   </g>
   <g id="line2d_64">
    <path clip-path="url(#p05a0e15d88)" d="M 157.150252 366.56634 
L 157.150252 345.022664 
" style="fill:none;stroke:#ff0000;stroke-linecap:square;"/>
   </g>
   <g id="line2d_65">
    <path clip-path="url(#p05a0e15d88)" d="M 154.709346 366.56634 
L 159.591158 366.56634 
" style="fill:none;stroke:#ff0000;stroke-linecap:square;"/>
   </g>
   <g id="line2d_66">
    <path clip-path="url(#p05a0e15d88)" d="M 154.709346 345.022664 
L 159.591158 345.022664 
" style="fill:none;stroke:#ff0000;stroke-linecap:square;"/>
   </g>
   <g id="line2d_67">
    <path clip-path="url(#p05a0e15d88)" d="M 181.559313 385.853011 
L 181.559313 321.332549 
" style="fill:none;stroke:#ff0000;stroke-linecap:square;"/>
   </g>
   <g id="line2d_68">
    <path clip-path="url(#p05a0e15d88)" d="M 179.118407 385.853011 
L 184.000219 385.853011 
" style="fill:none;stroke:#ff0000;stroke-linecap:square;"/>
   </g>
   <g id="line2d_69">
    <path clip-path="url(#p05a0e15d88)" d="M 179.118407 321.332549 
L 184.000219 321.332549 
" style="fill:none;stroke:#ff0000;stroke-linecap:square;"/>
   </g>
   <g id="line2d_70">
    <path clip-path="url(#p05a0e15d88)" d="M 205.968374 284.444189 
L 205.968374 254.48311 
" style="fill:none;stroke:#ff0000;stroke-linecap:square;"/>
   </g>
   <g id="line2d_71">
    <path clip-path="url(#p05a0e15d88)" d="M 203.527467 284.444189 
L 208.40928 284.444189 
" style="fill:none;stroke:#ff0000;stroke-linecap:square;"/>
   </g>
   <g id="line2d_72">
    <path clip-path="url(#p05a0e15d88)" d="M 203.527467 254.48311 
L 208.40928 254.48311 
" style="fill:none;stroke:#ff0000;stroke-linecap:square;"/>
   </g>
   <g id="line2d_73">
    <path clip-path="url(#p05a0e15d88)" d="M 230.377434 258.089377 
L 230.377434 240.129269 
" style="fill:none;stroke:#ff0000;stroke-linecap:square;"/>
   </g>
   <g id="line2d_74">
    <path clip-path="url(#p05a0e15d88)" d="M 227.936528 258.089377 
L 232.81834 258.089377 
" style="fill:none;stroke:#ff0000;stroke-linecap:square;"/>
   </g>
   <g id="line2d_75">
    <path clip-path="url(#p05a0e15d88)" d="M 227.936528 240.129269 
L 232.81834 240.129269 
" style="fill:none;stroke:#ff0000;stroke-linecap:square;"/>
   </g>
   <g id="line2d_76">
    <path clip-path="url(#p05a0e15d88)" d="M 254.786495 272.488944 
L 254.786495 204.089001 
" style="fill:none;stroke:#ff0000;stroke-linecap:square;"/>
   </g>
   <g id="line2d_77">
    <path clip-path="url(#p05a0e15d88)" d="M 252.345589 272.488944 
L 257.227401 272.488944 
" style="fill:none;stroke:#ff0000;stroke-linecap:square;"/>
   </g>
   <g id="line2d_78">
    <path clip-path="url(#p05a0e15d88)" d="M 252.345589 204.089001 
L 257.227401 204.089001 
" style="fill:none;stroke:#ff0000;stroke-linecap:square;"/>
   </g>
   <g id="line2d_79">
    <path clip-path="url(#p05a0e15d88)" d="M 279.195556 366.56634 
L 279.195556 345.022664 
" style="fill:none;stroke:#ff0000;stroke-linecap:square;"/>
   </g>
   <g id="line2d_80">
    <path clip-path="url(#p05a0e15d88)" d="M 276.75465 366.56634 
L 281.636462 366.56634 
" style="fill:none;stroke:#ff0000;stroke-linecap:square;"/>
   </g>
   <g id="line2d_81">
    <path clip-path="url(#p05a0e15d88)" d="M 276.75465 345.022664 
L 281.636462 345.022664 
" style="fill:none;stroke:#ff0000;stroke-linecap:square;"/>
   </g>
   <g id="line2d_82">
    <path clip-path="url(#p05a0e15d88)" d="M 303.604617 385.853011 
L 303.604617 321.332549 
" style="fill:none;stroke:#ff0000;stroke-linecap:square;"/>
   </g>
   <g id="line2d_83">
    <path clip-path="url(#p05a0e15d88)" d="M 301.163711 385.853011 
L 306.045523 385.853011 
" style="fill:none;stroke:#ff0000;stroke-linecap:square;"/>
   </g>
   <g id="line2d_84">
    <path clip-path="url(#p05a0e15d88)" d="M 301.163711 321.332549 
L 306.045523 321.332549 
" style="fill:none;stroke:#ff0000;stroke-linecap:square;"/>
   </g>
   <g id="line2d_85">
    <path clip-path="url(#p05a0e15d88)" d="M 193.763843 403.189375 
L 193.763843 21.789375 
" style="fill:none;stroke:#000000;stroke-dasharray:5.55,2.4;stroke-dashoffset:0;stroke-width:1.5;"/>
   </g>
   <g id="patch_5">
    <path d="M 42.405 403.189375 
L 42.405 21.789375 
" style="fill:none;stroke:#000000;stroke-linecap:square;stroke-linejoin:miter;stroke-width:0.8;"/>
   </g>
   <g id="patch_6">
    <path d="M 42.405 403.189375 
L 354.399789 403.189375 
" style="fill:none;stroke:#000000;stroke-linecap:square;stroke-linejoin:miter;stroke-width:0.8;"/>
   </g>
   <g id="text_19">
    <text style="font-family:Arial;font-size:12px;font-style:normal;font-weight:normal;text-anchor:middle;" transform="rotate(-0, 198.402395, 15.789375)" x="198.402395" y="15.789375">Log Ruminococcaceae_Verrucomicrobiaceae</text>
   </g>
  </g>
  <g id="legend_1">
   <g id="text_20">
    <text style="font-family:Arial;font-size:10px;font-style:normal;font-weight:normal;text-anchor:start;" transform="rotate(-0, 360.163977, 210.050313)" x="360.163977" y="210.050313">exposure_type</text>
   </g>
   <g id="PathCollection_3">
    <path d="M 380.350695 225.071761 
C 381.248129 225.071761 382.108927 224.715207 382.743508 224.080625 
C 383.37809 223.446044 383.734644 222.585246 383.734644 221.687813 
C 383.734644 220.790379 383.37809 219.929581 382.743508 219.295 
C 382.108927 218.660418 381.248129 218.303864 380.350695 218.303864 
C 379.453262 218.303864 378.592464 218.660418 377.957883 219.295 
C 377.323301 219.929581 376.966747 220.790379 376.966747 221.687813 
C 376.966747 222.585246 377.323301 223.446044 377.957883 224.080625 
C 378.592464 224.715207 379.453262 225.071761 380.350695 225.071761 
z
" style="fill:#0000ff;stroke:#0000ff;stroke-width:2.025;"/>
   </g>
   <g id="text_21">
    <text style="font-family:Arial;font-size:10px;font-style:normal;font-weight:normal;text-anchor:start;" transform="rotate(-0, 398.350695, 224.312813)" x="398.350695" y="224.312813">IHC</text>
   </g>
   <g id="PathCollection_4">
    <path d="M 380.350695 239.217073 
C 381.248129 239.217073 382.108927 238.860519 382.743508 238.225938 
C 383.37809 237.591356 383.734644 236.730559 383.734644 235.833125 
C 383.734644 234.935691 383.37809 234.074894 382.743508 233.440312 
C 382.108927 232.805731 381.248129 232.449177 380.350695 232.449177 
C 379.453262 232.449177 378.592464 232.805731 377.957883 233.440312 
C 377.323301 234.074894 376.966747 234.935691 376.966747 235.833125 
C 376.966747 236.730559 377.323301 237.591356 377.957883 238.225938 
C 378.592464 238.860519 379.453262 239.217073 380.350695 239.217073 
z
" style="fill:#ff0000;stroke:#ff0000;stroke-width:2.025;"/>
   </g>
   <g id="text_22">
    <text style="font-family:Arial;font-size:10px;font-style:normal;font-weight:normal;text-anchor:start;" transform="rotate(-0, 398.350695, 238.458125)" x="398.350695" y="238.458125">Air</text>
   </g>
  </g>
 </g>
 <defs>
  <clipPath id="p05a0e15d88">
   <rect height="381.4" width="311.994789" x="42.405" y="21.789375"/>
  </clipPath>
 </defs>
</svg>
