<?xml version="1.0" encoding="utf-8" standalone="no"?>
<!DOCTYPE svg PUBLIC "-//W3C//DTD SVG 1.1//EN"
  "http://www.w3.org/Graphics/SVG/1.1/DTD/svg11.dtd">
<!-- Created with matplotlib (https://matplotlib.org/) -->
<svg height="288.302187pt" version="1.1" viewBox="0 0 482.50625 288.302187" width="482.50625pt" xmlns="http://www.w3.org/2000/svg" xmlns:xlink="http://www.w3.org/1999/xlink">
 <defs>
  <style type="text/css">
*{stroke-linecap:butt;stroke-linejoin:round;white-space:pre;}
  </style>
 </defs>
 <g id="figure_1">
  <g id="patch_1">
   <path d="M 0 288.302187 
L 482.50625 288.302187 
L 482.50625 0 
L 0 0 
z
" style="fill:#ffffff;"/>
  </g>
  <g id="axes_1">
   <g id="patch_2">
    <path d="M 53.861563 247.81875 
L 388.661563 247.81875 
L 388.661563 30.37875 
L 53.861563 30.37875 
z
" style="fill:#ffffff;"/>
   </g>
   <g id="PathCollection_1">
    <defs>
     <path d="M 0 3.872983 
C 1.027127 3.872983 2.012324 3.464901 2.738613 2.738613 
C 3.464901 2.012324 3.872983 1.027127 3.872983 0 
C 3.872983 -1.027127 3.464901 -2.012324 2.738613 -2.738613 
C 2.012324 -3.464901 1.027127 -3.872983 0 -3.872983 
C -1.027127 -3.872983 -2.012324 -3.464901 -2.738613 -2.738613 
C -3.464901 -2.012324 -3.872983 -1.027127 -3.872983 0 
C -3.872983 1.027127 -3.464901 2.012324 -2.738613 2.738613 
C -2.012324 3.464901 -1.027127 3.872983 0 3.872983 
z
" id="C0_0_59e9a58edf"/>
    </defs>
    <g clip-path="url(#p79c6df279d)">
     <use style="fill:#fedbcc;stroke:#000000;stroke-width:0.75;" x="236.959571" xlink:href="#C0_0_59e9a58edf" y="128.22923"/>
    </g>
    <g clip-path="url(#p79c6df279d)">
     <use style="fill:#fedbcc;stroke:#000000;stroke-width:0.75;" x="135.544733" xlink:href="#C0_0_59e9a58edf" y="107.00553"/>
    </g>
    <g clip-path="url(#p79c6df279d)">
     <use style="fill:#fedbcc;stroke:#000000;stroke-width:0.75;" x="143.010651" xlink:href="#C0_0_59e9a58edf" y="102.072692"/>
    </g>
    <g clip-path="url(#p79c6df279d)">
     <use style="fill:#fedbcc;stroke:#000000;stroke-width:0.75;" x="252.819422" xlink:href="#C0_0_59e9a58edf" y="142.247632"/>
    </g>
    <g clip-path="url(#p79c6df279d)">
     <use style="fill:#fcaf93;stroke:#000000;stroke-width:0.75;" x="294.536676" xlink:href="#C0_0_59e9a58edf" y="136.382031"/>
    </g>
    <g clip-path="url(#p79c6df279d)">
     <use style="fill:#fcaf93;stroke:#000000;stroke-width:0.75;" x="218.289468" xlink:href="#C0_0_59e9a58edf" y="89.835518"/>
    </g>
    <g clip-path="url(#p79c6df279d)">
     <use style="fill:#fcaf93;stroke:#000000;stroke-width:0.75;" x="189.254945" xlink:href="#C0_0_59e9a58edf" y="94.570624"/>
    </g>
    <g clip-path="url(#p79c6df279d)">
     <use style="fill:#fcaf93;stroke:#000000;stroke-width:0.75;" x="236.238035" xlink:href="#C0_0_59e9a58edf" y="66.720529"/>
    </g>
    <g clip-path="url(#p79c6df279d)">
     <use style="fill:#fc8161;stroke:#000000;stroke-width:0.75;" x="334.315928" xlink:href="#C0_0_59e9a58edf" y="74.238879"/>
    </g>
    <g clip-path="url(#p79c6df279d)">
     <use style="fill:#fc8161;stroke:#000000;stroke-width:0.75;" x="262.424148" xlink:href="#C0_0_59e9a58edf" y="142.106142"/>
    </g>
    <g clip-path="url(#p79c6df279d)">
     <use style="fill:#fc8161;stroke:#000000;stroke-width:0.75;" x="173.027559" xlink:href="#C0_0_59e9a58edf" y="77.456896"/>
    </g>
    <g clip-path="url(#p79c6df279d)">
     <use style="fill:#f44f39;stroke:#000000;stroke-width:0.75;" x="205.405561" xlink:href="#C0_0_59e9a58edf" y="134.466322"/>
    </g>
    <g clip-path="url(#p79c6df279d)">
     <use style="fill:#f44f39;stroke:#000000;stroke-width:0.75;" x="218.941368" xlink:href="#C0_0_59e9a58edf" y="77.710833"/>
    </g>
    <g clip-path="url(#p79c6df279d)">
     <use style="fill:#f44f39;stroke:#000000;stroke-width:0.75;" x="242.955511" xlink:href="#C0_0_59e9a58edf" y="73.880493"/>
    </g>
    <g clip-path="url(#p79c6df279d)">
     <use style="fill:#f44f39;stroke:#000000;stroke-width:0.75;" x="200.427841" xlink:href="#C0_0_59e9a58edf" y="40.279224"/>
    </g>
    <g clip-path="url(#p79c6df279d)">
     <use style="fill:#d52221;stroke:#000000;stroke-width:0.75;" x="171.127107" xlink:href="#C0_0_59e9a58edf" y="62.511713"/>
    </g>
    <g clip-path="url(#p79c6df279d)">
     <use style="fill:#d52221;stroke:#000000;stroke-width:0.75;" x="169.643954" xlink:href="#C0_0_59e9a58edf" y="75.000988"/>
    </g>
    <g clip-path="url(#p79c6df279d)">
     <use style="fill:#d52221;stroke:#000000;stroke-width:0.75;" x="279.490457" xlink:href="#C0_0_59e9a58edf" y="61.924152"/>
    </g>
    <g clip-path="url(#p79c6df279d)">
     <use style="fill:#d52221;stroke:#000000;stroke-width:0.75;" x="178.788622" xlink:href="#C0_0_59e9a58edf" y="131.8769"/>
    </g>
    <g clip-path="url(#p79c6df279d)">
     <use style="fill:#aa1016;stroke:#000000;stroke-width:0.75;" x="240.881577" xlink:href="#C0_0_59e9a58edf" y="70.215274"/>
    </g>
    <g clip-path="url(#p79c6df279d)">
     <use style="fill:#aa1016;stroke:#000000;stroke-width:0.75;" x="156.403739" xlink:href="#C0_0_59e9a58edf" y="90.164356"/>
    </g>
    <g clip-path="url(#p79c6df279d)">
     <use style="fill:#aa1016;stroke:#000000;stroke-width:0.75;" x="83.590485" xlink:href="#C0_0_59e9a58edf" y="85.564782"/>
    </g>
    <g clip-path="url(#p79c6df279d)">
     <use style="fill:#aa1016;stroke:#000000;stroke-width:0.75;" x="320.007175" xlink:href="#C0_0_59e9a58edf" y="115.787779"/>
    </g>
   </g>
   <g id="PathCollection_2"/>
   <g id="PathCollection_3"/>
   <g id="PathCollection_4"/>
   <g id="PathCollection_5"/>
   <g id="PathCollection_6"/>
   <g id="PathCollection_7"/>
   <g id="PathCollection_8"/>
   <g id="PathCollection_9">
    <defs>
     <path d="M 0 3.872983 
C 1.027127 3.872983 2.012324 3.464901 2.738613 2.738613 
C 3.464901 2.012324 3.872983 1.027127 3.872983 0 
C 3.872983 -1.027127 3.464901 -2.012324 2.738613 -2.738613 
C 2.012324 -3.464901 1.027127 -3.872983 0 -3.872983 
C -1.027127 -3.872983 -2.012324 -3.464901 -2.738613 -2.738613 
C -3.464901 -2.012324 -3.872983 -1.027127 -3.872983 0 
C -3.872983 1.027127 -3.464901 2.012324 -2.738613 2.738613 
C -2.012324 3.464901 -1.027127 3.872983 0 3.872983 
z
" id="C1_0_cc93f1dc90"/>
    </defs>
    <g clip-path="url(#p79c6df279d)">
     <use style="fill:#dbe9f6;stroke:#000000;stroke-width:0.75;" x="103.650588" xlink:href="#C1_0_cc93f1dc90" y="215.738135"/>
    </g>
    <g clip-path="url(#p79c6df279d)">
     <use style="fill:#dbe9f6;stroke:#000000;stroke-width:0.75;" x="131.495243" xlink:href="#C1_0_cc93f1dc90" y="211.401258"/>
    </g>
    <g clip-path="url(#p79c6df279d)">
     <use style="fill:#dbe9f6;stroke:#000000;stroke-width:0.75;" x="116.649894" xlink:href="#C1_0_cc93f1dc90" y="188.978993"/>
    </g>
    <g clip-path="url(#p79c6df279d)">
     <use style="fill:#dbe9f6;stroke:#000000;stroke-width:0.75;" x="72.270519" xlink:href="#C1_0_cc93f1dc90" y="107.524439"/>
    </g>
    <g clip-path="url(#p79c6df279d)">
     <use style="fill:#bad6eb;stroke:#000000;stroke-width:0.75;" x="314.279607" xlink:href="#C1_0_cc93f1dc90" y="83.782975"/>
    </g>
    <g clip-path="url(#p79c6df279d)">
     <use style="fill:#bad6eb;stroke:#000000;stroke-width:0.75;" x="178.041141" xlink:href="#C1_0_cc93f1dc90" y="235.936596"/>
    </g>
    <g clip-path="url(#p79c6df279d)">
     <use style="fill:#bad6eb;stroke:#000000;stroke-width:0.75;" x="237.499559" xlink:href="#C1_0_cc93f1dc90" y="225.703175"/>
    </g>
    <g clip-path="url(#p79c6df279d)">
     <use style="fill:#bad6eb;stroke:#000000;stroke-width:0.75;" x="178.898314" xlink:href="#C1_0_cc93f1dc90" y="205.217539"/>
    </g>
    <g clip-path="url(#p79c6df279d)">
     <use style="fill:#89bedc;stroke:#000000;stroke-width:0.75;" x="269.64989" xlink:href="#C1_0_cc93f1dc90" y="233.56515"/>
    </g>
    <g clip-path="url(#p79c6df279d)">
     <use style="fill:#89bedc;stroke:#000000;stroke-width:0.75;" x="324.411912" xlink:href="#C1_0_cc93f1dc90" y="174.097251"/>
    </g>
    <g clip-path="url(#p79c6df279d)">
     <use style="fill:#89bedc;stroke:#000000;stroke-width:0.75;" x="356.691413" xlink:href="#C1_0_cc93f1dc90" y="193.076457"/>
    </g>
    <g clip-path="url(#p79c6df279d)">
     <use style="fill:#539ecd;stroke:#000000;stroke-width:0.75;" x="173.334628" xlink:href="#C1_0_cc93f1dc90" y="84.795011"/>
    </g>
    <g clip-path="url(#p79c6df279d)">
     <use style="fill:#539ecd;stroke:#000000;stroke-width:0.75;" x="370.252606" xlink:href="#C1_0_cc93f1dc90" y="203.735116"/>
    </g>
    <g clip-path="url(#p79c6df279d)">
     <use style="fill:#539ecd;stroke:#000000;stroke-width:0.75;" x="296.382565" xlink:href="#C1_0_cc93f1dc90" y="212.282465"/>
    </g>
    <g clip-path="url(#p79c6df279d)">
     <use style="fill:#539ecd;stroke:#000000;stroke-width:0.75;" x="207.835381" xlink:href="#C1_0_cc93f1dc90" y="182.444355"/>
    </g>
    <g clip-path="url(#p79c6df279d)">
     <use style="fill:#2b7bba;stroke:#000000;stroke-width:0.75;" x="164.776217" xlink:href="#C1_0_cc93f1dc90" y="127.682203"/>
    </g>
    <g clip-path="url(#p79c6df279d)">
     <use style="fill:#2b7bba;stroke:#000000;stroke-width:0.75;" x="217.541408" xlink:href="#C1_0_cc93f1dc90" y="160.380903"/>
    </g>
    <g clip-path="url(#p79c6df279d)">
     <use style="fill:#2b7bba;stroke:#000000;stroke-width:0.75;" x="112.762706" xlink:href="#C1_0_cc93f1dc90" y="192.00297"/>
    </g>
    <g clip-path="url(#p79c6df279d)">
     <use style="fill:#2b7bba;stroke:#000000;stroke-width:0.75;" x="168.601154" xlink:href="#C1_0_cc93f1dc90" y="206.57124"/>
    </g>
    <g clip-path="url(#p79c6df279d)">
     <use style="fill:#0b559f;stroke:#000000;stroke-width:0.75;" x="156.106919" xlink:href="#C1_0_cc93f1dc90" y="158.206837"/>
    </g>
    <g clip-path="url(#p79c6df279d)">
     <use style="fill:#0b559f;stroke:#000000;stroke-width:0.75;" x="147.635348" xlink:href="#C1_0_cc93f1dc90" y="216.248073"/>
    </g>
    <g clip-path="url(#p79c6df279d)">
     <use style="fill:#0b559f;stroke:#000000;stroke-width:0.75;" x="180.240318" xlink:href="#C1_0_cc93f1dc90" y="113.964652"/>
    </g>
    <g clip-path="url(#p79c6df279d)">
     <use style="fill:#0b559f;stroke:#000000;stroke-width:0.75;" x="183.610681" xlink:href="#C1_0_cc93f1dc90" y="210.632456"/>
    </g>
   </g>
   <g id="PathCollection_10"/>
   <g id="PathCollection_11"/>
   <g id="PathCollection_12"/>
   <g id="PathCollection_13"/>
   <g id="PathCollection_14"/>
   <g id="PathCollection_15"/>
   <g id="PathCollection_16"/>
   <g id="matplotlib.axis_1">
    <g id="xtick_1">
     <g id="line2d_1">
      <defs>
       <path d="M 0 0 
L 0 3.5 
" id="ma7492600ed" style="stroke:#000000;stroke-width:0.8;"/>
      </defs>
      <g>
       <use style="stroke:#000000;stroke-width:0.8;" x="56.389502" xlink:href="#ma7492600ed" y="247.81875"/>
      </g>
     </g>
     <g id="text_1">
      <text style="font-family:Arial;font-size:10px;font-style:normal;font-weight:normal;text-anchor:middle;" transform="rotate(-0, 56.389502, 261.976562)" x="56.389502" y="261.976562">−150</text>
     </g>
    </g>
    <g id="xtick_2">
     <g id="line2d_2">
      <g>
       <use style="stroke:#000000;stroke-width:0.8;" x="107.206788" xlink:href="#ma7492600ed" y="247.81875"/>
      </g>
     </g>
     <g id="text_2">
      <text style="font-family:Arial;font-size:10px;font-style:normal;font-weight:normal;text-anchor:middle;" transform="rotate(-0, 107.206788, 261.976562)" x="107.206788" y="261.976562">−100</text>
     </g>
    </g>
    <g id="xtick_3">
     <g id="line2d_3">
      <g>
       <use style="stroke:#000000;stroke-width:0.8;" x="158.024074" xlink:href="#ma7492600ed" y="247.81875"/>
      </g>
     </g>
     <g id="text_3">
      <text style="font-family:Arial;font-size:10px;font-style:normal;font-weight:normal;text-anchor:middle;" transform="rotate(-0, 158.024074, 261.976562)" x="158.024074" y="261.976562">−50</text>
     </g>
    </g>
    <g id="xtick_4">
     <g id="line2d_4">
      <g>
       <use style="stroke:#000000;stroke-width:0.8;" x="208.84136" xlink:href="#ma7492600ed" y="247.81875"/>
      </g>
     </g>
     <g id="text_4">
      <text style="font-family:Arial;font-size:10px;font-style:normal;font-weight:normal;text-anchor:middle;" transform="rotate(-0, 208.84136, 261.976562)" x="208.84136" y="261.976562">0</text>
     </g>
    </g>
    <g id="xtick_5">
     <g id="line2d_5">
      <g>
       <use style="stroke:#000000;stroke-width:0.8;" x="259.658645" xlink:href="#ma7492600ed" y="247.81875"/>
      </g>
     </g>
     <g id="text_5">
      <text style="font-family:Arial;font-size:10px;font-style:normal;font-weight:normal;text-anchor:middle;" transform="rotate(-0, 259.658645, 261.976562)" x="259.658645" y="261.976562">50</text>
     </g>
    </g>
    <g id="xtick_6">
     <g id="line2d_6">
      <g>
       <use style="stroke:#000000;stroke-width:0.8;" x="310.475931" xlink:href="#ma7492600ed" y="247.81875"/>
      </g>
     </g>
     <g id="text_6">
      <text style="font-family:Arial;font-size:10px;font-style:normal;font-weight:normal;text-anchor:middle;" transform="rotate(-0, 310.475931, 261.976562)" x="310.475931" y="261.976562">100</text>
     </g>
    </g>
    <g id="xtick_7">
     <g id="line2d_7">
      <g>
       <use style="stroke:#000000;stroke-width:0.8;" x="361.293217" xlink:href="#ma7492600ed" y="247.81875"/>
      </g>
     </g>
     <g id="text_7">
      <text style="font-family:Arial;font-size:10px;font-style:normal;font-weight:normal;text-anchor:middle;" transform="rotate(-0, 361.293217, 261.976562)" x="361.293217" y="261.976562">150</text>
     </g>
    </g>
    <g id="text_8">
     <text style="font-family:Arial;font-size:14px;font-style:normal;font-weight:normal;text-anchor:middle;" transform="rotate(-0, 221.261563, 278.155625)" x="221.261563" y="278.155625">Axis 1 (12.2%)</text>
    </g>
   </g>
   <g id="matplotlib.axis_2">
    <g id="ytick_1">
     <g id="line2d_8">
      <defs>
       <path d="M 0 0 
L -3.5 0 
" id="m0cc20e2067" style="stroke:#000000;stroke-width:0.8;"/>
      </defs>
      <g>
       <use style="stroke:#000000;stroke-width:0.8;" x="53.861563" xlink:href="#m0cc20e2067" y="223.418554"/>
      </g>
     </g>
     <g id="text_9">
      <text style="font-family:Arial;font-size:10px;font-style:normal;font-weight:normal;text-anchor:end;" transform="rotate(-0, 46.861563, 226.99746)" x="46.861563" y="226.99746">−100</text>
     </g>
    </g>
    <g id="ytick_2">
     <g id="line2d_9">
      <g>
       <use style="stroke:#000000;stroke-width:0.8;" x="53.861563" xlink:href="#m0cc20e2067" y="180.450763"/>
      </g>
     </g>
     <g id="text_10">
      <text style="font-family:Arial;font-size:10px;font-style:normal;font-weight:normal;text-anchor:end;" transform="rotate(-0, 46.861563, 184.02967)" x="46.861563" y="184.02967">−50</text>
     </g>
    </g>
    <g id="ytick_3">
     <g id="line2d_10">
      <g>
       <use style="stroke:#000000;stroke-width:0.8;" x="53.861563" xlink:href="#m0cc20e2067" y="137.482973"/>
      </g>
     </g>
     <g id="text_11">
      <text style="font-family:Arial;font-size:10px;font-style:normal;font-weight:normal;text-anchor:end;" transform="rotate(-0, 46.861563, 141.061879)" x="46.861563" y="141.061879">0</text>
     </g>
    </g>
    <g id="ytick_4">
     <g id="line2d_11">
      <g>
       <use style="stroke:#000000;stroke-width:0.8;" x="53.861563" xlink:href="#m0cc20e2067" y="94.515183"/>
      </g>
     </g>
     <g id="text_12">
      <text style="font-family:Arial;font-size:10px;font-style:normal;font-weight:normal;text-anchor:end;" transform="rotate(-0, 46.861563, 98.094089)" x="46.861563" y="98.094089">50</text>
     </g>
    </g>
    <g id="ytick_5">
     <g id="line2d_12">
      <g>
       <use style="stroke:#000000;stroke-width:0.8;" x="53.861563" xlink:href="#m0cc20e2067" y="51.547393"/>
      </g>
     </g>
     <g id="text_13">
      <text style="font-family:Arial;font-size:10px;font-style:normal;font-weight:normal;text-anchor:end;" transform="rotate(-0, 46.861563, 55.126299)" x="46.861563" y="55.126299">100</text>
     </g>
    </g>
    <g id="text_14">
     <text style="font-family:Arial;font-size:14px;font-style:normal;font-weight:normal;text-anchor:middle;" transform="rotate(-90, 17.391563, 139.09875)" x="17.391563" y="139.09875">Axis 2 (10.9%)</text>
    </g>
   </g>
   <g id="patch_3">
    <path d="M 53.861563 247.81875 
L 53.861563 30.37875 
" style="fill:none;stroke:#000000;stroke-linecap:square;stroke-linejoin:miter;stroke-width:0.8;"/>
   </g>
   <g id="patch_4">
    <path d="M 53.861562 247.81875 
L 388.661562 247.81875 
" style="fill:none;stroke:#000000;stroke-linecap:square;stroke-linejoin:miter;stroke-width:0.8;"/>
   </g>
   <g id="text_15">
    <text style="font-family:Arial;font-size:24px;font-style:normal;font-weight:normal;text-anchor:middle;" transform="rotate(-0, 221.261563, 24.37875)" x="221.261563" y="24.37875">Canberra</text>
   </g>
   <g id="legend_1">
    <g id="patch_5">
     <path d="M 407.401563 232.3225 
L 473.30625 232.3225 
Q 475.30625 232.3225 475.30625 230.3225 
L 475.30625 32.37875 
Q 475.30625 30.37875 473.30625 30.37875 
L 407.401563 30.37875 
Q 405.401563 30.37875 405.401563 32.37875 
L 405.401563 230.3225 
Q 405.401563 232.3225 407.401563 232.3225 
z
" style="fill:#ffffff;opacity:0.8;stroke:#cccccc;stroke-linejoin:miter;"/>
    </g>
    <g id="PathCollection_17">
     <defs>
      <path id="m2232768218" style="stroke:#ffffff;stroke-width:1.5;"/>
     </defs>
     <g>
      <use style="fill:#ffffff;stroke:#ffffff;stroke-width:1.5;" x="419.401563" xlink:href="#m2232768218" y="38.911562"/>
     </g>
    </g>
    <g id="text_16">
     <text style="font-family:Arial;font-size:10px;font-style:normal;font-weight:normal;text-anchor:start;" transform="rotate(-0, 437.401563, 41.536562)" x="437.401563" y="41.536562">both</text>
    </g>
    <g id="PathCollection_18">
     <defs>
      <path d="M 0 3 
C 0.795609 3 1.55874 2.683901 2.12132 2.12132 
C 2.683901 1.55874 3 0.795609 3 0 
C 3 -0.795609 2.683901 -1.55874 2.12132 -2.12132 
C 1.55874 -2.683901 0.795609 -3 0 -3 
C -0.795609 -3 -1.55874 -2.683901 -2.12132 -2.12132 
C -2.683901 -1.55874 -3 -0.795609 -3 0 
C -3 0.795609 -2.683901 1.55874 -2.12132 2.12132 
C -1.55874 2.683901 -0.795609 3 0 3 
z
" id="mca4d963af0" style="stroke:#fedbcc;"/>
     </defs>
     <g>
      <use style="fill:#fedbcc;stroke:#fedbcc;" x="419.401563" xlink:href="#mca4d963af0" y="53.086562"/>
     </g>
    </g>
    <g id="text_17">
     <text style="font-family:Arial;font-size:10px;font-style:normal;font-weight:normal;text-anchor:start;" transform="rotate(-0, 437.401563, 55.711562)" x="437.401563" y="55.711562">Air_2</text>
    </g>
    <g id="PathCollection_19">
     <defs>
      <path d="M 0 3 
C 0.795609 3 1.55874 2.683901 2.12132 2.12132 
C 2.683901 1.55874 3 0.795609 3 0 
C 3 -0.795609 2.683901 -1.55874 2.12132 -2.12132 
C 1.55874 -2.683901 0.795609 -3 0 -3 
C -0.795609 -3 -1.55874 -2.683901 -2.12132 -2.12132 
C -2.683901 -1.55874 -3 -0.795609 -3 0 
C -3 0.795609 -2.683901 1.55874 -2.12132 2.12132 
C -1.55874 2.683901 -0.795609 3 0 3 
z
" id="m20632b9e13" style="stroke:#fcaf93;"/>
     </defs>
     <g>
      <use style="fill:#fcaf93;stroke:#fcaf93;" x="419.401563" xlink:href="#m20632b9e13" y="67.261562"/>
     </g>
    </g>
    <g id="text_18">
     <text style="font-family:Arial;font-size:10px;font-style:normal;font-weight:normal;text-anchor:start;" transform="rotate(-0, 437.401563, 69.886562)" x="437.401563" y="69.886562">Air_6</text>
    </g>
    <g id="PathCollection_20">
     <defs>
      <path d="M 0 3 
C 0.795609 3 1.55874 2.683901 2.12132 2.12132 
C 2.683901 1.55874 3 0.795609 3 0 
C 3 -0.795609 2.683901 -1.55874 2.12132 -2.12132 
C 1.55874 -2.683901 0.795609 -3 0 -3 
C -0.795609 -3 -1.55874 -2.683901 -2.12132 -2.12132 
C -2.683901 -1.55874 -3 -0.795609 -3 0 
C -3 0.795609 -2.683901 1.55874 -2.12132 2.12132 
C -1.55874 2.683901 -0.795609 3 0 3 
z
" id="mde033135e9" style="stroke:#fc8161;"/>
     </defs>
     <g>
      <use style="fill:#fc8161;stroke:#fc8161;" x="419.401563" xlink:href="#mde033135e9" y="81.436562"/>
     </g>
    </g>
    <g id="text_19">
     <text style="font-family:Arial;font-size:10px;font-style:normal;font-weight:normal;text-anchor:start;" transform="rotate(-0, 437.401563, 84.061562)" x="437.401563" y="84.061562">Air_10</text>
    </g>
    <g id="PathCollection_21">
     <defs>
      <path d="M 0 3 
C 0.795609 3 1.55874 2.683901 2.12132 2.12132 
C 2.683901 1.55874 3 0.795609 3 0 
C 3 -0.795609 2.683901 -1.55874 2.12132 -2.12132 
C 1.55874 -2.683901 0.795609 -3 0 -3 
C -0.795609 -3 -1.55874 -2.683901 -2.12132 -2.12132 
C -2.683901 -1.55874 -3 -0.795609 -3 0 
C -3 0.795609 -2.683901 1.55874 -2.12132 2.12132 
C -1.55874 2.683901 -0.795609 3 0 3 
z
" id="me1ad23058a" style="stroke:#f44f39;"/>
     </defs>
     <g>
      <use style="fill:#f44f39;stroke:#f44f39;" x="419.401563" xlink:href="#me1ad23058a" y="95.611562"/>
     </g>
    </g>
    <g id="text_20">
     <text style="font-family:Arial;font-size:10px;font-style:normal;font-weight:normal;text-anchor:start;" transform="rotate(-0, 437.401563, 98.236562)" x="437.401563" y="98.236562">Air_14</text>
    </g>
    <g id="PathCollection_22">
     <defs>
      <path d="M 0 3 
C 0.795609 3 1.55874 2.683901 2.12132 2.12132 
C 2.683901 1.55874 3 0.795609 3 0 
C 3 -0.795609 2.683901 -1.55874 2.12132 -2.12132 
C 1.55874 -2.683901 0.795609 -3 0 -3 
C -0.795609 -3 -1.55874 -2.683901 -2.12132 -2.12132 
C -2.683901 -1.55874 -3 -0.795609 -3 0 
C -3 0.795609 -2.683901 1.55874 -2.12132 2.12132 
C -1.55874 2.683901 -0.795609 3 0 3 
z
" id="m6188e7205a" style="stroke:#d52221;"/>
     </defs>
     <g>
      <use style="fill:#d52221;stroke:#d52221;" x="419.401563" xlink:href="#m6188e7205a" y="109.786562"/>
     </g>
    </g>
    <g id="text_21">
     <text style="font-family:Arial;font-size:10px;font-style:normal;font-weight:normal;text-anchor:start;" transform="rotate(-0, 437.401563, 112.411562)" x="437.401563" y="112.411562">Air_18</text>
    </g>
    <g id="PathCollection_23">
     <defs>
      <path d="M 0 3 
C 0.795609 3 1.55874 2.683901 2.12132 2.12132 
C 2.683901 1.55874 3 0.795609 3 0 
C 3 -0.795609 2.683901 -1.55874 2.12132 -2.12132 
C 1.55874 -2.683901 0.795609 -3 0 -3 
C -0.795609 -3 -1.55874 -2.683901 -2.12132 -2.12132 
C -2.683901 -1.55874 -3 -0.795609 -3 0 
C -3 0.795609 -2.683901 1.55874 -2.12132 2.12132 
C -1.55874 2.683901 -0.795609 3 0 3 
z
" id="m83438352db" style="stroke:#aa1016;"/>
     </defs>
     <g>
      <use style="fill:#aa1016;stroke:#aa1016;" x="419.401563" xlink:href="#m83438352db" y="123.961562"/>
     </g>
    </g>
    <g id="text_22">
     <text style="font-family:Arial;font-size:10px;font-style:normal;font-weight:normal;text-anchor:start;" transform="rotate(-0, 437.401563, 126.586562)" x="437.401563" y="126.586562">Air_22</text>
    </g>
    <g id="PathCollection_24">
     <g>
      <use style="fill:#ffffff;stroke:#ffffff;stroke-width:1.5;" x="419.401563" xlink:href="#m2232768218" y="138.106875"/>
     </g>
    </g>
    <g id="text_23">
     <text style="font-family:Arial;font-size:10px;font-style:normal;font-weight:normal;text-anchor:start;" transform="rotate(-0, 437.401563, 140.731875)" x="437.401563" y="140.731875">both</text>
    </g>
    <g id="PathCollection_25">
     <defs>
      <path d="M 0 3 
C 0.795609 3 1.55874 2.683901 2.12132 2.12132 
C 2.683901 1.55874 3 0.795609 3 0 
C 3 -0.795609 2.683901 -1.55874 2.12132 -2.12132 
C 1.55874 -2.683901 0.795609 -3 0 -3 
C -0.795609 -3 -1.55874 -2.683901 -2.12132 -2.12132 
C -2.683901 -1.55874 -3 -0.795609 -3 0 
C -3 0.795609 -2.683901 1.55874 -2.12132 2.12132 
C -1.55874 2.683901 -0.795609 3 0 3 
z
" id="m0569093e15" style="stroke:#dbe9f6;"/>
     </defs>
     <g>
      <use style="fill:#dbe9f6;stroke:#dbe9f6;" x="419.401563" xlink:href="#m0569093e15" y="152.374062"/>
     </g>
    </g>
    <g id="text_24">
     <text style="font-family:Arial;font-size:10px;font-style:normal;font-weight:normal;text-anchor:start;" transform="rotate(-0, 437.401563, 154.999062)" x="437.401563" y="154.999062">IHC_2</text>
    </g>
    <g id="PathCollection_26">
     <defs>
      <path d="M 0 3 
C 0.795609 3 1.55874 2.683901 2.12132 2.12132 
C 2.683901 1.55874 3 0.795609 3 0 
C 3 -0.795609 2.683901 -1.55874 2.12132 -2.12132 
C 1.55874 -2.683901 0.795609 -3 0 -3 
C -0.795609 -3 -1.55874 -2.683901 -2.12132 -2.12132 
C -2.683901 -1.55874 -3 -0.795609 -3 0 
C -3 0.795609 -2.683901 1.55874 -2.12132 2.12132 
C -1.55874 2.683901 -0.795609 3 0 3 
z
" id="m6f9d934f4d" style="stroke:#bad6eb;"/>
     </defs>
     <g>
      <use style="fill:#bad6eb;stroke:#bad6eb;" x="419.401563" xlink:href="#m6f9d934f4d" y="166.64125"/>
     </g>
    </g>
    <g id="text_25">
     <text style="font-family:Arial;font-size:10px;font-style:normal;font-weight:normal;text-anchor:start;" transform="rotate(-0, 437.401563, 169.26625)" x="437.401563" y="169.26625">IHC_6</text>
    </g>
    <g id="PathCollection_27">
     <defs>
      <path d="M 0 3 
C 0.795609 3 1.55874 2.683901 2.12132 2.12132 
C 2.683901 1.55874 3 0.795609 3 0 
C 3 -0.795609 2.683901 -1.55874 2.12132 -2.12132 
C 1.55874 -2.683901 0.795609 -3 0 -3 
C -0.795609 -3 -1.55874 -2.683901 -2.12132 -2.12132 
C -2.683901 -1.55874 -3 -0.795609 -3 0 
C -3 0.795609 -2.683901 1.55874 -2.12132 2.12132 
C -1.55874 2.683901 -0.795609 3 0 3 
z
" id="m35ada2f9e0" style="stroke:#89bedc;"/>
     </defs>
     <g>
      <use style="fill:#89bedc;stroke:#89bedc;" x="419.401563" xlink:href="#m35ada2f9e0" y="180.908437"/>
     </g>
    </g>
    <g id="text_26">
     <text style="font-family:Arial;font-size:10px;font-style:normal;font-weight:normal;text-anchor:start;" transform="rotate(-0, 437.401563, 183.533437)" x="437.401563" y="183.533437">IHC_10</text>
    </g>
    <g id="PathCollection_28">
     <defs>
      <path d="M 0 3 
C 0.795609 3 1.55874 2.683901 2.12132 2.12132 
C 2.683901 1.55874 3 0.795609 3 0 
C 3 -0.795609 2.683901 -1.55874 2.12132 -2.12132 
C 1.55874 -2.683901 0.795609 -3 0 -3 
C -0.795609 -3 -1.55874 -2.683901 -2.12132 -2.12132 
C -2.683901 -1.55874 -3 -0.795609 -3 0 
C -3 0.795609 -2.683901 1.55874 -2.12132 2.12132 
C -1.55874 2.683901 -0.795609 3 0 3 
z
" id="maacb0ee728" style="stroke:#539ecd;"/>
     </defs>
     <g>
      <use style="fill:#539ecd;stroke:#539ecd;" x="419.401563" xlink:href="#maacb0ee728" y="195.175625"/>
     </g>
    </g>
    <g id="text_27">
     <text style="font-family:Arial;font-size:10px;font-style:normal;font-weight:normal;text-anchor:start;" transform="rotate(-0, 437.401563, 197.800625)" x="437.401563" y="197.800625">IHC_14</text>
    </g>
    <g id="PathCollection_29">
     <defs>
      <path d="M 0 3 
C 0.795609 3 1.55874 2.683901 2.12132 2.12132 
C 2.683901 1.55874 3 0.795609 3 0 
C 3 -0.795609 2.683901 -1.55874 2.12132 -2.12132 
C 1.55874 -2.683901 0.795609 -3 0 -3 
C -0.795609 -3 -1.55874 -2.683901 -2.12132 -2.12132 
C -2.683901 -1.55874 -3 -0.795609 -3 0 
C -3 0.795609 -2.683901 1.55874 -2.12132 2.12132 
C -1.55874 2.683901 -0.795609 3 0 3 
z
" id="mfd52d993ee" style="stroke:#2b7bba;"/>
     </defs>
     <g>
      <use style="fill:#2b7bba;stroke:#2b7bba;" x="419.401563" xlink:href="#mfd52d993ee" y="209.442812"/>
     </g>
    </g>
    <g id="text_28">
     <text style="font-family:Arial;font-size:10px;font-style:normal;font-weight:normal;text-anchor:start;" transform="rotate(-0, 437.401563, 212.067812)" x="437.401563" y="212.067812">IHC_18</text>
    </g>
    <g id="PathCollection_30">
     <defs>
      <path d="M 0 3 
C 0.795609 3 1.55874 2.683901 2.12132 2.12132 
C 2.683901 1.55874 3 0.795609 3 0 
C 3 -0.795609 2.683901 -1.55874 2.12132 -2.12132 
C 1.55874 -2.683901 0.795609 -3 0 -3 
C -0.795609 -3 -1.55874 -2.683901 -2.12132 -2.12132 
C -2.683901 -1.55874 -3 -0.795609 -3 0 
C -3 0.795609 -2.683901 1.55874 -2.12132 2.12132 
C -1.55874 2.683901 -0.795609 3 0 3 
z
" id="m01dd12a3bd" style="stroke:#0b559f;"/>
     </defs>
     <g>
      <use style="fill:#0b559f;stroke:#0b559f;" x="419.401563" xlink:href="#m01dd12a3bd" y="223.71"/>
     </g>
    </g>
    <g id="text_29">
     <text style="font-family:Arial;font-size:10px;font-style:normal;font-weight:normal;text-anchor:start;" transform="rotate(-0, 437.401563, 226.335)" x="437.401563" y="226.335">IHC_22</text>
    </g>
   </g>
  </g>
 </g>
 <defs>
  <clipPath id="p79c6df279d">
   <rect height="217.44" width="334.8" x="53.861563" y="30.37875"/>
  </clipPath>
 </defs>
</svg>
