<?xml version="1.0" encoding="utf-8" standalone="no"?>
<!DOCTYPE svg PUBLIC "-//W3C//DTD SVG 1.1//EN"
  "http://www.w3.org/Graphics/SVG/1.1/DTD/svg11.dtd">
<!-- Created with matplotlib (https://matplotlib.org/) -->
<svg height="279.64625pt" version="1.1" viewBox="0 0 898.137187 279.64625" width="898.137187pt" xmlns="http://www.w3.org/2000/svg" xmlns:xlink="http://www.w3.org/1999/xlink">
 <defs>
  <style type="text/css">
*{stroke-linecap:butt;stroke-linejoin:round;white-space:pre;}
  </style>
 </defs>
 <g id="figure_1">
  <g id="patch_1">
   <path d="M 0 279.64625 
L 898.137187 279.64625 
L 898.137187 0 
L 0 0 
z
" style="fill:#ffffff;"/>
  </g>
  <g id="axes_1">
   <g id="patch_2">
    <path d="M 44.903438 239.375625 
L 379.703438 239.375625 
L 379.703438 21.935625 
L 44.903438 21.935625 
z
" style="fill:#ffffff;"/>
   </g>
   <g id="PolyCollection_1">
    <defs>
     <path d="M 44.903438 -94.885168 
L 44.903438 -40.270625 
L 111.863438 -40.270625 
L 178.823438 -40.270625 
L 245.783438 -40.270625 
L 312.743438 -40.270625 
L 379.703438 -40.270625 
L 379.703438 -84.621482 
L 379.703438 -84.621482 
L 312.743438 -126.901482 
L 245.783438 -83.396225 
L 178.823438 -141.552796 
L 111.863438 -106.145454 
L 44.903438 -94.885168 
z
" id="mf4eada1147" style="stroke:#fde725;"/>
    </defs>
    <g clip-path="url(#p773ec319e0)">
     <use style="fill:#fde725;stroke:#fde725;" x="0" xlink:href="#mf4eada1147" y="279.64625"/>
    </g>
   </g>
   <g id="PolyCollection_2">
    <defs>
     <path d="M 44.903438 -140.534625 
L 44.903438 -94.885168 
L 111.863438 -106.145454 
L 178.823438 -141.552796 
L 245.783438 -83.396225 
L 312.743438 -126.901482 
L 379.703438 -84.621482 
L 379.703438 -118.674139 
L 379.703438 -118.674139 
L 312.743438 -172.460339 
L 245.783438 -124.72133 
L 178.823438 -177.969682 
L 111.863438 -156.139396 
L 44.903438 -140.534625 
z
" id="mda3221a587" style="stroke:#7ad151;"/>
    </defs>
    <g clip-path="url(#p773ec319e0)">
     <use style="fill:#7ad151;stroke:#7ad151;" x="0" xlink:href="#mda3221a587" y="279.64625"/>
    </g>
   </g>
   <g id="PolyCollection_3">
    <defs>
     <path d="M 44.903438 -195.593539 
L 44.903438 -140.534625 
L 111.863438 -156.139396 
L 178.823438 -177.969682 
L 245.783438 -124.72133 
L 312.743438 -172.460339 
L 379.703438 -118.674139 
L 379.703438 -202.897625 
L 379.703438 -202.897625 
L 312.743438 -208.898796 
L 245.783438 -202.108111 
L 178.823438 -218.653396 
L 111.863438 -205.585425 
L 44.903438 -195.593539 
z
" id="md9f00524b2" style="stroke:#22a884;"/>
    </defs>
    <g clip-path="url(#p773ec319e0)">
     <use style="fill:#22a884;stroke:#22a884;" x="0" xlink:href="#md9f00524b2" y="279.64625"/>
    </g>
   </g>
   <g id="PolyCollection_4">
    <defs>
     <path d="M 44.903438 -213.260539 
L 44.903438 -195.593539 
L 111.863438 -205.585425 
L 178.823438 -218.653396 
L 245.783438 -202.108111 
L 312.743438 -208.898796 
L 379.703438 -202.897625 
L 379.703438 -219.162482 
L 379.703438 -219.162482 
L 312.743438 -222.152282 
L 245.783438 -220.262625 
L 178.823438 -230.603968 
L 111.863438 -221.600054 
L 44.903438 -213.260539 
z
" id="m9fb5217ab6" style="stroke:#2a788e;"/>
    </defs>
    <g clip-path="url(#p773ec319e0)">
     <use style="fill:#2a788e;stroke:#2a788e;" x="0" xlink:href="#m9fb5217ab6" y="279.64625"/>
    </g>
   </g>
   <g id="PolyCollection_5">
    <defs>
     <path d="M 44.903438 -228.843739 
L 44.903438 -213.260539 
L 111.863438 -221.600054 
L 178.823438 -230.603968 
L 245.783438 -220.262625 
L 312.743438 -222.152282 
L 379.703438 -219.162482 
L 379.703438 -232.886225 
L 379.703438 -232.886225 
L 312.743438 -232.571282 
L 245.783438 -233.608149 
L 178.823438 -232.657568 
L 111.863438 -227.579654 
L 44.903438 -228.843739 
z
" id="md58c6deb97" style="stroke:#414487;"/>
    </defs>
    <g clip-path="url(#p773ec319e0)">
     <use style="fill:#414487;stroke:#414487;" x="0" xlink:href="#md58c6deb97" y="279.64625"/>
    </g>
   </g>
   <g id="PolyCollection_6">
    <defs>
     <path d="M 44.903438 -247.356339 
L 44.903438 -228.843739 
L 111.863438 -227.579654 
L 178.823438 -232.657568 
L 245.783438 -233.608149 
L 312.743438 -232.571282 
L 379.703438 -232.886225 
L 379.703438 -247.356339 
L 379.703438 -247.356339 
L 312.743438 -247.356339 
L 245.783438 -247.356339 
L 178.823438 -247.356339 
L 111.863438 -247.356339 
L 44.903438 -247.356339 
z
" id="m1cae05a329" style="stroke:#440154;"/>
    </defs>
    <g clip-path="url(#p773ec319e0)">
     <use style="fill:#440154;stroke:#440154;" x="0" xlink:href="#m1cae05a329" y="279.64625"/>
    </g>
   </g>
   <g id="patch_3">
    <path clip-path="url(#p773ec319e0)" d="M 48.251438 229.021339 
L 212.303438 229.021339 
L 212.303438 218.667054 
L 48.251438 218.667054 
z
" style="fill:#800080;stroke:#800080;stroke-linejoin:miter;"/>
   </g>
   <g id="patch_4">
    <path clip-path="url(#p773ec319e0)" d="M 44.903438 239.168539 
L 245.783438 239.168539 
L 245.783438 228.814254 
L 44.903438 228.814254 
z
" style="fill:#ffffff;stroke:#000000;stroke-linejoin:miter;"/>
   </g>
   <g id="patch_5">
    <path clip-path="url(#p773ec319e0)" d="M 212.303438 239.168539 
L 413.183438 239.168539 
L 413.183438 228.814254 
L 212.303438 228.814254 
z
" style="stroke:#000000;stroke-linejoin:miter;"/>
   </g>
   <g id="matplotlib.axis_1">
    <g id="xtick_1">
     <g id="line2d_1">
      <defs>
       <path d="M 0 0 
L 0 3.5 
" id="m6690c3193d" style="stroke:#000000;stroke-width:0.8;"/>
      </defs>
      <g>
       <use style="stroke:#000000;stroke-width:0.8;" x="44.903438" xlink:href="#m6690c3193d" y="239.375625"/>
      </g>
     </g>
     <g id="text_1">
      <text style="font-family:Arial;font-size:10px;font-style:normal;font-weight:normal;text-anchor:middle;" transform="rotate(-0, 44.903438, 253.655313)" x="44.903438" y="253.655313">IHC_2</text>
     </g>
    </g>
    <g id="xtick_2">
     <g id="line2d_2">
      <g>
       <use style="stroke:#000000;stroke-width:0.8;" x="111.863438" xlink:href="#m6690c3193d" y="239.375625"/>
      </g>
     </g>
     <g id="text_2">
      <text style="font-family:Arial;font-size:10px;font-style:normal;font-weight:normal;text-anchor:middle;" transform="rotate(-0, 111.863438, 253.655313)" x="111.863438" y="253.655313">IHC_6</text>
     </g>
    </g>
    <g id="xtick_3">
     <g id="line2d_3">
      <g>
       <use style="stroke:#000000;stroke-width:0.8;" x="178.823438" xlink:href="#m6690c3193d" y="239.375625"/>
      </g>
     </g>
     <g id="text_3">
      <text style="font-family:Arial;font-size:10px;font-style:normal;font-weight:normal;text-anchor:middle;" transform="rotate(-0, 178.823438, 253.655313)" x="178.823438" y="253.655313">IHC_10</text>
     </g>
    </g>
    <g id="xtick_4">
     <g id="line2d_4">
      <g>
       <use style="stroke:#000000;stroke-width:0.8;" x="245.783438" xlink:href="#m6690c3193d" y="239.375625"/>
      </g>
     </g>
     <g id="text_4">
      <text style="font-family:Arial;font-size:10px;font-style:normal;font-weight:normal;text-anchor:middle;" transform="rotate(-0, 245.783438, 253.655313)" x="245.783438" y="253.655313">IHC_14</text>
     </g>
    </g>
    <g id="xtick_5">
     <g id="line2d_5">
      <g>
       <use style="stroke:#000000;stroke-width:0.8;" x="312.743438" xlink:href="#m6690c3193d" y="239.375625"/>
      </g>
     </g>
     <g id="text_5">
      <text style="font-family:Arial;font-size:10px;font-style:normal;font-weight:normal;text-anchor:middle;" transform="rotate(-0, 312.743438, 253.655313)" x="312.743438" y="253.655313">IHC_18</text>
     </g>
    </g>
    <g id="xtick_6">
     <g id="line2d_6">
      <g>
       <use style="stroke:#000000;stroke-width:0.8;" x="379.703438" xlink:href="#m6690c3193d" y="239.375625"/>
      </g>
     </g>
     <g id="text_6">
      <text style="font-family:Arial;font-size:10px;font-style:normal;font-weight:normal;text-anchor:middle;" transform="rotate(-0, 379.703438, 253.655313)" x="379.703438" y="253.655313">IHC_22</text>
     </g>
    </g>
    <g id="text_7">
     <text style="font-family:Arial;font-size:14px;font-style:normal;font-weight:normal;text-anchor:middle;" transform="rotate(-0, 212.303438, 269.66375)" x="212.303438" y="269.66375">ZT</text>
    </g>
   </g>
   <g id="matplotlib.axis_2">
    <g id="ytick_1">
     <g id="line2d_7">
      <defs>
       <path d="M 0 0 
L -3.5 0 
" id="mc44c182101" style="stroke:#000000;stroke-width:0.8;"/>
      </defs>
      <g>
       <use style="stroke:#000000;stroke-width:0.8;" x="44.903438" xlink:href="#mc44c182101" y="239.375625"/>
      </g>
     </g>
     <g id="text_8">
      <text style="font-family:Arial;font-size:10px;font-style:normal;font-weight:normal;text-anchor:end;" transform="rotate(-0, 37.903438, 242.954531)" x="37.903438" y="242.954531">0.0</text>
     </g>
    </g>
    <g id="ytick_2">
     <g id="line2d_8">
      <g>
       <use style="stroke:#000000;stroke-width:0.8;" x="44.903438" xlink:href="#mc44c182101" y="197.958482"/>
      </g>
     </g>
     <g id="text_9">
      <text style="font-family:Arial;font-size:10px;font-style:normal;font-weight:normal;text-anchor:end;" transform="rotate(-0, 37.903438, 201.537388)" x="37.903438" y="201.537388">0.2</text>
     </g>
    </g>
    <g id="ytick_3">
     <g id="line2d_9">
      <g>
       <use style="stroke:#000000;stroke-width:0.8;" x="44.903438" xlink:href="#mc44c182101" y="156.541339"/>
      </g>
     </g>
     <g id="text_10">
      <text style="font-family:Arial;font-size:10px;font-style:normal;font-weight:normal;text-anchor:end;" transform="rotate(-0, 37.903438, 160.120246)" x="37.903438" y="160.120246">0.4</text>
     </g>
    </g>
    <g id="ytick_4">
     <g id="line2d_10">
      <g>
       <use style="stroke:#000000;stroke-width:0.8;" x="44.903438" xlink:href="#mc44c182101" y="115.124196"/>
      </g>
     </g>
     <g id="text_11">
      <text style="font-family:Arial;font-size:10px;font-style:normal;font-weight:normal;text-anchor:end;" transform="rotate(-0, 37.903438, 118.703103)" x="37.903438" y="118.703103">0.6</text>
     </g>
    </g>
    <g id="ytick_5">
     <g id="line2d_11">
      <g>
       <use style="stroke:#000000;stroke-width:0.8;" x="44.903438" xlink:href="#mc44c182101" y="73.707054"/>
      </g>
     </g>
     <g id="text_12">
      <text style="font-family:Arial;font-size:10px;font-style:normal;font-weight:normal;text-anchor:end;" transform="rotate(-0, 37.903438, 77.28596)" x="37.903438" y="77.28596">0.8</text>
     </g>
    </g>
    <g id="ytick_6">
     <g id="line2d_12">
      <g>
       <use style="stroke:#000000;stroke-width:0.8;" x="44.903438" xlink:href="#mc44c182101" y="32.289911"/>
      </g>
     </g>
     <g id="text_13">
      <text style="font-family:Arial;font-size:10px;font-style:normal;font-weight:normal;text-anchor:end;" transform="rotate(-0, 37.903438, 35.868817)" x="37.903438" y="35.868817">1.0</text>
     </g>
    </g>
    <g id="text_14">
     <text style="font-family:Arial;font-size:14px;font-style:normal;font-weight:normal;text-anchor:middle;" transform="rotate(-90, 17.220938, 130.655625)" x="17.220938" y="130.655625">Relative Abundance</text>
    </g>
   </g>
   <g id="line2d_13">
    <path clip-path="url(#p773ec319e0)" d="M 44.903438 184.761082 
L 111.863438 173.500796 
L 178.823438 138.093454 
L 245.783438 196.250025 
L 312.743438 152.744768 
L 379.703438 195.024768 
" style="fill:none;stroke:#fde725;stroke-linecap:square;stroke-width:1.5;"/>
   </g>
   <g id="line2d_14">
    <path clip-path="url(#p773ec319e0)" d="M 44.903438 139.111625 
L 111.863438 123.506854 
L 178.823438 101.676568 
L 245.783438 154.92492 
L 312.743438 107.185911 
L 379.703438 160.972111 
" style="fill:none;stroke:#7ad151;stroke-linecap:square;stroke-width:1.5;"/>
   </g>
   <g id="line2d_15">
    <path clip-path="url(#p773ec319e0)" d="M 44.903438 84.052711 
L 111.863438 74.060825 
L 178.823438 60.992854 
L 245.783438 77.538139 
L 312.743438 70.747454 
L 379.703438 76.748625 
" style="fill:none;stroke:#22a884;stroke-linecap:square;stroke-width:1.5;"/>
   </g>
   <g id="line2d_16">
    <path clip-path="url(#p773ec319e0)" d="M 44.903438 66.385711 
L 111.863438 58.046196 
L 178.823438 49.042282 
L 245.783438 59.383625 
L 312.743438 57.493968 
L 379.703438 60.483768 
" style="fill:none;stroke:#2a788e;stroke-linecap:square;stroke-width:1.5;"/>
   </g>
   <g id="line2d_17">
    <path clip-path="url(#p773ec319e0)" d="M 44.903438 50.802511 
L 111.863438 52.066596 
L 178.823438 46.988682 
L 245.783438 46.038101 
L 312.743438 47.074968 
L 379.703438 46.760025 
" style="fill:none;stroke:#414487;stroke-linecap:square;stroke-width:1.5;"/>
   </g>
   <g id="line2d_18">
    <path clip-path="url(#p773ec319e0)" d="M 44.903438 32.289911 
L 111.863438 32.289911 
L 178.823438 32.289911 
L 245.783438 32.289911 
L 312.743438 32.289911 
L 379.703438 32.289911 
" style="fill:none;stroke:#440154;stroke-linecap:square;stroke-width:1.5;"/>
   </g>
   <g id="patch_6">
    <path d="M 44.903438 239.375625 
L 44.903438 21.935625 
" style="fill:none;stroke:#000000;stroke-linecap:square;stroke-linejoin:miter;stroke-width:0.8;"/>
   </g>
   <g id="patch_7">
    <path d="M 44.903438 239.375625 
L 379.703438 239.375625 
" style="fill:none;stroke:#000000;stroke-linecap:square;stroke-linejoin:miter;stroke-width:0.8;"/>
   </g>
   <g id="text_15">
    <text style="fill:#0000ff;font-family:Arial;font-size:14px;font-style:normal;font-weight:normal;text-anchor:middle;" transform="rotate(-0, 346.223438, 218.667054)" x="346.223438" y="218.667054">IHC</text>
   </g>
   <g id="text_16">
    <text style="fill:#ffffff;font-family:Arial;font-size:10px;font-style:normal;font-weight:normal;text-anchor:middle;" transform="rotate(-0, 125.255437, 227.157568)" x="125.255437" y="227.157568">IHC Exposure</text>
   </g>
   <g id="text_17">
    <text style="font-family:Arial;font-size:12px;font-style:normal;font-weight:normal;text-anchor:middle;" transform="rotate(-0, 212.303438, 15.935625)" x="212.303438" y="15.935625">IHC Top 5 Families</text>
   </g>
   <g id="legend_1">
    <g id="patch_8">
     <path d="M 398.443438 110.416875 
L 888.937188 110.416875 
Q 890.937188 110.416875 890.937188 108.416875 
L 890.937188 23.935625 
Q 890.937188 21.935625 888.937188 21.935625 
L 398.443438 21.935625 
Q 396.443438 21.935625 396.443438 23.935625 
L 396.443438 108.416875 
Q 396.443438 110.416875 398.443438 110.416875 
z
" style="fill:#ffffff;opacity:0.8;stroke:#cccccc;stroke-linejoin:miter;"/>
    </g>
    <g id="patch_9">
     <path d="M 400.443438 33.215312 
L 420.443438 33.215312 
L 420.443438 26.215312 
L 400.443438 26.215312 
z
" style="fill:#fde725;stroke:#fde725;stroke-linejoin:miter;"/>
    </g>
    <g id="text_18">
     <text style="font-family:Arial;font-size:10px;font-style:normal;font-weight:normal;text-anchor:start;" transform="rotate(-0, 428.443438, 33.215312)" x="428.443438" y="33.215312">k__Bacteria;p__Verrucomicrobia;c__Verrucomicrobiae;o__Verrucomicrobiales;f__Verrucomicrobiaceae</text>
    </g>
    <g id="patch_10">
     <path d="M 400.443438 47.4825 
L 420.443438 47.4825 
L 420.443438 40.4825 
L 400.443438 40.4825 
z
" style="fill:#7ad151;stroke:#7ad151;stroke-linejoin:miter;"/>
    </g>
    <g id="text_19">
     <text style="font-family:Arial;font-size:10px;font-style:normal;font-weight:normal;text-anchor:start;" transform="rotate(-0, 428.443438, 47.4825)" x="428.443438" y="47.4825">k__Bacteria;p__Firmicutes;c__Clostridia;o__Clostridiales;f__Lachnospiraceae</text>
    </g>
    <g id="patch_11">
     <path d="M 400.443438 61.749687 
L 420.443438 61.749687 
L 420.443438 54.749687 
L 400.443438 54.749687 
z
" style="fill:#22a884;stroke:#22a884;stroke-linejoin:miter;"/>
    </g>
    <g id="text_20">
     <text style="font-family:Arial;font-size:10px;font-style:normal;font-weight:normal;text-anchor:start;" transform="rotate(-0, 428.443438, 61.749687)" x="428.443438" y="61.749687">k__Bacteria;p__Bacteroidetes;c__Bacteroidia;o__Bacteroidales;f__S24-7</text>
    </g>
    <g id="patch_12">
     <path d="M 400.443438 76.016875 
L 420.443438 76.016875 
L 420.443438 69.016875 
L 400.443438 69.016875 
z
" style="fill:#2a788e;stroke:#2a788e;stroke-linejoin:miter;"/>
    </g>
    <g id="text_21">
     <text style="font-family:Arial;font-size:10px;font-style:normal;font-weight:normal;text-anchor:start;" transform="rotate(-0, 428.443438, 76.016875)" x="428.443438" y="76.016875">k__Bacteria;p__Firmicutes;c__Clostridia;o__Clostridiales;f__Ruminococcaceae</text>
    </g>
    <g id="patch_13">
     <path d="M 400.443438 90.284063 
L 420.443438 90.284063 
L 420.443438 83.284063 
L 400.443438 83.284063 
z
" style="fill:#414487;stroke:#414487;stroke-linejoin:miter;"/>
    </g>
    <g id="text_22">
     <text style="font-family:Arial;font-size:10px;font-style:normal;font-weight:normal;text-anchor:start;" transform="rotate(-0, 428.443438, 90.284063)" x="428.443438" y="90.284063">k__Bacteria;p__Firmicutes;c__Bacilli;o__Lactobacillales;f__Streptococcaceae</text>
    </g>
    <g id="patch_14">
     <path d="M 400.443438 104.429375 
L 420.443438 104.429375 
L 420.443438 97.429375 
L 400.443438 97.429375 
z
" style="fill:#440154;stroke:#440154;stroke-linejoin:miter;"/>
    </g>
    <g id="text_23">
     <text style="font-family:Arial;font-size:10px;font-style:normal;font-weight:normal;text-anchor:start;" transform="rotate(-0, 428.443438, 104.429375)" x="428.443438" y="104.429375">Other Families</text>
    </g>
   </g>
  </g>
 </g>
 <defs>
  <clipPath id="p773ec319e0">
   <rect height="217.44" width="334.8" x="44.903438" y="21.935625"/>
  </clipPath>
 </defs>
</svg>
