<?xml version="1.0" encoding="utf-8" standalone="no"?>
<!DOCTYPE svg PUBLIC "-//W3C//DTD SVG 1.1//EN"
  "http://www.w3.org/Graphics/SVG/1.1/DTD/svg11.dtd">
<!-- Created with matplotlib (https://matplotlib.org/) -->
<svg height="231.84pt" version="1.1" viewBox="0 0 380.215478 231.84" width="380.215478pt" xmlns="http://www.w3.org/2000/svg" xmlns:xlink="http://www.w3.org/1999/xlink">
 <defs>
  <style type="text/css">
*{stroke-linecap:butt;stroke-linejoin:round;white-space:pre;}
  </style>
 </defs>
 <g id="figure_1">
  <g id="patch_1">
   <path d="M 0 231.84 
L 380.215478 231.84 
L 380.215478 0 
L 0 0 
z
" style="fill:#ffffff;"/>
  </g>
  <g id="axes_1">
   <g id="patch_2">
    <path d="M 171.315896 36.01434 
C 155.045018 36.01434 139.096031 40.580108 125.290024 49.190315 
C 111.484018 57.800522 100.367248 70.114491 93.209051 84.726188 
C 86.050854 99.337885 83.134455 115.669175 84.792854 131.855317 
C 86.451254 148.041459 92.618835 163.442022 102.59137 176.298539 
C 112.563905 189.155056 125.946815 198.958837 141.212012 204.590467 
C 156.477209 210.222097 173.0207 211.458751 188.953515 208.159225 
C 204.886331 204.859699 219.578063 197.154545 231.35118 185.923552 
C 243.124298 174.69256 251.512977 160.380101 255.559382 144.620403 
L 171.315896 122.99034 
L 171.315896 36.01434 
z
" style="fill:#4c0000;opacity:0.5;stroke:#4c0000;stroke-linejoin:miter;"/>
   </g>
   <g id="patch_3">
    <path d="M 262.431835 139.289583 
C 265.730355 126.442703 266.046918 113.009906 263.357234 100.021905 
C 260.667551 87.033904 255.04222 74.831613 246.91288 64.351327 
C 238.783539 53.871041 228.363571 45.387851 216.452511 39.55268 
C 204.541452 33.71751 191.451945 30.683522 178.188365 30.68352 
L 178.188349 117.65952 
L 262.431835 139.289583 
z
" style="fill:#2a0000;opacity:0.5;stroke:#2a0000;stroke-linejoin:miter;"/>
   </g>
   <g id="patch_4">
    <path d="M 173.055416 34.27482 
C 156.784538 34.27482 140.835551 38.840588 127.029544 47.450795 
C 113.223538 56.061002 102.106768 68.374971 94.948571 82.986668 
C 87.790374 97.598365 84.873975 113.929655 86.532374 130.115797 
C 88.190774 146.301939 94.358355 161.702502 104.33089 174.559019 
C 114.303425 187.415536 127.686335 197.219317 142.951532 202.850947 
C 158.216729 208.482577 174.76022 209.719231 190.693035 206.419705 
C 206.625851 203.120179 221.317583 195.415025 233.0907 184.184032 
C 244.863818 172.95304 253.252497 158.640581 257.298902 142.880883 
L 173.055416 121.25082 
L 173.055416 34.27482 
z
" style="fill:#ff0000;"/>
   </g>
   <g id="patch_5">
    <path d="M 264.171355 137.550063 
C 267.469875 124.703183 267.786438 111.270386 265.096754 98.282385 
C 262.407071 85.294384 256.78174 73.092093 248.6524 62.611807 
C 240.523059 52.131521 230.103091 43.648331 218.192031 37.81316 
C 206.280972 31.97799 193.191465 28.944002 179.927885 28.944 
L 179.927869 115.92 
L 264.171355 137.550063 
z
" style="fill:#8b0000;"/>
   </g>
   <g id="matplotlib.axis_1"/>
   <g id="matplotlib.axis_2"/>
   <g id="text_1">
    <text style="font-family:Arial;font-size:14px;font-style:normal;font-weight:normal;text-anchor:end;" transform="rotate(-0, 97.458438, 183.512339)" x="97.458438" y="183.512339">Cycling Reads</text>
   </g>
   <g id="text_2">
    <text style="fill:#ffffff;font-family:Arial;font-size:14px;font-style:normal;font-weight:normal;text-anchor:middle;" transform="rotate(-0, 118.075795, 167.516598)" x="118.075795" y="167.516598">71%</text>
   </g>
   <g id="text_3">
    <text style="font-family:Arial;font-size:14px;font-style:normal;font-weight:normal;text-anchor:start;" transform="rotate(-0, 255.524853, 60.818175)" x="255.524853" y="60.818175">Non-cycling Reads</text>
   </g>
   <g id="text_4">
    <text style="fill:#ffffff;font-family:Arial;font-size:14px;font-style:normal;font-weight:normal;text-anchor:middle;" transform="rotate(-0, 234.907493, 76.892664)" x="234.907493" y="76.892664">29%</text>
   </g>
  </g>
 </g>
</svg>
