<?xml version="1.0" encoding="utf-8" standalone="no"?>
<!DOCTYPE svg PUBLIC "-//W3C//DTD SVG 1.1//EN"
  "http://www.w3.org/Graphics/SVG/1.1/DTD/svg11.dtd">
<!-- Created with matplotlib (https://matplotlib.org/) -->
<svg height="231.84pt" version="1.1" viewBox="0 0 330.955017 231.84" width="330.955017pt" xmlns="http://www.w3.org/2000/svg" xmlns:xlink="http://www.w3.org/1999/xlink">
 <defs>
  <style type="text/css">
*{stroke-linecap:butt;stroke-linejoin:round;white-space:pre;}
  </style>
 </defs>
 <g id="figure_1">
  <g id="patch_1">
   <path d="M 0 231.84 
L 330.955017 231.84 
L 330.955017 0 
L 0 0 
z
" style="fill:#ffffff;"/>
  </g>
  <g id="axes_1">
   <g id="patch_2">
    <path d="M 196.544455 28.944 
C 195.542539 28.944 194.540697 28.961312 193.539379 28.995929 
C 192.538061 29.030546 191.537415 29.082462 190.537891 29.151655 
L 196.544455 115.92 
L 196.544455 28.944 
z
" style="fill:#f0ffff;stroke:#000000;stroke-linejoin:miter;"/>
   </g>
   <g id="patch_3">
    <path d="M 190.537891 29.151655 
C 175.877482 30.166526 161.710653 34.880576 149.365063 42.852022 
C 137.019473 50.823468 126.893218 61.795262 119.935291 74.739172 
C 112.977365 87.683082 109.412132 102.181718 109.573713 116.876324 
C 109.735294 131.570929 113.618478 145.987663 120.859348 158.775444 
L 196.544455 115.92 
L 190.537891 29.151655 
z
" style="fill:#87ceeb;stroke:#000000;stroke-linejoin:miter;"/>
   </g>
   <g id="patch_4">
    <path d="M 120.859348 158.775444 
C 126.7137 169.114557 134.62503 178.145236 144.104046 185.308962 
C 153.583062 192.472687 164.430236 197.618667 175.974705 200.428638 
L 196.544455 115.92 
L 120.859348 158.775444 
z
" style="fill:#0000ff;stroke:#000000;stroke-linejoin:miter;"/>
   </g>
   <g id="patch_5">
    <path d="M 175.974705 200.428638 
C 176.859696 200.644049 177.748016 200.845544 178.639336 201.03305 
C 179.530656 201.220556 180.424866 201.394049 181.321636 201.553465 
L 196.544455 115.92 
L 175.974705 200.428638 
z
" style="fill:#000080;stroke:#000000;stroke-linejoin:miter;"/>
   </g>
   <g id="patch_6">
    <path d="M 181.321636 201.553465 
C 193.201002 203.665226 205.390852 203.282147 217.114179 200.428645 
C 228.837506 197.575143 239.839813 192.313164 249.41979 184.978117 
C 258.999767 177.643071 266.949446 168.394191 272.762098 157.82102 
C 278.57475 147.247849 282.124191 135.579916 283.184171 123.56096 
C 284.244151 111.542004 282.79166 99.432939 278.919282 88.005622 
C 275.046905 76.578306 268.838705 66.080809 260.690406 57.182265 
C 252.542108 48.28372 242.630599 41.177302 231.587659 36.31599 
C 220.54472 31.454677 208.610077 28.944002 196.544471 28.944 
L 196.544455 115.92 
L 181.321636 201.553465 
z
" style="fill:#808080;stroke:#000000;stroke-linejoin:miter;"/>
   </g>
   <g id="matplotlib.axis_1"/>
   <g id="matplotlib.axis_2"/>
   <g id="text_1">
    <text style="font-family:Arial;font-size:14px;font-style:normal;font-weight:normal;text-anchor:end;" transform="rotate(-0, 193.238871, 23.922741)" x="193.238871" y="23.922741">phosphoethanolamines</text>
   </g>
   <g id="text_2">
    <text style="fill:#ffffff;font-family:Arial;font-size:14px;font-style:normal;font-weight:normal;text-anchor:middle;" transform="rotate(-0, 194.140394, 49.999962)" x="194.140394" y="49.999962">1.1%</text>
   </g>
   <g id="text_3">
    <text style="font-family:Arial;font-size:14px;font-style:normal;font-weight:normal;text-anchor:end;" transform="rotate(-0, 112.274375, 74.240308)" x="112.274375" y="74.240308">phosphocholines</text>
   </g>
   <g id="text_4">
    <text style="fill:#ffffff;font-family:Arial;font-size:14px;font-style:normal;font-weight:normal;text-anchor:middle;" transform="rotate(-0, 135.257124, 86.594557)" x="135.257124" y="86.594557">32.1%</text>
   </g>
   <g id="text_5">
    <text style="font-family:Arial;font-size:14px;font-style:normal;font-weight:normal;text-anchor:end;" transform="rotate(-0, 138.860005, 195.867077)" x="138.860005" y="195.867077">bile acids</text>
   </g>
   <g id="text_6">
    <text style="fill:#ffffff;font-family:Arial;font-size:14px;font-style:normal;font-weight:normal;text-anchor:middle;" transform="rotate(-0, 154.592128, 175.050388)" x="154.592128" y="175.050388">13.0%</text>
   </g>
   <g id="text_7">
    <text style="font-family:Arial;font-size:14px;font-style:normal;font-weight:normal;text-anchor:end;" transform="rotate(-0, 176.848824, 213.081542)" x="176.848824" y="213.081542">acylcarnitines</text>
   </g>
   <g id="text_8">
    <text style="fill:#ffffff;font-family:Arial;font-size:14px;font-style:normal;font-weight:normal;text-anchor:middle;" transform="rotate(-0, 182.22036, 187.629659)" x="182.22036" y="187.629659">1.0%</text>
   </g>
   <g id="text_9">
    <text style="font-family:Arial;font-size:14px;font-style:normal;font-weight:normal;text-anchor:start;" transform="rotate(-0, 291.848142, 127.944275)" x="291.848142" y="127.944275">other</text>
   </g>
   <g id="text_10">
    <text style="fill:#ffffff;font-family:Arial;font-size:14px;font-style:normal;font-weight:normal;text-anchor:middle;" transform="rotate(-0, 265.856228, 125.651987)" x="265.856228" y="125.651987">52.8%</text>
   </g>
  </g>
 </g>
</svg>
