<?xml version="1.0" encoding="utf-8" standalone="no"?>
<!DOCTYPE svg PUBLIC "-//W3C//DTD SVG 1.1//EN"
  "http://www.w3.org/Graphics/SVG/1.1/DTD/svg11.dtd">
<!-- Created with matplotlib (https://matplotlib.org/) -->
<svg height="287.79875pt" version="1.1" viewBox="0 0 456.865313 287.79875" width="456.865313pt" xmlns="http://www.w3.org/2000/svg" xmlns:xlink="http://www.w3.org/1999/xlink">
 <defs>
  <style type="text/css">
*{stroke-linecap:butt;stroke-linejoin:round;white-space:pre;}
  </style>
 </defs>
 <g id="figure_1">
  <g id="patch_1">
   <path d="M 0 287.79875 
L 456.865313 287.79875 
L 456.865313 0 
L 0 0 
z
" style="fill:#ffffff;"/>
  </g>
  <g id="axes_1">
   <g id="patch_2">
    <path d="M 44.903438 245.199375 
L 379.703438 245.199375 
L 379.703438 27.759375 
L 44.903438 27.759375 
z
" style="fill:#ffffff;"/>
   </g>
   <g id="patch_3">
    <path clip-path="url(#pbd3f6d4b7d)" d="M 62.313038 181.919279 
L 127.933838 181.919279 
L 127.933838 147.347611 
L 62.313038 147.347611 
L 62.313038 181.919279 
z
" style="fill:#df2020;stroke:#4c4c4c;stroke-linejoin:miter;stroke-width:1.5;"/>
   </g>
   <g id="patch_4">
    <path clip-path="url(#pbd3f6d4b7d)" d="M 129.273038 180.51002 
L 194.893838 180.51002 
L 194.893838 103.68419 
L 129.273038 103.68419 
L 129.273038 180.51002 
z
" style="fill:#2020df;stroke:#4c4c4c;stroke-linejoin:miter;stroke-width:1.5;"/>
   </g>
   <g id="patch_5">
    <path clip-path="url(#pbd3f6d4b7d)" d="M 229.713038 204.326282 
L 295.333838 204.326282 
L 295.333838 183.31897 
L 229.713038 183.31897 
L 229.713038 204.326282 
z
" style="fill:#df2020;stroke:#4c4c4c;stroke-linejoin:miter;stroke-width:1.5;"/>
   </g>
   <g id="patch_6">
    <path clip-path="url(#pbd3f6d4b7d)" d="M 296.673038 191.971814 
L 362.293837 191.971814 
L 362.293837 125.116336 
L 296.673038 125.116336 
L 296.673038 191.971814 
z
" style="fill:#2020df;stroke:#4c4c4c;stroke-linejoin:miter;stroke-width:1.5;"/>
   </g>
   <g id="PathCollection_1"/>
   <g id="PathCollection_2"/>
   <g id="patch_7">
    <path clip-path="url(#pbd3f6d4b7d)" d="M 128.603438 236.141583 
L 128.603438 236.141583 
L 128.603438 236.141583 
L 128.603438 236.141583 
z
" style="fill:#df2020;stroke:#4c4c4c;stroke-linejoin:miter;stroke-width:0.75;"/>
   </g>
   <g id="patch_8">
    <path clip-path="url(#pbd3f6d4b7d)" d="M 128.603438 236.141583 
L 128.603438 236.141583 
L 128.603438 236.141583 
L 128.603438 236.141583 
z
" style="fill:#2020df;stroke:#4c4c4c;stroke-linejoin:miter;stroke-width:0.75;"/>
   </g>
   <g id="matplotlib.axis_1">
    <g id="xtick_1">
     <g id="line2d_1">
      <defs>
       <path d="M 0 0 
L 0 3.5 
" id="mf9388c361b" style="stroke:#000000;stroke-width:0.8;"/>
      </defs>
      <g>
       <use style="stroke:#000000;stroke-width:0.8;" x="128.603438" xlink:href="#mf9388c361b" y="245.199375"/>
      </g>
     </g>
     <g id="text_1">
      <text style="font-family:Arial;font-size:12px;font-style:normal;font-weight:normal;text-anchor:middle;" transform="rotate(-0, 128.603438, 260.935)" x="128.603438" y="260.935">Light/Inactive</text>
     </g>
    </g>
    <g id="xtick_2">
     <g id="line2d_2">
      <g>
       <use style="stroke:#000000;stroke-width:0.8;" x="296.003438" xlink:href="#mf9388c361b" y="245.199375"/>
      </g>
     </g>
     <g id="text_2">
      <text style="font-family:Arial;font-size:12px;font-style:normal;font-weight:normal;text-anchor:middle;" transform="rotate(-0, 296.003438, 260.935)" x="296.003438" y="260.935">Night/Active</text>
     </g>
    </g>
    <g id="text_3">
     <text style="font-family:Arial;font-size:14px;font-style:normal;font-weight:normal;text-anchor:middle;" transform="rotate(-0, 212.303438, 277.652187)" x="212.303438" y="277.652187">Phase of Cycle</text>
    </g>
   </g>
   <g id="matplotlib.axis_2">
    <g id="ytick_1">
     <g id="line2d_3">
      <defs>
       <path d="M 0 0 
L -3.5 0 
" id="m6502e4d6d5" style="stroke:#000000;stroke-width:0.8;"/>
      </defs>
      <g>
       <use style="stroke:#000000;stroke-width:0.8;" x="44.903438" xlink:href="#m6502e4d6d5" y="236.141583"/>
      </g>
     </g>
     <g id="text_4">
      <text style="font-family:Arial;font-size:10px;font-style:normal;font-weight:normal;text-anchor:end;" transform="rotate(-0, 37.903438, 239.72049)" x="37.903438" y="239.72049">0.0</text>
     </g>
    </g>
    <g id="ytick_2">
     <g id="line2d_4">
      <g>
       <use style="stroke:#000000;stroke-width:0.8;" x="44.903438" xlink:href="#m6502e4d6d5" y="206.140588"/>
      </g>
     </g>
     <g id="text_5">
      <text style="font-family:Arial;font-size:10px;font-style:normal;font-weight:normal;text-anchor:end;" transform="rotate(-0, 37.903438, 209.719494)" x="37.903438" y="209.719494">0.1</text>
     </g>
    </g>
    <g id="ytick_3">
     <g id="line2d_5">
      <g>
       <use style="stroke:#000000;stroke-width:0.8;" x="44.903438" xlink:href="#m6502e4d6d5" y="176.139592"/>
      </g>
     </g>
     <g id="text_6">
      <text style="font-family:Arial;font-size:10px;font-style:normal;font-weight:normal;text-anchor:end;" transform="rotate(-0, 37.903438, 179.718498)" x="37.903438" y="179.718498">0.2</text>
     </g>
    </g>
    <g id="ytick_4">
     <g id="line2d_6">
      <g>
       <use style="stroke:#000000;stroke-width:0.8;" x="44.903438" xlink:href="#m6502e4d6d5" y="146.138596"/>
      </g>
     </g>
     <g id="text_7">
      <text style="font-family:Arial;font-size:10px;font-style:normal;font-weight:normal;text-anchor:end;" transform="rotate(-0, 37.903438, 149.717502)" x="37.903438" y="149.717502">0.3</text>
     </g>
    </g>
    <g id="ytick_5">
     <g id="line2d_7">
      <g>
       <use style="stroke:#000000;stroke-width:0.8;" x="44.903438" xlink:href="#m6502e4d6d5" y="116.1376"/>
      </g>
     </g>
     <g id="text_8">
      <text style="font-family:Arial;font-size:10px;font-style:normal;font-weight:normal;text-anchor:end;" transform="rotate(-0, 37.903438, 119.716507)" x="37.903438" y="119.716507">0.4</text>
     </g>
    </g>
    <g id="ytick_6">
     <g id="line2d_8">
      <g>
       <use style="stroke:#000000;stroke-width:0.8;" x="44.903438" xlink:href="#m6502e4d6d5" y="86.136605"/>
      </g>
     </g>
     <g id="text_9">
      <text style="font-family:Arial;font-size:10px;font-style:normal;font-weight:normal;text-anchor:end;" transform="rotate(-0, 37.903438, 89.715511)" x="37.903438" y="89.715511">0.5</text>
     </g>
    </g>
    <g id="ytick_7">
     <g id="line2d_9">
      <g>
       <use style="stroke:#000000;stroke-width:0.8;" x="44.903438" xlink:href="#m6502e4d6d5" y="56.135609"/>
      </g>
     </g>
     <g id="text_10">
      <text style="font-family:Arial;font-size:10px;font-style:normal;font-weight:normal;text-anchor:end;" transform="rotate(-0, 37.903438, 59.714515)" x="37.903438" y="59.714515">0.6</text>
     </g>
    </g>
    <g id="text_11">
     <text style="font-family:Arial;font-size:14px;font-style:normal;font-weight:normal;text-anchor:middle;" transform="rotate(-90, 17.220938, 136.479375)" x="17.220938" y="136.479375">Relative Abundance</text>
    </g>
   </g>
   <g id="line2d_10">
    <path clip-path="url(#pbd3f6d4b7d)" d="M 95.123438 181.919279 
L 95.123438 187.756824 
" style="fill:none;stroke:#4c4c4c;stroke-linecap:square;stroke-width:1.5;"/>
   </g>
   <g id="line2d_11">
    <path clip-path="url(#pbd3f6d4b7d)" d="M 95.123438 147.347611 
L 95.123438 96.876209 
" style="fill:none;stroke:#4c4c4c;stroke-linecap:square;stroke-width:1.5;"/>
   </g>
   <g id="line2d_12">
    <path clip-path="url(#pbd3f6d4b7d)" d="M 78.718238 187.756824 
L 111.528638 187.756824 
" style="fill:none;stroke:#4c4c4c;stroke-linecap:square;stroke-width:1.5;"/>
   </g>
   <g id="line2d_13">
    <path clip-path="url(#pbd3f6d4b7d)" d="M 78.718238 96.876209 
L 111.528638 96.876209 
" style="fill:none;stroke:#4c4c4c;stroke-linecap:square;stroke-width:1.5;"/>
   </g>
   <g id="line2d_14"/>
   <g id="line2d_15">
    <path clip-path="url(#pbd3f6d4b7d)" d="M 162.083438 180.51002 
L 162.083438 223.582541 
" style="fill:none;stroke:#4c4c4c;stroke-linecap:square;stroke-width:1.5;"/>
   </g>
   <g id="line2d_16">
    <path clip-path="url(#pbd3f6d4b7d)" d="M 162.083438 103.68419 
L 162.083438 42.399351 
" style="fill:none;stroke:#4c4c4c;stroke-linecap:square;stroke-width:1.5;"/>
   </g>
   <g id="line2d_17">
    <path clip-path="url(#pbd3f6d4b7d)" d="M 145.678238 223.582541 
L 178.488638 223.582541 
" style="fill:none;stroke:#4c4c4c;stroke-linecap:square;stroke-width:1.5;"/>
   </g>
   <g id="line2d_18">
    <path clip-path="url(#pbd3f6d4b7d)" d="M 145.678238 42.399351 
L 178.488638 42.399351 
" style="fill:none;stroke:#4c4c4c;stroke-linecap:square;stroke-width:1.5;"/>
   </g>
   <g id="line2d_19"/>
   <g id="line2d_20">
    <path clip-path="url(#pbd3f6d4b7d)" d="M 262.523438 204.326282 
L 262.523438 219.111092 
" style="fill:none;stroke:#4c4c4c;stroke-linecap:square;stroke-width:1.5;"/>
   </g>
   <g id="line2d_21">
    <path clip-path="url(#pbd3f6d4b7d)" d="M 262.523438 183.31897 
L 262.523438 173.103253 
" style="fill:none;stroke:#4c4c4c;stroke-linecap:square;stroke-width:1.5;"/>
   </g>
   <g id="line2d_22">
    <path clip-path="url(#pbd3f6d4b7d)" d="M 246.118238 219.111092 
L 278.928638 219.111092 
" style="fill:none;stroke:#4c4c4c;stroke-linecap:square;stroke-width:1.5;"/>
   </g>
   <g id="line2d_23">
    <path clip-path="url(#pbd3f6d4b7d)" d="M 246.118238 173.103253 
L 278.928638 173.103253 
" style="fill:none;stroke:#4c4c4c;stroke-linecap:square;stroke-width:1.5;"/>
   </g>
   <g id="line2d_24">
    <defs>
     <path d="M -0 3.535534 
L 2.12132 0 
L -0 -3.535534 
L -2.12132 -0 
z
" id="m4fe90d5e5d" style="stroke:#4c4c4c;stroke-linejoin:miter;"/>
    </defs>
    <g clip-path="url(#pbd3f6d4b7d)">
     <use style="fill:#4c4c4c;stroke:#4c4c4c;stroke-linejoin:miter;" x="262.523438" xlink:href="#m4fe90d5e5d" y="99.155247"/>
     <use style="fill:#4c4c4c;stroke:#4c4c4c;stroke-linejoin:miter;" x="262.523438" xlink:href="#m4fe90d5e5d" y="99.155247"/>
    </g>
   </g>
   <g id="line2d_25">
    <path clip-path="url(#pbd3f6d4b7d)" d="M 329.483438 191.971814 
L 329.483438 230.43909 
" style="fill:none;stroke:#4c4c4c;stroke-linecap:square;stroke-width:1.5;"/>
   </g>
   <g id="line2d_26">
    <path clip-path="url(#pbd3f6d4b7d)" d="M 329.483438 125.116336 
L 329.483438 83.854326 
" style="fill:none;stroke:#4c4c4c;stroke-linecap:square;stroke-width:1.5;"/>
   </g>
   <g id="line2d_27">
    <path clip-path="url(#pbd3f6d4b7d)" d="M 313.078238 230.43909 
L 345.888638 230.43909 
" style="fill:none;stroke:#4c4c4c;stroke-linecap:square;stroke-width:1.5;"/>
   </g>
   <g id="line2d_28">
    <path clip-path="url(#pbd3f6d4b7d)" d="M 313.078238 83.854326 
L 345.888638 83.854326 
" style="fill:none;stroke:#4c4c4c;stroke-linecap:square;stroke-width:1.5;"/>
   </g>
   <g id="line2d_29"/>
   <g id="line2d_30">
    <path clip-path="url(#pbd3f6d4b7d)" d="M 62.313038 171.434716 
L 127.933838 171.434716 
" style="fill:none;stroke:#4c4c4c;stroke-linecap:square;stroke-width:1.5;"/>
   </g>
   <g id="line2d_31">
    <path clip-path="url(#pbd3f6d4b7d)" d="M 129.273038 132.828834 
L 194.893838 132.828834 
" style="fill:none;stroke:#4c4c4c;stroke-linecap:square;stroke-width:1.5;"/>
   </g>
   <g id="line2d_32">
    <path clip-path="url(#pbd3f6d4b7d)" d="M 229.713038 194.668556 
L 295.333838 194.668556 
" style="fill:none;stroke:#4c4c4c;stroke-linecap:square;stroke-width:1.5;"/>
   </g>
   <g id="line2d_33">
    <path clip-path="url(#pbd3f6d4b7d)" d="M 296.673038 180.91344 
L 362.293837 180.91344 
" style="fill:none;stroke:#4c4c4c;stroke-linecap:square;stroke-width:1.5;"/>
   </g>
   <g id="patch_9">
    <path d="M 44.903438 245.199375 
L 44.903438 27.759375 
" style="fill:none;stroke:#000000;stroke-linecap:square;stroke-linejoin:miter;stroke-width:0.8;"/>
   </g>
   <g id="patch_10">
    <path d="M 379.703438 245.199375 
L 379.703438 27.759375 
" style="fill:none;stroke:#000000;stroke-linecap:square;stroke-linejoin:miter;stroke-width:0.8;"/>
   </g>
   <g id="patch_11">
    <path d="M 44.903438 245.199375 
L 379.703438 245.199375 
" style="fill:none;stroke:#000000;stroke-linecap:square;stroke-linejoin:miter;stroke-width:0.8;"/>
   </g>
   <g id="patch_12">
    <path d="M 44.903438 27.759375 
L 379.703438 27.759375 
" style="fill:none;stroke:#000000;stroke-linecap:square;stroke-linejoin:miter;stroke-width:0.8;"/>
   </g>
   <g id="PathCollection_3">
    <defs>
     <path d="M 0 5 
C 1.326016 5 2.597899 4.473168 3.535534 3.535534 
C 4.473168 2.597899 5 1.326016 5 0 
C 5 -1.326016 4.473168 -2.597899 3.535534 -3.535534 
C 2.597899 -4.473168 1.326016 -5 0 -5 
C -1.326016 -5 -2.597899 -4.473168 -3.535534 -3.535534 
C -4.473168 -2.597899 -5 -1.326016 -5 0 
C -5 1.326016 -4.473168 2.597899 -3.535534 3.535534 
C -2.597899 4.473168 -1.326016 5 0 5 
z
" id="C0_0_fb3ce6c086"/>
    </defs>
    <g clip-path="url(#pbd3f6d4b7d)">
     <use style="fill:#ff0000;stroke:#000000;" x="95.123437" xlink:href="#C0_0_fb3ce6c086" y="187.756824"/>
    </g>
    <g clip-path="url(#pbd3f6d4b7d)">
     <use style="fill:#ff0000;stroke:#000000;" x="83.573437" xlink:href="#C0_0_fb3ce6c086" y="187.756824"/>
    </g>
    <g clip-path="url(#pbd3f6d4b7d)">
     <use style="fill:#ff0000;stroke:#000000;" x="106.633228" xlink:href="#C0_0_fb3ce6c086" y="186.839751"/>
    </g>
    <g clip-path="url(#pbd3f6d4b7d)">
     <use style="fill:#ff0000;stroke:#000000;" x="72.063647" xlink:href="#C0_0_fb3ce6c086" y="186.839751"/>
    </g>
    <g clip-path="url(#pbd3f6d4b7d)">
     <use style="fill:#ff0000;stroke:#000000;" x="117.291431" xlink:href="#C0_0_fb3ce6c086" y="182.601367"/>
    </g>
    <g clip-path="url(#pbd3f6d4b7d)">
     <use style="fill:#ff0000;stroke:#000000;" x="62.313038" xlink:href="#C0_0_fb3ce6c086" y="182.601367"/>
    </g>
    <g clip-path="url(#pbd3f6d4b7d)">
     <use style="fill:#ff0000;stroke:#000000;" x="127.933838" xlink:href="#C0_0_fb3ce6c086" y="179.873015"/>
    </g>
    <g clip-path="url(#pbd3f6d4b7d)">
     <use style="fill:#ff0000;stroke:#000000;" x="62.313038" xlink:href="#C0_0_fb3ce6c086" y="179.873015"/>
    </g>
    <g clip-path="url(#pbd3f6d4b7d)">
     <use style="fill:#ff0000;stroke:#000000;" x="95.123437" xlink:href="#C0_0_fb3ce6c086" y="175.329485"/>
    </g>
    <g clip-path="url(#pbd3f6d4b7d)">
     <use style="fill:#ff0000;stroke:#000000;" x="83.573437" xlink:href="#C0_0_fb3ce6c086" y="175.329485"/>
    </g>
    <g clip-path="url(#pbd3f6d4b7d)">
     <use style="fill:#ff0000;stroke:#000000;" x="105.925216" xlink:href="#C0_0_fb3ce6c086" y="171.434716"/>
    </g>
    <g clip-path="url(#pbd3f6d4b7d)">
     <use style="fill:#ff0000;stroke:#000000;" x="72.771659" xlink:href="#C0_0_fb3ce6c086" y="171.434716"/>
    </g>
    <g clip-path="url(#pbd3f6d4b7d)">
     <use style="fill:#ff0000;stroke:#000000;" x="116.639819" xlink:href="#C0_0_fb3ce6c086" y="167.327339"/>
    </g>
    <g clip-path="url(#pbd3f6d4b7d)">
     <use style="fill:#ff0000;stroke:#000000;" x="62.313038" xlink:href="#C0_0_fb3ce6c086" y="167.327339"/>
    </g>
    <g clip-path="url(#pbd3f6d4b7d)">
     <use style="fill:#ff0000;stroke:#000000;" x="95.123437" xlink:href="#C0_0_fb3ce6c086" y="162.475668"/>
    </g>
    <g clip-path="url(#pbd3f6d4b7d)">
     <use style="fill:#ff0000;stroke:#000000;" x="83.573437" xlink:href="#C0_0_fb3ce6c086" y="162.475668"/>
    </g>
    <g clip-path="url(#pbd3f6d4b7d)">
     <use style="fill:#ff0000;stroke:#000000;" x="95.123437" xlink:href="#C0_0_fb3ce6c086" y="142.304925"/>
    </g>
    <g clip-path="url(#pbd3f6d4b7d)">
     <use style="fill:#ff0000;stroke:#000000;" x="83.573437" xlink:href="#C0_0_fb3ce6c086" y="142.304925"/>
    </g>
    <g clip-path="url(#pbd3f6d4b7d)">
     <use style="fill:#ff0000;stroke:#000000;" x="106.089378" xlink:href="#C0_0_fb3ce6c086" y="138.851228"/>
    </g>
    <g clip-path="url(#pbd3f6d4b7d)">
     <use style="fill:#ff0000;stroke:#000000;" x="72.607497" xlink:href="#C0_0_fb3ce6c086" y="138.851228"/>
    </g>
    <g clip-path="url(#pbd3f6d4b7d)">
     <use style="fill:#ff0000;stroke:#000000;" x="95.123437" xlink:href="#C0_0_fb3ce6c086" y="96.876209"/>
    </g>
    <g clip-path="url(#pbd3f6d4b7d)">
     <use style="fill:#ff0000;stroke:#000000;" x="83.573437" xlink:href="#C0_0_fb3ce6c086" y="96.876209"/>
    </g>
   </g>
   <g id="PathCollection_4">
    <defs>
     <path d="M 0 5 
C 1.326016 5 2.597899 4.473168 3.535534 3.535534 
C 4.473168 2.597899 5 1.326016 5 0 
C 5 -1.326016 4.473168 -2.597899 3.535534 -3.535534 
C 2.597899 -4.473168 1.326016 -5 0 -5 
C -1.326016 -5 -2.597899 -4.473168 -3.535534 -3.535534 
C -4.473168 -2.597899 -5 -1.326016 -5 0 
C -5 1.326016 -4.473168 2.597899 -3.535534 3.535534 
C -2.597899 4.473168 -1.326016 5 0 5 
z
" id="C1_0_d1fc725bb3"/>
    </defs>
    <g clip-path="url(#pbd3f6d4b7d)">
     <use style="fill:#0000ff;stroke:#000000;" x="162.083438" xlink:href="#C1_0_d1fc725bb3" y="223.582541"/>
    </g>
    <g clip-path="url(#pbd3f6d4b7d)">
     <use style="fill:#0000ff;stroke:#000000;" x="150.533437" xlink:href="#C1_0_d1fc725bb3" y="223.582541"/>
    </g>
    <g clip-path="url(#pbd3f6d4b7d)">
     <use style="fill:#0000ff;stroke:#000000;" x="172.297798" xlink:href="#C1_0_d1fc725bb3" y="218.447684"/>
    </g>
    <g clip-path="url(#pbd3f6d4b7d)">
     <use style="fill:#0000ff;stroke:#000000;" x="140.319077" xlink:href="#C1_0_d1fc725bb3" y="218.447684"/>
    </g>
    <g clip-path="url(#pbd3f6d4b7d)">
     <use style="fill:#0000ff;stroke:#000000;" x="162.083438" xlink:href="#C1_0_d1fc725bb3" y="184.558631"/>
    </g>
    <g clip-path="url(#pbd3f6d4b7d)">
     <use style="fill:#0000ff;stroke:#000000;" x="150.533437" xlink:href="#C1_0_d1fc725bb3" y="184.558631"/>
    </g>
    <g clip-path="url(#pbd3f6d4b7d)">
     <use style="fill:#0000ff;stroke:#000000;" x="162.083438" xlink:href="#C1_0_d1fc725bb3" y="168.364187"/>
    </g>
    <g clip-path="url(#pbd3f6d4b7d)">
     <use style="fill:#0000ff;stroke:#000000;" x="150.533437" xlink:href="#C1_0_d1fc725bb3" y="168.364187"/>
    </g>
    <g clip-path="url(#pbd3f6d4b7d)">
     <use style="fill:#0000ff;stroke:#000000;" x="162.083438" xlink:href="#C1_0_d1fc725bb3" y="140.206581"/>
    </g>
    <g clip-path="url(#pbd3f6d4b7d)">
     <use style="fill:#0000ff;stroke:#000000;" x="150.533437" xlink:href="#C1_0_d1fc725bb3" y="140.206581"/>
    </g>
    <g clip-path="url(#pbd3f6d4b7d)">
     <use style="fill:#0000ff;stroke:#000000;" x="170.65036" xlink:href="#C1_0_d1fc725bb3" y="132.828834"/>
    </g>
    <g clip-path="url(#pbd3f6d4b7d)">
     <use style="fill:#0000ff;stroke:#000000;" x="141.966515" xlink:href="#C1_0_d1fc725bb3" y="132.828834"/>
    </g>
    <g clip-path="url(#pbd3f6d4b7d)">
     <use style="fill:#0000ff;stroke:#000000;" x="162.083438" xlink:href="#C1_0_d1fc725bb3" y="114.04942"/>
    </g>
    <g clip-path="url(#pbd3f6d4b7d)">
     <use style="fill:#0000ff;stroke:#000000;" x="150.533437" xlink:href="#C1_0_d1fc725bb3" y="114.04942"/>
    </g>
    <g clip-path="url(#pbd3f6d4b7d)">
     <use style="fill:#0000ff;stroke:#000000;" x="173.175037" xlink:href="#C1_0_d1fc725bb3" y="110.981196"/>
    </g>
    <g clip-path="url(#pbd3f6d4b7d)">
     <use style="fill:#0000ff;stroke:#000000;" x="139.441838" xlink:href="#C1_0_d1fc725bb3" y="110.981196"/>
    </g>
    <g clip-path="url(#pbd3f6d4b7d)">
     <use style="fill:#0000ff;stroke:#000000;" x="162.083438" xlink:href="#C1_0_d1fc725bb3" y="101.251855"/>
    </g>
    <g clip-path="url(#pbd3f6d4b7d)">
     <use style="fill:#0000ff;stroke:#000000;" x="150.533437" xlink:href="#C1_0_d1fc725bb3" y="101.251855"/>
    </g>
    <g clip-path="url(#pbd3f6d4b7d)">
     <use style="fill:#0000ff;stroke:#000000;" x="162.083438" xlink:href="#C1_0_d1fc725bb3" y="89.769193"/>
    </g>
    <g clip-path="url(#pbd3f6d4b7d)">
     <use style="fill:#0000ff;stroke:#000000;" x="150.533437" xlink:href="#C1_0_d1fc725bb3" y="89.769193"/>
    </g>
    <g clip-path="url(#pbd3f6d4b7d)">
     <use style="fill:#0000ff;stroke:#000000;" x="162.083438" xlink:href="#C1_0_d1fc725bb3" y="42.399351"/>
    </g>
    <g clip-path="url(#pbd3f6d4b7d)">
     <use style="fill:#0000ff;stroke:#000000;" x="150.533437" xlink:href="#C1_0_d1fc725bb3" y="42.399351"/>
    </g>
   </g>
   <g id="PathCollection_5">
    <defs>
     <path d="M 0 5 
C 1.326016 5 2.597899 4.473168 3.535534 3.535534 
C 4.473168 2.597899 5 1.326016 5 0 
C 5 -1.326016 4.473168 -2.597899 3.535534 -3.535534 
C 2.597899 -4.473168 1.326016 -5 0 -5 
C -1.326016 -5 -2.597899 -4.473168 -3.535534 -3.535534 
C -4.473168 -2.597899 -5 -1.326016 -5 0 
C -5 1.326016 -4.473168 2.597899 -3.535534 3.535534 
C -2.597899 4.473168 -1.326016 5 0 5 
z
" id="C2_0_479f771368"/>
    </defs>
    <g clip-path="url(#pbd3f6d4b7d)">
     <use style="fill:#ff0000;stroke:#000000;" x="262.523438" xlink:href="#C2_0_479f771368" y="219.111092"/>
    </g>
    <g clip-path="url(#pbd3f6d4b7d)">
     <use style="fill:#ff0000;stroke:#000000;" x="250.973437" xlink:href="#C2_0_479f771368" y="219.111092"/>
    </g>
    <g clip-path="url(#pbd3f6d4b7d)">
     <use style="fill:#ff0000;stroke:#000000;" x="272.179244" xlink:href="#C2_0_479f771368" y="213.075078"/>
    </g>
    <g clip-path="url(#pbd3f6d4b7d)">
     <use style="fill:#ff0000;stroke:#000000;" x="283.729244" xlink:href="#C2_0_479f771368" y="213.075078"/>
    </g>
    <g clip-path="url(#pbd3f6d4b7d)">
     <use style="fill:#ff0000;stroke:#000000;" x="262.523438" xlink:href="#C2_0_479f771368" y="207.734989"/>
    </g>
    <g clip-path="url(#pbd3f6d4b7d)">
     <use style="fill:#ff0000;stroke:#000000;" x="250.973437" xlink:href="#C2_0_479f771368" y="207.734989"/>
    </g>
    <g clip-path="url(#pbd3f6d4b7d)">
     <use style="fill:#ff0000;stroke:#000000;" x="277.246096" xlink:href="#C2_0_479f771368" y="203.190046"/>
    </g>
    <g clip-path="url(#pbd3f6d4b7d)">
     <use style="fill:#ff0000;stroke:#000000;" x="240.455419" xlink:href="#C2_0_479f771368" y="203.190046"/>
    </g>
    <g clip-path="url(#pbd3f6d4b7d)">
     <use style="fill:#ff0000;stroke:#000000;" x="257.839659" xlink:href="#C2_0_479f771368" y="197.68005"/>
    </g>
    <g clip-path="url(#pbd3f6d4b7d)">
     <use style="fill:#ff0000;stroke:#000000;" x="287.242622" xlink:href="#C2_0_479f771368" y="197.68005"/>
    </g>
    <g clip-path="url(#pbd3f6d4b7d)">
     <use style="fill:#ff0000;stroke:#000000;" x="269.079665" xlink:href="#C2_0_479f771368" y="195.148657"/>
    </g>
    <g clip-path="url(#pbd3f6d4b7d)">
     <use style="fill:#ff0000;stroke:#000000;" x="232.574397" xlink:href="#C2_0_479f771368" y="195.148657"/>
    </g>
    <g clip-path="url(#pbd3f6d4b7d)">
     <use style="fill:#ff0000;stroke:#000000;" x="247.093824" xlink:href="#C2_0_479f771368" y="194.188455"/>
    </g>
    <g clip-path="url(#pbd3f6d4b7d)">
     <use style="fill:#ff0000;stroke:#000000;" x="295.333838" xlink:href="#C2_0_479f771368" y="194.188455"/>
    </g>
    <g clip-path="url(#pbd3f6d4b7d)">
     <use style="fill:#ff0000;stroke:#000000;" x="229.713038" xlink:href="#C2_0_479f771368" y="192.837439"/>
    </g>
    <g clip-path="url(#pbd3f6d4b7d)">
     <use style="fill:#ff0000;stroke:#000000;" x="295.333838" xlink:href="#C2_0_479f771368" y="192.837439"/>
    </g>
    <g clip-path="url(#pbd3f6d4b7d)">
     <use style="fill:#ff0000;stroke:#000000;" x="262.015571" xlink:href="#C2_0_479f771368" y="186.445903"/>
    </g>
    <g clip-path="url(#pbd3f6d4b7d)">
     <use style="fill:#ff0000;stroke:#000000;" x="276.143759" xlink:href="#C2_0_479f771368" y="186.445903"/>
    </g>
    <g clip-path="url(#pbd3f6d4b7d)">
     <use style="fill:#ff0000;stroke:#000000;" x="262.523438" xlink:href="#C2_0_479f771368" y="173.938171"/>
    </g>
    <g clip-path="url(#pbd3f6d4b7d)">
     <use style="fill:#ff0000;stroke:#000000;" x="250.973437" xlink:href="#C2_0_479f771368" y="173.938171"/>
    </g>
    <g clip-path="url(#pbd3f6d4b7d)">
     <use style="fill:#ff0000;stroke:#000000;" x="274.040119" xlink:href="#C2_0_479f771368" y="173.103253"/>
    </g>
    <g clip-path="url(#pbd3f6d4b7d)">
     <use style="fill:#ff0000;stroke:#000000;" x="239.456756" xlink:href="#C2_0_479f771368" y="173.103253"/>
    </g>
    <g clip-path="url(#pbd3f6d4b7d)">
     <use style="fill:#ff0000;stroke:#000000;" x="262.523438" xlink:href="#C2_0_479f771368" y="99.155247"/>
    </g>
    <g clip-path="url(#pbd3f6d4b7d)">
     <use style="fill:#ff0000;stroke:#000000;" x="250.973437" xlink:href="#C2_0_479f771368" y="99.155247"/>
    </g>
   </g>
   <g id="PathCollection_6">
    <defs>
     <path d="M 0 5 
C 1.326016 5 2.597899 4.473168 3.535534 3.535534 
C 4.473168 2.597899 5 1.326016 5 0 
C 5 -1.326016 4.473168 -2.597899 3.535534 -3.535534 
C 2.597899 -4.473168 1.326016 -5 0 -5 
C -1.326016 -5 -2.597899 -4.473168 -3.535534 -3.535534 
C -4.473168 -2.597899 -5 -1.326016 -5 0 
C -5 1.326016 -4.473168 2.597899 -3.535534 3.535534 
C -2.597899 4.473168 -1.326016 5 0 5 
z
" id="C3_0_9528ba831a"/>
    </defs>
    <g clip-path="url(#pbd3f6d4b7d)">
     <use style="fill:#0000ff;stroke:#000000;" x="329.483438" xlink:href="#C3_0_9528ba831a" y="230.43909"/>
    </g>
    <g clip-path="url(#pbd3f6d4b7d)">
     <use style="fill:#0000ff;stroke:#000000;" x="317.933437" xlink:href="#C3_0_9528ba831a" y="230.43909"/>
    </g>
    <g clip-path="url(#pbd3f6d4b7d)">
     <use style="fill:#0000ff;stroke:#000000;" x="329.483438" xlink:href="#C3_0_9528ba831a" y="201.033725"/>
    </g>
    <g clip-path="url(#pbd3f6d4b7d)">
     <use style="fill:#0000ff;stroke:#000000;" x="317.933437" xlink:href="#C3_0_9528ba831a" y="201.033725"/>
    </g>
    <g clip-path="url(#pbd3f6d4b7d)">
     <use style="fill:#0000ff;stroke:#000000;" x="336.65966" xlink:href="#C3_0_9528ba831a" y="192.414581"/>
    </g>
    <g clip-path="url(#pbd3f6d4b7d)">
     <use style="fill:#0000ff;stroke:#000000;" x="310.757215" xlink:href="#C3_0_9528ba831a" y="192.414581"/>
    </g>
    <g clip-path="url(#pbd3f6d4b7d)">
     <use style="fill:#0000ff;stroke:#000000;" x="348.193014" xlink:href="#C3_0_9528ba831a" y="191.824224"/>
    </g>
    <g clip-path="url(#pbd3f6d4b7d)">
     <use style="fill:#0000ff;stroke:#000000;" x="299.223861" xlink:href="#C3_0_9528ba831a" y="191.824224"/>
    </g>
    <g clip-path="url(#pbd3f6d4b7d)">
     <use style="fill:#0000ff;stroke:#000000;" x="326.845854" xlink:href="#C3_0_9528ba831a" y="186.614298"/>
    </g>
    <g clip-path="url(#pbd3f6d4b7d)">
     <use style="fill:#0000ff;stroke:#000000;" x="358.365378" xlink:href="#C3_0_9528ba831a" y="186.614298"/>
    </g>
    <g clip-path="url(#pbd3f6d4b7d)">
     <use style="fill:#0000ff;stroke:#000000;" x="340.943988" xlink:href="#C3_0_9528ba831a" y="182.199345"/>
    </g>
    <g clip-path="url(#pbd3f6d4b7d)">
     <use style="fill:#0000ff;stroke:#000000;" x="316.266971" xlink:href="#C3_0_9528ba831a" y="182.199345"/>
    </g>
    <g clip-path="url(#pbd3f6d4b7d)">
     <use style="fill:#0000ff;stroke:#000000;" x="305.037085" xlink:href="#C3_0_9528ba831a" y="179.627536"/>
    </g>
    <g clip-path="url(#pbd3f6d4b7d)">
     <use style="fill:#0000ff;stroke:#000000;" x="296.673038" xlink:href="#C3_0_9528ba831a" y="179.627536"/>
    </g>
    <g clip-path="url(#pbd3f6d4b7d)">
     <use style="fill:#0000ff;stroke:#000000;" x="329.483438" xlink:href="#C3_0_9528ba831a" y="146.976537"/>
    </g>
    <g clip-path="url(#pbd3f6d4b7d)">
     <use style="fill:#0000ff;stroke:#000000;" x="317.933437" xlink:href="#C3_0_9528ba831a" y="146.976537"/>
    </g>
    <g clip-path="url(#pbd3f6d4b7d)">
     <use style="fill:#0000ff;stroke:#000000;" x="329.483438" xlink:href="#C3_0_9528ba831a" y="130.025077"/>
    </g>
    <g clip-path="url(#pbd3f6d4b7d)">
     <use style="fill:#0000ff;stroke:#000000;" x="317.933437" xlink:href="#C3_0_9528ba831a" y="130.025077"/>
    </g>
    <g clip-path="url(#pbd3f6d4b7d)">
     <use style="fill:#0000ff;stroke:#000000;" x="329.483438" xlink:href="#C3_0_9528ba831a" y="110.39011"/>
    </g>
    <g clip-path="url(#pbd3f6d4b7d)">
     <use style="fill:#0000ff;stroke:#000000;" x="317.933437" xlink:href="#C3_0_9528ba831a" y="110.39011"/>
    </g>
    <g clip-path="url(#pbd3f6d4b7d)">
     <use style="fill:#0000ff;stroke:#000000;" x="329.483438" xlink:href="#C3_0_9528ba831a" y="89.244125"/>
    </g>
    <g clip-path="url(#pbd3f6d4b7d)">
     <use style="fill:#0000ff;stroke:#000000;" x="317.933437" xlink:href="#C3_0_9528ba831a" y="89.244125"/>
    </g>
    <g clip-path="url(#pbd3f6d4b7d)">
     <use style="fill:#0000ff;stroke:#000000;" x="339.55195" xlink:href="#C3_0_9528ba831a" y="83.854326"/>
    </g>
    <g clip-path="url(#pbd3f6d4b7d)">
     <use style="fill:#0000ff;stroke:#000000;" x="307.864925" xlink:href="#C3_0_9528ba831a" y="83.854326"/>
    </g>
   </g>
   <g id="text_12">
    <text style="font-family:Arial;font-size:20px;font-style:normal;font-weight:normal;text-anchor:middle;" transform="rotate(-0, 212.303438, 21.759375)" x="212.303438" y="21.759375">Arachidonoylthio-PC</text>
   </g>
   <g id="legend_1">
    <g id="patch_13">
     <path d="M 398.443438 87.340625 
L 447.665313 87.340625 
Q 449.665313 87.340625 449.665313 85.340625 
L 449.665313 29.759375 
Q 449.665313 27.759375 447.665313 27.759375 
L 398.443438 27.759375 
Q 396.443438 27.759375 396.443438 29.759375 
L 396.443438 85.340625 
Q 396.443438 87.340625 398.443438 87.340625 
z
" style="fill:#ffffff;opacity:0.8;stroke:#cccccc;stroke-linejoin:miter;"/>
    </g>
    <g id="patch_14">
     <path d="M 400.443438 38.917187 
L 420.443438 38.917187 
L 420.443438 31.917187 
L 400.443438 31.917187 
z
" style="fill:#df2020;stroke:#4c4c4c;stroke-linejoin:miter;stroke-width:0.75;"/>
    </g>
    <g id="text_13">
     <text style="font-family:Arial;font-size:10px;font-style:normal;font-weight:normal;text-anchor:start;" transform="rotate(-0, 428.443438, 38.917187)" x="428.443438" y="38.917187">Air</text>
    </g>
    <g id="patch_15">
     <path d="M 400.443438 53.0625 
L 420.443438 53.0625 
L 420.443438 46.0625 
L 400.443438 46.0625 
z
" style="fill:#2020df;stroke:#4c4c4c;stroke-linejoin:miter;stroke-width:0.75;"/>
    </g>
    <g id="text_14">
     <text style="font-family:Arial;font-size:10px;font-style:normal;font-weight:normal;text-anchor:start;" transform="rotate(-0, 428.443438, 53.0625)" x="428.443438" y="53.0625">IHC</text>
    </g>
    <g id="PathCollection_7">
     <defs>
      <path d="M 0 3.872983 
C 1.027127 3.872983 2.012324 3.464901 2.738613 2.738613 
C 3.464901 2.012324 3.872983 1.027127 3.872983 0 
C 3.872983 -1.027127 3.464901 -2.012324 2.738613 -2.738613 
C 2.012324 -3.464901 1.027127 -3.872983 0 -3.872983 
C -1.027127 -3.872983 -2.012324 -3.464901 -2.738613 -2.738613 
C -3.464901 -2.012324 -3.872983 -1.027127 -3.872983 0 
C -3.872983 1.027127 -3.464901 2.012324 -2.738613 2.738613 
C -2.012324 3.464901 -1.027127 3.872983 0 3.872983 
z
" id="mbfd7d23f7a" style="stroke:#ff0000;"/>
     </defs>
     <g>
      <use style="fill:#ff0000;stroke:#ff0000;" x="410.443438" xlink:href="#mbfd7d23f7a" y="64.582812"/>
     </g>
    </g>
    <g id="text_15">
     <text style="font-family:Arial;font-size:10px;font-style:normal;font-weight:normal;text-anchor:start;" transform="rotate(-0, 428.443438, 67.207812)" x="428.443438" y="67.207812">Air</text>
    </g>
    <g id="PathCollection_8">
     <defs>
      <path d="M 0 3.872983 
C 1.027127 3.872983 2.012324 3.464901 2.738613 2.738613 
C 3.464901 2.012324 3.872983 1.027127 3.872983 0 
C 3.872983 -1.027127 3.464901 -2.012324 2.738613 -2.738613 
C 2.012324 -3.464901 1.027127 -3.872983 0 -3.872983 
C -1.027127 -3.872983 -2.012324 -3.464901 -2.738613 -2.738613 
C -3.464901 -2.012324 -3.872983 -1.027127 -3.872983 0 
C -3.872983 1.027127 -3.464901 2.012324 -2.738613 2.738613 
C -2.012324 3.464901 -1.027127 3.872983 0 3.872983 
z
" id="m0be3153bc3" style="stroke:#0000ff;"/>
     </defs>
     <g>
      <use style="fill:#0000ff;stroke:#0000ff;" x="410.443438" xlink:href="#m0be3153bc3" y="78.728125"/>
     </g>
    </g>
    <g id="text_16">
     <text style="font-family:Arial;font-size:10px;font-style:normal;font-weight:normal;text-anchor:start;" transform="rotate(-0, 428.443438, 81.353125)" x="428.443438" y="81.353125">IHC</text>
    </g>
   </g>
  </g>
 </g>
 <defs>
  <clipPath id="pbd3f6d4b7d">
   <rect height="217.44" width="334.8" x="44.903438" y="27.759375"/>
  </clipPath>
 </defs>
</svg>
