<?xml version="1.0" encoding="utf-8" standalone="no"?>
<!DOCTYPE svg PUBLIC "-//W3C//DTD SVG 1.1//EN"
  "http://www.w3.org/Graphics/SVG/1.1/DTD/svg11.dtd">
<!-- Created with matplotlib (https://matplotlib.org/) -->
<svg height="263.246563pt" version="1.1" viewBox="0 0 382.862812 263.246563" width="382.862812pt" xmlns="http://www.w3.org/2000/svg" xmlns:xlink="http://www.w3.org/1999/xlink">
 <defs>
  <style type="text/css">
*{stroke-linecap:butt;stroke-linejoin:round;}
  </style>
 </defs>
 <g id="figure_1">
  <g id="patch_1">
   <path d="M 0 263.246563 
L 382.862812 263.246563 
L 382.862812 0 
L 0 0 
z
" style="fill:#ffffff;"/>
  </g>
  <g id="axes_1">
   <g id="patch_2">
    <path d="M 40.862813 224.64 
L 375.662813 224.64 
L 375.662813 7.2 
L 40.862813 7.2 
z
" style="fill:#ffffff;"/>
   </g>
   <g id="PathCollection_1">
    <defs>
     <path d="M 0 3 
C 0.795609 3 1.55874 2.683901 2.12132 2.12132 
C 2.683901 1.55874 3 0.795609 3 0 
C 3 -0.795609 2.683901 -1.55874 2.12132 -2.12132 
C 1.55874 -2.683901 0.795609 -3 0 -3 
C -0.795609 -3 -1.55874 -2.683901 -2.12132 -2.12132 
C -2.683901 -1.55874 -3 -0.795609 -3 0 
C -3 0.795609 -2.683901 1.55874 -2.12132 2.12132 
C -1.55874 2.683901 -0.795609 3 0 3 
z
" id="m62a15d45d3" style="stroke:#800080;stroke-opacity:0.8;"/>
    </defs>
    <g clip-path="url(#p8f07060b97)">
     <use style="fill:#800080;fill-opacity:0.8;stroke:#800080;stroke-opacity:0.8;" x="273.624256" xlink:href="#m62a15d45d3" y="103.274835"/>
     <use style="fill:#800080;fill-opacity:0.8;stroke:#800080;stroke-opacity:0.8;" x="196.042192" xlink:href="#m62a15d45d3" y="158.941581"/>
     <use style="fill:#800080;fill-opacity:0.8;stroke:#800080;stroke-opacity:0.8;" x="307.224293" xlink:href="#m62a15d45d3" y="133.455876"/>
     <use style="fill:#800080;fill-opacity:0.8;stroke:#800080;stroke-opacity:0.8;" x="301.993925" xlink:href="#m62a15d45d3" y="126.388606"/>
     <use style="fill:#800080;fill-opacity:0.8;stroke:#800080;stroke-opacity:0.8;" x="317.857646" xlink:href="#m62a15d45d3" y="69.136027"/>
     <use style="fill:#800080;fill-opacity:0.8;stroke:#800080;stroke-opacity:0.8;" x="63.2033" xlink:href="#m62a15d45d3" y="46.498749"/>
     <use style="fill:#800080;fill-opacity:0.8;stroke:#800080;stroke-opacity:0.8;" x="104.935118" xlink:href="#m62a15d45d3" y="68.590691"/>
     <use style="fill:#800080;fill-opacity:0.8;stroke:#800080;stroke-opacity:0.8;" x="161.957841" xlink:href="#m62a15d45d3" y="89.87495"/>
     <use style="fill:#800080;fill-opacity:0.8;stroke:#800080;stroke-opacity:0.8;" x="298.720443" xlink:href="#m62a15d45d3" y="92.578559"/>
     <use style="fill:#800080;fill-opacity:0.8;stroke:#800080;stroke-opacity:0.8;" x="261.608368" xlink:href="#m62a15d45d3" y="149.872103"/>
     <use style="fill:#800080;fill-opacity:0.8;stroke:#800080;stroke-opacity:0.8;" x="299.823443" xlink:href="#m62a15d45d3" y="214.254349"/>
     <use style="fill:#800080;fill-opacity:0.8;stroke:#800080;stroke-opacity:0.8;" x="176.692394" xlink:href="#m62a15d45d3" y="97.300826"/>
     <use style="fill:#800080;fill-opacity:0.8;stroke:#800080;stroke-opacity:0.8;" x="223.54662" xlink:href="#m62a15d45d3" y="104.028219"/>
     <use style="fill:#800080;fill-opacity:0.8;stroke:#800080;stroke-opacity:0.8;" x="195.977101" xlink:href="#m62a15d45d3" y="52.610218"/>
     <use style="fill:#800080;fill-opacity:0.8;stroke:#800080;stroke-opacity:0.8;" x="288.946019" xlink:href="#m62a15d45d3" y="57.693667"/>
     <use style="fill:#800080;fill-opacity:0.8;stroke:#800080;stroke-opacity:0.8;" x="165.384838" xlink:href="#m62a15d45d3" y="60.600716"/>
     <use style="fill:#800080;fill-opacity:0.8;stroke:#800080;stroke-opacity:0.8;" x="233.195553" xlink:href="#m62a15d45d3" y="120.619993"/>
     <use style="fill:#800080;fill-opacity:0.8;stroke:#800080;stroke-opacity:0.8;" x="278.268796" xlink:href="#m62a15d45d3" y="172.135857"/>
     <use style="fill:#800080;fill-opacity:0.8;stroke:#800080;stroke-opacity:0.8;" x="137.692058" xlink:href="#m62a15d45d3" y="39.906048"/>
     <use style="fill:#800080;fill-opacity:0.8;stroke:#800080;stroke-opacity:0.8;" x="137.940333" xlink:href="#m62a15d45d3" y="63.478438"/>
     <use style="fill:#800080;fill-opacity:0.8;stroke:#800080;stroke-opacity:0.8;" x="259.548633" xlink:href="#m62a15d45d3" y="143.757506"/>
     <use style="fill:#800080;fill-opacity:0.8;stroke:#800080;stroke-opacity:0.8;" x="215.763331" xlink:href="#m62a15d45d3" y="156.593757"/>
     <use style="fill:#800080;fill-opacity:0.8;stroke:#800080;stroke-opacity:0.8;" x="203.402063" xlink:href="#m62a15d45d3" y="148.434788"/>
     <use style="fill:#800080;fill-opacity:0.8;stroke:#800080;stroke-opacity:0.8;" x="253.436686" xlink:href="#m62a15d45d3" y="138.839866"/>
     <use style="fill:#800080;fill-opacity:0.8;stroke:#800080;stroke-opacity:0.8;" x="245.426025" xlink:href="#m62a15d45d3" y="153.606607"/>
     <use style="fill:#800080;fill-opacity:0.8;stroke:#800080;stroke-opacity:0.8;" x="275.224899" xlink:href="#m62a15d45d3" y="186.795486"/>
     <use style="fill:#800080;fill-opacity:0.8;stroke:#800080;stroke-opacity:0.8;" x="164.367577" xlink:href="#m62a15d45d3" y="58.103626"/>
     <use style="fill:#800080;fill-opacity:0.8;stroke:#800080;stroke-opacity:0.8;" x="243.602841" xlink:href="#m62a15d45d3" y="83.865022"/>
     <use style="fill:#800080;fill-opacity:0.8;stroke:#800080;stroke-opacity:0.8;" x="119.665615" xlink:href="#m62a15d45d3" y="88.688726"/>
     <use style="fill:#800080;fill-opacity:0.8;stroke:#800080;stroke-opacity:0.8;" x="353.33328" xlink:href="#m62a15d45d3" y="83.44999"/>
     <use style="fill:#800080;fill-opacity:0.8;stroke:#800080;stroke-opacity:0.8;" x="96.119723" xlink:href="#m62a15d45d3" y="68.233724"/>
     <use style="fill:#800080;fill-opacity:0.8;stroke:#800080;stroke-opacity:0.8;" x="204.634039" xlink:href="#m62a15d45d3" y="156.214427"/>
     <use style="fill:#800080;fill-opacity:0.8;stroke:#800080;stroke-opacity:0.8;" x="359.540298" xlink:href="#m62a15d45d3" y="114.243263"/>
     <use style="fill:#800080;fill-opacity:0.8;stroke:#800080;stroke-opacity:0.8;" x="197.991609" xlink:href="#m62a15d45d3" y="70.165806"/>
     <use style="fill:#800080;fill-opacity:0.8;stroke:#800080;stroke-opacity:0.8;" x="196.830221" xlink:href="#m62a15d45d3" y="17.585651"/>
     <use style="fill:#800080;fill-opacity:0.8;stroke:#800080;stroke-opacity:0.8;" x="124.107465" xlink:href="#m62a15d45d3" y="57.123501"/>
     <use style="fill:#800080;fill-opacity:0.8;stroke:#800080;stroke-opacity:0.8;" x="269.316197" xlink:href="#m62a15d45d3" y="110.521567"/>
     <use style="fill:#800080;fill-opacity:0.8;stroke:#800080;stroke-opacity:0.8;" x="173.25299" xlink:href="#m62a15d45d3" y="62.539667"/>
     <use style="fill:#800080;fill-opacity:0.8;stroke:#800080;stroke-opacity:0.8;" x="56.985327" xlink:href="#m62a15d45d3" y="42.90698"/>
     <use style="fill:#800080;fill-opacity:0.8;stroke:#800080;stroke-opacity:0.8;" x="92.664791" xlink:href="#m62a15d45d3" y="47.226201"/>
     <use style="fill:#800080;fill-opacity:0.8;stroke:#800080;stroke-opacity:0.8;" x="156.851009" xlink:href="#m62a15d45d3" y="47.571284"/>
     <use style="fill:#800080;fill-opacity:0.8;stroke:#800080;stroke-opacity:0.8;" x="87.740716" xlink:href="#m62a15d45d3" y="83.725054"/>
     <use style="fill:#800080;fill-opacity:0.8;stroke:#800080;stroke-opacity:0.8;" x="141.40992" xlink:href="#m62a15d45d3" y="77.433506"/>
     <use style="fill:#800080;fill-opacity:0.8;stroke:#800080;stroke-opacity:0.8;" x="191.291139" xlink:href="#m62a15d45d3" y="94.82429"/>
    </g>
   </g>
   <g id="PolyCollection_1">
    <path clip-path="url(#p8f07060b97)" d="M 40.862813 22.158569 
L 40.862813 65.903019 
L 44.244631 66.507175 
L 47.626449 67.010988 
L 51.008267 67.51334 
L 54.390085 68.121961 
L 57.771903 68.750105 
L 61.153722 69.36169 
L 64.53554 70.041672 
L 67.917358 70.850085 
L 71.299176 71.617544 
L 74.680994 72.31666 
L 78.062813 73.015777 
L 81.444631 73.709317 
L 84.826449 74.396568 
L 88.208267 75.095663 
L 91.590085 75.879642 
L 94.971903 76.900899 
L 98.353722 77.718929 
L 101.73554 78.664168 
L 105.117358 79.448544 
L 108.499176 80.206786 
L 111.880994 81.158941 
L 115.262812 81.922397 
L 118.644631 82.587907 
L 122.026449 83.249049 
L 125.408267 83.913071 
L 128.790085 84.891274 
L 132.171903 85.868722 
L 135.553722 86.61749 
L 138.93554 87.608967 
L 142.317358 88.401426 
L 145.699176 89.205279 
L 149.080994 90.196344 
L 152.462813 91.235327 
L 155.844631 92.30772 
L 159.226449 93.381144 
L 162.608267 94.533038 
L 165.990085 95.754872 
L 169.371903 96.929655 
L 172.753722 98.146915 
L 176.13554 99.178568 
L 179.517358 100.706279 
L 182.899176 101.925781 
L 186.280994 103.282286 
L 189.662813 104.645488 
L 193.044631 106.156219 
L 196.426449 107.667219 
L 199.808267 109.250085 
L 203.190085 110.687857 
L 206.571903 112.127169 
L 209.953722 113.331026 
L 213.33554 114.924875 
L 216.717358 116.303413 
L 220.099176 117.962984 
L 223.480994 119.623589 
L 226.862812 121.198788 
L 230.244631 122.73857 
L 233.626449 124.185628 
L 237.008267 125.804767 
L 240.390085 127.324739 
L 243.771903 128.833296 
L 247.153722 130.461965 
L 250.53554 132.024977 
L 253.917358 133.681191 
L 257.299176 135.372421 
L 260.680994 137.012823 
L 264.062813 138.644727 
L 267.444631 140.289328 
L 270.826449 142.016587 
L 274.208267 143.813097 
L 277.590085 145.576571 
L 280.971903 147.338986 
L 284.353722 149.09018 
L 287.73554 150.828854 
L 291.117358 152.567528 
L 294.499176 154.283558 
L 297.880994 155.817914 
L 301.262812 157.349782 
L 304.644631 158.881649 
L 308.026449 160.413516 
L 311.408267 161.945383 
L 314.790085 163.47725 
L 318.171903 165.009117 
L 321.553722 166.540985 
L 324.93554 168.128168 
L 328.317358 169.929402 
L 331.699176 171.776413 
L 335.080994 173.3627 
L 338.462812 174.948987 
L 341.844631 176.535275 
L 345.226449 178.121562 
L 348.608267 179.90015 
L 351.990085 181.689019 
L 355.371903 183.477887 
L 358.753722 185.266755 
L 362.13554 187.055624 
L 365.517358 188.844492 
L 368.899176 190.633361 
L 372.280994 192.422229 
L 375.662812 194.211097 
L 375.662812 117.199766 
L 375.662812 117.199766 
L 372.280994 116.629286 
L 368.899176 115.933973 
L 365.517358 115.232628 
L 362.13554 114.531283 
L 358.753722 113.862787 
L 355.371903 113.280263 
L 351.990085 112.698216 
L 348.608267 112.118697 
L 345.226449 111.541839 
L 341.844631 110.964981 
L 338.462812 110.303612 
L 335.080994 109.725493 
L 331.699176 109.069201 
L 328.317358 108.409695 
L 324.93554 107.752058 
L 321.553722 107.096025 
L 318.171903 106.452711 
L 314.790085 105.782833 
L 311.408267 105.123299 
L 308.026449 104.46519 
L 304.644631 103.807081 
L 301.262812 103.148972 
L 297.880994 102.490863 
L 294.499176 101.832754 
L 291.117358 101.174645 
L 287.73554 100.490377 
L 284.353722 99.791963 
L 280.971903 99.080509 
L 277.590085 98.408575 
L 274.208267 97.736642 
L 270.826449 97.065095 
L 267.444631 96.395504 
L 264.062813 95.726927 
L 260.680994 95.059804 
L 257.299176 94.40005 
L 253.917358 93.898738 
L 250.53554 93.277335 
L 247.153722 92.620267 
L 243.771903 91.915103 
L 240.390085 91.124979 
L 237.008267 90.393089 
L 233.626449 89.697284 
L 230.244631 89.03153 
L 226.862812 88.406918 
L 223.480994 87.698821 
L 220.099176 87.017595 
L 216.717358 86.256338 
L 213.33554 85.419423 
L 209.953722 84.688877 
L 206.571903 83.813492 
L 203.190085 82.998098 
L 199.808267 82.310988 
L 196.426449 81.570547 
L 193.044631 80.769109 
L 189.662813 79.967671 
L 186.280994 79.166498 
L 182.899176 78.282359 
L 179.517358 77.336632 
L 176.13554 76.39102 
L 172.753722 75.512863 
L 169.371903 74.792504 
L 165.990085 73.999789 
L 162.608267 73.093988 
L 159.226449 72.209613 
L 155.844631 71.268944 
L 152.462813 70.366203 
L 149.080994 69.419524 
L 145.699176 68.575269 
L 142.317358 67.315105 
L 138.93554 66.32709 
L 135.553722 65.220574 
L 132.171903 63.893743 
L 128.790085 62.578748 
L 125.408267 61.274048 
L 122.026449 59.940932 
L 118.644631 58.583446 
L 115.262812 57.255852 
L 111.880994 55.92896 
L 108.499176 54.51873 
L 105.117358 53.066085 
L 101.73554 51.547805 
L 98.353722 50.022997 
L 94.971903 48.502062 
L 91.590085 46.982933 
L 88.208267 45.43966 
L 84.826449 43.721679 
L 81.444631 42.005086 
L 78.062813 40.220322 
L 74.680994 38.752308 
L 71.299176 37.050643 
L 67.917358 35.349449 
L 64.53554 33.796915 
L 61.153722 32.445821 
L 57.771903 30.833434 
L 54.390085 29.020591 
L 51.008267 27.208867 
L 47.626449 25.453936 
L 44.244631 23.918584 
L 40.862813 22.158569 
z
" style="fill:#800080;fill-opacity:0.15;"/>
   </g>
   <g id="matplotlib.axis_1">
    <g id="xtick_1">
     <g id="line2d_1">
      <defs>
       <path d="M 0 0 
L 0 3.5 
" id="m15e657fd29" style="stroke:#000000;stroke-width:0.8;"/>
      </defs>
      <g>
       <use style="stroke:#000000;stroke-width:0.8;" x="90.318507" xlink:href="#m15e657fd29" y="224.64"/>
      </g>
     </g>
     <g id="text_1">
      <text style="font-family:Arial;font-size:10px;font-style:normal;font-weight:normal;text-anchor:middle;" transform="rotate(-0, 90.318507, 238.797813)" x="90.318507" y="238.797813">0.5</text>
     </g>
    </g>
    <g id="xtick_2">
     <g id="line2d_2">
      <g>
       <use style="stroke:#000000;stroke-width:0.8;" x="140.780262" xlink:href="#m15e657fd29" y="224.64"/>
      </g>
     </g>
     <g id="text_2">
      <text style="font-family:Arial;font-size:10px;font-style:normal;font-weight:normal;text-anchor:middle;" transform="rotate(-0, 140.780262, 238.797813)" x="140.780262" y="238.797813">1.0</text>
     </g>
    </g>
    <g id="xtick_3">
     <g id="line2d_3">
      <g>
       <use style="stroke:#000000;stroke-width:0.8;" x="191.242016" xlink:href="#m15e657fd29" y="224.64"/>
      </g>
     </g>
     <g id="text_3">
      <text style="font-family:Arial;font-size:10px;font-style:normal;font-weight:normal;text-anchor:middle;" transform="rotate(-0, 191.242016, 238.797813)" x="191.242016" y="238.797813">1.5</text>
     </g>
    </g>
    <g id="xtick_4">
     <g id="line2d_4">
      <g>
       <use style="stroke:#000000;stroke-width:0.8;" x="241.703771" xlink:href="#m15e657fd29" y="224.64"/>
      </g>
     </g>
     <g id="text_4">
      <text style="font-family:Arial;font-size:10px;font-style:normal;font-weight:normal;text-anchor:middle;" transform="rotate(-0, 241.703771, 238.797813)" x="241.703771" y="238.797813">2.0</text>
     </g>
    </g>
    <g id="xtick_5">
     <g id="line2d_5">
      <g>
       <use style="stroke:#000000;stroke-width:0.8;" x="292.165526" xlink:href="#m15e657fd29" y="224.64"/>
      </g>
     </g>
     <g id="text_5">
      <text style="font-family:Arial;font-size:10px;font-style:normal;font-weight:normal;text-anchor:middle;" transform="rotate(-0, 292.165526, 238.797813)" x="292.165526" y="238.797813">2.5</text>
     </g>
    </g>
    <g id="xtick_6">
     <g id="line2d_6">
      <g>
       <use style="stroke:#000000;stroke-width:0.8;" x="342.627281" xlink:href="#m15e657fd29" y="224.64"/>
      </g>
     </g>
     <g id="text_6">
      <text style="font-family:Arial;font-size:10px;font-style:normal;font-weight:normal;text-anchor:middle;" transform="rotate(-0, 342.627281, 238.797813)" x="342.627281" y="238.797813">3.0</text>
     </g>
    </g>
    <g id="text_7">
     <text style="font-family:Arial;font-size:12px;font-style:normal;font-weight:normal;text-anchor:middle;" transform="rotate(-0, 208.262812, 253.520938)" x="208.262812" y="253.520938">Log10(Rumino/Corio)</text>
    </g>
   </g>
   <g id="matplotlib.axis_2">
    <g id="ytick_1">
     <g id="line2d_7">
      <defs>
       <path d="M 0 0 
L -3.5 0 
" id="md28ae341ee" style="stroke:#000000;stroke-width:0.8;"/>
      </defs>
      <g>
       <use style="stroke:#000000;stroke-width:0.8;" x="40.862813" xlink:href="#md28ae341ee" y="207.670771"/>
      </g>
     </g>
     <g id="text_8">
      <text style="font-family:Arial;font-size:10px;font-style:normal;font-weight:normal;text-anchor:end;" transform="rotate(-0, 33.862813, 211.249677)" x="33.862813" y="211.249677">−5</text>
     </g>
    </g>
    <g id="ytick_2">
     <g id="line2d_8">
      <g>
       <use style="stroke:#000000;stroke-width:0.8;" x="40.862813" xlink:href="#md28ae341ee" y="171.284782"/>
      </g>
     </g>
     <g id="text_9">
      <text style="font-family:Arial;font-size:10px;font-style:normal;font-weight:normal;text-anchor:end;" transform="rotate(-0, 33.862813, 174.863688)" x="33.862813" y="174.863688">−4</text>
     </g>
    </g>
    <g id="ytick_3">
     <g id="line2d_9">
      <g>
       <use style="stroke:#000000;stroke-width:0.8;" x="40.862813" xlink:href="#md28ae341ee" y="134.898793"/>
      </g>
     </g>
     <g id="text_10">
      <text style="font-family:Arial;font-size:10px;font-style:normal;font-weight:normal;text-anchor:end;" transform="rotate(-0, 33.862813, 138.477699)" x="33.862813" y="138.477699">−3</text>
     </g>
    </g>
    <g id="ytick_4">
     <g id="line2d_10">
      <g>
       <use style="stroke:#000000;stroke-width:0.8;" x="40.862813" xlink:href="#md28ae341ee" y="98.512804"/>
      </g>
     </g>
     <g id="text_11">
      <text style="font-family:Arial;font-size:10px;font-style:normal;font-weight:normal;text-anchor:end;" transform="rotate(-0, 33.862813, 102.09171)" x="33.862813" y="102.09171">−2</text>
     </g>
    </g>
    <g id="ytick_5">
     <g id="line2d_11">
      <g>
       <use style="stroke:#000000;stroke-width:0.8;" x="40.862813" xlink:href="#md28ae341ee" y="62.126815"/>
      </g>
     </g>
     <g id="text_12">
      <text style="font-family:Arial;font-size:10px;font-style:normal;font-weight:normal;text-anchor:end;" transform="rotate(-0, 33.862813, 65.705721)" x="33.862813" y="65.705721">−1</text>
     </g>
    </g>
    <g id="ytick_6">
     <g id="line2d_12">
      <g>
       <use style="stroke:#000000;stroke-width:0.8;" x="40.862813" xlink:href="#md28ae341ee" y="25.740826"/>
      </g>
     </g>
     <g id="text_13">
      <text style="font-family:Arial;font-size:10px;font-style:normal;font-weight:normal;text-anchor:end;" transform="rotate(-0, 33.862813, 29.319732)" x="33.862813" y="29.319732">0</text>
     </g>
    </g>
    <g id="text_14">
     <text style="font-family:Arial;font-size:12px;font-style:normal;font-weight:normal;text-anchor:middle;" transform="rotate(-90, 15.935625, 115.92)" x="15.935625" y="115.92">Log10(CDCA/TbMCA)</text>
    </g>
   </g>
   <g id="line2d_13">
    <path clip-path="url(#p8f07060b97)" d="M 40.862813 45.806184 
L 44.244631 46.854539 
L 47.626449 47.902895 
L 51.008267 48.95125 
L 54.390085 49.999605 
L 57.771903 51.047961 
L 61.153722 52.096316 
L 64.53554 53.144672 
L 67.917358 54.193027 
L 71.299176 55.241382 
L 74.680994 56.289738 
L 78.062813 57.338093 
L 81.444631 58.386448 
L 84.826449 59.434804 
L 88.208267 60.483159 
L 91.590085 61.531515 
L 94.971903 62.57987 
L 98.353722 63.628225 
L 101.73554 64.676581 
L 105.117358 65.724936 
L 108.499176 66.773292 
L 111.880994 67.821647 
L 115.262812 68.870002 
L 118.644631 69.918358 
L 122.026449 70.966713 
L 125.408267 72.015069 
L 128.790085 73.063424 
L 132.171903 74.111779 
L 135.553722 75.160135 
L 138.93554 76.20849 
L 142.317358 77.256846 
L 145.699176 78.305201 
L 149.080994 79.353556 
L 152.462813 80.401912 
L 155.844631 81.450267 
L 159.226449 82.498622 
L 162.608267 83.546978 
L 165.990085 84.595333 
L 169.371903 85.643689 
L 172.753722 86.692044 
L 176.13554 87.740399 
L 179.517358 88.788755 
L 182.899176 89.83711 
L 186.280994 90.885466 
L 189.662813 91.933821 
L 193.044631 92.982176 
L 196.426449 94.030532 
L 199.808267 95.078887 
L 203.190085 96.127243 
L 206.571903 97.175598 
L 209.953722 98.223953 
L 213.33554 99.272309 
L 216.717358 100.320664 
L 220.099176 101.36902 
L 223.480994 102.417375 
L 226.862812 103.46573 
L 230.244631 104.514086 
L 233.626449 105.562441 
L 237.008267 106.610797 
L 240.390085 107.659152 
L 243.771903 108.707507 
L 247.153722 109.755863 
L 250.53554 110.804218 
L 253.917358 111.852573 
L 257.299176 112.900929 
L 260.680994 113.949284 
L 264.062813 114.99764 
L 267.444631 116.045995 
L 270.826449 117.09435 
L 274.208267 118.142706 
L 277.590085 119.191061 
L 280.971903 120.239417 
L 284.353722 121.287772 
L 287.73554 122.336127 
L 291.117358 123.384483 
L 294.499176 124.432838 
L 297.880994 125.481194 
L 301.262812 126.529549 
L 304.644631 127.577904 
L 308.026449 128.62626 
L 311.408267 129.674615 
L 314.790085 130.722971 
L 318.171903 131.771326 
L 321.553722 132.819681 
L 324.93554 133.868037 
L 328.317358 134.916392 
L 331.699176 135.964748 
L 335.080994 137.013103 
L 338.462812 138.061458 
L 341.844631 139.109814 
L 345.226449 140.158169 
L 348.608267 141.206524 
L 351.990085 142.25488 
L 355.371903 143.303235 
L 358.753722 144.351591 
L 362.13554 145.399946 
L 365.517358 146.448301 
L 368.899176 147.496657 
L 372.280994 148.545012 
L 375.662812 149.593368 
" style="fill:none;stroke:#800080;stroke-linecap:square;stroke-width:2.25;"/>
   </g>
   <g id="patch_3">
    <path d="M 40.862813 224.64 
L 40.862813 7.2 
" style="fill:none;stroke:#000000;stroke-linecap:square;stroke-linejoin:miter;stroke-width:0.8;"/>
   </g>
   <g id="patch_4">
    <path d="M 375.662813 224.64 
L 375.662813 7.2 
" style="fill:none;stroke:#000000;stroke-linecap:square;stroke-linejoin:miter;stroke-width:0.8;"/>
   </g>
   <g id="patch_5">
    <path d="M 40.862813 224.64 
L 375.662812 224.64 
" style="fill:none;stroke:#000000;stroke-linecap:square;stroke-linejoin:miter;stroke-width:0.8;"/>
   </g>
   <g id="patch_6">
    <path d="M 40.862813 7.2 
L 375.662812 7.2 
" style="fill:none;stroke:#000000;stroke-linecap:square;stroke-linejoin:miter;stroke-width:0.8;"/>
   </g>
   <g id="legend_1">
    <g id="patch_7">
     <path d="M 222.462813 31.5 
L 368.662813 31.5 
Q 370.662813 31.5 370.662813 29.5 
L 370.662813 14.2 
Q 370.662813 12.2 368.662813 12.2 
L 222.462813 12.2 
Q 220.462813 12.2 220.462813 14.2 
L 220.462813 29.5 
Q 220.462813 31.5 222.462813 31.5 
z
" style="fill:#ffffff;opacity:0.8;stroke:#cccccc;stroke-linejoin:miter;"/>
    </g>
    <g id="line2d_14">
     <path d="M 224.462813 21.8 
L 244.462813 21.8 
" style="fill:none;stroke:#800080;stroke-linecap:square;stroke-width:2.25;"/>
    </g>
    <g id="line2d_15"/>
    <g id="text_15">
     <!-- y=-0.9x+-0.5,   $R^2=0.29$ -->
     <g transform="translate(252.462813 25.3)">
      <text>
       <tspan style="font-family:Arial;font-size:10px;font-style:regular;font-weight:regular;" x="0 5 10.839844 14.169922 19.731445 22.509766 28.071289 33.071289 38.911133 42.241211 47.802734 50.581055 56.142578 58.920898 61.699219 64.477539" y="-0.9765625">y=-0.9x+-0.5,   </tspan>
       <tspan style="font-family:DejaVu Sans;font-size:10px;font-style:oblique;font-weight:oblique;" x="67.255859" y="-0.9765625">R</tspan>
       <tspan style="font-family:DejaVu Sans;font-size:7px;font-style:book;font-weight:book;" x="74.906654" y="-4.8046875">2</tspan>
       <tspan style="font-family:DejaVu Sans;font-size:10px;font-style:book;font-weight:book;" x="81.581947 91.909095 98.2714 101.450111 107.812415" y="-0.9765625">=0.29</tspan>
      </text>
     </g>
    </g>
   </g>
  </g>
 </g>
 <defs>
  <clipPath id="p8f07060b97">
   <rect height="217.44" width="334.8" x="40.862813" y="7.2"/>
  </clipPath>
 </defs>
</svg>
