<?xml version="1.0" encoding="utf-8" standalone="no"?>
<!DOCTYPE svg PUBLIC "-//W3C//DTD SVG 1.1//EN"
  "http://www.w3.org/Graphics/SVG/1.1/DTD/svg11.dtd">
<!-- Created with matplotlib (https://matplotlib.org/) -->
<svg height="263.246562pt" version="1.1" viewBox="0 0 501.198125 263.246562" width="501.198125pt" xmlns="http://www.w3.org/2000/svg" xmlns:xlink="http://www.w3.org/1999/xlink">
 <defs>
  <style type="text/css">
*{stroke-linecap:butt;stroke-linejoin:round;}
  </style>
 </defs>
 <g id="figure_1">
  <g id="patch_1">
   <path d="M 0 263.246562 
L 501.198125 263.246562 
L 501.198125 0 
L 0 0 
z
" style="fill:#ffffff;"/>
  </g>
  <g id="axes_1">
   <g id="patch_2">
    <path d="M 40.862813 224.64 
L 375.662813 224.64 
L 375.662813 7.2 
L 40.862813 7.2 
z
" style="fill:#ffffff;"/>
   </g>
   <g id="PathCollection_1">
    <path clip-path="url(#p838054a28f)" d="M 273.302179 108.328133 
C 274.628194 108.328133 275.900078 107.801301 276.837713 106.863667 
C 277.775347 105.926032 278.302179 104.654148 278.302179 103.328133 
C 278.302179 102.002117 277.775347 100.730233 276.837713 99.792599 
C 275.900078 98.854964 274.628194 98.328133 273.302179 98.328133 
C 271.976163 98.328133 270.704279 98.854964 269.766645 99.792599 
C 268.82901 100.730233 268.302179 102.002117 268.302179 103.328133 
C 268.302179 104.654148 268.82901 105.926032 269.766645 106.863667 
C 270.704279 107.801301 271.976163 108.328133 273.302179 108.328133 
z
" style="fill:#0000ff;stroke:#ffffff;stroke-width:0.75;"/>
    <path clip-path="url(#p838054a28f)" d="M 196.102411 163.760251 
C 197.428426 163.760251 198.70031 163.23342 199.637944 162.295785 
C 200.575579 161.358151 201.102411 160.086267 201.102411 158.760251 
C 201.102411 157.434236 200.575579 156.162352 199.637944 155.224717 
C 198.70031 154.287083 197.428426 153.760251 196.102411 153.760251 
C 194.776395 153.760251 193.504511 154.287083 192.566877 155.224717 
C 191.629242 156.162352 191.102411 157.434236 191.102411 158.760251 
C 191.102411 160.086267 191.629242 161.358151 192.566877 162.295785 
C 193.504511 163.23342 194.776395 163.760251 196.102411 163.760251 
z
" style="fill:#0000ff;stroke:#ffffff;stroke-width:0.75;"/>
    <path clip-path="url(#p838054a28f)" d="M 306.736647 138.381965 
C 308.062662 138.381965 309.334546 137.855133 310.27218 136.917499 
C 311.209815 135.979864 311.736647 134.707981 311.736647 133.381965 
C 311.736647 132.05595 311.209815 130.784066 310.27218 129.846431 
C 309.334546 128.908797 308.062662 128.381965 306.736647 128.381965 
C 305.410631 128.381965 304.138747 128.908797 303.201113 129.846431 
C 302.263478 130.784066 301.736647 132.05595 301.736647 133.381965 
C 301.736647 134.707981 302.263478 135.979864 303.201113 136.917499 
C 304.138747 137.855133 305.410631 138.381965 306.736647 138.381965 
z
" style="fill:#0000ff;stroke:#ffffff;stroke-width:0.75;"/>
    <path clip-path="url(#p838054a28f)" d="M 301.532052 131.344482 
C 302.858068 131.344482 304.129951 130.817651 305.067586 129.880016 
C 306.005221 128.942382 306.532052 127.670498 306.532052 126.344482 
C 306.532052 125.018467 306.005221 123.746583 305.067586 122.808948 
C 304.129951 121.871314 302.858068 121.344482 301.532052 121.344482 
C 300.206037 121.344482 298.934153 121.871314 297.996518 122.808948 
C 297.058884 123.746583 296.532052 125.018467 296.532052 126.344482 
C 296.532052 127.670498 297.058884 128.942382 297.996518 129.880016 
C 298.934153 130.817651 300.206037 131.344482 301.532052 131.344482 
z
" style="fill:#0000ff;stroke:#ffffff;stroke-width:0.75;"/>
    <path clip-path="url(#p838054a28f)" d="M 317.317602 74.333215 
C 318.643618 74.333215 319.915502 73.806384 320.853136 72.868749 
C 321.790771 71.931115 322.317602 70.659231 322.317602 69.333215 
C 322.317602 68.0072 321.790771 66.735316 320.853136 65.797681 
C 319.915502 64.860047 318.643618 64.333215 317.317602 64.333215 
C 315.991587 64.333215 314.719703 64.860047 313.782068 65.797681 
C 312.844434 66.735316 312.317602 68.0072 312.317602 69.333215 
C 312.317602 70.659231 312.844434 71.931115 313.782068 72.868749 
C 314.719703 73.806384 315.991587 74.333215 317.317602 74.333215 
z
" style="fill:#ff0000;stroke:#ffffff;stroke-width:0.75;"/>
    <path clip-path="url(#p838054a28f)" d="M 63.918101 51.79135 
C 65.244116 51.79135 66.516 51.264518 67.453635 50.326884 
C 68.391269 49.389249 68.918101 48.117365 68.918101 46.79135 
C 68.918101 45.465334 68.391269 44.19345 67.453635 43.255816 
C 66.516 42.318181 65.244116 41.79135 63.918101 41.79135 
C 62.592085 41.79135 61.320201 42.318181 60.382567 43.255816 
C 59.444932 44.19345 58.918101 45.465334 58.918101 46.79135 
C 58.918101 48.117365 59.444932 49.389249 60.382567 50.326884 
C 61.320201 51.264518 62.592085 51.79135 63.918101 51.79135 
z
" style="fill:#ff0000;stroke:#ffffff;stroke-width:0.75;"/>
    <path clip-path="url(#p838054a28f)" d="M 105.444279 73.790178 
C 106.770295 73.790178 108.042178 73.263346 108.979813 72.325712 
C 109.917448 71.388077 110.444279 70.116194 110.444279 68.790178 
C 110.444279 67.464163 109.917448 66.192279 108.979813 65.254644 
C 108.042178 64.31701 106.770295 63.790178 105.444279 63.790178 
C 104.118264 63.790178 102.84638 64.31701 101.908745 65.254644 
C 100.971111 66.192279 100.444279 67.464163 100.444279 68.790178 
C 100.444279 70.116194 100.971111 71.388077 101.908745 72.325712 
C 102.84638 73.263346 104.118264 73.790178 105.444279 73.790178 
z
" style="fill:#ff0000;stroke:#ffffff;stroke-width:0.75;"/>
    <path clip-path="url(#p838054a28f)" d="M 162.186015 94.984726 
C 163.512031 94.984726 164.783915 94.457894 165.721549 93.52026 
C 166.659184 92.582625 167.186015 91.310741 167.186015 89.984726 
C 167.186015 88.65871 166.659184 87.386827 165.721549 86.449192 
C 164.783915 85.511558 163.512031 84.984726 162.186015 84.984726 
C 160.86 84.984726 159.588116 85.511558 158.650482 86.449192 
C 157.712847 87.386827 157.186015 88.65871 157.186015 89.984726 
C 157.186015 91.310741 157.712847 92.582625 158.650482 93.52026 
C 159.588116 94.457894 160.86 94.984726 162.186015 94.984726 
z
" style="fill:#ff0000;stroke:#ffffff;stroke-width:0.75;"/>
    <path clip-path="url(#p838054a28f)" d="M 298.274701 97.67694 
C 299.600716 97.67694 300.8726 97.150108 301.810235 96.212474 
C 302.747869 95.274839 303.274701 94.002955 303.274701 92.67694 
C 303.274701 91.350924 302.747869 90.07904 301.810235 89.141406 
C 300.8726 88.203771 299.600716 87.67694 298.274701 87.67694 
C 296.948685 87.67694 295.676801 88.203771 294.739167 89.141406 
C 293.801532 90.07904 293.274701 91.350924 293.274701 92.67694 
C 293.274701 94.002955 293.801532 95.274839 294.739167 96.212474 
C 295.676801 97.150108 296.948685 97.67694 298.274701 97.67694 
z
" style="fill:#0000ff;stroke:#ffffff;stroke-width:0.75;"/>
    <path clip-path="url(#p838054a28f)" d="M 261.3455 154.728999 
C 262.671516 154.728999 263.9434 154.202168 264.881034 153.264533 
C 265.818669 152.326899 266.3455 151.055015 266.3455 149.728999 
C 266.3455 148.402984 265.818669 147.1311 264.881034 146.193465 
C 263.9434 145.255831 262.671516 144.728999 261.3455 144.728999 
C 260.019485 144.728999 258.747601 145.255831 257.809966 146.193465 
C 256.872332 147.1311 256.3455 148.402984 256.3455 149.728999 
C 256.3455 151.055015 256.872332 152.326899 257.809966 153.264533 
C 258.747601 154.202168 260.019485 154.728999 261.3455 154.728999 
z
" style="fill:#0000ff;stroke:#ffffff;stroke-width:0.75;"/>
    <path clip-path="url(#p838054a28f)" d="M 299.372266 218.839883 
C 300.698281 218.839883 301.970165 218.313052 302.9078 217.375417 
C 303.845434 216.437783 304.372266 215.165899 304.372266 213.839883 
C 304.372266 212.513868 303.845434 211.241984 302.9078 210.30435 
C 301.970165 209.366715 300.698281 208.839883 299.372266 208.839883 
C 298.04625 208.839883 296.774366 209.366715 295.836732 210.30435 
C 294.899097 211.241984 294.372266 212.513868 294.372266 213.839883 
C 294.372266 215.165899 294.899097 216.437783 295.836732 217.375417 
C 296.774366 218.313052 298.04625 218.839883 299.372266 218.839883 
z
" style="fill:#0000ff;stroke:#ffffff;stroke-width:0.75;"/>
    <path clip-path="url(#p838054a28f)" d="M 176.847962 102.379304 
C 178.173977 102.379304 179.445861 101.852472 180.383496 100.914838 
C 181.32113 99.977203 181.847962 98.705319 181.847962 97.379304 
C 181.847962 96.053288 181.32113 94.781404 180.383496 93.84377 
C 179.445861 92.906135 178.173977 92.379304 176.847962 92.379304 
C 175.521946 92.379304 174.250062 92.906135 173.312428 93.84377 
C 172.374793 94.781404 171.847962 96.053288 171.847962 97.379304 
C 171.847962 98.705319 172.374793 99.977203 173.312428 100.914838 
C 174.250062 101.852472 175.521946 102.379304 176.847962 102.379304 
z
" style="fill:#ff0000;stroke:#ffffff;stroke-width:0.75;"/>
    <path clip-path="url(#p838054a28f)" d="M 223.471307 109.078341 
C 224.797323 109.078341 226.069207 108.55151 227.006841 107.613875 
C 227.944476 106.67624 228.471307 105.404357 228.471307 104.078341 
C 228.471307 102.752326 227.944476 101.480442 227.006841 100.542807 
C 226.069207 99.605173 224.797323 99.078341 223.471307 99.078341 
C 222.145292 99.078341 220.873408 99.605173 219.935773 100.542807 
C 218.998139 101.480442 218.471307 102.752326 218.471307 104.078341 
C 218.471307 105.404357 218.998139 106.67624 219.935773 107.613875 
C 220.873408 108.55151 222.145292 109.078341 223.471307 109.078341 
z
" style="fill:#0000ff;stroke:#ffffff;stroke-width:0.75;"/>
    <path clip-path="url(#p838054a28f)" d="M 196.03764 57.87706 
C 197.363656 57.87706 198.63554 57.350229 199.573174 56.412594 
C 200.510809 55.47496 201.03764 54.203076 201.03764 52.87706 
C 201.03764 51.551045 200.510809 50.279161 199.573174 49.341526 
C 198.63554 48.403892 197.363656 47.87706 196.03764 47.87706 
C 194.711625 47.87706 193.439741 48.403892 192.502106 49.341526 
C 191.564472 50.279161 191.03764 51.551045 191.03764 52.87706 
C 191.03764 54.203076 191.564472 55.47496 192.502106 56.412594 
C 193.439741 57.350229 194.711625 57.87706 196.03764 57.87706 
z
" style="fill:#ff0000;stroke:#ffffff;stroke-width:0.75;"/>
    <path clip-path="url(#p838054a28f)" d="M 288.548441 62.939083 
C 289.874457 62.939083 291.146341 62.412252 292.083975 61.474617 
C 293.02161 60.536983 293.548441 59.265099 293.548441 57.939083 
C 293.548441 56.613068 293.02161 55.341184 292.083975 54.403549 
C 291.146341 53.465915 289.874457 52.939083 288.548441 52.939083 
C 287.222426 52.939083 285.950542 53.465915 285.012907 54.403549 
C 284.075273 55.341184 283.548441 56.613068 283.548441 57.939083 
C 283.548441 59.265099 284.075273 60.536983 285.012907 61.474617 
C 285.950542 62.412252 287.222426 62.939083 288.548441 62.939083 
z
" style="fill:#ff0000;stroke:#ffffff;stroke-width:0.75;"/>
    <path clip-path="url(#p838054a28f)" d="M 165.596125 65.833879 
C 166.92214 65.833879 168.194024 65.307048 169.131659 64.369413 
C 170.069293 63.431779 170.596125 62.159895 170.596125 60.833879 
C 170.596125 59.507864 170.069293 58.23598 169.131659 57.298345 
C 168.194024 56.360711 166.92214 55.833879 165.596125 55.833879 
C 164.270109 55.833879 162.998226 56.360711 162.060591 57.298345 
C 161.122957 58.23598 160.596125 59.507864 160.596125 60.833879 
C 160.596125 62.159895 161.122957 63.431779 162.060591 64.369413 
C 162.998226 65.307048 164.270109 65.833879 165.596125 65.833879 
z
" style="fill:#ff0000;stroke:#ffffff;stroke-width:0.75;"/>
    <path clip-path="url(#p838054a28f)" d="M 233.072694 125.600183 
C 234.398709 125.600183 235.670593 125.073352 236.608227 124.135717 
C 237.545862 123.198082 238.072694 121.926199 238.072694 120.600183 
C 238.072694 119.274168 237.545862 118.002284 236.608227 117.064649 
C 235.670593 116.127015 234.398709 115.600183 233.072694 115.600183 
C 231.746678 115.600183 230.474794 116.127015 229.53716 117.064649 
C 228.599525 118.002284 228.072694 119.274168 228.072694 120.600183 
C 228.072694 121.926199 228.599525 123.198082 229.53716 124.135717 
C 230.474794 125.073352 231.746678 125.600183 233.072694 125.600183 
z
" style="fill:#0000ff;stroke:#ffffff;stroke-width:0.75;"/>
    <path clip-path="url(#p838054a28f)" d="M 277.923832 176.898915 
C 279.249847 176.898915 280.521731 176.372083 281.459365 175.434449 
C 282.397 174.496814 282.923832 173.22493 282.923832 171.898915 
C 282.923832 170.572899 282.397 169.301016 281.459365 168.363381 
C 280.521731 167.425747 279.249847 166.898915 277.923832 166.898915 
C 276.597816 166.898915 275.325932 167.425747 274.388298 168.363381 
C 273.450663 169.301016 272.923832 170.572899 272.923832 171.898915 
C 272.923832 173.22493 273.450663 174.496814 274.388298 175.434449 
C 275.325932 176.372083 276.597816 176.898915 277.923832 176.898915 
z
" style="fill:#0000ff;stroke:#ffffff;stroke-width:0.75;"/>
    <path clip-path="url(#p838054a28f)" d="M 138.039805 45.226437 
C 139.365821 45.226437 140.637705 44.699605 141.575339 43.761971 
C 142.512974 42.824336 143.039805 41.552452 143.039805 40.226437 
C 143.039805 38.900421 142.512974 37.628538 141.575339 36.690903 
C 140.637705 35.753268 139.365821 35.226437 138.039805 35.226437 
C 136.71379 35.226437 135.441906 35.753268 134.504272 36.690903 
C 133.566637 37.628538 133.039805 38.900421 133.039805 40.226437 
C 133.039805 41.552452 133.566637 42.824336 134.504272 43.761971 
C 135.441906 44.699605 136.71379 45.226437 138.039805 45.226437 
z
" style="fill:#ff0000;stroke:#ffffff;stroke-width:0.75;"/>
    <path clip-path="url(#p838054a28f)" d="M 138.286857 68.699472 
C 139.612872 68.699472 140.884756 68.17264 141.82239 67.235006 
C 142.760025 66.297371 143.286857 65.025487 143.286857 63.699472 
C 143.286857 62.373456 142.760025 61.101572 141.82239 60.163938 
C 140.884756 59.226303 139.612872 58.699472 138.286857 58.699472 
C 136.960841 58.699472 135.688957 59.226303 134.751323 60.163938 
C 133.813688 61.101572 133.286857 62.373456 133.286857 63.699472 
C 133.286857 65.025487 133.813688 66.297371 134.751323 67.235006 
C 135.688957 68.17264 136.960841 68.699472 138.286857 68.699472 
z
" style="fill:#ff0000;stroke:#ffffff;stroke-width:0.75;"/>
    <path clip-path="url(#p838054a28f)" d="M 259.295915 148.640175 
C 260.62193 148.640175 261.893814 148.113343 262.831449 147.175709 
C 263.769083 146.238074 264.295915 144.966191 264.295915 143.640175 
C 264.295915 142.31416 263.769083 141.042276 262.831449 140.104641 
C 261.893814 139.167007 260.62193 138.640175 259.295915 138.640175 
C 257.969899 138.640175 256.698016 139.167007 255.760381 140.104641 
C 254.822747 141.042276 254.295915 142.31416 254.295915 143.640175 
C 254.295915 144.966191 254.822747 146.238074 255.760381 147.175709 
C 256.698016 148.113343 257.969899 148.640175 259.295915 148.640175 
z
" style="fill:#ff0000;stroke:#ffffff;stroke-width:0.75;"/>
    <path clip-path="url(#p838054a28f)" d="M 213.226372 161.422323 
L 215.726372 158.922323 
L 218.226372 161.422323 
L 220.726372 158.922323 
L 218.226372 156.422323 
L 220.726372 153.922323 
L 218.226372 151.422323 
L 215.726372 153.922323 
L 213.226372 151.422323 
L 210.726372 153.922323 
L 213.226372 156.422323 
L 210.726372 158.922323 
z
" style="fill:#0000ff;stroke:#ffffff;stroke-width:0.75;"/>
    <path clip-path="url(#p838054a28f)" d="M 200.926015 153.297742 
L 203.426015 150.797742 
L 205.926015 153.297742 
L 208.426015 150.797742 
L 205.926015 148.297742 
L 208.426015 145.797742 
L 205.926015 143.297742 
L 203.426015 145.797742 
L 200.926015 143.297742 
L 198.426015 145.797742 
L 200.926015 148.297742 
L 198.426015 150.797742 
z
" style="fill:#0000ff;stroke:#ffffff;stroke-width:0.75;"/>
    <path clip-path="url(#p838054a28f)" d="M 250.714085 143.743262 
L 253.214085 141.243262 
L 255.714085 143.743262 
L 258.214085 141.243262 
L 255.714085 138.743262 
L 258.214085 136.243262 
L 255.714085 133.743262 
L 253.214085 136.243262 
L 250.714085 133.743262 
L 248.214085 136.243262 
L 250.714085 138.743262 
L 248.214085 141.243262 
z
" style="fill:#0000ff;stroke:#ffffff;stroke-width:0.75;"/>
    <path clip-path="url(#p838054a28f)" d="M 242.742898 158.447763 
L 245.242898 155.947763 
L 247.742898 158.447763 
L 250.242898 155.947763 
L 247.742898 153.447763 
L 250.242898 150.947763 
L 247.742898 148.447763 
L 245.242898 150.947763 
L 242.742898 148.447763 
L 240.242898 150.947763 
L 242.742898 153.447763 
L 240.242898 155.947763 
z
" style="fill:#0000ff;stroke:#ffffff;stroke-width:0.75;"/>
    <path clip-path="url(#p838054a28f)" d="M 272.394934 191.496755 
L 274.894934 188.996755 
L 277.394934 191.496755 
L 279.894934 188.996755 
L 277.394934 186.496755 
L 279.894934 183.996755 
L 277.394934 181.496755 
L 274.894934 183.996755 
L 272.394934 181.496755 
L 269.894934 183.996755 
L 272.394934 186.496755 
L 269.894934 188.996755 
z
" style="fill:#0000ff;stroke:#ffffff;stroke-width:0.75;"/>
    <path clip-path="url(#p838054a28f)" d="M 162.083877 63.347314 
L 164.583877 60.847314 
L 167.083877 63.347314 
L 169.583877 60.847314 
L 167.083877 58.347314 
L 169.583877 55.847314 
L 167.083877 53.347314 
L 164.583877 55.847314 
L 162.083877 53.347314 
L 159.583877 55.847314 
L 162.083877 58.347314 
L 159.583877 60.847314 
z
" style="fill:#0000ff;stroke:#ffffff;stroke-width:0.75;"/>
    <path clip-path="url(#p838054a28f)" d="M 240.928698 89.000129 
L 243.428698 86.500129 
L 245.928698 89.000129 
L 248.428698 86.500129 
L 245.928698 84.000129 
L 248.428698 81.500129 
L 245.928698 79.000129 
L 243.428698 81.500129 
L 240.928698 79.000129 
L 238.428698 81.500129 
L 240.928698 84.000129 
L 238.428698 86.500129 
z
" style="fill:#ff0000;stroke:#ffffff;stroke-width:0.75;"/>
    <path clip-path="url(#p838054a28f)" d="M 117.60219 93.803502 
L 120.10219 91.303502 
L 122.60219 93.803502 
L 125.10219 91.303502 
L 122.60219 88.803502 
L 125.10219 86.303502 
L 122.60219 83.803502 
L 120.10219 86.303502 
L 117.60219 83.803502 
L 115.10219 86.303502 
L 117.60219 88.803502 
L 115.10219 91.303502 
z
" style="fill:#ff0000;stroke:#ffffff;stroke-width:0.75;"/>
    <path clip-path="url(#p838054a28f)" d="M 350.118426 88.586847 
L 352.618426 86.086847 
L 355.118426 88.586847 
L 357.618426 86.086847 
L 355.118426 83.586847 
L 357.618426 81.086847 
L 355.118426 78.586847 
L 352.618426 81.086847 
L 350.118426 78.586847 
L 347.618426 81.086847 
L 350.118426 83.586847 
L 347.618426 86.086847 
z
" style="fill:#0000ff;stroke:#ffffff;stroke-width:0.75;"/>
    <path clip-path="url(#p838054a28f)" d="M 94.172323 73.434716 
L 96.672323 70.934716 
L 99.172323 73.434716 
L 101.672323 70.934716 
L 99.172323 68.434716 
L 101.672323 65.934716 
L 99.172323 63.434716 
L 96.672323 65.934716 
L 94.172323 63.434716 
L 91.672323 65.934716 
L 94.172323 68.434716 
L 91.672323 70.934716 
z
" style="fill:#0000ff;stroke:#ffffff;stroke-width:0.75;"/>
    <path clip-path="url(#p838054a28f)" d="M 202.15192 161.044591 
L 204.65192 158.544591 
L 207.15192 161.044591 
L 209.65192 158.544591 
L 207.15192 156.044591 
L 209.65192 153.544591 
L 207.15192 151.044591 
L 204.65192 153.544591 
L 202.15192 151.044591 
L 199.65192 153.544591 
L 202.15192 156.044591 
L 199.65192 158.544591 
z
" style="fill:#0000ff;stroke:#ffffff;stroke-width:0.75;"/>
    <path clip-path="url(#p838054a28f)" d="M 356.294857 119.25033 
L 358.794857 116.75033 
L 361.294857 119.25033 
L 363.794857 116.75033 
L 361.294857 114.25033 
L 363.794857 111.75033 
L 361.294857 109.25033 
L 358.794857 111.75033 
L 356.294857 109.25033 
L 353.794857 111.75033 
L 356.294857 114.25033 
L 353.794857 116.75033 
z
" style="fill:#0000ff;stroke:#ffffff;stroke-width:0.75;"/>
    <path clip-path="url(#p838054a28f)" d="M 195.542222 75.358653 
L 198.042222 72.858653 
L 200.542222 75.358653 
L 203.042222 72.858653 
L 200.542222 70.358653 
L 203.042222 67.858653 
L 200.542222 65.358653 
L 198.042222 67.858653 
L 195.542222 65.358653 
L 193.042222 67.858653 
L 195.542222 70.358653 
L 193.042222 72.858653 
z
" style="fill:#ff0000;stroke:#ffffff;stroke-width:0.75;"/>
    <path clip-path="url(#p838054a28f)" d="M 194.386557 23.000117 
L 196.886557 20.500117 
L 199.386557 23.000117 
L 201.886557 20.500117 
L 199.386557 18.000117 
L 201.886557 15.500117 
L 199.386557 13.000117 
L 196.886557 15.500117 
L 194.386557 13.000117 
L 191.886557 15.500117 
L 194.386557 18.000117 
L 191.886557 20.500117 
z
" style="fill:#ff0000;stroke:#ffffff;stroke-width:0.75;"/>
    <path clip-path="url(#p838054a28f)" d="M 122.022152 62.37132 
L 124.522152 59.87132 
L 127.022152 62.37132 
L 129.522152 59.87132 
L 127.022152 57.37132 
L 129.522152 54.87132 
L 127.022152 52.37132 
L 124.522152 54.87132 
L 122.022152 52.37132 
L 119.522152 54.87132 
L 122.022152 57.37132 
L 119.522152 59.87132 
z
" style="fill:#ff0000;stroke:#ffffff;stroke-width:0.75;"/>
    <path clip-path="url(#p838054a28f)" d="M 266.515348 115.544321 
L 269.015348 113.044321 
L 271.515348 115.544321 
L 274.015348 113.044321 
L 271.515348 110.544321 
L 274.015348 108.044321 
L 271.515348 105.544321 
L 269.015348 108.044321 
L 266.515348 105.544321 
L 264.015348 108.044321 
L 266.515348 110.544321 
L 264.015348 113.044321 
z
" style="fill:#ff0000;stroke:#ffffff;stroke-width:0.75;"/>
    <path clip-path="url(#p838054a28f)" d="M 170.925506 67.764658 
L 173.425506 65.264658 
L 175.925506 67.764658 
L 178.425506 65.264658 
L 175.925506 62.764658 
L 178.425506 60.264658 
L 175.925506 57.764658 
L 173.425506 60.264658 
L 170.925506 57.764658 
L 168.425506 60.264658 
L 170.925506 62.764658 
L 168.425506 65.264658 
z
" style="fill:#ff0000;stroke:#ffffff;stroke-width:0.75;"/>
    <path clip-path="url(#p838054a28f)" d="M 55.230768 48.21472 
L 57.730768 45.71472 
L 60.230768 48.21472 
L 62.730768 45.71472 
L 60.230768 43.21472 
L 62.730768 40.71472 
L 60.230768 38.21472 
L 57.730768 40.71472 
L 55.230768 38.21472 
L 52.730768 40.71472 
L 55.230768 43.21472 
L 52.730768 45.71472 
z
" style="fill:#ff0000;stroke:#ffffff;stroke-width:0.75;"/>
    <path clip-path="url(#p838054a28f)" d="M 90.734416 52.515736 
L 93.234416 50.015736 
L 95.734416 52.515736 
L 98.234416 50.015736 
L 95.734416 47.515736 
L 98.234416 45.015736 
L 95.734416 42.515736 
L 93.234416 45.015736 
L 90.734416 42.515736 
L 88.234416 45.015736 
L 90.734416 47.515736 
L 88.234416 50.015736 
z
" style="fill:#ff0000;stroke:#ffffff;stroke-width:0.75;"/>
    <path clip-path="url(#p838054a28f)" d="M 154.604348 52.859364 
L 157.104348 50.359364 
L 159.604348 52.859364 
L 162.104348 50.359364 
L 159.604348 47.859364 
L 162.104348 45.359364 
L 159.604348 42.859364 
L 157.104348 45.359364 
L 154.604348 42.859364 
L 152.104348 45.359364 
L 154.604348 47.859364 
L 152.104348 50.359364 
z
" style="fill:#ff0000;stroke:#ffffff;stroke-width:0.75;"/>
    <path clip-path="url(#p838054a28f)" d="M 85.834606 88.860751 
L 88.334606 86.360751 
L 90.834606 88.860751 
L 93.334606 86.360751 
L 90.834606 83.860751 
L 93.334606 81.360751 
L 90.834606 78.860751 
L 88.334606 81.360751 
L 85.834606 78.860751 
L 83.334606 81.360751 
L 85.834606 83.860751 
L 83.334606 86.360751 
z
" style="fill:#ff0000;stroke:#ffffff;stroke-width:0.75;"/>
    <path clip-path="url(#p838054a28f)" d="M 139.239347 82.595721 
L 141.739347 80.095721 
L 144.239347 82.595721 
L 146.739347 80.095721 
L 144.239347 77.595721 
L 146.739347 75.095721 
L 144.239347 72.595721 
L 141.739347 75.095721 
L 139.239347 72.595721 
L 136.739347 75.095721 
L 139.239347 77.595721 
L 136.739347 80.095721 
z
" style="fill:#0000ff;stroke:#ffffff;stroke-width:0.75;"/>
    <path clip-path="url(#p838054a28f)" d="M 188.874769 99.913206 
L 191.374769 97.413206 
L 193.874769 99.913206 
L 196.374769 97.413206 
L 193.874769 94.913206 
L 196.374769 92.413206 
L 193.874769 89.913206 
L 191.374769 92.413206 
L 188.874769 89.913206 
L 186.374769 92.413206 
L 188.874769 94.913206 
L 186.374769 97.413206 
z
" style="fill:#0000ff;stroke:#ffffff;stroke-width:0.75;"/>
   </g>
   <g id="PathCollection_2"/>
   <g id="PathCollection_3"/>
   <g id="PathCollection_4"/>
   <g id="PathCollection_5"/>
   <g id="PathCollection_6"/>
   <g id="PathCollection_7"/>
   <g id="matplotlib.axis_1">
    <g id="xtick_1">
     <g id="line2d_1">
      <defs>
       <path d="M 0 0 
L 0 3.5 
" id="m838afc3235" style="stroke:#000000;stroke-width:0.8;"/>
      </defs>
      <g>
       <use style="stroke:#000000;stroke-width:0.8;" x="90.899693" xlink:href="#m838afc3235" y="224.64"/>
      </g>
     </g>
     <g id="text_1">
      <text style="font-family:Arial;font-size:10px;font-style:normal;font-weight:normal;text-anchor:middle;" transform="rotate(-0, 90.899693, 238.797812)" x="90.899693" y="238.797812">0.5</text>
     </g>
    </g>
    <g id="xtick_2">
     <g id="line2d_2">
      <g>
       <use style="stroke:#000000;stroke-width:0.8;" x="141.112791" xlink:href="#m838afc3235" y="224.64"/>
      </g>
     </g>
     <g id="text_2">
      <text style="font-family:Arial;font-size:10px;font-style:normal;font-weight:normal;text-anchor:middle;" transform="rotate(-0, 141.112791, 238.797812)" x="141.112791" y="238.797812">1.0</text>
     </g>
    </g>
    <g id="xtick_3">
     <g id="line2d_3">
      <g>
       <use style="stroke:#000000;stroke-width:0.8;" x="191.325889" xlink:href="#m838afc3235" y="224.64"/>
      </g>
     </g>
     <g id="text_3">
      <text style="font-family:Arial;font-size:10px;font-style:normal;font-weight:normal;text-anchor:middle;" transform="rotate(-0, 191.325889, 238.797812)" x="191.325889" y="238.797812">1.5</text>
     </g>
    </g>
    <g id="xtick_4">
     <g id="line2d_4">
      <g>
       <use style="stroke:#000000;stroke-width:0.8;" x="241.538986" xlink:href="#m838afc3235" y="224.64"/>
      </g>
     </g>
     <g id="text_4">
      <text style="font-family:Arial;font-size:10px;font-style:normal;font-weight:normal;text-anchor:middle;" transform="rotate(-0, 241.538986, 238.797812)" x="241.538986" y="238.797812">2.0</text>
     </g>
    </g>
    <g id="xtick_5">
     <g id="line2d_5">
      <g>
       <use style="stroke:#000000;stroke-width:0.8;" x="291.752084" xlink:href="#m838afc3235" y="224.64"/>
      </g>
     </g>
     <g id="text_5">
      <text style="font-family:Arial;font-size:10px;font-style:normal;font-weight:normal;text-anchor:middle;" transform="rotate(-0, 291.752084, 238.797812)" x="291.752084" y="238.797812">2.5</text>
     </g>
    </g>
    <g id="xtick_6">
     <g id="line2d_6">
      <g>
       <use style="stroke:#000000;stroke-width:0.8;" x="341.965182" xlink:href="#m838afc3235" y="224.64"/>
      </g>
     </g>
     <g id="text_6">
      <text style="font-family:Arial;font-size:10px;font-style:normal;font-weight:normal;text-anchor:middle;" transform="rotate(-0, 341.965182, 238.797812)" x="341.965182" y="238.797812">3.0</text>
     </g>
    </g>
    <g id="text_7">
     <text style="font-family:Arial;font-size:12px;font-style:normal;font-weight:normal;text-anchor:middle;" transform="rotate(-0, 208.262812, 253.520937)" x="208.262812" y="253.520937">Log10(Rumino/Corio)</text>
    </g>
   </g>
   <g id="matplotlib.axis_2">
    <g id="ytick_1">
     <g id="line2d_7">
      <defs>
       <path d="M 0 0 
L -3.5 0 
" id="m7802d9397e" style="stroke:#000000;stroke-width:0.8;"/>
      </defs>
      <g>
       <use style="stroke:#000000;stroke-width:0.8;" x="40.862813" xlink:href="#m7802d9397e" y="207.284054"/>
      </g>
     </g>
     <g id="text_8">
      <text style="font-family:Arial;font-size:10px;font-style:normal;font-weight:normal;text-anchor:end;" transform="rotate(-0, 33.862813, 210.86296)" x="33.862813" y="210.86296">−5</text>
     </g>
    </g>
    <g id="ytick_2">
     <g id="line2d_8">
      <g>
       <use style="stroke:#000000;stroke-width:0.8;" x="40.862813" xlink:href="#m7802d9397e" y="171.051427"/>
      </g>
     </g>
     <g id="text_9">
      <text style="font-family:Arial;font-size:10px;font-style:normal;font-weight:normal;text-anchor:end;" transform="rotate(-0, 33.862813, 174.630333)" x="33.862813" y="174.630333">−4</text>
     </g>
    </g>
    <g id="ytick_3">
     <g id="line2d_9">
      <g>
       <use style="stroke:#000000;stroke-width:0.8;" x="40.862813" xlink:href="#m7802d9397e" y="134.8188"/>
      </g>
     </g>
     <g id="text_10">
      <text style="font-family:Arial;font-size:10px;font-style:normal;font-weight:normal;text-anchor:end;" transform="rotate(-0, 33.862813, 138.397706)" x="33.862813" y="138.397706">−3</text>
     </g>
    </g>
    <g id="ytick_4">
     <g id="line2d_10">
      <g>
       <use style="stroke:#000000;stroke-width:0.8;" x="40.862813" xlink:href="#m7802d9397e" y="98.586173"/>
      </g>
     </g>
     <g id="text_11">
      <text style="font-family:Arial;font-size:10px;font-style:normal;font-weight:normal;text-anchor:end;" transform="rotate(-0, 33.862813, 102.165079)" x="33.862813" y="102.165079">−2</text>
     </g>
    </g>
    <g id="ytick_5">
     <g id="line2d_11">
      <g>
       <use style="stroke:#000000;stroke-width:0.8;" x="40.862813" xlink:href="#m7802d9397e" y="62.353546"/>
      </g>
     </g>
     <g id="text_12">
      <text style="font-family:Arial;font-size:10px;font-style:normal;font-weight:normal;text-anchor:end;" transform="rotate(-0, 33.862813, 65.932452)" x="33.862813" y="65.932452">−1</text>
     </g>
    </g>
    <g id="ytick_6">
     <g id="line2d_12">
      <g>
       <use style="stroke:#000000;stroke-width:0.8;" x="40.862813" xlink:href="#m7802d9397e" y="26.120919"/>
      </g>
     </g>
     <g id="text_13">
      <text style="font-family:Arial;font-size:10px;font-style:normal;font-weight:normal;text-anchor:end;" transform="rotate(-0, 33.862813, 29.699825)" x="33.862813" y="29.699825">0</text>
     </g>
    </g>
    <g id="text_14">
     <text style="font-family:Arial;font-size:12px;font-style:normal;font-weight:normal;text-anchor:middle;" transform="rotate(-90, 15.935625, 115.92)" x="15.935625" y="115.92">Log10(CDCA/TbMCA)</text>
    </g>
   </g>
   <g id="patch_3">
    <path d="M 40.862813 224.64 
L 40.862813 7.2 
" style="fill:none;stroke:#000000;stroke-linecap:square;stroke-linejoin:miter;stroke-width:0.8;"/>
   </g>
   <g id="patch_4">
    <path d="M 375.662813 224.64 
L 375.662813 7.2 
" style="fill:none;stroke:#000000;stroke-linecap:square;stroke-linejoin:miter;stroke-width:0.8;"/>
   </g>
   <g id="patch_5">
    <path d="M 40.862813 224.64 
L 375.662813 224.64 
" style="fill:none;stroke:#000000;stroke-linecap:square;stroke-linejoin:miter;stroke-width:0.8;"/>
   </g>
   <g id="patch_6">
    <path d="M 40.862813 7.2 
L 375.662813 7.2 
" style="fill:none;stroke:#000000;stroke-linecap:square;stroke-linejoin:miter;stroke-width:0.8;"/>
   </g>
   <g id="legend_1">
    <g id="patch_7">
     <path d="M 394.402813 95.540625 
L 491.998125 95.540625 
Q 493.998125 95.540625 493.998125 93.540625 
L 493.998125 9.2 
Q 493.998125 7.2 491.998125 7.2 
L 394.402813 7.2 
Q 392.402813 7.2 392.402813 9.2 
L 392.402813 93.540625 
Q 392.402813 95.540625 394.402813 95.540625 
z
" style="fill:#ffffff;opacity:0.8;stroke:#cccccc;stroke-linejoin:miter;"/>
    </g>
    <g id="PathCollection_8">
     <defs>
      <path id="m0ad2763beb" style="stroke:#ffffff;stroke-width:1.5;"/>
     </defs>
     <g>
      <use style="fill:#ffffff;stroke:#ffffff;stroke-width:1.5;" x="406.402813" xlink:href="#m0ad2763beb" y="15.732812"/>
     </g>
    </g>
    <g id="text_15">
     <text style="font-family:Arial;font-size:10px;font-style:normal;font-weight:normal;text-anchor:start;" transform="rotate(-0, 424.402813, 18.357812)" x="424.402813" y="18.357812">exposure_type</text>
    </g>
    <g id="PathCollection_9">
     <defs>
      <path d="M 0 3 
C 0.795609 3 1.55874 2.683901 2.12132 2.12132 
C 2.683901 1.55874 3 0.795609 3 0 
C 3 -0.795609 2.683901 -1.55874 2.12132 -2.12132 
C 1.55874 -2.683901 0.795609 -3 0 -3 
C -0.795609 -3 -1.55874 -2.683901 -2.12132 -2.12132 
C -2.683901 -1.55874 -3 -0.795609 -3 0 
C -3 0.795609 -2.683901 1.55874 -2.12132 2.12132 
C -1.55874 2.683901 -0.795609 3 0 3 
z
" id="m76abf4657a" style="stroke:#0000ff;"/>
     </defs>
     <g>
      <use style="fill:#0000ff;stroke:#0000ff;" x="406.402813" xlink:href="#m76abf4657a" y="29.995312"/>
     </g>
    </g>
    <g id="text_16">
     <text style="font-family:Arial;font-size:10px;font-style:normal;font-weight:normal;text-anchor:start;" transform="rotate(-0, 424.402813, 32.620312)" x="424.402813" y="32.620312">IHC</text>
    </g>
    <g id="PathCollection_10">
     <defs>
      <path d="M 0 3 
C 0.795609 3 1.55874 2.683901 2.12132 2.12132 
C 2.683901 1.55874 3 0.795609 3 0 
C 3 -0.795609 2.683901 -1.55874 2.12132 -2.12132 
C 1.55874 -2.683901 0.795609 -3 0 -3 
C -0.795609 -3 -1.55874 -2.683901 -2.12132 -2.12132 
C -2.683901 -1.55874 -3 -0.795609 -3 0 
C -3 0.795609 -2.683901 1.55874 -2.12132 2.12132 
C -1.55874 2.683901 -0.795609 3 0 3 
z
" id="m079b5dcd10" style="stroke:#ff0000;"/>
     </defs>
     <g>
      <use style="fill:#ff0000;stroke:#ff0000;" x="406.402813" xlink:href="#m079b5dcd10" y="44.140625"/>
     </g>
    </g>
    <g id="text_17">
     <text style="font-family:Arial;font-size:10px;font-style:normal;font-weight:normal;text-anchor:start;" transform="rotate(-0, 424.402813, 46.765625)" x="424.402813" y="46.765625">Air</text>
    </g>
    <g id="PathCollection_11">
     <g>
      <use style="fill:#ffffff;stroke:#ffffff;stroke-width:1.5;" x="406.402813" xlink:href="#m0ad2763beb" y="58.285937"/>
     </g>
    </g>
    <g id="text_18">
     <text style="font-family:Arial;font-size:10px;font-style:normal;font-weight:normal;text-anchor:start;" transform="rotate(-0, 424.402813, 60.910937)" x="424.402813" y="60.910937">cycle</text>
    </g>
    <g id="PathCollection_12">
     <defs>
      <path d="M 0 3 
C 0.795609 3 1.55874 2.683901 2.12132 2.12132 
C 2.683901 1.55874 3 0.795609 3 0 
C 3 -0.795609 2.683901 -1.55874 2.12132 -2.12132 
C 1.55874 -2.683901 0.795609 -3 0 -3 
C -0.795609 -3 -1.55874 -2.683901 -2.12132 -2.12132 
C -2.683901 -1.55874 -3 -0.795609 -3 0 
C -3 0.795609 -2.683901 1.55874 -2.12132 2.12132 
C -1.55874 2.683901 -0.795609 3 0 3 
z
" id="m2989a60139" style="stroke:#333333;"/>
     </defs>
     <g>
      <use style="fill:#333333;stroke:#333333;" x="406.402813" xlink:href="#m2989a60139" y="72.548437"/>
     </g>
    </g>
    <g id="text_19">
     <text style="font-family:Arial;font-size:10px;font-style:normal;font-weight:normal;text-anchor:start;" transform="rotate(-0, 424.402813, 75.173437)" x="424.402813" y="75.173437">day</text>
    </g>
    <g id="PathCollection_13">
     <defs>
      <path d="M -1.5 3 
L 0 1.5 
L 1.5 3 
L 3 1.5 
L 1.5 0 
L 3 -1.5 
L 1.5 -3 
L 0 -1.5 
L -1.5 -3 
L -3 -1.5 
L -1.5 0 
L -3 1.5 
z
" id="mdd044f6bf1" style="stroke:#333333;"/>
     </defs>
     <g>
      <use style="fill:#333333;stroke:#333333;" x="406.402813" xlink:href="#mdd044f6bf1" y="86.810937"/>
     </g>
    </g>
    <g id="text_20">
     <text style="font-family:Arial;font-size:10px;font-style:normal;font-weight:normal;text-anchor:start;" transform="rotate(-0, 424.402813, 89.435937)" x="424.402813" y="89.435937">night</text>
    </g>
   </g>
  </g>
 </g>
 <defs>
  <clipPath id="p838054a28f">
   <rect height="217.44" width="334.8" x="40.862813" y="7.2"/>
  </clipPath>
 </defs>
</svg>
