<?xml version="1.0" encoding="utf-8" standalone="no"?>
<!DOCTYPE svg PUBLIC "-//W3C//DTD SVG 1.1//EN"
  "http://www.w3.org/Graphics/SVG/1.1/DTD/svg11.dtd">
<!-- Created with matplotlib (https://matplotlib.org/) -->
<svg height="263.246562pt" version="1.1" viewBox="0 0 501.198125 263.246562" width="501.198125pt" xmlns="http://www.w3.org/2000/svg" xmlns:xlink="http://www.w3.org/1999/xlink">
 <defs>
  <style type="text/css">
*{stroke-linecap:butt;stroke-linejoin:round;}
  </style>
 </defs>
 <g id="figure_1">
  <g id="patch_1">
   <path d="M 0 263.246562 
L 501.198125 263.246562 
L 501.198125 0 
L 0 0 
z
" style="fill:#ffffff;"/>
  </g>
  <g id="axes_1">
   <g id="patch_2">
    <path d="M 40.862813 224.64 
L 375.662813 224.64 
L 375.662813 7.2 
L 40.862813 7.2 
z
" style="fill:#ffffff;"/>
   </g>
   <g id="PathCollection_1">
    <path clip-path="url(#pfcfd8946fc)" d="M 199.741003 154.808502 
C 200.536612 154.808502 201.299742 154.492403 201.862323 153.929822 
C 202.424904 153.367241 202.741003 152.604111 202.741003 151.808502 
C 202.741003 151.012892 202.424904 150.249762 201.862323 149.687181 
C 201.299742 149.1246 200.536612 148.808502 199.741003 148.808502 
C 198.945394 148.808502 198.182263 149.1246 197.619682 149.687181 
C 197.057102 150.249762 196.741003 151.012892 196.741003 151.808502 
C 196.741003 152.604111 197.057102 153.367241 197.619682 153.929822 
C 198.182263 154.492403 198.945394 154.808502 199.741003 154.808502 
z
" style="fill:#0000ff;stroke:#ffffff;stroke-width:0.75;"/>
    <path clip-path="url(#pfcfd8946fc)" d="M 114.67519 178.657299 
C 115.470799 178.657299 116.233929 178.3412 116.79651 177.778619 
C 117.359091 177.216039 117.67519 176.452908 117.67519 175.657299 
C 117.67519 174.86169 117.359091 174.098559 116.79651 173.535979 
C 116.233929 172.973398 115.470799 172.657299 114.67519 172.657299 
C 113.879581 172.657299 113.11645 172.973398 112.55387 173.535979 
C 111.991289 174.098559 111.67519 174.86169 111.67519 175.657299 
C 111.67519 176.452908 111.991289 177.216039 112.55387 177.778619 
C 113.11645 178.3412 113.879581 178.657299 114.67519 178.657299 
z
" style="fill:#0000ff;stroke:#ffffff;stroke-width:0.75;"/>
    <path clip-path="url(#pfcfd8946fc)" d="M 221.509965 126.603002 
C 222.305574 126.603002 223.068704 126.286903 223.631285 125.724322 
C 224.193866 125.161742 224.509965 124.398611 224.509965 123.603002 
C 224.509965 122.807393 224.193866 122.044262 223.631285 121.481682 
C 223.068704 120.919101 222.305574 120.603002 221.509965 120.603002 
C 220.714355 120.603002 219.951225 120.919101 219.388644 121.481682 
C 218.826064 122.044262 218.509965 122.807393 218.509965 123.603002 
C 218.509965 124.398611 218.826064 125.161742 219.388644 125.724322 
C 219.951225 126.286903 220.714355 126.603002 221.509965 126.603002 
z
" style="fill:#0000ff;stroke:#ffffff;stroke-width:0.75;"/>
    <path clip-path="url(#pfcfd8946fc)" d="M 168.762462 178.076578 
C 169.558072 178.076578 170.321202 177.760479 170.883783 177.197898 
C 171.446363 176.635317 171.762462 175.872187 171.762462 175.076578 
C 171.762462 174.280968 171.446363 173.517838 170.883783 172.955257 
C 170.321202 172.392677 169.558072 172.076578 168.762462 172.076578 
C 167.966853 172.076578 167.203723 172.392677 166.641142 172.955257 
C 166.078561 173.517838 165.762462 174.280968 165.762462 175.076578 
C 165.762462 175.872187 166.078561 176.635317 166.641142 177.197898 
C 167.203723 177.760479 167.966853 178.076578 168.762462 178.076578 
z
" style="fill:#0000ff;stroke:#ffffff;stroke-width:0.75;"/>
    <path clip-path="url(#pfcfd8946fc)" d="M 176.058637 173.229019 
C 176.854246 173.229019 177.617377 172.912921 178.179957 172.35034 
C 178.742538 171.787759 179.058637 171.024629 179.058637 170.229019 
C 179.058637 169.43341 178.742538 168.67028 178.179957 168.107699 
C 177.617377 167.545118 176.854246 167.229019 176.058637 167.229019 
C 175.263028 167.229019 174.499897 167.545118 173.937317 168.107699 
C 173.374736 168.67028 173.058637 169.43341 173.058637 170.229019 
C 173.058637 171.024629 173.374736 171.787759 173.937317 172.35034 
C 174.499897 172.912921 175.263028 173.229019 176.058637 173.229019 
z
" style="fill:#0000ff;stroke:#ffffff;stroke-width:0.75;"/>
    <path clip-path="url(#pfcfd8946fc)" d="M 168.504828 180.711213 
C 169.300437 180.711213 170.063567 180.395114 170.626148 179.832533 
C 171.188729 179.269953 171.504828 178.506822 171.504828 177.711213 
C 171.504828 176.915604 171.188729 176.152473 170.626148 175.589893 
C 170.063567 175.027312 169.300437 174.711213 168.504828 174.711213 
C 167.709218 174.711213 166.946088 175.027312 166.383507 175.589893 
C 165.820927 176.152473 165.504828 176.915604 165.504828 177.711213 
C 165.504828 178.506822 165.820927 179.269953 166.383507 179.832533 
C 166.946088 180.395114 167.709218 180.711213 168.504828 180.711213 
z
" style="fill:#ff0000;stroke:#ffffff;stroke-width:0.75;"/>
    <path clip-path="url(#pfcfd8946fc)" d="M 171.537567 119.169426 
C 172.333177 119.169426 173.096307 118.853327 173.658888 118.290747 
C 174.221469 117.728166 174.537567 116.965036 174.537567 116.169426 
C 174.537567 115.373817 174.221469 114.610687 173.658888 114.048106 
C 173.096307 113.485525 172.333177 113.169426 171.537567 113.169426 
C 170.741958 113.169426 169.978828 113.485525 169.416247 114.048106 
C 168.853666 114.610687 168.537567 115.373817 168.537567 116.169426 
C 168.537567 116.965036 168.853666 117.728166 169.416247 118.290747 
C 169.978828 118.853327 170.741958 119.169426 171.537567 119.169426 
z
" style="fill:#ff0000;stroke:#ffffff;stroke-width:0.75;"/>
    <path clip-path="url(#pfcfd8946fc)" d="M 166.37158 131.567609 
C 167.167189 131.567609 167.93032 131.25151 168.492901 130.68893 
C 169.055481 130.126349 169.37158 129.363219 169.37158 128.567609 
C 169.37158 127.772 169.055481 127.00887 168.492901 126.446289 
C 167.93032 125.883708 167.167189 125.567609 166.37158 125.567609 
C 165.575971 125.567609 164.812841 125.883708 164.25026 126.446289 
C 163.687679 127.00887 163.37158 127.772 163.37158 128.567609 
C 163.37158 129.363219 163.687679 130.126349 164.25026 130.68893 
C 164.812841 131.25151 165.575971 131.567609 166.37158 131.567609 
z
" style="fill:#ff0000;stroke:#ffffff;stroke-width:0.75;"/>
    <path clip-path="url(#pfcfd8946fc)" d="M 156.728638 149.788712 
C 157.524247 149.788712 158.287377 149.472613 158.849958 148.910033 
C 159.412539 148.347452 159.728638 147.584322 159.728638 146.788712 
C 159.728638 145.993103 159.412539 145.229973 158.849958 144.667392 
C 158.287377 144.104811 157.524247 143.788712 156.728638 143.788712 
C 155.933028 143.788712 155.169898 144.104811 154.607317 144.667392 
C 154.044737 145.229973 153.728638 145.993103 153.728638 146.788712 
C 153.728638 147.584322 154.044737 148.347452 154.607317 148.910033 
C 155.169898 149.472613 155.933028 149.788712 156.728638 149.788712 
z
" style="fill:#ff0000;stroke:#ffffff;stroke-width:0.75;"/>
    <path clip-path="url(#pfcfd8946fc)" d="M 176.08308 172.445128 
C 176.878689 172.445128 177.641819 172.129029 178.2044 171.566448 
C 178.766981 171.003867 179.08308 170.240737 179.08308 169.445128 
C 179.08308 168.649518 178.766981 167.886388 178.2044 167.323807 
C 177.641819 166.761227 176.878689 166.445128 176.08308 166.445128 
C 175.287471 166.445128 174.52434 166.761227 173.96176 167.323807 
C 173.399179 167.886388 173.08308 168.649518 173.08308 169.445128 
C 173.08308 170.240737 173.399179 171.003867 173.96176 171.566448 
C 174.52434 172.129029 175.287471 172.445128 176.08308 172.445128 
z
" style="fill:#0000ff;stroke:#ffffff;stroke-width:0.75;"/>
    <path clip-path="url(#pfcfd8946fc)" d="M 200.556133 151.571734 
C 201.351742 151.571734 202.114873 151.255635 202.677453 150.693055 
C 203.240034 150.130474 203.556133 149.367344 203.556133 148.571734 
C 203.556133 147.776125 203.240034 147.012995 202.677453 146.450414 
C 202.114873 145.887833 201.351742 145.571734 200.556133 145.571734 
C 199.760524 145.571734 198.997393 145.887833 198.434813 146.450414 
C 197.872232 147.012995 197.556133 147.776125 197.556133 148.571734 
C 197.556133 149.367344 197.872232 150.130474 198.434813 150.693055 
C 198.997393 151.255635 199.760524 151.571734 200.556133 151.571734 
z
" style="fill:#0000ff;stroke:#ffffff;stroke-width:0.75;"/>
    <path clip-path="url(#pfcfd8946fc)" d="M 232.541409 144.736664 
C 233.337018 144.736664 234.100148 144.420565 234.662729 143.857984 
C 235.22531 143.295403 235.541409 142.532273 235.541409 141.736664 
C 235.541409 140.941055 235.22531 140.177924 234.662729 139.615343 
C 234.100148 139.052763 233.337018 138.736664 232.541409 138.736664 
C 231.7458 138.736664 230.982669 139.052763 230.420088 139.615343 
C 229.857508 140.177924 229.541409 140.941055 229.541409 141.736664 
C 229.541409 142.532273 229.857508 143.295403 230.420088 143.857984 
C 230.982669 144.420565 231.7458 144.736664 232.541409 144.736664 
z
" style="fill:#0000ff;stroke:#ffffff;stroke-width:0.75;"/>
    <path clip-path="url(#pfcfd8946fc)" d="M 151.263072 155.970203 
C 152.058681 155.970203 152.821812 155.654104 153.384393 155.091523 
C 153.946973 154.528942 154.263072 153.765812 154.263072 152.970203 
C 154.263072 152.174593 153.946973 151.411463 153.384393 150.848882 
C 152.821812 150.286302 152.058681 149.970203 151.263072 149.970203 
C 150.467463 149.970203 149.704333 150.286302 149.141752 150.848882 
C 148.579171 151.411463 148.263072 152.174593 148.263072 152.970203 
C 148.263072 153.765812 148.579171 154.528942 149.141752 155.091523 
C 149.704333 155.654104 150.467463 155.970203 151.263072 155.970203 
z
" style="fill:#ff0000;stroke:#ffffff;stroke-width:0.75;"/>
    <path clip-path="url(#pfcfd8946fc)" d="M 227.539008 129.231114 
C 228.334618 129.231114 229.097748 128.915015 229.660329 128.352434 
C 230.222909 127.789854 230.539008 127.026723 230.539008 126.231114 
C 230.539008 125.435505 230.222909 124.672374 229.660329 124.109794 
C 229.097748 123.547213 228.334618 123.231114 227.539008 123.231114 
C 226.743399 123.231114 225.980269 123.547213 225.417688 124.109794 
C 224.855107 124.672374 224.539008 125.435505 224.539008 126.231114 
C 224.539008 127.026723 224.855107 127.789854 225.417688 128.352434 
C 225.980269 128.915015 226.743399 129.231114 227.539008 129.231114 
z
" style="fill:#0000ff;stroke:#ffffff;stroke-width:0.75;"/>
    <path clip-path="url(#pfcfd8946fc)" d="M 168.114268 152.169123 
C 168.909877 152.169123 169.673008 151.853024 170.235589 151.290443 
C 170.798169 150.727862 171.114268 149.964732 171.114268 149.169123 
C 171.114268 148.373514 170.798169 147.610383 170.235589 147.047802 
C 169.673008 146.485222 168.909877 146.169123 168.114268 146.169123 
C 167.318659 146.169123 166.555529 146.485222 165.992948 147.047802 
C 165.430367 147.610383 165.114268 148.373514 165.114268 149.169123 
C 165.114268 149.964732 165.430367 150.727862 165.992948 151.290443 
C 166.555529 151.853024 167.318659 152.169123 168.114268 152.169123 
z
" style="fill:#ff0000;stroke:#ffffff;stroke-width:0.75;"/>
    <path clip-path="url(#pfcfd8946fc)" d="M 169.710378 173.297559 
C 170.505987 173.297559 171.269118 172.98146 171.831698 172.418879 
C 172.394279 171.856298 172.710378 171.093168 172.710378 170.297559 
C 172.710378 169.501949 172.394279 168.738819 171.831698 168.176238 
C 171.269118 167.613658 170.505987 167.297559 169.710378 167.297559 
C 168.914769 167.297559 168.151638 167.613658 167.589058 168.176238 
C 167.026477 168.738819 166.710378 169.501949 166.710378 170.297559 
C 166.710378 171.093168 167.026477 171.856298 167.589058 172.418879 
C 168.151638 172.98146 168.914769 173.297559 169.710378 173.297559 
z
" style="fill:#ff0000;stroke:#ffffff;stroke-width:0.75;"/>
    <path clip-path="url(#pfcfd8946fc)" d="M 176.903742 140.602279 
C 177.699351 140.602279 178.462482 140.28618 179.025062 139.723599 
C 179.587643 139.161018 179.903742 138.397888 179.903742 137.602279 
C 179.903742 136.806669 179.587643 136.043539 179.025062 135.480958 
C 178.462482 134.918377 177.699351 134.602279 176.903742 134.602279 
C 176.108133 134.602279 175.345002 134.918377 174.782422 135.480958 
C 174.219841 136.043539 173.903742 136.806669 173.903742 137.602279 
C 173.903742 138.397888 174.219841 139.161018 174.782422 139.723599 
C 175.345002 140.28618 176.108133 140.602279 176.903742 140.602279 
z
" style="fill:#ff0000;stroke:#ffffff;stroke-width:0.75;"/>
    <path clip-path="url(#pfcfd8946fc)" d="M 185.994004 152.08673 
C 186.789614 152.08673 187.552744 151.770631 188.115325 151.20805 
C 188.677905 150.645469 188.994004 149.882339 188.994004 149.08673 
C 188.994004 148.29112 188.677905 147.52799 188.115325 146.965409 
C 187.552744 146.402829 186.789614 146.08673 185.994004 146.08673 
C 185.198395 146.08673 184.435265 146.402829 183.872684 146.965409 
C 183.310103 147.52799 182.994004 148.29112 182.994004 149.08673 
C 182.994004 149.882339 183.310103 150.645469 183.872684 151.20805 
C 184.435265 151.770631 185.198395 152.08673 185.994004 152.08673 
z
" style="fill:#0000ff;stroke:#ffffff;stroke-width:0.75;"/>
    <path clip-path="url(#pfcfd8946fc)" d="M 181.113855 165.131116 
C 181.909464 165.131116 182.672594 164.815017 183.235175 164.252436 
C 183.797756 163.689855 184.113855 162.926725 184.113855 162.131116 
C 184.113855 161.335506 183.797756 160.572376 183.235175 160.009795 
C 182.672594 159.447215 181.909464 159.131116 181.113855 159.131116 
C 180.318245 159.131116 179.555115 159.447215 178.992534 160.009795 
C 178.429954 160.572376 178.113855 161.335506 178.113855 162.131116 
C 178.113855 162.926725 178.429954 163.689855 178.992534 164.252436 
C 179.555115 164.815017 180.318245 165.131116 181.113855 165.131116 
z
" style="fill:#0000ff;stroke:#ffffff;stroke-width:0.75;"/>
    <path clip-path="url(#pfcfd8946fc)" d="M 180.789831 132.148095 
C 181.585441 132.148095 182.348571 131.831997 182.911152 131.269416 
C 183.473732 130.706835 183.789831 129.943705 183.789831 129.148095 
C 183.789831 128.352486 183.473732 127.589356 182.911152 127.026775 
C 182.348571 126.464194 181.585441 126.148095 180.789831 126.148095 
C 179.994222 126.148095 179.231092 126.464194 178.668511 127.026775 
C 178.10593 127.589356 177.789831 128.352486 177.789831 129.148095 
C 177.789831 129.943705 178.10593 130.706835 178.668511 131.269416 
C 179.231092 131.831997 179.994222 132.148095 180.789831 132.148095 
z
" style="fill:#ff0000;stroke:#ffffff;stroke-width:0.75;"/>
    <path clip-path="url(#pfcfd8946fc)" d="M 162.747981 141.144263 
C 163.543591 141.144263 164.306721 140.828164 164.869302 140.265583 
C 165.431882 139.703003 165.747981 138.939872 165.747981 138.144263 
C 165.747981 137.348654 165.431882 136.585523 164.869302 136.022943 
C 164.306721 135.460362 163.543591 135.144263 162.747981 135.144263 
C 161.952372 135.144263 161.189242 135.460362 160.626661 136.022943 
C 160.06408 136.585523 159.747981 137.348654 159.747981 138.144263 
C 159.747981 138.939872 160.06408 139.703003 160.626661 140.265583 
C 161.189242 140.828164 161.952372 141.144263 162.747981 141.144263 
z
" style="fill:#ff0000;stroke:#ffffff;stroke-width:0.75;"/>
    <path clip-path="url(#pfcfd8946fc)" d="M 172.245218 137.692124 
C 173.040828 137.692124 173.803958 137.376025 174.366539 136.813445 
C 174.92912 136.250864 175.245218 135.487734 175.245218 134.692124 
C 175.245218 133.896515 174.92912 133.133385 174.366539 132.570804 
C 173.803958 132.008223 173.040828 131.692124 172.245218 131.692124 
C 171.449609 131.692124 170.686479 132.008223 170.123898 132.570804 
C 169.561317 133.133385 169.245218 133.896515 169.245218 134.692124 
C 169.245218 135.487734 169.561317 136.250864 170.123898 136.813445 
C 170.686479 137.376025 171.449609 137.692124 172.245218 137.692124 
z
" style="fill:#ff0000;stroke:#ffffff;stroke-width:0.75;"/>
    <path clip-path="url(#pfcfd8946fc)" d="M 128.746425 186.659448 
C 129.542034 186.659448 130.305164 186.343349 130.867745 185.780768 
C 131.430326 185.218188 131.746425 184.455057 131.746425 183.659448 
C 131.746425 182.863839 131.430326 182.100708 130.867745 181.538128 
C 130.305164 180.975547 129.542034 180.659448 128.746425 180.659448 
C 127.950816 180.659448 127.187685 180.975547 126.625105 181.538128 
C 126.062524 182.100708 125.746425 182.863839 125.746425 183.659448 
C 125.746425 184.455057 126.062524 185.218188 126.625105 185.780768 
C 127.187685 186.343349 127.950816 186.659448 128.746425 186.659448 
z
" style="fill:#ff0000;stroke:#ffffff;stroke-width:0.75;"/>
    <path clip-path="url(#pfcfd8946fc)" d="M 93.724765 192.942335 
L 95.224765 191.442335 
L 96.724765 192.942335 
L 98.224765 191.442335 
L 96.724765 189.942335 
L 98.224765 188.442335 
L 96.724765 186.942335 
L 95.224765 188.442335 
L 93.724765 186.942335 
L 92.224765 188.442335 
L 93.724765 189.942335 
L 92.224765 191.442335 
z
" style="fill:#0000ff;stroke:#ffffff;stroke-width:0.75;"/>
    <path clip-path="url(#pfcfd8946fc)" d="M 127.996284 173.0504 
L 129.496284 171.5504 
L 130.996284 173.0504 
L 132.496284 171.5504 
L 130.996284 170.0504 
L 132.496284 168.5504 
L 130.996284 167.0504 
L 129.496284 168.5504 
L 127.996284 167.0504 
L 126.496284 168.5504 
L 127.996284 170.0504 
L 126.496284 171.5504 
z
" style="fill:#0000ff;stroke:#ffffff;stroke-width:0.75;"/>
    <path clip-path="url(#pfcfd8946fc)" d="M 144.07088 176.88389 
L 145.57088 175.38389 
L 147.07088 176.88389 
L 148.57088 175.38389 
L 147.07088 173.88389 
L 148.57088 172.38389 
L 147.07088 170.88389 
L 145.57088 172.38389 
L 144.07088 170.88389 
L 142.57088 172.38389 
L 144.07088 173.88389 
L 142.57088 175.38389 
z
" style="fill:#0000ff;stroke:#ffffff;stroke-width:0.75;"/>
    <path clip-path="url(#pfcfd8946fc)" d="M 167.221865 163.526617 
L 168.721865 162.026617 
L 170.221865 163.526617 
L 171.721865 162.026617 
L 170.221865 160.526617 
L 171.721865 159.026617 
L 170.221865 157.526617 
L 168.721865 159.026617 
L 167.221865 157.526617 
L 165.721865 159.026617 
L 167.221865 160.526617 
L 165.721865 162.026617 
z
" style="fill:#0000ff;stroke:#ffffff;stroke-width:0.75;"/>
    <path clip-path="url(#pfcfd8946fc)" d="M 132.186303 187.908281 
L 133.686303 186.408281 
L 135.186303 187.908281 
L 136.686303 186.408281 
L 135.186303 184.908281 
L 136.686303 183.408281 
L 135.186303 181.908281 
L 133.686303 183.408281 
L 132.186303 181.908281 
L 130.686303 183.408281 
L 132.186303 184.908281 
L 130.686303 186.408281 
z
" style="fill:#0000ff;stroke:#ffffff;stroke-width:0.75;"/>
    <path clip-path="url(#pfcfd8946fc)" d="M 174.667759 140.727034 
L 176.167759 139.227034 
L 177.667759 140.727034 
L 179.167759 139.227034 
L 177.667759 137.727034 
L 179.167759 136.227034 
L 177.667759 134.727034 
L 176.167759 136.227034 
L 174.667759 134.727034 
L 173.167759 136.227034 
L 174.667759 137.727034 
L 173.167759 139.227034 
z
" style="fill:#0000ff;stroke:#ffffff;stroke-width:0.75;"/>
    <path clip-path="url(#pfcfd8946fc)" d="M 137.671227 177.735662 
L 139.171227 176.235662 
L 140.671227 177.735662 
L 142.171227 176.235662 
L 140.671227 174.735662 
L 142.171227 173.235662 
L 140.671227 171.735662 
L 139.171227 173.235662 
L 137.671227 171.735662 
L 136.171227 173.235662 
L 137.671227 174.735662 
L 136.171227 176.235662 
z
" style="fill:#ff0000;stroke:#ffffff;stroke-width:0.75;"/>
    <path clip-path="url(#pfcfd8946fc)" d="M 109.476063 162.48261 
L 110.976063 160.98261 
L 112.476063 162.48261 
L 113.976063 160.98261 
L 112.476063 159.48261 
L 113.976063 157.98261 
L 112.476063 156.48261 
L 110.976063 157.98261 
L 109.476063 156.48261 
L 107.976063 157.98261 
L 109.476063 159.48261 
L 107.976063 160.98261 
z
" style="fill:#ff0000;stroke:#ffffff;stroke-width:0.75;"/>
    <path clip-path="url(#pfcfd8946fc)" d="M 109.836979 217.395243 
L 111.336979 215.895243 
L 112.836979 217.395243 
L 114.336979 215.895243 
L 112.836979 214.395243 
L 114.336979 212.895243 
L 112.836979 211.395243 
L 111.336979 212.895243 
L 109.836979 211.395243 
L 108.336979 212.895243 
L 109.836979 214.395243 
L 108.336979 215.895243 
z
" style="fill:#0000ff;stroke:#ffffff;stroke-width:0.75;"/>
    <path clip-path="url(#pfcfd8946fc)" d="M 175.511275 124.218491 
L 177.011275 122.718491 
L 178.511275 124.218491 
L 180.011275 122.718491 
L 178.511275 121.218491 
L 180.011275 119.718491 
L 178.511275 118.218491 
L 177.011275 119.718491 
L 175.511275 118.218491 
L 174.011275 119.718491 
L 175.511275 121.218491 
L 174.011275 122.718491 
z
" style="fill:#0000ff;stroke:#ffffff;stroke-width:0.75;"/>
    <path clip-path="url(#pfcfd8946fc)" d="M 123.725626 175.456474 
L 125.225626 173.956474 
L 126.725626 175.456474 
L 128.225626 173.956474 
L 126.725626 172.456474 
L 128.225626 170.956474 
L 126.725626 169.456474 
L 125.225626 170.956474 
L 123.725626 169.456474 
L 122.225626 170.956474 
L 123.725626 172.456474 
L 122.225626 173.956474 
z
" style="fill:#0000ff;stroke:#ffffff;stroke-width:0.75;"/>
    <path clip-path="url(#pfcfd8946fc)" d="M 120.874773 213.390721 
L 122.374773 211.890721 
L 123.874773 213.390721 
L 125.374773 211.890721 
L 123.874773 210.390721 
L 125.374773 208.890721 
L 123.874773 207.390721 
L 122.374773 208.890721 
L 120.874773 207.390721 
L 119.374773 208.890721 
L 120.874773 210.390721 
L 119.374773 211.890721 
z
" style="fill:#0000ff;stroke:#ffffff;stroke-width:0.75;"/>
    <path clip-path="url(#pfcfd8946fc)" d="M 133.213808 169.190112 
L 134.713808 167.690112 
L 136.213808 169.190112 
L 137.713808 167.690112 
L 136.213808 166.190112 
L 137.713808 164.690112 
L 136.213808 163.190112 
L 134.713808 164.690112 
L 133.213808 163.190112 
L 131.713808 164.690112 
L 133.213808 166.190112 
L 131.713808 167.690112 
z
" style="fill:#ff0000;stroke:#ffffff;stroke-width:0.75;"/>
    <path clip-path="url(#pfcfd8946fc)" d="M 119.697036 175.612277 
L 121.197036 174.112277 
L 122.697036 175.612277 
L 124.197036 174.112277 
L 122.697036 172.612277 
L 124.197036 171.112277 
L 122.697036 169.612277 
L 121.197036 171.112277 
L 119.697036 169.612277 
L 118.197036 171.112277 
L 119.697036 172.612277 
L 118.197036 174.112277 
z
" style="fill:#ff0000;stroke:#ffffff;stroke-width:0.75;"/>
    <path clip-path="url(#pfcfd8946fc)" d="M 172.053463 132.530056 
L 173.553463 131.030056 
L 175.053463 132.530056 
L 176.553463 131.030056 
L 175.053463 129.530056 
L 176.553463 128.030056 
L 175.053463 126.530056 
L 173.553463 128.030056 
L 172.053463 126.530056 
L 170.553463 128.030056 
L 172.053463 129.530056 
L 170.553463 131.030056 
z
" style="fill:#ff0000;stroke:#ffffff;stroke-width:0.75;"/>
    <path clip-path="url(#pfcfd8946fc)" d="M 97.156374 203.86844 
L 98.656374 202.36844 
L 100.156374 203.86844 
L 101.656374 202.36844 
L 100.156374 200.86844 
L 101.656374 199.36844 
L 100.156374 197.86844 
L 98.656374 199.36844 
L 97.156374 197.86844 
L 95.656374 199.36844 
L 97.156374 200.86844 
L 95.656374 202.36844 
z
" style="fill:#ff0000;stroke:#ffffff;stroke-width:0.75;"/>
    <path clip-path="url(#pfcfd8946fc)" d="M 107.431393 176.129709 
L 108.931393 174.629709 
L 110.431393 176.129709 
L 111.931393 174.629709 
L 110.431393 173.129709 
L 111.931393 171.629709 
L 110.431393 170.129709 
L 108.931393 171.629709 
L 107.431393 170.129709 
L 105.931393 171.629709 
L 107.431393 173.129709 
L 105.931393 174.629709 
z
" style="fill:#ff0000;stroke:#ffffff;stroke-width:0.75;"/>
    <path clip-path="url(#pfcfd8946fc)" d="M 177.094944 114.207319 
L 178.594944 112.707319 
L 180.094944 114.207319 
L 181.594944 112.707319 
L 180.094944 111.207319 
L 181.594944 109.707319 
L 180.094944 108.207319 
L 178.594944 109.707319 
L 177.094944 108.207319 
L 175.594944 109.707319 
L 177.094944 111.207319 
L 175.594944 112.707319 
z
" style="fill:#ff0000;stroke:#ffffff;stroke-width:0.75;"/>
    <path clip-path="url(#pfcfd8946fc)" d="M 55.054434 183.076242 
L 56.554434 181.576242 
L 58.054434 183.076242 
L 59.554434 181.576242 
L 58.054434 180.076242 
L 59.554434 178.576242 
L 58.054434 177.076242 
L 56.554434 178.576242 
L 55.054434 177.076242 
L 53.554434 178.576242 
L 55.054434 180.076242 
L 53.554434 181.576242 
z
" style="fill:#ff0000;stroke:#ffffff;stroke-width:0.75;"/>
    <path clip-path="url(#pfcfd8946fc)" d="M 83.602942 184.06686 
L 85.102942 182.56686 
L 86.602942 184.06686 
L 88.102942 182.56686 
L 86.602942 181.06686 
L 88.102942 179.56686 
L 86.602942 178.06686 
L 85.102942 179.56686 
L 83.602942 178.06686 
L 82.102942 179.56686 
L 83.602942 181.06686 
L 82.102942 182.56686 
z
" style="fill:#ff0000;stroke:#ffffff;stroke-width:0.75;"/>
    <path clip-path="url(#pfcfd8946fc)" d="M 98.757176 160.26569 
L 100.257176 158.76569 
L 101.757176 160.26569 
L 103.257176 158.76569 
L 101.757176 157.26569 
L 103.257176 155.76569 
L 101.757176 154.26569 
L 100.257176 155.76569 
L 98.757176 154.26569 
L 97.257176 155.76569 
L 98.757176 157.26569 
L 97.257176 158.76569 
z
" style="fill:#ff0000;stroke:#ffffff;stroke-width:0.75;"/>
    <path clip-path="url(#pfcfd8946fc)" d="M 137.283623 153.833826 
L 138.783623 152.333826 
L 140.283623 153.833826 
L 141.783623 152.333826 
L 140.283623 150.833826 
L 141.783623 149.333826 
L 140.283623 147.833826 
L 138.783623 149.333826 
L 137.283623 147.833826 
L 135.783623 149.333826 
L 137.283623 150.833826 
L 135.783623 152.333826 
z
" style="fill:#0000ff;stroke:#ffffff;stroke-width:0.75;"/>
    <path clip-path="url(#pfcfd8946fc)" d="M 151.453893 158.574519 
L 152.953893 157.074519 
L 154.453893 158.574519 
L 155.953893 157.074519 
L 154.453893 155.574519 
L 155.953893 154.074519 
L 154.453893 152.574519 
L 152.953893 154.074519 
L 151.453893 152.574519 
L 149.953893 154.074519 
L 151.453893 155.574519 
L 149.953893 157.074519 
z
" style="fill:#0000ff;stroke:#ffffff;stroke-width:0.75;"/>
   </g>
   <g id="PathCollection_2"/>
   <g id="PathCollection_3"/>
   <g id="PathCollection_4"/>
   <g id="PathCollection_5"/>
   <g id="PathCollection_6"/>
   <g id="PathCollection_7"/>
   <g id="matplotlib.axis_1">
    <g id="xtick_1">
     <g id="line2d_1">
      <defs>
       <path d="M 0 0 
L 0 3.5 
" id="m9572cf705b" style="stroke:#000000;stroke-width:0.8;"/>
      </defs>
      <g>
       <use style="stroke:#000000;stroke-width:0.8;" x="72.248883" xlink:href="#m9572cf705b" y="224.64"/>
      </g>
     </g>
     <g id="text_1">
      <text style="font-family:Arial;font-size:10px;font-style:normal;font-weight:normal;text-anchor:middle;" transform="rotate(-0, 72.248883, 238.797812)" x="72.248883" y="238.797812">−6</text>
     </g>
    </g>
    <g id="xtick_2">
     <g id="line2d_2">
      <g>
       <use style="stroke:#000000;stroke-width:0.8;" x="120.281507" xlink:href="#m9572cf705b" y="224.64"/>
      </g>
     </g>
     <g id="text_2">
      <text style="font-family:Arial;font-size:10px;font-style:normal;font-weight:normal;text-anchor:middle;" transform="rotate(-0, 120.281507, 238.797812)" x="120.281507" y="238.797812">−5</text>
     </g>
    </g>
    <g id="xtick_3">
     <g id="line2d_3">
      <g>
       <use style="stroke:#000000;stroke-width:0.8;" x="168.314132" xlink:href="#m9572cf705b" y="224.64"/>
      </g>
     </g>
     <g id="text_3">
      <text style="font-family:Arial;font-size:10px;font-style:normal;font-weight:normal;text-anchor:middle;" transform="rotate(-0, 168.314132, 238.797812)" x="168.314132" y="238.797812">−4</text>
     </g>
    </g>
    <g id="xtick_4">
     <g id="line2d_4">
      <g>
       <use style="stroke:#000000;stroke-width:0.8;" x="216.346757" xlink:href="#m9572cf705b" y="224.64"/>
      </g>
     </g>
     <g id="text_4">
      <text style="font-family:Arial;font-size:10px;font-style:normal;font-weight:normal;text-anchor:middle;" transform="rotate(-0, 216.346757, 238.797812)" x="216.346757" y="238.797812">−3</text>
     </g>
    </g>
    <g id="xtick_5">
     <g id="line2d_5">
      <g>
       <use style="stroke:#000000;stroke-width:0.8;" x="264.379381" xlink:href="#m9572cf705b" y="224.64"/>
      </g>
     </g>
     <g id="text_5">
      <text style="font-family:Arial;font-size:10px;font-style:normal;font-weight:normal;text-anchor:middle;" transform="rotate(-0, 264.379381, 238.797812)" x="264.379381" y="238.797812">−2</text>
     </g>
    </g>
    <g id="xtick_6">
     <g id="line2d_6">
      <g>
       <use style="stroke:#000000;stroke-width:0.8;" x="312.412006" xlink:href="#m9572cf705b" y="224.64"/>
      </g>
     </g>
     <g id="text_6">
      <text style="font-family:Arial;font-size:10px;font-style:normal;font-weight:normal;text-anchor:middle;" transform="rotate(-0, 312.412006, 238.797812)" x="312.412006" y="238.797812">−1</text>
     </g>
    </g>
    <g id="xtick_7">
     <g id="line2d_7">
      <g>
       <use style="stroke:#000000;stroke-width:0.8;" x="360.444631" xlink:href="#m9572cf705b" y="224.64"/>
      </g>
     </g>
     <g id="text_7">
      <text style="font-family:Arial;font-size:10px;font-style:normal;font-weight:normal;text-anchor:middle;" transform="rotate(-0, 360.444631, 238.797812)" x="360.444631" y="238.797812">0</text>
     </g>
    </g>
    <g id="text_8">
     <text style="font-family:Arial;font-size:12px;font-style:normal;font-weight:normal;text-anchor:middle;" transform="rotate(-0, 208.262812, 253.520937)" x="208.262812" y="253.520937">Log10(Rumino/Verruco)</text>
    </g>
   </g>
   <g id="matplotlib.axis_2">
    <g id="ytick_1">
     <g id="line2d_8">
      <defs>
       <path d="M 0 0 
L -3.5 0 
" id="md1bcbcc4aa" style="stroke:#000000;stroke-width:0.8;"/>
      </defs>
      <g>
       <use style="stroke:#000000;stroke-width:0.8;" x="40.862813" xlink:href="#md1bcbcc4aa" y="207.440137"/>
      </g>
     </g>
     <g id="text_9">
      <text style="font-family:Arial;font-size:10px;font-style:normal;font-weight:normal;text-anchor:end;" transform="rotate(-0, 33.862813, 211.019044)" x="33.862813" y="211.019044">−8</text>
     </g>
    </g>
    <g id="ytick_2">
     <g id="line2d_9">
      <g>
       <use style="stroke:#000000;stroke-width:0.8;" x="40.862813" xlink:href="#md1bcbcc4aa" y="159.851012"/>
      </g>
     </g>
     <g id="text_10">
      <text style="font-family:Arial;font-size:10px;font-style:normal;font-weight:normal;text-anchor:end;" transform="rotate(-0, 33.862813, 163.429918)" x="33.862813" y="163.429918">−6</text>
     </g>
    </g>
    <g id="ytick_3">
     <g id="line2d_10">
      <g>
       <use style="stroke:#000000;stroke-width:0.8;" x="40.862813" xlink:href="#md1bcbcc4aa" y="112.261887"/>
      </g>
     </g>
     <g id="text_11">
      <text style="font-family:Arial;font-size:10px;font-style:normal;font-weight:normal;text-anchor:end;" transform="rotate(-0, 33.862813, 115.840793)" x="33.862813" y="115.840793">−4</text>
     </g>
    </g>
    <g id="ytick_4">
     <g id="line2d_11">
      <g>
       <use style="stroke:#000000;stroke-width:0.8;" x="40.862813" xlink:href="#md1bcbcc4aa" y="64.672762"/>
      </g>
     </g>
     <g id="text_12">
      <text style="font-family:Arial;font-size:10px;font-style:normal;font-weight:normal;text-anchor:end;" transform="rotate(-0, 33.862813, 68.251668)" x="33.862813" y="68.251668">−2</text>
     </g>
    </g>
    <g id="ytick_5">
     <g id="line2d_12">
      <g>
       <use style="stroke:#000000;stroke-width:0.8;" x="40.862813" xlink:href="#md1bcbcc4aa" y="17.083636"/>
      </g>
     </g>
     <g id="text_13">
      <text style="font-family:Arial;font-size:10px;font-style:normal;font-weight:normal;text-anchor:end;" transform="rotate(-0, 33.862813, 20.662543)" x="33.862813" y="20.662543">0</text>
     </g>
    </g>
    <g id="text_14">
     <text style="font-family:Arial;font-size:12px;font-style:normal;font-weight:normal;text-anchor:middle;" transform="rotate(-90, 15.935625, 115.92)" x="15.935625" y="115.92">Log10(Rumino/Corio)</text>
    </g>
   </g>
   <g id="line2d_13">
    <path clip-path="url(#pfcfd8946fc)" d="M 40.862813 17.083636 
L 375.662813 17.083636 
" style="fill:none;stroke:#d3d3d3;stroke-dasharray:5.55,2.4;stroke-dashoffset:0;stroke-width:1.5;"/>
   </g>
   <g id="line2d_14">
    <path clip-path="url(#pfcfd8946fc)" d="M 360.444631 224.64 
L 360.444631 7.2 
" style="fill:none;stroke:#d3d3d3;stroke-dasharray:5.55,2.4;stroke-dashoffset:0;stroke-width:1.5;"/>
   </g>
   <g id="patch_3">
    <path d="M 40.862813 224.64 
L 40.862813 7.2 
" style="fill:none;stroke:#000000;stroke-linecap:square;stroke-linejoin:miter;stroke-width:0.8;"/>
   </g>
   <g id="patch_4">
    <path d="M 375.662813 224.64 
L 375.662813 7.2 
" style="fill:none;stroke:#000000;stroke-linecap:square;stroke-linejoin:miter;stroke-width:0.8;"/>
   </g>
   <g id="patch_5">
    <path d="M 40.862812 224.64 
L 375.662813 224.64 
" style="fill:none;stroke:#000000;stroke-linecap:square;stroke-linejoin:miter;stroke-width:0.8;"/>
   </g>
   <g id="patch_6">
    <path d="M 40.862812 7.2 
L 375.662813 7.2 
" style="fill:none;stroke:#000000;stroke-linecap:square;stroke-linejoin:miter;stroke-width:0.8;"/>
   </g>
   <g id="legend_1">
    <g id="patch_7">
     <path d="M 394.402813 95.540625 
L 491.998125 95.540625 
Q 493.998125 95.540625 493.998125 93.540625 
L 493.998125 9.2 
Q 493.998125 7.2 491.998125 7.2 
L 394.402813 7.2 
Q 392.402813 7.2 392.402813 9.2 
L 392.402813 93.540625 
Q 392.402813 95.540625 394.402813 95.540625 
z
" style="fill:#ffffff;opacity:0.8;stroke:#cccccc;stroke-linejoin:miter;"/>
    </g>
    <g id="PathCollection_8">
     <defs>
      <path id="ma1a2c27bba" style="stroke:#ffffff;stroke-width:1.5;"/>
     </defs>
     <g>
      <use style="fill:#ffffff;stroke:#ffffff;stroke-width:1.5;" x="406.402813" xlink:href="#ma1a2c27bba" y="15.732812"/>
     </g>
    </g>
    <g id="text_15">
     <text style="font-family:Arial;font-size:10px;font-style:normal;font-weight:normal;text-anchor:start;" transform="rotate(-0, 424.402813, 18.357812)" x="424.402813" y="18.357812">exposure_type</text>
    </g>
    <g id="PathCollection_9">
     <defs>
      <path d="M 0 3 
C 0.795609 3 1.55874 2.683901 2.12132 2.12132 
C 2.683901 1.55874 3 0.795609 3 0 
C 3 -0.795609 2.683901 -1.55874 2.12132 -2.12132 
C 1.55874 -2.683901 0.795609 -3 0 -3 
C -0.795609 -3 -1.55874 -2.683901 -2.12132 -2.12132 
C -2.683901 -1.55874 -3 -0.795609 -3 0 
C -3 0.795609 -2.683901 1.55874 -2.12132 2.12132 
C -1.55874 2.683901 -0.795609 3 0 3 
z
" id="m5635f9feb9" style="stroke:#0000ff;"/>
     </defs>
     <g>
      <use style="fill:#0000ff;stroke:#0000ff;" x="406.402813" xlink:href="#m5635f9feb9" y="29.995312"/>
     </g>
    </g>
    <g id="text_16">
     <text style="font-family:Arial;font-size:10px;font-style:normal;font-weight:normal;text-anchor:start;" transform="rotate(-0, 424.402813, 32.620312)" x="424.402813" y="32.620312">IHC</text>
    </g>
    <g id="PathCollection_10">
     <defs>
      <path d="M 0 3 
C 0.795609 3 1.55874 2.683901 2.12132 2.12132 
C 2.683901 1.55874 3 0.795609 3 0 
C 3 -0.795609 2.683901 -1.55874 2.12132 -2.12132 
C 1.55874 -2.683901 0.795609 -3 0 -3 
C -0.795609 -3 -1.55874 -2.683901 -2.12132 -2.12132 
C -2.683901 -1.55874 -3 -0.795609 -3 0 
C -3 0.795609 -2.683901 1.55874 -2.12132 2.12132 
C -1.55874 2.683901 -0.795609 3 0 3 
z
" id="m0cdf3e4120" style="stroke:#ff0000;"/>
     </defs>
     <g>
      <use style="fill:#ff0000;stroke:#ff0000;" x="406.402813" xlink:href="#m0cdf3e4120" y="44.140625"/>
     </g>
    </g>
    <g id="text_17">
     <text style="font-family:Arial;font-size:10px;font-style:normal;font-weight:normal;text-anchor:start;" transform="rotate(-0, 424.402813, 46.765625)" x="424.402813" y="46.765625">Air</text>
    </g>
    <g id="PathCollection_11">
     <g>
      <use style="fill:#ffffff;stroke:#ffffff;stroke-width:1.5;" x="406.402813" xlink:href="#ma1a2c27bba" y="58.285937"/>
     </g>
    </g>
    <g id="text_18">
     <text style="font-family:Arial;font-size:10px;font-style:normal;font-weight:normal;text-anchor:start;" transform="rotate(-0, 424.402813, 60.910937)" x="424.402813" y="60.910937">cycle</text>
    </g>
    <g id="PathCollection_12">
     <defs>
      <path d="M 0 3 
C 0.795609 3 1.55874 2.683901 2.12132 2.12132 
C 2.683901 1.55874 3 0.795609 3 0 
C 3 -0.795609 2.683901 -1.55874 2.12132 -2.12132 
C 1.55874 -2.683901 0.795609 -3 0 -3 
C -0.795609 -3 -1.55874 -2.683901 -2.12132 -2.12132 
C -2.683901 -1.55874 -3 -0.795609 -3 0 
C -3 0.795609 -2.683901 1.55874 -2.12132 2.12132 
C -1.55874 2.683901 -0.795609 3 0 3 
z
" id="m76aa6ba431" style="stroke:#333333;"/>
     </defs>
     <g>
      <use style="fill:#333333;stroke:#333333;" x="406.402813" xlink:href="#m76aa6ba431" y="72.548437"/>
     </g>
    </g>
    <g id="text_19">
     <text style="font-family:Arial;font-size:10px;font-style:normal;font-weight:normal;text-anchor:start;" transform="rotate(-0, 424.402813, 75.173437)" x="424.402813" y="75.173437">day</text>
    </g>
    <g id="PathCollection_13">
     <defs>
      <path d="M -1.5 3 
L 0 1.5 
L 1.5 3 
L 3 1.5 
L 1.5 0 
L 3 -1.5 
L 1.5 -3 
L 0 -1.5 
L -1.5 -3 
L -3 -1.5 
L -1.5 0 
L -3 1.5 
z
" id="md3797b06d7" style="stroke:#333333;"/>
     </defs>
     <g>
      <use style="fill:#333333;stroke:#333333;" x="406.402813" xlink:href="#md3797b06d7" y="86.810937"/>
     </g>
    </g>
    <g id="text_20">
     <text style="font-family:Arial;font-size:10px;font-style:normal;font-weight:normal;text-anchor:start;" transform="rotate(-0, 424.402813, 89.435937)" x="424.402813" y="89.435937">night</text>
    </g>
   </g>
  </g>
 </g>
 <defs>
  <clipPath id="pfcfd8946fc">
   <rect height="217.44" width="334.8" x="40.862813" y="7.2"/>
  </clipPath>
 </defs>
</svg>
